<?xml version="1.0" encoding="utf-8" standalone="no"?>
<!DOCTYPE svg PUBLIC "-//W3C//DTD SVG 1.1//EN"
  "http://www.w3.org/Graphics/SVG/1.1/DTD/svg11.dtd">
<svg height="339.258pt" version="1.1" viewBox="0 0 405.482257 339.258" width="405.482257pt" xmlns="http://www.w3.org/2000/svg" xmlns:xlink="http://www.w3.org/1999/xlink">
 <metadata>
  <rdf:RDF xmlns:cc="http://creativecommons.org/ns#" xmlns:dc="http://purl.org/dc/elements/1.1/" xmlns:rdf="http://www.w3.org/1999/02/22-rdf-syntax-ns#">
   <cc:Work>
    <dc:type rdf:resource="http://purl.org/dc/dcmitype/StillImage"/>
    <dc:date>2021-05-27T07:36:21.310970</dc:date>
    <dc:format>image/svg+xml</dc:format>
    <dc:creator>
     <cc:Agent>
      <dc:title>Matplotlib v3.4.2, https://matplotlib.org/</dc:title>
     </cc:Agent>
    </dc:creator>
   </cc:Work>
  </rdf:RDF>
 </metadata>
 <defs>
  <style type="text/css">*{stroke-linecap:butt;stroke-linejoin:round;}</style>
 </defs>
 <g id="figure_1">
  <g id="patch_1">
   <path d="M 0 339.258 
L 405.482257 339.258 
L 405.482257 0 
L 0 0 
z
" style="fill:#ffffff;"/>
  </g>
  <g id="axes_1">
   <g id="patch_2">
    <path d="M 38.2 292.638 
L 395.32 292.638 
L 395.32 26.526 
L 38.2 26.526 
z
" style="fill:#ffffff;"/>
   </g>
   <g id="PolyCollection_1">
    <defs>
     <path d="M 54.432727 -300.636 
L 54.432727 -262.165541 
L 55.556099 -262.165541 
L 56.679472 -262.165541 
L 57.802844 -262.165541 
L 58.926216 -262.165541 
L 60.049588 -262.165541 
L 61.17296 -262.165541 
L 62.296332 -262.165541 
L 63.419704 -262.165541 
L 64.543076 -262.165541 
L 65.666449 -58.716 
L 66.789821 -58.716 
L 67.913193 -58.716 
L 69.036565 -58.716 
L 70.159937 -58.716 
L 71.283309 -58.716 
L 72.406681 -58.716 
L 73.530053 -58.716 
L 74.653426 -58.716 
L 75.776798 -58.716 
L 76.90017 -60.195633 
L 78.023542 -60.195633 
L 79.146914 -60.195633 
L 80.270286 -60.195633 
L 81.393658 -60.195633 
L 82.517031 -60.195633 
L 83.640403 -60.195633 
L 84.763775 -60.195633 
L 85.887147 -60.195633 
L 87.010519 -60.195633 
L 88.133891 -64.634532 
L 89.257263 -64.634532 
L 90.380635 -64.634532 
L 91.504008 -64.634532 
L 92.62738 -64.634532 
L 93.750752 -64.634532 
L 94.874124 -64.634532 
L 95.997496 -64.634532 
L 97.120868 -64.634532 
L 98.24424 -64.634532 
L 99.367612 -74.252147 
L 100.490985 -74.252147 
L 101.614357 -74.252147 
L 102.737729 -74.252147 
L 103.861101 -74.252147 
L 104.984473 -74.252147 
L 106.107845 -74.252147 
L 107.231217 -74.252147 
L 108.354589 -74.252147 
L 109.477962 -74.252147 
L 110.601334 -87.568844 
L 111.724706 -87.568844 
L 112.848078 -87.568844 
L 113.97145 -87.568844 
L 115.094822 -87.568844 
L 116.218194 -87.568844 
L 117.341567 -87.568844 
L 118.464939 -87.568844 
L 119.588311 -87.568844 
L 120.711683 -87.568844 
L 121.835055 -102.365174 
L 122.958427 -102.365174 
L 124.081799 -102.365174 
L 125.205171 -102.365174 
L 126.328544 -102.365174 
L 127.451916 -102.365174 
L 128.575288 -102.365174 
L 129.69866 -102.365174 
L 130.822032 -102.365174 
L 131.945404 -102.365174 
L 133.068776 -114.202239 
L 134.192148 -114.202239 
L 135.315521 -114.202239 
L 136.438893 -114.202239 
L 137.562265 -114.202239 
L 138.685637 -114.202239 
L 139.809009 -114.202239 
L 140.932381 -114.202239 
L 142.055753 -114.202239 
L 143.179126 -114.202239 
L 144.302498 -120.120771 
L 145.42587 -120.120771 
L 146.549242 -120.120771 
L 147.672614 -120.120771 
L 148.795986 -120.120771 
L 149.919358 -120.120771 
L 151.04273 -120.120771 
L 152.166103 -120.120771 
L 153.289475 -120.120771 
L 154.412847 -120.120771 
L 155.536219 -117.901321 
L 156.659591 -117.901321 
L 157.782963 -117.901321 
L 158.906335 -117.901321 
L 160.029707 -117.901321 
L 161.15308 -117.901321 
L 162.276452 -117.901321 
L 163.399824 -117.901321 
L 164.523196 -117.901321 
L 165.646568 -117.901321 
L 166.76994 -109.763339 
L 167.893312 -109.763339 
L 169.016684 -109.763339 
L 170.140057 -109.763339 
L 171.263429 -109.763339 
L 172.386801 -109.763339 
L 173.510173 -109.763339 
L 174.633545 -109.763339 
L 175.756917 -109.763339 
L 176.880289 -109.763339 
L 178.003662 -97.926275 
L 179.127034 -97.926275 
L 180.250406 -97.926275 
L 181.373778 -97.926275 
L 182.49715 -97.926275 
L 183.620522 -97.926275 
L 184.743894 -97.926275 
L 185.867266 -97.926275 
L 186.990639 -97.926275 
L 188.114011 -97.926275 
L 189.237383 -86.089211 
L 190.360755 -86.089211 
L 191.484127 -86.089211 
L 192.607499 -86.089211 
L 193.730871 -86.089211 
L 194.854243 -86.089211 
L 195.977616 -86.089211 
L 197.100988 -86.089211 
L 198.22436 -86.089211 
L 199.347732 -86.089211 
L 200.471104 -75.73178 
L 201.594476 -75.73178 
L 202.717848 -75.73178 
L 203.841221 -75.73178 
L 204.964593 -75.73178 
L 206.087965 -75.73178 
L 207.211337 -75.73178 
L 208.334709 -75.73178 
L 209.458081 -75.73178 
L 210.581453 -75.73178 
L 211.704825 -68.333615 
L 212.828198 -68.333615 
L 213.95157 -68.333615 
L 215.074942 -68.333615 
L 216.198314 -68.333615 
L 217.321686 -68.333615 
L 218.445058 -68.333615 
L 219.56843 -68.333615 
L 220.691802 -68.333615 
L 221.815175 -68.333615 
L 222.938547 -63.894716 
L 224.061919 -63.894716 
L 225.185291 -63.894716 
L 226.308663 -63.894716 
L 227.432035 -63.894716 
L 228.555407 -63.894716 
L 229.678779 -63.894716 
L 230.802152 -63.894716 
L 231.925524 -63.894716 
L 233.048896 -63.894716 
L 234.172268 -60.93545 
L 235.29564 -60.93545 
L 236.419012 -60.93545 
L 237.542384 -60.93545 
L 238.665757 -60.93545 
L 239.789129 -60.93545 
L 240.912501 -60.93545 
L 242.035873 -60.93545 
L 243.159245 -60.93545 
L 244.282617 -60.93545 
L 245.405989 -59.455817 
L 246.529361 -59.455817 
L 247.652734 -59.455817 
L 248.776106 -59.455817 
L 249.899478 -59.455817 
L 251.02285 -59.455817 
L 252.146222 -59.455817 
L 253.269594 -59.455817 
L 254.392966 -59.455817 
L 255.516338 -59.455817 
L 256.639711 -58.716 
L 257.763083 -58.716 
L 258.886455 -58.716 
L 260.009827 -58.716 
L 261.133199 -58.716 
L 262.256571 -58.716 
L 263.379943 -58.716 
L 264.503316 -58.716 
L 265.626688 -58.716 
L 266.75006 -58.716 
L 267.873432 -58.716 
L 268.996804 -58.716 
L 270.120176 -58.716 
L 271.243548 -58.716 
L 272.36692 -58.716 
L 273.490293 -58.716 
L 274.613665 -58.716 
L 275.737037 -58.716 
L 276.860409 -58.716 
L 277.983781 -58.716 
L 279.107153 -58.716 
L 280.230525 -58.716 
L 281.353897 -58.716 
L 282.47727 -58.716 
L 283.600642 -58.716 
L 284.724014 -58.716 
L 285.847386 -58.716 
L 286.970758 -58.716 
L 288.09413 -58.716 
L 289.217502 -58.716 
L 290.340874 -58.716 
L 291.464247 -58.716 
L 292.587619 -58.716 
L 293.710991 -58.716 
L 294.834363 -58.716 
L 295.957735 -58.716 
L 297.081107 -58.716 
L 298.204479 -58.716 
L 299.327852 -58.716 
L 300.451224 -58.716 
L 301.574596 -58.716 
L 302.697968 -58.716 
L 303.82134 -58.716 
L 304.944712 -58.716 
L 306.068084 -58.716 
L 307.191456 -58.716 
L 308.314829 -58.716 
L 309.438201 -58.716 
L 310.561573 -58.716 
L 311.684945 -58.716 
L 312.808317 -58.716 
L 313.931689 -58.716 
L 315.055061 -58.716 
L 316.178433 -58.716 
L 317.301806 -58.716 
L 318.425178 -58.716 
L 319.54855 -58.716 
L 320.671922 -58.716 
L 321.795294 -58.716 
L 322.918666 -58.716 
L 324.042038 -58.716 
L 325.165411 -58.716 
L 326.288783 -58.716 
L 327.412155 -58.716 
L 328.535527 -58.716 
L 329.658899 -58.716 
L 330.782271 -58.716 
L 331.905643 -58.716 
L 333.029015 -58.716 
L 334.152388 -58.716 
L 335.27576 -58.716 
L 336.399132 -58.716 
L 337.522504 -58.716 
L 338.645876 -58.716 
L 339.769248 -58.716 
L 340.89262 -58.716 
L 342.015992 -58.716 
L 343.139365 -58.716 
L 344.262737 -58.716 
L 345.386109 -58.716 
L 346.509481 -58.716 
L 347.632853 -58.716 
L 348.756225 -58.716 
L 349.879597 -58.716 
L 351.002969 -58.716 
L 352.126342 -58.716 
L 353.249714 -58.716 
L 354.373086 -58.716 
L 355.496458 -58.716 
L 356.61983 -58.716 
L 357.743202 -58.716 
L 358.866574 -58.716 
L 359.989947 -58.716 
L 361.113319 -58.716 
L 362.236691 -58.716 
L 363.360063 -58.716 
L 364.483435 -58.716 
L 365.606807 -58.716 
L 366.730179 -58.716 
L 367.853551 -58.716 
L 368.976924 -58.716 
L 370.100296 -58.716 
L 371.223668 -58.716 
L 372.34704 -58.716 
L 373.470412 -58.716 
L 374.593784 -58.716 
L 375.717156 -58.716 
L 376.840528 -58.716 
L 377.963901 -58.716 
L 379.087273 -58.716 
L 379.087273 -58.716 
L 379.087273 -58.716 
L 377.963901 -58.716 
L 376.840528 -58.716 
L 375.717156 -58.716 
L 374.593784 -58.716 
L 373.470412 -58.716 
L 372.34704 -58.716 
L 371.223668 -58.716 
L 370.100296 -58.716 
L 368.976924 -58.716 
L 367.853551 -58.716 
L 366.730179 -58.716 
L 365.606807 -58.716 
L 364.483435 -58.716 
L 363.360063 -58.716 
L 362.236691 -58.716 
L 361.113319 -58.716 
L 359.989947 -58.716 
L 358.866574 -58.716 
L 357.743202 -58.716 
L 356.61983 -58.716 
L 355.496458 -58.716 
L 354.373086 -58.716 
L 353.249714 -58.716 
L 352.126342 -58.716 
L 351.002969 -58.716 
L 349.879597 -58.716 
L 348.756225 -58.716 
L 347.632853 -58.716 
L 346.509481 -58.716 
L 345.386109 -58.716 
L 344.262737 -58.716 
L 343.139365 -58.716 
L 342.015992 -58.716 
L 340.89262 -58.716 
L 339.769248 -58.716 
L 338.645876 -58.716 
L 337.522504 -58.716 
L 336.399132 -58.716 
L 335.27576 -58.716 
L 334.152388 -58.716 
L 333.029015 -58.716 
L 331.905643 -58.716 
L 330.782271 -58.716 
L 329.658899 -58.716 
L 328.535527 -58.716 
L 327.412155 -58.716 
L 326.288783 -58.716 
L 325.165411 -58.716 
L 324.042038 -58.716 
L 322.918666 -58.716 
L 321.795294 -58.716 
L 320.671922 -58.716 
L 319.54855 -58.716 
L 318.425178 -58.716 
L 317.301806 -58.716 
L 316.178433 -58.716 
L 315.055061 -58.716 
L 313.931689 -58.716 
L 312.808317 -58.716 
L 311.684945 -58.716 
L 310.561573 -58.716 
L 309.438201 -58.716 
L 308.314829 -58.716 
L 307.191456 -58.716 
L 306.068084 -58.716 
L 304.944712 -58.716 
L 303.82134 -58.716 
L 302.697968 -58.716 
L 301.574596 -58.716 
L 300.451224 -59.455817 
L 299.327852 -59.455817 
L 298.204479 -59.455817 
L 297.081107 -59.455817 
L 295.957735 -59.455817 
L 294.834363 -59.455817 
L 293.710991 -59.455817 
L 292.587619 -59.455817 
L 291.464247 -59.455817 
L 290.340874 -59.455817 
L 289.217502 -59.455817 
L 288.09413 -59.455817 
L 286.970758 -59.455817 
L 285.847386 -59.455817 
L 284.724014 -59.455817 
L 283.600642 -59.455817 
L 282.47727 -59.455817 
L 281.353897 -59.455817 
L 280.230525 -59.455817 
L 279.107153 -59.455817 
L 277.983781 -60.195633 
L 276.860409 -60.195633 
L 275.737037 -60.195633 
L 274.613665 -60.195633 
L 273.490293 -60.195633 
L 272.36692 -60.195633 
L 271.243548 -60.195633 
L 270.120176 -60.195633 
L 268.996804 -60.195633 
L 267.873432 -60.195633 
L 266.75006 -60.93545 
L 265.626688 -60.93545 
L 264.503316 -60.93545 
L 263.379943 -60.93545 
L 262.256571 -60.93545 
L 261.133199 -60.93545 
L 260.009827 -60.93545 
L 258.886455 -60.93545 
L 257.763083 -60.93545 
L 256.639711 -60.93545 
L 255.516338 -63.154899 
L 254.392966 -63.154899 
L 253.269594 -63.154899 
L 252.146222 -63.154899 
L 251.02285 -63.154899 
L 249.899478 -63.154899 
L 248.776106 -63.154899 
L 247.652734 -63.154899 
L 246.529361 -63.154899 
L 245.405989 -63.154899 
L 244.282617 -65.374349 
L 243.159245 -65.374349 
L 242.035873 -65.374349 
L 240.912501 -65.374349 
L 239.789129 -65.374349 
L 238.665757 -65.374349 
L 237.542384 -65.374349 
L 236.419012 -65.374349 
L 235.29564 -65.374349 
L 234.172268 -65.374349 
L 233.048896 -70.553064 
L 231.925524 -70.553064 
L 230.802152 -70.553064 
L 229.678779 -70.553064 
L 228.555407 -70.553064 
L 227.432035 -70.553064 
L 226.308663 -70.553064 
L 225.185291 -70.553064 
L 224.061919 -70.553064 
L 222.938547 -70.553064 
L 221.815175 -77.211413 
L 220.691802 -77.211413 
L 219.56843 -77.211413 
L 218.445058 -77.211413 
L 217.321686 -77.211413 
L 216.198314 -77.211413 
L 215.074942 -77.211413 
L 213.95157 -77.211413 
L 212.828198 -77.211413 
L 211.704825 -77.211413 
L 210.581453 -86.829028 
L 209.458081 -86.829028 
L 208.334709 -86.829028 
L 207.211337 -86.829028 
L 206.087965 -86.829028 
L 204.964593 -86.829028 
L 203.841221 -86.829028 
L 202.717848 -86.829028 
L 201.594476 -86.829028 
L 200.471104 -86.829028 
L 199.347732 -98.666092 
L 198.22436 -98.666092 
L 197.100988 -98.666092 
L 195.977616 -98.666092 
L 194.854243 -98.666092 
L 193.730871 -98.666092 
L 192.607499 -98.666092 
L 191.484127 -98.666092 
L 190.360755 -98.666092 
L 189.237383 -98.666092 
L 188.114011 -113.462422 
L 186.990639 -113.462422 
L 185.867266 -113.462422 
L 184.743894 -113.462422 
L 183.620522 -113.462422 
L 182.49715 -113.462422 
L 181.373778 -113.462422 
L 180.250406 -113.462422 
L 179.127034 -113.462422 
L 178.003662 -113.462422 
L 176.880289 -126.039303 
L 175.756917 -126.039303 
L 174.633545 -126.039303 
L 173.510173 -126.039303 
L 172.386801 -126.039303 
L 171.263429 -126.039303 
L 170.140057 -126.039303 
L 169.016684 -126.039303 
L 167.893312 -126.039303 
L 166.76994 -126.039303 
L 165.646568 -135.656917 
L 164.523196 -135.656917 
L 163.399824 -135.656917 
L 162.276452 -135.656917 
L 161.15308 -135.656917 
L 160.029707 -135.656917 
L 158.906335 -135.656917 
L 157.782963 -135.656917 
L 156.659591 -135.656917 
L 155.536219 -135.656917 
L 154.412847 -137.876367 
L 153.289475 -137.876367 
L 152.166103 -137.876367 
L 151.04273 -137.876367 
L 149.919358 -137.876367 
L 148.795986 -137.876367 
L 147.672614 -137.876367 
L 146.549242 -137.876367 
L 145.42587 -137.876367 
L 144.302498 -137.876367 
L 143.179126 -131.957835 
L 142.055753 -131.957835 
L 140.932381 -131.957835 
L 139.809009 -131.957835 
L 138.685637 -131.957835 
L 137.562265 -131.957835 
L 136.438893 -131.957835 
L 135.315521 -131.957835 
L 134.192148 -131.957835 
L 133.068776 -131.957835 
L 131.945404 -118.641138 
L 130.822032 -118.641138 
L 129.69866 -118.641138 
L 128.575288 -118.641138 
L 127.451916 -118.641138 
L 126.328544 -118.641138 
L 125.205171 -118.641138 
L 124.081799 -118.641138 
L 122.958427 -118.641138 
L 121.835055 -118.641138 
L 120.711683 -100.885541 
L 119.588311 -100.885541 
L 118.464939 -100.885541 
L 117.341567 -100.885541 
L 116.218194 -100.885541 
L 115.094822 -100.885541 
L 113.97145 -100.885541 
L 112.848078 -100.885541 
L 111.724706 -100.885541 
L 110.601334 -100.885541 
L 109.477962 -84.609578 
L 108.354589 -84.609578 
L 107.231217 -84.609578 
L 106.107845 -84.609578 
L 104.984473 -84.609578 
L 103.861101 -84.609578 
L 102.737729 -84.609578 
L 101.614357 -84.609578 
L 100.490985 -84.609578 
L 99.367612 -84.609578 
L 98.24424 -72.032697 
L 97.120868 -72.032697 
L 95.997496 -72.032697 
L 94.874124 -72.032697 
L 93.750752 -72.032697 
L 92.62738 -72.032697 
L 91.504008 -72.032697 
L 90.380635 -72.032697 
L 89.257263 -72.032697 
L 88.133891 -72.032697 
L 87.010519 -63.894716 
L 85.887147 -63.894716 
L 84.763775 -63.894716 
L 83.640403 -63.894716 
L 82.517031 -63.894716 
L 81.393658 -63.894716 
L 80.270286 -63.894716 
L 79.146914 -63.894716 
L 78.023542 -63.894716 
L 76.90017 -63.894716 
L 75.776798 -60.195633 
L 74.653426 -60.195633 
L 73.530053 -60.195633 
L 72.406681 -60.195633 
L 71.283309 -60.195633 
L 70.159937 -60.195633 
L 69.036565 -60.195633 
L 67.913193 -60.195633 
L 66.789821 -60.195633 
L 65.666449 -60.195633 
L 64.543076 -300.636 
L 63.419704 -300.636 
L 62.296332 -300.636 
L 61.17296 -300.636 
L 60.049588 -300.636 
L 58.926216 -300.636 
L 57.802844 -300.636 
L 56.679472 -300.636 
L 55.556099 -300.636 
L 54.432727 -300.636 
z
" id="m9691822b36" style="stroke:#dcbcbc;"/>
    </defs>
    <g clip-path="url(#p3f0d9ba20a)">
     <use style="fill:#dcbcbc;stroke:#dcbcbc;" x="0" xlink:href="#m9691822b36" y="339.258"/>
    </g>
   </g>
   <g id="PolyCollection_2">
    <defs>
     <path d="M 54.432727 -293.977651 
L 54.432727 -268.82389 
L 55.556099 -268.82389 
L 56.679472 -268.82389 
L 57.802844 -268.82389 
L 58.926216 -268.82389 
L 60.049588 -268.82389 
L 61.17296 -268.82389 
L 62.296332 -268.82389 
L 63.419704 -268.82389 
L 64.543076 -268.82389 
L 65.666449 -58.716 
L 66.789821 -58.716 
L 67.913193 -58.716 
L 69.036565 -58.716 
L 70.159937 -58.716 
L 71.283309 -58.716 
L 72.406681 -58.716 
L 73.530053 -58.716 
L 74.653426 -58.716 
L 75.776798 -58.716 
L 76.90017 -60.93545 
L 78.023542 -60.93545 
L 79.146914 -60.93545 
L 80.270286 -60.93545 
L 81.393658 -60.93545 
L 82.517031 -60.93545 
L 83.640403 -60.93545 
L 84.763775 -60.93545 
L 85.887147 -60.93545 
L 87.010519 -60.93545 
L 88.133891 -65.374349 
L 89.257263 -65.374349 
L 90.380635 -65.374349 
L 91.504008 -65.374349 
L 92.62738 -65.374349 
L 93.750752 -65.374349 
L 94.874124 -65.374349 
L 95.997496 -65.374349 
L 97.120868 -65.374349 
L 98.24424 -65.374349 
L 99.367612 -75.73178 
L 100.490985 -75.73178 
L 101.614357 -75.73178 
L 102.737729 -75.73178 
L 103.861101 -75.73178 
L 104.984473 -75.73178 
L 106.107845 -75.73178 
L 107.231217 -75.73178 
L 108.354589 -75.73178 
L 109.477962 -75.73178 
L 110.601334 -89.788294 
L 111.724706 -89.788294 
L 112.848078 -89.788294 
L 113.97145 -89.788294 
L 115.094822 -89.788294 
L 116.218194 -89.788294 
L 117.341567 -89.788294 
L 118.464939 -89.788294 
L 119.588311 -89.788294 
L 120.711683 -89.788294 
L 121.835055 -105.32444 
L 122.958427 -105.32444 
L 124.081799 -105.32444 
L 125.205171 -105.32444 
L 126.328544 -105.32444 
L 127.451916 -105.32444 
L 128.575288 -105.32444 
L 129.69866 -105.32444 
L 130.822032 -105.32444 
L 131.945404 -105.32444 
L 133.068776 -117.161505 
L 134.192148 -117.161505 
L 135.315521 -117.161505 
L 136.438893 -117.161505 
L 137.562265 -117.161505 
L 138.685637 -117.161505 
L 139.809009 -117.161505 
L 140.932381 -117.161505 
L 142.055753 -117.161505 
L 143.179126 -117.161505 
L 144.302498 -123.080037 
L 145.42587 -123.080037 
L 146.549242 -123.080037 
L 147.672614 -123.080037 
L 148.795986 -123.080037 
L 149.919358 -123.080037 
L 151.04273 -123.080037 
L 152.166103 -123.080037 
L 153.289475 -123.080037 
L 154.412847 -123.080037 
L 155.536219 -120.860587 
L 156.659591 -120.860587 
L 157.782963 -120.860587 
L 158.906335 -120.860587 
L 160.029707 -120.860587 
L 161.15308 -120.860587 
L 162.276452 -120.860587 
L 163.399824 -120.860587 
L 164.523196 -120.860587 
L 165.646568 -120.860587 
L 166.76994 -112.722606 
L 167.893312 -112.722606 
L 169.016684 -112.722606 
L 170.140057 -112.722606 
L 171.263429 -112.722606 
L 172.386801 -112.722606 
L 173.510173 -112.722606 
L 174.633545 -112.722606 
L 175.756917 -112.722606 
L 176.880289 -112.722606 
L 178.003662 -100.885541 
L 179.127034 -100.885541 
L 180.250406 -100.885541 
L 181.373778 -100.885541 
L 182.49715 -100.885541 
L 183.620522 -100.885541 
L 184.743894 -100.885541 
L 185.867266 -100.885541 
L 186.990639 -100.885541 
L 188.114011 -100.885541 
L 189.237383 -88.308661 
L 190.360755 -88.308661 
L 191.484127 -88.308661 
L 192.607499 -88.308661 
L 193.730871 -88.308661 
L 194.854243 -88.308661 
L 195.977616 -88.308661 
L 197.100988 -88.308661 
L 198.22436 -88.308661 
L 199.347732 -88.308661 
L 200.471104 -77.951229 
L 201.594476 -77.951229 
L 202.717848 -77.951229 
L 203.841221 -77.951229 
L 204.964593 -77.951229 
L 206.087965 -77.951229 
L 207.211337 -77.951229 
L 208.334709 -77.951229 
L 209.458081 -77.951229 
L 210.581453 -77.951229 
L 211.704825 -69.813248 
L 212.828198 -69.813248 
L 213.95157 -69.813248 
L 215.074942 -69.813248 
L 216.198314 -69.813248 
L 217.321686 -69.813248 
L 218.445058 -69.813248 
L 219.56843 -69.813248 
L 220.691802 -69.813248 
L 221.815175 -69.813248 
L 222.938547 -64.634532 
L 224.061919 -64.634532 
L 225.185291 -64.634532 
L 226.308663 -64.634532 
L 227.432035 -64.634532 
L 228.555407 -64.634532 
L 229.678779 -64.634532 
L 230.802152 -64.634532 
L 231.925524 -64.634532 
L 233.048896 -64.634532 
L 234.172268 -61.675266 
L 235.29564 -61.675266 
L 236.419012 -61.675266 
L 237.542384 -61.675266 
L 238.665757 -61.675266 
L 239.789129 -61.675266 
L 240.912501 -61.675266 
L 242.035873 -61.675266 
L 243.159245 -61.675266 
L 244.282617 -61.675266 
L 245.405989 -60.195633 
L 246.529361 -60.195633 
L 247.652734 -60.195633 
L 248.776106 -60.195633 
L 249.899478 -60.195633 
L 251.02285 -60.195633 
L 252.146222 -60.195633 
L 253.269594 -60.195633 
L 254.392966 -60.195633 
L 255.516338 -60.195633 
L 256.639711 -58.716 
L 257.763083 -58.716 
L 258.886455 -58.716 
L 260.009827 -58.716 
L 261.133199 -58.716 
L 262.256571 -58.716 
L 263.379943 -58.716 
L 264.503316 -58.716 
L 265.626688 -58.716 
L 266.75006 -58.716 
L 267.873432 -58.716 
L 268.996804 -58.716 
L 270.120176 -58.716 
L 271.243548 -58.716 
L 272.36692 -58.716 
L 273.490293 -58.716 
L 274.613665 -58.716 
L 275.737037 -58.716 
L 276.860409 -58.716 
L 277.983781 -58.716 
L 279.107153 -58.716 
L 280.230525 -58.716 
L 281.353897 -58.716 
L 282.47727 -58.716 
L 283.600642 -58.716 
L 284.724014 -58.716 
L 285.847386 -58.716 
L 286.970758 -58.716 
L 288.09413 -58.716 
L 289.217502 -58.716 
L 290.340874 -58.716 
L 291.464247 -58.716 
L 292.587619 -58.716 
L 293.710991 -58.716 
L 294.834363 -58.716 
L 295.957735 -58.716 
L 297.081107 -58.716 
L 298.204479 -58.716 
L 299.327852 -58.716 
L 300.451224 -58.716 
L 301.574596 -58.716 
L 302.697968 -58.716 
L 303.82134 -58.716 
L 304.944712 -58.716 
L 306.068084 -58.716 
L 307.191456 -58.716 
L 308.314829 -58.716 
L 309.438201 -58.716 
L 310.561573 -58.716 
L 311.684945 -58.716 
L 312.808317 -58.716 
L 313.931689 -58.716 
L 315.055061 -58.716 
L 316.178433 -58.716 
L 317.301806 -58.716 
L 318.425178 -58.716 
L 319.54855 -58.716 
L 320.671922 -58.716 
L 321.795294 -58.716 
L 322.918666 -58.716 
L 324.042038 -58.716 
L 325.165411 -58.716 
L 326.288783 -58.716 
L 327.412155 -58.716 
L 328.535527 -58.716 
L 329.658899 -58.716 
L 330.782271 -58.716 
L 331.905643 -58.716 
L 333.029015 -58.716 
L 334.152388 -58.716 
L 335.27576 -58.716 
L 336.399132 -58.716 
L 337.522504 -58.716 
L 338.645876 -58.716 
L 339.769248 -58.716 
L 340.89262 -58.716 
L 342.015992 -58.716 
L 343.139365 -58.716 
L 344.262737 -58.716 
L 345.386109 -58.716 
L 346.509481 -58.716 
L 347.632853 -58.716 
L 348.756225 -58.716 
L 349.879597 -58.716 
L 351.002969 -58.716 
L 352.126342 -58.716 
L 353.249714 -58.716 
L 354.373086 -58.716 
L 355.496458 -58.716 
L 356.61983 -58.716 
L 357.743202 -58.716 
L 358.866574 -58.716 
L 359.989947 -58.716 
L 361.113319 -58.716 
L 362.236691 -58.716 
L 363.360063 -58.716 
L 364.483435 -58.716 
L 365.606807 -58.716 
L 366.730179 -58.716 
L 367.853551 -58.716 
L 368.976924 -58.716 
L 370.100296 -58.716 
L 371.223668 -58.716 
L 372.34704 -58.716 
L 373.470412 -58.716 
L 374.593784 -58.716 
L 375.717156 -58.716 
L 376.840528 -58.716 
L 377.963901 -58.716 
L 379.087273 -58.716 
L 379.087273 -58.716 
L 379.087273 -58.716 
L 377.963901 -58.716 
L 376.840528 -58.716 
L 375.717156 -58.716 
L 374.593784 -58.716 
L 373.470412 -58.716 
L 372.34704 -58.716 
L 371.223668 -58.716 
L 370.100296 -58.716 
L 368.976924 -58.716 
L 367.853551 -58.716 
L 366.730179 -58.716 
L 365.606807 -58.716 
L 364.483435 -58.716 
L 363.360063 -58.716 
L 362.236691 -58.716 
L 361.113319 -58.716 
L 359.989947 -58.716 
L 358.866574 -58.716 
L 357.743202 -58.716 
L 356.61983 -58.716 
L 355.496458 -58.716 
L 354.373086 -58.716 
L 353.249714 -58.716 
L 352.126342 -58.716 
L 351.002969 -58.716 
L 349.879597 -58.716 
L 348.756225 -58.716 
L 347.632853 -58.716 
L 346.509481 -58.716 
L 345.386109 -58.716 
L 344.262737 -58.716 
L 343.139365 -58.716 
L 342.015992 -58.716 
L 340.89262 -58.716 
L 339.769248 -58.716 
L 338.645876 -58.716 
L 337.522504 -58.716 
L 336.399132 -58.716 
L 335.27576 -58.716 
L 334.152388 -58.716 
L 333.029015 -58.716 
L 331.905643 -58.716 
L 330.782271 -58.716 
L 329.658899 -58.716 
L 328.535527 -58.716 
L 327.412155 -58.716 
L 326.288783 -58.716 
L 325.165411 -58.716 
L 324.042038 -58.716 
L 322.918666 -58.716 
L 321.795294 -58.716 
L 320.671922 -58.716 
L 319.54855 -58.716 
L 318.425178 -58.716 
L 317.301806 -58.716 
L 316.178433 -58.716 
L 315.055061 -58.716 
L 313.931689 -58.716 
L 312.808317 -58.716 
L 311.684945 -58.716 
L 310.561573 -58.716 
L 309.438201 -58.716 
L 308.314829 -58.716 
L 307.191456 -58.716 
L 306.068084 -58.716 
L 304.944712 -58.716 
L 303.82134 -58.716 
L 302.697968 -58.716 
L 301.574596 -58.716 
L 300.451224 -58.716 
L 299.327852 -58.716 
L 298.204479 -58.716 
L 297.081107 -58.716 
L 295.957735 -58.716 
L 294.834363 -58.716 
L 293.710991 -58.716 
L 292.587619 -58.716 
L 291.464247 -58.716 
L 290.340874 -58.716 
L 289.217502 -59.455817 
L 288.09413 -59.455817 
L 286.970758 -59.455817 
L 285.847386 -59.455817 
L 284.724014 -59.455817 
L 283.600642 -59.455817 
L 282.47727 -59.455817 
L 281.353897 -59.455817 
L 280.230525 -59.455817 
L 279.107153 -59.455817 
L 277.983781 -59.455817 
L 276.860409 -59.455817 
L 275.737037 -59.455817 
L 274.613665 -59.455817 
L 273.490293 -59.455817 
L 272.36692 -59.455817 
L 271.243548 -59.455817 
L 270.120176 -59.455817 
L 268.996804 -59.455817 
L 267.873432 -59.455817 
L 266.75006 -60.195633 
L 265.626688 -60.195633 
L 264.503316 -60.195633 
L 263.379943 -60.195633 
L 262.256571 -60.195633 
L 261.133199 -60.195633 
L 260.009827 -60.195633 
L 258.886455 -60.195633 
L 257.763083 -60.195633 
L 256.639711 -60.195633 
L 255.516338 -62.415083 
L 254.392966 -62.415083 
L 253.269594 -62.415083 
L 252.146222 -62.415083 
L 251.02285 -62.415083 
L 249.899478 -62.415083 
L 248.776106 -62.415083 
L 247.652734 -62.415083 
L 246.529361 -62.415083 
L 245.405989 -62.415083 
L 244.282617 -64.634532 
L 243.159245 -64.634532 
L 242.035873 -64.634532 
L 240.912501 -64.634532 
L 239.789129 -64.634532 
L 238.665757 -64.634532 
L 237.542384 -64.634532 
L 236.419012 -64.634532 
L 235.29564 -64.634532 
L 234.172268 -64.634532 
L 233.048896 -69.073431 
L 231.925524 -69.073431 
L 230.802152 -69.073431 
L 229.678779 -69.073431 
L 228.555407 -69.073431 
L 227.432035 -69.073431 
L 226.308663 -69.073431 
L 225.185291 -69.073431 
L 224.061919 -69.073431 
L 222.938547 -69.073431 
L 221.815175 -75.73178 
L 220.691802 -75.73178 
L 219.56843 -75.73178 
L 218.445058 -75.73178 
L 217.321686 -75.73178 
L 216.198314 -75.73178 
L 215.074942 -75.73178 
L 213.95157 -75.73178 
L 212.828198 -75.73178 
L 211.704825 -75.73178 
L 210.581453 -85.349394 
L 209.458081 -85.349394 
L 208.334709 -85.349394 
L 207.211337 -85.349394 
L 206.087965 -85.349394 
L 204.964593 -85.349394 
L 203.841221 -85.349394 
L 202.717848 -85.349394 
L 201.594476 -85.349394 
L 200.471104 -85.349394 
L 199.347732 -97.186459 
L 198.22436 -97.186459 
L 197.100988 -97.186459 
L 195.977616 -97.186459 
L 194.854243 -97.186459 
L 193.730871 -97.186459 
L 192.607499 -97.186459 
L 191.484127 -97.186459 
L 190.360755 -97.186459 
L 189.237383 -97.186459 
L 188.114011 -110.503156 
L 186.990639 -110.503156 
L 185.867266 -110.503156 
L 184.743894 -110.503156 
L 183.620522 -110.503156 
L 182.49715 -110.503156 
L 181.373778 -110.503156 
L 180.250406 -110.503156 
L 179.127034 -110.503156 
L 178.003662 -110.503156 
L 176.880289 -123.080037 
L 175.756917 -123.080037 
L 174.633545 -123.080037 
L 173.510173 -123.080037 
L 172.386801 -123.080037 
L 171.263429 -123.080037 
L 170.140057 -123.080037 
L 169.016684 -123.080037 
L 167.893312 -123.080037 
L 166.76994 -123.080037 
L 165.646568 -131.957835 
L 164.523196 -131.957835 
L 163.399824 -131.957835 
L 162.276452 -131.957835 
L 161.15308 -131.957835 
L 160.029707 -131.957835 
L 158.906335 -131.957835 
L 157.782963 -131.957835 
L 156.659591 -131.957835 
L 155.536219 -131.957835 
L 154.412847 -134.177284 
L 153.289475 -134.177284 
L 152.166103 -134.177284 
L 151.04273 -134.177284 
L 149.919358 -134.177284 
L 148.795986 -134.177284 
L 147.672614 -134.177284 
L 146.549242 -134.177284 
L 145.42587 -134.177284 
L 144.302498 -134.177284 
L 143.179126 -128.406716 
L 142.055753 -128.406716 
L 140.932381 -128.406716 
L 139.809009 -128.406716 
L 138.685637 -128.406716 
L 137.562265 -128.406716 
L 136.438893 -128.406716 
L 135.315521 -128.406716 
L 134.192148 -128.406716 
L 133.068776 -128.406716 
L 131.945404 -115.681872 
L 130.822032 -115.681872 
L 129.69866 -115.681872 
L 128.575288 -115.681872 
L 127.451916 -115.681872 
L 126.328544 -115.681872 
L 125.205171 -115.681872 
L 124.081799 -115.681872 
L 122.958427 -115.681872 
L 121.835055 -115.681872 
L 120.711683 -98.666092 
L 119.588311 -98.666092 
L 118.464939 -98.666092 
L 117.341567 -98.666092 
L 116.218194 -98.666092 
L 115.094822 -98.666092 
L 113.97145 -98.666092 
L 112.848078 -98.666092 
L 111.724706 -98.666092 
L 110.601334 -98.666092 
L 109.477962 -82.390128 
L 108.354589 -82.390128 
L 107.231217 -82.390128 
L 106.107845 -82.390128 
L 104.984473 -82.390128 
L 103.861101 -82.390128 
L 102.737729 -82.390128 
L 101.614357 -82.390128 
L 100.490985 -82.390128 
L 99.367612 -82.390128 
L 98.24424 -70.553064 
L 97.120868 -70.553064 
L 95.997496 -70.553064 
L 94.874124 -70.553064 
L 93.750752 -70.553064 
L 92.62738 -70.553064 
L 91.504008 -70.553064 
L 90.380635 -70.553064 
L 89.257263 -70.553064 
L 88.133891 -70.553064 
L 87.010519 -63.154899 
L 85.887147 -63.154899 
L 84.763775 -63.154899 
L 83.640403 -63.154899 
L 82.517031 -63.154899 
L 81.393658 -63.154899 
L 80.270286 -63.154899 
L 79.146914 -63.154899 
L 78.023542 -63.154899 
L 76.90017 -63.154899 
L 75.776798 -60.195633 
L 74.653426 -60.195633 
L 73.530053 -60.195633 
L 72.406681 -60.195633 
L 71.283309 -60.195633 
L 70.159937 -60.195633 
L 69.036565 -60.195633 
L 67.913193 -60.195633 
L 66.789821 -60.195633 
L 65.666449 -60.195633 
L 64.543076 -293.977651 
L 63.419704 -293.977651 
L 62.296332 -293.977651 
L 61.17296 -293.977651 
L 60.049588 -293.977651 
L 58.926216 -293.977651 
L 57.802844 -293.977651 
L 56.679472 -293.977651 
L 55.556099 -293.977651 
L 54.432727 -293.977651 
z
" id="m8d5630d87d" style="stroke:#c79999;"/>
    </defs>
    <g clip-path="url(#p3f0d9ba20a)">
     <use style="fill:#c79999;stroke:#c79999;" x="0" xlink:href="#m8d5630d87d" y="339.258"/>
    </g>
   </g>
   <g id="PolyCollection_3">
    <defs>
     <path d="M 54.432727 -289.538752 
L 54.432727 -274.002606 
L 55.556099 -274.002606 
L 56.679472 -274.002606 
L 57.802844 -274.002606 
L 58.926216 -274.002606 
L 60.049588 -274.002606 
L 61.17296 -274.002606 
L 62.296332 -274.002606 
L 63.419704 -274.002606 
L 64.543076 -274.002606 
L 65.666449 -58.716 
L 66.789821 -58.716 
L 67.913193 -58.716 
L 69.036565 -58.716 
L 70.159937 -58.716 
L 71.283309 -58.716 
L 72.406681 -58.716 
L 73.530053 -58.716 
L 74.653426 -58.716 
L 75.776798 -58.716 
L 76.90017 -60.93545 
L 78.023542 -60.93545 
L 79.146914 -60.93545 
L 80.270286 -60.93545 
L 81.393658 -60.93545 
L 82.517031 -60.93545 
L 83.640403 -60.93545 
L 84.763775 -60.93545 
L 85.887147 -60.93545 
L 87.010519 -60.93545 
L 88.133891 -66.853982 
L 89.257263 -66.853982 
L 90.380635 -66.853982 
L 91.504008 -66.853982 
L 92.62738 -66.853982 
L 93.750752 -66.853982 
L 94.874124 -66.853982 
L 95.997496 -66.853982 
L 97.120868 -66.853982 
L 98.24424 -66.853982 
L 99.367612 -77.211413 
L 100.490985 -77.211413 
L 101.614357 -77.211413 
L 102.737729 -77.211413 
L 103.861101 -77.211413 
L 104.984473 -77.211413 
L 106.107845 -77.211413 
L 107.231217 -77.211413 
L 108.354589 -77.211413 
L 109.477962 -77.211413 
L 110.601334 -91.267927 
L 111.724706 -91.267927 
L 112.848078 -91.267927 
L 113.97145 -91.267927 
L 115.094822 -91.267927 
L 116.218194 -91.267927 
L 117.341567 -91.267927 
L 118.464939 -91.267927 
L 119.588311 -91.267927 
L 120.711683 -91.267927 
L 121.835055 -106.804073 
L 122.958427 -106.804073 
L 124.081799 -106.804073 
L 125.205171 -106.804073 
L 126.328544 -106.804073 
L 127.451916 -106.804073 
L 128.575288 -106.804073 
L 129.69866 -106.804073 
L 130.822032 -106.804073 
L 131.945404 -106.804073 
L 133.068776 -119.380954 
L 134.192148 -119.380954 
L 135.315521 -119.380954 
L 136.438893 -119.380954 
L 137.562265 -119.380954 
L 138.685637 -119.380954 
L 139.809009 -119.380954 
L 140.932381 -119.380954 
L 142.055753 -119.380954 
L 143.179126 -119.380954 
L 144.302498 -125.299486 
L 145.42587 -125.299486 
L 146.549242 -125.299486 
L 147.672614 -125.299486 
L 148.795986 -125.299486 
L 149.919358 -125.299486 
L 151.04273 -125.299486 
L 152.166103 -125.299486 
L 153.289475 -125.299486 
L 154.412847 -125.299486 
L 155.536219 -123.080037 
L 156.659591 -123.080037 
L 157.782963 -123.080037 
L 158.906335 -123.080037 
L 160.029707 -123.080037 
L 161.15308 -123.080037 
L 162.276452 -123.080037 
L 163.399824 -123.080037 
L 164.523196 -123.080037 
L 165.646568 -123.080037 
L 166.76994 -114.202239 
L 167.893312 -114.202239 
L 169.016684 -114.202239 
L 170.140057 -114.202239 
L 171.263429 -114.202239 
L 172.386801 -114.202239 
L 173.510173 -114.202239 
L 174.633545 -114.202239 
L 175.756917 -114.202239 
L 176.880289 -114.202239 
L 178.003662 -102.365174 
L 179.127034 -102.365174 
L 180.250406 -102.365174 
L 181.373778 -102.365174 
L 182.49715 -102.365174 
L 183.620522 -102.365174 
L 184.743894 -102.365174 
L 185.867266 -102.365174 
L 186.990639 -102.365174 
L 188.114011 -102.365174 
L 189.237383 -89.788294 
L 190.360755 -89.788294 
L 191.484127 -89.788294 
L 192.607499 -89.788294 
L 193.730871 -89.788294 
L 194.854243 -89.788294 
L 195.977616 -89.788294 
L 197.100988 -89.788294 
L 198.22436 -89.788294 
L 199.347732 -89.788294 
L 200.471104 -79.430862 
L 201.594476 -79.430862 
L 202.717848 -79.430862 
L 203.841221 -79.430862 
L 204.964593 -79.430862 
L 206.087965 -79.430862 
L 207.211337 -79.430862 
L 208.334709 -79.430862 
L 209.458081 -79.430862 
L 210.581453 -79.430862 
L 211.704825 -71.292881 
L 212.828198 -71.292881 
L 213.95157 -71.292881 
L 215.074942 -71.292881 
L 216.198314 -71.292881 
L 217.321686 -71.292881 
L 218.445058 -71.292881 
L 219.56843 -71.292881 
L 220.691802 -71.292881 
L 221.815175 -71.292881 
L 222.938547 -65.374349 
L 224.061919 -65.374349 
L 225.185291 -65.374349 
L 226.308663 -65.374349 
L 227.432035 -65.374349 
L 228.555407 -65.374349 
L 229.678779 -65.374349 
L 230.802152 -65.374349 
L 231.925524 -65.374349 
L 233.048896 -65.374349 
L 234.172268 -62.415083 
L 235.29564 -62.415083 
L 236.419012 -62.415083 
L 237.542384 -62.415083 
L 238.665757 -62.415083 
L 239.789129 -62.415083 
L 240.912501 -62.415083 
L 242.035873 -62.415083 
L 243.159245 -62.415083 
L 244.282617 -62.415083 
L 245.405989 -60.195633 
L 246.529361 -60.195633 
L 247.652734 -60.195633 
L 248.776106 -60.195633 
L 249.899478 -60.195633 
L 251.02285 -60.195633 
L 252.146222 -60.195633 
L 253.269594 -60.195633 
L 254.392966 -60.195633 
L 255.516338 -60.195633 
L 256.639711 -59.455817 
L 257.763083 -59.455817 
L 258.886455 -59.455817 
L 260.009827 -59.455817 
L 261.133199 -59.455817 
L 262.256571 -59.455817 
L 263.379943 -59.455817 
L 264.503316 -59.455817 
L 265.626688 -59.455817 
L 266.75006 -59.455817 
L 267.873432 -58.716 
L 268.996804 -58.716 
L 270.120176 -58.716 
L 271.243548 -58.716 
L 272.36692 -58.716 
L 273.490293 -58.716 
L 274.613665 -58.716 
L 275.737037 -58.716 
L 276.860409 -58.716 
L 277.983781 -58.716 
L 279.107153 -58.716 
L 280.230525 -58.716 
L 281.353897 -58.716 
L 282.47727 -58.716 
L 283.600642 -58.716 
L 284.724014 -58.716 
L 285.847386 -58.716 
L 286.970758 -58.716 
L 288.09413 -58.716 
L 289.217502 -58.716 
L 290.340874 -58.716 
L 291.464247 -58.716 
L 292.587619 -58.716 
L 293.710991 -58.716 
L 294.834363 -58.716 
L 295.957735 -58.716 
L 297.081107 -58.716 
L 298.204479 -58.716 
L 299.327852 -58.716 
L 300.451224 -58.716 
L 301.574596 -58.716 
L 302.697968 -58.716 
L 303.82134 -58.716 
L 304.944712 -58.716 
L 306.068084 -58.716 
L 307.191456 -58.716 
L 308.314829 -58.716 
L 309.438201 -58.716 
L 310.561573 -58.716 
L 311.684945 -58.716 
L 312.808317 -58.716 
L 313.931689 -58.716 
L 315.055061 -58.716 
L 316.178433 -58.716 
L 317.301806 -58.716 
L 318.425178 -58.716 
L 319.54855 -58.716 
L 320.671922 -58.716 
L 321.795294 -58.716 
L 322.918666 -58.716 
L 324.042038 -58.716 
L 325.165411 -58.716 
L 326.288783 -58.716 
L 327.412155 -58.716 
L 328.535527 -58.716 
L 329.658899 -58.716 
L 330.782271 -58.716 
L 331.905643 -58.716 
L 333.029015 -58.716 
L 334.152388 -58.716 
L 335.27576 -58.716 
L 336.399132 -58.716 
L 337.522504 -58.716 
L 338.645876 -58.716 
L 339.769248 -58.716 
L 340.89262 -58.716 
L 342.015992 -58.716 
L 343.139365 -58.716 
L 344.262737 -58.716 
L 345.386109 -58.716 
L 346.509481 -58.716 
L 347.632853 -58.716 
L 348.756225 -58.716 
L 349.879597 -58.716 
L 351.002969 -58.716 
L 352.126342 -58.716 
L 353.249714 -58.716 
L 354.373086 -58.716 
L 355.496458 -58.716 
L 356.61983 -58.716 
L 357.743202 -58.716 
L 358.866574 -58.716 
L 359.989947 -58.716 
L 361.113319 -58.716 
L 362.236691 -58.716 
L 363.360063 -58.716 
L 364.483435 -58.716 
L 365.606807 -58.716 
L 366.730179 -58.716 
L 367.853551 -58.716 
L 368.976924 -58.716 
L 370.100296 -58.716 
L 371.223668 -58.716 
L 372.34704 -58.716 
L 373.470412 -58.716 
L 374.593784 -58.716 
L 375.717156 -58.716 
L 376.840528 -58.716 
L 377.963901 -58.716 
L 379.087273 -58.716 
L 379.087273 -58.716 
L 379.087273 -58.716 
L 377.963901 -58.716 
L 376.840528 -58.716 
L 375.717156 -58.716 
L 374.593784 -58.716 
L 373.470412 -58.716 
L 372.34704 -58.716 
L 371.223668 -58.716 
L 370.100296 -58.716 
L 368.976924 -58.716 
L 367.853551 -58.716 
L 366.730179 -58.716 
L 365.606807 -58.716 
L 364.483435 -58.716 
L 363.360063 -58.716 
L 362.236691 -58.716 
L 361.113319 -58.716 
L 359.989947 -58.716 
L 358.866574 -58.716 
L 357.743202 -58.716 
L 356.61983 -58.716 
L 355.496458 -58.716 
L 354.373086 -58.716 
L 353.249714 -58.716 
L 352.126342 -58.716 
L 351.002969 -58.716 
L 349.879597 -58.716 
L 348.756225 -58.716 
L 347.632853 -58.716 
L 346.509481 -58.716 
L 345.386109 -58.716 
L 344.262737 -58.716 
L 343.139365 -58.716 
L 342.015992 -58.716 
L 340.89262 -58.716 
L 339.769248 -58.716 
L 338.645876 -58.716 
L 337.522504 -58.716 
L 336.399132 -58.716 
L 335.27576 -58.716 
L 334.152388 -58.716 
L 333.029015 -58.716 
L 331.905643 -58.716 
L 330.782271 -58.716 
L 329.658899 -58.716 
L 328.535527 -58.716 
L 327.412155 -58.716 
L 326.288783 -58.716 
L 325.165411 -58.716 
L 324.042038 -58.716 
L 322.918666 -58.716 
L 321.795294 -58.716 
L 320.671922 -58.716 
L 319.54855 -58.716 
L 318.425178 -58.716 
L 317.301806 -58.716 
L 316.178433 -58.716 
L 315.055061 -58.716 
L 313.931689 -58.716 
L 312.808317 -58.716 
L 311.684945 -58.716 
L 310.561573 -58.716 
L 309.438201 -58.716 
L 308.314829 -58.716 
L 307.191456 -58.716 
L 306.068084 -58.716 
L 304.944712 -58.716 
L 303.82134 -58.716 
L 302.697968 -58.716 
L 301.574596 -58.716 
L 300.451224 -58.716 
L 299.327852 -58.716 
L 298.204479 -58.716 
L 297.081107 -58.716 
L 295.957735 -58.716 
L 294.834363 -58.716 
L 293.710991 -58.716 
L 292.587619 -58.716 
L 291.464247 -58.716 
L 290.340874 -58.716 
L 289.217502 -58.716 
L 288.09413 -58.716 
L 286.970758 -58.716 
L 285.847386 -58.716 
L 284.724014 -58.716 
L 283.600642 -58.716 
L 282.47727 -58.716 
L 281.353897 -58.716 
L 280.230525 -58.716 
L 279.107153 -58.716 
L 277.983781 -59.455817 
L 276.860409 -59.455817 
L 275.737037 -59.455817 
L 274.613665 -59.455817 
L 273.490293 -59.455817 
L 272.36692 -59.455817 
L 271.243548 -59.455817 
L 270.120176 -59.455817 
L 268.996804 -59.455817 
L 267.873432 -59.455817 
L 266.75006 -60.195633 
L 265.626688 -60.195633 
L 264.503316 -60.195633 
L 263.379943 -60.195633 
L 262.256571 -60.195633 
L 261.133199 -60.195633 
L 260.009827 -60.195633 
L 258.886455 -60.195633 
L 257.763083 -60.195633 
L 256.639711 -60.195633 
L 255.516338 -61.675266 
L 254.392966 -61.675266 
L 253.269594 -61.675266 
L 252.146222 -61.675266 
L 251.02285 -61.675266 
L 249.899478 -61.675266 
L 248.776106 -61.675266 
L 247.652734 -61.675266 
L 246.529361 -61.675266 
L 245.405989 -61.675266 
L 244.282617 -63.894716 
L 243.159245 -63.894716 
L 242.035873 -63.894716 
L 240.912501 -63.894716 
L 239.789129 -63.894716 
L 238.665757 -63.894716 
L 237.542384 -63.894716 
L 236.419012 -63.894716 
L 235.29564 -63.894716 
L 234.172268 -63.894716 
L 233.048896 -68.333615 
L 231.925524 -68.333615 
L 230.802152 -68.333615 
L 229.678779 -68.333615 
L 228.555407 -68.333615 
L 227.432035 -68.333615 
L 226.308663 -68.333615 
L 225.185291 -68.333615 
L 224.061919 -68.333615 
L 222.938547 -68.333615 
L 221.815175 -74.991963 
L 220.691802 -74.991963 
L 219.56843 -74.991963 
L 218.445058 -74.991963 
L 217.321686 -74.991963 
L 216.198314 -74.991963 
L 215.074942 -74.991963 
L 213.95157 -74.991963 
L 212.828198 -74.991963 
L 211.704825 -74.991963 
L 210.581453 -83.869761 
L 209.458081 -83.869761 
L 208.334709 -83.869761 
L 207.211337 -83.869761 
L 206.087965 -83.869761 
L 204.964593 -83.869761 
L 203.841221 -83.869761 
L 202.717848 -83.869761 
L 201.594476 -83.869761 
L 200.471104 -83.869761 
L 199.347732 -94.967009 
L 198.22436 -94.967009 
L 197.100988 -94.967009 
L 195.977616 -94.967009 
L 194.854243 -94.967009 
L 193.730871 -94.967009 
L 192.607499 -94.967009 
L 191.484127 -94.967009 
L 190.360755 -94.967009 
L 189.237383 -94.967009 
L 188.114011 -109.023523 
L 186.990639 -109.023523 
L 185.867266 -109.023523 
L 184.743894 -109.023523 
L 183.620522 -109.023523 
L 182.49715 -109.023523 
L 181.373778 -109.023523 
L 180.250406 -109.023523 
L 179.127034 -109.023523 
L 178.003662 -109.023523 
L 176.880289 -120.860587 
L 175.756917 -120.860587 
L 174.633545 -120.860587 
L 173.510173 -120.860587 
L 172.386801 -120.860587 
L 171.263429 -120.860587 
L 170.140057 -120.860587 
L 169.016684 -120.860587 
L 167.893312 -120.860587 
L 166.76994 -120.860587 
L 165.646568 -129.738385 
L 164.523196 -129.738385 
L 163.399824 -129.738385 
L 162.276452 -129.738385 
L 161.15308 -129.738385 
L 160.029707 -129.738385 
L 158.906335 -129.738385 
L 157.782963 -129.738385 
L 156.659591 -129.738385 
L 155.536219 -129.738385 
L 154.412847 -131.957835 
L 153.289475 -131.957835 
L 152.166103 -131.957835 
L 151.04273 -131.957835 
L 149.919358 -131.957835 
L 148.795986 -131.957835 
L 147.672614 -131.957835 
L 146.549242 -131.957835 
L 145.42587 -131.957835 
L 144.302498 -131.957835 
L 143.179126 -126.039303 
L 142.055753 -126.039303 
L 140.932381 -126.039303 
L 139.809009 -126.039303 
L 138.685637 -126.039303 
L 137.562265 -126.039303 
L 136.438893 -126.039303 
L 135.315521 -126.039303 
L 134.192148 -126.039303 
L 133.068776 -126.039303 
L 131.945404 -113.462422 
L 130.822032 -113.462422 
L 129.69866 -113.462422 
L 128.575288 -113.462422 
L 127.451916 -113.462422 
L 126.328544 -113.462422 
L 125.205171 -113.462422 
L 124.081799 -113.462422 
L 122.958427 -113.462422 
L 121.835055 -113.462422 
L 120.711683 -97.186459 
L 119.588311 -97.186459 
L 118.464939 -97.186459 
L 117.341567 -97.186459 
L 116.218194 -97.186459 
L 115.094822 -97.186459 
L 113.97145 -97.186459 
L 112.848078 -97.186459 
L 111.724706 -97.186459 
L 110.601334 -97.186459 
L 109.477962 -80.910495 
L 108.354589 -80.910495 
L 107.231217 -80.910495 
L 106.107845 -80.910495 
L 104.984473 -80.910495 
L 103.861101 -80.910495 
L 102.737729 -80.910495 
L 101.614357 -80.910495 
L 100.490985 -80.910495 
L 99.367612 -80.910495 
L 98.24424 -69.073431 
L 97.120868 -69.073431 
L 95.997496 -69.073431 
L 94.874124 -69.073431 
L 93.750752 -69.073431 
L 92.62738 -69.073431 
L 91.504008 -69.073431 
L 90.380635 -69.073431 
L 89.257263 -69.073431 
L 88.133891 -69.073431 
L 87.010519 -62.415083 
L 85.887147 -62.415083 
L 84.763775 -62.415083 
L 83.640403 -62.415083 
L 82.517031 -62.415083 
L 81.393658 -62.415083 
L 80.270286 -62.415083 
L 79.146914 -62.415083 
L 78.023542 -62.415083 
L 76.90017 -62.415083 
L 75.776798 -59.455817 
L 74.653426 -59.455817 
L 73.530053 -59.455817 
L 72.406681 -59.455817 
L 71.283309 -59.455817 
L 70.159937 -59.455817 
L 69.036565 -59.455817 
L 67.913193 -59.455817 
L 66.789821 -59.455817 
L 65.666449 -59.455817 
L 64.543076 -289.538752 
L 63.419704 -289.538752 
L 62.296332 -289.538752 
L 61.17296 -289.538752 
L 60.049588 -289.538752 
L 58.926216 -289.538752 
L 57.802844 -289.538752 
L 56.679472 -289.538752 
L 55.556099 -289.538752 
L 54.432727 -289.538752 
z
" id="m72c305a388" style="stroke:#b97c7c;"/>
    </defs>
    <g clip-path="url(#p3f0d9ba20a)">
     <use style="fill:#b97c7c;stroke:#b97c7c;" x="0" xlink:href="#m72c305a388" y="339.258"/>
    </g>
   </g>
   <g id="PolyCollection_4">
    <defs>
     <path d="M 54.432727 -285.83967 
L 54.432727 -277.701688 
L 55.556099 -277.701688 
L 56.679472 -277.701688 
L 57.802844 -277.701688 
L 58.926216 -277.701688 
L 60.049588 -277.701688 
L 61.17296 -277.701688 
L 62.296332 -277.701688 
L 63.419704 -277.701688 
L 64.543076 -277.701688 
L 65.666449 -59.455817 
L 66.789821 -59.455817 
L 67.913193 -59.455817 
L 69.036565 -59.455817 
L 70.159937 -59.455817 
L 71.283309 -59.455817 
L 72.406681 -59.455817 
L 73.530053 -59.455817 
L 74.653426 -59.455817 
L 75.776798 -59.455817 
L 76.90017 -61.675266 
L 78.023542 -61.675266 
L 79.146914 -61.675266 
L 80.270286 -61.675266 
L 81.393658 -61.675266 
L 82.517031 -61.675266 
L 83.640403 -61.675266 
L 84.763775 -61.675266 
L 85.887147 -61.675266 
L 87.010519 -61.675266 
L 88.133891 -67.593798 
L 89.257263 -67.593798 
L 90.380635 -67.593798 
L 91.504008 -67.593798 
L 92.62738 -67.593798 
L 93.750752 -67.593798 
L 94.874124 -67.593798 
L 95.997496 -67.593798 
L 97.120868 -67.593798 
L 98.24424 -67.593798 
L 99.367612 -77.951229 
L 100.490985 -77.951229 
L 101.614357 -77.951229 
L 102.737729 -77.951229 
L 103.861101 -77.951229 
L 104.984473 -77.951229 
L 106.107845 -77.951229 
L 107.231217 -77.951229 
L 108.354589 -77.951229 
L 109.477962 -77.951229 
L 110.601334 -92.74756 
L 111.724706 -92.74756 
L 112.848078 -92.74756 
L 113.97145 -92.74756 
L 115.094822 -92.74756 
L 116.218194 -92.74756 
L 117.341567 -92.74756 
L 118.464939 -92.74756 
L 119.588311 -92.74756 
L 120.711683 -92.74756 
L 121.835055 -109.023523 
L 122.958427 -109.023523 
L 124.081799 -109.023523 
L 125.205171 -109.023523 
L 126.328544 -109.023523 
L 127.451916 -109.023523 
L 128.575288 -109.023523 
L 129.69866 -109.023523 
L 130.822032 -109.023523 
L 131.945404 -109.023523 
L 133.068776 -120.860587 
L 134.192148 -120.860587 
L 135.315521 -120.860587 
L 136.438893 -120.860587 
L 137.562265 -120.860587 
L 138.685637 -120.860587 
L 139.809009 -120.860587 
L 140.932381 -120.860587 
L 142.055753 -120.860587 
L 143.179126 -120.860587 
L 144.302498 -126.779119 
L 145.42587 -126.779119 
L 146.549242 -126.779119 
L 147.672614 -126.779119 
L 148.795986 -126.779119 
L 149.919358 -126.779119 
L 151.04273 -126.779119 
L 152.166103 -126.779119 
L 153.289475 -126.779119 
L 154.412847 -126.779119 
L 155.536219 -124.55967 
L 156.659591 -124.55967 
L 157.782963 -124.55967 
L 158.906335 -124.55967 
L 160.029707 -124.55967 
L 161.15308 -124.55967 
L 162.276452 -124.55967 
L 163.399824 -124.55967 
L 164.523196 -124.55967 
L 165.646568 -124.55967 
L 166.76994 -116.421688 
L 167.893312 -116.421688 
L 169.016684 -116.421688 
L 170.140057 -116.421688 
L 171.263429 -116.421688 
L 172.386801 -116.421688 
L 173.510173 -116.421688 
L 174.633545 -116.421688 
L 175.756917 -116.421688 
L 176.880289 -116.421688 
L 178.003662 -103.844807 
L 179.127034 -103.844807 
L 180.250406 -103.844807 
L 181.373778 -103.844807 
L 182.49715 -103.844807 
L 183.620522 -103.844807 
L 184.743894 -103.844807 
L 185.867266 -103.844807 
L 186.990639 -103.844807 
L 188.114011 -103.844807 
L 189.237383 -91.267927 
L 190.360755 -91.267927 
L 191.484127 -91.267927 
L 192.607499 -91.267927 
L 193.730871 -91.267927 
L 194.854243 -91.267927 
L 195.977616 -91.267927 
L 197.100988 -91.267927 
L 198.22436 -91.267927 
L 199.347732 -91.267927 
L 200.471104 -80.170679 
L 201.594476 -80.170679 
L 202.717848 -80.170679 
L 203.841221 -80.170679 
L 204.964593 -80.170679 
L 206.087965 -80.170679 
L 207.211337 -80.170679 
L 208.334709 -80.170679 
L 209.458081 -80.170679 
L 210.581453 -80.170679 
L 211.704825 -72.032697 
L 212.828198 -72.032697 
L 213.95157 -72.032697 
L 215.074942 -72.032697 
L 216.198314 -72.032697 
L 217.321686 -72.032697 
L 218.445058 -72.032697 
L 219.56843 -72.032697 
L 220.691802 -72.032697 
L 221.815175 -72.032697 
L 222.938547 -66.114165 
L 224.061919 -66.114165 
L 225.185291 -66.114165 
L 226.308663 -66.114165 
L 227.432035 -66.114165 
L 228.555407 -66.114165 
L 229.678779 -66.114165 
L 230.802152 -66.114165 
L 231.925524 -66.114165 
L 233.048896 -66.114165 
L 234.172268 -62.415083 
L 235.29564 -62.415083 
L 236.419012 -62.415083 
L 237.542384 -62.415083 
L 238.665757 -62.415083 
L 239.789129 -62.415083 
L 240.912501 -62.415083 
L 242.035873 -62.415083 
L 243.159245 -62.415083 
L 244.282617 -62.415083 
L 245.405989 -60.195633 
L 246.529361 -60.195633 
L 247.652734 -60.195633 
L 248.776106 -60.195633 
L 249.899478 -60.195633 
L 251.02285 -60.195633 
L 252.146222 -60.195633 
L 253.269594 -60.195633 
L 254.392966 -60.195633 
L 255.516338 -60.195633 
L 256.639711 -59.455817 
L 257.763083 -59.455817 
L 258.886455 -59.455817 
L 260.009827 -59.455817 
L 261.133199 -59.455817 
L 262.256571 -59.455817 
L 263.379943 -59.455817 
L 264.503316 -59.455817 
L 265.626688 -59.455817 
L 266.75006 -59.455817 
L 267.873432 -58.716 
L 268.996804 -58.716 
L 270.120176 -58.716 
L 271.243548 -58.716 
L 272.36692 -58.716 
L 273.490293 -58.716 
L 274.613665 -58.716 
L 275.737037 -58.716 
L 276.860409 -58.716 
L 277.983781 -58.716 
L 279.107153 -58.716 
L 280.230525 -58.716 
L 281.353897 -58.716 
L 282.47727 -58.716 
L 283.600642 -58.716 
L 284.724014 -58.716 
L 285.847386 -58.716 
L 286.970758 -58.716 
L 288.09413 -58.716 
L 289.217502 -58.716 
L 290.340874 -58.716 
L 291.464247 -58.716 
L 292.587619 -58.716 
L 293.710991 -58.716 
L 294.834363 -58.716 
L 295.957735 -58.716 
L 297.081107 -58.716 
L 298.204479 -58.716 
L 299.327852 -58.716 
L 300.451224 -58.716 
L 301.574596 -58.716 
L 302.697968 -58.716 
L 303.82134 -58.716 
L 304.944712 -58.716 
L 306.068084 -58.716 
L 307.191456 -58.716 
L 308.314829 -58.716 
L 309.438201 -58.716 
L 310.561573 -58.716 
L 311.684945 -58.716 
L 312.808317 -58.716 
L 313.931689 -58.716 
L 315.055061 -58.716 
L 316.178433 -58.716 
L 317.301806 -58.716 
L 318.425178 -58.716 
L 319.54855 -58.716 
L 320.671922 -58.716 
L 321.795294 -58.716 
L 322.918666 -58.716 
L 324.042038 -58.716 
L 325.165411 -58.716 
L 326.288783 -58.716 
L 327.412155 -58.716 
L 328.535527 -58.716 
L 329.658899 -58.716 
L 330.782271 -58.716 
L 331.905643 -58.716 
L 333.029015 -58.716 
L 334.152388 -58.716 
L 335.27576 -58.716 
L 336.399132 -58.716 
L 337.522504 -58.716 
L 338.645876 -58.716 
L 339.769248 -58.716 
L 340.89262 -58.716 
L 342.015992 -58.716 
L 343.139365 -58.716 
L 344.262737 -58.716 
L 345.386109 -58.716 
L 346.509481 -58.716 
L 347.632853 -58.716 
L 348.756225 -58.716 
L 349.879597 -58.716 
L 351.002969 -58.716 
L 352.126342 -58.716 
L 353.249714 -58.716 
L 354.373086 -58.716 
L 355.496458 -58.716 
L 356.61983 -58.716 
L 357.743202 -58.716 
L 358.866574 -58.716 
L 359.989947 -58.716 
L 361.113319 -58.716 
L 362.236691 -58.716 
L 363.360063 -58.716 
L 364.483435 -58.716 
L 365.606807 -58.716 
L 366.730179 -58.716 
L 367.853551 -58.716 
L 368.976924 -58.716 
L 370.100296 -58.716 
L 371.223668 -58.716 
L 372.34704 -58.716 
L 373.470412 -58.716 
L 374.593784 -58.716 
L 375.717156 -58.716 
L 376.840528 -58.716 
L 377.963901 -58.716 
L 379.087273 -58.716 
L 379.087273 -58.716 
L 379.087273 -58.716 
L 377.963901 -58.716 
L 376.840528 -58.716 
L 375.717156 -58.716 
L 374.593784 -58.716 
L 373.470412 -58.716 
L 372.34704 -58.716 
L 371.223668 -58.716 
L 370.100296 -58.716 
L 368.976924 -58.716 
L 367.853551 -58.716 
L 366.730179 -58.716 
L 365.606807 -58.716 
L 364.483435 -58.716 
L 363.360063 -58.716 
L 362.236691 -58.716 
L 361.113319 -58.716 
L 359.989947 -58.716 
L 358.866574 -58.716 
L 357.743202 -58.716 
L 356.61983 -58.716 
L 355.496458 -58.716 
L 354.373086 -58.716 
L 353.249714 -58.716 
L 352.126342 -58.716 
L 351.002969 -58.716 
L 349.879597 -58.716 
L 348.756225 -58.716 
L 347.632853 -58.716 
L 346.509481 -58.716 
L 345.386109 -58.716 
L 344.262737 -58.716 
L 343.139365 -58.716 
L 342.015992 -58.716 
L 340.89262 -58.716 
L 339.769248 -58.716 
L 338.645876 -58.716 
L 337.522504 -58.716 
L 336.399132 -58.716 
L 335.27576 -58.716 
L 334.152388 -58.716 
L 333.029015 -58.716 
L 331.905643 -58.716 
L 330.782271 -58.716 
L 329.658899 -58.716 
L 328.535527 -58.716 
L 327.412155 -58.716 
L 326.288783 -58.716 
L 325.165411 -58.716 
L 324.042038 -58.716 
L 322.918666 -58.716 
L 321.795294 -58.716 
L 320.671922 -58.716 
L 319.54855 -58.716 
L 318.425178 -58.716 
L 317.301806 -58.716 
L 316.178433 -58.716 
L 315.055061 -58.716 
L 313.931689 -58.716 
L 312.808317 -58.716 
L 311.684945 -58.716 
L 310.561573 -58.716 
L 309.438201 -58.716 
L 308.314829 -58.716 
L 307.191456 -58.716 
L 306.068084 -58.716 
L 304.944712 -58.716 
L 303.82134 -58.716 
L 302.697968 -58.716 
L 301.574596 -58.716 
L 300.451224 -58.716 
L 299.327852 -58.716 
L 298.204479 -58.716 
L 297.081107 -58.716 
L 295.957735 -58.716 
L 294.834363 -58.716 
L 293.710991 -58.716 
L 292.587619 -58.716 
L 291.464247 -58.716 
L 290.340874 -58.716 
L 289.217502 -58.716 
L 288.09413 -58.716 
L 286.970758 -58.716 
L 285.847386 -58.716 
L 284.724014 -58.716 
L 283.600642 -58.716 
L 282.47727 -58.716 
L 281.353897 -58.716 
L 280.230525 -58.716 
L 279.107153 -58.716 
L 277.983781 -59.455817 
L 276.860409 -59.455817 
L 275.737037 -59.455817 
L 274.613665 -59.455817 
L 273.490293 -59.455817 
L 272.36692 -59.455817 
L 271.243548 -59.455817 
L 270.120176 -59.455817 
L 268.996804 -59.455817 
L 267.873432 -59.455817 
L 266.75006 -60.195633 
L 265.626688 -60.195633 
L 264.503316 -60.195633 
L 263.379943 -60.195633 
L 262.256571 -60.195633 
L 261.133199 -60.195633 
L 260.009827 -60.195633 
L 258.886455 -60.195633 
L 257.763083 -60.195633 
L 256.639711 -60.195633 
L 255.516338 -60.93545 
L 254.392966 -60.93545 
L 253.269594 -60.93545 
L 252.146222 -60.93545 
L 251.02285 -60.93545 
L 249.899478 -60.93545 
L 248.776106 -60.93545 
L 247.652734 -60.93545 
L 246.529361 -60.93545 
L 245.405989 -60.93545 
L 244.282617 -63.154899 
L 243.159245 -63.154899 
L 242.035873 -63.154899 
L 240.912501 -63.154899 
L 239.789129 -63.154899 
L 238.665757 -63.154899 
L 237.542384 -63.154899 
L 236.419012 -63.154899 
L 235.29564 -63.154899 
L 234.172268 -63.154899 
L 233.048896 -67.593798 
L 231.925524 -67.593798 
L 230.802152 -67.593798 
L 229.678779 -67.593798 
L 228.555407 -67.593798 
L 227.432035 -67.593798 
L 226.308663 -67.593798 
L 225.185291 -67.593798 
L 224.061919 -67.593798 
L 222.938547 -67.593798 
L 221.815175 -73.51233 
L 220.691802 -73.51233 
L 219.56843 -73.51233 
L 218.445058 -73.51233 
L 217.321686 -73.51233 
L 216.198314 -73.51233 
L 215.074942 -73.51233 
L 213.95157 -73.51233 
L 212.828198 -73.51233 
L 211.704825 -73.51233 
L 210.581453 -82.390128 
L 209.458081 -82.390128 
L 208.334709 -82.390128 
L 207.211337 -82.390128 
L 206.087965 -82.390128 
L 204.964593 -82.390128 
L 203.841221 -82.390128 
L 202.717848 -82.390128 
L 201.594476 -82.390128 
L 200.471104 -82.390128 
L 199.347732 -93.783303 
L 198.22436 -93.783303 
L 197.100988 -93.783303 
L 195.977616 -93.783303 
L 194.854243 -93.783303 
L 193.730871 -93.783303 
L 192.607499 -93.783303 
L 191.484127 -93.783303 
L 190.360755 -93.783303 
L 189.237383 -93.783303 
L 188.114011 -106.804073 
L 186.990639 -106.804073 
L 185.867266 -106.804073 
L 184.743894 -106.804073 
L 183.620522 -106.804073 
L 182.49715 -106.804073 
L 181.373778 -106.804073 
L 180.250406 -106.804073 
L 179.127034 -106.804073 
L 178.003662 -106.804073 
L 176.880289 -119.380954 
L 175.756917 -119.380954 
L 174.633545 -119.380954 
L 173.510173 -119.380954 
L 172.386801 -119.380954 
L 171.263429 -119.380954 
L 170.140057 -119.380954 
L 169.016684 -119.380954 
L 167.893312 -119.380954 
L 166.76994 -119.380954 
L 165.646568 -128.258752 
L 164.523196 -128.258752 
L 163.399824 -128.258752 
L 162.276452 -128.258752 
L 161.15308 -128.258752 
L 160.029707 -128.258752 
L 158.906335 -128.258752 
L 157.782963 -128.258752 
L 156.659591 -128.258752 
L 155.536219 -128.258752 
L 154.412847 -130.478202 
L 153.289475 -130.478202 
L 152.166103 -130.478202 
L 151.04273 -130.478202 
L 149.919358 -130.478202 
L 148.795986 -130.478202 
L 147.672614 -130.478202 
L 146.549242 -130.478202 
L 145.42587 -130.478202 
L 144.302498 -130.478202 
L 143.179126 -124.55967 
L 142.055753 -124.55967 
L 140.932381 -124.55967 
L 139.809009 -124.55967 
L 138.685637 -124.55967 
L 137.562265 -124.55967 
L 136.438893 -124.55967 
L 135.315521 -124.55967 
L 134.192148 -124.55967 
L 133.068776 -124.55967 
L 131.945404 -111.982789 
L 130.822032 -111.982789 
L 129.69866 -111.982789 
L 128.575288 -111.982789 
L 127.451916 -111.982789 
L 126.328544 -111.982789 
L 125.205171 -111.982789 
L 124.081799 -111.982789 
L 122.958427 -111.982789 
L 121.835055 -111.982789 
L 120.711683 -95.706826 
L 119.588311 -95.706826 
L 118.464939 -95.706826 
L 117.341567 -95.706826 
L 116.218194 -95.706826 
L 115.094822 -95.706826 
L 113.97145 -95.706826 
L 112.848078 -95.706826 
L 111.724706 -95.706826 
L 110.601334 -95.706826 
L 109.477962 -80.170679 
L 108.354589 -80.170679 
L 107.231217 -80.170679 
L 106.107845 -80.170679 
L 104.984473 -80.170679 
L 103.861101 -80.170679 
L 102.737729 -80.170679 
L 101.614357 -80.170679 
L 100.490985 -80.170679 
L 99.367612 -80.170679 
L 98.24424 -68.333615 
L 97.120868 -68.333615 
L 95.997496 -68.333615 
L 94.874124 -68.333615 
L 93.750752 -68.333615 
L 92.62738 -68.333615 
L 91.504008 -68.333615 
L 90.380635 -68.333615 
L 89.257263 -68.333615 
L 88.133891 -68.333615 
L 87.010519 -62.415083 
L 85.887147 -62.415083 
L 84.763775 -62.415083 
L 83.640403 -62.415083 
L 82.517031 -62.415083 
L 81.393658 -62.415083 
L 80.270286 -62.415083 
L 79.146914 -62.415083 
L 78.023542 -62.415083 
L 76.90017 -62.415083 
L 75.776798 -59.455817 
L 74.653426 -59.455817 
L 73.530053 -59.455817 
L 72.406681 -59.455817 
L 71.283309 -59.455817 
L 70.159937 -59.455817 
L 69.036565 -59.455817 
L 67.913193 -59.455817 
L 66.789821 -59.455817 
L 65.666449 -59.455817 
L 64.543076 -285.83967 
L 63.419704 -285.83967 
L 62.296332 -285.83967 
L 61.17296 -285.83967 
L 60.049588 -285.83967 
L 58.926216 -285.83967 
L 57.802844 -285.83967 
L 56.679472 -285.83967 
L 55.556099 -285.83967 
L 54.432727 -285.83967 
z
" id="m731373d4c9" style="stroke:#a25050;"/>
    </defs>
    <g clip-path="url(#p3f0d9ba20a)">
     <use style="fill:#a25050;stroke:#a25050;" x="0" xlink:href="#m731373d4c9" y="339.258"/>
    </g>
   </g>
   <g id="matplotlib.axis_1">
    <g id="xtick_1">
     <g id="line2d_1">
      <defs>
       <path d="M 0 0 
L 0 3.5 
" id="mfaeb3d350e" style="stroke:#000000;stroke-width:0.8;"/>
      </defs>
      <g>
       <use style="stroke:#000000;stroke-width:0.8;" x="54.432727" xlink:href="#mfaeb3d350e" y="292.638"/>
      </g>
     </g>
     <g id="text_1">
      <!-- 0 -->
      <g transform="translate(50.432727 310.743)scale(0.16 -0.16)">
       <defs>
        <path d="M 2925 2086 
C 2925 2592 2899 3187 2630 3706 
C 2368 4186 1926 4339 1600 4339 
C 1222 4339 774 4166 512 3597 
C 301 3130 269 2598 269 2086 
C 269 1581 294 1114 486 646 
C 742 32 1229 -141 1594 -141 
C 2061 -141 2464 122 2669 563 
C 2861 979 2925 1402 2925 2086 
z
M 2426 2163 
C 2426 1741 2426 1338 2310 934 
C 2144 352 1805 250 1600 250 
C 1267 250 1005 493 877 954 
C 774 1318 768 1664 768 2163 
C 768 2566 768 2950 877 3302 
C 915 3424 1075 3949 1594 3949 
C 2093 3949 2259 3462 2304 3347 
C 2426 2989 2426 2560 2426 2163 
z
" id="LMSans10-Regular-30" transform="scale(0.015625)"/>
       </defs>
       <use xlink:href="#LMSans10-Regular-30"/>
      </g>
     </g>
    </g>
    <g id="xtick_2">
     <g id="line2d_2">
      <g>
       <use style="stroke:#000000;stroke-width:0.8;" x="110.407649" xlink:href="#mfaeb3d350e" y="292.638"/>
      </g>
     </g>
     <g id="text_2">
      <!-- 5 -->
      <g transform="translate(106.407649 310.743)scale(0.16 -0.16)">
       <defs>
        <path d="M 2874 1299 
C 2874 2099 2323 2733 1664 2733 
C 1408 2733 1165 2637 979 2470 
L 979 3789 
L 2662 3789 
L 2662 4198 
L 518 4198 
L 518 1837 
L 941 1837 
C 1050 2093 1286 2342 1658 2342 
C 1958 2342 2304 2080 2304 1312 
C 2304 250 1523 250 1466 250 
C 1037 250 646 499 461 845 
L 250 486 
C 512 122 954 -141 1472 -141 
C 2234 -141 2874 493 2874 1299 
z
" id="LMSans10-Regular-35" transform="scale(0.015625)"/>
       </defs>
       <use xlink:href="#LMSans10-Regular-35"/>
      </g>
     </g>
    </g>
    <g id="xtick_3">
     <g id="line2d_3">
      <g>
       <use style="stroke:#000000;stroke-width:0.8;" x="166.382571" xlink:href="#mfaeb3d350e" y="292.638"/>
      </g>
     </g>
     <g id="text_3">
      <!-- 10 -->
      <g transform="translate(158.382571 310.743)scale(0.16 -0.16)">
       <defs>
        <path d="M 2714 0 
L 2714 371 
L 1914 371 
L 1914 4339 
L 1786 4339 
C 1408 3949 877 3930 570 3917 
L 570 3546 
C 781 3552 1088 3565 1408 3699 
L 1408 371 
L 608 371 
L 608 0 
L 2714 0 
z
" id="LMSans10-Regular-31" transform="scale(0.015625)"/>
       </defs>
       <use xlink:href="#LMSans10-Regular-31"/>
       <use x="49.999985" xlink:href="#LMSans10-Regular-30"/>
      </g>
     </g>
    </g>
    <g id="xtick_4">
     <g id="line2d_4">
      <g>
       <use style="stroke:#000000;stroke-width:0.8;" x="222.357492" xlink:href="#mfaeb3d350e" y="292.638"/>
      </g>
     </g>
     <g id="text_4">
      <!-- 15 -->
      <g transform="translate(214.357492 310.743)scale(0.16 -0.16)">
       <use xlink:href="#LMSans10-Regular-31"/>
       <use x="49.999985" xlink:href="#LMSans10-Regular-35"/>
      </g>
     </g>
    </g>
    <g id="xtick_5">
     <g id="line2d_5">
      <g>
       <use style="stroke:#000000;stroke-width:0.8;" x="278.332414" xlink:href="#mfaeb3d350e" y="292.638"/>
      </g>
     </g>
     <g id="text_5">
      <!-- 20 -->
      <g transform="translate(270.332414 310.743)scale(0.16 -0.16)">
       <defs>
        <path d="M 2874 0 
L 2874 454 
L 1709 454 
C 1632 454 1555 448 1478 448 
L 781 448 
C 986 627 1472 1107 1670 1293 
C 1792 1408 2118 1677 2240 1792 
C 2528 2080 2874 2419 2874 2963 
C 2874 3699 2355 4339 1510 4339 
C 781 4339 422 3840 269 3290 
C 346 3181 378 3142 390 3123 
C 403 3110 467 3027 531 2938 
C 659 3430 838 3930 1421 3930 
C 2022 3930 2349 3450 2349 2950 
C 2349 2406 1984 2042 1606 1658 
L 1114 1203 
L 320 410 
L 320 0 
L 2874 0 
z
" id="LMSans10-Regular-32" transform="scale(0.015625)"/>
       </defs>
       <use xlink:href="#LMSans10-Regular-32"/>
       <use x="49.999985" xlink:href="#LMSans10-Regular-30"/>
      </g>
     </g>
    </g>
    <g id="xtick_6">
     <g id="line2d_6">
      <g>
       <use style="stroke:#000000;stroke-width:0.8;" x="334.307335" xlink:href="#mfaeb3d350e" y="292.638"/>
      </g>
     </g>
     <g id="text_6">
      <!-- 25 -->
      <g transform="translate(326.307335 310.743)scale(0.16 -0.16)">
       <use xlink:href="#LMSans10-Regular-32"/>
       <use x="49.999985" xlink:href="#LMSans10-Regular-35"/>
      </g>
     </g>
    </g>
    <g id="xtick_7">
     <g id="line2d_7">
      <g>
       <use style="stroke:#000000;stroke-width:0.8;" x="390.282257" xlink:href="#mfaeb3d350e" y="292.638"/>
      </g>
     </g>
     <g id="text_7">
      <!-- 30 -->
      <g transform="translate(382.282257 310.743)scale(0.16 -0.16)">
       <defs>
        <path d="M 2925 1152 
C 2925 1734 2477 2131 2042 2266 
C 2528 2528 2752 2963 2752 3366 
C 2752 3917 2221 4339 1587 4339 
C 1094 4339 627 4083 358 3635 
L 589 3290 
C 774 3738 1190 3968 1581 3968 
C 1914 3968 2227 3776 2227 3366 
C 2227 2976 1965 2598 1574 2509 
C 1536 2502 1523 2502 1069 2464 
L 1069 2074 
L 1523 2074 
C 2214 2074 2355 1478 2355 1158 
C 2355 659 2061 250 1568 250 
C 1126 250 621 474 339 909 
L 269 525 
C 736 -77 1325 -141 1581 -141 
C 2362 -141 2925 480 2925 1152 
z
" id="LMSans10-Regular-33" transform="scale(0.015625)"/>
       </defs>
       <use xlink:href="#LMSans10-Regular-33"/>
       <use x="49.999985" xlink:href="#LMSans10-Regular-30"/>
      </g>
     </g>
    </g>
    <g id="text_8">
     <!-- y -->
     <g transform="translate(213.0725 328.778)scale(0.16 -0.16)">
      <defs>
       <path d="M 2854 2842 
L 2374 2842 
C 1542 806 1530 512 1523 365 
L 1517 365 
C 1478 794 966 1984 941 2042 
L 595 2842 
L 90 2842 
L 1331 0 
L 1101 -576 
C 934 -947 826 -947 736 -947 
C 634 -947 429 -922 237 -845 
L 275 -1261 
C 416 -1293 595 -1312 736 -1312 
C 960 -1312 1197 -1235 1459 -582 
L 2854 2842 
z
" id="LMSans10-Regular-79" transform="scale(0.015625)"/>
      </defs>
      <use xlink:href="#LMSans10-Regular-79"/>
     </g>
    </g>
   </g>
   <g id="matplotlib.axis_2">
    <g id="ytick_1">
     <g id="line2d_8">
      <defs>
       <path d="M 0 0 
L -3.5 0 
" id="m60f34a8318" style="stroke:#000000;stroke-width:0.8;"/>
      </defs>
      <g>
       <use style="stroke:#000000;stroke-width:0.8;" x="38.2" xlink:href="#m60f34a8318" y="280.542"/>
      </g>
     </g>
     <g id="text_9">
      <!-- 0 -->
      <g transform="translate(23.2 286.0945)scale(0.16 -0.16)">
       <use xlink:href="#LMSans10-Regular-30"/>
      </g>
     </g>
    </g>
    <g id="ytick_2">
     <g id="line2d_9">
      <g>
       <use style="stroke:#000000;stroke-width:0.8;" x="38.2" xlink:href="#m60f34a8318" y="243.551174"/>
      </g>
     </g>
     <g id="text_10">
      <!-- 50 -->
      <g transform="translate(15.2 249.103674)scale(0.16 -0.16)">
       <use xlink:href="#LMSans10-Regular-35"/>
       <use x="49.999985" xlink:href="#LMSans10-Regular-30"/>
      </g>
     </g>
    </g>
    <g id="ytick_3">
     <g id="line2d_10">
      <g>
       <use style="stroke:#000000;stroke-width:0.8;" x="38.2" xlink:href="#m60f34a8318" y="206.560349"/>
      </g>
     </g>
     <g id="text_11">
      <!-- 100 -->
      <g transform="translate(7.2 212.112849)scale(0.16 -0.16)">
       <use xlink:href="#LMSans10-Regular-31"/>
       <use x="49.999985" xlink:href="#LMSans10-Regular-30"/>
       <use x="99.999969" xlink:href="#LMSans10-Regular-30"/>
      </g>
     </g>
    </g>
    <g id="ytick_4">
     <g id="line2d_11">
      <g>
       <use style="stroke:#000000;stroke-width:0.8;" x="38.2" xlink:href="#m60f34a8318" y="169.569523"/>
      </g>
     </g>
     <g id="text_12">
      <!-- 150 -->
      <g transform="translate(7.2 175.122023)scale(0.16 -0.16)">
       <use xlink:href="#LMSans10-Regular-31"/>
       <use x="49.999985" xlink:href="#LMSans10-Regular-35"/>
       <use x="99.999969" xlink:href="#LMSans10-Regular-30"/>
      </g>
     </g>
    </g>
    <g id="ytick_5">
     <g id="line2d_12">
      <g>
       <use style="stroke:#000000;stroke-width:0.8;" x="38.2" xlink:href="#m60f34a8318" y="132.578697"/>
      </g>
     </g>
     <g id="text_13">
      <!-- 200 -->
      <g transform="translate(7.2 138.131197)scale(0.16 -0.16)">
       <use xlink:href="#LMSans10-Regular-32"/>
       <use x="49.999985" xlink:href="#LMSans10-Regular-30"/>
       <use x="99.999969" xlink:href="#LMSans10-Regular-30"/>
      </g>
     </g>
    </g>
    <g id="ytick_6">
     <g id="line2d_13">
      <g>
       <use style="stroke:#000000;stroke-width:0.8;" x="38.2" xlink:href="#m60f34a8318" y="95.587872"/>
      </g>
     </g>
     <g id="text_14">
      <!-- 250 -->
      <g transform="translate(7.2 101.140372)scale(0.16 -0.16)">
       <use xlink:href="#LMSans10-Regular-32"/>
       <use x="49.999985" xlink:href="#LMSans10-Regular-35"/>
       <use x="99.999969" xlink:href="#LMSans10-Regular-30"/>
      </g>
     </g>
    </g>
    <g id="ytick_7">
     <g id="line2d_14">
      <g>
       <use style="stroke:#000000;stroke-width:0.8;" x="38.2" xlink:href="#m60f34a8318" y="58.597046"/>
      </g>
     </g>
     <g id="text_15">
      <!-- 300 -->
      <g transform="translate(7.2 64.149546)scale(0.16 -0.16)">
       <use xlink:href="#LMSans10-Regular-33"/>
       <use x="49.999985" xlink:href="#LMSans10-Regular-30"/>
       <use x="99.999969" xlink:href="#LMSans10-Regular-30"/>
      </g>
     </g>
    </g>
   </g>
   <g id="line2d_15">
    <path clip-path="url(#p3f0d9ba20a)" d="M 54.432727 57.857229 
L 64.543076 57.857229 
L 65.666449 279.802183 
L 75.776798 279.802183 
L 76.90017 277.582734 
L 87.010519 277.582734 
L 88.133891 271.664202 
L 98.24424 271.664202 
L 99.367612 260.566954 
L 109.477962 260.566954 
L 110.601334 245.030807 
L 120.711683 245.030807 
L 121.835055 228.754844 
L 131.945404 228.754844 
L 133.068776 216.177963 
L 143.179126 216.177963 
L 144.302498 210.259431 
L 154.412847 210.259431 
L 155.536219 213.218697 
L 165.646568 213.218697 
L 166.76994 221.356679 
L 176.880289 221.356679 
L 178.003662 233.93356 
L 188.114011 233.93356 
L 189.237383 246.51044 
L 199.347732 246.51044 
L 200.471104 257.607688 
L 210.581453 257.607688 
L 211.704825 266.485486 
L 221.815175 266.485486 
L 222.938547 272.404018 
L 233.048896 272.404018 
L 234.172268 276.103101 
L 244.282617 276.103101 
L 245.405989 278.32255 
L 255.516338 278.32255 
L 256.639711 279.802183 
L 266.75006 279.802183 
L 267.873432 280.542 
L 379.087273 280.542 
L 379.087273 280.542 
" style="fill:none;stroke:#7c0000;stroke-linecap:square;stroke-width:1.5;"/>
   </g>
   <g id="line2d_16">
    <path clip-path="url(#p3f0d9ba20a)" d="M 54.432727 58.597046 
L 64.543076 58.597046 
L 65.666449 280.542 
L 75.776798 280.542 
L 76.90017 279.802183 
L 87.010519 279.802183 
L 88.133891 271.664202 
L 98.24424 271.664202 
L 99.367612 268.704936 
L 109.477962 268.704936 
L 110.601334 236.892826 
L 120.711683 236.892826 
L 121.835055 234.673376 
L 131.945404 234.673376 
L 133.068776 204.340899 
L 143.179126 204.340899 
L 144.302498 217.657596 
L 154.412847 217.657596 
L 155.536219 222.096495 
L 165.646568 222.096495 
L 166.76994 212.478881 
L 176.880289 212.478881 
L 178.003662 222.836312 
L 188.114011 222.836312 
L 189.237383 242.071541 
L 199.347732 242.071541 
L 200.471104 253.168789 
L 210.581453 253.168789 
L 211.704825 262.786404 
L 221.815175 262.786404 
L 222.938547 280.542 
L 379.087273 280.542 
L 379.087273 280.542 
" style="fill:none;stroke:#000000;stroke-linecap:square;stroke-width:1.5;"/>
   </g>
   <g id="line2d_17">
    <path clip-path="url(#p3f0d9ba20a)" d="M 334.307335 292.638 
L 334.307335 26.526 
" style="fill:none;stroke:#000000;stroke-linecap:square;stroke-width:2;"/>
   </g>
   <g id="patch_3">
    <path d="M 38.2 292.638 
L 38.2 26.526 
" style="fill:none;stroke:#000000;stroke-linecap:square;stroke-linejoin:miter;stroke-width:0.8;"/>
   </g>
   <g id="patch_4">
    <path d="M 395.32 292.638 
L 395.32 26.526 
" style="fill:none;stroke:#000000;stroke-linecap:square;stroke-linejoin:miter;stroke-width:0.8;"/>
   </g>
   <g id="patch_5">
    <path d="M 38.2 292.638 
L 395.32 292.638 
" style="fill:none;stroke:#000000;stroke-linecap:square;stroke-linejoin:miter;stroke-width:0.8;"/>
   </g>
   <g id="patch_6">
    <path d="M 38.2 26.526 
L 395.32 26.526 
" style="fill:none;stroke:#000000;stroke-linecap:square;stroke-linejoin:miter;stroke-width:0.8;"/>
   </g>
   <g id="text_16">
    <!-- Posterior predictive distribution -->
    <g transform="translate(90.457 20.526)scale(0.192 -0.192)">
     <defs>
      <path d="M 3725 3149 
C 3725 3834 3091 4442 2208 4442 
L 614 4442 
L 614 0 
L 1184 0 
L 1184 1850 
L 2253 1850 
C 3046 1850 3725 2432 3725 3149 
z
M 3206 3149 
C 3206 2643 2803 2221 2067 2221 
L 1165 2221 
L 1165 4083 
L 2067 4083 
C 2771 4083 3206 3693 3206 3149 
z
" id="LMSans10-Regular-50" transform="scale(0.015625)"/>
      <path d="M 3002 1408 
C 3002 2266 2362 2950 1600 2950 
C 813 2950 192 2246 192 1408 
C 192 563 845 -70 1594 -70 
C 2362 -70 3002 576 3002 1408 
z
M 2502 1472 
C 2502 717 2067 339 1594 339 
C 1152 339 691 698 691 1472 
C 691 2246 1178 2560 1594 2560 
C 2042 2560 2502 2227 2502 1472 
z
" id="LMSans10-Regular-6f" transform="scale(0.015625)"/>
      <path d="M 2304 819 
C 2304 1171 2067 1389 2054 1408 
C 1805 1632 1632 1670 1312 1728 
C 960 1798 666 1862 666 2176 
C 666 2573 1126 2573 1210 2573 
C 1414 2573 1754 2547 2118 2330 
L 2195 2746 
C 1862 2899 1600 2950 1274 2950 
C 1114 2950 211 2950 211 2112 
C 211 1798 397 1594 557 1472 
C 755 1331 896 1306 1248 1235 
C 1478 1190 1850 1114 1850 774 
C 1850 333 1344 333 1248 333 
C 730 333 371 570 256 646 
L 179 211 
C 384 109 736 -70 1254 -70 
C 1370 -70 1722 -70 1997 134 
C 2195 288 2304 544 2304 819 
z
" id="LMSans10-Regular-73" transform="scale(0.015625)"/>
      <path d="M 2125 173 
L 2022 550 
C 1856 416 1651 339 1446 339 
C 1210 339 1120 531 1120 870 
L 1120 2470 
L 2022 2470 
L 2022 2842 
L 1120 2842 
L 1120 3654 
L 678 3654 
L 678 2842 
L 122 2842 
L 122 2470 
L 659 2470 
L 659 762 
C 659 378 749 -70 1190 -70 
C 1638 -70 1965 90 2125 173 
z
" id="LMSans10-Regular-74" transform="scale(0.015625)"/>
      <path d="M 2650 1402 
C 2650 1619 2643 2099 2394 2483 
C 2131 2880 1741 2950 1510 2950 
C 800 2950 224 2272 224 1446 
C 224 602 838 -70 1606 -70 
C 2010 -70 2374 83 2624 262 
L 2586 678 
C 2182 346 1760 320 1613 320 
C 1101 320 691 774 672 1402 
L 2650 1402 
z
M 2285 1754 
L 704 1754 
C 806 2240 1146 2560 1510 2560 
C 1843 2560 2202 2342 2285 1754 
z
" id="LMSans10-Regular-65" transform="scale(0.015625)"/>
      <path d="M 2093 2483 
L 2093 2912 
C 1523 2906 1171 2592 973 2298 
L 973 2880 
L 525 2880 
L 525 0 
L 1005 0 
L 1005 1370 
C 1005 2010 1466 2470 2093 2483 
z
" id="LMSans10-Regular-72" transform="scale(0.015625)"/>
      <path d="M 998 0 
L 998 2842 
L 518 2842 
L 518 0 
L 998 0 
z
M 1050 3622 
L 1050 4192 
L 480 4192 
L 480 3622 
L 1050 3622 
z
" id="LMSans10-Regular-69" transform="scale(0.015625)"/>
      <path id="LMSans10-Regular-20" transform="scale(0.015625)"/>
      <path d="M 3072 1427 
C 3072 2195 2669 2912 2054 2912 
C 1670 2912 1299 2778 1005 2528 
L 1005 2842 
L 525 2842 
L 525 -1242 
L 1024 -1242 
L 1024 294 
C 1222 109 1504 -70 1888 -70 
C 2509 -70 3072 557 3072 1427 
z
M 2573 1427 
C 2573 768 2118 320 1638 320 
C 1389 320 1216 448 1088 621 
C 1024 717 1024 730 1024 845 
L 1024 2131 
C 1178 2355 1427 2502 1702 2502 
C 2189 2502 2573 2016 2573 1427 
z
" id="LMSans10-Regular-70" transform="scale(0.015625)"/>
      <path d="M 2778 0 
L 2778 4442 
L 2298 4442 
L 2298 2560 
C 1958 2842 1600 2912 1363 2912 
C 730 2912 230 2246 230 1421 
C 230 582 723 -70 1331 -70 
C 1542 -70 1920 -13 2278 333 
L 2278 0 
L 2778 0 
z
M 2278 890 
C 2278 800 2272 685 2067 499 
C 1920 371 1760 320 1594 320 
C 1197 320 730 621 730 1414 
C 730 2259 1280 2522 1658 2522 
C 1946 2522 2138 2374 2278 2170 
L 2278 890 
z
" id="LMSans10-Regular-64" transform="scale(0.015625)"/>
      <path d="M 2656 256 
L 2618 685 
C 2291 429 1946 339 1619 339 
C 1088 339 730 800 730 1427 
C 730 1926 966 2541 1645 2541 
C 1978 2541 2195 2490 2547 2259 
L 2624 2675 
C 2246 2893 2029 2950 1638 2950 
C 749 2950 230 2176 230 1421 
C 230 627 813 -70 1613 -70 
C 1958 -70 2310 19 2656 256 
z
" id="LMSans10-Regular-63" transform="scale(0.015625)"/>
      <path d="M 2854 2842 
L 2374 2842 
L 1869 1510 
C 1734 1158 1536 640 1485 339 
L 1478 339 
C 1440 570 1274 1011 1210 1184 
L 589 2842 
L 90 2842 
L 1190 0 
L 1754 0 
L 2854 2842 
z
" id="LMSans10-Regular-76" transform="scale(0.015625)"/>
      <path d="M 3072 1427 
C 3072 2221 2637 2912 2035 2912 
C 1786 2912 1389 2848 1005 2534 
L 1005 4442 
L 525 4442 
L 525 0 
L 1024 0 
L 1024 294 
C 1178 154 1453 -70 1882 -70 
C 2522 -70 3072 570 3072 1427 
z
M 2573 1427 
C 2573 595 2035 320 1645 320 
C 1395 320 1184 435 1024 730 
L 1024 2144 
C 1126 2298 1357 2522 1709 2522 
C 2086 2522 2573 2246 2573 1427 
z
" id="LMSans10-Regular-62" transform="scale(0.015625)"/>
      <path d="M 2784 0 
L 2784 2842 
L 2285 2842 
L 2285 986 
C 2285 506 1926 282 1517 282 
C 1062 282 1018 448 1018 723 
L 1018 2842 
L 518 2842 
L 518 698 
C 518 237 666 -70 1197 -70 
C 1536 -70 1990 32 2304 307 
L 2304 0 
L 2784 0 
z
" id="LMSans10-Regular-75" transform="scale(0.015625)"/>
      <path d="M 2784 0 
L 2784 1907 
C 2784 2330 2688 2912 1907 2912 
C 1331 2912 1018 2477 979 2426 
L 979 2880 
L 518 2880 
L 518 0 
L 1018 0 
L 1018 1568 
C 1018 1990 1178 2522 1664 2522 
C 2278 2522 2285 2067 2285 1862 
L 2285 0 
L 2784 0 
z
" id="LMSans10-Regular-6e" transform="scale(0.015625)"/>
     </defs>
     <use xlink:href="#LMSans10-Regular-50"/>
     <use x="63.899994" xlink:href="#LMSans10-Regular-6f"/>
     <use x="113.899979" xlink:href="#LMSans10-Regular-73"/>
     <use x="152.199966" xlink:href="#LMSans10-Regular-74"/>
     <use x="188.299957" xlink:href="#LMSans10-Regular-65"/>
     <use x="232.699951" xlink:href="#LMSans10-Regular-72"/>
     <use x="266.899948" xlink:href="#LMSans10-Regular-69"/>
     <use x="290.799942" xlink:href="#LMSans10-Regular-6f"/>
     <use x="340.799927" xlink:href="#LMSans10-Regular-72"/>
     <use x="374.999924" xlink:href="#LMSans10-Regular-20"/>
     <use x="408.299911" xlink:href="#LMSans10-Regular-70"/>
     <use x="459.999908" xlink:href="#LMSans10-Regular-72"/>
     <use x="494.199905" xlink:href="#LMSans10-Regular-65"/>
     <use x="538.599899" xlink:href="#LMSans10-Regular-64"/>
     <use x="590.299896" xlink:href="#LMSans10-Regular-69"/>
     <use x="614.19989" xlink:href="#LMSans10-Regular-63"/>
     <use x="658.599884" xlink:href="#LMSans10-Regular-74"/>
     <use x="694.699875" xlink:href="#LMSans10-Regular-69"/>
     <use x="718.599869" xlink:href="#LMSans10-Regular-76"/>
     <use x="764.69986" xlink:href="#LMSans10-Regular-65"/>
     <use x="809.099854" xlink:href="#LMSans10-Regular-20"/>
     <use x="842.399841" xlink:href="#LMSans10-Regular-64"/>
     <use x="894.099838" xlink:href="#LMSans10-Regular-69"/>
     <use x="917.999832" xlink:href="#LMSans10-Regular-73"/>
     <use x="956.29982" xlink:href="#LMSans10-Regular-74"/>
     <use x="992.399811" xlink:href="#LMSans10-Regular-72"/>
     <use x="1026.599808" xlink:href="#LMSans10-Regular-69"/>
     <use x="1050.499802" xlink:href="#LMSans10-Regular-62"/>
     <use x="1102.199799" xlink:href="#LMSans10-Regular-75"/>
     <use x="1153.899796" xlink:href="#LMSans10-Regular-74"/>
     <use x="1189.999786" xlink:href="#LMSans10-Regular-69"/>
     <use x="1213.89978" xlink:href="#LMSans10-Regular-6f"/>
     <use x="1263.899765" xlink:href="#LMSans10-Regular-6e"/>
    </g>
   </g>
  </g>
 </g>
 <defs>
  <clipPath id="p3f0d9ba20a">
   <rect height="266.112" width="357.12" x="38.2" y="26.526"/>
  </clipPath>
 </defs>
</svg>
