<?xml version="1.0" encoding="utf-8" standalone="no"?>
<!DOCTYPE svg PUBLIC "-//W3C//DTD SVG 1.1//EN"
  "http://www.w3.org/Graphics/SVG/1.1/DTD/svg11.dtd">
<svg height="405.83952pt" version="1.1" viewBox="0 0 1068.23952 405.83952" width="1068.23952pt" xmlns="http://www.w3.org/2000/svg" xmlns:xlink="http://www.w3.org/1999/xlink">
 <metadata>
  <rdf:RDF xmlns:cc="http://creativecommons.org/ns#" xmlns:dc="http://purl.org/dc/elements/1.1/" xmlns:rdf="http://www.w3.org/1999/02/22-rdf-syntax-ns#">
   <cc:Work>
    <dc:type rdf:resource="http://purl.org/dc/dcmitype/StillImage"/>
    <dc:date>2021-05-27T07:36:37.476927</dc:date>
    <dc:format>image/svg+xml</dc:format>
    <dc:creator>
     <cc:Agent>
      <dc:title>Matplotlib v3.4.2, https://matplotlib.org/</dc:title>
     </cc:Agent>
    </dc:creator>
   </cc:Work>
  </rdf:RDF>
 </metadata>
 <defs>
  <style type="text/css">*{stroke-linecap:butt;stroke-linejoin:round;}</style>
 </defs>
 <g id="figure_1">
  <g id="patch_1">
   <path d="M 0 405.83952 
L 1068.23952 405.83952 
L 1068.23952 0 
L 0 0 
z
" style="fill:#ffffff;"/>
  </g>
  <g id="axes_1">
   <g id="patch_2">
    <path d="M 7.2 379.70577 
L 528.82056 379.70577 
L 528.82056 24.305 
L 7.2 24.305 
z
" style="fill:#ffffff;"/>
   </g>
   <g id="PolyCollection_1">
    <defs>
     <path d="M 30.910025 -42.28833 
L 30.910025 -44.881017 
L 31.838011 -44.887162 
L 32.765996 -44.892039 
L 33.693981 -44.907883 
L 34.621967 -44.925601 
L 35.549952 -44.949017 
L 36.477937 -44.974766 
L 37.405923 -45.009511 
L 38.333908 -45.057222 
L 39.261894 -45.108465 
L 40.189879 -45.163082 
L 41.117864 -45.224396 
L 42.04585 -45.296453 
L 42.973835 -45.374053 
L 43.90182 -45.464131 
L 44.829806 -45.560017 
L 45.757791 -45.664986 
L 46.685776 -45.782991 
L 47.613762 -45.91519 
L 48.541747 -46.059222 
L 49.469732 -46.216307 
L 50.397718 -46.380395 
L 51.325703 -46.560262 
L 52.253688 -46.7561 
L 53.181674 -46.958031 
L 54.109659 -47.175289 
L 55.037644 -47.412102 
L 55.96563 -47.659895 
L 56.893615 -47.914182 
L 57.8216 -48.183107 
L 58.749586 -48.466936 
L 59.677571 -48.758751 
L 60.605556 -49.057177 
L 61.533542 -49.367844 
L 62.461527 -49.684176 
L 63.389512 -50.008053 
L 64.317498 -50.341309 
L 65.245483 -50.676486 
L 66.173468 -51.015327 
L 67.101454 -51.360268 
L 68.029439 -51.718235 
L 68.957424 -52.065506 
L 69.88541 -52.41972 
L 70.813395 -52.775015 
L 71.74138 -53.124115 
L 72.669366 -53.489167 
L 73.597351 -53.8476 
L 74.525336 -54.204816 
L 75.453322 -54.553287 
L 76.381307 -54.898254 
L 77.309292 -55.239221 
L 78.237278 -55.579347 
L 79.165263 -55.919101 
L 80.093249 -56.263539 
L 81.021234 -56.596428 
L 81.949219 -56.943902 
L 82.877205 -57.270825 
L 83.80519 -57.605659 
L 84.733175 -57.933391 
L 85.661161 -58.256916 
L 86.589146 -58.580591 
L 87.517131 -58.908921 
L 88.445117 -59.243089 
L 89.373102 -59.585313 
L 90.301087 -59.938123 
L 91.229073 -60.307996 
L 92.157058 -60.678016 
L 93.085043 -61.051767 
L 94.013029 -61.457078 
L 94.941014 -61.881364 
L 95.868999 -62.316348 
L 96.796985 -62.805372 
L 97.72497 -63.311385 
L 98.652955 -63.848714 
L 99.580941 -64.406302 
L 100.508926 -65.012118 
L 101.436911 -65.652609 
L 102.364897 -66.325395 
L 103.292882 -67.026778 
L 104.220867 -67.791362 
L 105.148853 -68.582889 
L 106.076838 -69.434905 
L 107.004823 -70.337377 
L 107.932809 -71.291797 
L 108.860794 -72.273586 
L 109.788779 -73.317875 
L 110.716765 -74.38229 
L 111.64475 -75.518568 
L 112.572735 -76.70293 
L 113.500721 -77.905672 
L 114.428706 -79.174668 
L 115.356691 -80.489383 
L 116.284677 -81.85597 
L 117.212662 -83.257739 
L 118.140647 -84.700683 
L 119.068633 -86.201489 
L 119.996618 -87.7688 
L 120.924604 -89.35647 
L 121.852589 -90.984378 
L 122.780574 -92.655582 
L 123.70856 -94.365777 
L 124.636545 -96.134225 
L 125.56453 -97.930859 
L 126.492516 -99.773982 
L 127.420501 -101.654538 
L 128.348486 -103.585551 
L 129.276472 -105.557953 
L 130.204457 -107.562532 
L 131.132442 -109.587435 
L 132.060428 -111.65331 
L 132.988413 -113.759354 
L 133.916398 -115.89417 
L 134.844384 -118.043329 
L 135.772369 -120.245982 
L 136.700354 -122.446219 
L 137.62834 -124.68451 
L 138.556325 -126.921232 
L 139.48431 -129.167081 
L 140.412296 -131.423842 
L 141.340281 -133.710744 
L 142.268266 -135.987971 
L 143.196252 -138.27708 
L 144.124237 -140.552345 
L 145.052222 -142.832946 
L 145.980208 -145.14652 
L 146.908193 -147.406665 
L 147.836178 -149.667253 
L 148.764164 -151.956048 
L 149.692149 -154.206424 
L 150.620134 -156.46274 
L 151.54812 -158.687205 
L 152.476105 -160.88259 
L 153.40409 -163.056377 
L 154.332076 -165.23711 
L 155.260061 -167.388971 
L 156.188046 -169.558426 
L 157.116032 -171.671712 
L 158.044017 -173.764173 
L 158.972002 -175.870142 
L 159.899988 -177.917894 
L 160.827973 -179.980017 
L 161.755958 -181.993457 
L 162.683944 -184.033337 
L 163.611929 -186.061898 
L 164.539915 -188.092805 
L 165.4679 -190.132275 
L 166.395885 -192.161132 
L 167.323871 -194.184259 
L 168.251856 -196.246673 
L 169.179841 -198.317416 
L 170.107827 -200.410645 
L 171.035812 -202.521776 
L 171.963797 -204.647856 
L 172.891783 -206.816961 
L 173.819768 -209.054879 
L 174.747753 -211.325771 
L 175.675739 -213.588491 
L 176.603724 -215.895595 
L 177.531709 -218.266943 
L 178.459695 -220.668427 
L 179.38768 -223.116087 
L 180.315665 -225.595959 
L 181.243651 -228.156753 
L 182.171636 -230.753557 
L 183.099621 -233.372217 
L 184.027607 -236.063939 
L 184.955592 -238.811582 
L 185.883577 -241.573468 
L 186.811563 -244.369992 
L 187.739548 -247.187011 
L 188.667533 -250.066453 
L 189.595519 -252.935729 
L 190.523504 -255.870586 
L 191.451489 -258.758978 
L 192.379475 -261.711939 
L 193.30746 -264.700783 
L 194.235445 -267.669506 
L 195.163431 -270.611973 
L 196.091416 -273.570518 
L 197.019401 -276.518235 
L 197.947387 -279.433086 
L 198.875372 -282.293047 
L 199.803357 -285.104476 
L 200.731343 -287.904158 
L 201.659328 -290.682721 
L 202.587313 -293.383139 
L 203.515299 -296.007534 
L 204.443284 -298.552886 
L 205.37127 -301.036502 
L 206.299255 -303.437897 
L 207.22724 -305.74734 
L 208.155226 -307.95406 
L 209.083211 -310.068479 
L 210.011196 -312.074296 
L 210.939182 -314.05829 
L 211.867167 -315.873005 
L 212.795152 -317.595423 
L 213.723138 -319.214789 
L 214.651123 -320.773629 
L 215.579108 -322.189507 
L 216.507094 -323.583514 
L 217.435079 -324.828058 
L 218.363064 -326.010708 
L 219.29105 -327.103301 
L 220.219035 -328.157942 
L 221.14702 -329.090713 
L 222.075006 -329.949797 
L 223.002991 -330.742818 
L 223.930976 -331.480441 
L 224.858962 -332.157091 
L 225.786947 -332.739058 
L 226.714932 -333.307062 
L 227.642918 -333.838907 
L 228.570903 -334.329949 
L 229.498888 -334.805166 
L 230.426874 -335.192939 
L 231.354859 -335.61248 
L 232.282844 -336.008941 
L 233.21083 -336.418793 
L 234.138815 -336.809334 
L 235.0668 -337.161035 
L 235.994786 -337.500528 
L 236.922771 -337.893578 
L 237.850756 -338.290587 
L 238.778742 -338.696346 
L 239.706727 -339.169457 
L 240.634712 -339.687304 
L 241.562698 -340.224038 
L 242.490683 -340.82936 
L 243.418668 -341.478709 
L 244.346654 -342.158811 
L 245.274639 -342.923531 
L 246.202624 -343.723944 
L 247.13061 -344.617049 
L 248.058595 -345.567721 
L 248.986581 -346.56664 
L 249.914566 -347.619056 
L 250.842551 -348.732481 
L 251.770537 -349.925169 
L 252.698522 -351.126111 
L 253.626507 -352.299594 
L 254.554493 -353.503942 
L 255.482478 -354.785501 
L 256.410463 -356.019195 
L 257.338449 -357.254157 
L 258.266434 -358.451026 
L 259.194419 -359.587275 
L 260.122405 -360.646416 
L 261.05039 -361.598665 
L 261.978375 -362.502954 
L 262.906361 -363.328791 
L 263.834346 -363.973257 
L 264.762331 -364.514315 
L 265.690317 -364.941552 
L 266.618302 -365.243193 
L 267.546287 -365.37994 
L 268.474273 -365.360297 
L 269.402258 -365.229813 
L 270.330243 -364.927103 
L 271.258229 -364.481782 
L 272.186214 -363.859139 
L 273.114199 -363.085519 
L 274.042185 -362.166388 
L 274.97017 -361.171011 
L 275.898155 -359.998023 
L 276.826141 -358.740997 
L 277.754126 -357.389845 
L 278.682111 -355.961215 
L 279.610097 -354.409688 
L 280.538082 -352.768237 
L 281.466067 -351.069779 
L 282.394053 -349.315128 
L 283.322038 -347.521572 
L 284.250023 -345.647634 
L 285.178009 -343.733214 
L 286.105994 -341.800766 
L 287.033979 -339.818995 
L 287.961965 -337.82353 
L 288.88995 -335.755253 
L 289.817936 -333.694056 
L 290.745921 -331.5297 
L 291.673906 -329.388811 
L 292.601892 -327.189899 
L 293.529877 -324.962681 
L 294.457862 -322.642722 
L 295.385848 -320.302134 
L 296.313833 -317.902565 
L 297.241818 -315.480707 
L 298.169804 -313.013546 
L 299.097789 -310.488437 
L 300.025774 -307.912037 
L 300.95376 -305.269807 
L 301.881745 -302.616307 
L 302.80973 -299.89301 
L 303.737716 -297.129124 
L 304.665701 -294.327073 
L 305.593686 -291.494804 
L 306.521672 -288.631366 
L 307.449657 -285.73331 
L 308.377642 -282.784595 
L 309.305628 -279.864538 
L 310.233613 -276.935622 
L 311.161598 -273.987101 
L 312.089584 -271.03427 
L 313.017569 -268.075205 
L 313.945554 -265.12598 
L 314.87354 -262.238236 
L 315.801525 -259.342625 
L 316.72951 -256.474821 
L 317.657496 -253.624143 
L 318.585481 -250.793799 
L 319.513466 -247.984304 
L 320.441452 -245.178201 
L 321.369437 -242.451254 
L 322.297422 -239.693397 
L 323.225408 -236.959387 
L 324.153393 -234.282564 
L 325.081378 -231.603044 
L 326.009364 -228.992606 
L 326.937349 -226.352205 
L 327.865334 -223.720783 
L 328.79332 -221.13378 
L 329.721305 -218.553989 
L 330.64929 -215.986604 
L 331.577276 -213.419529 
L 332.505261 -210.882057 
L 333.433247 -208.355998 
L 334.361232 -205.83944 
L 335.289217 -203.322922 
L 336.217203 -200.829365 
L 337.145188 -198.311671 
L 338.073173 -195.83634 
L 339.001159 -193.384099 
L 339.929144 -190.953928 
L 340.857129 -188.531876 
L 341.785115 -186.093172 
L 342.7131 -183.686905 
L 343.641085 -181.306455 
L 344.569071 -178.943409 
L 345.497056 -176.605131 
L 346.425041 -174.28807 
L 347.353027 -172.015653 
L 348.281012 -169.7671 
L 349.208997 -167.530029 
L 350.136983 -165.327647 
L 351.064968 -163.168982 
L 351.992953 -161.037989 
L 352.920939 -158.942608 
L 353.848924 -156.89256 
L 354.776909 -154.851656 
L 355.704895 -152.853038 
L 356.63288 -150.867883 
L 357.560865 -148.906251 
L 358.488851 -146.968361 
L 359.416836 -145.085318 
L 360.344821 -143.213775 
L 361.272807 -141.316725 
L 362.200792 -139.453534 
L 363.128777 -137.596349 
L 364.056763 -135.770115 
L 364.984748 -133.936807 
L 365.912733 -132.072704 
L 366.840719 -130.237331 
L 367.768704 -128.386978 
L 368.696689 -126.566496 
L 369.624675 -124.71921 
L 370.55266 -122.879599 
L 371.480645 -121.03807 
L 372.408631 -119.198379 
L 373.336616 -117.343063 
L 374.264602 -115.525041 
L 375.192587 -113.699311 
L 376.120572 -111.856057 
L 377.048558 -110.051099 
L 377.976543 -108.226046 
L 378.904528 -106.429553 
L 379.832514 -104.617872 
L 380.760499 -102.872273 
L 381.688484 -101.127993 
L 382.61647 -99.410546 
L 383.544455 -97.718076 
L 384.47244 -96.041498 
L 385.400426 -94.392042 
L 386.328411 -92.776396 
L 387.256396 -91.175365 
L 388.184382 -89.625193 
L 389.112367 -88.081885 
L 390.040352 -86.609237 
L 390.968338 -85.148272 
L 391.896323 -83.737286 
L 392.824308 -82.358003 
L 393.752294 -81.008501 
L 394.680279 -79.698002 
L 395.608264 -78.422745 
L 396.53625 -77.175286 
L 397.464235 -75.972217 
L 398.39222 -74.794224 
L 399.320206 -73.66475 
L 400.248191 -72.572911 
L 401.176176 -71.512861 
L 402.104162 -70.502945 
L 403.032147 -69.536657 
L 403.960132 -68.594787 
L 404.888118 -67.682085 
L 405.816103 -66.793459 
L 406.744088 -65.965733 
L 407.672074 -65.15511 
L 408.600059 -64.381301 
L 409.528044 -63.645225 
L 410.45603 -62.938589 
L 411.384015 -62.260221 
L 412.312 -61.610989 
L 413.239986 -60.991794 
L 414.167971 -60.395064 
L 415.095956 -59.811734 
L 416.023942 -59.241694 
L 416.951927 -58.707548 
L 417.879913 -58.18428 
L 418.807898 -57.680638 
L 419.735883 -57.188969 
L 420.663869 -56.711698 
L 421.591854 -56.256407 
L 422.519839 -55.806674 
L 423.447825 -55.374808 
L 424.37581 -54.946771 
L 425.303795 -54.52932 
L 426.231781 -54.122082 
L 427.159766 -53.743571 
L 428.087751 -53.361215 
L 429.015737 -52.982406 
L 429.943722 -52.620799 
L 430.871707 -52.275187 
L 431.799693 -51.926625 
L 432.727678 -51.595347 
L 433.655663 -51.271502 
L 434.583649 -50.95306 
L 435.511634 -50.665132 
L 436.439619 -50.375137 
L 437.367605 -50.106258 
L 438.29559 -49.842298 
L 439.223575 -49.584078 
L 440.151561 -49.341472 
L 441.079546 -49.113611 
L 442.007531 -48.89972 
L 442.935517 -48.696215 
L 443.863502 -48.503787 
L 444.791487 -48.319453 
L 445.719473 -48.151579 
L 446.647458 -47.993607 
L 447.575443 -47.842544 
L 448.503429 -47.703858 
L 449.431414 -47.573725 
L 450.359399 -47.448997 
L 451.287385 -47.332839 
L 452.21537 -47.224772 
L 453.143355 -47.127177 
L 454.071341 -47.024512 
L 454.999326 -46.938945 
L 455.927311 -46.861984 
L 456.855297 -46.775199 
L 457.783282 -46.710007 
L 458.711268 -46.647941 
L 459.639253 -46.585723 
L 460.567238 -46.526405 
L 461.495224 -46.466523 
L 462.423209 -46.414746 
L 463.351194 -46.35764 
L 464.27918 -46.304617 
L 465.207165 -46.254394 
L 466.13515 -46.20658 
L 467.063136 -46.155181 
L 467.991121 -46.102753 
L 468.919106 -46.048274 
L 469.847092 -45.991493 
L 470.775077 -45.932195 
L 471.703062 -45.864445 
L 472.631048 -45.795095 
L 473.559033 -45.726736 
L 474.487018 -45.658576 
L 475.415004 -45.587147 
L 476.342989 -45.509773 
L 477.270974 -45.433076 
L 478.19896 -45.35376 
L 479.126945 -45.269307 
L 480.05493 -45.186495 
L 480.982916 -45.099277 
L 481.910901 -45.014508 
L 482.838886 -44.92909 
L 483.766872 -44.843551 
L 484.694857 -44.758415 
L 485.622842 -44.674193 
L 486.550828 -44.59211 
L 487.478813 -44.512643 
L 488.406798 -44.432632 
L 489.334784 -44.362481 
L 490.262769 -44.289715 
L 491.190754 -44.223927 
L 492.11874 -44.161789 
L 493.046725 -44.103522 
L 493.97471 -44.04639 
L 494.902696 -43.993955 
L 495.830681 -43.952617 
L 496.758666 -43.912395 
L 497.686652 -43.87975 
L 498.614637 -43.84824 
L 499.542623 -43.820636 
L 500.470608 -43.796796 
L 501.398593 -43.776559 
L 502.326579 -43.756868 
L 503.254564 -43.747544 
L 504.182549 -43.738476 
L 505.110535 -43.732443 
L 505.110535 -42.28833 
L 505.110535 -42.28833 
L 504.182549 -42.28833 
L 503.254564 -42.28833 
L 502.326579 -42.28833 
L 501.398593 -42.28833 
L 500.470608 -42.28833 
L 499.542623 -42.28833 
L 498.614637 -42.28833 
L 497.686652 -42.28833 
L 496.758666 -42.28833 
L 495.830681 -42.28833 
L 494.902696 -42.28833 
L 493.97471 -42.28833 
L 493.046725 -42.28833 
L 492.11874 -42.28833 
L 491.190754 -42.28833 
L 490.262769 -42.28833 
L 489.334784 -42.28833 
L 488.406798 -42.28833 
L 487.478813 -42.28833 
L 486.550828 -42.28833 
L 485.622842 -42.28833 
L 484.694857 -42.28833 
L 483.766872 -42.28833 
L 482.838886 -42.28833 
L 481.910901 -42.28833 
L 480.982916 -42.28833 
L 480.05493 -42.28833 
L 479.126945 -42.28833 
L 478.19896 -42.28833 
L 477.270974 -42.28833 
L 476.342989 -42.28833 
L 475.415004 -42.28833 
L 474.487018 -42.28833 
L 473.559033 -42.28833 
L 472.631048 -42.28833 
L 471.703062 -42.28833 
L 470.775077 -42.28833 
L 469.847092 -42.28833 
L 468.919106 -42.28833 
L 467.991121 -42.28833 
L 467.063136 -42.28833 
L 466.13515 -42.28833 
L 465.207165 -42.28833 
L 464.27918 -42.28833 
L 463.351194 -42.28833 
L 462.423209 -42.28833 
L 461.495224 -42.28833 
L 460.567238 -42.28833 
L 459.639253 -42.28833 
L 458.711268 -42.28833 
L 457.783282 -42.28833 
L 456.855297 -42.28833 
L 455.927311 -42.28833 
L 454.999326 -42.28833 
L 454.071341 -42.28833 
L 453.143355 -42.28833 
L 452.21537 -42.28833 
L 451.287385 -42.28833 
L 450.359399 -42.28833 
L 449.431414 -42.28833 
L 448.503429 -42.28833 
L 447.575443 -42.28833 
L 446.647458 -42.28833 
L 445.719473 -42.28833 
L 444.791487 -42.28833 
L 443.863502 -42.28833 
L 442.935517 -42.28833 
L 442.007531 -42.28833 
L 441.079546 -42.28833 
L 440.151561 -42.28833 
L 439.223575 -42.28833 
L 438.29559 -42.28833 
L 437.367605 -42.28833 
L 436.439619 -42.28833 
L 435.511634 -42.28833 
L 434.583649 -42.28833 
L 433.655663 -42.28833 
L 432.727678 -42.28833 
L 431.799693 -42.28833 
L 430.871707 -42.28833 
L 429.943722 -42.28833 
L 429.015737 -42.28833 
L 428.087751 -42.28833 
L 427.159766 -42.28833 
L 426.231781 -42.28833 
L 425.303795 -42.28833 
L 424.37581 -42.28833 
L 423.447825 -42.28833 
L 422.519839 -42.28833 
L 421.591854 -42.28833 
L 420.663869 -42.28833 
L 419.735883 -42.28833 
L 418.807898 -42.28833 
L 417.879913 -42.28833 
L 416.951927 -42.28833 
L 416.023942 -42.28833 
L 415.095956 -42.28833 
L 414.167971 -42.28833 
L 413.239986 -42.28833 
L 412.312 -42.28833 
L 411.384015 -42.28833 
L 410.45603 -42.28833 
L 409.528044 -42.28833 
L 408.600059 -42.28833 
L 407.672074 -42.28833 
L 406.744088 -42.28833 
L 405.816103 -42.28833 
L 404.888118 -42.28833 
L 403.960132 -42.28833 
L 403.032147 -42.28833 
L 402.104162 -42.28833 
L 401.176176 -42.28833 
L 400.248191 -42.28833 
L 399.320206 -42.28833 
L 398.39222 -42.28833 
L 397.464235 -42.28833 
L 396.53625 -42.28833 
L 395.608264 -42.28833 
L 394.680279 -42.28833 
L 393.752294 -42.28833 
L 392.824308 -42.28833 
L 391.896323 -42.28833 
L 390.968338 -42.28833 
L 390.040352 -42.28833 
L 389.112367 -42.28833 
L 388.184382 -42.28833 
L 387.256396 -42.28833 
L 386.328411 -42.28833 
L 385.400426 -42.28833 
L 384.47244 -42.28833 
L 383.544455 -42.28833 
L 382.61647 -42.28833 
L 381.688484 -42.28833 
L 380.760499 -42.28833 
L 379.832514 -42.28833 
L 378.904528 -42.28833 
L 377.976543 -42.28833 
L 377.048558 -42.28833 
L 376.120572 -42.28833 
L 375.192587 -42.28833 
L 374.264602 -42.28833 
L 373.336616 -42.28833 
L 372.408631 -42.28833 
L 371.480645 -42.28833 
L 370.55266 -42.28833 
L 369.624675 -42.28833 
L 368.696689 -42.28833 
L 367.768704 -42.28833 
L 366.840719 -42.28833 
L 365.912733 -42.28833 
L 364.984748 -42.28833 
L 364.056763 -42.28833 
L 363.128777 -42.28833 
L 362.200792 -42.28833 
L 361.272807 -42.28833 
L 360.344821 -42.28833 
L 359.416836 -42.28833 
L 358.488851 -42.28833 
L 357.560865 -42.28833 
L 356.63288 -42.28833 
L 355.704895 -42.28833 
L 354.776909 -42.28833 
L 353.848924 -42.28833 
L 352.920939 -42.28833 
L 351.992953 -42.28833 
L 351.064968 -42.28833 
L 350.136983 -42.28833 
L 349.208997 -42.28833 
L 348.281012 -42.28833 
L 347.353027 -42.28833 
L 346.425041 -42.28833 
L 345.497056 -42.28833 
L 344.569071 -42.28833 
L 343.641085 -42.28833 
L 342.7131 -42.28833 
L 341.785115 -42.28833 
L 340.857129 -42.28833 
L 339.929144 -42.28833 
L 339.001159 -42.28833 
L 338.073173 -42.28833 
L 337.145188 -42.28833 
L 336.217203 -42.28833 
L 335.289217 -42.28833 
L 334.361232 -42.28833 
L 333.433247 -42.28833 
L 332.505261 -42.28833 
L 331.577276 -42.28833 
L 330.64929 -42.28833 
L 329.721305 -42.28833 
L 328.79332 -42.28833 
L 327.865334 -42.28833 
L 326.937349 -42.28833 
L 326.009364 -42.28833 
L 325.081378 -42.28833 
L 324.153393 -42.28833 
L 323.225408 -42.28833 
L 322.297422 -42.28833 
L 321.369437 -42.28833 
L 320.441452 -42.28833 
L 319.513466 -42.28833 
L 318.585481 -42.28833 
L 317.657496 -42.28833 
L 316.72951 -42.28833 
L 315.801525 -42.28833 
L 314.87354 -42.28833 
L 313.945554 -42.28833 
L 313.017569 -42.28833 
L 312.089584 -42.28833 
L 311.161598 -42.28833 
L 310.233613 -42.28833 
L 309.305628 -42.28833 
L 308.377642 -42.28833 
L 307.449657 -42.28833 
L 306.521672 -42.28833 
L 305.593686 -42.28833 
L 304.665701 -42.28833 
L 303.737716 -42.28833 
L 302.80973 -42.28833 
L 301.881745 -42.28833 
L 300.95376 -42.28833 
L 300.025774 -42.28833 
L 299.097789 -42.28833 
L 298.169804 -42.28833 
L 297.241818 -42.28833 
L 296.313833 -42.28833 
L 295.385848 -42.28833 
L 294.457862 -42.28833 
L 293.529877 -42.28833 
L 292.601892 -42.28833 
L 291.673906 -42.28833 
L 290.745921 -42.28833 
L 289.817936 -42.28833 
L 288.88995 -42.28833 
L 287.961965 -42.28833 
L 287.033979 -42.28833 
L 286.105994 -42.28833 
L 285.178009 -42.28833 
L 284.250023 -42.28833 
L 283.322038 -42.28833 
L 282.394053 -42.28833 
L 281.466067 -42.28833 
L 280.538082 -42.28833 
L 279.610097 -42.28833 
L 278.682111 -42.28833 
L 277.754126 -42.28833 
L 276.826141 -42.28833 
L 275.898155 -42.28833 
L 274.97017 -42.28833 
L 274.042185 -42.28833 
L 273.114199 -42.28833 
L 272.186214 -42.28833 
L 271.258229 -42.28833 
L 270.330243 -42.28833 
L 269.402258 -42.28833 
L 268.474273 -42.28833 
L 267.546287 -42.28833 
L 266.618302 -42.28833 
L 265.690317 -42.28833 
L 264.762331 -42.28833 
L 263.834346 -42.28833 
L 262.906361 -42.28833 
L 261.978375 -42.28833 
L 261.05039 -42.28833 
L 260.122405 -42.28833 
L 259.194419 -42.28833 
L 258.266434 -42.28833 
L 257.338449 -42.28833 
L 256.410463 -42.28833 
L 255.482478 -42.28833 
L 254.554493 -42.28833 
L 253.626507 -42.28833 
L 252.698522 -42.28833 
L 251.770537 -42.28833 
L 250.842551 -42.28833 
L 249.914566 -42.28833 
L 248.986581 -42.28833 
L 248.058595 -42.28833 
L 247.13061 -42.28833 
L 246.202624 -42.28833 
L 245.274639 -42.28833 
L 244.346654 -42.28833 
L 243.418668 -42.28833 
L 242.490683 -42.28833 
L 241.562698 -42.28833 
L 240.634712 -42.28833 
L 239.706727 -42.28833 
L 238.778742 -42.28833 
L 237.850756 -42.28833 
L 236.922771 -42.28833 
L 235.994786 -42.28833 
L 235.0668 -42.28833 
L 234.138815 -42.28833 
L 233.21083 -42.28833 
L 232.282844 -42.28833 
L 231.354859 -42.28833 
L 230.426874 -42.28833 
L 229.498888 -42.28833 
L 228.570903 -42.28833 
L 227.642918 -42.28833 
L 226.714932 -42.28833 
L 225.786947 -42.28833 
L 224.858962 -42.28833 
L 223.930976 -42.28833 
L 223.002991 -42.28833 
L 222.075006 -42.28833 
L 221.14702 -42.28833 
L 220.219035 -42.28833 
L 219.29105 -42.28833 
L 218.363064 -42.28833 
L 217.435079 -42.28833 
L 216.507094 -42.28833 
L 215.579108 -42.28833 
L 214.651123 -42.28833 
L 213.723138 -42.28833 
L 212.795152 -42.28833 
L 211.867167 -42.28833 
L 210.939182 -42.28833 
L 210.011196 -42.28833 
L 209.083211 -42.28833 
L 208.155226 -42.28833 
L 207.22724 -42.28833 
L 206.299255 -42.28833 
L 205.37127 -42.28833 
L 204.443284 -42.28833 
L 203.515299 -42.28833 
L 202.587313 -42.28833 
L 201.659328 -42.28833 
L 200.731343 -42.28833 
L 199.803357 -42.28833 
L 198.875372 -42.28833 
L 197.947387 -42.28833 
L 197.019401 -42.28833 
L 196.091416 -42.28833 
L 195.163431 -42.28833 
L 194.235445 -42.28833 
L 193.30746 -42.28833 
L 192.379475 -42.28833 
L 191.451489 -42.28833 
L 190.523504 -42.28833 
L 189.595519 -42.28833 
L 188.667533 -42.28833 
L 187.739548 -42.28833 
L 186.811563 -42.28833 
L 185.883577 -42.28833 
L 184.955592 -42.28833 
L 184.027607 -42.28833 
L 183.099621 -42.28833 
L 182.171636 -42.28833 
L 181.243651 -42.28833 
L 180.315665 -42.28833 
L 179.38768 -42.28833 
L 178.459695 -42.28833 
L 177.531709 -42.28833 
L 176.603724 -42.28833 
L 175.675739 -42.28833 
L 174.747753 -42.28833 
L 173.819768 -42.28833 
L 172.891783 -42.28833 
L 171.963797 -42.28833 
L 171.035812 -42.28833 
L 170.107827 -42.28833 
L 169.179841 -42.28833 
L 168.251856 -42.28833 
L 167.323871 -42.28833 
L 166.395885 -42.28833 
L 165.4679 -42.28833 
L 164.539915 -42.28833 
L 163.611929 -42.28833 
L 162.683944 -42.28833 
L 161.755958 -42.28833 
L 160.827973 -42.28833 
L 159.899988 -42.28833 
L 158.972002 -42.28833 
L 158.044017 -42.28833 
L 157.116032 -42.28833 
L 156.188046 -42.28833 
L 155.260061 -42.28833 
L 154.332076 -42.28833 
L 153.40409 -42.28833 
L 152.476105 -42.28833 
L 151.54812 -42.28833 
L 150.620134 -42.28833 
L 149.692149 -42.28833 
L 148.764164 -42.28833 
L 147.836178 -42.28833 
L 146.908193 -42.28833 
L 145.980208 -42.28833 
L 145.052222 -42.28833 
L 144.124237 -42.28833 
L 143.196252 -42.28833 
L 142.268266 -42.28833 
L 141.340281 -42.28833 
L 140.412296 -42.28833 
L 139.48431 -42.28833 
L 138.556325 -42.28833 
L 137.62834 -42.28833 
L 136.700354 -42.28833 
L 135.772369 -42.28833 
L 134.844384 -42.28833 
L 133.916398 -42.28833 
L 132.988413 -42.28833 
L 132.060428 -42.28833 
L 131.132442 -42.28833 
L 130.204457 -42.28833 
L 129.276472 -42.28833 
L 128.348486 -42.28833 
L 127.420501 -42.28833 
L 126.492516 -42.28833 
L 125.56453 -42.28833 
L 124.636545 -42.28833 
L 123.70856 -42.28833 
L 122.780574 -42.28833 
L 121.852589 -42.28833 
L 120.924604 -42.28833 
L 119.996618 -42.28833 
L 119.068633 -42.28833 
L 118.140647 -42.28833 
L 117.212662 -42.28833 
L 116.284677 -42.28833 
L 115.356691 -42.28833 
L 114.428706 -42.28833 
L 113.500721 -42.28833 
L 112.572735 -42.28833 
L 111.64475 -42.28833 
L 110.716765 -42.28833 
L 109.788779 -42.28833 
L 108.860794 -42.28833 
L 107.932809 -42.28833 
L 107.004823 -42.28833 
L 106.076838 -42.28833 
L 105.148853 -42.28833 
L 104.220867 -42.28833 
L 103.292882 -42.28833 
L 102.364897 -42.28833 
L 101.436911 -42.28833 
L 100.508926 -42.28833 
L 99.580941 -42.28833 
L 98.652955 -42.28833 
L 97.72497 -42.28833 
L 96.796985 -42.28833 
L 95.868999 -42.28833 
L 94.941014 -42.28833 
L 94.013029 -42.28833 
L 93.085043 -42.28833 
L 92.157058 -42.28833 
L 91.229073 -42.28833 
L 90.301087 -42.28833 
L 89.373102 -42.28833 
L 88.445117 -42.28833 
L 87.517131 -42.28833 
L 86.589146 -42.28833 
L 85.661161 -42.28833 
L 84.733175 -42.28833 
L 83.80519 -42.28833 
L 82.877205 -42.28833 
L 81.949219 -42.28833 
L 81.021234 -42.28833 
L 80.093249 -42.28833 
L 79.165263 -42.28833 
L 78.237278 -42.28833 
L 77.309292 -42.28833 
L 76.381307 -42.28833 
L 75.453322 -42.28833 
L 74.525336 -42.28833 
L 73.597351 -42.28833 
L 72.669366 -42.28833 
L 71.74138 -42.28833 
L 70.813395 -42.28833 
L 69.88541 -42.28833 
L 68.957424 -42.28833 
L 68.029439 -42.28833 
L 67.101454 -42.28833 
L 66.173468 -42.28833 
L 65.245483 -42.28833 
L 64.317498 -42.28833 
L 63.389512 -42.28833 
L 62.461527 -42.28833 
L 61.533542 -42.28833 
L 60.605556 -42.28833 
L 59.677571 -42.28833 
L 58.749586 -42.28833 
L 57.8216 -42.28833 
L 56.893615 -42.28833 
L 55.96563 -42.28833 
L 55.037644 -42.28833 
L 54.109659 -42.28833 
L 53.181674 -42.28833 
L 52.253688 -42.28833 
L 51.325703 -42.28833 
L 50.397718 -42.28833 
L 49.469732 -42.28833 
L 48.541747 -42.28833 
L 47.613762 -42.28833 
L 46.685776 -42.28833 
L 45.757791 -42.28833 
L 44.829806 -42.28833 
L 43.90182 -42.28833 
L 42.973835 -42.28833 
L 42.04585 -42.28833 
L 41.117864 -42.28833 
L 40.189879 -42.28833 
L 39.261894 -42.28833 
L 38.333908 -42.28833 
L 37.405923 -42.28833 
L 36.477937 -42.28833 
L 35.549952 -42.28833 
L 34.621967 -42.28833 
L 33.693981 -42.28833 
L 32.765996 -42.28833 
L 31.838011 -42.28833 
L 30.910025 -42.28833 
z
" id="mca181d8a31" style="stroke:#1f77b4;stroke-opacity:0;"/>
    </defs>
    <g clip-path="url(#p4e34565bff)">
     <use style="fill:#1f77b4;fill-opacity:0;stroke:#1f77b4;stroke-opacity:0;" x="0" xlink:href="#mca181d8a31" y="405.83952"/>
    </g>
   </g>
   <g id="matplotlib.axis_1">
    <g id="xtick_1">
     <g id="line2d_1">
      <defs>
       <path d="M 0 0 
L 0 3 
" id="mc36eee1727" style="stroke:#808080;"/>
      </defs>
      <g>
       <use style="fill:#808080;stroke:#808080;" x="31.734506" xlink:href="#mc36eee1727" y="379.70577"/>
      </g>
     </g>
     <g id="text_1">
      <!-- 8.6 -->
      <g transform="translate(22.788725 395.922645)scale(0.14 -0.14)">
       <defs>
        <path d="M 2925 1152 
C 2925 1734 2477 2125 2048 2272 
C 2618 2458 2835 2880 2835 3219 
C 2835 3821 2291 4339 1600 4339 
C 883 4339 358 3808 358 3219 
C 358 2880 576 2458 1146 2272 
C 685 2112 269 1709 269 1152 
C 269 454 858 -141 1594 -141 
C 2355 -141 2925 474 2925 1152 
z
M 2387 3219 
C 2387 2758 2061 2464 1600 2464 
C 1107 2464 806 2778 806 3219 
C 806 3661 1120 3968 1594 3968 
C 2099 3968 2387 3635 2387 3219 
z
M 2406 1158 
C 2406 538 2010 250 1600 250 
C 1158 250 787 557 787 1158 
C 787 1830 1248 2074 1594 2074 
C 1965 2074 2406 1818 2406 1158 
z
" id="LMSans10-Regular-38" transform="scale(0.015625)"/>
        <path d="M 1152 0 
L 1152 531 
L 621 531 
L 621 0 
L 1152 0 
z
" id="LMSans10-Regular-2e" transform="scale(0.015625)"/>
        <path d="M 2925 1421 
C 2925 2240 2502 2957 1888 2957 
C 1683 2957 1197 2906 806 2426 
C 890 3456 1395 3968 1984 3968 
C 2227 3968 2432 3923 2656 3834 
L 2656 4211 
C 2330 4339 2067 4339 1978 4339 
C 1075 4339 269 3437 269 2061 
C 269 250 1062 -141 1606 -141 
C 1990 -141 2266 6 2515 294 
C 2803 621 2925 915 2925 1421 
z
M 2400 1421 
C 2400 1203 2400 909 2246 646 
C 2138 467 1971 250 1606 250 
C 928 250 832 1190 813 1402 
C 813 1491 813 1504 819 1581 
C 819 2054 1107 2566 1638 2566 
C 1946 2566 2125 2406 2253 2170 
C 2387 1933 2400 1709 2400 1421 
z
" id="LMSans10-Regular-36" transform="scale(0.015625)"/>
       </defs>
       <use xlink:href="#LMSans10-Regular-38"/>
       <use x="49.999985" xlink:href="#LMSans10-Regular-2e"/>
       <use x="77.799973" xlink:href="#LMSans10-Regular-36"/>
      </g>
     </g>
    </g>
    <g id="xtick_2">
     <g id="line2d_2">
      <g>
       <use style="fill:#808080;stroke:#808080;" x="137.550763" xlink:href="#mc36eee1727" y="379.70577"/>
      </g>
     </g>
     <g id="text_2">
      <!-- 8.8 -->
      <g transform="translate(128.604982 395.922645)scale(0.14 -0.14)">
       <use xlink:href="#LMSans10-Regular-38"/>
       <use x="49.999985" xlink:href="#LMSans10-Regular-2e"/>
       <use x="77.799973" xlink:href="#LMSans10-Regular-38"/>
      </g>
     </g>
    </g>
    <g id="xtick_3">
     <g id="line2d_3">
      <g>
       <use style="fill:#808080;stroke:#808080;" x="243.367021" xlink:href="#mc36eee1727" y="379.70577"/>
      </g>
     </g>
     <g id="text_3">
      <!-- 9.0 -->
      <g transform="translate(234.42124 395.922645)scale(0.14 -0.14)">
       <defs>
        <path d="M 2925 2144 
C 2925 3936 2163 4339 1619 4339 
C 1171 4339 909 4147 685 3910 
C 282 3475 269 3053 269 2778 
C 269 1958 691 1242 1306 1242 
C 1702 1242 2112 1427 2387 1773 
C 2317 742 1824 250 1318 250 
C 1101 250 890 301 659 493 
L 461 154 
C 678 -6 915 -141 1312 -141 
C 2150 -141 2925 749 2925 2144 
z
M 2374 2630 
C 2374 2106 2061 1632 1555 1632 
C 1254 1632 1075 1779 941 2016 
C 800 2266 794 2502 794 2778 
C 794 3059 800 3322 979 3603 
C 1107 3789 1286 3968 1619 3968 
C 2246 3968 2355 3098 2368 2784 
C 2374 2739 2374 2675 2374 2630 
z
" id="LMSans10-Regular-39" transform="scale(0.015625)"/>
        <path d="M 2925 2086 
C 2925 2592 2899 3187 2630 3706 
C 2368 4186 1926 4339 1600 4339 
C 1222 4339 774 4166 512 3597 
C 301 3130 269 2598 269 2086 
C 269 1581 294 1114 486 646 
C 742 32 1229 -141 1594 -141 
C 2061 -141 2464 122 2669 563 
C 2861 979 2925 1402 2925 2086 
z
M 2426 2163 
C 2426 1741 2426 1338 2310 934 
C 2144 352 1805 250 1600 250 
C 1267 250 1005 493 877 954 
C 774 1318 768 1664 768 2163 
C 768 2566 768 2950 877 3302 
C 915 3424 1075 3949 1594 3949 
C 2093 3949 2259 3462 2304 3347 
C 2426 2989 2426 2560 2426 2163 
z
" id="LMSans10-Regular-30" transform="scale(0.015625)"/>
       </defs>
       <use xlink:href="#LMSans10-Regular-39"/>
       <use x="49.999985" xlink:href="#LMSans10-Regular-2e"/>
       <use x="77.799973" xlink:href="#LMSans10-Regular-30"/>
      </g>
     </g>
    </g>
    <g id="xtick_4">
     <g id="line2d_4">
      <g>
       <use style="fill:#808080;stroke:#808080;" x="349.183278" xlink:href="#mc36eee1727" y="379.70577"/>
      </g>
     </g>
     <g id="text_4">
      <!-- 9.2 -->
      <g transform="translate(340.237497 395.922645)scale(0.14 -0.14)">
       <defs>
        <path d="M 2874 0 
L 2874 454 
L 1709 454 
C 1632 454 1555 448 1478 448 
L 781 448 
C 986 627 1472 1107 1670 1293 
C 1792 1408 2118 1677 2240 1792 
C 2528 2080 2874 2419 2874 2963 
C 2874 3699 2355 4339 1510 4339 
C 781 4339 422 3840 269 3290 
C 346 3181 378 3142 390 3123 
C 403 3110 467 3027 531 2938 
C 659 3430 838 3930 1421 3930 
C 2022 3930 2349 3450 2349 2950 
C 2349 2406 1984 2042 1606 1658 
L 1114 1203 
L 320 410 
L 320 0 
L 2874 0 
z
" id="LMSans10-Regular-32" transform="scale(0.015625)"/>
       </defs>
       <use xlink:href="#LMSans10-Regular-39"/>
       <use x="49.999985" xlink:href="#LMSans10-Regular-2e"/>
       <use x="77.799973" xlink:href="#LMSans10-Regular-32"/>
      </g>
     </g>
    </g>
    <g id="xtick_5">
     <g id="line2d_5">
      <g>
       <use style="fill:#808080;stroke:#808080;" x="454.999536" xlink:href="#mc36eee1727" y="379.70577"/>
      </g>
     </g>
     <g id="text_5">
      <!-- 9.4 -->
      <g transform="translate(446.053755 395.922645)scale(0.14 -0.14)">
       <defs>
        <path d="M 3014 1094 
L 3014 1485 
L 2381 1485 
L 2381 4198 
L 1798 4198 
L 179 1485 
L 179 1094 
L 1875 1094 
L 1875 0 
L 2381 0 
L 2381 1094 
L 3014 1094 
z
M 1914 1485 
L 678 1485 
C 1011 2035 1907 3552 1914 3917 
L 1914 1485 
z
" id="LMSans10-Regular-34" transform="scale(0.015625)"/>
       </defs>
       <use xlink:href="#LMSans10-Regular-39"/>
       <use x="49.999985" xlink:href="#LMSans10-Regular-2e"/>
       <use x="77.799973" xlink:href="#LMSans10-Regular-34"/>
      </g>
     </g>
    </g>
   </g>
   <g id="matplotlib.axis_2"/>
   <g id="line2d_6">
    <path clip-path="url(#p4e34565bff)" d="M 30.910025 360.958503 
L 37.405923 360.830009 
L 42.973835 360.465467 
L 47.613762 359.92433 
L 51.325703 359.279258 
L 55.037644 358.427418 
L 59.677571 357.080769 
L 64.317498 355.498211 
L 71.74138 352.715405 
L 78.237278 350.260173 
L 94.013029 344.382442 
L 96.796985 343.034148 
L 99.580941 341.433218 
L 102.364897 339.514125 
L 104.220867 338.048158 
L 106.076838 336.404615 
L 108.860794 333.565934 
L 111.64475 330.320952 
L 114.428706 326.664852 
L 117.212662 322.581781 
L 119.996618 318.07072 
L 122.780574 313.183938 
L 125.56453 307.908661 
L 128.348486 302.253969 
L 132.060428 294.18621 
L 136.700354 283.393301 
L 145.052222 263.006574 
L 150.620134 249.37678 
L 156.188046 236.281094 
L 161.755958 223.846063 
L 171.963797 201.191664 
L 175.675739 192.251029 
L 178.459695 185.171093 
L 182.171636 175.085963 
L 184.955592 167.027938 
L 189.595519 152.903791 
L 200.731343 117.935362 
L 203.515299 109.831986 
L 206.299255 102.401623 
L 209.083211 95.771041 
L 211.867167 89.966515 
L 213.723138 86.624731 
L 215.579108 83.650013 
L 217.435079 81.011462 
L 219.29105 78.736219 
L 221.14702 76.748807 
L 223.002991 75.096702 
L 224.858962 73.682429 
L 227.642918 72.000613 
L 230.426874 70.646581 
L 234.138815 69.030186 
L 237.850756 67.548933 
L 239.706727 66.670063 
L 242.490683 65.01016 
L 244.346654 63.680709 
L 246.202624 62.115576 
L 248.058595 60.271799 
L 249.914566 58.220464 
L 252.698522 54.713409 
L 255.482478 51.054019 
L 259.194419 46.252245 
L 261.05039 44.240855 
L 262.906361 42.510729 
L 264.762331 41.325205 
L 265.690317 40.897968 
L 266.618302 40.596327 
L 267.546287 40.45958 
L 269.402258 40.609707 
L 270.330243 40.912417 
L 271.258229 41.357738 
L 272.186214 41.980381 
L 273.114199 42.754001 
L 274.97017 44.668509 
L 276.826141 47.098523 
L 278.682111 49.878305 
L 280.538082 53.071283 
L 283.322038 58.317948 
L 287.033979 66.020525 
L 289.817936 72.145464 
L 294.457862 83.196798 
L 298.169804 92.825974 
L 301.881745 103.223213 
L 305.593686 114.344716 
L 311.161598 131.852419 
L 317.657496 152.215377 
L 323.225408 168.880133 
L 329.721305 187.285531 
L 337.145188 207.527849 
L 342.7131 222.152615 
L 347.353027 233.823867 
L 351.992953 244.801531 
L 355.704895 252.986482 
L 359.416836 260.754202 
L 369.624675 281.12031 
L 380.760499 302.967247 
L 384.47244 309.798022 
L 388.184382 316.214327 
L 390.968338 320.691248 
L 394.680279 326.141518 
L 397.464235 329.867303 
L 400.248191 333.266609 
L 403.032147 336.302863 
L 405.816103 339.046061 
L 408.600059 341.458219 
L 411.384015 343.579299 
L 414.167971 345.444456 
L 417.879913 347.65524 
L 421.591854 349.583113 
L 426.231781 351.717438 
L 431.799693 353.912895 
L 436.439619 355.464383 
L 441.079546 356.725909 
L 445.719473 357.687941 
L 450.359399 358.390523 
L 455.927311 358.977536 
L 460.567238 359.313115 
L 480.982916 360.740243 
L 493.046725 361.735998 
L 498.614637 361.99128 
L 505.110535 362.107077 
L 505.110535 362.107077 
" style="fill:none;stroke:#1f77b4;stroke-linecap:square;stroke-width:1.5;"/>
   </g>
   <g id="line2d_7">
    <path clip-path="url(#p4e34565bff)" d="M 129.379333 356.766266 
L 377.53554 356.766266 
" style="fill:none;stroke:#000000;stroke-width:3;"/>
   </g>
   <g id="patch_3">
    <path d="M 7.2 379.70577 
L 528.82056 379.70577 
" style="fill:none;stroke:#808080;stroke-linecap:square;stroke-linejoin:miter;stroke-width:0.8;"/>
   </g>
   <g id="text_6">
    <!-- 8.8  -->
    <g transform="translate(105.215271 339.803956)scale(0.15 -0.15)">
     <defs>
      <path id="LMSans10-Regular-20" transform="scale(0.015625)"/>
     </defs>
     <use xlink:href="#LMSans10-Regular-38"/>
     <use x="49.999985" xlink:href="#LMSans10-Regular-2e"/>
     <use x="77.799973" xlink:href="#LMSans10-Regular-38"/>
     <use x="127.799957" xlink:href="#LMSans10-Regular-20"/>
    </g>
   </g>
   <g id="text_7">
    <!--  9.3 -->
    <g transform="translate(377.53554 339.803956)scale(0.15 -0.15)">
     <defs>
      <path d="M 2925 1152 
C 2925 1734 2477 2131 2042 2266 
C 2528 2528 2752 2963 2752 3366 
C 2752 3917 2221 4339 1587 4339 
C 1094 4339 627 4083 358 3635 
L 589 3290 
C 774 3738 1190 3968 1581 3968 
C 1914 3968 2227 3776 2227 3366 
C 2227 2976 1965 2598 1574 2509 
C 1536 2502 1523 2502 1069 2464 
L 1069 2074 
L 1523 2074 
C 2214 2074 2355 1478 2355 1158 
C 2355 659 2061 250 1568 250 
C 1126 250 621 474 339 909 
L 269 525 
C 736 -77 1325 -141 1581 -141 
C 2362 -141 2925 480 2925 1152 
z
" id="LMSans10-Regular-33" transform="scale(0.015625)"/>
     </defs>
     <use xlink:href="#LMSans10-Regular-20"/>
     <use x="33.299988" xlink:href="#LMSans10-Regular-39"/>
     <use x="83.299973" xlink:href="#LMSans10-Regular-2e"/>
     <use x="111.09996" xlink:href="#LMSans10-Regular-33"/>
    </g>
   </g>
   <g id="text_8">
    <!-- 94% HDI -->
    <g transform="translate(224.40314 261.777333)scale(0.15 -0.15)">
     <defs>
      <path d="M 2131 3507 
C 2131 4275 1702 4800 1254 4800 
C 787 4800 358 4262 358 3514 
C 358 2746 800 2221 1254 2221 
C 1709 2221 2131 2765 2131 3507 
z
M 4218 4672 
C 4218 4742 4160 4800 4090 4800 
C 4013 4800 3981 4736 3955 4698 
L 1171 -115 
C 1171 -115 1126 -186 1126 -230 
C 1126 -301 1190 -358 1254 -358 
C 1325 -358 1357 -314 1389 -256 
L 4166 4557 
C 4218 4634 4218 4646 4218 4672 
z
M 4966 928 
C 4966 1696 4538 2221 4090 2221 
C 3622 2221 3194 1683 3194 934 
C 3194 166 3635 -358 4090 -358 
C 4544 -358 4966 186 4966 928 
z
M 1690 3514 
C 1690 3021 1504 2611 1254 2611 
C 1184 2611 838 2630 838 3507 
C 838 4358 1165 4410 1254 4410 
C 1510 4410 1690 3981 1690 3514 
z
M 4525 934 
C 4525 442 4339 32 4090 32 
C 4019 32 3674 51 3674 928 
C 3674 1779 4000 1830 4090 1830 
C 4346 1830 4525 1402 4525 934 
z
" id="LMSans10-Regular-25" transform="scale(0.015625)"/>
      <path d="M 3923 0 
L 3923 4442 
L 3354 4442 
L 3354 2502 
L 1171 2502 
L 1171 4442 
L 602 4442 
L 602 0 
L 1171 0 
L 1171 2112 
L 3354 2112 
L 3354 0 
L 3923 0 
z
" id="LMSans10-Regular-48" transform="scale(0.015625)"/>
      <path d="M 4256 2182 
C 4256 3424 3392 4442 2291 4442 
L 614 4442 
L 614 0 
L 2298 0 
C 3386 0 4256 973 4256 2182 
z
M 3706 2182 
C 3706 1094 3040 358 2144 358 
L 1165 358 
L 1165 4083 
L 2144 4083 
C 3040 4083 3706 3309 3706 2182 
z
" id="LMSans10-Regular-44" transform="scale(0.015625)"/>
      <path d="M 1171 0 
L 1171 4442 
L 602 4442 
L 602 0 
L 1171 0 
z
" id="LMSans10-Regular-49" transform="scale(0.015625)"/>
     </defs>
     <use xlink:href="#LMSans10-Regular-39"/>
     <use x="49.999985" xlink:href="#LMSans10-Regular-34"/>
     <use x="99.999969" xlink:href="#LMSans10-Regular-25"/>
     <use x="183.299957" xlink:href="#LMSans10-Regular-20"/>
     <use x="216.599945" xlink:href="#LMSans10-Regular-48"/>
     <use x="287.399933" xlink:href="#LMSans10-Regular-44"/>
     <use x="359.599915" xlink:href="#LMSans10-Regular-49"/>
    </g>
   </g>
   <g id="text_9">
    <!-- mean=9 -->
    <g transform="translate(227.16958 92.154238)scale(0.15 -0.15)">
     <defs>
      <path d="M 4563 0 
L 4563 1907 
C 4563 2336 4461 2912 3686 2912 
C 3302 2912 2970 2733 2733 2387 
C 2566 2874 2118 2912 1914 2912 
C 1453 2912 1152 2650 979 2419 
L 979 2880 
L 518 2880 
L 518 0 
L 1018 0 
L 1018 1568 
C 1018 2003 1190 2522 1664 2522 
C 2259 2522 2291 2106 2291 1862 
L 2291 0 
L 2790 0 
L 2790 1568 
C 2790 2003 2963 2522 3437 2522 
C 4032 2522 4064 2106 4064 1862 
L 4064 0 
L 4563 0 
z
" id="LMSans10-Regular-6d" transform="scale(0.015625)"/>
      <path d="M 2650 1402 
C 2650 1619 2643 2099 2394 2483 
C 2131 2880 1741 2950 1510 2950 
C 800 2950 224 2272 224 1446 
C 224 602 838 -70 1606 -70 
C 2010 -70 2374 83 2624 262 
L 2586 678 
C 2182 346 1760 320 1613 320 
C 1101 320 691 774 672 1402 
L 2650 1402 
z
M 2285 1754 
L 704 1754 
C 806 2240 1146 2560 1510 2560 
C 1843 2560 2202 2342 2285 1754 
z
" id="LMSans10-Regular-65" transform="scale(0.015625)"/>
      <path d="M 2618 0 
L 2618 1850 
C 2618 2502 2150 2950 1562 2950 
C 1146 2950 858 2848 557 2675 
L 595 2253 
C 928 2490 1248 2573 1562 2573 
C 1862 2573 2118 2317 2118 1843 
L 2118 1568 
C 1158 1555 346 1286 346 723 
C 346 448 518 -70 1075 -70 
C 1165 -70 1766 -58 2138 230 
L 2138 0 
L 2618 0 
z
M 2118 845 
C 2118 723 2118 563 1901 442 
C 1715 326 1472 320 1402 320 
C 1094 320 806 467 806 736 
C 806 1184 1843 1229 2118 1242 
L 2118 845 
z
" id="LMSans10-Regular-61" transform="scale(0.015625)"/>
      <path d="M 2784 0 
L 2784 1907 
C 2784 2330 2688 2912 1907 2912 
C 1331 2912 1018 2477 979 2426 
L 979 2880 
L 518 2880 
L 518 0 
L 1018 0 
L 1018 1568 
C 1018 1990 1178 2522 1664 2522 
C 2278 2522 2285 2067 2285 1862 
L 2285 0 
L 2784 0 
z
" id="LMSans10-Regular-6e" transform="scale(0.015625)"/>
      <path d="M 4614 2240 
C 4614 2368 4493 2368 4403 2368 
L 570 2368 
C 480 2368 358 2368 358 2240 
C 358 2112 480 2112 576 2112 
L 4397 2112 
C 4493 2112 4614 2112 4614 2240 
z
M 4614 960 
C 4614 1088 4493 1088 4397 1088 
L 576 1088 
C 480 1088 358 1088 358 960 
C 358 832 480 832 570 832 
L 4403 832 
C 4493 832 4614 832 4614 960 
z
" id="LMSans10-Regular-3d" transform="scale(0.015625)"/>
     </defs>
     <use xlink:href="#LMSans10-Regular-6d"/>
     <use x="79.399994" xlink:href="#LMSans10-Regular-65"/>
     <use x="123.799988" xlink:href="#LMSans10-Regular-61"/>
     <use x="171.899979" xlink:href="#LMSans10-Regular-6e"/>
     <use x="223.599976" xlink:href="#LMSans10-Regular-3d"/>
     <use x="301.399963" xlink:href="#LMSans10-Regular-39"/>
    </g>
   </g>
   <g id="text_10">
    <!-- lbda -->
    <g transform="translate(253.97778 18.305)scale(0.16 -0.16)">
     <defs>
      <path d="M 998 0 
L 998 4442 
L 518 4442 
L 518 0 
L 998 0 
z
" id="LMSans10-Regular-6c" transform="scale(0.015625)"/>
      <path d="M 3072 1427 
C 3072 2221 2637 2912 2035 2912 
C 1786 2912 1389 2848 1005 2534 
L 1005 4442 
L 525 4442 
L 525 0 
L 1024 0 
L 1024 294 
C 1178 154 1453 -70 1882 -70 
C 2522 -70 3072 570 3072 1427 
z
M 2573 1427 
C 2573 595 2035 320 1645 320 
C 1395 320 1184 435 1024 730 
L 1024 2144 
C 1126 2298 1357 2522 1709 2522 
C 2086 2522 2573 2246 2573 1427 
z
" id="LMSans10-Regular-62" transform="scale(0.015625)"/>
      <path d="M 2778 0 
L 2778 4442 
L 2298 4442 
L 2298 2560 
C 1958 2842 1600 2912 1363 2912 
C 730 2912 230 2246 230 1421 
C 230 582 723 -70 1331 -70 
C 1542 -70 1920 -13 2278 333 
L 2278 0 
L 2778 0 
z
M 2278 890 
C 2278 800 2272 685 2067 499 
C 1920 371 1760 320 1594 320 
C 1197 320 730 621 730 1414 
C 730 2259 1280 2522 1658 2522 
C 1946 2522 2138 2374 2278 2170 
L 2278 890 
z
" id="LMSans10-Regular-64" transform="scale(0.015625)"/>
     </defs>
     <use xlink:href="#LMSans10-Regular-6c"/>
     <use x="23.899994" xlink:href="#LMSans10-Regular-62"/>
     <use x="75.599991" xlink:href="#LMSans10-Regular-64"/>
     <use x="127.299988" xlink:href="#LMSans10-Regular-61"/>
    </g>
   </g>
  </g>
  <g id="axes_2">
   <g id="patch_4">
    <path d="M 539.41896 379.70577 
L 1061.03952 379.70577 
L 1061.03952 24.305 
L 539.41896 24.305 
z
" style="fill:#ffffff;"/>
   </g>
   <g id="PolyCollection_2">
    <defs>
     <path d="M 563.128985 -42.28833 
L 563.128985 -43.614926 
L 564.056971 -43.619561 
L 564.984956 -43.628887 
L 565.912941 -43.643011 
L 566.840927 -43.662808 
L 567.768912 -43.685528 
L 568.696897 -43.724599 
L 569.624883 -43.764351 
L 570.552868 -43.811065 
L 571.480854 -43.865096 
L 572.408839 -43.923825 
L 573.336824 -43.993355 
L 574.26481 -44.070257 
L 575.192795 -44.151738 
L 576.12078 -44.241418 
L 577.048766 -44.345788 
L 577.976751 -44.454527 
L 578.904736 -44.574039 
L 579.832722 -44.701861 
L 580.760707 -44.833993 
L 581.688692 -44.972132 
L 582.616678 -45.119305 
L 583.544663 -45.268249 
L 584.472648 -45.421093 
L 585.400634 -45.580612 
L 586.328619 -45.743026 
L 587.256604 -45.914876 
L 588.18459 -46.082338 
L 589.112575 -46.250587 
L 590.04056 -46.4263 
L 590.968546 -46.599543 
L 591.896531 -46.76926 
L 592.824516 -46.938068 
L 593.752502 -47.102056 
L 594.680487 -47.271323 
L 595.608472 -47.447506 
L 596.536458 -47.614275 
L 597.464443 -47.784631 
L 598.392428 -47.948956 
L 599.320414 -48.117443 
L 600.248399 -48.29165 
L 601.176384 -48.46971 
L 602.10437 -48.652832 
L 603.032355 -48.857076 
L 603.96034 -49.058559 
L 604.888326 -49.267731 
L 605.816311 -49.492004 
L 606.744296 -49.733031 
L 607.672282 -49.98226 
L 608.600267 -50.25445 
L 609.528252 -50.545349 
L 610.456238 -50.856556 
L 611.384223 -51.185887 
L 612.312209 -51.537539 
L 613.240194 -51.927339 
L 614.168179 -52.326503 
L 615.096165 -52.754175 
L 616.02415 -53.219021 
L 616.952135 -53.705586 
L 617.880121 -54.220142 
L 618.808106 -54.766521 
L 619.736091 -55.327099 
L 620.664077 -55.931463 
L 621.592062 -56.553521 
L 622.520047 -57.208712 
L 623.448033 -57.897751 
L 624.376018 -58.603064 
L 625.304003 -59.332402 
L 626.231989 -60.091856 
L 627.159974 -60.86701 
L 628.087959 -61.669676 
L 629.015945 -62.489683 
L 629.94393 -63.321174 
L 630.871915 -64.178642 
L 631.799901 -65.044438 
L 632.727886 -65.927224 
L 633.655871 -66.830615 
L 634.583857 -67.735746 
L 635.511842 -68.671401 
L 636.439827 -69.605213 
L 637.367813 -70.559853 
L 638.295798 -71.506912 
L 639.223783 -72.467669 
L 640.151769 -73.424629 
L 641.079754 -74.393241 
L 642.007739 -75.386313 
L 642.935725 -76.388787 
L 643.86371 -77.385911 
L 644.791695 -78.386182 
L 645.719681 -79.422368 
L 646.647666 -80.439191 
L 647.575651 -81.474884 
L 648.503637 -82.510494 
L 649.431622 -83.559942 
L 650.359607 -84.635792 
L 651.287593 -85.713548 
L 652.215578 -86.799257 
L 653.143564 -87.927402 
L 654.071549 -89.050035 
L 654.999534 -90.214189 
L 655.92752 -91.396052 
L 656.855505 -92.592294 
L 657.78349 -93.813152 
L 658.711476 -95.048842 
L 659.639461 -96.313409 
L 660.567446 -97.604675 
L 661.495432 -98.919653 
L 662.423417 -100.259554 
L 663.351402 -101.62325 
L 664.279388 -103.00133 
L 665.207373 -104.39934 
L 666.135358 -105.815955 
L 667.063344 -107.252612 
L 667.991329 -108.705506 
L 668.919314 -110.18474 
L 669.8473 -111.67053 
L 670.775285 -113.184876 
L 671.70327 -114.706151 
L 672.631256 -116.225889 
L 673.559241 -117.784675 
L 674.487226 -119.331444 
L 675.415212 -120.896449 
L 676.343197 -122.458827 
L 677.271182 -124.038853 
L 678.199168 -125.649232 
L 679.127153 -127.257373 
L 680.055138 -128.870337 
L 680.983124 -130.531241 
L 681.911109 -132.197732 
L 682.839094 -133.885608 
L 683.76708 -135.591002 
L 684.695065 -137.315201 
L 685.62305 -139.054877 
L 686.551036 -140.832108 
L 687.479021 -142.651563 
L 688.407006 -144.506399 
L 689.334992 -146.399965 
L 690.262977 -148.359788 
L 691.190962 -150.35362 
L 692.118948 -152.367737 
L 693.046933 -154.467413 
L 693.974918 -156.614164 
L 694.902904 -158.796374 
L 695.830889 -161.032232 
L 696.758875 -163.328432 
L 697.68686 -165.690772 
L 698.614845 -168.084435 
L 699.542831 -170.551537 
L 700.470816 -173.068114 
L 701.398801 -175.632572 
L 702.326787 -178.29521 
L 703.254772 -180.9743 
L 704.182757 -183.67962 
L 705.110743 -186.428638 
L 706.038728 -189.210447 
L 706.966713 -192.05945 
L 707.894699 -194.914441 
L 708.822684 -197.814845 
L 709.750669 -200.734882 
L 710.678655 -203.676548 
L 711.60664 -206.655748 
L 712.534625 -209.64862 
L 713.462611 -212.64384 
L 714.390596 -215.688031 
L 715.318581 -218.687842 
L 716.246567 -221.686085 
L 717.174552 -224.717329 
L 718.102537 -227.69954 
L 719.030523 -230.716598 
L 719.958508 -233.693954 
L 720.886493 -236.68156 
L 721.814479 -239.672703 
L 722.742464 -242.620945 
L 723.670449 -245.579976 
L 724.598435 -248.494554 
L 725.52642 -251.388269 
L 726.454405 -254.309773 
L 727.382391 -257.184248 
L 728.310376 -260.024429 
L 729.238361 -262.861768 
L 730.166347 -265.676915 
L 731.094332 -268.469792 
L 732.022317 -271.191791 
L 732.950303 -273.883252 
L 733.878288 -276.565183 
L 734.806273 -279.204197 
L 735.734259 -281.78125 
L 736.662244 -284.355197 
L 737.59023 -286.854903 
L 738.518215 -289.317891 
L 739.4462 -291.740627 
L 740.374186 -294.12869 
L 741.302171 -296.47868 
L 742.230156 -298.77007 
L 743.158142 -301.052981 
L 744.086127 -303.237017 
L 745.014112 -305.343851 
L 745.942098 -307.417175 
L 746.870083 -309.469275 
L 747.798068 -311.452129 
L 748.726054 -313.392034 
L 749.654039 -315.248099 
L 750.582024 -317.041257 
L 751.51001 -318.802555 
L 752.437995 -320.491097 
L 753.36598 -322.117852 
L 754.293966 -323.703096 
L 755.221951 -325.246991 
L 756.149936 -326.719839 
L 757.077922 -328.164263 
L 758.005907 -329.589707 
L 758.933892 -331.003744 
L 759.861878 -332.324502 
L 760.789863 -333.594072 
L 761.717848 -334.864237 
L 762.645834 -336.145393 
L 763.573819 -337.337382 
L 764.501804 -338.515539 
L 765.42979 -339.652938 
L 766.357775 -340.794248 
L 767.28576 -341.91499 
L 768.213746 -343.008354 
L 769.141731 -344.062644 
L 770.069716 -345.093917 
L 770.997702 -346.111145 
L 771.925687 -347.135053 
L 772.853672 -348.109594 
L 773.781658 -349.07984 
L 774.709643 -350.051322 
L 775.637628 -350.96801 
L 776.565614 -351.885084 
L 777.493599 -352.806694 
L 778.421584 -353.70012 
L 779.34957 -354.548457 
L 780.277555 -355.372048 
L 781.205541 -356.184347 
L 782.133526 -356.971959 
L 783.061511 -357.772369 
L 783.989497 -358.533136 
L 784.917482 -359.219716 
L 785.845467 -359.894578 
L 786.773453 -360.558977 
L 787.701438 -361.172195 
L 788.629423 -361.765104 
L 789.557409 -362.296787 
L 790.485394 -362.8354 
L 791.413379 -363.282552 
L 792.341365 -363.711229 
L 793.26935 -364.094097 
L 794.197335 -364.408076 
L 795.125321 -364.689633 
L 796.053306 -364.932944 
L 796.981291 -365.108112 
L 797.909277 -365.255514 
L 798.837262 -365.347157 
L 799.765247 -365.37994 
L 800.693233 -365.353728 
L 801.621218 -365.245458 
L 802.549203 -365.097608 
L 803.477189 -364.876152 
L 804.405174 -364.554755 
L 805.333159 -364.204773 
L 806.261145 -363.764035 
L 807.18913 -363.235326 
L 808.117115 -362.659325 
L 809.045101 -361.98395 
L 809.973086 -361.249412 
L 810.901071 -360.424449 
L 811.829057 -359.542417 
L 812.757042 -358.534488 
L 813.685027 -357.44549 
L 814.613013 -356.306655 
L 815.540998 -355.067593 
L 816.468983 -353.692524 
L 817.396969 -352.243906 
L 818.324954 -350.740989 
L 819.252939 -349.131213 
L 820.180925 -347.40492 
L 821.10891 -345.60662 
L 822.036896 -343.714206 
L 822.964881 -341.747375 
L 823.892866 -339.664257 
L 824.820852 -337.519082 
L 825.748837 -335.260981 
L 826.676822 -333.002228 
L 827.604808 -330.696937 
L 828.532793 -328.312268 
L 829.460778 -325.86428 
L 830.388764 -323.377699 
L 831.316749 -320.86947 
L 832.244734 -318.360076 
L 833.17272 -315.820054 
L 834.100705 -313.268483 
L 835.02869 -310.735041 
L 835.956676 -308.228286 
L 836.884661 -305.730969 
L 837.812646 -303.246202 
L 838.740632 -300.803765 
L 839.668617 -298.402666 
L 840.596602 -296.010717 
L 841.524588 -293.655245 
L 842.452573 -291.39763 
L 843.380558 -289.183514 
L 844.308544 -286.98892 
L 845.236529 -284.825835 
L 846.164514 -282.74443 
L 847.0925 -280.695788 
L 848.020485 -278.711646 
L 848.94847 -276.725806 
L 849.876456 -274.775593 
L 850.804441 -272.846461 
L 851.732426 -270.944951 
L 852.660412 -269.058691 
L 853.588397 -267.143066 
L 854.516382 -265.203222 
L 855.444368 -263.269647 
L 856.372353 -261.310569 
L 857.300338 -259.314478 
L 858.228324 -257.276025 
L 859.156309 -255.201275 
L 860.084294 -253.056655 
L 861.01228 -250.867553 
L 861.940265 -248.654667 
L 862.86825 -246.361169 
L 863.796236 -244.018052 
L 864.724221 -241.615529 
L 865.652207 -239.115153 
L 866.580192 -236.575301 
L 867.508177 -234.006517 
L 868.436163 -231.386563 
L 869.364148 -228.71768 
L 870.292133 -225.999853 
L 871.220119 -223.223093 
L 872.148104 -220.413302 
L 873.076089 -217.58274 
L 874.004075 -214.743605 
L 874.93206 -211.875665 
L 875.860045 -208.993606 
L 876.788031 -206.112696 
L 877.716016 -203.22762 
L 878.644001 -200.345838 
L 879.571987 -197.479454 
L 880.499972 -194.655866 
L 881.427957 -191.849139 
L 882.355943 -189.05318 
L 883.283928 -186.309464 
L 884.211913 -183.589594 
L 885.139899 -180.903976 
L 886.067884 -178.257152 
L 886.995869 -175.667084 
L 887.923855 -173.116359 
L 888.85184 -170.580962 
L 889.779825 -168.121684 
L 890.707811 -165.685698 
L 891.635796 -163.277988 
L 892.563781 -160.924804 
L 893.491767 -158.614216 
L 894.419752 -156.334116 
L 895.347737 -154.113337 
L 896.275723 -151.934291 
L 897.203708 -149.763319 
L 898.131693 -147.63733 
L 899.059679 -145.556968 
L 899.987664 -143.487491 
L 900.915649 -141.405242 
L 901.843635 -139.358173 
L 902.77162 -137.372829 
L 903.699605 -135.380048 
L 904.627591 -133.424101 
L 905.555576 -131.463725 
L 906.483562 -129.55519 
L 907.411547 -127.645595 
L 908.339532 -125.761198 
L 909.267518 -123.879293 
L 910.195503 -122.021063 
L 911.123488 -120.193404 
L 912.051474 -118.370706 
L 912.979459 -116.581688 
L 913.907444 -114.801189 
L 914.83543 -113.048061 
L 915.763415 -111.32027 
L 916.6914 -109.596825 
L 917.619386 -107.907061 
L 918.547371 -106.229152 
L 919.475356 -104.596174 
L 920.403342 -102.99924 
L 921.331327 -101.427599 
L 922.259312 -99.883592 
L 923.187298 -98.370852 
L 924.115283 -96.90095 
L 925.043268 -95.459795 
L 925.971254 -94.066763 
L 926.899239 -92.731149 
L 927.827224 -91.427983 
L 928.75521 -90.173687 
L 929.683195 -88.971346 
L 930.61118 -87.796607 
L 931.539166 -86.683069 
L 932.467151 -85.613572 
L 933.395136 -84.594766 
L 934.323122 -83.626362 
L 935.251107 -82.683354 
L 936.179092 -81.810356 
L 937.107078 -80.975768 
L 938.035063 -80.178357 
L 938.963048 -79.421484 
L 939.891034 -78.717807 
L 940.819019 -78.053767 
L 941.747004 -77.404657 
L 942.67499 -76.799558 
L 943.602975 -76.208226 
L 944.53096 -75.634553 
L 945.458946 -75.084472 
L 946.386931 -74.535355 
L 947.314916 -73.988448 
L 948.242902 -73.465505 
L 949.170887 -72.954494 
L 950.098873 -72.432876 
L 951.026858 -71.911178 
L 951.954843 -71.390015 
L 952.882829 -70.863948 
L 953.810814 -70.324322 
L 954.738799 -69.775982 
L 955.666785 -69.193894 
L 956.59477 -68.617504 
L 957.522755 -68.028326 
L 958.450741 -67.42667 
L 959.378726 -66.81615 
L 960.306711 -66.197133 
L 961.234697 -65.561491 
L 962.162682 -64.91579 
L 963.090667 -64.262287 
L 964.018653 -63.605551 
L 964.946638 -62.950309 
L 965.874623 -62.300789 
L 966.802609 -61.651894 
L 967.730594 -61.008799 
L 968.658579 -60.373015 
L 969.586565 -59.734173 
L 970.51455 -59.104937 
L 971.442535 -58.499314 
L 972.370521 -57.898416 
L 973.298506 -57.307189 
L 974.226491 -56.73909 
L 975.154477 -56.187795 
L 976.082462 -55.641655 
L 977.010447 -55.108326 
L 977.938433 -54.597382 
L 978.866418 -54.092635 
L 979.794403 -53.616522 
L 980.722389 -53.136487 
L 981.650374 -52.682603 
L 982.578359 -52.249209 
L 983.506345 -51.828649 
L 984.43433 -51.417642 
L 985.362315 -51.023101 
L 986.290301 -50.648437 
L 987.218286 -50.270815 
L 988.146271 -49.909658 
L 989.074257 -49.563961 
L 990.002242 -49.232939 
L 990.930228 -48.913048 
L 991.858213 -48.604468 
L 992.786198 -48.304458 
L 993.714184 -48.010896 
L 994.642169 -47.736976 
L 995.570154 -47.47554 
L 996.49814 -47.227536 
L 997.426125 -46.993916 
L 998.35411 -46.780128 
L 999.282096 -46.572634 
L 1000.210081 -46.381901 
L 1001.138066 -46.204438 
L 1002.066052 -46.031461 
L 1002.994037 -45.876615 
L 1003.922022 -45.732958 
L 1004.850008 -45.612581 
L 1005.777993 -45.507237 
L 1006.705978 -45.410148 
L 1007.633964 -45.334949 
L 1008.561949 -45.262362 
L 1009.489934 -45.204438 
L 1010.41792 -45.150397 
L 1011.345905 -45.109791 
L 1012.27389 -45.07825 
L 1013.201876 -45.058014 
L 1014.129861 -45.044776 
L 1015.057846 -45.037874 
L 1015.985832 -45.036622 
L 1016.913817 -45.037354 
L 1017.841802 -45.045883 
L 1018.769788 -45.058566 
L 1019.697773 -45.06883 
L 1020.625758 -45.088386 
L 1021.553744 -45.109322 
L 1022.481729 -45.13185 
L 1023.409714 -45.149585 
L 1024.3377 -45.171476 
L 1025.265685 -45.193379 
L 1026.19367 -45.214888 
L 1027.121656 -45.238609 
L 1028.049641 -45.257714 
L 1028.977626 -45.278565 
L 1029.905612 -45.297357 
L 1030.833597 -45.313989 
L 1031.761583 -45.329098 
L 1032.689568 -45.342629 
L 1033.617553 -45.353833 
L 1034.545539 -45.359729 
L 1035.473524 -45.363857 
L 1036.401509 -45.369051 
L 1037.329495 -45.371643 
L 1037.329495 -42.28833 
L 1037.329495 -42.28833 
L 1036.401509 -42.28833 
L 1035.473524 -42.28833 
L 1034.545539 -42.28833 
L 1033.617553 -42.28833 
L 1032.689568 -42.28833 
L 1031.761583 -42.28833 
L 1030.833597 -42.28833 
L 1029.905612 -42.28833 
L 1028.977626 -42.28833 
L 1028.049641 -42.28833 
L 1027.121656 -42.28833 
L 1026.19367 -42.28833 
L 1025.265685 -42.28833 
L 1024.3377 -42.28833 
L 1023.409714 -42.28833 
L 1022.481729 -42.28833 
L 1021.553744 -42.28833 
L 1020.625758 -42.28833 
L 1019.697773 -42.28833 
L 1018.769788 -42.28833 
L 1017.841802 -42.28833 
L 1016.913817 -42.28833 
L 1015.985832 -42.28833 
L 1015.057846 -42.28833 
L 1014.129861 -42.28833 
L 1013.201876 -42.28833 
L 1012.27389 -42.28833 
L 1011.345905 -42.28833 
L 1010.41792 -42.28833 
L 1009.489934 -42.28833 
L 1008.561949 -42.28833 
L 1007.633964 -42.28833 
L 1006.705978 -42.28833 
L 1005.777993 -42.28833 
L 1004.850008 -42.28833 
L 1003.922022 -42.28833 
L 1002.994037 -42.28833 
L 1002.066052 -42.28833 
L 1001.138066 -42.28833 
L 1000.210081 -42.28833 
L 999.282096 -42.28833 
L 998.35411 -42.28833 
L 997.426125 -42.28833 
L 996.49814 -42.28833 
L 995.570154 -42.28833 
L 994.642169 -42.28833 
L 993.714184 -42.28833 
L 992.786198 -42.28833 
L 991.858213 -42.28833 
L 990.930228 -42.28833 
L 990.002242 -42.28833 
L 989.074257 -42.28833 
L 988.146271 -42.28833 
L 987.218286 -42.28833 
L 986.290301 -42.28833 
L 985.362315 -42.28833 
L 984.43433 -42.28833 
L 983.506345 -42.28833 
L 982.578359 -42.28833 
L 981.650374 -42.28833 
L 980.722389 -42.28833 
L 979.794403 -42.28833 
L 978.866418 -42.28833 
L 977.938433 -42.28833 
L 977.010447 -42.28833 
L 976.082462 -42.28833 
L 975.154477 -42.28833 
L 974.226491 -42.28833 
L 973.298506 -42.28833 
L 972.370521 -42.28833 
L 971.442535 -42.28833 
L 970.51455 -42.28833 
L 969.586565 -42.28833 
L 968.658579 -42.28833 
L 967.730594 -42.28833 
L 966.802609 -42.28833 
L 965.874623 -42.28833 
L 964.946638 -42.28833 
L 964.018653 -42.28833 
L 963.090667 -42.28833 
L 962.162682 -42.28833 
L 961.234697 -42.28833 
L 960.306711 -42.28833 
L 959.378726 -42.28833 
L 958.450741 -42.28833 
L 957.522755 -42.28833 
L 956.59477 -42.28833 
L 955.666785 -42.28833 
L 954.738799 -42.28833 
L 953.810814 -42.28833 
L 952.882829 -42.28833 
L 951.954843 -42.28833 
L 951.026858 -42.28833 
L 950.098873 -42.28833 
L 949.170887 -42.28833 
L 948.242902 -42.28833 
L 947.314916 -42.28833 
L 946.386931 -42.28833 
L 945.458946 -42.28833 
L 944.53096 -42.28833 
L 943.602975 -42.28833 
L 942.67499 -42.28833 
L 941.747004 -42.28833 
L 940.819019 -42.28833 
L 939.891034 -42.28833 
L 938.963048 -42.28833 
L 938.035063 -42.28833 
L 937.107078 -42.28833 
L 936.179092 -42.28833 
L 935.251107 -42.28833 
L 934.323122 -42.28833 
L 933.395136 -42.28833 
L 932.467151 -42.28833 
L 931.539166 -42.28833 
L 930.61118 -42.28833 
L 929.683195 -42.28833 
L 928.75521 -42.28833 
L 927.827224 -42.28833 
L 926.899239 -42.28833 
L 925.971254 -42.28833 
L 925.043268 -42.28833 
L 924.115283 -42.28833 
L 923.187298 -42.28833 
L 922.259312 -42.28833 
L 921.331327 -42.28833 
L 920.403342 -42.28833 
L 919.475356 -42.28833 
L 918.547371 -42.28833 
L 917.619386 -42.28833 
L 916.6914 -42.28833 
L 915.763415 -42.28833 
L 914.83543 -42.28833 
L 913.907444 -42.28833 
L 912.979459 -42.28833 
L 912.051474 -42.28833 
L 911.123488 -42.28833 
L 910.195503 -42.28833 
L 909.267518 -42.28833 
L 908.339532 -42.28833 
L 907.411547 -42.28833 
L 906.483562 -42.28833 
L 905.555576 -42.28833 
L 904.627591 -42.28833 
L 903.699605 -42.28833 
L 902.77162 -42.28833 
L 901.843635 -42.28833 
L 900.915649 -42.28833 
L 899.987664 -42.28833 
L 899.059679 -42.28833 
L 898.131693 -42.28833 
L 897.203708 -42.28833 
L 896.275723 -42.28833 
L 895.347737 -42.28833 
L 894.419752 -42.28833 
L 893.491767 -42.28833 
L 892.563781 -42.28833 
L 891.635796 -42.28833 
L 890.707811 -42.28833 
L 889.779825 -42.28833 
L 888.85184 -42.28833 
L 887.923855 -42.28833 
L 886.995869 -42.28833 
L 886.067884 -42.28833 
L 885.139899 -42.28833 
L 884.211913 -42.28833 
L 883.283928 -42.28833 
L 882.355943 -42.28833 
L 881.427957 -42.28833 
L 880.499972 -42.28833 
L 879.571987 -42.28833 
L 878.644001 -42.28833 
L 877.716016 -42.28833 
L 876.788031 -42.28833 
L 875.860045 -42.28833 
L 874.93206 -42.28833 
L 874.004075 -42.28833 
L 873.076089 -42.28833 
L 872.148104 -42.28833 
L 871.220119 -42.28833 
L 870.292133 -42.28833 
L 869.364148 -42.28833 
L 868.436163 -42.28833 
L 867.508177 -42.28833 
L 866.580192 -42.28833 
L 865.652207 -42.28833 
L 864.724221 -42.28833 
L 863.796236 -42.28833 
L 862.86825 -42.28833 
L 861.940265 -42.28833 
L 861.01228 -42.28833 
L 860.084294 -42.28833 
L 859.156309 -42.28833 
L 858.228324 -42.28833 
L 857.300338 -42.28833 
L 856.372353 -42.28833 
L 855.444368 -42.28833 
L 854.516382 -42.28833 
L 853.588397 -42.28833 
L 852.660412 -42.28833 
L 851.732426 -42.28833 
L 850.804441 -42.28833 
L 849.876456 -42.28833 
L 848.94847 -42.28833 
L 848.020485 -42.28833 
L 847.0925 -42.28833 
L 846.164514 -42.28833 
L 845.236529 -42.28833 
L 844.308544 -42.28833 
L 843.380558 -42.28833 
L 842.452573 -42.28833 
L 841.524588 -42.28833 
L 840.596602 -42.28833 
L 839.668617 -42.28833 
L 838.740632 -42.28833 
L 837.812646 -42.28833 
L 836.884661 -42.28833 
L 835.956676 -42.28833 
L 835.02869 -42.28833 
L 834.100705 -42.28833 
L 833.17272 -42.28833 
L 832.244734 -42.28833 
L 831.316749 -42.28833 
L 830.388764 -42.28833 
L 829.460778 -42.28833 
L 828.532793 -42.28833 
L 827.604808 -42.28833 
L 826.676822 -42.28833 
L 825.748837 -42.28833 
L 824.820852 -42.28833 
L 823.892866 -42.28833 
L 822.964881 -42.28833 
L 822.036896 -42.28833 
L 821.10891 -42.28833 
L 820.180925 -42.28833 
L 819.252939 -42.28833 
L 818.324954 -42.28833 
L 817.396969 -42.28833 
L 816.468983 -42.28833 
L 815.540998 -42.28833 
L 814.613013 -42.28833 
L 813.685027 -42.28833 
L 812.757042 -42.28833 
L 811.829057 -42.28833 
L 810.901071 -42.28833 
L 809.973086 -42.28833 
L 809.045101 -42.28833 
L 808.117115 -42.28833 
L 807.18913 -42.28833 
L 806.261145 -42.28833 
L 805.333159 -42.28833 
L 804.405174 -42.28833 
L 803.477189 -42.28833 
L 802.549203 -42.28833 
L 801.621218 -42.28833 
L 800.693233 -42.28833 
L 799.765247 -42.28833 
L 798.837262 -42.28833 
L 797.909277 -42.28833 
L 796.981291 -42.28833 
L 796.053306 -42.28833 
L 795.125321 -42.28833 
L 794.197335 -42.28833 
L 793.26935 -42.28833 
L 792.341365 -42.28833 
L 791.413379 -42.28833 
L 790.485394 -42.28833 
L 789.557409 -42.28833 
L 788.629423 -42.28833 
L 787.701438 -42.28833 
L 786.773453 -42.28833 
L 785.845467 -42.28833 
L 784.917482 -42.28833 
L 783.989497 -42.28833 
L 783.061511 -42.28833 
L 782.133526 -42.28833 
L 781.205541 -42.28833 
L 780.277555 -42.28833 
L 779.34957 -42.28833 
L 778.421584 -42.28833 
L 777.493599 -42.28833 
L 776.565614 -42.28833 
L 775.637628 -42.28833 
L 774.709643 -42.28833 
L 773.781658 -42.28833 
L 772.853672 -42.28833 
L 771.925687 -42.28833 
L 770.997702 -42.28833 
L 770.069716 -42.28833 
L 769.141731 -42.28833 
L 768.213746 -42.28833 
L 767.28576 -42.28833 
L 766.357775 -42.28833 
L 765.42979 -42.28833 
L 764.501804 -42.28833 
L 763.573819 -42.28833 
L 762.645834 -42.28833 
L 761.717848 -42.28833 
L 760.789863 -42.28833 
L 759.861878 -42.28833 
L 758.933892 -42.28833 
L 758.005907 -42.28833 
L 757.077922 -42.28833 
L 756.149936 -42.28833 
L 755.221951 -42.28833 
L 754.293966 -42.28833 
L 753.36598 -42.28833 
L 752.437995 -42.28833 
L 751.51001 -42.28833 
L 750.582024 -42.28833 
L 749.654039 -42.28833 
L 748.726054 -42.28833 
L 747.798068 -42.28833 
L 746.870083 -42.28833 
L 745.942098 -42.28833 
L 745.014112 -42.28833 
L 744.086127 -42.28833 
L 743.158142 -42.28833 
L 742.230156 -42.28833 
L 741.302171 -42.28833 
L 740.374186 -42.28833 
L 739.4462 -42.28833 
L 738.518215 -42.28833 
L 737.59023 -42.28833 
L 736.662244 -42.28833 
L 735.734259 -42.28833 
L 734.806273 -42.28833 
L 733.878288 -42.28833 
L 732.950303 -42.28833 
L 732.022317 -42.28833 
L 731.094332 -42.28833 
L 730.166347 -42.28833 
L 729.238361 -42.28833 
L 728.310376 -42.28833 
L 727.382391 -42.28833 
L 726.454405 -42.28833 
L 725.52642 -42.28833 
L 724.598435 -42.28833 
L 723.670449 -42.28833 
L 722.742464 -42.28833 
L 721.814479 -42.28833 
L 720.886493 -42.28833 
L 719.958508 -42.28833 
L 719.030523 -42.28833 
L 718.102537 -42.28833 
L 717.174552 -42.28833 
L 716.246567 -42.28833 
L 715.318581 -42.28833 
L 714.390596 -42.28833 
L 713.462611 -42.28833 
L 712.534625 -42.28833 
L 711.60664 -42.28833 
L 710.678655 -42.28833 
L 709.750669 -42.28833 
L 708.822684 -42.28833 
L 707.894699 -42.28833 
L 706.966713 -42.28833 
L 706.038728 -42.28833 
L 705.110743 -42.28833 
L 704.182757 -42.28833 
L 703.254772 -42.28833 
L 702.326787 -42.28833 
L 701.398801 -42.28833 
L 700.470816 -42.28833 
L 699.542831 -42.28833 
L 698.614845 -42.28833 
L 697.68686 -42.28833 
L 696.758875 -42.28833 
L 695.830889 -42.28833 
L 694.902904 -42.28833 
L 693.974918 -42.28833 
L 693.046933 -42.28833 
L 692.118948 -42.28833 
L 691.190962 -42.28833 
L 690.262977 -42.28833 
L 689.334992 -42.28833 
L 688.407006 -42.28833 
L 687.479021 -42.28833 
L 686.551036 -42.28833 
L 685.62305 -42.28833 
L 684.695065 -42.28833 
L 683.76708 -42.28833 
L 682.839094 -42.28833 
L 681.911109 -42.28833 
L 680.983124 -42.28833 
L 680.055138 -42.28833 
L 679.127153 -42.28833 
L 678.199168 -42.28833 
L 677.271182 -42.28833 
L 676.343197 -42.28833 
L 675.415212 -42.28833 
L 674.487226 -42.28833 
L 673.559241 -42.28833 
L 672.631256 -42.28833 
L 671.70327 -42.28833 
L 670.775285 -42.28833 
L 669.8473 -42.28833 
L 668.919314 -42.28833 
L 667.991329 -42.28833 
L 667.063344 -42.28833 
L 666.135358 -42.28833 
L 665.207373 -42.28833 
L 664.279388 -42.28833 
L 663.351402 -42.28833 
L 662.423417 -42.28833 
L 661.495432 -42.28833 
L 660.567446 -42.28833 
L 659.639461 -42.28833 
L 658.711476 -42.28833 
L 657.78349 -42.28833 
L 656.855505 -42.28833 
L 655.92752 -42.28833 
L 654.999534 -42.28833 
L 654.071549 -42.28833 
L 653.143564 -42.28833 
L 652.215578 -42.28833 
L 651.287593 -42.28833 
L 650.359607 -42.28833 
L 649.431622 -42.28833 
L 648.503637 -42.28833 
L 647.575651 -42.28833 
L 646.647666 -42.28833 
L 645.719681 -42.28833 
L 644.791695 -42.28833 
L 643.86371 -42.28833 
L 642.935725 -42.28833 
L 642.007739 -42.28833 
L 641.079754 -42.28833 
L 640.151769 -42.28833 
L 639.223783 -42.28833 
L 638.295798 -42.28833 
L 637.367813 -42.28833 
L 636.439827 -42.28833 
L 635.511842 -42.28833 
L 634.583857 -42.28833 
L 633.655871 -42.28833 
L 632.727886 -42.28833 
L 631.799901 -42.28833 
L 630.871915 -42.28833 
L 629.94393 -42.28833 
L 629.015945 -42.28833 
L 628.087959 -42.28833 
L 627.159974 -42.28833 
L 626.231989 -42.28833 
L 625.304003 -42.28833 
L 624.376018 -42.28833 
L 623.448033 -42.28833 
L 622.520047 -42.28833 
L 621.592062 -42.28833 
L 620.664077 -42.28833 
L 619.736091 -42.28833 
L 618.808106 -42.28833 
L 617.880121 -42.28833 
L 616.952135 -42.28833 
L 616.02415 -42.28833 
L 615.096165 -42.28833 
L 614.168179 -42.28833 
L 613.240194 -42.28833 
L 612.312209 -42.28833 
L 611.384223 -42.28833 
L 610.456238 -42.28833 
L 609.528252 -42.28833 
L 608.600267 -42.28833 
L 607.672282 -42.28833 
L 606.744296 -42.28833 
L 605.816311 -42.28833 
L 604.888326 -42.28833 
L 603.96034 -42.28833 
L 603.032355 -42.28833 
L 602.10437 -42.28833 
L 601.176384 -42.28833 
L 600.248399 -42.28833 
L 599.320414 -42.28833 
L 598.392428 -42.28833 
L 597.464443 -42.28833 
L 596.536458 -42.28833 
L 595.608472 -42.28833 
L 594.680487 -42.28833 
L 593.752502 -42.28833 
L 592.824516 -42.28833 
L 591.896531 -42.28833 
L 590.968546 -42.28833 
L 590.04056 -42.28833 
L 589.112575 -42.28833 
L 588.18459 -42.28833 
L 587.256604 -42.28833 
L 586.328619 -42.28833 
L 585.400634 -42.28833 
L 584.472648 -42.28833 
L 583.544663 -42.28833 
L 582.616678 -42.28833 
L 581.688692 -42.28833 
L 580.760707 -42.28833 
L 579.832722 -42.28833 
L 578.904736 -42.28833 
L 577.976751 -42.28833 
L 577.048766 -42.28833 
L 576.12078 -42.28833 
L 575.192795 -42.28833 
L 574.26481 -42.28833 
L 573.336824 -42.28833 
L 572.408839 -42.28833 
L 571.480854 -42.28833 
L 570.552868 -42.28833 
L 569.624883 -42.28833 
L 568.696897 -42.28833 
L 567.768912 -42.28833 
L 566.840927 -42.28833 
L 565.912941 -42.28833 
L 564.984956 -42.28833 
L 564.056971 -42.28833 
L 563.128985 -42.28833 
z
" id="md12fccef02" style="stroke:#1f77b4;stroke-opacity:0;"/>
    </defs>
    <g clip-path="url(#p42a813cb57)">
     <use style="fill:#1f77b4;fill-opacity:0;stroke:#1f77b4;stroke-opacity:0;" x="0" xlink:href="#md12fccef02" y="405.83952"/>
    </g>
   </g>
   <g id="matplotlib.axis_3">
    <g id="xtick_6">
     <g id="line2d_8">
      <g>
       <use style="fill:#808080;stroke:#808080;" x="606.092916" xlink:href="#mc36eee1727" y="379.70577"/>
      </g>
     </g>
     <g id="text_11">
      <!-- 0.66 -->
      <g transform="translate(593.647134 395.922645)scale(0.14 -0.14)">
       <use xlink:href="#LMSans10-Regular-30"/>
       <use x="49.999985" xlink:href="#LMSans10-Regular-2e"/>
       <use x="77.799973" xlink:href="#LMSans10-Regular-36"/>
       <use x="127.799957" xlink:href="#LMSans10-Regular-36"/>
      </g>
     </g>
    </g>
    <g id="xtick_7">
     <g id="line2d_9">
      <g>
       <use style="fill:#808080;stroke:#808080;" x="703.398103" xlink:href="#mc36eee1727" y="379.70577"/>
      </g>
     </g>
     <g id="text_12">
      <!-- 0.68 -->
      <g transform="translate(690.952322 395.922645)scale(0.14 -0.14)">
       <use xlink:href="#LMSans10-Regular-30"/>
       <use x="49.999985" xlink:href="#LMSans10-Regular-2e"/>
       <use x="77.799973" xlink:href="#LMSans10-Regular-36"/>
       <use x="127.799957" xlink:href="#LMSans10-Regular-38"/>
      </g>
     </g>
    </g>
    <g id="xtick_8">
     <g id="line2d_10">
      <g>
       <use style="fill:#808080;stroke:#808080;" x="800.70329" xlink:href="#mc36eee1727" y="379.70577"/>
      </g>
     </g>
     <g id="text_13">
      <!-- 0.70 -->
      <g transform="translate(788.257509 395.922645)scale(0.14 -0.14)">
       <defs>
        <path d="M 2925 3782 
L 2925 4198 
L 269 4198 
L 269 3744 
L 1485 3744 
C 1562 3744 1638 3750 1715 3750 
L 2490 3750 
C 1542 2707 973 1427 973 -70 
L 1510 -70 
C 1510 1850 2426 3219 2925 3782 
z
" id="LMSans10-Regular-37" transform="scale(0.015625)"/>
       </defs>
       <use xlink:href="#LMSans10-Regular-30"/>
       <use x="49.999985" xlink:href="#LMSans10-Regular-2e"/>
       <use x="77.799973" xlink:href="#LMSans10-Regular-37"/>
       <use x="127.799957" xlink:href="#LMSans10-Regular-30"/>
      </g>
     </g>
    </g>
    <g id="xtick_9">
     <g id="line2d_11">
      <g>
       <use style="fill:#808080;stroke:#808080;" x="898.008477" xlink:href="#mc36eee1727" y="379.70577"/>
      </g>
     </g>
     <g id="text_14">
      <!-- 0.72 -->
      <g transform="translate(885.562696 395.922645)scale(0.14 -0.14)">
       <use xlink:href="#LMSans10-Regular-30"/>
       <use x="49.999985" xlink:href="#LMSans10-Regular-2e"/>
       <use x="77.799973" xlink:href="#LMSans10-Regular-37"/>
       <use x="127.799957" xlink:href="#LMSans10-Regular-32"/>
      </g>
     </g>
    </g>
    <g id="xtick_10">
     <g id="line2d_12">
      <g>
       <use style="fill:#808080;stroke:#808080;" x="995.313664" xlink:href="#mc36eee1727" y="379.70577"/>
      </g>
     </g>
     <g id="text_15">
      <!-- 0.74 -->
      <g transform="translate(982.867883 395.922645)scale(0.14 -0.14)">
       <use xlink:href="#LMSans10-Regular-30"/>
       <use x="49.999985" xlink:href="#LMSans10-Regular-2e"/>
       <use x="77.799973" xlink:href="#LMSans10-Regular-37"/>
       <use x="127.799957" xlink:href="#LMSans10-Regular-34"/>
      </g>
     </g>
    </g>
   </g>
   <g id="matplotlib.axis_4"/>
   <g id="line2d_13">
    <path clip-path="url(#p42a813cb57)" d="M 563.128985 362.224594 
L 568.696897 362.114921 
L 574.26481 361.769263 
L 578.904736 361.265481 
L 585.400634 360.258908 
L 600.248399 357.54787 
L 604.888326 356.571789 
L 608.600267 355.58507 
L 611.384223 354.653633 
L 614.168179 353.513017 
L 616.952135 352.133934 
L 619.736091 350.512421 
L 622.520047 348.630808 
L 626.231989 345.747664 
L 629.94393 342.518346 
L 634.583857 338.103774 
L 641.079754 331.446279 
L 647.575651 324.364636 
L 652.215578 319.040263 
L 656.855505 313.247226 
L 660.567446 308.234845 
L 664.279388 302.83819 
L 668.919314 295.65478 
L 673.559241 288.054845 
L 679.127153 278.582147 
L 682.839094 271.953912 
L 686.551036 265.007412 
L 689.334992 259.439555 
L 693.046933 251.372107 
L 696.758875 242.511088 
L 700.470816 232.771406 
L 703.254772 224.86522 
L 706.966713 213.78007 
L 711.60664 199.183772 
L 727.382391 148.655272 
L 732.950303 131.956268 
L 736.662244 121.484323 
L 740.374186 111.71083 
L 744.086127 102.602503 
L 747.798068 94.387391 
L 750.582024 88.798263 
L 753.36598 83.721668 
L 756.149936 79.119681 
L 759.861878 73.515018 
L 764.501804 67.323981 
L 769.141731 61.776876 
L 773.781658 56.75968 
L 777.493599 53.032826 
L 780.277555 50.467472 
L 783.989497 47.306384 
L 787.701438 44.667325 
L 790.485394 43.00412 
L 793.26935 41.745423 
L 796.053306 40.906576 
L 798.837262 40.492363 
L 800.693233 40.485792 
L 802.549203 40.741912 
L 804.405174 41.284765 
L 806.261145 42.075485 
L 808.117115 43.180195 
L 809.973086 44.590108 
L 811.829057 46.297103 
L 813.685027 48.39403 
L 815.540998 50.771927 
L 817.396969 53.595614 
L 819.252939 56.708307 
L 821.10891 60.2329 
L 822.964881 64.092145 
L 825.748837 70.578539 
L 828.532793 77.527252 
L 833.17272 90.019466 
L 838.740632 105.035755 
L 842.452573 114.44189 
L 846.164514 123.09509 
L 849.876456 131.063927 
L 858.228324 148.563495 
L 861.01228 154.971967 
L 863.796236 161.821468 
L 866.580192 169.264219 
L 870.292133 179.839667 
L 875.860045 196.845914 
L 882.355943 216.78634 
L 886.995869 230.172436 
L 890.707811 240.153822 
L 894.419752 249.505404 
L 898.131693 258.20219 
L 903.699605 270.459472 
L 909.267518 281.960227 
L 913.907444 291.038331 
L 918.547371 299.610368 
L 922.259312 305.955928 
L 925.043268 310.379725 
L 927.827224 314.411537 
L 930.61118 318.042913 
L 933.395136 321.244754 
L 936.179092 324.029164 
L 938.963048 326.418036 
L 941.747004 328.434863 
L 945.458946 330.755048 
L 951.026858 333.928342 
L 955.666785 336.645626 
L 960.306711 339.642387 
L 974.226491 349.10043 
L 978.866418 351.746885 
L 983.506345 354.010871 
L 987.218286 355.568705 
L 990.930228 356.926472 
L 995.570154 358.36398 
L 999.282096 359.266886 
L 1002.994037 359.962905 
L 1006.705978 360.429372 
L 1011.345905 360.729729 
L 1015.985832 360.802898 
L 1023.409714 360.689935 
L 1037.329495 360.467877 
L 1037.329495 360.467877 
" style="fill:none;stroke:#1f77b4;stroke-linecap:square;stroke-width:1.5;"/>
   </g>
   <g id="line2d_14">
    <path clip-path="url(#p42a813cb57)" d="M 664.303439 356.766266 
L 922.940393 356.766266 
" style="fill:none;stroke:#000000;stroke-width:3;"/>
   </g>
   <g id="patch_5">
    <path d="M 539.41896 379.70577 
L 1061.03952 379.70577 
" style="fill:none;stroke:#808080;stroke-linecap:square;stroke-linejoin:miter;stroke-width:0.8;"/>
   </g>
   <g id="text_16">
    <!-- 0.67  -->
    <g transform="translate(632.639376 339.803956)scale(0.15 -0.15)">
     <use xlink:href="#LMSans10-Regular-30"/>
     <use x="49.999985" xlink:href="#LMSans10-Regular-2e"/>
     <use x="77.799973" xlink:href="#LMSans10-Regular-36"/>
     <use x="127.799957" xlink:href="#LMSans10-Regular-37"/>
     <use x="177.799942" xlink:href="#LMSans10-Regular-20"/>
    </g>
   </g>
   <g id="text_17">
    <!--  0.73 -->
    <g transform="translate(922.940393 339.803956)scale(0.15 -0.15)">
     <use xlink:href="#LMSans10-Regular-20"/>
     <use x="33.299988" xlink:href="#LMSans10-Regular-30"/>
     <use x="83.299973" xlink:href="#LMSans10-Regular-2e"/>
     <use x="111.09996" xlink:href="#LMSans10-Regular-37"/>
     <use x="161.099945" xlink:href="#LMSans10-Regular-33"/>
    </g>
   </g>
   <g id="text_18">
    <!-- 94% HDI -->
    <g transform="translate(764.567619 261.777333)scale(0.15 -0.15)">
     <use xlink:href="#LMSans10-Regular-39"/>
     <use x="49.999985" xlink:href="#LMSans10-Regular-34"/>
     <use x="99.999969" xlink:href="#LMSans10-Regular-25"/>
     <use x="183.299957" xlink:href="#LMSans10-Regular-20"/>
     <use x="216.599945" xlink:href="#LMSans10-Regular-48"/>
     <use x="287.399933" xlink:href="#LMSans10-Regular-44"/>
     <use x="359.599915" xlink:href="#LMSans10-Regular-49"/>
    </g>
   </g>
   <g id="text_19">
    <!-- mean=0.7 -->
    <g transform="translate(761.893059 92.154238)scale(0.15 -0.15)">
     <use xlink:href="#LMSans10-Regular-6d"/>
     <use x="79.399994" xlink:href="#LMSans10-Regular-65"/>
     <use x="123.799988" xlink:href="#LMSans10-Regular-61"/>
     <use x="171.899979" xlink:href="#LMSans10-Regular-6e"/>
     <use x="223.599976" xlink:href="#LMSans10-Regular-3d"/>
     <use x="301.399963" xlink:href="#LMSans10-Regular-30"/>
     <use x="351.399948" xlink:href="#LMSans10-Regular-2e"/>
     <use x="379.199936" xlink:href="#LMSans10-Regular-37"/>
    </g>
   </g>
   <g id="text_20">
    <!-- theta -->
    <g transform="translate(782.91799 18.305)scale(0.16 -0.16)">
     <defs>
      <path d="M 2125 173 
L 2022 550 
C 1856 416 1651 339 1446 339 
C 1210 339 1120 531 1120 870 
L 1120 2470 
L 2022 2470 
L 2022 2842 
L 1120 2842 
L 1120 3654 
L 678 3654 
L 678 2842 
L 122 2842 
L 122 2470 
L 659 2470 
L 659 762 
C 659 378 749 -70 1190 -70 
C 1638 -70 1965 90 2125 173 
z
" id="LMSans10-Regular-74" transform="scale(0.015625)"/>
      <path d="M 2784 0 
L 2784 1907 
C 2784 2330 2688 2912 1907 2912 
C 1510 2912 1203 2714 998 2451 
L 998 4442 
L 518 4442 
L 518 0 
L 1018 0 
L 1018 1568 
C 1018 1990 1178 2522 1664 2522 
C 2278 2522 2285 2067 2285 1862 
L 2285 0 
L 2784 0 
z
" id="LMSans10-Regular-68" transform="scale(0.015625)"/>
     </defs>
     <use xlink:href="#LMSans10-Regular-74"/>
     <use x="36.099991" xlink:href="#LMSans10-Regular-68"/>
     <use x="87.799988" xlink:href="#LMSans10-Regular-65"/>
     <use x="132.199982" xlink:href="#LMSans10-Regular-74"/>
     <use x="168.299973" xlink:href="#LMSans10-Regular-61"/>
    </g>
   </g>
  </g>
 </g>
 <defs>
  <clipPath id="p4e34565bff">
   <rect height="355.40077" width="521.62056" x="7.2" y="24.305"/>
  </clipPath>
  <clipPath id="p42a813cb57">
   <rect height="355.40077" width="521.62056" x="539.41896" y="24.305"/>
  </clipPath>
 </defs>
</svg>
