<?xml version="1.0" encoding="utf-8" standalone="no"?>
<!DOCTYPE svg PUBLIC "-//W3C//DTD SVG 1.1//EN"
  "http://www.w3.org/Graphics/SVG/1.1/DTD/svg11.dtd">
<svg height="339.258pt" version="1.1" viewBox="0 0 405.482257 339.258" width="405.482257pt" xmlns="http://www.w3.org/2000/svg" xmlns:xlink="http://www.w3.org/1999/xlink">
 <metadata>
  <rdf:RDF xmlns:cc="http://creativecommons.org/ns#" xmlns:dc="http://purl.org/dc/elements/1.1/" xmlns:rdf="http://www.w3.org/1999/02/22-rdf-syntax-ns#">
   <cc:Work>
    <dc:type rdf:resource="http://purl.org/dc/dcmitype/StillImage"/>
    <dc:date>2021-05-27T07:36:31.762964</dc:date>
    <dc:format>image/svg+xml</dc:format>
    <dc:creator>
     <cc:Agent>
      <dc:title>Matplotlib v3.4.2, https://matplotlib.org/</dc:title>
     </cc:Agent>
    </dc:creator>
   </cc:Work>
  </rdf:RDF>
 </metadata>
 <defs>
  <style type="text/css">*{stroke-linecap:butt;stroke-linejoin:round;}</style>
 </defs>
 <g id="figure_1">
  <g id="patch_1">
   <path d="M 0 339.258 
L 405.482257 339.258 
L 405.482257 0 
L 0 0 
z
" style="fill:#ffffff;"/>
  </g>
  <g id="axes_1">
   <g id="patch_2">
    <path d="M 38.2 292.638 
L 395.32 292.638 
L 395.32 26.526 
L 38.2 26.526 
z
" style="fill:#ffffff;"/>
   </g>
   <g id="PolyCollection_1">
    <defs>
     <path d="M 54.432727 -300.636 
L 54.432727 -151.555918 
L 55.556099 -151.555918 
L 56.679472 -151.555918 
L 57.802844 -151.555918 
L 58.926216 -151.555918 
L 60.049588 -151.555918 
L 61.17296 -151.555918 
L 62.296332 -151.555918 
L 63.419704 -151.555918 
L 64.543076 -151.555918 
L 65.666449 -59.96301 
L 66.789821 -59.96301 
L 67.913193 -59.96301 
L 69.036565 -59.96301 
L 70.159937 -59.96301 
L 71.283309 -59.96301 
L 72.406681 -59.96301 
L 73.530053 -59.96301 
L 74.653426 -59.96301 
L 75.776798 -59.96301 
L 76.90017 -62.457031 
L 78.023542 -62.457031 
L 79.146914 -62.457031 
L 80.270286 -62.457031 
L 81.393658 -62.457031 
L 82.517031 -62.457031 
L 83.640403 -62.457031 
L 84.763775 -62.457031 
L 85.887147 -62.457031 
L 87.010519 -62.457031 
L 88.133891 -64.327546 
L 89.257263 -64.327546 
L 90.380635 -64.327546 
L 91.504008 -64.327546 
L 92.62738 -64.327546 
L 93.750752 -64.327546 
L 94.874124 -64.327546 
L 95.997496 -64.327546 
L 97.120868 -64.327546 
L 98.24424 -64.327546 
L 99.367612 -62.457031 
L 100.490985 -62.457031 
L 101.614357 -62.457031 
L 102.737729 -62.457031 
L 103.861101 -62.457031 
L 104.984473 -62.457031 
L 106.107845 -62.457031 
L 107.231217 -62.457031 
L 108.354589 -62.457031 
L 109.477962 -62.457031 
L 110.601334 -60.274763 
L 111.724706 -60.274763 
L 112.848078 -60.274763 
L 113.97145 -60.274763 
L 115.094822 -60.274763 
L 116.218194 -60.274763 
L 117.341567 -60.274763 
L 118.464939 -60.274763 
L 119.588311 -60.274763 
L 120.711683 -60.274763 
L 121.835055 -59.027753 
L 122.958427 -59.027753 
L 124.081799 -59.027753 
L 125.205171 -59.027753 
L 126.328544 -59.027753 
L 127.451916 -59.027753 
L 128.575288 -59.027753 
L 129.69866 -59.027753 
L 130.822032 -59.027753 
L 131.945404 -59.027753 
L 133.068776 -58.716 
L 134.192148 -58.716 
L 135.315521 -58.716 
L 136.438893 -58.716 
L 137.562265 -58.716 
L 138.685637 -58.716 
L 139.809009 -58.716 
L 140.932381 -58.716 
L 142.055753 -58.716 
L 143.179126 -58.716 
L 144.302498 -58.716 
L 145.42587 -58.716 
L 146.549242 -58.716 
L 147.672614 -58.716 
L 148.795986 -58.716 
L 149.919358 -58.716 
L 151.04273 -58.716 
L 152.166103 -58.716 
L 153.289475 -58.716 
L 154.412847 -58.716 
L 155.536219 -58.716 
L 156.659591 -58.716 
L 157.782963 -58.716 
L 158.906335 -58.716 
L 160.029707 -58.716 
L 161.15308 -58.716 
L 162.276452 -58.716 
L 163.399824 -58.716 
L 164.523196 -58.716 
L 165.646568 -58.716 
L 166.76994 -58.716 
L 167.893312 -58.716 
L 169.016684 -58.716 
L 170.140057 -58.716 
L 171.263429 -58.716 
L 172.386801 -58.716 
L 173.510173 -58.716 
L 174.633545 -58.716 
L 175.756917 -58.716 
L 176.880289 -58.716 
L 178.003662 -58.716 
L 179.127034 -58.716 
L 180.250406 -58.716 
L 181.373778 -58.716 
L 182.49715 -58.716 
L 183.620522 -58.716 
L 184.743894 -58.716 
L 185.867266 -58.716 
L 186.990639 -58.716 
L 188.114011 -58.716 
L 189.237383 -58.716 
L 190.360755 -58.716 
L 191.484127 -58.716 
L 192.607499 -58.716 
L 193.730871 -58.716 
L 194.854243 -58.716 
L 195.977616 -58.716 
L 197.100988 -58.716 
L 198.22436 -58.716 
L 199.347732 -58.716 
L 200.471104 -58.716 
L 201.594476 -58.716 
L 202.717848 -58.716 
L 203.841221 -58.716 
L 204.964593 -58.716 
L 206.087965 -58.716 
L 207.211337 -58.716 
L 208.334709 -58.716 
L 209.458081 -58.716 
L 210.581453 -58.716 
L 211.704825 -58.716 
L 212.828198 -58.716 
L 213.95157 -58.716 
L 215.074942 -58.716 
L 216.198314 -58.716 
L 217.321686 -58.716 
L 218.445058 -58.716 
L 219.56843 -58.716 
L 220.691802 -58.716 
L 221.815175 -58.716 
L 222.938547 -58.716 
L 224.061919 -58.716 
L 225.185291 -58.716 
L 226.308663 -58.716 
L 227.432035 -58.716 
L 228.555407 -58.716 
L 229.678779 -58.716 
L 230.802152 -58.716 
L 231.925524 -58.716 
L 233.048896 -58.716 
L 234.172268 -58.716 
L 235.29564 -58.716 
L 236.419012 -58.716 
L 237.542384 -58.716 
L 238.665757 -58.716 
L 239.789129 -58.716 
L 240.912501 -58.716 
L 242.035873 -58.716 
L 243.159245 -58.716 
L 244.282617 -58.716 
L 245.405989 -58.716 
L 246.529361 -58.716 
L 247.652734 -58.716 
L 248.776106 -58.716 
L 249.899478 -58.716 
L 251.02285 -58.716 
L 252.146222 -58.716 
L 253.269594 -58.716 
L 254.392966 -58.716 
L 255.516338 -58.716 
L 256.639711 -58.716 
L 257.763083 -58.716 
L 258.886455 -58.716 
L 260.009827 -58.716 
L 261.133199 -58.716 
L 262.256571 -58.716 
L 263.379943 -58.716 
L 264.503316 -58.716 
L 265.626688 -58.716 
L 266.75006 -58.716 
L 267.873432 -58.716 
L 268.996804 -58.716 
L 270.120176 -58.716 
L 271.243548 -58.716 
L 272.36692 -58.716 
L 273.490293 -58.716 
L 274.613665 -58.716 
L 275.737037 -58.716 
L 276.860409 -58.716 
L 277.983781 -58.716 
L 279.107153 -58.716 
L 280.230525 -58.716 
L 281.353897 -58.716 
L 282.47727 -58.716 
L 283.600642 -58.716 
L 284.724014 -58.716 
L 285.847386 -58.716 
L 286.970758 -58.716 
L 288.09413 -58.716 
L 289.217502 -58.716 
L 290.340874 -58.716 
L 291.464247 -58.716 
L 292.587619 -58.716 
L 293.710991 -58.716 
L 294.834363 -58.716 
L 295.957735 -58.716 
L 297.081107 -58.716 
L 298.204479 -58.716 
L 299.327852 -58.716 
L 300.451224 -58.716 
L 301.574596 -58.716 
L 302.697968 -58.716 
L 303.82134 -58.716 
L 304.944712 -58.716 
L 306.068084 -58.716 
L 307.191456 -58.716 
L 308.314829 -58.716 
L 309.438201 -58.716 
L 310.561573 -58.716 
L 311.684945 -58.716 
L 312.808317 -58.716 
L 313.931689 -58.716 
L 315.055061 -58.716 
L 316.178433 -58.716 
L 317.301806 -58.716 
L 318.425178 -58.716 
L 319.54855 -58.716 
L 320.671922 -58.716 
L 321.795294 -58.716 
L 322.918666 -58.716 
L 324.042038 -58.716 
L 325.165411 -58.716 
L 326.288783 -58.716 
L 327.412155 -58.716 
L 328.535527 -58.716 
L 329.658899 -58.716 
L 330.782271 -58.716 
L 331.905643 -58.716 
L 333.029015 -58.716 
L 334.152388 -58.716 
L 335.27576 -58.716 
L 336.399132 -58.716 
L 337.522504 -58.716 
L 338.645876 -58.716 
L 339.769248 -58.716 
L 340.89262 -58.716 
L 342.015992 -58.716 
L 343.139365 -58.716 
L 344.262737 -58.716 
L 345.386109 -58.716 
L 346.509481 -58.716 
L 347.632853 -58.716 
L 348.756225 -58.716 
L 349.879597 -58.716 
L 351.002969 -58.716 
L 352.126342 -58.716 
L 353.249714 -58.716 
L 354.373086 -58.716 
L 355.496458 -58.716 
L 356.61983 -58.716 
L 357.743202 -58.716 
L 358.866574 -58.716 
L 359.989947 -58.716 
L 361.113319 -58.716 
L 362.236691 -58.716 
L 363.360063 -58.716 
L 364.483435 -58.716 
L 365.606807 -58.716 
L 366.730179 -58.716 
L 367.853551 -58.716 
L 368.976924 -58.716 
L 370.100296 -58.716 
L 371.223668 -58.716 
L 372.34704 -58.716 
L 373.470412 -58.716 
L 374.593784 -58.716 
L 375.717156 -58.716 
L 376.840528 -58.716 
L 377.963901 -58.716 
L 379.087273 -58.716 
L 379.087273 -58.716 
L 379.087273 -58.716 
L 377.963901 -58.716 
L 376.840528 -58.716 
L 375.717156 -58.716 
L 374.593784 -58.716 
L 373.470412 -58.716 
L 372.34704 -58.716 
L 371.223668 -58.716 
L 370.100296 -58.716 
L 368.976924 -58.716 
L 367.853551 -58.716 
L 366.730179 -58.716 
L 365.606807 -58.716 
L 364.483435 -58.716 
L 363.360063 -58.716 
L 362.236691 -58.716 
L 361.113319 -58.716 
L 359.989947 -58.716 
L 358.866574 -58.716 
L 357.743202 -58.716 
L 356.61983 -58.716 
L 355.496458 -58.716 
L 354.373086 -58.716 
L 353.249714 -58.716 
L 352.126342 -58.716 
L 351.002969 -58.716 
L 349.879597 -58.716 
L 348.756225 -58.716 
L 347.632853 -58.716 
L 346.509481 -58.716 
L 345.386109 -58.716 
L 344.262737 -58.716 
L 343.139365 -58.716 
L 342.015992 -58.716 
L 340.89262 -58.716 
L 339.769248 -58.716 
L 338.645876 -58.716 
L 337.522504 -58.716 
L 336.399132 -58.716 
L 335.27576 -58.716 
L 334.152388 -58.716 
L 333.029015 -58.716 
L 331.905643 -58.716 
L 330.782271 -58.716 
L 329.658899 -58.716 
L 328.535527 -58.716 
L 327.412155 -58.716 
L 326.288783 -58.716 
L 325.165411 -58.716 
L 324.042038 -58.716 
L 322.918666 -58.716 
L 321.795294 -58.716 
L 320.671922 -58.716 
L 319.54855 -58.716 
L 318.425178 -58.716 
L 317.301806 -58.716 
L 316.178433 -58.716 
L 315.055061 -58.716 
L 313.931689 -58.716 
L 312.808317 -58.716 
L 311.684945 -58.716 
L 310.561573 -58.716 
L 309.438201 -58.716 
L 308.314829 -58.716 
L 307.191456 -58.716 
L 306.068084 -58.716 
L 304.944712 -58.716 
L 303.82134 -58.716 
L 302.697968 -58.716 
L 301.574596 -58.716 
L 300.451224 -58.716 
L 299.327852 -58.716 
L 298.204479 -58.716 
L 297.081107 -58.716 
L 295.957735 -58.716 
L 294.834363 -58.716 
L 293.710991 -58.716 
L 292.587619 -58.716 
L 291.464247 -58.716 
L 290.340874 -58.716 
L 289.217502 -58.716 
L 288.09413 -58.716 
L 286.970758 -58.716 
L 285.847386 -58.716 
L 284.724014 -58.716 
L 283.600642 -58.716 
L 282.47727 -58.716 
L 281.353897 -58.716 
L 280.230525 -58.716 
L 279.107153 -58.716 
L 277.983781 -58.716 
L 276.860409 -58.716 
L 275.737037 -58.716 
L 274.613665 -58.716 
L 273.490293 -58.716 
L 272.36692 -58.716 
L 271.243548 -58.716 
L 270.120176 -58.716 
L 268.996804 -58.716 
L 267.873432 -58.716 
L 266.75006 -58.716 
L 265.626688 -58.716 
L 264.503316 -58.716 
L 263.379943 -58.716 
L 262.256571 -58.716 
L 261.133199 -58.716 
L 260.009827 -58.716 
L 258.886455 -58.716 
L 257.763083 -58.716 
L 256.639711 -58.716 
L 255.516338 -58.716 
L 254.392966 -58.716 
L 253.269594 -58.716 
L 252.146222 -58.716 
L 251.02285 -58.716 
L 249.899478 -58.716 
L 248.776106 -58.716 
L 247.652734 -58.716 
L 246.529361 -58.716 
L 245.405989 -58.716 
L 244.282617 -58.716 
L 243.159245 -58.716 
L 242.035873 -58.716 
L 240.912501 -58.716 
L 239.789129 -58.716 
L 238.665757 -58.716 
L 237.542384 -58.716 
L 236.419012 -58.716 
L 235.29564 -58.716 
L 234.172268 -58.716 
L 233.048896 -58.716 
L 231.925524 -58.716 
L 230.802152 -58.716 
L 229.678779 -58.716 
L 228.555407 -58.716 
L 227.432035 -58.716 
L 226.308663 -58.716 
L 225.185291 -58.716 
L 224.061919 -58.716 
L 222.938547 -58.716 
L 221.815175 -59.339505 
L 220.691802 -59.339505 
L 219.56843 -59.339505 
L 218.445058 -59.339505 
L 217.321686 -59.339505 
L 216.198314 -59.339505 
L 215.074942 -59.339505 
L 213.95157 -59.339505 
L 212.828198 -59.339505 
L 211.704825 -59.339505 
L 210.581453 -59.96301 
L 209.458081 -59.96301 
L 208.334709 -59.96301 
L 207.211337 -59.96301 
L 206.087965 -59.96301 
L 204.964593 -59.96301 
L 203.841221 -59.96301 
L 202.717848 -59.96301 
L 201.594476 -59.96301 
L 200.471104 -59.96301 
L 199.347732 -61.241196 
L 198.22436 -61.241196 
L 197.100988 -61.241196 
L 195.977616 -61.241196 
L 194.854243 -61.241196 
L 193.730871 -61.241196 
L 192.607499 -61.241196 
L 191.484127 -61.241196 
L 190.360755 -61.241196 
L 189.237383 -61.241196 
L 188.114011 -63.080536 
L 186.990639 -63.080536 
L 185.867266 -63.080536 
L 184.743894 -63.080536 
L 183.620522 -63.080536 
L 182.49715 -63.080536 
L 181.373778 -63.080536 
L 180.250406 -63.080536 
L 179.127034 -63.080536 
L 178.003662 -63.080536 
L 176.880289 -65.293979 
L 175.756917 -65.293979 
L 174.633545 -65.293979 
L 173.510173 -65.293979 
L 172.386801 -65.293979 
L 171.263429 -65.293979 
L 170.140057 -65.293979 
L 169.016684 -65.293979 
L 167.893312 -65.293979 
L 166.76994 -65.293979 
L 165.646568 -68.692082 
L 164.523196 -68.692082 
L 163.399824 -68.692082 
L 162.276452 -68.692082 
L 161.15308 -68.692082 
L 160.029707 -68.692082 
L 158.906335 -68.692082 
L 157.782963 -68.692082 
L 156.659591 -68.692082 
L 155.536219 -68.692082 
L 154.412847 -71.497856 
L 153.289475 -71.497856 
L 152.166103 -71.497856 
L 151.04273 -71.497856 
L 149.919358 -71.497856 
L 148.795986 -71.497856 
L 147.672614 -71.497856 
L 146.549242 -71.497856 
L 145.42587 -71.497856 
L 144.302498 -71.497856 
L 143.179126 -76.485897 
L 142.055753 -76.485897 
L 140.932381 -76.485897 
L 139.809009 -76.485897 
L 138.685637 -76.485897 
L 137.562265 -76.485897 
L 136.438893 -76.485897 
L 135.315521 -76.485897 
L 134.192148 -76.485897 
L 133.068776 -76.485897 
L 131.945404 -82.409196 
L 130.822032 -82.409196 
L 129.69866 -82.409196 
L 128.575288 -82.409196 
L 127.451916 -82.409196 
L 126.328544 -82.409196 
L 125.205171 -82.409196 
L 124.081799 -82.409196 
L 122.958427 -82.409196 
L 121.835055 -82.409196 
L 120.711683 -88.051918 
L 119.588311 -88.051918 
L 118.464939 -88.051918 
L 117.341567 -88.051918 
L 116.218194 -88.051918 
L 115.094822 -88.051918 
L 113.97145 -88.051918 
L 112.848078 -88.051918 
L 111.724706 -88.051918 
L 110.601334 -88.051918 
L 109.477962 -94.879299 
L 108.354589 -94.879299 
L 107.231217 -94.879299 
L 106.107845 -94.879299 
L 104.984473 -94.879299 
L 103.861101 -94.879299 
L 102.737729 -94.879299 
L 101.614357 -94.879299 
L 100.490985 -94.879299 
L 99.367612 -94.879299 
L 98.24424 -104.231876 
L 97.120868 -104.231876 
L 95.997496 -104.231876 
L 94.874124 -104.231876 
L 93.750752 -104.231876 
L 92.62738 -104.231876 
L 91.504008 -104.231876 
L 90.380635 -104.231876 
L 89.257263 -104.231876 
L 88.133891 -104.231876 
L 87.010519 -112.368619 
L 85.887147 -112.368619 
L 84.763775 -112.368619 
L 83.640403 -112.368619 
L 82.517031 -112.368619 
L 81.393658 -112.368619 
L 80.270286 -112.368619 
L 79.146914 -112.368619 
L 78.023542 -112.368619 
L 76.90017 -112.368619 
L 75.776798 -115.766722 
L 74.653426 -115.766722 
L 73.530053 -115.766722 
L 72.406681 -115.766722 
L 71.283309 -115.766722 
L 70.159937 -115.766722 
L 69.036565 -115.766722 
L 67.913193 -115.766722 
L 66.789821 -115.766722 
L 65.666449 -115.766722 
L 64.543076 -300.636 
L 63.419704 -300.636 
L 62.296332 -300.636 
L 61.17296 -300.636 
L 60.049588 -300.636 
L 58.926216 -300.636 
L 57.802844 -300.636 
L 56.679472 -300.636 
L 55.556099 -300.636 
L 54.432727 -300.636 
z
" id="m946e529087" style="stroke:#dcbcbc;"/>
    </defs>
    <g clip-path="url(#p52a8fa34d4)">
     <use style="fill:#dcbcbc;stroke:#dcbcbc;" x="0" xlink:href="#m946e529087" y="339.258"/>
    </g>
   </g>
   <g id="PolyCollection_2">
    <defs>
     <path d="M 54.432727 -279.187423 
L 54.432727 -179.613649 
L 55.556099 -179.613649 
L 56.679472 -179.613649 
L 57.802844 -179.613649 
L 58.926216 -179.613649 
L 60.049588 -179.613649 
L 61.17296 -179.613649 
L 62.296332 -179.613649 
L 63.419704 -179.613649 
L 64.543076 -179.613649 
L 65.666449 -63.704041 
L 66.789821 -63.704041 
L 67.913193 -63.704041 
L 69.036565 -63.704041 
L 70.159937 -63.704041 
L 71.283309 -63.704041 
L 72.406681 -63.704041 
L 73.530053 -63.704041 
L 74.653426 -63.704041 
L 75.776798 -63.704041 
L 76.90017 -70.250845 
L 78.023542 -70.250845 
L 79.146914 -70.250845 
L 80.270286 -70.250845 
L 81.393658 -70.250845 
L 82.517031 -70.250845 
L 83.640403 -70.250845 
L 84.763775 -70.250845 
L 85.887147 -70.250845 
L 87.010519 -70.250845 
L 88.133891 -70.874351 
L 89.257263 -70.874351 
L 90.380635 -70.874351 
L 91.504008 -70.874351 
L 92.62738 -70.874351 
L 93.750752 -70.874351 
L 94.874124 -70.874351 
L 95.997496 -70.874351 
L 97.120868 -70.874351 
L 98.24424 -70.874351 
L 99.367612 -66.198062 
L 100.490985 -66.198062 
L 101.614357 -66.198062 
L 102.737729 -66.198062 
L 103.861101 -66.198062 
L 104.984473 -66.198062 
L 106.107845 -66.198062 
L 107.231217 -66.198062 
L 108.354589 -66.198062 
L 109.477962 -66.198062 
L 110.601334 -61.833526 
L 111.724706 -61.833526 
L 112.848078 -61.833526 
L 113.97145 -61.833526 
L 115.094822 -61.833526 
L 116.218194 -61.833526 
L 117.341567 -61.833526 
L 118.464939 -61.833526 
L 119.588311 -61.833526 
L 120.711683 -61.833526 
L 121.835055 -59.651258 
L 122.958427 -59.651258 
L 124.081799 -59.651258 
L 125.205171 -59.651258 
L 126.328544 -59.651258 
L 127.451916 -59.651258 
L 128.575288 -59.651258 
L 129.69866 -59.651258 
L 130.822032 -59.651258 
L 131.945404 -59.651258 
L 133.068776 -59.027753 
L 134.192148 -59.027753 
L 135.315521 -59.027753 
L 136.438893 -59.027753 
L 137.562265 -59.027753 
L 138.685637 -59.027753 
L 139.809009 -59.027753 
L 140.932381 -59.027753 
L 142.055753 -59.027753 
L 143.179126 -59.027753 
L 144.302498 -58.716 
L 145.42587 -58.716 
L 146.549242 -58.716 
L 147.672614 -58.716 
L 148.795986 -58.716 
L 149.919358 -58.716 
L 151.04273 -58.716 
L 152.166103 -58.716 
L 153.289475 -58.716 
L 154.412847 -58.716 
L 155.536219 -58.716 
L 156.659591 -58.716 
L 157.782963 -58.716 
L 158.906335 -58.716 
L 160.029707 -58.716 
L 161.15308 -58.716 
L 162.276452 -58.716 
L 163.399824 -58.716 
L 164.523196 -58.716 
L 165.646568 -58.716 
L 166.76994 -58.716 
L 167.893312 -58.716 
L 169.016684 -58.716 
L 170.140057 -58.716 
L 171.263429 -58.716 
L 172.386801 -58.716 
L 173.510173 -58.716 
L 174.633545 -58.716 
L 175.756917 -58.716 
L 176.880289 -58.716 
L 178.003662 -58.716 
L 179.127034 -58.716 
L 180.250406 -58.716 
L 181.373778 -58.716 
L 182.49715 -58.716 
L 183.620522 -58.716 
L 184.743894 -58.716 
L 185.867266 -58.716 
L 186.990639 -58.716 
L 188.114011 -58.716 
L 189.237383 -58.716 
L 190.360755 -58.716 
L 191.484127 -58.716 
L 192.607499 -58.716 
L 193.730871 -58.716 
L 194.854243 -58.716 
L 195.977616 -58.716 
L 197.100988 -58.716 
L 198.22436 -58.716 
L 199.347732 -58.716 
L 200.471104 -58.716 
L 201.594476 -58.716 
L 202.717848 -58.716 
L 203.841221 -58.716 
L 204.964593 -58.716 
L 206.087965 -58.716 
L 207.211337 -58.716 
L 208.334709 -58.716 
L 209.458081 -58.716 
L 210.581453 -58.716 
L 211.704825 -58.716 
L 212.828198 -58.716 
L 213.95157 -58.716 
L 215.074942 -58.716 
L 216.198314 -58.716 
L 217.321686 -58.716 
L 218.445058 -58.716 
L 219.56843 -58.716 
L 220.691802 -58.716 
L 221.815175 -58.716 
L 222.938547 -58.716 
L 224.061919 -58.716 
L 225.185291 -58.716 
L 226.308663 -58.716 
L 227.432035 -58.716 
L 228.555407 -58.716 
L 229.678779 -58.716 
L 230.802152 -58.716 
L 231.925524 -58.716 
L 233.048896 -58.716 
L 234.172268 -58.716 
L 235.29564 -58.716 
L 236.419012 -58.716 
L 237.542384 -58.716 
L 238.665757 -58.716 
L 239.789129 -58.716 
L 240.912501 -58.716 
L 242.035873 -58.716 
L 243.159245 -58.716 
L 244.282617 -58.716 
L 245.405989 -58.716 
L 246.529361 -58.716 
L 247.652734 -58.716 
L 248.776106 -58.716 
L 249.899478 -58.716 
L 251.02285 -58.716 
L 252.146222 -58.716 
L 253.269594 -58.716 
L 254.392966 -58.716 
L 255.516338 -58.716 
L 256.639711 -58.716 
L 257.763083 -58.716 
L 258.886455 -58.716 
L 260.009827 -58.716 
L 261.133199 -58.716 
L 262.256571 -58.716 
L 263.379943 -58.716 
L 264.503316 -58.716 
L 265.626688 -58.716 
L 266.75006 -58.716 
L 267.873432 -58.716 
L 268.996804 -58.716 
L 270.120176 -58.716 
L 271.243548 -58.716 
L 272.36692 -58.716 
L 273.490293 -58.716 
L 274.613665 -58.716 
L 275.737037 -58.716 
L 276.860409 -58.716 
L 277.983781 -58.716 
L 279.107153 -58.716 
L 280.230525 -58.716 
L 281.353897 -58.716 
L 282.47727 -58.716 
L 283.600642 -58.716 
L 284.724014 -58.716 
L 285.847386 -58.716 
L 286.970758 -58.716 
L 288.09413 -58.716 
L 289.217502 -58.716 
L 290.340874 -58.716 
L 291.464247 -58.716 
L 292.587619 -58.716 
L 293.710991 -58.716 
L 294.834363 -58.716 
L 295.957735 -58.716 
L 297.081107 -58.716 
L 298.204479 -58.716 
L 299.327852 -58.716 
L 300.451224 -58.716 
L 301.574596 -58.716 
L 302.697968 -58.716 
L 303.82134 -58.716 
L 304.944712 -58.716 
L 306.068084 -58.716 
L 307.191456 -58.716 
L 308.314829 -58.716 
L 309.438201 -58.716 
L 310.561573 -58.716 
L 311.684945 -58.716 
L 312.808317 -58.716 
L 313.931689 -58.716 
L 315.055061 -58.716 
L 316.178433 -58.716 
L 317.301806 -58.716 
L 318.425178 -58.716 
L 319.54855 -58.716 
L 320.671922 -58.716 
L 321.795294 -58.716 
L 322.918666 -58.716 
L 324.042038 -58.716 
L 325.165411 -58.716 
L 326.288783 -58.716 
L 327.412155 -58.716 
L 328.535527 -58.716 
L 329.658899 -58.716 
L 330.782271 -58.716 
L 331.905643 -58.716 
L 333.029015 -58.716 
L 334.152388 -58.716 
L 335.27576 -58.716 
L 336.399132 -58.716 
L 337.522504 -58.716 
L 338.645876 -58.716 
L 339.769248 -58.716 
L 340.89262 -58.716 
L 342.015992 -58.716 
L 343.139365 -58.716 
L 344.262737 -58.716 
L 345.386109 -58.716 
L 346.509481 -58.716 
L 347.632853 -58.716 
L 348.756225 -58.716 
L 349.879597 -58.716 
L 351.002969 -58.716 
L 352.126342 -58.716 
L 353.249714 -58.716 
L 354.373086 -58.716 
L 355.496458 -58.716 
L 356.61983 -58.716 
L 357.743202 -58.716 
L 358.866574 -58.716 
L 359.989947 -58.716 
L 361.113319 -58.716 
L 362.236691 -58.716 
L 363.360063 -58.716 
L 364.483435 -58.716 
L 365.606807 -58.716 
L 366.730179 -58.716 
L 367.853551 -58.716 
L 368.976924 -58.716 
L 370.100296 -58.716 
L 371.223668 -58.716 
L 372.34704 -58.716 
L 373.470412 -58.716 
L 374.593784 -58.716 
L 375.717156 -58.716 
L 376.840528 -58.716 
L 377.963901 -58.716 
L 379.087273 -58.716 
L 379.087273 -58.716 
L 379.087273 -58.716 
L 377.963901 -58.716 
L 376.840528 -58.716 
L 375.717156 -58.716 
L 374.593784 -58.716 
L 373.470412 -58.716 
L 372.34704 -58.716 
L 371.223668 -58.716 
L 370.100296 -58.716 
L 368.976924 -58.716 
L 367.853551 -58.716 
L 366.730179 -58.716 
L 365.606807 -58.716 
L 364.483435 -58.716 
L 363.360063 -58.716 
L 362.236691 -58.716 
L 361.113319 -58.716 
L 359.989947 -58.716 
L 358.866574 -58.716 
L 357.743202 -58.716 
L 356.61983 -58.716 
L 355.496458 -58.716 
L 354.373086 -58.716 
L 353.249714 -58.716 
L 352.126342 -58.716 
L 351.002969 -58.716 
L 349.879597 -58.716 
L 348.756225 -58.716 
L 347.632853 -58.716 
L 346.509481 -58.716 
L 345.386109 -58.716 
L 344.262737 -58.716 
L 343.139365 -58.716 
L 342.015992 -58.716 
L 340.89262 -58.716 
L 339.769248 -58.716 
L 338.645876 -58.716 
L 337.522504 -58.716 
L 336.399132 -58.716 
L 335.27576 -58.716 
L 334.152388 -58.716 
L 333.029015 -58.716 
L 331.905643 -58.716 
L 330.782271 -58.716 
L 329.658899 -58.716 
L 328.535527 -58.716 
L 327.412155 -58.716 
L 326.288783 -58.716 
L 325.165411 -58.716 
L 324.042038 -58.716 
L 322.918666 -58.716 
L 321.795294 -58.716 
L 320.671922 -58.716 
L 319.54855 -58.716 
L 318.425178 -58.716 
L 317.301806 -58.716 
L 316.178433 -58.716 
L 315.055061 -58.716 
L 313.931689 -58.716 
L 312.808317 -58.716 
L 311.684945 -58.716 
L 310.561573 -58.716 
L 309.438201 -58.716 
L 308.314829 -58.716 
L 307.191456 -58.716 
L 306.068084 -58.716 
L 304.944712 -58.716 
L 303.82134 -58.716 
L 302.697968 -58.716 
L 301.574596 -58.716 
L 300.451224 -58.716 
L 299.327852 -58.716 
L 298.204479 -58.716 
L 297.081107 -58.716 
L 295.957735 -58.716 
L 294.834363 -58.716 
L 293.710991 -58.716 
L 292.587619 -58.716 
L 291.464247 -58.716 
L 290.340874 -58.716 
L 289.217502 -58.716 
L 288.09413 -58.716 
L 286.970758 -58.716 
L 285.847386 -58.716 
L 284.724014 -58.716 
L 283.600642 -58.716 
L 282.47727 -58.716 
L 281.353897 -58.716 
L 280.230525 -58.716 
L 279.107153 -58.716 
L 277.983781 -58.716 
L 276.860409 -58.716 
L 275.737037 -58.716 
L 274.613665 -58.716 
L 273.490293 -58.716 
L 272.36692 -58.716 
L 271.243548 -58.716 
L 270.120176 -58.716 
L 268.996804 -58.716 
L 267.873432 -58.716 
L 266.75006 -58.716 
L 265.626688 -58.716 
L 264.503316 -58.716 
L 263.379943 -58.716 
L 262.256571 -58.716 
L 261.133199 -58.716 
L 260.009827 -58.716 
L 258.886455 -58.716 
L 257.763083 -58.716 
L 256.639711 -58.716 
L 255.516338 -58.716 
L 254.392966 -58.716 
L 253.269594 -58.716 
L 252.146222 -58.716 
L 251.02285 -58.716 
L 249.899478 -58.716 
L 248.776106 -58.716 
L 247.652734 -58.716 
L 246.529361 -58.716 
L 245.405989 -58.716 
L 244.282617 -58.716 
L 243.159245 -58.716 
L 242.035873 -58.716 
L 240.912501 -58.716 
L 239.789129 -58.716 
L 238.665757 -58.716 
L 237.542384 -58.716 
L 236.419012 -58.716 
L 235.29564 -58.716 
L 234.172268 -58.716 
L 233.048896 -58.716 
L 231.925524 -58.716 
L 230.802152 -58.716 
L 229.678779 -58.716 
L 228.555407 -58.716 
L 227.432035 -58.716 
L 226.308663 -58.716 
L 225.185291 -58.716 
L 224.061919 -58.716 
L 222.938547 -58.716 
L 221.815175 -58.716 
L 220.691802 -58.716 
L 219.56843 -58.716 
L 218.445058 -58.716 
L 217.321686 -58.716 
L 216.198314 -58.716 
L 215.074942 -58.716 
L 213.95157 -58.716 
L 212.828198 -58.716 
L 211.704825 -58.716 
L 210.581453 -58.716 
L 209.458081 -58.716 
L 208.334709 -58.716 
L 207.211337 -58.716 
L 206.087965 -58.716 
L 204.964593 -58.716 
L 203.841221 -58.716 
L 202.717848 -58.716 
L 201.594476 -58.716 
L 200.471104 -58.716 
L 199.347732 -59.027753 
L 198.22436 -59.027753 
L 197.100988 -59.027753 
L 195.977616 -59.027753 
L 194.854243 -59.027753 
L 193.730871 -59.027753 
L 192.607499 -59.027753 
L 191.484127 -59.027753 
L 190.360755 -59.027753 
L 189.237383 -59.027753 
L 188.114011 -59.651258 
L 186.990639 -59.651258 
L 185.867266 -59.651258 
L 184.743894 -59.651258 
L 183.620522 -59.651258 
L 182.49715 -59.651258 
L 181.373778 -59.651258 
L 180.250406 -59.651258 
L 179.127034 -59.651258 
L 178.003662 -59.651258 
L 176.880289 -60.586515 
L 175.756917 -60.586515 
L 174.633545 -60.586515 
L 173.510173 -60.586515 
L 172.386801 -60.586515 
L 171.263429 -60.586515 
L 170.140057 -60.586515 
L 169.016684 -60.586515 
L 167.893312 -60.586515 
L 166.76994 -60.586515 
L 165.646568 -62.207629 
L 164.523196 -62.207629 
L 163.399824 -62.207629 
L 162.276452 -62.207629 
L 161.15308 -62.207629 
L 160.029707 -62.207629 
L 158.906335 -62.207629 
L 157.782963 -62.207629 
L 156.659591 -62.207629 
L 155.536219 -62.207629 
L 154.412847 -65.886309 
L 153.289475 -65.886309 
L 152.166103 -65.886309 
L 151.04273 -65.886309 
L 149.919358 -65.886309 
L 148.795986 -65.886309 
L 147.672614 -65.886309 
L 146.549242 -65.886309 
L 145.42587 -65.886309 
L 144.302498 -65.886309 
L 143.179126 -69.939093 
L 142.055753 -69.939093 
L 140.932381 -69.939093 
L 139.809009 -69.939093 
L 138.685637 -69.939093 
L 137.562265 -69.939093 
L 136.438893 -69.939093 
L 135.315521 -69.939093 
L 134.192148 -69.939093 
L 133.068776 -69.939093 
L 131.945404 -75.862392 
L 130.822032 -75.862392 
L 129.69866 -75.862392 
L 128.575288 -75.862392 
L 127.451916 -75.862392 
L 126.328544 -75.862392 
L 125.205171 -75.862392 
L 124.081799 -75.862392 
L 122.958427 -75.862392 
L 121.835055 -75.862392 
L 120.711683 -81.162186 
L 119.588311 -81.162186 
L 118.464939 -81.162186 
L 117.341567 -81.162186 
L 116.218194 -81.162186 
L 115.094822 -81.162186 
L 113.97145 -81.162186 
L 112.848078 -81.162186 
L 111.724706 -81.162186 
L 110.601334 -81.162186 
L 109.477962 -88.083093 
L 108.354589 -88.083093 
L 107.231217 -88.083093 
L 106.107845 -88.083093 
L 104.984473 -88.083093 
L 103.861101 -88.083093 
L 102.737729 -88.083093 
L 101.614357 -88.083093 
L 100.490985 -88.083093 
L 99.367612 -88.083093 
L 98.24424 -96.438062 
L 97.120868 -96.438062 
L 95.997496 -96.438062 
L 94.874124 -96.438062 
L 93.750752 -96.438062 
L 92.62738 -96.438062 
L 91.504008 -96.438062 
L 90.380635 -96.438062 
L 89.257263 -96.438062 
L 88.133891 -96.438062 
L 87.010519 -104.231876 
L 85.887147 -104.231876 
L 84.763775 -104.231876 
L 83.640403 -104.231876 
L 82.517031 -104.231876 
L 81.393658 -104.231876 
L 80.270286 -104.231876 
L 79.146914 -104.231876 
L 78.023542 -104.231876 
L 76.90017 -104.231876 
L 75.776798 -101.800206 
L 74.653426 -101.800206 
L 73.530053 -101.800206 
L 72.406681 -101.800206 
L 71.283309 -101.800206 
L 70.159937 -101.800206 
L 69.036565 -101.800206 
L 67.913193 -101.800206 
L 66.789821 -101.800206 
L 65.666449 -101.800206 
L 64.543076 -279.187423 
L 63.419704 -279.187423 
L 62.296332 -279.187423 
L 61.17296 -279.187423 
L 60.049588 -279.187423 
L 58.926216 -279.187423 
L 57.802844 -279.187423 
L 56.679472 -279.187423 
L 55.556099 -279.187423 
L 54.432727 -279.187423 
z
" id="ma98ff55767" style="stroke:#c79999;"/>
    </defs>
    <g clip-path="url(#p52a8fa34d4)">
     <use style="fill:#c79999;stroke:#c79999;" x="0" xlink:href="#ma98ff55767" y="339.258"/>
    </g>
   </g>
   <g id="PolyCollection_3">
    <defs>
     <path d="M 54.432727 -261.043423 
L 54.432727 -196.822392 
L 55.556099 -196.822392 
L 56.679472 -196.822392 
L 57.802844 -196.822392 
L 58.926216 -196.822392 
L 60.049588 -196.822392 
L 61.17296 -196.822392 
L 62.296332 -196.822392 
L 63.419704 -196.822392 
L 64.543076 -196.822392 
L 65.666449 -69.003835 
L 66.789821 -69.003835 
L 67.913193 -69.003835 
L 69.036565 -69.003835 
L 70.159937 -69.003835 
L 71.283309 -69.003835 
L 72.406681 -69.003835 
L 73.530053 -69.003835 
L 74.653426 -69.003835 
L 75.776798 -69.003835 
L 76.90017 -76.797649 
L 78.023542 -76.797649 
L 79.146914 -76.797649 
L 80.270286 -76.797649 
L 81.393658 -76.797649 
L 82.517031 -76.797649 
L 83.640403 -76.797649 
L 84.763775 -76.797649 
L 85.887147 -76.797649 
L 87.010519 -76.797649 
L 88.133891 -75.862392 
L 89.257263 -75.862392 
L 90.380635 -75.862392 
L 91.504008 -75.862392 
L 92.62738 -75.862392 
L 93.750752 -75.862392 
L 94.874124 -75.862392 
L 95.997496 -75.862392 
L 97.120868 -75.862392 
L 98.24424 -75.862392 
L 99.367612 -69.62734 
L 100.490985 -69.62734 
L 101.614357 -69.62734 
L 102.737729 -69.62734 
L 103.861101 -69.62734 
L 104.984473 -69.62734 
L 106.107845 -69.62734 
L 107.231217 -69.62734 
L 108.354589 -69.62734 
L 109.477962 -69.62734 
L 110.601334 -64.015794 
L 111.724706 -64.015794 
L 112.848078 -64.015794 
L 113.97145 -64.015794 
L 115.094822 -64.015794 
L 116.218194 -64.015794 
L 117.341567 -64.015794 
L 118.464939 -64.015794 
L 119.588311 -64.015794 
L 120.711683 -64.015794 
L 121.835055 -60.898268 
L 122.958427 -60.898268 
L 124.081799 -60.898268 
L 125.205171 -60.898268 
L 126.328544 -60.898268 
L 127.451916 -60.898268 
L 128.575288 -60.898268 
L 129.69866 -60.898268 
L 130.822032 -60.898268 
L 131.945404 -60.898268 
L 133.068776 -59.339505 
L 134.192148 -59.339505 
L 135.315521 -59.339505 
L 136.438893 -59.339505 
L 137.562265 -59.339505 
L 138.685637 -59.339505 
L 139.809009 -59.339505 
L 140.932381 -59.339505 
L 142.055753 -59.339505 
L 143.179126 -59.339505 
L 144.302498 -59.027753 
L 145.42587 -59.027753 
L 146.549242 -59.027753 
L 147.672614 -59.027753 
L 148.795986 -59.027753 
L 149.919358 -59.027753 
L 151.04273 -59.027753 
L 152.166103 -59.027753 
L 153.289475 -59.027753 
L 154.412847 -59.027753 
L 155.536219 -58.716 
L 156.659591 -58.716 
L 157.782963 -58.716 
L 158.906335 -58.716 
L 160.029707 -58.716 
L 161.15308 -58.716 
L 162.276452 -58.716 
L 163.399824 -58.716 
L 164.523196 -58.716 
L 165.646568 -58.716 
L 166.76994 -58.716 
L 167.893312 -58.716 
L 169.016684 -58.716 
L 170.140057 -58.716 
L 171.263429 -58.716 
L 172.386801 -58.716 
L 173.510173 -58.716 
L 174.633545 -58.716 
L 175.756917 -58.716 
L 176.880289 -58.716 
L 178.003662 -58.716 
L 179.127034 -58.716 
L 180.250406 -58.716 
L 181.373778 -58.716 
L 182.49715 -58.716 
L 183.620522 -58.716 
L 184.743894 -58.716 
L 185.867266 -58.716 
L 186.990639 -58.716 
L 188.114011 -58.716 
L 189.237383 -58.716 
L 190.360755 -58.716 
L 191.484127 -58.716 
L 192.607499 -58.716 
L 193.730871 -58.716 
L 194.854243 -58.716 
L 195.977616 -58.716 
L 197.100988 -58.716 
L 198.22436 -58.716 
L 199.347732 -58.716 
L 200.471104 -58.716 
L 201.594476 -58.716 
L 202.717848 -58.716 
L 203.841221 -58.716 
L 204.964593 -58.716 
L 206.087965 -58.716 
L 207.211337 -58.716 
L 208.334709 -58.716 
L 209.458081 -58.716 
L 210.581453 -58.716 
L 211.704825 -58.716 
L 212.828198 -58.716 
L 213.95157 -58.716 
L 215.074942 -58.716 
L 216.198314 -58.716 
L 217.321686 -58.716 
L 218.445058 -58.716 
L 219.56843 -58.716 
L 220.691802 -58.716 
L 221.815175 -58.716 
L 222.938547 -58.716 
L 224.061919 -58.716 
L 225.185291 -58.716 
L 226.308663 -58.716 
L 227.432035 -58.716 
L 228.555407 -58.716 
L 229.678779 -58.716 
L 230.802152 -58.716 
L 231.925524 -58.716 
L 233.048896 -58.716 
L 234.172268 -58.716 
L 235.29564 -58.716 
L 236.419012 -58.716 
L 237.542384 -58.716 
L 238.665757 -58.716 
L 239.789129 -58.716 
L 240.912501 -58.716 
L 242.035873 -58.716 
L 243.159245 -58.716 
L 244.282617 -58.716 
L 245.405989 -58.716 
L 246.529361 -58.716 
L 247.652734 -58.716 
L 248.776106 -58.716 
L 249.899478 -58.716 
L 251.02285 -58.716 
L 252.146222 -58.716 
L 253.269594 -58.716 
L 254.392966 -58.716 
L 255.516338 -58.716 
L 256.639711 -58.716 
L 257.763083 -58.716 
L 258.886455 -58.716 
L 260.009827 -58.716 
L 261.133199 -58.716 
L 262.256571 -58.716 
L 263.379943 -58.716 
L 264.503316 -58.716 
L 265.626688 -58.716 
L 266.75006 -58.716 
L 267.873432 -58.716 
L 268.996804 -58.716 
L 270.120176 -58.716 
L 271.243548 -58.716 
L 272.36692 -58.716 
L 273.490293 -58.716 
L 274.613665 -58.716 
L 275.737037 -58.716 
L 276.860409 -58.716 
L 277.983781 -58.716 
L 279.107153 -58.716 
L 280.230525 -58.716 
L 281.353897 -58.716 
L 282.47727 -58.716 
L 283.600642 -58.716 
L 284.724014 -58.716 
L 285.847386 -58.716 
L 286.970758 -58.716 
L 288.09413 -58.716 
L 289.217502 -58.716 
L 290.340874 -58.716 
L 291.464247 -58.716 
L 292.587619 -58.716 
L 293.710991 -58.716 
L 294.834363 -58.716 
L 295.957735 -58.716 
L 297.081107 -58.716 
L 298.204479 -58.716 
L 299.327852 -58.716 
L 300.451224 -58.716 
L 301.574596 -58.716 
L 302.697968 -58.716 
L 303.82134 -58.716 
L 304.944712 -58.716 
L 306.068084 -58.716 
L 307.191456 -58.716 
L 308.314829 -58.716 
L 309.438201 -58.716 
L 310.561573 -58.716 
L 311.684945 -58.716 
L 312.808317 -58.716 
L 313.931689 -58.716 
L 315.055061 -58.716 
L 316.178433 -58.716 
L 317.301806 -58.716 
L 318.425178 -58.716 
L 319.54855 -58.716 
L 320.671922 -58.716 
L 321.795294 -58.716 
L 322.918666 -58.716 
L 324.042038 -58.716 
L 325.165411 -58.716 
L 326.288783 -58.716 
L 327.412155 -58.716 
L 328.535527 -58.716 
L 329.658899 -58.716 
L 330.782271 -58.716 
L 331.905643 -58.716 
L 333.029015 -58.716 
L 334.152388 -58.716 
L 335.27576 -58.716 
L 336.399132 -58.716 
L 337.522504 -58.716 
L 338.645876 -58.716 
L 339.769248 -58.716 
L 340.89262 -58.716 
L 342.015992 -58.716 
L 343.139365 -58.716 
L 344.262737 -58.716 
L 345.386109 -58.716 
L 346.509481 -58.716 
L 347.632853 -58.716 
L 348.756225 -58.716 
L 349.879597 -58.716 
L 351.002969 -58.716 
L 352.126342 -58.716 
L 353.249714 -58.716 
L 354.373086 -58.716 
L 355.496458 -58.716 
L 356.61983 -58.716 
L 357.743202 -58.716 
L 358.866574 -58.716 
L 359.989947 -58.716 
L 361.113319 -58.716 
L 362.236691 -58.716 
L 363.360063 -58.716 
L 364.483435 -58.716 
L 365.606807 -58.716 
L 366.730179 -58.716 
L 367.853551 -58.716 
L 368.976924 -58.716 
L 370.100296 -58.716 
L 371.223668 -58.716 
L 372.34704 -58.716 
L 373.470412 -58.716 
L 374.593784 -58.716 
L 375.717156 -58.716 
L 376.840528 -58.716 
L 377.963901 -58.716 
L 379.087273 -58.716 
L 379.087273 -58.716 
L 379.087273 -58.716 
L 377.963901 -58.716 
L 376.840528 -58.716 
L 375.717156 -58.716 
L 374.593784 -58.716 
L 373.470412 -58.716 
L 372.34704 -58.716 
L 371.223668 -58.716 
L 370.100296 -58.716 
L 368.976924 -58.716 
L 367.853551 -58.716 
L 366.730179 -58.716 
L 365.606807 -58.716 
L 364.483435 -58.716 
L 363.360063 -58.716 
L 362.236691 -58.716 
L 361.113319 -58.716 
L 359.989947 -58.716 
L 358.866574 -58.716 
L 357.743202 -58.716 
L 356.61983 -58.716 
L 355.496458 -58.716 
L 354.373086 -58.716 
L 353.249714 -58.716 
L 352.126342 -58.716 
L 351.002969 -58.716 
L 349.879597 -58.716 
L 348.756225 -58.716 
L 347.632853 -58.716 
L 346.509481 -58.716 
L 345.386109 -58.716 
L 344.262737 -58.716 
L 343.139365 -58.716 
L 342.015992 -58.716 
L 340.89262 -58.716 
L 339.769248 -58.716 
L 338.645876 -58.716 
L 337.522504 -58.716 
L 336.399132 -58.716 
L 335.27576 -58.716 
L 334.152388 -58.716 
L 333.029015 -58.716 
L 331.905643 -58.716 
L 330.782271 -58.716 
L 329.658899 -58.716 
L 328.535527 -58.716 
L 327.412155 -58.716 
L 326.288783 -58.716 
L 325.165411 -58.716 
L 324.042038 -58.716 
L 322.918666 -58.716 
L 321.795294 -58.716 
L 320.671922 -58.716 
L 319.54855 -58.716 
L 318.425178 -58.716 
L 317.301806 -58.716 
L 316.178433 -58.716 
L 315.055061 -58.716 
L 313.931689 -58.716 
L 312.808317 -58.716 
L 311.684945 -58.716 
L 310.561573 -58.716 
L 309.438201 -58.716 
L 308.314829 -58.716 
L 307.191456 -58.716 
L 306.068084 -58.716 
L 304.944712 -58.716 
L 303.82134 -58.716 
L 302.697968 -58.716 
L 301.574596 -58.716 
L 300.451224 -58.716 
L 299.327852 -58.716 
L 298.204479 -58.716 
L 297.081107 -58.716 
L 295.957735 -58.716 
L 294.834363 -58.716 
L 293.710991 -58.716 
L 292.587619 -58.716 
L 291.464247 -58.716 
L 290.340874 -58.716 
L 289.217502 -58.716 
L 288.09413 -58.716 
L 286.970758 -58.716 
L 285.847386 -58.716 
L 284.724014 -58.716 
L 283.600642 -58.716 
L 282.47727 -58.716 
L 281.353897 -58.716 
L 280.230525 -58.716 
L 279.107153 -58.716 
L 277.983781 -58.716 
L 276.860409 -58.716 
L 275.737037 -58.716 
L 274.613665 -58.716 
L 273.490293 -58.716 
L 272.36692 -58.716 
L 271.243548 -58.716 
L 270.120176 -58.716 
L 268.996804 -58.716 
L 267.873432 -58.716 
L 266.75006 -58.716 
L 265.626688 -58.716 
L 264.503316 -58.716 
L 263.379943 -58.716 
L 262.256571 -58.716 
L 261.133199 -58.716 
L 260.009827 -58.716 
L 258.886455 -58.716 
L 257.763083 -58.716 
L 256.639711 -58.716 
L 255.516338 -58.716 
L 254.392966 -58.716 
L 253.269594 -58.716 
L 252.146222 -58.716 
L 251.02285 -58.716 
L 249.899478 -58.716 
L 248.776106 -58.716 
L 247.652734 -58.716 
L 246.529361 -58.716 
L 245.405989 -58.716 
L 244.282617 -58.716 
L 243.159245 -58.716 
L 242.035873 -58.716 
L 240.912501 -58.716 
L 239.789129 -58.716 
L 238.665757 -58.716 
L 237.542384 -58.716 
L 236.419012 -58.716 
L 235.29564 -58.716 
L 234.172268 -58.716 
L 233.048896 -58.716 
L 231.925524 -58.716 
L 230.802152 -58.716 
L 229.678779 -58.716 
L 228.555407 -58.716 
L 227.432035 -58.716 
L 226.308663 -58.716 
L 225.185291 -58.716 
L 224.061919 -58.716 
L 222.938547 -58.716 
L 221.815175 -58.716 
L 220.691802 -58.716 
L 219.56843 -58.716 
L 218.445058 -58.716 
L 217.321686 -58.716 
L 216.198314 -58.716 
L 215.074942 -58.716 
L 213.95157 -58.716 
L 212.828198 -58.716 
L 211.704825 -58.716 
L 210.581453 -58.716 
L 209.458081 -58.716 
L 208.334709 -58.716 
L 207.211337 -58.716 
L 206.087965 -58.716 
L 204.964593 -58.716 
L 203.841221 -58.716 
L 202.717848 -58.716 
L 201.594476 -58.716 
L 200.471104 -58.716 
L 199.347732 -58.716 
L 198.22436 -58.716 
L 197.100988 -58.716 
L 195.977616 -58.716 
L 194.854243 -58.716 
L 193.730871 -58.716 
L 192.607499 -58.716 
L 191.484127 -58.716 
L 190.360755 -58.716 
L 189.237383 -58.716 
L 188.114011 -59.027753 
L 186.990639 -59.027753 
L 185.867266 -59.027753 
L 184.743894 -59.027753 
L 183.620522 -59.027753 
L 182.49715 -59.027753 
L 181.373778 -59.027753 
L 180.250406 -59.027753 
L 179.127034 -59.027753 
L 178.003662 -59.027753 
L 176.880289 -59.339505 
L 175.756917 -59.339505 
L 174.633545 -59.339505 
L 173.510173 -59.339505 
L 172.386801 -59.339505 
L 171.263429 -59.339505 
L 170.140057 -59.339505 
L 169.016684 -59.339505 
L 167.893312 -59.339505 
L 166.76994 -59.339505 
L 165.646568 -60.274763 
L 164.523196 -60.274763 
L 163.399824 -60.274763 
L 162.276452 -60.274763 
L 161.15308 -60.274763 
L 160.029707 -60.274763 
L 158.906335 -60.274763 
L 157.782963 -60.274763 
L 156.659591 -60.274763 
L 155.536219 -60.274763 
L 154.412847 -62.145278 
L 153.289475 -62.145278 
L 152.166103 -62.145278 
L 151.04273 -62.145278 
L 149.919358 -62.145278 
L 148.795986 -62.145278 
L 147.672614 -62.145278 
L 146.549242 -62.145278 
L 145.42587 -62.145278 
L 144.302498 -62.145278 
L 143.179126 -65.886309 
L 142.055753 -65.886309 
L 140.932381 -65.886309 
L 139.809009 -65.886309 
L 138.685637 -65.886309 
L 137.562265 -65.886309 
L 136.438893 -65.886309 
L 135.315521 -65.886309 
L 134.192148 -65.886309 
L 133.068776 -65.886309 
L 131.945404 -70.344371 
L 130.822032 -70.344371 
L 129.69866 -70.344371 
L 128.575288 -70.344371 
L 127.451916 -70.344371 
L 126.328544 -70.344371 
L 125.205171 -70.344371 
L 124.081799 -70.344371 
L 122.958427 -70.344371 
L 121.835055 -70.344371 
L 120.711683 -77.109402 
L 119.588311 -77.109402 
L 118.464939 -77.109402 
L 117.341567 -77.109402 
L 116.218194 -77.109402 
L 115.094822 -77.109402 
L 113.97145 -77.109402 
L 112.848078 -77.109402 
L 111.724706 -77.109402 
L 110.601334 -77.109402 
L 109.477962 -83.437979 
L 108.354589 -83.437979 
L 107.231217 -83.437979 
L 106.107845 -83.437979 
L 104.984473 -83.437979 
L 103.861101 -83.437979 
L 102.737729 -83.437979 
L 101.614357 -83.437979 
L 100.490985 -83.437979 
L 99.367612 -83.437979 
L 98.24424 -91.450021 
L 97.120868 -91.450021 
L 95.997496 -91.450021 
L 94.874124 -91.450021 
L 93.750752 -91.450021 
L 92.62738 -91.450021 
L 91.504008 -91.450021 
L 90.380635 -91.450021 
L 89.257263 -91.450021 
L 88.133891 -91.450021 
L 87.010519 -97.685072 
L 85.887147 -97.685072 
L 84.763775 -97.685072 
L 83.640403 -97.685072 
L 82.517031 -97.685072 
L 81.393658 -97.685072 
L 80.270286 -97.685072 
L 79.146914 -97.685072 
L 78.023542 -97.685072 
L 76.90017 -97.685072 
L 75.776798 -92.790557 
L 74.653426 -92.790557 
L 73.530053 -92.790557 
L 72.406681 -92.790557 
L 71.283309 -92.790557 
L 70.159937 -92.790557 
L 69.036565 -92.790557 
L 67.913193 -92.790557 
L 66.789821 -92.790557 
L 65.666449 -92.790557 
L 64.543076 -261.043423 
L 63.419704 -261.043423 
L 62.296332 -261.043423 
L 61.17296 -261.043423 
L 60.049588 -261.043423 
L 58.926216 -261.043423 
L 57.802844 -261.043423 
L 56.679472 -261.043423 
L 55.556099 -261.043423 
L 54.432727 -261.043423 
z
" id="m598c249fcb" style="stroke:#b97c7c;"/>
    </defs>
    <g clip-path="url(#p52a8fa34d4)">
     <use style="fill:#b97c7c;stroke:#b97c7c;" x="0" xlink:href="#m598c249fcb" y="339.258"/>
    </g>
   </g>
   <g id="PolyCollection_4">
    <defs>
     <path d="M 54.432727 -245.268742 
L 54.432727 -214.280536 
L 55.556099 -214.280536 
L 56.679472 -214.280536 
L 57.802844 -214.280536 
L 58.926216 -214.280536 
L 60.049588 -214.280536 
L 61.17296 -214.280536 
L 62.296332 -214.280536 
L 63.419704 -214.280536 
L 64.543076 -214.280536 
L 65.666449 -73.056619 
L 66.789821 -73.056619 
L 67.913193 -73.056619 
L 69.036565 -73.056619 
L 70.159937 -73.056619 
L 71.283309 -73.056619 
L 72.406681 -73.056619 
L 73.530053 -73.056619 
L 74.653426 -73.056619 
L 75.776798 -73.056619 
L 76.90017 -81.473938 
L 78.023542 -81.473938 
L 79.146914 -81.473938 
L 80.270286 -81.473938 
L 81.393658 -81.473938 
L 82.517031 -81.473938 
L 83.640403 -81.473938 
L 84.763775 -81.473938 
L 85.887147 -81.473938 
L 87.010519 -81.473938 
L 88.133891 -79.603423 
L 89.257263 -79.603423 
L 90.380635 -79.603423 
L 91.504008 -79.603423 
L 92.62738 -79.603423 
L 93.750752 -79.603423 
L 94.874124 -79.603423 
L 95.997496 -79.603423 
L 97.120868 -79.603423 
L 98.24424 -79.603423 
L 99.367612 -73.056619 
L 100.490985 -73.056619 
L 101.614357 -73.056619 
L 102.737729 -73.056619 
L 103.861101 -73.056619 
L 104.984473 -73.056619 
L 106.107845 -73.056619 
L 107.231217 -73.056619 
L 108.354589 -73.056619 
L 109.477962 -73.056619 
L 110.601334 -66.821567 
L 111.724706 -66.821567 
L 112.848078 -66.821567 
L 113.97145 -66.821567 
L 115.094822 -66.821567 
L 116.218194 -66.821567 
L 117.341567 -66.821567 
L 118.464939 -66.821567 
L 119.588311 -66.821567 
L 120.711683 -66.821567 
L 121.835055 -62.457031 
L 122.958427 -62.457031 
L 124.081799 -62.457031 
L 125.205171 -62.457031 
L 126.328544 -62.457031 
L 127.451916 -62.457031 
L 128.575288 -62.457031 
L 129.69866 -62.457031 
L 130.822032 -62.457031 
L 131.945404 -62.457031 
L 133.068776 -59.96301 
L 134.192148 -59.96301 
L 135.315521 -59.96301 
L 136.438893 -59.96301 
L 137.562265 -59.96301 
L 138.685637 -59.96301 
L 139.809009 -59.96301 
L 140.932381 -59.96301 
L 142.055753 -59.96301 
L 143.179126 -59.96301 
L 144.302498 -59.214804 
L 145.42587 -59.214804 
L 146.549242 -59.214804 
L 147.672614 -59.214804 
L 148.795986 -59.214804 
L 149.919358 -59.214804 
L 151.04273 -59.214804 
L 152.166103 -59.214804 
L 153.289475 -59.214804 
L 154.412847 -59.214804 
L 155.536219 -58.716 
L 156.659591 -58.716 
L 157.782963 -58.716 
L 158.906335 -58.716 
L 160.029707 -58.716 
L 161.15308 -58.716 
L 162.276452 -58.716 
L 163.399824 -58.716 
L 164.523196 -58.716 
L 165.646568 -58.716 
L 166.76994 -58.716 
L 167.893312 -58.716 
L 169.016684 -58.716 
L 170.140057 -58.716 
L 171.263429 -58.716 
L 172.386801 -58.716 
L 173.510173 -58.716 
L 174.633545 -58.716 
L 175.756917 -58.716 
L 176.880289 -58.716 
L 178.003662 -58.716 
L 179.127034 -58.716 
L 180.250406 -58.716 
L 181.373778 -58.716 
L 182.49715 -58.716 
L 183.620522 -58.716 
L 184.743894 -58.716 
L 185.867266 -58.716 
L 186.990639 -58.716 
L 188.114011 -58.716 
L 189.237383 -58.716 
L 190.360755 -58.716 
L 191.484127 -58.716 
L 192.607499 -58.716 
L 193.730871 -58.716 
L 194.854243 -58.716 
L 195.977616 -58.716 
L 197.100988 -58.716 
L 198.22436 -58.716 
L 199.347732 -58.716 
L 200.471104 -58.716 
L 201.594476 -58.716 
L 202.717848 -58.716 
L 203.841221 -58.716 
L 204.964593 -58.716 
L 206.087965 -58.716 
L 207.211337 -58.716 
L 208.334709 -58.716 
L 209.458081 -58.716 
L 210.581453 -58.716 
L 211.704825 -58.716 
L 212.828198 -58.716 
L 213.95157 -58.716 
L 215.074942 -58.716 
L 216.198314 -58.716 
L 217.321686 -58.716 
L 218.445058 -58.716 
L 219.56843 -58.716 
L 220.691802 -58.716 
L 221.815175 -58.716 
L 222.938547 -58.716 
L 224.061919 -58.716 
L 225.185291 -58.716 
L 226.308663 -58.716 
L 227.432035 -58.716 
L 228.555407 -58.716 
L 229.678779 -58.716 
L 230.802152 -58.716 
L 231.925524 -58.716 
L 233.048896 -58.716 
L 234.172268 -58.716 
L 235.29564 -58.716 
L 236.419012 -58.716 
L 237.542384 -58.716 
L 238.665757 -58.716 
L 239.789129 -58.716 
L 240.912501 -58.716 
L 242.035873 -58.716 
L 243.159245 -58.716 
L 244.282617 -58.716 
L 245.405989 -58.716 
L 246.529361 -58.716 
L 247.652734 -58.716 
L 248.776106 -58.716 
L 249.899478 -58.716 
L 251.02285 -58.716 
L 252.146222 -58.716 
L 253.269594 -58.716 
L 254.392966 -58.716 
L 255.516338 -58.716 
L 256.639711 -58.716 
L 257.763083 -58.716 
L 258.886455 -58.716 
L 260.009827 -58.716 
L 261.133199 -58.716 
L 262.256571 -58.716 
L 263.379943 -58.716 
L 264.503316 -58.716 
L 265.626688 -58.716 
L 266.75006 -58.716 
L 267.873432 -58.716 
L 268.996804 -58.716 
L 270.120176 -58.716 
L 271.243548 -58.716 
L 272.36692 -58.716 
L 273.490293 -58.716 
L 274.613665 -58.716 
L 275.737037 -58.716 
L 276.860409 -58.716 
L 277.983781 -58.716 
L 279.107153 -58.716 
L 280.230525 -58.716 
L 281.353897 -58.716 
L 282.47727 -58.716 
L 283.600642 -58.716 
L 284.724014 -58.716 
L 285.847386 -58.716 
L 286.970758 -58.716 
L 288.09413 -58.716 
L 289.217502 -58.716 
L 290.340874 -58.716 
L 291.464247 -58.716 
L 292.587619 -58.716 
L 293.710991 -58.716 
L 294.834363 -58.716 
L 295.957735 -58.716 
L 297.081107 -58.716 
L 298.204479 -58.716 
L 299.327852 -58.716 
L 300.451224 -58.716 
L 301.574596 -58.716 
L 302.697968 -58.716 
L 303.82134 -58.716 
L 304.944712 -58.716 
L 306.068084 -58.716 
L 307.191456 -58.716 
L 308.314829 -58.716 
L 309.438201 -58.716 
L 310.561573 -58.716 
L 311.684945 -58.716 
L 312.808317 -58.716 
L 313.931689 -58.716 
L 315.055061 -58.716 
L 316.178433 -58.716 
L 317.301806 -58.716 
L 318.425178 -58.716 
L 319.54855 -58.716 
L 320.671922 -58.716 
L 321.795294 -58.716 
L 322.918666 -58.716 
L 324.042038 -58.716 
L 325.165411 -58.716 
L 326.288783 -58.716 
L 327.412155 -58.716 
L 328.535527 -58.716 
L 329.658899 -58.716 
L 330.782271 -58.716 
L 331.905643 -58.716 
L 333.029015 -58.716 
L 334.152388 -58.716 
L 335.27576 -58.716 
L 336.399132 -58.716 
L 337.522504 -58.716 
L 338.645876 -58.716 
L 339.769248 -58.716 
L 340.89262 -58.716 
L 342.015992 -58.716 
L 343.139365 -58.716 
L 344.262737 -58.716 
L 345.386109 -58.716 
L 346.509481 -58.716 
L 347.632853 -58.716 
L 348.756225 -58.716 
L 349.879597 -58.716 
L 351.002969 -58.716 
L 352.126342 -58.716 
L 353.249714 -58.716 
L 354.373086 -58.716 
L 355.496458 -58.716 
L 356.61983 -58.716 
L 357.743202 -58.716 
L 358.866574 -58.716 
L 359.989947 -58.716 
L 361.113319 -58.716 
L 362.236691 -58.716 
L 363.360063 -58.716 
L 364.483435 -58.716 
L 365.606807 -58.716 
L 366.730179 -58.716 
L 367.853551 -58.716 
L 368.976924 -58.716 
L 370.100296 -58.716 
L 371.223668 -58.716 
L 372.34704 -58.716 
L 373.470412 -58.716 
L 374.593784 -58.716 
L 375.717156 -58.716 
L 376.840528 -58.716 
L 377.963901 -58.716 
L 379.087273 -58.716 
L 379.087273 -58.716 
L 379.087273 -58.716 
L 377.963901 -58.716 
L 376.840528 -58.716 
L 375.717156 -58.716 
L 374.593784 -58.716 
L 373.470412 -58.716 
L 372.34704 -58.716 
L 371.223668 -58.716 
L 370.100296 -58.716 
L 368.976924 -58.716 
L 367.853551 -58.716 
L 366.730179 -58.716 
L 365.606807 -58.716 
L 364.483435 -58.716 
L 363.360063 -58.716 
L 362.236691 -58.716 
L 361.113319 -58.716 
L 359.989947 -58.716 
L 358.866574 -58.716 
L 357.743202 -58.716 
L 356.61983 -58.716 
L 355.496458 -58.716 
L 354.373086 -58.716 
L 353.249714 -58.716 
L 352.126342 -58.716 
L 351.002969 -58.716 
L 349.879597 -58.716 
L 348.756225 -58.716 
L 347.632853 -58.716 
L 346.509481 -58.716 
L 345.386109 -58.716 
L 344.262737 -58.716 
L 343.139365 -58.716 
L 342.015992 -58.716 
L 340.89262 -58.716 
L 339.769248 -58.716 
L 338.645876 -58.716 
L 337.522504 -58.716 
L 336.399132 -58.716 
L 335.27576 -58.716 
L 334.152388 -58.716 
L 333.029015 -58.716 
L 331.905643 -58.716 
L 330.782271 -58.716 
L 329.658899 -58.716 
L 328.535527 -58.716 
L 327.412155 -58.716 
L 326.288783 -58.716 
L 325.165411 -58.716 
L 324.042038 -58.716 
L 322.918666 -58.716 
L 321.795294 -58.716 
L 320.671922 -58.716 
L 319.54855 -58.716 
L 318.425178 -58.716 
L 317.301806 -58.716 
L 316.178433 -58.716 
L 315.055061 -58.716 
L 313.931689 -58.716 
L 312.808317 -58.716 
L 311.684945 -58.716 
L 310.561573 -58.716 
L 309.438201 -58.716 
L 308.314829 -58.716 
L 307.191456 -58.716 
L 306.068084 -58.716 
L 304.944712 -58.716 
L 303.82134 -58.716 
L 302.697968 -58.716 
L 301.574596 -58.716 
L 300.451224 -58.716 
L 299.327852 -58.716 
L 298.204479 -58.716 
L 297.081107 -58.716 
L 295.957735 -58.716 
L 294.834363 -58.716 
L 293.710991 -58.716 
L 292.587619 -58.716 
L 291.464247 -58.716 
L 290.340874 -58.716 
L 289.217502 -58.716 
L 288.09413 -58.716 
L 286.970758 -58.716 
L 285.847386 -58.716 
L 284.724014 -58.716 
L 283.600642 -58.716 
L 282.47727 -58.716 
L 281.353897 -58.716 
L 280.230525 -58.716 
L 279.107153 -58.716 
L 277.983781 -58.716 
L 276.860409 -58.716 
L 275.737037 -58.716 
L 274.613665 -58.716 
L 273.490293 -58.716 
L 272.36692 -58.716 
L 271.243548 -58.716 
L 270.120176 -58.716 
L 268.996804 -58.716 
L 267.873432 -58.716 
L 266.75006 -58.716 
L 265.626688 -58.716 
L 264.503316 -58.716 
L 263.379943 -58.716 
L 262.256571 -58.716 
L 261.133199 -58.716 
L 260.009827 -58.716 
L 258.886455 -58.716 
L 257.763083 -58.716 
L 256.639711 -58.716 
L 255.516338 -58.716 
L 254.392966 -58.716 
L 253.269594 -58.716 
L 252.146222 -58.716 
L 251.02285 -58.716 
L 249.899478 -58.716 
L 248.776106 -58.716 
L 247.652734 -58.716 
L 246.529361 -58.716 
L 245.405989 -58.716 
L 244.282617 -58.716 
L 243.159245 -58.716 
L 242.035873 -58.716 
L 240.912501 -58.716 
L 239.789129 -58.716 
L 238.665757 -58.716 
L 237.542384 -58.716 
L 236.419012 -58.716 
L 235.29564 -58.716 
L 234.172268 -58.716 
L 233.048896 -58.716 
L 231.925524 -58.716 
L 230.802152 -58.716 
L 229.678779 -58.716 
L 228.555407 -58.716 
L 227.432035 -58.716 
L 226.308663 -58.716 
L 225.185291 -58.716 
L 224.061919 -58.716 
L 222.938547 -58.716 
L 221.815175 -58.716 
L 220.691802 -58.716 
L 219.56843 -58.716 
L 218.445058 -58.716 
L 217.321686 -58.716 
L 216.198314 -58.716 
L 215.074942 -58.716 
L 213.95157 -58.716 
L 212.828198 -58.716 
L 211.704825 -58.716 
L 210.581453 -58.716 
L 209.458081 -58.716 
L 208.334709 -58.716 
L 207.211337 -58.716 
L 206.087965 -58.716 
L 204.964593 -58.716 
L 203.841221 -58.716 
L 202.717848 -58.716 
L 201.594476 -58.716 
L 200.471104 -58.716 
L 199.347732 -58.716 
L 198.22436 -58.716 
L 197.100988 -58.716 
L 195.977616 -58.716 
L 194.854243 -58.716 
L 193.730871 -58.716 
L 192.607499 -58.716 
L 191.484127 -58.716 
L 190.360755 -58.716 
L 189.237383 -58.716 
L 188.114011 -58.716 
L 186.990639 -58.716 
L 185.867266 -58.716 
L 184.743894 -58.716 
L 183.620522 -58.716 
L 182.49715 -58.716 
L 181.373778 -58.716 
L 180.250406 -58.716 
L 179.127034 -58.716 
L 178.003662 -58.716 
L 176.880289 -59.027753 
L 175.756917 -59.027753 
L 174.633545 -59.027753 
L 173.510173 -59.027753 
L 172.386801 -59.027753 
L 171.263429 -59.027753 
L 170.140057 -59.027753 
L 169.016684 -59.027753 
L 167.893312 -59.027753 
L 166.76994 -59.027753 
L 165.646568 -59.339505 
L 164.523196 -59.339505 
L 163.399824 -59.339505 
L 162.276452 -59.339505 
L 161.15308 -59.339505 
L 160.029707 -59.339505 
L 158.906335 -59.339505 
L 157.782963 -59.339505 
L 156.659591 -59.339505 
L 155.536219 -59.339505 
L 154.412847 -60.586515 
L 153.289475 -60.586515 
L 152.166103 -60.586515 
L 151.04273 -60.586515 
L 149.919358 -60.586515 
L 148.795986 -60.586515 
L 147.672614 -60.586515 
L 146.549242 -60.586515 
L 145.42587 -60.586515 
L 144.302498 -60.586515 
L 143.179126 -63.080536 
L 142.055753 -63.080536 
L 140.932381 -63.080536 
L 139.809009 -63.080536 
L 138.685637 -63.080536 
L 137.562265 -63.080536 
L 136.438893 -63.080536 
L 135.315521 -63.080536 
L 134.192148 -63.080536 
L 133.068776 -63.080536 
L 131.945404 -66.821567 
L 130.822032 -66.821567 
L 129.69866 -66.821567 
L 128.575288 -66.821567 
L 127.451916 -66.821567 
L 126.328544 -66.821567 
L 125.205171 -66.821567 
L 124.081799 -66.821567 
L 122.958427 -66.821567 
L 121.835055 -66.821567 
L 120.711683 -73.056619 
L 119.588311 -73.056619 
L 118.464939 -73.056619 
L 117.341567 -73.056619 
L 116.218194 -73.056619 
L 115.094822 -73.056619 
L 113.97145 -73.056619 
L 112.848078 -73.056619 
L 111.724706 -73.056619 
L 110.601334 -73.056619 
L 109.477962 -79.915175 
L 108.354589 -79.915175 
L 107.231217 -79.915175 
L 106.107845 -79.915175 
L 104.984473 -79.915175 
L 103.861101 -79.915175 
L 102.737729 -79.915175 
L 101.614357 -79.915175 
L 100.490985 -79.915175 
L 99.367612 -79.915175 
L 98.24424 -87.085485 
L 97.120868 -87.085485 
L 95.997496 -87.085485 
L 94.874124 -87.085485 
L 93.750752 -87.085485 
L 92.62738 -87.085485 
L 91.504008 -87.085485 
L 90.380635 -87.085485 
L 89.257263 -87.085485 
L 88.133891 -87.085485 
L 87.010519 -91.761773 
L 85.887147 -91.761773 
L 84.763775 -91.761773 
L 83.640403 -91.761773 
L 82.517031 -91.761773 
L 81.393658 -91.761773 
L 80.270286 -91.761773 
L 79.146914 -91.761773 
L 78.023542 -91.761773 
L 76.90017 -91.761773 
L 75.776798 -85.838474 
L 74.653426 -85.838474 
L 73.530053 -85.838474 
L 72.406681 -85.838474 
L 71.283309 -85.838474 
L 70.159937 -85.838474 
L 69.036565 -85.838474 
L 67.913193 -85.838474 
L 66.789821 -85.838474 
L 65.666449 -85.838474 
L 64.543076 -245.268742 
L 63.419704 -245.268742 
L 62.296332 -245.268742 
L 61.17296 -245.268742 
L 60.049588 -245.268742 
L 58.926216 -245.268742 
L 57.802844 -245.268742 
L 56.679472 -245.268742 
L 55.556099 -245.268742 
L 54.432727 -245.268742 
z
" id="mf45fc17b4d" style="stroke:#a25050;"/>
    </defs>
    <g clip-path="url(#p52a8fa34d4)">
     <use style="fill:#a25050;stroke:#a25050;" x="0" xlink:href="#mf45fc17b4d" y="339.258"/>
    </g>
   </g>
   <g id="matplotlib.axis_1">
    <g id="xtick_1">
     <g id="line2d_1">
      <defs>
       <path d="M 0 0 
L 0 3.5 
" id="m1cc3e321f0" style="stroke:#000000;stroke-width:0.8;"/>
      </defs>
      <g>
       <use style="stroke:#000000;stroke-width:0.8;" x="54.432727" xlink:href="#m1cc3e321f0" y="292.638"/>
      </g>
     </g>
     <g id="text_1">
      <!-- 0 -->
      <g transform="translate(50.432727 310.743)scale(0.16 -0.16)">
       <defs>
        <path d="M 2925 2086 
C 2925 2592 2899 3187 2630 3706 
C 2368 4186 1926 4339 1600 4339 
C 1222 4339 774 4166 512 3597 
C 301 3130 269 2598 269 2086 
C 269 1581 294 1114 486 646 
C 742 32 1229 -141 1594 -141 
C 2061 -141 2464 122 2669 563 
C 2861 979 2925 1402 2925 2086 
z
M 2426 2163 
C 2426 1741 2426 1338 2310 934 
C 2144 352 1805 250 1600 250 
C 1267 250 1005 493 877 954 
C 774 1318 768 1664 768 2163 
C 768 2566 768 2950 877 3302 
C 915 3424 1075 3949 1594 3949 
C 2093 3949 2259 3462 2304 3347 
C 2426 2989 2426 2560 2426 2163 
z
" id="LMSans10-Regular-30" transform="scale(0.015625)"/>
       </defs>
       <use xlink:href="#LMSans10-Regular-30"/>
      </g>
     </g>
    </g>
    <g id="xtick_2">
     <g id="line2d_2">
      <g>
       <use style="stroke:#000000;stroke-width:0.8;" x="110.407649" xlink:href="#m1cc3e321f0" y="292.638"/>
      </g>
     </g>
     <g id="text_2">
      <!-- 5 -->
      <g transform="translate(106.407649 310.743)scale(0.16 -0.16)">
       <defs>
        <path d="M 2874 1299 
C 2874 2099 2323 2733 1664 2733 
C 1408 2733 1165 2637 979 2470 
L 979 3789 
L 2662 3789 
L 2662 4198 
L 518 4198 
L 518 1837 
L 941 1837 
C 1050 2093 1286 2342 1658 2342 
C 1958 2342 2304 2080 2304 1312 
C 2304 250 1523 250 1466 250 
C 1037 250 646 499 461 845 
L 250 486 
C 512 122 954 -141 1472 -141 
C 2234 -141 2874 493 2874 1299 
z
" id="LMSans10-Regular-35" transform="scale(0.015625)"/>
       </defs>
       <use xlink:href="#LMSans10-Regular-35"/>
      </g>
     </g>
    </g>
    <g id="xtick_3">
     <g id="line2d_3">
      <g>
       <use style="stroke:#000000;stroke-width:0.8;" x="166.382571" xlink:href="#m1cc3e321f0" y="292.638"/>
      </g>
     </g>
     <g id="text_3">
      <!-- 10 -->
      <g transform="translate(158.382571 310.743)scale(0.16 -0.16)">
       <defs>
        <path d="M 2714 0 
L 2714 371 
L 1914 371 
L 1914 4339 
L 1786 4339 
C 1408 3949 877 3930 570 3917 
L 570 3546 
C 781 3552 1088 3565 1408 3699 
L 1408 371 
L 608 371 
L 608 0 
L 2714 0 
z
" id="LMSans10-Regular-31" transform="scale(0.015625)"/>
       </defs>
       <use xlink:href="#LMSans10-Regular-31"/>
       <use x="49.999985" xlink:href="#LMSans10-Regular-30"/>
      </g>
     </g>
    </g>
    <g id="xtick_4">
     <g id="line2d_4">
      <g>
       <use style="stroke:#000000;stroke-width:0.8;" x="222.357492" xlink:href="#m1cc3e321f0" y="292.638"/>
      </g>
     </g>
     <g id="text_4">
      <!-- 15 -->
      <g transform="translate(214.357492 310.743)scale(0.16 -0.16)">
       <use xlink:href="#LMSans10-Regular-31"/>
       <use x="49.999985" xlink:href="#LMSans10-Regular-35"/>
      </g>
     </g>
    </g>
    <g id="xtick_5">
     <g id="line2d_5">
      <g>
       <use style="stroke:#000000;stroke-width:0.8;" x="278.332414" xlink:href="#m1cc3e321f0" y="292.638"/>
      </g>
     </g>
     <g id="text_5">
      <!-- 20 -->
      <g transform="translate(270.332414 310.743)scale(0.16 -0.16)">
       <defs>
        <path d="M 2874 0 
L 2874 454 
L 1709 454 
C 1632 454 1555 448 1478 448 
L 781 448 
C 986 627 1472 1107 1670 1293 
C 1792 1408 2118 1677 2240 1792 
C 2528 2080 2874 2419 2874 2963 
C 2874 3699 2355 4339 1510 4339 
C 781 4339 422 3840 269 3290 
C 346 3181 378 3142 390 3123 
C 403 3110 467 3027 531 2938 
C 659 3430 838 3930 1421 3930 
C 2022 3930 2349 3450 2349 2950 
C 2349 2406 1984 2042 1606 1658 
L 1114 1203 
L 320 410 
L 320 0 
L 2874 0 
z
" id="LMSans10-Regular-32" transform="scale(0.015625)"/>
       </defs>
       <use xlink:href="#LMSans10-Regular-32"/>
       <use x="49.999985" xlink:href="#LMSans10-Regular-30"/>
      </g>
     </g>
    </g>
    <g id="xtick_6">
     <g id="line2d_6">
      <g>
       <use style="stroke:#000000;stroke-width:0.8;" x="334.307335" xlink:href="#m1cc3e321f0" y="292.638"/>
      </g>
     </g>
     <g id="text_6">
      <!-- 25 -->
      <g transform="translate(326.307335 310.743)scale(0.16 -0.16)">
       <use xlink:href="#LMSans10-Regular-32"/>
       <use x="49.999985" xlink:href="#LMSans10-Regular-35"/>
      </g>
     </g>
    </g>
    <g id="xtick_7">
     <g id="line2d_7">
      <g>
       <use style="stroke:#000000;stroke-width:0.8;" x="390.282257" xlink:href="#m1cc3e321f0" y="292.638"/>
      </g>
     </g>
     <g id="text_7">
      <!-- 30 -->
      <g transform="translate(382.282257 310.743)scale(0.16 -0.16)">
       <defs>
        <path d="M 2925 1152 
C 2925 1734 2477 2131 2042 2266 
C 2528 2528 2752 2963 2752 3366 
C 2752 3917 2221 4339 1587 4339 
C 1094 4339 627 4083 358 3635 
L 589 3290 
C 774 3738 1190 3968 1581 3968 
C 1914 3968 2227 3776 2227 3366 
C 2227 2976 1965 2598 1574 2509 
C 1536 2502 1523 2502 1069 2464 
L 1069 2074 
L 1523 2074 
C 2214 2074 2355 1478 2355 1158 
C 2355 659 2061 250 1568 250 
C 1126 250 621 474 339 909 
L 269 525 
C 736 -77 1325 -141 1581 -141 
C 2362 -141 2925 480 2925 1152 
z
" id="LMSans10-Regular-33" transform="scale(0.015625)"/>
       </defs>
       <use xlink:href="#LMSans10-Regular-33"/>
       <use x="49.999985" xlink:href="#LMSans10-Regular-30"/>
      </g>
     </g>
    </g>
    <g id="text_8">
     <!-- y -->
     <g transform="translate(213.0725 328.778)scale(0.16 -0.16)">
      <defs>
       <path d="M 2854 2842 
L 2374 2842 
C 1542 806 1530 512 1523 365 
L 1517 365 
C 1478 794 966 1984 941 2042 
L 595 2842 
L 90 2842 
L 1331 0 
L 1101 -576 
C 934 -947 826 -947 736 -947 
C 634 -947 429 -922 237 -845 
L 275 -1261 
C 416 -1293 595 -1312 736 -1312 
C 960 -1312 1197 -1235 1459 -582 
L 2854 2842 
z
" id="LMSans10-Regular-79" transform="scale(0.015625)"/>
      </defs>
      <use xlink:href="#LMSans10-Regular-79"/>
     </g>
    </g>
   </g>
   <g id="matplotlib.axis_2">
    <g id="ytick_1">
     <g id="line2d_8">
      <defs>
       <path d="M 0 0 
L -3.5 0 
" id="m6ff82188d4" style="stroke:#000000;stroke-width:0.8;"/>
      </defs>
      <g>
       <use style="stroke:#000000;stroke-width:0.8;" x="38.2" xlink:href="#m6ff82188d4" y="280.542"/>
      </g>
     </g>
     <g id="text_9">
      <!-- 0 -->
      <g transform="translate(23.2 286.0945)scale(0.16 -0.16)">
       <use xlink:href="#LMSans10-Regular-30"/>
      </g>
     </g>
    </g>
    <g id="ytick_2">
     <g id="line2d_9">
      <g>
       <use style="stroke:#000000;stroke-width:0.8;" x="38.2" xlink:href="#m6ff82188d4" y="218.191485"/>
      </g>
     </g>
     <g id="text_10">
      <!-- 200 -->
      <g transform="translate(7.2 223.743985)scale(0.16 -0.16)">
       <use xlink:href="#LMSans10-Regular-32"/>
       <use x="49.999985" xlink:href="#LMSans10-Regular-30"/>
       <use x="99.999969" xlink:href="#LMSans10-Regular-30"/>
      </g>
     </g>
    </g>
    <g id="ytick_3">
     <g id="line2d_10">
      <g>
       <use style="stroke:#000000;stroke-width:0.8;" x="38.2" xlink:href="#m6ff82188d4" y="155.840969"/>
      </g>
     </g>
     <g id="text_11">
      <!-- 400 -->
      <g transform="translate(7.2 161.393469)scale(0.16 -0.16)">
       <defs>
        <path d="M 3014 1094 
L 3014 1485 
L 2381 1485 
L 2381 4198 
L 1798 4198 
L 179 1485 
L 179 1094 
L 1875 1094 
L 1875 0 
L 2381 0 
L 2381 1094 
L 3014 1094 
z
M 1914 1485 
L 678 1485 
C 1011 2035 1907 3552 1914 3917 
L 1914 1485 
z
" id="LMSans10-Regular-34" transform="scale(0.015625)"/>
       </defs>
       <use xlink:href="#LMSans10-Regular-34"/>
       <use x="49.999985" xlink:href="#LMSans10-Regular-30"/>
       <use x="99.999969" xlink:href="#LMSans10-Regular-30"/>
      </g>
     </g>
    </g>
    <g id="ytick_4">
     <g id="line2d_11">
      <g>
       <use style="stroke:#000000;stroke-width:0.8;" x="38.2" xlink:href="#m6ff82188d4" y="93.490454"/>
      </g>
     </g>
     <g id="text_12">
      <!-- 600 -->
      <g transform="translate(7.2 99.042954)scale(0.16 -0.16)">
       <defs>
        <path d="M 2925 1421 
C 2925 2240 2502 2957 1888 2957 
C 1683 2957 1197 2906 806 2426 
C 890 3456 1395 3968 1984 3968 
C 2227 3968 2432 3923 2656 3834 
L 2656 4211 
C 2330 4339 2067 4339 1978 4339 
C 1075 4339 269 3437 269 2061 
C 269 250 1062 -141 1606 -141 
C 1990 -141 2266 6 2515 294 
C 2803 621 2925 915 2925 1421 
z
M 2400 1421 
C 2400 1203 2400 909 2246 646 
C 2138 467 1971 250 1606 250 
C 928 250 832 1190 813 1402 
C 813 1491 813 1504 819 1581 
C 819 2054 1107 2566 1638 2566 
C 1946 2566 2125 2406 2253 2170 
C 2387 1933 2400 1709 2400 1421 
z
" id="LMSans10-Regular-36" transform="scale(0.015625)"/>
       </defs>
       <use xlink:href="#LMSans10-Regular-36"/>
       <use x="49.999985" xlink:href="#LMSans10-Regular-30"/>
       <use x="99.999969" xlink:href="#LMSans10-Regular-30"/>
      </g>
     </g>
    </g>
    <g id="ytick_5">
     <g id="line2d_12">
      <g>
       <use style="stroke:#000000;stroke-width:0.8;" x="38.2" xlink:href="#m6ff82188d4" y="31.139938"/>
      </g>
     </g>
     <g id="text_13">
      <!-- 800 -->
      <g transform="translate(7.2 36.692438)scale(0.16 -0.16)">
       <defs>
        <path d="M 2925 1152 
C 2925 1734 2477 2125 2048 2272 
C 2618 2458 2835 2880 2835 3219 
C 2835 3821 2291 4339 1600 4339 
C 883 4339 358 3808 358 3219 
C 358 2880 576 2458 1146 2272 
C 685 2112 269 1709 269 1152 
C 269 454 858 -141 1594 -141 
C 2355 -141 2925 474 2925 1152 
z
M 2387 3219 
C 2387 2758 2061 2464 1600 2464 
C 1107 2464 806 2778 806 3219 
C 806 3661 1120 3968 1594 3968 
C 2099 3968 2387 3635 2387 3219 
z
M 2406 1158 
C 2406 538 2010 250 1600 250 
C 1158 250 787 557 787 1158 
C 787 1830 1248 2074 1594 2074 
C 1965 2074 2406 1818 2406 1158 
z
" id="LMSans10-Regular-38" transform="scale(0.015625)"/>
       </defs>
       <use xlink:href="#LMSans10-Regular-38"/>
       <use x="49.999985" xlink:href="#LMSans10-Regular-30"/>
       <use x="99.999969" xlink:href="#LMSans10-Regular-30"/>
      </g>
     </g>
    </g>
   </g>
   <g id="line2d_13">
    <path clip-path="url(#p52a8fa34d4)" d="M 54.432727 107.51932 
L 64.543076 107.51932 
L 65.666449 259.654577 
L 75.776798 259.654577 
L 76.90017 252.796021 
L 87.010519 252.796021 
L 88.133891 255.601794 
L 98.24424 255.601794 
L 99.367612 262.772103 
L 109.477962 262.772103 
L 110.601334 269.63066 
L 120.711683 269.63066 
L 121.835055 274.618701 
L 131.945404 274.618701 
L 133.068776 278.047979 
L 143.179126 278.047979 
L 144.302498 279.606742 
L 154.412847 279.606742 
L 155.536219 280.230247 
L 165.646568 280.230247 
L 166.76994 280.542 
L 379.087273 280.542 
L 379.087273 280.542 
" style="fill:none;stroke:#7c0000;stroke-linecap:square;stroke-width:1.5;"/>
   </g>
   <g id="line2d_14">
    <path clip-path="url(#p52a8fa34d4)" d="M 334.307335 292.638 
L 334.307335 26.526 
" style="fill:none;stroke:#000000;stroke-linecap:square;stroke-width:2;"/>
   </g>
   <g id="patch_3">
    <path d="M 38.2 292.638 
L 38.2 26.526 
" style="fill:none;stroke:#000000;stroke-linecap:square;stroke-linejoin:miter;stroke-width:0.8;"/>
   </g>
   <g id="patch_4">
    <path d="M 395.32 292.638 
L 395.32 26.526 
" style="fill:none;stroke:#000000;stroke-linecap:square;stroke-linejoin:miter;stroke-width:0.8;"/>
   </g>
   <g id="patch_5">
    <path d="M 38.2 292.638 
L 395.32 292.638 
" style="fill:none;stroke:#000000;stroke-linecap:square;stroke-linejoin:miter;stroke-width:0.8;"/>
   </g>
   <g id="patch_6">
    <path d="M 38.2 26.526 
L 395.32 26.526 
" style="fill:none;stroke:#000000;stroke-linecap:square;stroke-linejoin:miter;stroke-width:0.8;"/>
   </g>
   <g id="text_14">
    <!-- Prior predictive distribution -->
    <g transform="translate(106.6615 20.526)scale(0.192 -0.192)">
     <defs>
      <path d="M 3725 3149 
C 3725 3834 3091 4442 2208 4442 
L 614 4442 
L 614 0 
L 1184 0 
L 1184 1850 
L 2253 1850 
C 3046 1850 3725 2432 3725 3149 
z
M 3206 3149 
C 3206 2643 2803 2221 2067 2221 
L 1165 2221 
L 1165 4083 
L 2067 4083 
C 2771 4083 3206 3693 3206 3149 
z
" id="LMSans10-Regular-50" transform="scale(0.015625)"/>
      <path d="M 2093 2483 
L 2093 2912 
C 1523 2906 1171 2592 973 2298 
L 973 2880 
L 525 2880 
L 525 0 
L 1005 0 
L 1005 1370 
C 1005 2010 1466 2470 2093 2483 
z
" id="LMSans10-Regular-72" transform="scale(0.015625)"/>
      <path d="M 998 0 
L 998 2842 
L 518 2842 
L 518 0 
L 998 0 
z
M 1050 3622 
L 1050 4192 
L 480 4192 
L 480 3622 
L 1050 3622 
z
" id="LMSans10-Regular-69" transform="scale(0.015625)"/>
      <path d="M 3002 1408 
C 3002 2266 2362 2950 1600 2950 
C 813 2950 192 2246 192 1408 
C 192 563 845 -70 1594 -70 
C 2362 -70 3002 576 3002 1408 
z
M 2502 1472 
C 2502 717 2067 339 1594 339 
C 1152 339 691 698 691 1472 
C 691 2246 1178 2560 1594 2560 
C 2042 2560 2502 2227 2502 1472 
z
" id="LMSans10-Regular-6f" transform="scale(0.015625)"/>
      <path id="LMSans10-Regular-20" transform="scale(0.015625)"/>
      <path d="M 3072 1427 
C 3072 2195 2669 2912 2054 2912 
C 1670 2912 1299 2778 1005 2528 
L 1005 2842 
L 525 2842 
L 525 -1242 
L 1024 -1242 
L 1024 294 
C 1222 109 1504 -70 1888 -70 
C 2509 -70 3072 557 3072 1427 
z
M 2573 1427 
C 2573 768 2118 320 1638 320 
C 1389 320 1216 448 1088 621 
C 1024 717 1024 730 1024 845 
L 1024 2131 
C 1178 2355 1427 2502 1702 2502 
C 2189 2502 2573 2016 2573 1427 
z
" id="LMSans10-Regular-70" transform="scale(0.015625)"/>
      <path d="M 2650 1402 
C 2650 1619 2643 2099 2394 2483 
C 2131 2880 1741 2950 1510 2950 
C 800 2950 224 2272 224 1446 
C 224 602 838 -70 1606 -70 
C 2010 -70 2374 83 2624 262 
L 2586 678 
C 2182 346 1760 320 1613 320 
C 1101 320 691 774 672 1402 
L 2650 1402 
z
M 2285 1754 
L 704 1754 
C 806 2240 1146 2560 1510 2560 
C 1843 2560 2202 2342 2285 1754 
z
" id="LMSans10-Regular-65" transform="scale(0.015625)"/>
      <path d="M 2778 0 
L 2778 4442 
L 2298 4442 
L 2298 2560 
C 1958 2842 1600 2912 1363 2912 
C 730 2912 230 2246 230 1421 
C 230 582 723 -70 1331 -70 
C 1542 -70 1920 -13 2278 333 
L 2278 0 
L 2778 0 
z
M 2278 890 
C 2278 800 2272 685 2067 499 
C 1920 371 1760 320 1594 320 
C 1197 320 730 621 730 1414 
C 730 2259 1280 2522 1658 2522 
C 1946 2522 2138 2374 2278 2170 
L 2278 890 
z
" id="LMSans10-Regular-64" transform="scale(0.015625)"/>
      <path d="M 2656 256 
L 2618 685 
C 2291 429 1946 339 1619 339 
C 1088 339 730 800 730 1427 
C 730 1926 966 2541 1645 2541 
C 1978 2541 2195 2490 2547 2259 
L 2624 2675 
C 2246 2893 2029 2950 1638 2950 
C 749 2950 230 2176 230 1421 
C 230 627 813 -70 1613 -70 
C 1958 -70 2310 19 2656 256 
z
" id="LMSans10-Regular-63" transform="scale(0.015625)"/>
      <path d="M 2125 173 
L 2022 550 
C 1856 416 1651 339 1446 339 
C 1210 339 1120 531 1120 870 
L 1120 2470 
L 2022 2470 
L 2022 2842 
L 1120 2842 
L 1120 3654 
L 678 3654 
L 678 2842 
L 122 2842 
L 122 2470 
L 659 2470 
L 659 762 
C 659 378 749 -70 1190 -70 
C 1638 -70 1965 90 2125 173 
z
" id="LMSans10-Regular-74" transform="scale(0.015625)"/>
      <path d="M 2854 2842 
L 2374 2842 
L 1869 1510 
C 1734 1158 1536 640 1485 339 
L 1478 339 
C 1440 570 1274 1011 1210 1184 
L 589 2842 
L 90 2842 
L 1190 0 
L 1754 0 
L 2854 2842 
z
" id="LMSans10-Regular-76" transform="scale(0.015625)"/>
      <path d="M 2304 819 
C 2304 1171 2067 1389 2054 1408 
C 1805 1632 1632 1670 1312 1728 
C 960 1798 666 1862 666 2176 
C 666 2573 1126 2573 1210 2573 
C 1414 2573 1754 2547 2118 2330 
L 2195 2746 
C 1862 2899 1600 2950 1274 2950 
C 1114 2950 211 2950 211 2112 
C 211 1798 397 1594 557 1472 
C 755 1331 896 1306 1248 1235 
C 1478 1190 1850 1114 1850 774 
C 1850 333 1344 333 1248 333 
C 730 333 371 570 256 646 
L 179 211 
C 384 109 736 -70 1254 -70 
C 1370 -70 1722 -70 1997 134 
C 2195 288 2304 544 2304 819 
z
" id="LMSans10-Regular-73" transform="scale(0.015625)"/>
      <path d="M 3072 1427 
C 3072 2221 2637 2912 2035 2912 
C 1786 2912 1389 2848 1005 2534 
L 1005 4442 
L 525 4442 
L 525 0 
L 1024 0 
L 1024 294 
C 1178 154 1453 -70 1882 -70 
C 2522 -70 3072 570 3072 1427 
z
M 2573 1427 
C 2573 595 2035 320 1645 320 
C 1395 320 1184 435 1024 730 
L 1024 2144 
C 1126 2298 1357 2522 1709 2522 
C 2086 2522 2573 2246 2573 1427 
z
" id="LMSans10-Regular-62" transform="scale(0.015625)"/>
      <path d="M 2784 0 
L 2784 2842 
L 2285 2842 
L 2285 986 
C 2285 506 1926 282 1517 282 
C 1062 282 1018 448 1018 723 
L 1018 2842 
L 518 2842 
L 518 698 
C 518 237 666 -70 1197 -70 
C 1536 -70 1990 32 2304 307 
L 2304 0 
L 2784 0 
z
" id="LMSans10-Regular-75" transform="scale(0.015625)"/>
      <path d="M 2784 0 
L 2784 1907 
C 2784 2330 2688 2912 1907 2912 
C 1331 2912 1018 2477 979 2426 
L 979 2880 
L 518 2880 
L 518 0 
L 1018 0 
L 1018 1568 
C 1018 1990 1178 2522 1664 2522 
C 2278 2522 2285 2067 2285 1862 
L 2285 0 
L 2784 0 
z
" id="LMSans10-Regular-6e" transform="scale(0.015625)"/>
     </defs>
     <use xlink:href="#LMSans10-Regular-50"/>
     <use x="63.899994" xlink:href="#LMSans10-Regular-72"/>
     <use x="98.099991" xlink:href="#LMSans10-Regular-69"/>
     <use x="121.999985" xlink:href="#LMSans10-Regular-6f"/>
     <use x="171.999969" xlink:href="#LMSans10-Regular-72"/>
     <use x="206.199966" xlink:href="#LMSans10-Regular-20"/>
     <use x="239.499954" xlink:href="#LMSans10-Regular-70"/>
     <use x="291.199951" xlink:href="#LMSans10-Regular-72"/>
     <use x="325.399948" xlink:href="#LMSans10-Regular-65"/>
     <use x="369.799942" xlink:href="#LMSans10-Regular-64"/>
     <use x="421.499939" xlink:href="#LMSans10-Regular-69"/>
     <use x="445.399933" xlink:href="#LMSans10-Regular-63"/>
     <use x="489.799927" xlink:href="#LMSans10-Regular-74"/>
     <use x="525.899918" xlink:href="#LMSans10-Regular-69"/>
     <use x="549.799911" xlink:href="#LMSans10-Regular-76"/>
     <use x="595.899902" xlink:href="#LMSans10-Regular-65"/>
     <use x="640.299896" xlink:href="#LMSans10-Regular-20"/>
     <use x="673.599884" xlink:href="#LMSans10-Regular-64"/>
     <use x="725.299881" xlink:href="#LMSans10-Regular-69"/>
     <use x="749.199875" xlink:href="#LMSans10-Regular-73"/>
     <use x="787.499863" xlink:href="#LMSans10-Regular-74"/>
     <use x="823.599854" xlink:href="#LMSans10-Regular-72"/>
     <use x="857.79985" xlink:href="#LMSans10-Regular-69"/>
     <use x="881.699844" xlink:href="#LMSans10-Regular-62"/>
     <use x="933.399841" xlink:href="#LMSans10-Regular-75"/>
     <use x="985.099838" xlink:href="#LMSans10-Regular-74"/>
     <use x="1021.199829" xlink:href="#LMSans10-Regular-69"/>
     <use x="1045.099823" xlink:href="#LMSans10-Regular-6f"/>
     <use x="1095.099808" xlink:href="#LMSans10-Regular-6e"/>
    </g>
   </g>
  </g>
 </g>
 <defs>
  <clipPath id="p52a8fa34d4">
   <rect height="266.112" width="357.12" x="38.2" y="26.526"/>
  </clipPath>
 </defs>
</svg>
