<?xml version="1.0" encoding="utf-8" standalone="no"?>
<!DOCTYPE svg PUBLIC "-//W3C//DTD SVG 1.1//EN"
  "http://www.w3.org/Graphics/SVG/1.1/DTD/svg11.dtd">
<svg height="319.932pt" version="1.1" viewBox="0 0 389.905 319.932" width="389.905pt" xmlns="http://www.w3.org/2000/svg" xmlns:xlink="http://www.w3.org/1999/xlink">
 <metadata>
  <rdf:RDF xmlns:cc="http://creativecommons.org/ns#" xmlns:dc="http://purl.org/dc/elements/1.1/" xmlns:rdf="http://www.w3.org/1999/02/22-rdf-syntax-ns#">
   <cc:Work>
    <dc:type rdf:resource="http://purl.org/dc/dcmitype/StillImage"/>
    <dc:date>2021-05-27T07:35:54.580382</dc:date>
    <dc:format>image/svg+xml</dc:format>
    <dc:creator>
     <cc:Agent>
      <dc:title>Matplotlib v3.4.2, https://matplotlib.org/</dc:title>
     </cc:Agent>
    </dc:creator>
   </cc:Work>
  </rdf:RDF>
 </metadata>
 <defs>
  <style type="text/css">*{stroke-linecap:butt;stroke-linejoin:round;}</style>
 </defs>
 <g id="figure_1">
  <g id="patch_1">
   <path d="M 0 319.932 
L 389.905 319.932 
L 389.905 0 
L 0 0 
z
" style="fill:#ffffff;"/>
  </g>
  <g id="axes_1">
   <g id="patch_2">
    <path d="M 25.585 273.312 
L 382.705 273.312 
L 382.705 7.2 
L 25.585 7.2 
z
" style="fill:#ffffff;"/>
   </g>
   <g id="PolyCollection_1">
    <defs>
     <path d="M 74.283182 -94.65781 
L 74.283182 -58.716 
L 74.608243 -58.716 
L 74.933304 -58.716 
L 75.258364 -58.716 
L 75.583425 -58.716 
L 75.908486 -58.716 
L 76.233547 -58.716 
L 76.558608 -58.716 
L 76.883669 -58.716 
L 77.20873 -58.716 
L 77.533791 -58.716 
L 77.858851 -58.716 
L 78.183912 -58.716 
L 78.508973 -58.716 
L 78.834034 -58.716 
L 79.159095 -58.716 
L 79.484156 -58.716 
L 79.809217 -58.716 
L 80.134278 -58.716 
L 80.459338 -58.716 
L 80.784399 -58.716 
L 81.10946 -58.716 
L 81.434521 -58.716 
L 81.759582 -58.716 
L 82.084643 -58.716 
L 82.409704 -58.716 
L 82.734764 -58.716 
L 83.059825 -58.716 
L 83.384886 -58.716 
L 83.709947 -58.716 
L 84.035008 -58.716 
L 84.360069 -58.716 
L 84.68513 -58.716 
L 85.010191 -58.716 
L 85.335251 -58.716 
L 85.660312 -58.716 
L 85.985373 -58.716 
L 86.310434 -58.716 
L 86.635495 -58.716 
L 86.960556 -58.716 
L 87.285617 -58.716 
L 87.610678 -58.716 
L 87.935738 -58.716 
L 88.260799 -58.716 
L 88.58586 -58.716 
L 88.910921 -58.716 
L 89.235982 -58.716 
L 89.561043 -58.716 
L 89.886104 -58.716 
L 90.211165 -58.716 
L 90.536225 -58.716 
L 90.861286 -58.716 
L 91.186347 -58.716 
L 91.511408 -58.716 
L 91.836469 -58.716 
L 92.16153 -58.716 
L 92.486591 -58.716 
L 92.811651 -58.716 
L 93.136712 -58.716 
L 93.461773 -58.716 
L 93.786834 -58.716 
L 94.111895 -58.716 
L 94.436956 -58.716 
L 94.762017 -58.716 
L 95.087078 -58.716 
L 95.412138 -58.716 
L 95.737199 -58.716 
L 96.06226 -58.716 
L 96.387321 -58.716 
L 96.712382 -58.716 
L 97.037443 -58.716 
L 97.362504 -58.716 
L 97.687565 -58.716 
L 98.012625 -58.716 
L 98.337686 -58.716 
L 98.662747 -58.716 
L 98.987808 -58.716 
L 99.312869 -58.716 
L 99.63793 -58.716 
L 99.962991 -58.716 
L 100.288052 -58.716 
L 100.613112 -58.716 
L 100.938173 -58.716 
L 101.263234 -58.716 
L 101.588295 -58.716 
L 101.913356 -58.716 
L 102.238417 -58.716 
L 102.563478 -58.716 
L 102.888539 -58.716 
L 103.213599 -58.716 
L 103.53866 -58.716 
L 103.863721 -58.716 
L 104.188782 -58.716 
L 104.513843 -58.716 
L 104.838904 -58.716 
L 105.163965 -58.716 
L 105.489025 -58.716 
L 105.814086 -58.716 
L 106.139147 -58.716 
L 106.464208 -58.716 
L 106.789269 -58.716 
L 107.11433 -58.716 
L 107.439391 -58.716 
L 107.764452 -58.716 
L 108.089512 -58.716 
L 108.414573 -58.716 
L 108.739634 -58.716 
L 109.064695 -58.716 
L 109.389756 -58.716 
L 109.714817 -58.716 
L 110.039878 -58.716 
L 110.364939 -58.716 
L 110.689999 -58.716 
L 111.01506 -58.716 
L 111.340121 -58.716 
L 111.665182 -58.716 
L 111.990243 -58.716 
L 112.315304 -58.716 
L 112.640365 -58.716 
L 112.965426 -58.716 
L 113.290486 -58.716 
L 113.615547 -58.716 
L 113.940608 -58.716 
L 114.265669 -58.716 
L 114.59073 -58.716 
L 114.915791 -58.716 
L 115.240852 -58.716 
L 115.565913 -58.716 
L 115.890973 -58.716 
L 116.216034 -58.716 
L 116.541095 -58.716 
L 116.866156 -58.716 
L 117.191217 -58.716 
L 117.516278 -58.716 
L 117.841339 -58.716 
L 118.166399 -58.716 
L 118.49146 -58.716 
L 118.816521 -58.716 
L 119.141582 -58.716 
L 119.466643 -58.716 
L 119.791704 -58.716 
L 120.116765 -58.716 
L 120.441826 -58.716 
L 120.766886 -58.716 
L 121.091947 -58.716 
L 121.417008 -58.716 
L 121.742069 -58.716 
L 122.06713 -58.716 
L 122.392191 -58.716 
L 122.717252 -58.716 
L 123.042313 -58.716 
L 123.367373 -58.716 
L 123.692434 -58.716 
L 124.017495 -58.716 
L 124.342556 -58.716 
L 124.667617 -58.716 
L 124.992678 -58.716 
L 125.317739 -58.716 
L 125.6428 -58.716 
L 125.96786 -58.716 
L 126.292921 -58.716 
L 126.617982 -58.716 
L 126.943043 -58.716 
L 127.268104 -58.716 
L 127.593165 -58.716 
L 127.918226 -58.716 
L 128.243286 -58.716 
L 128.568347 -58.716 
L 128.893408 -58.716 
L 129.218469 -58.716 
L 129.54353 -58.716 
L 129.868591 -58.716 
L 130.193652 -58.716 
L 130.518713 -58.716 
L 130.843773 -58.716 
L 131.168834 -58.716 
L 131.493895 -58.716 
L 131.818956 -58.716 
L 132.144017 -58.716 
L 132.469078 -58.716 
L 132.794139 -58.716 
L 133.1192 -58.716 
L 133.44426 -58.716 
L 133.769321 -58.716 
L 134.094382 -58.716 
L 134.419443 -58.716 
L 134.744504 -58.716 
L 135.069565 -58.716 
L 135.394626 -58.716 
L 135.719687 -58.716 
L 136.044747 -58.716 
L 136.369808 -58.716 
L 136.694869 -58.716 
L 137.01993 -58.716 
L 137.344991 -58.716 
L 137.670052 -58.716 
L 137.995113 -58.716 
L 138.320174 -58.716 
L 138.645234 -58.716 
L 138.970295 -58.716 
L 139.295356 -58.716 
L 139.620417 -58.716 
L 139.945478 -58.716 
L 140.270539 -58.716 
L 140.5956 -58.716 
L 140.92066 -58.716 
L 141.245721 -58.716 
L 141.570782 -58.716 
L 141.895843 -58.716 
L 142.220904 -58.716 
L 142.545965 -58.716 
L 142.871026 -58.716 
L 143.196087 -58.716 
L 143.521147 -58.716 
L 143.846208 -58.716 
L 144.171269 -58.716 
L 144.49633 -58.716 
L 144.821391 -58.716 
L 145.146452 -58.716 
L 145.471513 -58.716 
L 145.796574 -58.716 
L 146.121634 -58.716 
L 146.446695 -58.716 
L 146.771756 -58.716 
L 147.096817 -58.716 
L 147.421878 -58.716 
L 147.746939 -58.716 
L 148.072 -58.716 
L 148.397061 -58.716 
L 148.722121 -58.716 
L 149.047182 -58.716 
L 149.372243 -58.716 
L 149.697304 -58.716 
L 150.022365 -58.716 
L 150.347426 -58.716 
L 150.672487 -58.716 
L 150.997548 -58.716 
L 151.322608 -58.716 
L 151.647669 -58.716 
L 151.97273 -58.716 
L 152.297791 -58.716 
L 152.622852 -58.716 
L 152.947913 -58.716 
L 153.272974 -58.716 
L 153.598034 -58.716 
L 153.923095 -58.716 
L 154.248156 -58.716 
L 154.573217 -58.716 
L 154.898278 -58.716 
L 155.223339 -58.716 
L 155.5484 -58.716 
L 155.873461 -58.716 
L 156.198521 -58.716 
L 156.523582 -58.716 
L 156.848643 -58.716 
L 157.173704 -58.716 
L 157.498765 -58.716 
L 157.823826 -58.716 
L 158.148887 -58.716 
L 158.473948 -58.716 
L 158.799008 -58.716 
L 159.124069 -58.716 
L 159.44913 -58.716 
L 159.774191 -58.716 
L 160.099252 -58.716 
L 160.424313 -58.716 
L 160.749374 -58.716 
L 161.074435 -58.716 
L 161.399495 -58.716 
L 161.724556 -58.716 
L 162.049617 -58.716 
L 162.374678 -58.716 
L 162.699739 -58.716 
L 163.0248 -58.716 
L 163.349861 -58.716 
L 163.674921 -58.716 
L 163.999982 -58.716 
L 164.325043 -58.716 
L 164.650104 -58.716 
L 164.975165 -58.716 
L 165.300226 -58.716 
L 165.625287 -58.716 
L 165.950348 -58.716 
L 166.275408 -58.716 
L 166.600469 -58.716 
L 166.92553 -58.716 
L 167.250591 -58.716 
L 167.575652 -58.716 
L 167.900713 -58.716 
L 168.225774 -58.716 
L 168.550835 -58.716 
L 168.875895 -58.716 
L 169.200956 -58.716 
L 169.526017 -58.716 
L 169.851078 -58.716 
L 170.176139 -58.716 
L 170.5012 -58.716 
L 170.826261 -58.716 
L 171.151322 -58.716 
L 171.476382 -58.716 
L 171.801443 -58.716 
L 172.126504 -58.716 
L 172.451565 -58.716 
L 172.776626 -58.716 
L 173.101687 -58.716 
L 173.426748 -58.716 
L 173.751809 -58.716 
L 174.076869 -58.716 
L 174.40193 -58.716 
L 174.726991 -58.716 
L 175.052052 -58.716 
L 175.377113 -58.716 
L 175.702174 -58.716 
L 176.027235 -58.716 
L 176.352295 -58.716 
L 176.677356 -58.716 
L 177.002417 -58.716 
L 177.327478 -58.716 
L 177.652539 -58.716 
L 177.9776 -58.716 
L 178.302661 -58.716 
L 178.627722 -58.716 
L 178.952782 -58.716 
L 179.277843 -58.716 
L 179.602904 -58.716 
L 179.927965 -58.716 
L 180.253026 -58.716 
L 180.578087 -58.716 
L 180.903148 -58.716 
L 181.228209 -58.716 
L 181.553269 -58.716 
L 181.87833 -58.716 
L 182.203391 -58.716 
L 182.528452 -58.716 
L 182.853513 -58.716 
L 183.178574 -58.716 
L 183.503635 -58.716 
L 183.828696 -58.716 
L 184.153756 -58.716 
L 184.478817 -58.716 
L 184.803878 -58.716 
L 185.128939 -58.716 
L 185.454 -58.716 
L 185.779061 -58.716 
L 186.104122 -58.716 
L 186.429183 -58.716 
L 186.754243 -58.716 
L 187.079304 -58.716 
L 187.404365 -58.716 
L 187.729426 -58.716 
L 188.054487 -58.716 
L 188.379548 -58.716 
L 188.704609 -58.716 
L 189.029669 -58.716 
L 189.35473 -58.716 
L 189.679791 -58.716 
L 190.004852 -58.716 
L 190.329913 -58.716 
L 190.654974 -58.716 
L 190.980035 -58.716 
L 191.305096 -58.716 
L 191.630156 -58.716 
L 191.955217 -58.716 
L 192.280278 -58.716 
L 192.605339 -58.716 
L 192.9304 -58.716 
L 193.255461 -58.716 
L 193.580522 -58.716 
L 193.905583 -58.716 
L 194.230643 -58.716 
L 194.555704 -58.716 
L 194.880765 -58.716 
L 195.205826 -58.716 
L 195.530887 -58.716 
L 195.855948 -58.716 
L 196.181009 -58.716 
L 196.50607 -58.716 
L 196.83113 -58.716 
L 197.156191 -58.716 
L 197.481252 -58.716 
L 197.806313 -58.716 
L 198.131374 -58.716 
L 198.456435 -58.716 
L 198.781496 -58.716 
L 199.106556 -58.716 
L 199.431617 -58.716 
L 199.756678 -58.716 
L 200.081739 -58.716 
L 200.4068 -58.716 
L 200.731861 -58.716 
L 201.056922 -58.716 
L 201.381983 -58.716 
L 201.707043 -58.716 
L 202.032104 -58.716 
L 202.357165 -58.716 
L 202.682226 -58.716 
L 203.007287 -58.716 
L 203.332348 -58.716 
L 203.657409 -58.716 
L 203.98247 -58.716 
L 204.30753 -58.716 
L 204.632591 -58.716 
L 204.957652 -58.716 
L 205.282713 -58.716 
L 205.607774 -58.716 
L 205.932835 -58.716 
L 206.257896 -58.716 
L 206.582957 -58.716 
L 206.908017 -58.716 
L 207.233078 -58.716 
L 207.558139 -58.716 
L 207.8832 -58.716 
L 208.208261 -58.716 
L 208.533322 -58.716 
L 208.858383 -58.716 
L 209.183444 -58.716 
L 209.508504 -58.716 
L 209.833565 -58.716 
L 210.158626 -58.716 
L 210.483687 -58.716 
L 210.808748 -58.716 
L 211.133809 -58.716 
L 211.45887 -58.716 
L 211.78393 -58.716 
L 212.108991 -58.716 
L 212.434052 -58.716 
L 212.759113 -58.716 
L 213.084174 -58.716 
L 213.409235 -58.716 
L 213.734296 -58.716 
L 214.059357 -58.716 
L 214.384417 -58.716 
L 214.709478 -58.716 
L 215.034539 -58.716 
L 215.3596 -58.716 
L 215.684661 -58.716 
L 216.009722 -58.716 
L 216.334783 -58.716 
L 216.659844 -58.716 
L 216.984904 -58.716 
L 217.309965 -58.716 
L 217.635026 -58.716 
L 217.960087 -58.716 
L 218.285148 -58.716 
L 218.610209 -58.716 
L 218.93527 -58.716 
L 219.260331 -58.716 
L 219.585391 -58.716 
L 219.910452 -58.716 
L 220.235513 -58.716 
L 220.560574 -58.716 
L 220.885635 -58.716 
L 221.210696 -58.716 
L 221.535757 -58.716 
L 221.860817 -58.716 
L 222.185878 -58.716 
L 222.510939 -58.716 
L 222.836 -58.716 
L 223.161061 -58.716 
L 223.486122 -58.716 
L 223.811183 -58.716 
L 224.136244 -58.716 
L 224.461304 -58.716 
L 224.786365 -58.716 
L 225.111426 -58.716 
L 225.436487 -58.716 
L 225.761548 -58.716 
L 226.086609 -58.716 
L 226.41167 -58.716 
L 226.736731 -58.716 
L 227.061791 -58.716 
L 227.386852 -58.716 
L 227.711913 -58.716 
L 228.036974 -58.716 
L 228.362035 -58.716 
L 228.687096 -58.716 
L 229.012157 -58.716 
L 229.337218 -58.716 
L 229.662278 -58.716 
L 229.987339 -58.716 
L 230.3124 -58.716 
L 230.637461 -58.716 
L 230.962522 -58.716 
L 231.287583 -58.716 
L 231.612644 -58.716 
L 231.937705 -58.716 
L 232.262765 -58.716 
L 232.587826 -58.716 
L 232.912887 -58.716 
L 233.237948 -58.716 
L 233.563009 -58.716 
L 233.88807 -58.716 
L 234.213131 -58.716 
L 234.538191 -58.716 
L 234.863252 -58.716 
L 235.188313 -58.716 
L 235.513374 -58.716 
L 235.838435 -58.716 
L 236.163496 -58.716 
L 236.488557 -58.716 
L 236.813618 -58.716 
L 237.138678 -58.716 
L 237.463739 -58.716 
L 237.7888 -58.716 
L 238.113861 -58.716 
L 238.438922 -58.716 
L 238.763983 -58.716 
L 239.089044 -58.716 
L 239.414105 -58.716 
L 239.739165 -58.716 
L 240.064226 -58.716 
L 240.389287 -58.716 
L 240.714348 -58.716 
L 241.039409 -58.716 
L 241.36447 -58.716 
L 241.689531 -58.716 
L 242.014592 -58.716 
L 242.339652 -58.716 
L 242.664713 -58.716 
L 242.989774 -58.716 
L 243.314835 -58.716 
L 243.639896 -58.716 
L 243.964957 -58.716 
L 244.290018 -58.716 
L 244.615079 -58.716 
L 244.940139 -58.716 
L 245.2652 -58.716 
L 245.590261 -58.716 
L 245.915322 -58.716 
L 246.240383 -58.716 
L 246.565444 -58.716 
L 246.890505 -58.716 
L 247.215565 -58.716 
L 247.540626 -58.716 
L 247.865687 -58.716 
L 248.190748 -58.716 
L 248.515809 -58.716 
L 248.84087 -58.716 
L 249.165931 -58.716 
L 249.490992 -58.716 
L 249.816052 -58.716 
L 250.141113 -58.716 
L 250.466174 -58.716 
L 250.791235 -58.716 
L 251.116296 -58.716 
L 251.441357 -58.716 
L 251.766418 -58.716 
L 252.091479 -58.716 
L 252.416539 -58.716 
L 252.7416 -58.716 
L 253.066661 -58.716 
L 253.391722 -58.716 
L 253.716783 -58.716 
L 254.041844 -58.716 
L 254.366905 -58.716 
L 254.691966 -58.716 
L 255.017026 -58.716 
L 255.342087 -58.716 
L 255.667148 -58.716 
L 255.992209 -58.716 
L 256.31727 -58.716 
L 256.642331 -58.716 
L 256.967392 -58.716 
L 257.292452 -58.716 
L 257.617513 -58.716 
L 257.942574 -58.716 
L 258.267635 -58.716 
L 258.592696 -58.716 
L 258.917757 -58.716 
L 259.242818 -58.716 
L 259.567879 -58.716 
L 259.892939 -58.716 
L 260.218 -58.716 
L 260.543061 -58.716 
L 260.868122 -58.716 
L 261.193183 -58.716 
L 261.518244 -58.716 
L 261.843305 -58.716 
L 262.168366 -58.716 
L 262.493426 -58.716 
L 262.818487 -58.716 
L 263.143548 -58.716 
L 263.468609 -58.716 
L 263.79367 -58.716 
L 264.118731 -58.716 
L 264.443792 -58.716 
L 264.768853 -58.716 
L 265.093913 -58.716 
L 265.418974 -58.716 
L 265.744035 -58.716 
L 266.069096 -58.716 
L 266.394157 -58.716 
L 266.719218 -58.716 
L 267.044279 -58.716 
L 267.36934 -58.716 
L 267.6944 -58.716 
L 268.019461 -58.716 
L 268.344522 -58.716 
L 268.669583 -58.716 
L 268.994644 -58.716 
L 269.319705 -58.716 
L 269.644766 -58.716 
L 269.969826 -58.716 
L 270.294887 -58.716 
L 270.619948 -58.716 
L 270.945009 -58.716 
L 271.27007 -58.716 
L 271.595131 -58.716 
L 271.920192 -58.716 
L 272.245253 -58.716 
L 272.570313 -58.716 
L 272.895374 -58.716 
L 273.220435 -58.716 
L 273.545496 -58.716 
L 273.870557 -58.716 
L 274.195618 -58.716 
L 274.520679 -58.716 
L 274.84574 -58.716 
L 275.1708 -58.716 
L 275.495861 -58.716 
L 275.820922 -58.716 
L 276.145983 -58.716 
L 276.471044 -58.716 
L 276.796105 -58.716 
L 277.121166 -58.716 
L 277.446227 -58.716 
L 277.771287 -58.716 
L 278.096348 -58.716 
L 278.421409 -58.716 
L 278.74647 -58.716 
L 279.071531 -58.716 
L 279.396592 -58.716 
L 279.721653 -58.716 
L 280.046714 -58.716 
L 280.371774 -58.716 
L 280.696835 -58.716 
L 281.021896 -58.716 
L 281.346957 -58.716 
L 281.672018 -58.716 
L 281.997079 -58.716 
L 282.32214 -58.716 
L 282.6472 -58.716 
L 282.972261 -58.716 
L 283.297322 -58.716 
L 283.622383 -58.716 
L 283.947444 -58.716 
L 284.272505 -58.716 
L 284.597566 -58.716 
L 284.922627 -58.716 
L 285.247687 -58.716 
L 285.572748 -58.716 
L 285.897809 -58.716 
L 286.22287 -58.716 
L 286.547931 -58.716 
L 286.872992 -58.716 
L 287.198053 -58.716 
L 287.523114 -58.716 
L 287.848174 -58.716 
L 288.173235 -58.716 
L 288.498296 -58.716 
L 288.823357 -58.716 
L 289.148418 -58.716 
L 289.473479 -58.716 
L 289.79854 -58.716 
L 290.123601 -58.716 
L 290.448661 -58.716 
L 290.773722 -58.716 
L 291.098783 -58.716 
L 291.423844 -58.716 
L 291.748905 -58.716 
L 292.073966 -58.716 
L 292.399027 -58.716 
L 292.724087 -58.716 
L 293.049148 -58.716 
L 293.374209 -58.716 
L 293.69927 -58.716 
L 294.024331 -58.716 
L 294.349392 -58.716 
L 294.674453 -58.716 
L 294.999514 -58.716 
L 295.324574 -58.716 
L 295.649635 -58.716 
L 295.974696 -58.716 
L 296.299757 -58.716 
L 296.624818 -58.716 
L 296.949879 -58.716 
L 297.27494 -58.716 
L 297.600001 -58.716 
L 297.925061 -58.716 
L 298.250122 -58.716 
L 298.575183 -58.716 
L 298.900244 -58.716 
L 299.225305 -58.716 
L 299.550366 -58.716 
L 299.875427 -58.716 
L 300.200488 -58.716 
L 300.525548 -58.716 
L 300.850609 -58.716 
L 301.17567 -58.716 
L 301.500731 -58.716 
L 301.825792 -58.716 
L 302.150853 -58.716 
L 302.475914 -58.716 
L 302.800975 -58.716 
L 303.126035 -58.716 
L 303.451096 -58.716 
L 303.776157 -58.716 
L 304.101218 -58.716 
L 304.426279 -58.716 
L 304.75134 -58.716 
L 305.076401 -58.716 
L 305.401461 -58.716 
L 305.726522 -58.716 
L 306.051583 -58.716 
L 306.376644 -58.716 
L 306.701705 -58.716 
L 307.026766 -58.716 
L 307.351827 -58.716 
L 307.676888 -58.716 
L 308.001948 -58.716 
L 308.327009 -58.716 
L 308.65207 -58.716 
L 308.977131 -58.716 
L 309.302192 -58.716 
L 309.627253 -58.716 
L 309.952314 -58.716 
L 310.277375 -58.716 
L 310.602435 -58.716 
L 310.927496 -58.716 
L 311.252557 -58.716 
L 311.577618 -58.716 
L 311.902679 -58.716 
L 312.22774 -58.716 
L 312.552801 -58.716 
L 312.877862 -58.716 
L 313.202922 -58.716 
L 313.527983 -58.716 
L 313.853044 -58.716 
L 314.178105 -58.716 
L 314.503166 -58.716 
L 314.828227 -58.716 
L 315.153288 -58.716 
L 315.478349 -58.716 
L 315.803409 -58.716 
L 316.12847 -58.716 
L 316.453531 -58.716 
L 316.778592 -58.716 
L 317.103653 -58.716 
L 317.428714 -58.716 
L 317.753775 -58.716 
L 318.078835 -58.716 
L 318.403896 -58.716 
L 318.728957 -58.716 
L 319.054018 -58.716 
L 319.379079 -58.716 
L 319.70414 -58.716 
L 320.029201 -58.716 
L 320.354262 -58.716 
L 320.679322 -58.716 
L 321.004383 -58.716 
L 321.329444 -58.716 
L 321.654505 -58.716 
L 321.979566 -58.716 
L 322.304627 -58.716 
L 322.629688 -58.716 
L 322.954749 -58.716 
L 323.279809 -58.716 
L 323.60487 -58.716 
L 323.929931 -58.716 
L 324.254992 -58.716 
L 324.580053 -58.716 
L 324.905114 -58.716 
L 325.230175 -58.716 
L 325.555236 -58.716 
L 325.880296 -58.716 
L 326.205357 -58.716 
L 326.530418 -58.716 
L 326.855479 -58.716 
L 327.18054 -58.716 
L 327.505601 -58.716 
L 327.830662 -58.716 
L 328.155722 -58.716 
L 328.480783 -58.716 
L 328.805844 -58.716 
L 329.130905 -58.716 
L 329.455966 -58.716 
L 329.781027 -58.716 
L 330.106088 -58.716 
L 330.431149 -58.716 
L 330.756209 -58.716 
L 331.08127 -58.716 
L 331.406331 -58.716 
L 331.731392 -58.716 
L 332.056453 -58.716 
L 332.381514 -58.716 
L 332.706575 -58.716 
L 333.031636 -58.716 
L 333.356696 -58.716 
L 333.681757 -58.716 
L 334.006818 -58.716 
L 334.006818 -94.65781 
L 334.006818 -94.65781 
L 333.681757 -95.256354 
L 333.356696 -95.857968 
L 333.031636 -96.46261 
L 332.706575 -97.070241 
L 332.381514 -97.680823 
L 332.056453 -98.294315 
L 331.731392 -98.91068 
L 331.406331 -99.529879 
L 331.08127 -100.151873 
L 330.756209 -100.776623 
L 330.431149 -101.404093 
L 330.106088 -102.034243 
L 329.781027 -102.667037 
L 329.455966 -103.302437 
L 329.130905 -103.940405 
L 328.805844 -104.580905 
L 328.480783 -105.2239 
L 328.155722 -105.869353 
L 327.830662 -106.517228 
L 327.505601 -107.167488 
L 327.18054 -107.820096 
L 326.855479 -108.475018 
L 326.530418 -109.132218 
L 326.205357 -109.791659 
L 325.880296 -110.453306 
L 325.555236 -111.117124 
L 325.230175 -111.783078 
L 324.905114 -112.451133 
L 324.580053 -113.121255 
L 324.254992 -113.793408 
L 323.929931 -114.467558 
L 323.60487 -115.143671 
L 323.279809 -115.821713 
L 322.954749 -116.501649 
L 322.629688 -117.183447 
L 322.304627 -117.867072 
L 321.979566 -118.552491 
L 321.654505 -119.239671 
L 321.329444 -119.928578 
L 321.004383 -120.61918 
L 320.679322 -121.311443 
L 320.354262 -122.005336 
L 320.029201 -122.700824 
L 319.70414 -123.397877 
L 319.379079 -124.096461 
L 319.054018 -124.796545 
L 318.728957 -125.498096 
L 318.403896 -126.201083 
L 318.078835 -126.905474 
L 317.753775 -127.611238 
L 317.428714 -128.318342 
L 317.103653 -129.026757 
L 316.778592 -129.73645 
L 316.453531 -130.447391 
L 316.12847 -131.159549 
L 315.803409 -131.872893 
L 315.478349 -132.587393 
L 315.153288 -133.303018 
L 314.828227 -134.019738 
L 314.503166 -134.737522 
L 314.178105 -135.456341 
L 313.853044 -136.176165 
L 313.527983 -136.896964 
L 313.202922 -137.618708 
L 312.877862 -138.341368 
L 312.552801 -139.064915 
L 312.22774 -139.789318 
L 311.902679 -140.51455 
L 311.577618 -141.240581 
L 311.252557 -141.967382 
L 310.927496 -142.694924 
L 310.602435 -143.423179 
L 310.277375 -144.152119 
L 309.952314 -144.881714 
L 309.627253 -145.611937 
L 309.302192 -146.34276 
L 308.977131 -147.074154 
L 308.65207 -147.806092 
L 308.327009 -148.538545 
L 308.001948 -149.271487 
L 307.676888 -150.00489 
L 307.351827 -150.738726 
L 307.026766 -151.472967 
L 306.701705 -152.207588 
L 306.376644 -152.94256 
L 306.051583 -153.677857 
L 305.726522 -154.413452 
L 305.401461 -155.149318 
L 305.076401 -155.885429 
L 304.75134 -156.621758 
L 304.426279 -157.358279 
L 304.101218 -158.094966 
L 303.776157 -158.831792 
L 303.451096 -159.568731 
L 303.126035 -160.305758 
L 302.800975 -161.042847 
L 302.475914 -161.779971 
L 302.150853 -162.517106 
L 301.825792 -163.254226 
L 301.500731 -163.991306 
L 301.17567 -164.72832 
L 300.850609 -165.465243 
L 300.525548 -166.20205 
L 300.200488 -166.938716 
L 299.875427 -167.675217 
L 299.550366 -168.411528 
L 299.225305 -169.147624 
L 298.900244 -169.88348 
L 298.575183 -170.619073 
L 298.250122 -171.354378 
L 297.925061 -172.08937 
L 297.600001 -172.824027 
L 297.27494 -173.558323 
L 296.949879 -174.292234 
L 296.624818 -175.025738 
L 296.299757 -175.758811 
L 295.974696 -176.491429 
L 295.649635 -177.223568 
L 295.324574 -177.955205 
L 294.999514 -178.686317 
L 294.674453 -179.416881 
L 294.349392 -180.146874 
L 294.024331 -180.876272 
L 293.69927 -181.605054 
L 293.374209 -182.333196 
L 293.049148 -183.060675 
L 292.724087 -183.78747 
L 292.399027 -184.513558 
L 292.073966 -185.238915 
L 291.748905 -185.963521 
L 291.423844 -186.687353 
L 291.098783 -187.410389 
L 290.773722 -188.132607 
L 290.448661 -188.853985 
L 290.123601 -189.574502 
L 289.79854 -190.294135 
L 289.473479 -191.012864 
L 289.148418 -191.730667 
L 288.823357 -192.447522 
L 288.498296 -193.163409 
L 288.173235 -193.878306 
L 287.848174 -194.592192 
L 287.523114 -195.305046 
L 287.198053 -196.016847 
L 286.872992 -196.727575 
L 286.547931 -197.437208 
L 286.22287 -198.145727 
L 285.897809 -198.853111 
L 285.572748 -199.559339 
L 285.247687 -200.264391 
L 284.922627 -200.968247 
L 284.597566 -201.670887 
L 284.272505 -202.372291 
L 283.947444 -203.072438 
L 283.622383 -203.77131 
L 283.297322 -204.468886 
L 282.972261 -205.165147 
L 282.6472 -205.860073 
L 282.32214 -206.553645 
L 281.997079 -207.245843 
L 281.672018 -207.936648 
L 281.346957 -208.626041 
L 281.021896 -209.314003 
L 280.696835 -210.000515 
L 280.371774 -210.685558 
L 280.046714 -211.369113 
L 279.721653 -212.051161 
L 279.396592 -212.731684 
L 279.071531 -213.410664 
L 278.74647 -214.088081 
L 278.421409 -214.763918 
L 278.096348 -215.438157 
L 277.771287 -216.110778 
L 277.446227 -216.781764 
L 277.121166 -217.451098 
L 276.796105 -218.11876 
L 276.471044 -218.784734 
L 276.145983 -219.449001 
L 275.820922 -220.111544 
L 275.495861 -220.772346 
L 275.1708 -221.431388 
L 274.84574 -222.088654 
L 274.520679 -222.744126 
L 274.195618 -223.397788 
L 273.870557 -224.049621 
L 273.545496 -224.69961 
L 273.220435 -225.347736 
L 272.895374 -225.993984 
L 272.570313 -226.638336 
L 272.245253 -227.280775 
L 271.920192 -227.921286 
L 271.595131 -228.559852 
L 271.27007 -229.196456 
L 270.945009 -229.831082 
L 270.619948 -230.463714 
L 270.294887 -231.094335 
L 269.969826 -231.72293 
L 269.644766 -232.349483 
L 269.319705 -232.973977 
L 268.994644 -233.596397 
L 268.669583 -234.216727 
L 268.344522 -234.834952 
L 268.019461 -235.451056 
L 267.6944 -236.065023 
L 267.36934 -236.676839 
L 267.044279 -237.286487 
L 266.719218 -237.893953 
L 266.394157 -238.499222 
L 266.069096 -239.102278 
L 265.744035 -239.703107 
L 265.418974 -240.301693 
L 265.093913 -240.898023 
L 264.768853 -241.49208 
L 264.443792 -242.083851 
L 264.118731 -242.673322 
L 263.79367 -243.260477 
L 263.468609 -243.845302 
L 263.143548 -244.427783 
L 262.818487 -245.007907 
L 262.493426 -245.585658 
L 262.168366 -246.161022 
L 261.843305 -246.733987 
L 261.518244 -247.304537 
L 261.193183 -247.872659 
L 260.868122 -248.43834 
L 260.543061 -249.001566 
L 260.218 -249.562323 
L 259.892939 -250.120598 
L 259.567879 -250.676377 
L 259.242818 -251.229647 
L 258.917757 -251.780396 
L 258.592696 -252.328609 
L 258.267635 -252.874275 
L 257.942574 -253.417379 
L 257.617513 -253.957909 
L 257.292452 -254.495853 
L 256.967392 -255.031197 
L 256.642331 -255.563929 
L 256.31727 -256.094037 
L 255.992209 -256.621507 
L 255.667148 -257.146328 
L 255.342087 -257.668488 
L 255.017026 -258.187973 
L 254.691966 -258.704772 
L 254.366905 -259.218873 
L 254.041844 -259.730265 
L 253.716783 -260.238934 
L 253.391722 -260.744869 
L 253.066661 -261.248059 
L 252.7416 -261.748491 
L 252.416539 -262.246155 
L 252.091479 -262.741039 
L 251.766418 -263.233131 
L 251.441357 -263.72242 
L 251.116296 -264.208895 
L 250.791235 -264.692545 
L 250.466174 -265.173358 
L 250.141113 -265.651324 
L 249.816052 -266.126431 
L 249.490992 -266.598669 
L 249.165931 -267.068027 
L 248.84087 -267.534495 
L 248.515809 -267.998061 
L 248.190748 -268.458715 
L 247.865687 -268.916447 
L 247.540626 -269.371247 
L 247.215565 -269.823104 
L 246.890505 -270.272007 
L 246.565444 -270.717948 
L 246.240383 -271.160915 
L 245.915322 -271.600899 
L 245.590261 -272.03789 
L 245.2652 -272.471877 
L 244.940139 -272.902853 
L 244.615079 -273.330805 
L 244.290018 -273.755726 
L 243.964957 -274.177606 
L 243.639896 -274.596435 
L 243.314835 -275.012204 
L 242.989774 -275.424903 
L 242.664713 -275.834524 
L 242.339652 -276.241057 
L 242.014592 -276.644493 
L 241.689531 -277.044824 
L 241.36447 -277.44204 
L 241.039409 -277.836133 
L 240.714348 -278.227094 
L 240.389287 -278.614914 
L 240.064226 -278.999585 
L 239.739165 -279.381099 
L 239.414105 -279.759446 
L 239.089044 -280.134619 
L 238.763983 -280.506609 
L 238.438922 -280.875409 
L 238.113861 -281.24101 
L 237.7888 -281.603404 
L 237.463739 -281.962583 
L 237.138678 -282.31854 
L 236.813618 -282.671266 
L 236.488557 -283.020754 
L 236.163496 -283.366996 
L 235.838435 -283.709985 
L 235.513374 -284.049714 
L 235.188313 -284.386174 
L 234.863252 -284.719359 
L 234.538191 -285.049261 
L 234.213131 -285.375874 
L 233.88807 -285.699189 
L 233.563009 -286.019201 
L 233.237948 -286.335902 
L 232.912887 -286.649285 
L 232.587826 -286.959344 
L 232.262765 -287.266072 
L 231.937705 -287.569462 
L 231.612644 -287.869508 
L 231.287583 -288.166203 
L 230.962522 -288.459541 
L 230.637461 -288.749516 
L 230.3124 -289.036121 
L 229.987339 -289.319351 
L 229.662278 -289.599198 
L 229.337218 -289.875658 
L 229.012157 -290.148724 
L 228.687096 -290.418391 
L 228.362035 -290.684652 
L 228.036974 -290.947502 
L 227.711913 -291.206935 
L 227.386852 -291.462947 
L 227.061791 -291.71553 
L 226.736731 -291.964681 
L 226.41167 -292.210393 
L 226.086609 -292.452662 
L 225.761548 -292.691482 
L 225.436487 -292.926848 
L 225.111426 -293.158755 
L 224.786365 -293.387199 
L 224.461304 -293.612174 
L 224.136244 -293.833676 
L 223.811183 -294.0517 
L 223.486122 -294.266241 
L 223.161061 -294.477295 
L 222.836 -294.684857 
L 222.510939 -294.888923 
L 222.185878 -295.089489 
L 221.860817 -295.28655 
L 221.535757 -295.480102 
L 221.210696 -295.670142 
L 220.885635 -295.856665 
L 220.560574 -296.039666 
L 220.235513 -296.219144 
L 219.910452 -296.395092 
L 219.585391 -296.567509 
L 219.260331 -296.73639 
L 218.93527 -296.901731 
L 218.610209 -297.06353 
L 218.285148 -297.221783 
L 217.960087 -297.376485 
L 217.635026 -297.527636 
L 217.309965 -297.67523 
L 216.984904 -297.819265 
L 216.659844 -297.959738 
L 216.334783 -298.096646 
L 216.009722 -298.229986 
L 215.684661 -298.359755 
L 215.3596 -298.485951 
L 215.034539 -298.608571 
L 214.709478 -298.727612 
L 214.384417 -298.843073 
L 214.059357 -298.954949 
L 213.734296 -299.06324 
L 213.409235 -299.167942 
L 213.084174 -299.269054 
L 212.759113 -299.366574 
L 212.434052 -299.460499 
L 212.108991 -299.550828 
L 211.78393 -299.637559 
L 211.45887 -299.720689 
L 211.133809 -299.800217 
L 210.808748 -299.876142 
L 210.483687 -299.948461 
L 210.158626 -300.017174 
L 209.833565 -300.082279 
L 209.508504 -300.143775 
L 209.183444 -300.201659 
L 208.858383 -300.255932 
L 208.533322 -300.306592 
L 208.208261 -300.353637 
L 207.8832 -300.397068 
L 207.558139 -300.436882 
L 207.233078 -300.47308 
L 206.908017 -300.50566 
L 206.582957 -300.534621 
L 206.257896 -300.559964 
L 205.932835 -300.581687 
L 205.607774 -300.599791 
L 205.282713 -300.614274 
L 204.957652 -300.625137 
L 204.632591 -300.632379 
L 204.30753 -300.636 
L 203.98247 -300.636 
L 203.657409 -300.632379 
L 203.332348 -300.625137 
L 203.007287 -300.614274 
L 202.682226 -300.599791 
L 202.357165 -300.581687 
L 202.032104 -300.559964 
L 201.707043 -300.534621 
L 201.381983 -300.50566 
L 201.056922 -300.47308 
L 200.731861 -300.436882 
L 200.4068 -300.397068 
L 200.081739 -300.353637 
L 199.756678 -300.306592 
L 199.431617 -300.255932 
L 199.106556 -300.201659 
L 198.781496 -300.143775 
L 198.456435 -300.082279 
L 198.131374 -300.017174 
L 197.806313 -299.948461 
L 197.481252 -299.876142 
L 197.156191 -299.800217 
L 196.83113 -299.720689 
L 196.50607 -299.637559 
L 196.181009 -299.550828 
L 195.855948 -299.460499 
L 195.530887 -299.366574 
L 195.205826 -299.269054 
L 194.880765 -299.167942 
L 194.555704 -299.06324 
L 194.230643 -298.954949 
L 193.905583 -298.843073 
L 193.580522 -298.727612 
L 193.255461 -298.608571 
L 192.9304 -298.485951 
L 192.605339 -298.359755 
L 192.280278 -298.229986 
L 191.955217 -298.096646 
L 191.630156 -297.959738 
L 191.305096 -297.819265 
L 190.980035 -297.67523 
L 190.654974 -297.527636 
L 190.329913 -297.376485 
L 190.004852 -297.221783 
L 189.679791 -297.06353 
L 189.35473 -296.901731 
L 189.029669 -296.73639 
L 188.704609 -296.567509 
L 188.379548 -296.395092 
L 188.054487 -296.219144 
L 187.729426 -296.039666 
L 187.404365 -295.856665 
L 187.079304 -295.670142 
L 186.754243 -295.480102 
L 186.429183 -295.28655 
L 186.104122 -295.089489 
L 185.779061 -294.888923 
L 185.454 -294.684857 
L 185.128939 -294.477295 
L 184.803878 -294.266241 
L 184.478817 -294.0517 
L 184.153756 -293.833676 
L 183.828696 -293.612174 
L 183.503635 -293.387199 
L 183.178574 -293.158755 
L 182.853513 -292.926848 
L 182.528452 -292.691482 
L 182.203391 -292.452662 
L 181.87833 -292.210393 
L 181.553269 -291.964681 
L 181.228209 -291.71553 
L 180.903148 -291.462947 
L 180.578087 -291.206935 
L 180.253026 -290.947502 
L 179.927965 -290.684652 
L 179.602904 -290.418391 
L 179.277843 -290.148724 
L 178.952782 -289.875658 
L 178.627722 -289.599198 
L 178.302661 -289.319351 
L 177.9776 -289.036121 
L 177.652539 -288.749516 
L 177.327478 -288.459541 
L 177.002417 -288.166203 
L 176.677356 -287.869508 
L 176.352295 -287.569462 
L 176.027235 -287.266072 
L 175.702174 -286.959344 
L 175.377113 -286.649285 
L 175.052052 -286.335902 
L 174.726991 -286.019201 
L 174.40193 -285.699189 
L 174.076869 -285.375874 
L 173.751809 -285.049261 
L 173.426748 -284.719359 
L 173.101687 -284.386174 
L 172.776626 -284.049714 
L 172.451565 -283.709985 
L 172.126504 -283.366996 
L 171.801443 -283.020754 
L 171.476382 -282.671266 
L 171.151322 -282.31854 
L 170.826261 -281.962583 
L 170.5012 -281.603404 
L 170.176139 -281.24101 
L 169.851078 -280.875409 
L 169.526017 -280.506609 
L 169.200956 -280.134619 
L 168.875895 -279.759446 
L 168.550835 -279.381099 
L 168.225774 -278.999585 
L 167.900713 -278.614914 
L 167.575652 -278.227094 
L 167.250591 -277.836133 
L 166.92553 -277.44204 
L 166.600469 -277.044824 
L 166.275408 -276.644493 
L 165.950348 -276.241057 
L 165.625287 -275.834524 
L 165.300226 -275.424903 
L 164.975165 -275.012204 
L 164.650104 -274.596435 
L 164.325043 -274.177606 
L 163.999982 -273.755726 
L 163.674921 -273.330805 
L 163.349861 -272.902853 
L 163.0248 -272.471877 
L 162.699739 -272.03789 
L 162.374678 -271.600899 
L 162.049617 -271.160915 
L 161.724556 -270.717948 
L 161.399495 -270.272007 
L 161.074435 -269.823104 
L 160.749374 -269.371247 
L 160.424313 -268.916447 
L 160.099252 -268.458715 
L 159.774191 -267.998061 
L 159.44913 -267.534495 
L 159.124069 -267.068027 
L 158.799008 -266.598669 
L 158.473948 -266.126431 
L 158.148887 -265.651324 
L 157.823826 -265.173358 
L 157.498765 -264.692545 
L 157.173704 -264.208895 
L 156.848643 -263.72242 
L 156.523582 -263.233131 
L 156.198521 -262.741039 
L 155.873461 -262.246155 
L 155.5484 -261.748491 
L 155.223339 -261.248059 
L 154.898278 -260.744869 
L 154.573217 -260.238934 
L 154.248156 -259.730265 
L 153.923095 -259.218873 
L 153.598034 -258.704772 
L 153.272974 -258.187973 
L 152.947913 -257.668488 
L 152.622852 -257.146328 
L 152.297791 -256.621507 
L 151.97273 -256.094037 
L 151.647669 -255.563929 
L 151.322608 -255.031197 
L 150.997548 -254.495853 
L 150.672487 -253.957909 
L 150.347426 -253.417379 
L 150.022365 -252.874275 
L 149.697304 -252.328609 
L 149.372243 -251.780396 
L 149.047182 -251.229647 
L 148.722121 -250.676377 
L 148.397061 -250.120598 
L 148.072 -249.562323 
L 147.746939 -249.001566 
L 147.421878 -248.43834 
L 147.096817 -247.872659 
L 146.771756 -247.304537 
L 146.446695 -246.733987 
L 146.121634 -246.161022 
L 145.796574 -245.585658 
L 145.471513 -245.007907 
L 145.146452 -244.427783 
L 144.821391 -243.845302 
L 144.49633 -243.260477 
L 144.171269 -242.673322 
L 143.846208 -242.083851 
L 143.521147 -241.49208 
L 143.196087 -240.898023 
L 142.871026 -240.301693 
L 142.545965 -239.703107 
L 142.220904 -239.102278 
L 141.895843 -238.499222 
L 141.570782 -237.893953 
L 141.245721 -237.286487 
L 140.92066 -236.676839 
L 140.5956 -236.065023 
L 140.270539 -235.451056 
L 139.945478 -234.834952 
L 139.620417 -234.216727 
L 139.295356 -233.596397 
L 138.970295 -232.973977 
L 138.645234 -232.349483 
L 138.320174 -231.72293 
L 137.995113 -231.094335 
L 137.670052 -230.463714 
L 137.344991 -229.831082 
L 137.01993 -229.196456 
L 136.694869 -228.559852 
L 136.369808 -227.921286 
L 136.044747 -227.280775 
L 135.719687 -226.638336 
L 135.394626 -225.993984 
L 135.069565 -225.347736 
L 134.744504 -224.69961 
L 134.419443 -224.049621 
L 134.094382 -223.397788 
L 133.769321 -222.744126 
L 133.44426 -222.088654 
L 133.1192 -221.431388 
L 132.794139 -220.772346 
L 132.469078 -220.111544 
L 132.144017 -219.449001 
L 131.818956 -218.784734 
L 131.493895 -218.11876 
L 131.168834 -217.451098 
L 130.843773 -216.781764 
L 130.518713 -216.110778 
L 130.193652 -215.438157 
L 129.868591 -214.763918 
L 129.54353 -214.088081 
L 129.218469 -213.410664 
L 128.893408 -212.731684 
L 128.568347 -212.051161 
L 128.243286 -211.369113 
L 127.918226 -210.685558 
L 127.593165 -210.000515 
L 127.268104 -209.314003 
L 126.943043 -208.626041 
L 126.617982 -207.936648 
L 126.292921 -207.245843 
L 125.96786 -206.553645 
L 125.6428 -205.860073 
L 125.317739 -205.165147 
L 124.992678 -204.468886 
L 124.667617 -203.77131 
L 124.342556 -203.072438 
L 124.017495 -202.372291 
L 123.692434 -201.670887 
L 123.367373 -200.968247 
L 123.042313 -200.264391 
L 122.717252 -199.559339 
L 122.392191 -198.853111 
L 122.06713 -198.145727 
L 121.742069 -197.437208 
L 121.417008 -196.727575 
L 121.091947 -196.016847 
L 120.766886 -195.305046 
L 120.441826 -194.592192 
L 120.116765 -193.878306 
L 119.791704 -193.163409 
L 119.466643 -192.447522 
L 119.141582 -191.730667 
L 118.816521 -191.012864 
L 118.49146 -190.294135 
L 118.166399 -189.574502 
L 117.841339 -188.853985 
L 117.516278 -188.132607 
L 117.191217 -187.410389 
L 116.866156 -186.687353 
L 116.541095 -185.963521 
L 116.216034 -185.238915 
L 115.890973 -184.513558 
L 115.565913 -183.78747 
L 115.240852 -183.060675 
L 114.915791 -182.333196 
L 114.59073 -181.605054 
L 114.265669 -180.876272 
L 113.940608 -180.146874 
L 113.615547 -179.416881 
L 113.290486 -178.686317 
L 112.965426 -177.955205 
L 112.640365 -177.223568 
L 112.315304 -176.491429 
L 111.990243 -175.758811 
L 111.665182 -175.025738 
L 111.340121 -174.292234 
L 111.01506 -173.558323 
L 110.689999 -172.824027 
L 110.364939 -172.08937 
L 110.039878 -171.354378 
L 109.714817 -170.619073 
L 109.389756 -169.88348 
L 109.064695 -169.147624 
L 108.739634 -168.411528 
L 108.414573 -167.675217 
L 108.089512 -166.938716 
L 107.764452 -166.20205 
L 107.439391 -165.465243 
L 107.11433 -164.72832 
L 106.789269 -163.991306 
L 106.464208 -163.254226 
L 106.139147 -162.517106 
L 105.814086 -161.779971 
L 105.489025 -161.042847 
L 105.163965 -160.305758 
L 104.838904 -159.568731 
L 104.513843 -158.831792 
L 104.188782 -158.094966 
L 103.863721 -157.358279 
L 103.53866 -156.621758 
L 103.213599 -155.885429 
L 102.888539 -155.149318 
L 102.563478 -154.413452 
L 102.238417 -153.677857 
L 101.913356 -152.94256 
L 101.588295 -152.207588 
L 101.263234 -151.472967 
L 100.938173 -150.738726 
L 100.613112 -150.00489 
L 100.288052 -149.271487 
L 99.962991 -148.538545 
L 99.63793 -147.806092 
L 99.312869 -147.074154 
L 98.987808 -146.34276 
L 98.662747 -145.611937 
L 98.337686 -144.881714 
L 98.012625 -144.152119 
L 97.687565 -143.423179 
L 97.362504 -142.694924 
L 97.037443 -141.967382 
L 96.712382 -141.240581 
L 96.387321 -140.51455 
L 96.06226 -139.789318 
L 95.737199 -139.064915 
L 95.412138 -138.341368 
L 95.087078 -137.618708 
L 94.762017 -136.896964 
L 94.436956 -136.176165 
L 94.111895 -135.456341 
L 93.786834 -134.737522 
L 93.461773 -134.019738 
L 93.136712 -133.303018 
L 92.811651 -132.587393 
L 92.486591 -131.872893 
L 92.16153 -131.159549 
L 91.836469 -130.447391 
L 91.511408 -129.73645 
L 91.186347 -129.026757 
L 90.861286 -128.318342 
L 90.536225 -127.611238 
L 90.211165 -126.905474 
L 89.886104 -126.201083 
L 89.561043 -125.498096 
L 89.235982 -124.796545 
L 88.910921 -124.096461 
L 88.58586 -123.397877 
L 88.260799 -122.700824 
L 87.935738 -122.005336 
L 87.610678 -121.311443 
L 87.285617 -120.61918 
L 86.960556 -119.928578 
L 86.635495 -119.239671 
L 86.310434 -118.552491 
L 85.985373 -117.867072 
L 85.660312 -117.183447 
L 85.335251 -116.501649 
L 85.010191 -115.821713 
L 84.68513 -115.143671 
L 84.360069 -114.467558 
L 84.035008 -113.793408 
L 83.709947 -113.121255 
L 83.384886 -112.451133 
L 83.059825 -111.783078 
L 82.734764 -111.117124 
L 82.409704 -110.453306 
L 82.084643 -109.791659 
L 81.759582 -109.132218 
L 81.434521 -108.475018 
L 81.10946 -107.820096 
L 80.784399 -107.167488 
L 80.459338 -106.517228 
L 80.134278 -105.869353 
L 79.809217 -105.2239 
L 79.484156 -104.580905 
L 79.159095 -103.940405 
L 78.834034 -103.302437 
L 78.508973 -102.667037 
L 78.183912 -102.034243 
L 77.858851 -101.404093 
L 77.533791 -100.776623 
L 77.20873 -100.151873 
L 76.883669 -99.529879 
L 76.558608 -98.91068 
L 76.233547 -98.294315 
L 75.908486 -97.680823 
L 75.583425 -97.070241 
L 75.258364 -96.46261 
L 74.933304 -95.857968 
L 74.608243 -95.256354 
L 74.283182 -94.65781 
z
" id="mc993f5f360" style="stroke:#8f2727;"/>
    </defs>
    <g clip-path="url(#p53fd21a633)">
     <use style="fill:#8f2727;stroke:#8f2727;" x="0" xlink:href="#mc993f5f360" y="319.932"/>
    </g>
   </g>
   <g id="matplotlib.axis_1">
    <g id="xtick_1">
     <g id="line2d_1">
      <defs>
       <path d="M 0 0 
L 0 3.5 
" id="maac71789ee" style="stroke:#000000;stroke-width:0.8;"/>
      </defs>
      <g>
       <use style="stroke:#000000;stroke-width:0.8;" x="41.817727" xlink:href="#maac71789ee" y="273.312"/>
      </g>
     </g>
     <g id="text_1">
      <!-- 0.0 -->
      <g transform="translate(31.593977 291.417)scale(0.16 -0.16)">
       <defs>
        <path d="M 2925 2086 
C 2925 2592 2899 3187 2630 3706 
C 2368 4186 1926 4339 1600 4339 
C 1222 4339 774 4166 512 3597 
C 301 3130 269 2598 269 2086 
C 269 1581 294 1114 486 646 
C 742 32 1229 -141 1594 -141 
C 2061 -141 2464 122 2669 563 
C 2861 979 2925 1402 2925 2086 
z
M 2426 2163 
C 2426 1741 2426 1338 2310 934 
C 2144 352 1805 250 1600 250 
C 1267 250 1005 493 877 954 
C 774 1318 768 1664 768 2163 
C 768 2566 768 2950 877 3302 
C 915 3424 1075 3949 1594 3949 
C 2093 3949 2259 3462 2304 3347 
C 2426 2989 2426 2560 2426 2163 
z
" id="LMSans10-Regular-30" transform="scale(0.015625)"/>
        <path d="M 1152 0 
L 1152 531 
L 621 531 
L 621 0 
L 1152 0 
z
" id="LMSans10-Regular-2e" transform="scale(0.015625)"/>
       </defs>
       <use xlink:href="#LMSans10-Regular-30"/>
       <use x="49.999985" xlink:href="#LMSans10-Regular-2e"/>
       <use x="77.799973" xlink:href="#LMSans10-Regular-30"/>
      </g>
     </g>
    </g>
    <g id="xtick_2">
     <g id="line2d_2">
      <g>
       <use style="stroke:#000000;stroke-width:0.8;" x="106.748636" xlink:href="#maac71789ee" y="273.312"/>
      </g>
     </g>
     <g id="text_2">
      <!-- 0.2 -->
      <g transform="translate(96.524886 291.417)scale(0.16 -0.16)">
       <defs>
        <path d="M 2874 0 
L 2874 454 
L 1709 454 
C 1632 454 1555 448 1478 448 
L 781 448 
C 986 627 1472 1107 1670 1293 
C 1792 1408 2118 1677 2240 1792 
C 2528 2080 2874 2419 2874 2963 
C 2874 3699 2355 4339 1510 4339 
C 781 4339 422 3840 269 3290 
C 346 3181 378 3142 390 3123 
C 403 3110 467 3027 531 2938 
C 659 3430 838 3930 1421 3930 
C 2022 3930 2349 3450 2349 2950 
C 2349 2406 1984 2042 1606 1658 
L 1114 1203 
L 320 410 
L 320 0 
L 2874 0 
z
" id="LMSans10-Regular-32" transform="scale(0.015625)"/>
       </defs>
       <use xlink:href="#LMSans10-Regular-30"/>
       <use x="49.999985" xlink:href="#LMSans10-Regular-2e"/>
       <use x="77.799973" xlink:href="#LMSans10-Regular-32"/>
      </g>
     </g>
    </g>
    <g id="xtick_3">
     <g id="line2d_3">
      <g>
       <use style="stroke:#000000;stroke-width:0.8;" x="171.679545" xlink:href="#maac71789ee" y="273.312"/>
      </g>
     </g>
     <g id="text_3">
      <!-- 0.4 -->
      <g transform="translate(161.455795 291.417)scale(0.16 -0.16)">
       <defs>
        <path d="M 3014 1094 
L 3014 1485 
L 2381 1485 
L 2381 4198 
L 1798 4198 
L 179 1485 
L 179 1094 
L 1875 1094 
L 1875 0 
L 2381 0 
L 2381 1094 
L 3014 1094 
z
M 1914 1485 
L 678 1485 
C 1011 2035 1907 3552 1914 3917 
L 1914 1485 
z
" id="LMSans10-Regular-34" transform="scale(0.015625)"/>
       </defs>
       <use xlink:href="#LMSans10-Regular-30"/>
       <use x="49.999985" xlink:href="#LMSans10-Regular-2e"/>
       <use x="77.799973" xlink:href="#LMSans10-Regular-34"/>
      </g>
     </g>
    </g>
    <g id="xtick_4">
     <g id="line2d_4">
      <g>
       <use style="stroke:#000000;stroke-width:0.8;" x="236.610455" xlink:href="#maac71789ee" y="273.312"/>
      </g>
     </g>
     <g id="text_4">
      <!-- 0.6 -->
      <g transform="translate(226.386705 291.417)scale(0.16 -0.16)">
       <defs>
        <path d="M 2925 1421 
C 2925 2240 2502 2957 1888 2957 
C 1683 2957 1197 2906 806 2426 
C 890 3456 1395 3968 1984 3968 
C 2227 3968 2432 3923 2656 3834 
L 2656 4211 
C 2330 4339 2067 4339 1978 4339 
C 1075 4339 269 3437 269 2061 
C 269 250 1062 -141 1606 -141 
C 1990 -141 2266 6 2515 294 
C 2803 621 2925 915 2925 1421 
z
M 2400 1421 
C 2400 1203 2400 909 2246 646 
C 2138 467 1971 250 1606 250 
C 928 250 832 1190 813 1402 
C 813 1491 813 1504 819 1581 
C 819 2054 1107 2566 1638 2566 
C 1946 2566 2125 2406 2253 2170 
C 2387 1933 2400 1709 2400 1421 
z
" id="LMSans10-Regular-36" transform="scale(0.015625)"/>
       </defs>
       <use xlink:href="#LMSans10-Regular-30"/>
       <use x="49.999985" xlink:href="#LMSans10-Regular-2e"/>
       <use x="77.799973" xlink:href="#LMSans10-Regular-36"/>
      </g>
     </g>
    </g>
    <g id="xtick_5">
     <g id="line2d_5">
      <g>
       <use style="stroke:#000000;stroke-width:0.8;" x="301.541364" xlink:href="#maac71789ee" y="273.312"/>
      </g>
     </g>
     <g id="text_5">
      <!-- 0.8 -->
      <g transform="translate(291.317614 291.417)scale(0.16 -0.16)">
       <defs>
        <path d="M 2925 1152 
C 2925 1734 2477 2125 2048 2272 
C 2618 2458 2835 2880 2835 3219 
C 2835 3821 2291 4339 1600 4339 
C 883 4339 358 3808 358 3219 
C 358 2880 576 2458 1146 2272 
C 685 2112 269 1709 269 1152 
C 269 454 858 -141 1594 -141 
C 2355 -141 2925 474 2925 1152 
z
M 2387 3219 
C 2387 2758 2061 2464 1600 2464 
C 1107 2464 806 2778 806 3219 
C 806 3661 1120 3968 1594 3968 
C 2099 3968 2387 3635 2387 3219 
z
M 2406 1158 
C 2406 538 2010 250 1600 250 
C 1158 250 787 557 787 1158 
C 787 1830 1248 2074 1594 2074 
C 1965 2074 2406 1818 2406 1158 
z
" id="LMSans10-Regular-38" transform="scale(0.015625)"/>
       </defs>
       <use xlink:href="#LMSans10-Regular-30"/>
       <use x="49.999985" xlink:href="#LMSans10-Regular-2e"/>
       <use x="77.799973" xlink:href="#LMSans10-Regular-38"/>
      </g>
     </g>
    </g>
    <g id="xtick_6">
     <g id="line2d_6">
      <g>
       <use style="stroke:#000000;stroke-width:0.8;" x="366.472273" xlink:href="#maac71789ee" y="273.312"/>
      </g>
     </g>
     <g id="text_6">
      <!-- 1.0 -->
      <g transform="translate(356.248523 291.417)scale(0.16 -0.16)">
       <defs>
        <path d="M 2714 0 
L 2714 371 
L 1914 371 
L 1914 4339 
L 1786 4339 
C 1408 3949 877 3930 570 3917 
L 570 3546 
C 781 3552 1088 3565 1408 3699 
L 1408 371 
L 608 371 
L 608 0 
L 2714 0 
z
" id="LMSans10-Regular-31" transform="scale(0.015625)"/>
       </defs>
       <use xlink:href="#LMSans10-Regular-31"/>
       <use x="49.999985" xlink:href="#LMSans10-Regular-2e"/>
       <use x="77.799973" xlink:href="#LMSans10-Regular-30"/>
      </g>
     </g>
    </g>
    <g id="text_7">
     <!-- theta -->
     <g transform="translate(186.83375 309.627)scale(0.16 -0.16)">
      <defs>
       <path d="M 2125 173 
L 2022 550 
C 1856 416 1651 339 1446 339 
C 1210 339 1120 531 1120 870 
L 1120 2470 
L 2022 2470 
L 2022 2842 
L 1120 2842 
L 1120 3654 
L 678 3654 
L 678 2842 
L 122 2842 
L 122 2470 
L 659 2470 
L 659 762 
C 659 378 749 -70 1190 -70 
C 1638 -70 1965 90 2125 173 
z
" id="LMSans10-Regular-74" transform="scale(0.015625)"/>
       <path d="M 2784 0 
L 2784 1907 
C 2784 2330 2688 2912 1907 2912 
C 1510 2912 1203 2714 998 2451 
L 998 4442 
L 518 4442 
L 518 0 
L 1018 0 
L 1018 1568 
C 1018 1990 1178 2522 1664 2522 
C 2278 2522 2285 2067 2285 1862 
L 2285 0 
L 2784 0 
z
" id="LMSans10-Regular-68" transform="scale(0.015625)"/>
       <path d="M 2650 1402 
C 2650 1619 2643 2099 2394 2483 
C 2131 2880 1741 2950 1510 2950 
C 800 2950 224 2272 224 1446 
C 224 602 838 -70 1606 -70 
C 2010 -70 2374 83 2624 262 
L 2586 678 
C 2182 346 1760 320 1613 320 
C 1101 320 691 774 672 1402 
L 2650 1402 
z
M 2285 1754 
L 704 1754 
C 806 2240 1146 2560 1510 2560 
C 1843 2560 2202 2342 2285 1754 
z
" id="LMSans10-Regular-65" transform="scale(0.015625)"/>
       <path d="M 2618 0 
L 2618 1850 
C 2618 2502 2150 2950 1562 2950 
C 1146 2950 858 2848 557 2675 
L 595 2253 
C 928 2490 1248 2573 1562 2573 
C 1862 2573 2118 2317 2118 1843 
L 2118 1568 
C 1158 1555 346 1286 346 723 
C 346 448 518 -70 1075 -70 
C 1165 -70 1766 -58 2138 230 
L 2138 0 
L 2618 0 
z
M 2118 845 
C 2118 723 2118 563 1901 442 
C 1715 326 1472 320 1402 320 
C 1094 320 806 467 806 736 
C 806 1184 1843 1229 2118 1242 
L 2118 845 
z
" id="LMSans10-Regular-61" transform="scale(0.015625)"/>
      </defs>
      <use xlink:href="#LMSans10-Regular-74"/>
      <use x="36.099991" xlink:href="#LMSans10-Regular-68"/>
      <use x="87.799988" xlink:href="#LMSans10-Regular-65"/>
      <use x="132.199982" xlink:href="#LMSans10-Regular-74"/>
      <use x="168.299973" xlink:href="#LMSans10-Regular-61"/>
     </g>
    </g>
   </g>
   <g id="matplotlib.axis_2">
    <g id="text_8">
     <!-- Prior Density -->
     <g transform="translate(18.305 184.4335)rotate(-90)scale(0.16 -0.16)">
      <defs>
       <path d="M 3725 3149 
C 3725 3834 3091 4442 2208 4442 
L 614 4442 
L 614 0 
L 1184 0 
L 1184 1850 
L 2253 1850 
C 3046 1850 3725 2432 3725 3149 
z
M 3206 3149 
C 3206 2643 2803 2221 2067 2221 
L 1165 2221 
L 1165 4083 
L 2067 4083 
C 2771 4083 3206 3693 3206 3149 
z
" id="LMSans10-Regular-50" transform="scale(0.015625)"/>
       <path d="M 2093 2483 
L 2093 2912 
C 1523 2906 1171 2592 973 2298 
L 973 2880 
L 525 2880 
L 525 0 
L 1005 0 
L 1005 1370 
C 1005 2010 1466 2470 2093 2483 
z
" id="LMSans10-Regular-72" transform="scale(0.015625)"/>
       <path d="M 998 0 
L 998 2842 
L 518 2842 
L 518 0 
L 998 0 
z
M 1050 3622 
L 1050 4192 
L 480 4192 
L 480 3622 
L 1050 3622 
z
" id="LMSans10-Regular-69" transform="scale(0.015625)"/>
       <path d="M 3002 1408 
C 3002 2266 2362 2950 1600 2950 
C 813 2950 192 2246 192 1408 
C 192 563 845 -70 1594 -70 
C 2362 -70 3002 576 3002 1408 
z
M 2502 1472 
C 2502 717 2067 339 1594 339 
C 1152 339 691 698 691 1472 
C 691 2246 1178 2560 1594 2560 
C 2042 2560 2502 2227 2502 1472 
z
" id="LMSans10-Regular-6f" transform="scale(0.015625)"/>
       <path id="LMSans10-Regular-20" transform="scale(0.015625)"/>
       <path d="M 4256 2182 
C 4256 3424 3392 4442 2291 4442 
L 614 4442 
L 614 0 
L 2298 0 
C 3386 0 4256 973 4256 2182 
z
M 3706 2182 
C 3706 1094 3040 358 2144 358 
L 1165 358 
L 1165 4083 
L 2144 4083 
C 3040 4083 3706 3309 3706 2182 
z
" id="LMSans10-Regular-44" transform="scale(0.015625)"/>
       <path d="M 2784 0 
L 2784 1907 
C 2784 2330 2688 2912 1907 2912 
C 1331 2912 1018 2477 979 2426 
L 979 2880 
L 518 2880 
L 518 0 
L 1018 0 
L 1018 1568 
C 1018 1990 1178 2522 1664 2522 
C 2278 2522 2285 2067 2285 1862 
L 2285 0 
L 2784 0 
z
" id="LMSans10-Regular-6e" transform="scale(0.015625)"/>
       <path d="M 2304 819 
C 2304 1171 2067 1389 2054 1408 
C 1805 1632 1632 1670 1312 1728 
C 960 1798 666 1862 666 2176 
C 666 2573 1126 2573 1210 2573 
C 1414 2573 1754 2547 2118 2330 
L 2195 2746 
C 1862 2899 1600 2950 1274 2950 
C 1114 2950 211 2950 211 2112 
C 211 1798 397 1594 557 1472 
C 755 1331 896 1306 1248 1235 
C 1478 1190 1850 1114 1850 774 
C 1850 333 1344 333 1248 333 
C 730 333 371 570 256 646 
L 179 211 
C 384 109 736 -70 1254 -70 
C 1370 -70 1722 -70 1997 134 
C 2195 288 2304 544 2304 819 
z
" id="LMSans10-Regular-73" transform="scale(0.015625)"/>
       <path d="M 2854 2842 
L 2374 2842 
C 1542 806 1530 512 1523 365 
L 1517 365 
C 1478 794 966 1984 941 2042 
L 595 2842 
L 90 2842 
L 1331 0 
L 1101 -576 
C 934 -947 826 -947 736 -947 
C 634 -947 429 -922 237 -845 
L 275 -1261 
C 416 -1293 595 -1312 736 -1312 
C 960 -1312 1197 -1235 1459 -582 
L 2854 2842 
z
" id="LMSans10-Regular-79" transform="scale(0.015625)"/>
      </defs>
      <use xlink:href="#LMSans10-Regular-50"/>
      <use x="63.899994" xlink:href="#LMSans10-Regular-72"/>
      <use x="98.099991" xlink:href="#LMSans10-Regular-69"/>
      <use x="121.999985" xlink:href="#LMSans10-Regular-6f"/>
      <use x="171.999969" xlink:href="#LMSans10-Regular-72"/>
      <use x="206.199966" xlink:href="#LMSans10-Regular-20"/>
      <use x="239.499954" xlink:href="#LMSans10-Regular-44"/>
      <use x="311.699936" xlink:href="#LMSans10-Regular-65"/>
      <use x="356.09993" xlink:href="#LMSans10-Regular-6e"/>
      <use x="407.799927" xlink:href="#LMSans10-Regular-73"/>
      <use x="446.099915" xlink:href="#LMSans10-Regular-69"/>
      <use x="469.999908" xlink:href="#LMSans10-Regular-74"/>
      <use x="506.099899" xlink:href="#LMSans10-Regular-79"/>
     </g>
    </g>
   </g>
   <g id="line2d_7">
    <path clip-path="url(#p53fd21a633)" d="M 41.817727 261.216 
L 43.117645 261.108951 
L 44.742543 260.734301 
L 46.367441 260.127602 
L 47.992338 259.30974 
L 49.942215 258.070845 
L 51.892093 256.570991 
L 54.166949 254.515213 
L 56.441806 252.153654 
L 59.041642 249.108884 
L 61.641478 245.724187 
L 64.566294 241.544693 
L 67.816089 236.482158 
L 71.390864 230.45832 
L 75.290618 223.409232 
L 79.515352 215.289493 
L 84.390045 205.402175 
L 89.914697 193.669013 
L 96.739267 178.631336 
L 108.43853 152.202511 
L 119.487834 127.437779 
L 126.637383 111.954166 
L 132.487015 99.783947 
L 138.011667 88.805604 
L 142.88636 79.602126 
L 147.436073 71.469013 
L 151.660807 64.346595 
L 155.885541 57.667404 
L 159.785295 51.918156 
L 163.36007 47.015661 
L 166.934844 42.478624 
L 170.509619 38.319252 
L 173.759414 34.875059 
L 177.00921 31.759633 
L 179.934025 29.242417 
L 182.858841 27.001323 
L 185.783657 25.040217 
L 188.708473 23.362463 
L 191.308309 22.111329 
L 193.908145 21.088032 
L 196.507981 20.293942 
L 199.107817 19.730123 
L 201.707654 19.397328 
L 204.30749 19.296 
L 206.907326 19.426275 
L 209.507162 19.787979 
L 212.106998 20.380629 
L 214.706835 21.203434 
L 217.306671 22.255293 
L 219.906507 23.534794 
L 222.506343 25.040217 
L 225.431159 27.001323 
L 228.355975 29.242417 
L 231.28079 31.759633 
L 234.530586 34.875059 
L 237.780381 38.319252 
L 241.030176 42.084719 
L 244.604951 46.58791 
L 248.179726 51.457716 
L 252.07948 57.172747 
L 255.979234 63.289494 
L 260.203968 70.345526 
L 264.753681 78.41225 
L 269.303395 86.926743 
L 274.503067 97.152412 
L 280.027719 108.522991 
L 286.20233 121.741541 
L 294.001839 139.00528 
L 320.65016 198.55837 
L 326.174812 210.07826 
L 331.049505 219.719196 
L 335.274238 227.577869 
L 339.173993 234.343899 
L 342.423788 239.570058 
L 345.673583 244.373041 
L 348.598399 248.293453 
L 351.198235 251.42594 
L 353.798071 254.196023 
L 356.072928 256.296943 
L 358.347785 258.070845 
L 360.297662 259.30974 
L 362.247539 260.266393 
L 363.872437 260.828628 
L 365.497334 261.153307 
L 366.472273 261.216 
L 366.472273 261.216 
" style="fill:none;stroke:#7c0000;stroke-linecap:square;stroke-width:2;"/>
   </g>
   <g id="patch_3">
    <path d="M 25.585 273.312 
L 25.585 7.2 
" style="fill:none;stroke:#000000;stroke-linecap:square;stroke-linejoin:miter;stroke-width:0.8;"/>
   </g>
   <g id="patch_4">
    <path d="M 382.705 273.312 
L 382.705 7.2 
" style="fill:none;stroke:#000000;stroke-linecap:square;stroke-linejoin:miter;stroke-width:0.8;"/>
   </g>
   <g id="patch_5">
    <path d="M 25.585 273.312 
L 382.705 273.312 
" style="fill:none;stroke:#000000;stroke-linecap:square;stroke-linejoin:miter;stroke-width:0.8;"/>
   </g>
   <g id="patch_6">
    <path d="M 25.585 7.2 
L 382.705 7.2 
" style="fill:none;stroke:#000000;stroke-linecap:square;stroke-linejoin:miter;stroke-width:0.8;"/>
   </g>
  </g>
 </g>
 <defs>
  <clipPath id="p53fd21a633">
   <rect height="266.112" width="357.12" x="25.585" y="7.2"/>
  </clipPath>
 </defs>
</svg>
