<?xml version="1.0" encoding="utf-8" standalone="no"?>
<!DOCTYPE svg PUBLIC "-//W3C//DTD SVG 1.1//EN"
  "http://www.w3.org/Graphics/SVG/1.1/DTD/svg11.dtd">
<svg height="152.39952pt" version="1.1" viewBox="0 0 872.39952 152.39952" width="872.39952pt" xmlns="http://www.w3.org/2000/svg" xmlns:xlink="http://www.w3.org/1999/xlink">
 <metadata>
  <rdf:RDF xmlns:cc="http://creativecommons.org/ns#" xmlns:dc="http://purl.org/dc/elements/1.1/" xmlns:rdf="http://www.w3.org/1999/02/22-rdf-syntax-ns#">
   <cc:Work>
    <dc:type rdf:resource="http://purl.org/dc/dcmitype/StillImage"/>
    <dc:date>2021-05-27T07:35:18.850847</dc:date>
    <dc:format>image/svg+xml</dc:format>
    <dc:creator>
     <cc:Agent>
      <dc:title>Matplotlib v3.4.2, https://matplotlib.org/</dc:title>
     </cc:Agent>
    </dc:creator>
   </cc:Work>
  </rdf:RDF>
 </metadata>
 <defs>
  <style type="text/css">*{stroke-linecap:butt;stroke-linejoin:round;}</style>
 </defs>
 <g id="figure_1">
  <g id="patch_1">
   <path d="M 0 152.39952 
L 872.39952 152.39952 
L 872.39952 0 
L 0 0 
z
" style="fill:#ffffff;"/>
  </g>
  <g id="axes_1">
   <g id="patch_2">
    <path d="M 10.7 129.31827 
L 423.739916 129.31827 
L 423.739916 21.132143 
L 10.7 21.132143 
z
" style="fill:#ffffff;"/>
   </g>
   <g id="PolyCollection_1">
    <defs>
     <path d="M 39.086688 -27.998801 
L 39.086688 -35.522955 
L 39.802693 -35.535826 
L 40.518698 -35.561523 
L 41.234703 -35.611339 
L 41.950709 -35.675195 
L 42.666714 -35.74169 
L 43.382719 -35.826411 
L 44.098724 -35.918459 
L 44.81473 -36.023257 
L 45.530735 -36.136103 
L 46.24674 -36.266691 
L 46.962745 -36.414024 
L 47.678751 -36.567048 
L 48.394756 -36.741772 
L 49.110761 -36.911373 
L 49.826766 -37.102479 
L 50.542772 -37.30394 
L 51.258777 -37.514681 
L 51.974782 -37.734903 
L 52.690787 -37.96415 
L 53.406793 -38.218386 
L 54.122798 -38.465796 
L 54.838803 -38.721061 
L 55.554809 -38.977395 
L 56.270814 -39.245011 
L 56.986819 -39.51841 
L 57.702824 -39.781361 
L 58.41883 -40.054691 
L 59.134835 -40.343528 
L 59.85084 -40.63104 
L 60.566845 -40.926861 
L 61.282851 -41.225574 
L 61.998856 -41.516092 
L 62.714861 -41.825108 
L 63.430866 -42.125229 
L 64.146872 -42.426844 
L 64.862877 -42.73533 
L 65.578882 -43.045427 
L 66.294887 -43.351914 
L 67.010893 -43.659631 
L 67.726898 -43.974106 
L 68.442903 -44.289593 
L 69.158908 -44.616817 
L 69.874914 -44.945853 
L 70.590919 -45.254798 
L 71.306924 -45.569498 
L 72.022929 -45.902055 
L 72.738935 -46.227566 
L 73.45494 -46.555718 
L 74.170945 -46.885499 
L 74.886951 -47.217218 
L 75.602956 -47.545515 
L 76.318961 -47.876362 
L 77.034966 -48.221438 
L 77.750972 -48.564774 
L 78.466977 -48.917509 
L 79.182982 -49.269389 
L 79.898987 -49.631572 
L 80.614993 -49.993816 
L 81.330998 -50.361592 
L 82.047003 -50.735319 
L 82.763008 -51.121095 
L 83.479014 -51.508649 
L 84.195019 -51.903409 
L 84.911024 -52.300042 
L 85.627029 -52.709544 
L 86.343035 -53.121475 
L 87.05904 -53.546763 
L 87.775045 -53.980582 
L 88.49105 -54.428803 
L 89.207056 -54.8809 
L 89.923061 -55.342017 
L 90.639066 -55.823588 
L 91.355071 -56.315672 
L 92.071077 -56.807 
L 92.787082 -57.324666 
L 93.503087 -57.84225 
L 94.219092 -58.369766 
L 94.935098 -58.901404 
L 95.651103 -59.453358 
L 96.367108 -60.004018 
L 97.083114 -60.563808 
L 97.799119 -61.12733 
L 98.515124 -61.70422 
L 99.231129 -62.282673 
L 99.947135 -62.878582 
L 100.66314 -63.470042 
L 101.379145 -64.089302 
L 102.09515 -64.704447 
L 102.811156 -65.31937 
L 103.527161 -65.932827 
L 104.243166 -66.577629 
L 104.959171 -67.205433 
L 105.675177 -67.841482 
L 106.391182 -68.485853 
L 107.107187 -69.144391 
L 107.823192 -69.812356 
L 108.539198 -70.456014 
L 109.255203 -71.111411 
L 109.971208 -71.768052 
L 110.687213 -72.408487 
L 111.403219 -73.058668 
L 112.119224 -73.713792 
L 112.835229 -74.357126 
L 113.551234 -74.99835 
L 114.26724 -75.64277 
L 114.983245 -76.279366 
L 115.69925 -76.924244 
L 116.415255 -77.578552 
L 117.131261 -78.220864 
L 117.847266 -78.849847 
L 118.563271 -79.470407 
L 119.279277 -80.093107 
L 119.995282 -80.712187 
L 120.711287 -81.32761 
L 121.427292 -81.939369 
L 122.143298 -82.537392 
L 122.859303 -83.132328 
L 123.575308 -83.734204 
L 124.291313 -84.333028 
L 125.007319 -84.951682 
L 125.723324 -85.541314 
L 126.439329 -86.132939 
L 127.155334 -86.716637 
L 127.87134 -87.343737 
L 128.587345 -87.929043 
L 129.30335 -88.524467 
L 130.019355 -89.119582 
L 130.735361 -89.703321 
L 131.451366 -90.297321 
L 132.167371 -90.902521 
L 132.883376 -91.481442 
L 133.599382 -92.070752 
L 134.315387 -92.654189 
L 135.031392 -93.253934 
L 135.747397 -93.844351 
L 136.463403 -94.436245 
L 137.179408 -95.024612 
L 137.895413 -95.61379 
L 138.611418 -96.213769 
L 139.327424 -96.837209 
L 140.043429 -97.435708 
L 140.759434 -98.023603 
L 141.47544 -98.627715 
L 142.191445 -99.220693 
L 142.90745 -99.818587 
L 143.623455 -100.427373 
L 144.339461 -101.02467 
L 145.055466 -101.609385 
L 145.771471 -102.202998 
L 146.487476 -102.805614 
L 147.203482 -103.394678 
L 147.919487 -103.979666 
L 148.635492 -104.571302 
L 149.351497 -105.131785 
L 150.067503 -105.708828 
L 150.783508 -106.280296 
L 151.499513 -106.833484 
L 152.215518 -107.394717 
L 152.931524 -107.942521 
L 153.647529 -108.486914 
L 154.363534 -109.01082 
L 155.079539 -109.534926 
L 155.795545 -110.042814 
L 156.51155 -110.550219 
L 157.227555 -111.040835 
L 157.94356 -111.509054 
L 158.659566 -111.965599 
L 159.375571 -112.40288 
L 160.091576 -112.830351 
L 160.807582 -113.242438 
L 161.523587 -113.638656 
L 162.239592 -114.007828 
L 162.955597 -114.375945 
L 163.671603 -114.710525 
L 164.387608 -115.031962 
L 165.103613 -115.352611 
L 165.819618 -115.657293 
L 166.535624 -115.940346 
L 167.251629 -116.207494 
L 167.967634 -116.475273 
L 168.683639 -116.701138 
L 169.399645 -116.916135 
L 170.11565 -117.105395 
L 170.831655 -117.285546 
L 171.54766 -117.461333 
L 172.263666 -117.633304 
L 172.979671 -117.769351 
L 173.695676 -117.890822 
L 174.411681 -118.003327 
L 175.127687 -118.107535 
L 175.843692 -118.194774 
L 176.559697 -118.276523 
L 177.275702 -118.359327 
L 177.991708 -118.412006 
L 178.707713 -118.460571 
L 179.423718 -118.501492 
L 180.139723 -118.541349 
L 180.855729 -118.569738 
L 181.571734 -118.621721 
L 182.287739 -118.634167 
L 183.003745 -118.660287 
L 183.71975 -118.668257 
L 184.435755 -118.668983 
L 185.15176 -118.673927 
L 185.867766 -118.67946 
L 186.583771 -118.687624 
L 187.299776 -118.708602 
L 188.015781 -118.736905 
L 188.731787 -118.776639 
L 189.447792 -118.819934 
L 190.163797 -118.859381 
L 190.879802 -118.915853 
L 191.595808 -118.962976 
L 192.311813 -119.027151 
L 193.027818 -119.08751 
L 193.743823 -119.161523 
L 194.459829 -119.244552 
L 195.175834 -119.331255 
L 195.891839 -119.443965 
L 196.607844 -119.562217 
L 197.32385 -119.696987 
L 198.039855 -119.831451 
L 198.75586 -119.970056 
L 199.471865 -120.1127 
L 200.187871 -120.275564 
L 200.903876 -120.447725 
L 201.619881 -120.628278 
L 202.335886 -120.822571 
L 203.051892 -121.019518 
L 203.767897 -121.217973 
L 204.483902 -121.434361 
L 205.199908 -121.652963 
L 205.915913 -121.872421 
L 206.631918 -122.10767 
L 207.347923 -122.332067 
L 208.063929 -122.561003 
L 208.779934 -122.803489 
L 209.495939 -123.032014 
L 210.211944 -123.278185 
L 210.92795 -123.513122 
L 211.643955 -123.750709 
L 212.35996 -123.973935 
L 213.075965 -124.225632 
L 213.791971 -124.445419 
L 214.507976 -124.662836 
L 215.223981 -124.882243 
L 215.939986 -125.097383 
L 216.655992 -125.285637 
L 217.371997 -125.466471 
L 218.088002 -125.617767 
L 218.804007 -125.771537 
L 219.520013 -125.920836 
L 220.236018 -126.058894 
L 220.952023 -126.153818 
L 221.668028 -126.247285 
L 222.384034 -126.309842 
L 223.100039 -126.340403 
L 223.816044 -126.349826 
L 224.532049 -126.327572 
L 225.248055 -126.30846 
L 225.96406 -126.253228 
L 226.680065 -126.166783 
L 227.396071 -126.074224 
L 228.112076 -125.942922 
L 228.828081 -125.784424 
L 229.544086 -125.603386 
L 230.260092 -125.398937 
L 230.976097 -125.155231 
L 231.692102 -124.882247 
L 232.408107 -124.574921 
L 233.124113 -124.240886 
L 233.840118 -123.880265 
L 234.556123 -123.502095 
L 235.272128 -123.089775 
L 235.988134 -122.654533 
L 236.704139 -122.186274 
L 237.420144 -121.696391 
L 238.136149 -121.180645 
L 238.852155 -120.634228 
L 239.56816 -120.068121 
L 240.284165 -119.472608 
L 241.00017 -118.860728 
L 241.716176 -118.20271 
L 242.432181 -117.551816 
L 243.148186 -116.875821 
L 243.864191 -116.181656 
L 244.580197 -115.430231 
L 245.296202 -114.719584 
L 246.012207 -113.979824 
L 246.728213 -113.23944 
L 247.444218 -112.482845 
L 248.160223 -111.710813 
L 248.876228 -110.925976 
L 249.592234 -110.150428 
L 250.308239 -109.374243 
L 251.024244 -108.593875 
L 251.740249 -107.795003 
L 252.456255 -106.995274 
L 253.17226 -106.200908 
L 253.888265 -105.40237 
L 254.60427 -104.621561 
L 255.320276 -103.82749 
L 256.036281 -103.017342 
L 256.752286 -102.2454 
L 257.468291 -101.478474 
L 258.184297 -100.706698 
L 258.900302 -99.96357 
L 259.616307 -99.206985 
L 260.332312 -98.453844 
L 261.048318 -97.720256 
L 261.764323 -97.000262 
L 262.480328 -96.278437 
L 263.196333 -95.561242 
L 263.912339 -94.864438 
L 264.628344 -94.17668 
L 265.344349 -93.487831 
L 266.060354 -92.829842 
L 266.77636 -92.159716 
L 267.492365 -91.504222 
L 268.20837 -90.867378 
L 268.924376 -90.233742 
L 269.640381 -89.603537 
L 270.356386 -88.97559 
L 271.072391 -88.365049 
L 271.788397 -87.761299 
L 272.504402 -87.158747 
L 273.220407 -86.551075 
L 273.936412 -85.953936 
L 274.652418 -85.360933 
L 275.368423 -84.771365 
L 276.084428 -84.199674 
L 276.800433 -83.618214 
L 277.516439 -83.0428 
L 278.232444 -82.462165 
L 278.948449 -81.897204 
L 279.664454 -81.315362 
L 280.38046 -80.742632 
L 281.096465 -80.167276 
L 281.81247 -79.56374 
L 282.528475 -78.96994 
L 283.244481 -78.369015 
L 283.960486 -77.771254 
L 284.676491 -77.155509 
L 285.392496 -76.558564 
L 286.108502 -75.957524 
L 286.824507 -75.347256 
L 287.540512 -74.738387 
L 288.256517 -74.120189 
L 288.972523 -73.493289 
L 289.688528 -72.878476 
L 290.404533 -72.258889 
L 291.120539 -71.634768 
L 291.836544 -71.001338 
L 292.552549 -70.359472 
L 293.268554 -69.720095 
L 293.98456 -69.062669 
L 294.700565 -68.42456 
L 295.41657 -67.78342 
L 296.132575 -67.140967 
L 296.848581 -66.492601 
L 297.564586 -65.843119 
L 298.280591 -65.167702 
L 298.996596 -64.525154 
L 299.712602 -63.871749 
L 300.428607 -63.234378 
L 301.144612 -62.596539 
L 301.860617 -61.958791 
L 302.576623 -61.311579 
L 303.292628 -60.666671 
L 304.008633 -60.029488 
L 304.724638 -59.389729 
L 305.440644 -58.728208 
L 306.156649 -58.083477 
L 306.872654 -57.464492 
L 307.588659 -56.838823 
L 308.304665 -56.23326 
L 309.02067 -55.626144 
L 309.736675 -55.028574 
L 310.452681 -54.425178 
L 311.168686 -53.83263 
L 311.884691 -53.245539 
L 312.600696 -52.654092 
L 313.316702 -52.0698 
L 314.032707 -51.492781 
L 314.748712 -50.933239 
L 315.464717 -50.385078 
L 316.180723 -49.842894 
L 316.896728 -49.301909 
L 317.612733 -48.767989 
L 318.328738 -48.246341 
L 319.044744 -47.721398 
L 319.760749 -47.214697 
L 320.476754 -46.715044 
L 321.192759 -46.212522 
L 321.908765 -45.718537 
L 322.62477 -45.243199 
L 323.340775 -44.765186 
L 324.05678 -44.300926 
L 324.772786 -43.850486 
L 325.488791 -43.40326 
L 326.204796 -42.96435 
L 326.920801 -42.528758 
L 327.636807 -42.112243 
L 328.352812 -41.703529 
L 329.068817 -41.302709 
L 329.784822 -40.889684 
L 330.500828 -40.5072 
L 331.216833 -40.132573 
L 331.932838 -39.75578 
L 332.648844 -39.388123 
L 333.364849 -39.034568 
L 334.080854 -38.694453 
L 334.796859 -38.357088 
L 335.512865 -38.023083 
L 336.22887 -37.692974 
L 336.944875 -37.372274 
L 337.66088 -37.060812 
L 338.376886 -36.763462 
L 339.092891 -36.47948 
L 339.808896 -36.208183 
L 340.524901 -35.93381 
L 341.240907 -35.672658 
L 341.956912 -35.418972 
L 342.672917 -35.172676 
L 343.388922 -34.938735 
L 344.104928 -34.706386 
L 344.820933 -34.481217 
L 345.536938 -34.258072 
L 346.252943 -34.047501 
L 346.968949 -33.844342 
L 347.684954 -33.654171 
L 348.400959 -33.470609 
L 349.116964 -33.287917 
L 349.83297 -33.101575 
L 350.548975 -32.932796 
L 351.26498 -32.770085 
L 351.980985 -32.61837 
L 352.696991 -32.466861 
L 353.412996 -32.32617 
L 354.129001 -32.1855 
L 354.845007 -32.050411 
L 355.561012 -31.925816 
L 356.277017 -31.80596 
L 356.993022 -31.690777 
L 357.709028 -31.570103 
L 358.425033 -31.465204 
L 359.141038 -31.364633 
L 359.857043 -31.268321 
L 360.573049 -31.176199 
L 361.289054 -31.088193 
L 362.005059 -30.994139 
L 362.721064 -30.910255 
L 363.43707 -30.825675 
L 364.153075 -30.755986 
L 364.86908 -30.689756 
L 365.585085 -30.621885 
L 366.301091 -30.562988 
L 367.017096 -30.497231 
L 367.733101 -30.440852 
L 368.449106 -30.388047 
L 369.165112 -30.343751 
L 369.881117 -30.302877 
L 370.597122 -30.265384 
L 371.313127 -30.225542 
L 372.029133 -30.19398 
L 372.745138 -30.164965 
L 373.461143 -30.133406 
L 374.177148 -30.109923 
L 374.893154 -30.088776 
L 375.609159 -30.059823 
L 376.325164 -30.044342 
L 377.04117 -30.030903 
L 377.757175 -30.019449 
L 378.47318 -30.009918 
L 379.189185 -30.002246 
L 379.905191 -29.996361 
L 380.621196 -29.992187 
L 381.337201 -29.989646 
L 382.053206 -29.988654 
L 382.769212 -29.984077 
L 383.485217 -29.986496 
L 384.201222 -29.990131 
L 384.917227 -29.994891 
L 385.633233 -29.990592 
L 386.349238 -29.998475 
L 387.065243 -30.007072 
L 387.781248 -30.016293 
L 388.497254 -30.015955 
L 389.213259 -30.027305 
L 389.929264 -30.038876 
L 390.645269 -30.050584 
L 391.361275 -30.062341 
L 392.07728 -30.074061 
L 392.793285 -30.085656 
L 393.50929 -30.097037 
L 394.225296 -30.108117 
L 394.941301 -30.11881 
L 395.657306 -30.123986 
L 396.373312 -30.134231 
L 397.089317 -30.14378 
L 397.805322 -30.152559 
L 398.521327 -30.17188 
L 399.237333 -30.180351 
L 399.953338 -30.188012 
L 400.669343 -30.194818 
L 401.385348 -30.200729 
L 402.101354 -30.205709 
L 402.817359 -30.209729 
L 403.533364 -30.212766 
L 404.249369 -30.2148 
L 404.965375 -30.21582 
L 404.965375 -27.998801 
L 404.965375 -27.998801 
L 404.249369 -27.998801 
L 403.533364 -27.998801 
L 402.817359 -27.998801 
L 402.101354 -27.998801 
L 401.385348 -27.998801 
L 400.669343 -27.998801 
L 399.953338 -27.998801 
L 399.237333 -27.998801 
L 398.521327 -27.998801 
L 397.805322 -27.998801 
L 397.089317 -27.998801 
L 396.373312 -27.998801 
L 395.657306 -27.998801 
L 394.941301 -27.998801 
L 394.225296 -27.998801 
L 393.50929 -27.998801 
L 392.793285 -27.998801 
L 392.07728 -27.998801 
L 391.361275 -27.998801 
L 390.645269 -27.998801 
L 389.929264 -27.998801 
L 389.213259 -27.998801 
L 388.497254 -27.998801 
L 387.781248 -27.998801 
L 387.065243 -27.998801 
L 386.349238 -27.998801 
L 385.633233 -27.998801 
L 384.917227 -27.998801 
L 384.201222 -27.998801 
L 383.485217 -27.998801 
L 382.769212 -27.998801 
L 382.053206 -27.998801 
L 381.337201 -27.998801 
L 380.621196 -27.998801 
L 379.905191 -27.998801 
L 379.189185 -27.998801 
L 378.47318 -27.998801 
L 377.757175 -27.998801 
L 377.04117 -27.998801 
L 376.325164 -27.998801 
L 375.609159 -27.998801 
L 374.893154 -27.998801 
L 374.177148 -27.998801 
L 373.461143 -27.998801 
L 372.745138 -27.998801 
L 372.029133 -27.998801 
L 371.313127 -27.998801 
L 370.597122 -27.998801 
L 369.881117 -27.998801 
L 369.165112 -27.998801 
L 368.449106 -27.998801 
L 367.733101 -27.998801 
L 367.017096 -27.998801 
L 366.301091 -27.998801 
L 365.585085 -27.998801 
L 364.86908 -27.998801 
L 364.153075 -27.998801 
L 363.43707 -27.998801 
L 362.721064 -27.998801 
L 362.005059 -27.998801 
L 361.289054 -27.998801 
L 360.573049 -27.998801 
L 359.857043 -27.998801 
L 359.141038 -27.998801 
L 358.425033 -27.998801 
L 357.709028 -27.998801 
L 356.993022 -27.998801 
L 356.277017 -27.998801 
L 355.561012 -27.998801 
L 354.845007 -27.998801 
L 354.129001 -27.998801 
L 353.412996 -27.998801 
L 352.696991 -27.998801 
L 351.980985 -27.998801 
L 351.26498 -27.998801 
L 350.548975 -27.998801 
L 349.83297 -27.998801 
L 349.116964 -27.998801 
L 348.400959 -27.998801 
L 347.684954 -27.998801 
L 346.968949 -27.998801 
L 346.252943 -27.998801 
L 345.536938 -27.998801 
L 344.820933 -27.998801 
L 344.104928 -27.998801 
L 343.388922 -27.998801 
L 342.672917 -27.998801 
L 341.956912 -27.998801 
L 341.240907 -27.998801 
L 340.524901 -27.998801 
L 339.808896 -27.998801 
L 339.092891 -27.998801 
L 338.376886 -27.998801 
L 337.66088 -27.998801 
L 336.944875 -27.998801 
L 336.22887 -27.998801 
L 335.512865 -27.998801 
L 334.796859 -27.998801 
L 334.080854 -27.998801 
L 333.364849 -27.998801 
L 332.648844 -27.998801 
L 331.932838 -27.998801 
L 331.216833 -27.998801 
L 330.500828 -27.998801 
L 329.784822 -27.998801 
L 329.068817 -27.998801 
L 328.352812 -27.998801 
L 327.636807 -27.998801 
L 326.920801 -27.998801 
L 326.204796 -27.998801 
L 325.488791 -27.998801 
L 324.772786 -27.998801 
L 324.05678 -27.998801 
L 323.340775 -27.998801 
L 322.62477 -27.998801 
L 321.908765 -27.998801 
L 321.192759 -27.998801 
L 320.476754 -27.998801 
L 319.760749 -27.998801 
L 319.044744 -27.998801 
L 318.328738 -27.998801 
L 317.612733 -27.998801 
L 316.896728 -27.998801 
L 316.180723 -27.998801 
L 315.464717 -27.998801 
L 314.748712 -27.998801 
L 314.032707 -27.998801 
L 313.316702 -27.998801 
L 312.600696 -27.998801 
L 311.884691 -27.998801 
L 311.168686 -27.998801 
L 310.452681 -27.998801 
L 309.736675 -27.998801 
L 309.02067 -27.998801 
L 308.304665 -27.998801 
L 307.588659 -27.998801 
L 306.872654 -27.998801 
L 306.156649 -27.998801 
L 305.440644 -27.998801 
L 304.724638 -27.998801 
L 304.008633 -27.998801 
L 303.292628 -27.998801 
L 302.576623 -27.998801 
L 301.860617 -27.998801 
L 301.144612 -27.998801 
L 300.428607 -27.998801 
L 299.712602 -27.998801 
L 298.996596 -27.998801 
L 298.280591 -27.998801 
L 297.564586 -27.998801 
L 296.848581 -27.998801 
L 296.132575 -27.998801 
L 295.41657 -27.998801 
L 294.700565 -27.998801 
L 293.98456 -27.998801 
L 293.268554 -27.998801 
L 292.552549 -27.998801 
L 291.836544 -27.998801 
L 291.120539 -27.998801 
L 290.404533 -27.998801 
L 289.688528 -27.998801 
L 288.972523 -27.998801 
L 288.256517 -27.998801 
L 287.540512 -27.998801 
L 286.824507 -27.998801 
L 286.108502 -27.998801 
L 285.392496 -27.998801 
L 284.676491 -27.998801 
L 283.960486 -27.998801 
L 283.244481 -27.998801 
L 282.528475 -27.998801 
L 281.81247 -27.998801 
L 281.096465 -27.998801 
L 280.38046 -27.998801 
L 279.664454 -27.998801 
L 278.948449 -27.998801 
L 278.232444 -27.998801 
L 277.516439 -27.998801 
L 276.800433 -27.998801 
L 276.084428 -27.998801 
L 275.368423 -27.998801 
L 274.652418 -27.998801 
L 273.936412 -27.998801 
L 273.220407 -27.998801 
L 272.504402 -27.998801 
L 271.788397 -27.998801 
L 271.072391 -27.998801 
L 270.356386 -27.998801 
L 269.640381 -27.998801 
L 268.924376 -27.998801 
L 268.20837 -27.998801 
L 267.492365 -27.998801 
L 266.77636 -27.998801 
L 266.060354 -27.998801 
L 265.344349 -27.998801 
L 264.628344 -27.998801 
L 263.912339 -27.998801 
L 263.196333 -27.998801 
L 262.480328 -27.998801 
L 261.764323 -27.998801 
L 261.048318 -27.998801 
L 260.332312 -27.998801 
L 259.616307 -27.998801 
L 258.900302 -27.998801 
L 258.184297 -27.998801 
L 257.468291 -27.998801 
L 256.752286 -27.998801 
L 256.036281 -27.998801 
L 255.320276 -27.998801 
L 254.60427 -27.998801 
L 253.888265 -27.998801 
L 253.17226 -27.998801 
L 252.456255 -27.998801 
L 251.740249 -27.998801 
L 251.024244 -27.998801 
L 250.308239 -27.998801 
L 249.592234 -27.998801 
L 248.876228 -27.998801 
L 248.160223 -27.998801 
L 247.444218 -27.998801 
L 246.728213 -27.998801 
L 246.012207 -27.998801 
L 245.296202 -27.998801 
L 244.580197 -27.998801 
L 243.864191 -27.998801 
L 243.148186 -27.998801 
L 242.432181 -27.998801 
L 241.716176 -27.998801 
L 241.00017 -27.998801 
L 240.284165 -27.998801 
L 239.56816 -27.998801 
L 238.852155 -27.998801 
L 238.136149 -27.998801 
L 237.420144 -27.998801 
L 236.704139 -27.998801 
L 235.988134 -27.998801 
L 235.272128 -27.998801 
L 234.556123 -27.998801 
L 233.840118 -27.998801 
L 233.124113 -27.998801 
L 232.408107 -27.998801 
L 231.692102 -27.998801 
L 230.976097 -27.998801 
L 230.260092 -27.998801 
L 229.544086 -27.998801 
L 228.828081 -27.998801 
L 228.112076 -27.998801 
L 227.396071 -27.998801 
L 226.680065 -27.998801 
L 225.96406 -27.998801 
L 225.248055 -27.998801 
L 224.532049 -27.998801 
L 223.816044 -27.998801 
L 223.100039 -27.998801 
L 222.384034 -27.998801 
L 221.668028 -27.998801 
L 220.952023 -27.998801 
L 220.236018 -27.998801 
L 219.520013 -27.998801 
L 218.804007 -27.998801 
L 218.088002 -27.998801 
L 217.371997 -27.998801 
L 216.655992 -27.998801 
L 215.939986 -27.998801 
L 215.223981 -27.998801 
L 214.507976 -27.998801 
L 213.791971 -27.998801 
L 213.075965 -27.998801 
L 212.35996 -27.998801 
L 211.643955 -27.998801 
L 210.92795 -27.998801 
L 210.211944 -27.998801 
L 209.495939 -27.998801 
L 208.779934 -27.998801 
L 208.063929 -27.998801 
L 207.347923 -27.998801 
L 206.631918 -27.998801 
L 205.915913 -27.998801 
L 205.199908 -27.998801 
L 204.483902 -27.998801 
L 203.767897 -27.998801 
L 203.051892 -27.998801 
L 202.335886 -27.998801 
L 201.619881 -27.998801 
L 200.903876 -27.998801 
L 200.187871 -27.998801 
L 199.471865 -27.998801 
L 198.75586 -27.998801 
L 198.039855 -27.998801 
L 197.32385 -27.998801 
L 196.607844 -27.998801 
L 195.891839 -27.998801 
L 195.175834 -27.998801 
L 194.459829 -27.998801 
L 193.743823 -27.998801 
L 193.027818 -27.998801 
L 192.311813 -27.998801 
L 191.595808 -27.998801 
L 190.879802 -27.998801 
L 190.163797 -27.998801 
L 189.447792 -27.998801 
L 188.731787 -27.998801 
L 188.015781 -27.998801 
L 187.299776 -27.998801 
L 186.583771 -27.998801 
L 185.867766 -27.998801 
L 185.15176 -27.998801 
L 184.435755 -27.998801 
L 183.71975 -27.998801 
L 183.003745 -27.998801 
L 182.287739 -27.998801 
L 181.571734 -27.998801 
L 180.855729 -27.998801 
L 180.139723 -27.998801 
L 179.423718 -27.998801 
L 178.707713 -27.998801 
L 177.991708 -27.998801 
L 177.275702 -27.998801 
L 176.559697 -27.998801 
L 175.843692 -27.998801 
L 175.127687 -27.998801 
L 174.411681 -27.998801 
L 173.695676 -27.998801 
L 172.979671 -27.998801 
L 172.263666 -27.998801 
L 171.54766 -27.998801 
L 170.831655 -27.998801 
L 170.11565 -27.998801 
L 169.399645 -27.998801 
L 168.683639 -27.998801 
L 167.967634 -27.998801 
L 167.251629 -27.998801 
L 166.535624 -27.998801 
L 165.819618 -27.998801 
L 165.103613 -27.998801 
L 164.387608 -27.998801 
L 163.671603 -27.998801 
L 162.955597 -27.998801 
L 162.239592 -27.998801 
L 161.523587 -27.998801 
L 160.807582 -27.998801 
L 160.091576 -27.998801 
L 159.375571 -27.998801 
L 158.659566 -27.998801 
L 157.94356 -27.998801 
L 157.227555 -27.998801 
L 156.51155 -27.998801 
L 155.795545 -27.998801 
L 155.079539 -27.998801 
L 154.363534 -27.998801 
L 153.647529 -27.998801 
L 152.931524 -27.998801 
L 152.215518 -27.998801 
L 151.499513 -27.998801 
L 150.783508 -27.998801 
L 150.067503 -27.998801 
L 149.351497 -27.998801 
L 148.635492 -27.998801 
L 147.919487 -27.998801 
L 147.203482 -27.998801 
L 146.487476 -27.998801 
L 145.771471 -27.998801 
L 145.055466 -27.998801 
L 144.339461 -27.998801 
L 143.623455 -27.998801 
L 142.90745 -27.998801 
L 142.191445 -27.998801 
L 141.47544 -27.998801 
L 140.759434 -27.998801 
L 140.043429 -27.998801 
L 139.327424 -27.998801 
L 138.611418 -27.998801 
L 137.895413 -27.998801 
L 137.179408 -27.998801 
L 136.463403 -27.998801 
L 135.747397 -27.998801 
L 135.031392 -27.998801 
L 134.315387 -27.998801 
L 133.599382 -27.998801 
L 132.883376 -27.998801 
L 132.167371 -27.998801 
L 131.451366 -27.998801 
L 130.735361 -27.998801 
L 130.019355 -27.998801 
L 129.30335 -27.998801 
L 128.587345 -27.998801 
L 127.87134 -27.998801 
L 127.155334 -27.998801 
L 126.439329 -27.998801 
L 125.723324 -27.998801 
L 125.007319 -27.998801 
L 124.291313 -27.998801 
L 123.575308 -27.998801 
L 122.859303 -27.998801 
L 122.143298 -27.998801 
L 121.427292 -27.998801 
L 120.711287 -27.998801 
L 119.995282 -27.998801 
L 119.279277 -27.998801 
L 118.563271 -27.998801 
L 117.847266 -27.998801 
L 117.131261 -27.998801 
L 116.415255 -27.998801 
L 115.69925 -27.998801 
L 114.983245 -27.998801 
L 114.26724 -27.998801 
L 113.551234 -27.998801 
L 112.835229 -27.998801 
L 112.119224 -27.998801 
L 111.403219 -27.998801 
L 110.687213 -27.998801 
L 109.971208 -27.998801 
L 109.255203 -27.998801 
L 108.539198 -27.998801 
L 107.823192 -27.998801 
L 107.107187 -27.998801 
L 106.391182 -27.998801 
L 105.675177 -27.998801 
L 104.959171 -27.998801 
L 104.243166 -27.998801 
L 103.527161 -27.998801 
L 102.811156 -27.998801 
L 102.09515 -27.998801 
L 101.379145 -27.998801 
L 100.66314 -27.998801 
L 99.947135 -27.998801 
L 99.231129 -27.998801 
L 98.515124 -27.998801 
L 97.799119 -27.998801 
L 97.083114 -27.998801 
L 96.367108 -27.998801 
L 95.651103 -27.998801 
L 94.935098 -27.998801 
L 94.219092 -27.998801 
L 93.503087 -27.998801 
L 92.787082 -27.998801 
L 92.071077 -27.998801 
L 91.355071 -27.998801 
L 90.639066 -27.998801 
L 89.923061 -27.998801 
L 89.207056 -27.998801 
L 88.49105 -27.998801 
L 87.775045 -27.998801 
L 87.05904 -27.998801 
L 86.343035 -27.998801 
L 85.627029 -27.998801 
L 84.911024 -27.998801 
L 84.195019 -27.998801 
L 83.479014 -27.998801 
L 82.763008 -27.998801 
L 82.047003 -27.998801 
L 81.330998 -27.998801 
L 80.614993 -27.998801 
L 79.898987 -27.998801 
L 79.182982 -27.998801 
L 78.466977 -27.998801 
L 77.750972 -27.998801 
L 77.034966 -27.998801 
L 76.318961 -27.998801 
L 75.602956 -27.998801 
L 74.886951 -27.998801 
L 74.170945 -27.998801 
L 73.45494 -27.998801 
L 72.738935 -27.998801 
L 72.022929 -27.998801 
L 71.306924 -27.998801 
L 70.590919 -27.998801 
L 69.874914 -27.998801 
L 69.158908 -27.998801 
L 68.442903 -27.998801 
L 67.726898 -27.998801 
L 67.010893 -27.998801 
L 66.294887 -27.998801 
L 65.578882 -27.998801 
L 64.862877 -27.998801 
L 64.146872 -27.998801 
L 63.430866 -27.998801 
L 62.714861 -27.998801 
L 61.998856 -27.998801 
L 61.282851 -27.998801 
L 60.566845 -27.998801 
L 59.85084 -27.998801 
L 59.134835 -27.998801 
L 58.41883 -27.998801 
L 57.702824 -27.998801 
L 56.986819 -27.998801 
L 56.270814 -27.998801 
L 55.554809 -27.998801 
L 54.838803 -27.998801 
L 54.122798 -27.998801 
L 53.406793 -27.998801 
L 52.690787 -27.998801 
L 51.974782 -27.998801 
L 51.258777 -27.998801 
L 50.542772 -27.998801 
L 49.826766 -27.998801 
L 49.110761 -27.998801 
L 48.394756 -27.998801 
L 47.678751 -27.998801 
L 46.962745 -27.998801 
L 46.24674 -27.998801 
L 45.530735 -27.998801 
L 44.81473 -27.998801 
L 44.098724 -27.998801 
L 43.382719 -27.998801 
L 42.666714 -27.998801 
L 41.950709 -27.998801 
L 41.234703 -27.998801 
L 40.518698 -27.998801 
L 39.802693 -27.998801 
L 39.086688 -27.998801 
z
" id="m5aa0e5b36d" style="stroke:#1f77b4;stroke-opacity:0;"/>
    </defs>
    <g clip-path="url(#p006202baf4)">
     <use style="fill:#1f77b4;fill-opacity:0;stroke:#1f77b4;stroke-opacity:0;" x="0" xlink:href="#m5aa0e5b36d" y="152.39952"/>
    </g>
   </g>
   <g id="PolyCollection_2">
    <defs>
     <path d="M 29.474542 -27.998801 
L 29.474542 -32.125346 
L 30.142804 -32.123975 
L 30.811067 -32.132836 
L 31.479329 -32.146118 
L 32.147592 -32.163201 
L 32.815854 -32.184118 
L 33.484117 -32.208906 
L 34.152379 -32.237602 
L 34.820642 -32.265065 
L 35.488904 -32.30812 
L 36.157167 -32.350037 
L 36.825429 -32.396702 
L 37.493692 -32.448175 
L 38.161954 -32.498684 
L 38.830217 -32.554058 
L 39.498479 -32.609109 
L 40.166742 -32.679965 
L 40.835004 -32.766694 
L 41.503267 -32.853297 
L 42.171529 -32.934073 
L 42.839792 -33.020029 
L 43.508054 -33.116335 
L 44.176317 -33.217203 
L 44.844579 -33.328499 
L 45.512842 -33.439293 
L 46.181104 -33.560612 
L 46.849367 -33.693169 
L 47.517629 -33.826074 
L 48.185892 -33.958728 
L 48.854154 -34.102115 
L 49.522417 -34.245242 
L 50.190679 -34.410734 
L 50.858942 -34.572163 
L 51.527204 -34.734067 
L 52.195467 -34.906743 
L 52.863729 -35.079157 
L 53.531992 -35.256399 
L 54.200254 -35.456504 
L 54.868517 -35.646519 
L 55.536779 -35.847068 
L 56.205042 -36.052917 
L 56.873304 -36.269843 
L 57.541567 -36.481009 
L 58.209829 -36.691466 
L 58.878092 -36.91786 
L 59.546354 -37.143273 
L 60.214617 -37.378577 
L 60.882879 -37.618514 
L 61.551142 -37.857173 
L 62.219404 -38.099593 
L 62.887667 -38.363124 
L 63.55593 -38.614781 
L 64.224192 -38.881648 
L 64.892455 -39.141702 
L 65.560717 -39.411025 
L 66.22898 -39.678555 
L 66.897242 -39.961035 
L 67.565505 -40.23647 
L 68.233767 -40.526809 
L 68.90203 -40.83341 
L 69.570292 -41.12863 
L 70.238555 -41.422224 
L 70.906817 -41.720006 
L 71.57508 -42.027799 
L 72.243342 -42.334014 
L 72.911605 -42.655513 
L 73.579867 -42.970427 
L 74.24813 -43.289157 
L 74.916392 -43.623406 
L 75.584655 -43.968823 
L 76.252917 -44.308823 
L 76.92118 -44.653913 
L 77.589442 -44.998405 
L 78.257705 -45.353388 
L 78.925967 -45.713821 
L 79.59423 -46.085675 
L 80.262492 -46.463974 
L 80.930755 -46.843092 
L 81.599017 -47.24585 
L 82.26728 -47.639539 
L 82.935542 -48.034015 
L 83.603805 -48.440346 
L 84.272067 -48.847622 
L 84.94033 -49.261694 
L 85.608592 -49.683211 
L 86.276855 -50.111509 
L 86.945117 -50.551736 
L 87.61338 -51.004548 
L 88.281642 -51.458981 
L 88.949905 -51.914347 
L 89.618167 -52.39319 
L 90.28643 -52.862506 
L 90.954692 -53.343489 
L 91.622955 -53.836641 
L 92.291217 -54.342502 
L 92.95948 -54.838332 
L 93.627742 -55.356894 
L 94.296005 -55.876698 
L 94.964267 -56.402736 
L 95.63253 -56.940632 
L 96.300792 -57.479215 
L 96.969055 -58.017601 
L 97.637317 -58.560653 
L 98.30558 -59.102201 
L 98.973842 -59.647 
L 99.642105 -60.195255 
L 100.310367 -60.752336 
L 100.97863 -61.323675 
L 101.646892 -61.881137 
L 102.315155 -62.439793 
L 102.983417 -63.022483 
L 103.65168 -63.590758 
L 104.319942 -64.165585 
L 104.988205 -64.747272 
L 105.656467 -65.324537 
L 106.32473 -65.902246 
L 106.992992 -66.474259 
L 107.661255 -67.057062 
L 108.329517 -67.622577 
L 108.99778 -68.191786 
L 109.666042 -68.765012 
L 110.334305 -69.336832 
L 111.002568 -69.901193 
L 111.67083 -70.492172 
L 112.339093 -71.049606 
L 113.007355 -71.604324 
L 113.675618 -72.17292 
L 114.34388 -72.722314 
L 115.012143 -73.291173 
L 115.680405 -73.853015 
L 116.348668 -74.407884 
L 117.01693 -74.94931 
L 117.685193 -75.504405 
L 118.353455 -76.051908 
L 119.021718 -76.602913 
L 119.68998 -77.147223 
L 120.358243 -77.684322 
L 121.026505 -78.218828 
L 121.694768 -78.750839 
L 122.36303 -79.280462 
L 123.031293 -79.813649 
L 123.699555 -80.339578 
L 124.367818 -80.869401 
L 125.03608 -81.398145 
L 125.704343 -81.920198 
L 126.372605 -82.440897 
L 127.040868 -82.954563 
L 127.70913 -83.467105 
L 128.377393 -83.985078 
L 129.045655 -84.508623 
L 129.713918 -85.02045 
L 130.38218 -85.530984 
L 131.050443 -86.047394 
L 131.718705 -86.565246 
L 132.386968 -87.072319 
L 133.05523 -87.601609 
L 133.723493 -88.120917 
L 134.391755 -88.658161 
L 135.060018 -89.179887 
L 135.72828 -89.708151 
L 136.396543 -90.237841 
L 137.064805 -90.797529 
L 137.733068 -91.326687 
L 138.40133 -91.856384 
L 139.069593 -92.404057 
L 139.737855 -92.94326 
L 140.406118 -93.484985 
L 141.07438 -94.028545 
L 141.742643 -94.5849 
L 142.410905 -95.126902 
L 143.079168 -95.681613 
L 143.74743 -96.220489 
L 144.415693 -96.764651 
L 145.083955 -97.320364 
L 145.752218 -97.859657 
L 146.42048 -98.397753 
L 147.088743 -98.952441 
L 147.757005 -99.519673 
L 148.425268 -100.065726 
L 149.09353 -100.605202 
L 149.761793 -101.148091 
L 150.430055 -101.700549 
L 151.098318 -102.234511 
L 151.76658 -102.765118 
L 152.434843 -103.28741 
L 153.103105 -103.812553 
L 153.771368 -104.345303 
L 154.43963 -104.86852 
L 155.107893 -105.381192 
L 155.776155 -105.905571 
L 156.444418 -106.414862 
L 157.11268 -106.913249 
L 157.780943 -107.411337 
L 158.449206 -107.899068 
L 159.117468 -108.381239 
L 159.785731 -108.862012 
L 160.453993 -109.35341 
L 161.122256 -109.822314 
L 161.790518 -110.267825 
L 162.458781 -110.735516 
L 163.127043 -111.185791 
L 163.795306 -111.634023 
L 164.463568 -112.104104 
L 165.131831 -112.534754 
L 165.800093 -112.936238 
L 166.468356 -113.346436 
L 167.136618 -113.759376 
L 167.804881 -114.147854 
L 168.473143 -114.527886 
L 169.141406 -114.927809 
L 169.809668 -115.303088 
L 170.477931 -115.658235 
L 171.146193 -116.020956 
L 171.814456 -116.364077 
L 172.482718 -116.698515 
L 173.150981 -117.046854 
L 173.819243 -117.364555 
L 174.487506 -117.66253 
L 175.155768 -117.962565 
L 175.824031 -118.247689 
L 176.492293 -118.534551 
L 177.160556 -118.817893 
L 177.828818 -119.08668 
L 178.497081 -119.346653 
L 179.165343 -119.603543 
L 179.833606 -119.840467 
L 180.501868 -120.070212 
L 181.170131 -120.303632 
L 181.838393 -120.521916 
L 182.506656 -120.730161 
L 183.174918 -120.92309 
L 183.843181 -121.10507 
L 184.511443 -121.282407 
L 185.179706 -121.455642 
L 185.847968 -121.606595 
L 186.516231 -121.73509 
L 187.184493 -121.864796 
L 187.852756 -121.990368 
L 188.521018 -122.111086 
L 189.189281 -122.232798 
L 189.857543 -122.327815 
L 190.525806 -122.406497 
L 191.194068 -122.474624 
L 191.862331 -122.550312 
L 192.530593 -122.605911 
L 193.198856 -122.635707 
L 193.867118 -122.68437 
L 194.535381 -122.712056 
L 195.203643 -122.729368 
L 195.871906 -122.748233 
L 196.540168 -122.747049 
L 197.208431 -122.742992 
L 197.876693 -122.718996 
L 198.544956 -122.68575 
L 199.213218 -122.65073 
L 199.881481 -122.61503 
L 200.549743 -122.561055 
L 201.218006 -122.50091 
L 201.886268 -122.440893 
L 202.554531 -122.398415 
L 203.222793 -122.331575 
L 203.891056 -122.257202 
L 204.559318 -122.203108 
L 205.227581 -122.11446 
L 205.895844 -122.041664 
L 206.564106 -121.963419 
L 207.232369 -121.868739 
L 207.900631 -121.791157 
L 208.568894 -121.708679 
L 209.237156 -121.626452 
L 209.905419 -121.556088 
L 210.573681 -121.493111 
L 211.241944 -121.416238 
L 211.910206 -121.348024 
L 212.578469 -121.285141 
L 213.246731 -121.239146 
L 213.914994 -121.186713 
L 214.583256 -121.129619 
L 215.251519 -121.108352 
L 215.919781 -121.072995 
L 216.588044 -121.045907 
L 217.256306 -121.021543 
L 217.924569 -121.027954 
L 218.592831 -121.032508 
L 219.261094 -121.034796 
L 219.929356 -121.067921 
L 220.597619 -121.092631 
L 221.265881 -121.131618 
L 221.934144 -121.168708 
L 222.602406 -121.219284 
L 223.270669 -121.257264 
L 223.938931 -121.337893 
L 224.607194 -121.431882 
L 225.275456 -121.511899 
L 225.943719 -121.609896 
L 226.611981 -121.704115 
L 227.280244 -121.800469 
L 227.948506 -121.914472 
L 228.616769 -122.039041 
L 229.285031 -122.156736 
L 229.953294 -122.284269 
L 230.621556 -122.415687 
L 231.289819 -122.53916 
L 231.958081 -122.680261 
L 232.626344 -122.815472 
L 233.294606 -122.949016 
L 233.962869 -123.09155 
L 234.631131 -123.220775 
L 235.299394 -123.351807 
L 235.967656 -123.466748 
L 236.635919 -123.575402 
L 237.304181 -123.693381 
L 237.972444 -123.791768 
L 238.640706 -123.884913 
L 239.308969 -123.972315 
L 239.977231 -124.037333 
L 240.645494 -124.089767 
L 241.313756 -124.132946 
L 241.982019 -124.159263 
L 242.650281 -124.163717 
L 243.318544 -124.157467 
L 243.986806 -124.144004 
L 244.655069 -124.095252 
L 245.323331 -124.021212 
L 245.991594 -123.915026 
L 246.659856 -123.802808 
L 247.328119 -123.655854 
L 247.996381 -123.490101 
L 248.664644 -123.27302 
L 249.332906 -123.069675 
L 250.001169 -122.839411 
L 250.669431 -122.560446 
L 251.337694 -122.265889 
L 252.005957 -121.938523 
L 252.674219 -121.594204 
L 253.342482 -121.211425 
L 254.010744 -120.806219 
L 254.679007 -120.36691 
L 255.347269 -119.926553 
L 256.015532 -119.440862 
L 256.683794 -118.915974 
L 257.352057 -118.379345 
L 258.020319 -117.819832 
L 258.688582 -117.212173 
L 259.356844 -116.569144 
L 260.025107 -115.917721 
L 260.693369 -115.251463 
L 261.361632 -114.566069 
L 262.029894 -113.835978 
L 262.698157 -113.099568 
L 263.366419 -112.346216 
L 264.034682 -111.560871 
L 264.702944 -110.755599 
L 265.371207 -109.926295 
L 266.039469 -109.085015 
L 266.707732 -108.23224 
L 267.375994 -107.3478 
L 268.044257 -106.455399 
L 268.712519 -105.560676 
L 269.380782 -104.642838 
L 270.049044 -103.714654 
L 270.717307 -102.782403 
L 271.385569 -101.847242 
L 272.053832 -100.878626 
L 272.722094 -99.926665 
L 273.390357 -98.969142 
L 274.058619 -97.98641 
L 274.726882 -97.023325 
L 275.395144 -96.047222 
L 276.063407 -95.049897 
L 276.731669 -94.086352 
L 277.399932 -93.122537 
L 278.068194 -92.164532 
L 278.736457 -91.191865 
L 279.404719 -90.238238 
L 280.072982 -89.281777 
L 280.741244 -88.313445 
L 281.409507 -87.366721 
L 282.077769 -86.429877 
L 282.746032 -85.487311 
L 283.414294 -84.55628 
L 284.082557 -83.631374 
L 284.750819 -82.697417 
L 285.419082 -81.792767 
L 286.087344 -80.889262 
L 286.755607 -79.998156 
L 287.423869 -79.108689 
L 288.092132 -78.226836 
L 288.760394 -77.342333 
L 289.428657 -76.477144 
L 290.096919 -75.609279 
L 290.765182 -74.755463 
L 291.433444 -73.909788 
L 292.101707 -73.06179 
L 292.769969 -72.228071 
L 293.438232 -71.412977 
L 294.106494 -70.599595 
L 294.774757 -69.798793 
L 295.443019 -69.015663 
L 296.111282 -68.223672 
L 296.779544 -67.439499 
L 297.447807 -66.672695 
L 298.116069 -65.911564 
L 298.784332 -65.140516 
L 299.452595 -64.381997 
L 300.120857 -63.624835 
L 300.78912 -62.869468 
L 301.457382 -62.131844 
L 302.125645 -61.405381 
L 302.793907 -60.679047 
L 303.46217 -59.943057 
L 304.130432 -59.230211 
L 304.798695 -58.522994 
L 305.466957 -57.811045 
L 306.13522 -57.121473 
L 306.803482 -56.431713 
L 307.471745 -55.742485 
L 308.140007 -55.064827 
L 308.80827 -54.387833 
L 309.476532 -53.732953 
L 310.144795 -53.077789 
L 310.813057 -52.418033 
L 311.48132 -51.765455 
L 312.149582 -51.135733 
L 312.817845 -50.496159 
L 313.486107 -49.874749 
L 314.15437 -49.234215 
L 314.822632 -48.619248 
L 315.490895 -48.018382 
L 316.159157 -47.421539 
L 316.82742 -46.844503 
L 317.495682 -46.264974 
L 318.163945 -45.700047 
L 318.832207 -45.154568 
L 319.50047 -44.606948 
L 320.168732 -44.079512 
L 320.836995 -43.561012 
L 321.505257 -43.046664 
L 322.17352 -42.537428 
L 322.841782 -42.049735 
L 323.510045 -41.567086 
L 324.178307 -41.085208 
L 324.84657 -40.621059 
L 325.514832 -40.17934 
L 326.183095 -39.738299 
L 326.851357 -39.299355 
L 327.51962 -38.889698 
L 328.187882 -38.486804 
L 328.856145 -38.106942 
L 329.524407 -37.71789 
L 330.19267 -37.358414 
L 330.860932 -37.011082 
L 331.529195 -36.670753 
L 332.197457 -36.353573 
L 332.86572 -36.037562 
L 333.533982 -35.744646 
L 334.202245 -35.463157 
L 334.870507 -35.187879 
L 335.53877 -34.925165 
L 336.207032 -34.675516 
L 336.875295 -34.438124 
L 337.543557 -34.217346 
L 338.21182 -33.996852 
L 338.880082 -33.798387 
L 339.548345 -33.599749 
L 340.216607 -33.422648 
L 340.88487 -33.250032 
L 341.553132 -33.087449 
L 342.221395 -32.929414 
L 342.889657 -32.791752 
L 343.55792 -32.657364 
L 344.226182 -32.53694 
L 344.894445 -32.424376 
L 345.562707 -32.309026 
L 346.23097 -32.207319 
L 346.899233 -32.113074 
L 347.567495 -32.031121 
L 348.235758 -31.955344 
L 348.90402 -31.875088 
L 349.572283 -31.811965 
L 350.240545 -31.754028 
L 350.908808 -31.690631 
L 351.57707 -31.638212 
L 352.245333 -31.590606 
L 352.913595 -31.552675 
L 353.581858 -31.518337 
L 354.25012 -31.476979 
L 354.918383 -31.439896 
L 355.586645 -31.406732 
L 356.254908 -31.377147 
L 356.92317 -31.361187 
L 357.591433 -31.347009 
L 358.259695 -31.334443 
L 358.927958 -31.323322 
L 359.59622 -31.313485 
L 360.264483 -31.310608 
L 360.932745 -31.298413 
L 361.601008 -31.28771 
L 362.26927 -31.283492 
L 362.937533 -31.274627 
L 363.605795 -31.271955 
L 364.274058 -31.264361 
L 364.94232 -31.25752 
L 365.610583 -31.256466 
L 366.278845 -31.255294 
L 366.947108 -31.243568 
L 367.61537 -31.243126 
L 368.283633 -31.248085 
L 368.951895 -31.247454 
L 369.620158 -31.241197 
L 370.28842 -31.246712 
L 370.956683 -31.247205 
L 370.956683 -27.998801 
L 370.956683 -27.998801 
L 370.28842 -27.998801 
L 369.620158 -27.998801 
L 368.951895 -27.998801 
L 368.283633 -27.998801 
L 367.61537 -27.998801 
L 366.947108 -27.998801 
L 366.278845 -27.998801 
L 365.610583 -27.998801 
L 364.94232 -27.998801 
L 364.274058 -27.998801 
L 363.605795 -27.998801 
L 362.937533 -27.998801 
L 362.26927 -27.998801 
L 361.601008 -27.998801 
L 360.932745 -27.998801 
L 360.264483 -27.998801 
L 359.59622 -27.998801 
L 358.927958 -27.998801 
L 358.259695 -27.998801 
L 357.591433 -27.998801 
L 356.92317 -27.998801 
L 356.254908 -27.998801 
L 355.586645 -27.998801 
L 354.918383 -27.998801 
L 354.25012 -27.998801 
L 353.581858 -27.998801 
L 352.913595 -27.998801 
L 352.245333 -27.998801 
L 351.57707 -27.998801 
L 350.908808 -27.998801 
L 350.240545 -27.998801 
L 349.572283 -27.998801 
L 348.90402 -27.998801 
L 348.235758 -27.998801 
L 347.567495 -27.998801 
L 346.899233 -27.998801 
L 346.23097 -27.998801 
L 345.562707 -27.998801 
L 344.894445 -27.998801 
L 344.226182 -27.998801 
L 343.55792 -27.998801 
L 342.889657 -27.998801 
L 342.221395 -27.998801 
L 341.553132 -27.998801 
L 340.88487 -27.998801 
L 340.216607 -27.998801 
L 339.548345 -27.998801 
L 338.880082 -27.998801 
L 338.21182 -27.998801 
L 337.543557 -27.998801 
L 336.875295 -27.998801 
L 336.207032 -27.998801 
L 335.53877 -27.998801 
L 334.870507 -27.998801 
L 334.202245 -27.998801 
L 333.533982 -27.998801 
L 332.86572 -27.998801 
L 332.197457 -27.998801 
L 331.529195 -27.998801 
L 330.860932 -27.998801 
L 330.19267 -27.998801 
L 329.524407 -27.998801 
L 328.856145 -27.998801 
L 328.187882 -27.998801 
L 327.51962 -27.998801 
L 326.851357 -27.998801 
L 326.183095 -27.998801 
L 325.514832 -27.998801 
L 324.84657 -27.998801 
L 324.178307 -27.998801 
L 323.510045 -27.998801 
L 322.841782 -27.998801 
L 322.17352 -27.998801 
L 321.505257 -27.998801 
L 320.836995 -27.998801 
L 320.168732 -27.998801 
L 319.50047 -27.998801 
L 318.832207 -27.998801 
L 318.163945 -27.998801 
L 317.495682 -27.998801 
L 316.82742 -27.998801 
L 316.159157 -27.998801 
L 315.490895 -27.998801 
L 314.822632 -27.998801 
L 314.15437 -27.998801 
L 313.486107 -27.998801 
L 312.817845 -27.998801 
L 312.149582 -27.998801 
L 311.48132 -27.998801 
L 310.813057 -27.998801 
L 310.144795 -27.998801 
L 309.476532 -27.998801 
L 308.80827 -27.998801 
L 308.140007 -27.998801 
L 307.471745 -27.998801 
L 306.803482 -27.998801 
L 306.13522 -27.998801 
L 305.466957 -27.998801 
L 304.798695 -27.998801 
L 304.130432 -27.998801 
L 303.46217 -27.998801 
L 302.793907 -27.998801 
L 302.125645 -27.998801 
L 301.457382 -27.998801 
L 300.78912 -27.998801 
L 300.120857 -27.998801 
L 299.452595 -27.998801 
L 298.784332 -27.998801 
L 298.116069 -27.998801 
L 297.447807 -27.998801 
L 296.779544 -27.998801 
L 296.111282 -27.998801 
L 295.443019 -27.998801 
L 294.774757 -27.998801 
L 294.106494 -27.998801 
L 293.438232 -27.998801 
L 292.769969 -27.998801 
L 292.101707 -27.998801 
L 291.433444 -27.998801 
L 290.765182 -27.998801 
L 290.096919 -27.998801 
L 289.428657 -27.998801 
L 288.760394 -27.998801 
L 288.092132 -27.998801 
L 287.423869 -27.998801 
L 286.755607 -27.998801 
L 286.087344 -27.998801 
L 285.419082 -27.998801 
L 284.750819 -27.998801 
L 284.082557 -27.998801 
L 283.414294 -27.998801 
L 282.746032 -27.998801 
L 282.077769 -27.998801 
L 281.409507 -27.998801 
L 280.741244 -27.998801 
L 280.072982 -27.998801 
L 279.404719 -27.998801 
L 278.736457 -27.998801 
L 278.068194 -27.998801 
L 277.399932 -27.998801 
L 276.731669 -27.998801 
L 276.063407 -27.998801 
L 275.395144 -27.998801 
L 274.726882 -27.998801 
L 274.058619 -27.998801 
L 273.390357 -27.998801 
L 272.722094 -27.998801 
L 272.053832 -27.998801 
L 271.385569 -27.998801 
L 270.717307 -27.998801 
L 270.049044 -27.998801 
L 269.380782 -27.998801 
L 268.712519 -27.998801 
L 268.044257 -27.998801 
L 267.375994 -27.998801 
L 266.707732 -27.998801 
L 266.039469 -27.998801 
L 265.371207 -27.998801 
L 264.702944 -27.998801 
L 264.034682 -27.998801 
L 263.366419 -27.998801 
L 262.698157 -27.998801 
L 262.029894 -27.998801 
L 261.361632 -27.998801 
L 260.693369 -27.998801 
L 260.025107 -27.998801 
L 259.356844 -27.998801 
L 258.688582 -27.998801 
L 258.020319 -27.998801 
L 257.352057 -27.998801 
L 256.683794 -27.998801 
L 256.015532 -27.998801 
L 255.347269 -27.998801 
L 254.679007 -27.998801 
L 254.010744 -27.998801 
L 253.342482 -27.998801 
L 252.674219 -27.998801 
L 252.005957 -27.998801 
L 251.337694 -27.998801 
L 250.669431 -27.998801 
L 250.001169 -27.998801 
L 249.332906 -27.998801 
L 248.664644 -27.998801 
L 247.996381 -27.998801 
L 247.328119 -27.998801 
L 246.659856 -27.998801 
L 245.991594 -27.998801 
L 245.323331 -27.998801 
L 244.655069 -27.998801 
L 243.986806 -27.998801 
L 243.318544 -27.998801 
L 242.650281 -27.998801 
L 241.982019 -27.998801 
L 241.313756 -27.998801 
L 240.645494 -27.998801 
L 239.977231 -27.998801 
L 239.308969 -27.998801 
L 238.640706 -27.998801 
L 237.972444 -27.998801 
L 237.304181 -27.998801 
L 236.635919 -27.998801 
L 235.967656 -27.998801 
L 235.299394 -27.998801 
L 234.631131 -27.998801 
L 233.962869 -27.998801 
L 233.294606 -27.998801 
L 232.626344 -27.998801 
L 231.958081 -27.998801 
L 231.289819 -27.998801 
L 230.621556 -27.998801 
L 229.953294 -27.998801 
L 229.285031 -27.998801 
L 228.616769 -27.998801 
L 227.948506 -27.998801 
L 227.280244 -27.998801 
L 226.611981 -27.998801 
L 225.943719 -27.998801 
L 225.275456 -27.998801 
L 224.607194 -27.998801 
L 223.938931 -27.998801 
L 223.270669 -27.998801 
L 222.602406 -27.998801 
L 221.934144 -27.998801 
L 221.265881 -27.998801 
L 220.597619 -27.998801 
L 219.929356 -27.998801 
L 219.261094 -27.998801 
L 218.592831 -27.998801 
L 217.924569 -27.998801 
L 217.256306 -27.998801 
L 216.588044 -27.998801 
L 215.919781 -27.998801 
L 215.251519 -27.998801 
L 214.583256 -27.998801 
L 213.914994 -27.998801 
L 213.246731 -27.998801 
L 212.578469 -27.998801 
L 211.910206 -27.998801 
L 211.241944 -27.998801 
L 210.573681 -27.998801 
L 209.905419 -27.998801 
L 209.237156 -27.998801 
L 208.568894 -27.998801 
L 207.900631 -27.998801 
L 207.232369 -27.998801 
L 206.564106 -27.998801 
L 205.895844 -27.998801 
L 205.227581 -27.998801 
L 204.559318 -27.998801 
L 203.891056 -27.998801 
L 203.222793 -27.998801 
L 202.554531 -27.998801 
L 201.886268 -27.998801 
L 201.218006 -27.998801 
L 200.549743 -27.998801 
L 199.881481 -27.998801 
L 199.213218 -27.998801 
L 198.544956 -27.998801 
L 197.876693 -27.998801 
L 197.208431 -27.998801 
L 196.540168 -27.998801 
L 195.871906 -27.998801 
L 195.203643 -27.998801 
L 194.535381 -27.998801 
L 193.867118 -27.998801 
L 193.198856 -27.998801 
L 192.530593 -27.998801 
L 191.862331 -27.998801 
L 191.194068 -27.998801 
L 190.525806 -27.998801 
L 189.857543 -27.998801 
L 189.189281 -27.998801 
L 188.521018 -27.998801 
L 187.852756 -27.998801 
L 187.184493 -27.998801 
L 186.516231 -27.998801 
L 185.847968 -27.998801 
L 185.179706 -27.998801 
L 184.511443 -27.998801 
L 183.843181 -27.998801 
L 183.174918 -27.998801 
L 182.506656 -27.998801 
L 181.838393 -27.998801 
L 181.170131 -27.998801 
L 180.501868 -27.998801 
L 179.833606 -27.998801 
L 179.165343 -27.998801 
L 178.497081 -27.998801 
L 177.828818 -27.998801 
L 177.160556 -27.998801 
L 176.492293 -27.998801 
L 175.824031 -27.998801 
L 175.155768 -27.998801 
L 174.487506 -27.998801 
L 173.819243 -27.998801 
L 173.150981 -27.998801 
L 172.482718 -27.998801 
L 171.814456 -27.998801 
L 171.146193 -27.998801 
L 170.477931 -27.998801 
L 169.809668 -27.998801 
L 169.141406 -27.998801 
L 168.473143 -27.998801 
L 167.804881 -27.998801 
L 167.136618 -27.998801 
L 166.468356 -27.998801 
L 165.800093 -27.998801 
L 165.131831 -27.998801 
L 164.463568 -27.998801 
L 163.795306 -27.998801 
L 163.127043 -27.998801 
L 162.458781 -27.998801 
L 161.790518 -27.998801 
L 161.122256 -27.998801 
L 160.453993 -27.998801 
L 159.785731 -27.998801 
L 159.117468 -27.998801 
L 158.449206 -27.998801 
L 157.780943 -27.998801 
L 157.11268 -27.998801 
L 156.444418 -27.998801 
L 155.776155 -27.998801 
L 155.107893 -27.998801 
L 154.43963 -27.998801 
L 153.771368 -27.998801 
L 153.103105 -27.998801 
L 152.434843 -27.998801 
L 151.76658 -27.998801 
L 151.098318 -27.998801 
L 150.430055 -27.998801 
L 149.761793 -27.998801 
L 149.09353 -27.998801 
L 148.425268 -27.998801 
L 147.757005 -27.998801 
L 147.088743 -27.998801 
L 146.42048 -27.998801 
L 145.752218 -27.998801 
L 145.083955 -27.998801 
L 144.415693 -27.998801 
L 143.74743 -27.998801 
L 143.079168 -27.998801 
L 142.410905 -27.998801 
L 141.742643 -27.998801 
L 141.07438 -27.998801 
L 140.406118 -27.998801 
L 139.737855 -27.998801 
L 139.069593 -27.998801 
L 138.40133 -27.998801 
L 137.733068 -27.998801 
L 137.064805 -27.998801 
L 136.396543 -27.998801 
L 135.72828 -27.998801 
L 135.060018 -27.998801 
L 134.391755 -27.998801 
L 133.723493 -27.998801 
L 133.05523 -27.998801 
L 132.386968 -27.998801 
L 131.718705 -27.998801 
L 131.050443 -27.998801 
L 130.38218 -27.998801 
L 129.713918 -27.998801 
L 129.045655 -27.998801 
L 128.377393 -27.998801 
L 127.70913 -27.998801 
L 127.040868 -27.998801 
L 126.372605 -27.998801 
L 125.704343 -27.998801 
L 125.03608 -27.998801 
L 124.367818 -27.998801 
L 123.699555 -27.998801 
L 123.031293 -27.998801 
L 122.36303 -27.998801 
L 121.694768 -27.998801 
L 121.026505 -27.998801 
L 120.358243 -27.998801 
L 119.68998 -27.998801 
L 119.021718 -27.998801 
L 118.353455 -27.998801 
L 117.685193 -27.998801 
L 117.01693 -27.998801 
L 116.348668 -27.998801 
L 115.680405 -27.998801 
L 115.012143 -27.998801 
L 114.34388 -27.998801 
L 113.675618 -27.998801 
L 113.007355 -27.998801 
L 112.339093 -27.998801 
L 111.67083 -27.998801 
L 111.002568 -27.998801 
L 110.334305 -27.998801 
L 109.666042 -27.998801 
L 108.99778 -27.998801 
L 108.329517 -27.998801 
L 107.661255 -27.998801 
L 106.992992 -27.998801 
L 106.32473 -27.998801 
L 105.656467 -27.998801 
L 104.988205 -27.998801 
L 104.319942 -27.998801 
L 103.65168 -27.998801 
L 102.983417 -27.998801 
L 102.315155 -27.998801 
L 101.646892 -27.998801 
L 100.97863 -27.998801 
L 100.310367 -27.998801 
L 99.642105 -27.998801 
L 98.973842 -27.998801 
L 98.30558 -27.998801 
L 97.637317 -27.998801 
L 96.969055 -27.998801 
L 96.300792 -27.998801 
L 95.63253 -27.998801 
L 94.964267 -27.998801 
L 94.296005 -27.998801 
L 93.627742 -27.998801 
L 92.95948 -27.998801 
L 92.291217 -27.998801 
L 91.622955 -27.998801 
L 90.954692 -27.998801 
L 90.28643 -27.998801 
L 89.618167 -27.998801 
L 88.949905 -27.998801 
L 88.281642 -27.998801 
L 87.61338 -27.998801 
L 86.945117 -27.998801 
L 86.276855 -27.998801 
L 85.608592 -27.998801 
L 84.94033 -27.998801 
L 84.272067 -27.998801 
L 83.603805 -27.998801 
L 82.935542 -27.998801 
L 82.26728 -27.998801 
L 81.599017 -27.998801 
L 80.930755 -27.998801 
L 80.262492 -27.998801 
L 79.59423 -27.998801 
L 78.925967 -27.998801 
L 78.257705 -27.998801 
L 77.589442 -27.998801 
L 76.92118 -27.998801 
L 76.252917 -27.998801 
L 75.584655 -27.998801 
L 74.916392 -27.998801 
L 74.24813 -27.998801 
L 73.579867 -27.998801 
L 72.911605 -27.998801 
L 72.243342 -27.998801 
L 71.57508 -27.998801 
L 70.906817 -27.998801 
L 70.238555 -27.998801 
L 69.570292 -27.998801 
L 68.90203 -27.998801 
L 68.233767 -27.998801 
L 67.565505 -27.998801 
L 66.897242 -27.998801 
L 66.22898 -27.998801 
L 65.560717 -27.998801 
L 64.892455 -27.998801 
L 64.224192 -27.998801 
L 63.55593 -27.998801 
L 62.887667 -27.998801 
L 62.219404 -27.998801 
L 61.551142 -27.998801 
L 60.882879 -27.998801 
L 60.214617 -27.998801 
L 59.546354 -27.998801 
L 58.878092 -27.998801 
L 58.209829 -27.998801 
L 57.541567 -27.998801 
L 56.873304 -27.998801 
L 56.205042 -27.998801 
L 55.536779 -27.998801 
L 54.868517 -27.998801 
L 54.200254 -27.998801 
L 53.531992 -27.998801 
L 52.863729 -27.998801 
L 52.195467 -27.998801 
L 51.527204 -27.998801 
L 50.858942 -27.998801 
L 50.190679 -27.998801 
L 49.522417 -27.998801 
L 48.854154 -27.998801 
L 48.185892 -27.998801 
L 47.517629 -27.998801 
L 46.849367 -27.998801 
L 46.181104 -27.998801 
L 45.512842 -27.998801 
L 44.844579 -27.998801 
L 44.176317 -27.998801 
L 43.508054 -27.998801 
L 42.839792 -27.998801 
L 42.171529 -27.998801 
L 41.503267 -27.998801 
L 40.835004 -27.998801 
L 40.166742 -27.998801 
L 39.498479 -27.998801 
L 38.830217 -27.998801 
L 38.161954 -27.998801 
L 37.493692 -27.998801 
L 36.825429 -27.998801 
L 36.157167 -27.998801 
L 35.488904 -27.998801 
L 34.820642 -27.998801 
L 34.152379 -27.998801 
L 33.484117 -27.998801 
L 32.815854 -27.998801 
L 32.147592 -27.998801 
L 31.479329 -27.998801 
L 30.811067 -27.998801 
L 30.142804 -27.998801 
L 29.474542 -27.998801 
z
" id="m7147ea1697" style="stroke:#1f77b4;stroke-opacity:0;"/>
    </defs>
    <g clip-path="url(#p006202baf4)">
     <use style="fill:#1f77b4;fill-opacity:0;stroke:#1f77b4;stroke-opacity:0;" x="0" xlink:href="#m7147ea1697" y="152.39952"/>
    </g>
   </g>
   <g id="matplotlib.axis_1">
    <g id="xtick_1">
     <g id="line2d_1">
      <defs>
       <path d="M 0 0 
L 0 3.5 
" id="m9f65a9c29c" style="stroke:#000000;stroke-width:0.8;"/>
      </defs>
      <g>
       <use style="stroke:#000000;stroke-width:0.8;" x="17.622591" xlink:href="#m9f65a9c29c" y="129.31827"/>
      </g>
     </g>
     <g id="text_1">
      <!-- 1.70 -->
      <g transform="translate(8.732747 143.258895)scale(0.1 -0.1)">
       <defs>
        <path d="M 2714 0 
L 2714 371 
L 1914 371 
L 1914 4339 
L 1786 4339 
C 1408 3949 877 3930 570 3917 
L 570 3546 
C 781 3552 1088 3565 1408 3699 
L 1408 371 
L 608 371 
L 608 0 
L 2714 0 
z
" id="LMSans10-Regular-31" transform="scale(0.015625)"/>
        <path d="M 1152 0 
L 1152 531 
L 621 531 
L 621 0 
L 1152 0 
z
" id="LMSans10-Regular-2e" transform="scale(0.015625)"/>
        <path d="M 2925 3782 
L 2925 4198 
L 269 4198 
L 269 3744 
L 1485 3744 
C 1562 3744 1638 3750 1715 3750 
L 2490 3750 
C 1542 2707 973 1427 973 -70 
L 1510 -70 
C 1510 1850 2426 3219 2925 3782 
z
" id="LMSans10-Regular-37" transform="scale(0.015625)"/>
        <path d="M 2925 2086 
C 2925 2592 2899 3187 2630 3706 
C 2368 4186 1926 4339 1600 4339 
C 1222 4339 774 4166 512 3597 
C 301 3130 269 2598 269 2086 
C 269 1581 294 1114 486 646 
C 742 32 1229 -141 1594 -141 
C 2061 -141 2464 122 2669 563 
C 2861 979 2925 1402 2925 2086 
z
M 2426 2163 
C 2426 1741 2426 1338 2310 934 
C 2144 352 1805 250 1600 250 
C 1267 250 1005 493 877 954 
C 774 1318 768 1664 768 2163 
C 768 2566 768 2950 877 3302 
C 915 3424 1075 3949 1594 3949 
C 2093 3949 2259 3462 2304 3347 
C 2426 2989 2426 2560 2426 2163 
z
" id="LMSans10-Regular-30" transform="scale(0.015625)"/>
       </defs>
       <use xlink:href="#LMSans10-Regular-31"/>
       <use x="49.999985" xlink:href="#LMSans10-Regular-2e"/>
       <use x="77.799973" xlink:href="#LMSans10-Regular-37"/>
       <use x="127.799957" xlink:href="#LMSans10-Regular-30"/>
      </g>
     </g>
    </g>
    <g id="xtick_2">
     <g id="line2d_2">
      <g>
       <use style="stroke:#000000;stroke-width:0.8;" x="87.666025" xlink:href="#m9f65a9c29c" y="129.31827"/>
      </g>
     </g>
     <g id="text_2">
      <!-- 1.75 -->
      <g transform="translate(78.776182 143.258895)scale(0.1 -0.1)">
       <defs>
        <path d="M 2874 1299 
C 2874 2099 2323 2733 1664 2733 
C 1408 2733 1165 2637 979 2470 
L 979 3789 
L 2662 3789 
L 2662 4198 
L 518 4198 
L 518 1837 
L 941 1837 
C 1050 2093 1286 2342 1658 2342 
C 1958 2342 2304 2080 2304 1312 
C 2304 250 1523 250 1466 250 
C 1037 250 646 499 461 845 
L 250 486 
C 512 122 954 -141 1472 -141 
C 2234 -141 2874 493 2874 1299 
z
" id="LMSans10-Regular-35" transform="scale(0.015625)"/>
       </defs>
       <use xlink:href="#LMSans10-Regular-31"/>
       <use x="49.999985" xlink:href="#LMSans10-Regular-2e"/>
       <use x="77.799973" xlink:href="#LMSans10-Regular-37"/>
       <use x="127.799957" xlink:href="#LMSans10-Regular-35"/>
      </g>
     </g>
    </g>
    <g id="xtick_3">
     <g id="line2d_3">
      <g>
       <use style="stroke:#000000;stroke-width:0.8;" x="157.70946" xlink:href="#m9f65a9c29c" y="129.31827"/>
      </g>
     </g>
     <g id="text_3">
      <!-- 1.80 -->
      <g transform="translate(148.819616 143.258895)scale(0.1 -0.1)">
       <defs>
        <path d="M 2925 1152 
C 2925 1734 2477 2125 2048 2272 
C 2618 2458 2835 2880 2835 3219 
C 2835 3821 2291 4339 1600 4339 
C 883 4339 358 3808 358 3219 
C 358 2880 576 2458 1146 2272 
C 685 2112 269 1709 269 1152 
C 269 454 858 -141 1594 -141 
C 2355 -141 2925 474 2925 1152 
z
M 2387 3219 
C 2387 2758 2061 2464 1600 2464 
C 1107 2464 806 2778 806 3219 
C 806 3661 1120 3968 1594 3968 
C 2099 3968 2387 3635 2387 3219 
z
M 2406 1158 
C 2406 538 2010 250 1600 250 
C 1158 250 787 557 787 1158 
C 787 1830 1248 2074 1594 2074 
C 1965 2074 2406 1818 2406 1158 
z
" id="LMSans10-Regular-38" transform="scale(0.015625)"/>
       </defs>
       <use xlink:href="#LMSans10-Regular-31"/>
       <use x="49.999985" xlink:href="#LMSans10-Regular-2e"/>
       <use x="77.799973" xlink:href="#LMSans10-Regular-38"/>
       <use x="127.799957" xlink:href="#LMSans10-Regular-30"/>
      </g>
     </g>
    </g>
    <g id="xtick_4">
     <g id="line2d_4">
      <g>
       <use style="stroke:#000000;stroke-width:0.8;" x="227.752894" xlink:href="#m9f65a9c29c" y="129.31827"/>
      </g>
     </g>
     <g id="text_4">
      <!-- 1.85 -->
      <g transform="translate(218.863051 143.258895)scale(0.1 -0.1)">
       <use xlink:href="#LMSans10-Regular-31"/>
       <use x="49.999985" xlink:href="#LMSans10-Regular-2e"/>
       <use x="77.799973" xlink:href="#LMSans10-Regular-38"/>
       <use x="127.799957" xlink:href="#LMSans10-Regular-35"/>
      </g>
     </g>
    </g>
    <g id="xtick_5">
     <g id="line2d_5">
      <g>
       <use style="stroke:#000000;stroke-width:0.8;" x="297.796329" xlink:href="#m9f65a9c29c" y="129.31827"/>
      </g>
     </g>
     <g id="text_5">
      <!-- 1.90 -->
      <g transform="translate(288.906485 143.258895)scale(0.1 -0.1)">
       <defs>
        <path d="M 2925 2144 
C 2925 3936 2163 4339 1619 4339 
C 1171 4339 909 4147 685 3910 
C 282 3475 269 3053 269 2778 
C 269 1958 691 1242 1306 1242 
C 1702 1242 2112 1427 2387 1773 
C 2317 742 1824 250 1318 250 
C 1101 250 890 301 659 493 
L 461 154 
C 678 -6 915 -141 1312 -141 
C 2150 -141 2925 749 2925 2144 
z
M 2374 2630 
C 2374 2106 2061 1632 1555 1632 
C 1254 1632 1075 1779 941 2016 
C 800 2266 794 2502 794 2778 
C 794 3059 800 3322 979 3603 
C 1107 3789 1286 3968 1619 3968 
C 2246 3968 2355 3098 2368 2784 
C 2374 2739 2374 2675 2374 2630 
z
" id="LMSans10-Regular-39" transform="scale(0.015625)"/>
       </defs>
       <use xlink:href="#LMSans10-Regular-31"/>
       <use x="49.999985" xlink:href="#LMSans10-Regular-2e"/>
       <use x="77.799973" xlink:href="#LMSans10-Regular-39"/>
       <use x="127.799957" xlink:href="#LMSans10-Regular-30"/>
      </g>
     </g>
    </g>
    <g id="xtick_6">
     <g id="line2d_6">
      <g>
       <use style="stroke:#000000;stroke-width:0.8;" x="367.839763" xlink:href="#m9f65a9c29c" y="129.31827"/>
      </g>
     </g>
     <g id="text_6">
      <!-- 1.95 -->
      <g transform="translate(358.94992 143.258895)scale(0.1 -0.1)">
       <use xlink:href="#LMSans10-Regular-31"/>
       <use x="49.999985" xlink:href="#LMSans10-Regular-2e"/>
       <use x="77.799973" xlink:href="#LMSans10-Regular-39"/>
       <use x="127.799957" xlink:href="#LMSans10-Regular-35"/>
      </g>
     </g>
    </g>
   </g>
   <g id="matplotlib.axis_2"/>
   <g id="line2d_7">
    <path clip-path="url(#p006202baf4)" d="M 39.086688 116.876565 
L 41.950709 116.724325 
L 44.81473 116.376263 
L 47.678751 115.832472 
L 51.258777 114.884839 
L 54.838803 113.678459 
L 59.85084 111.76848 
L 68.442903 108.109927 
L 79.898987 102.767948 
L 84.195019 100.496111 
L 87.775045 98.418938 
L 91.355071 96.083848 
L 94.935098 93.498116 
L 99.947135 89.520938 
L 103.527161 86.466693 
L 121.427292 70.460151 
L 149.351497 47.267735 
L 153.647529 43.912606 
L 157.94356 40.890466 
L 160.807582 39.157082 
L 163.671603 37.688995 
L 167.251629 36.192026 
L 169.399645 35.483385 
L 172.979671 34.630169 
L 176.559697 34.122997 
L 179.423718 33.898028 
L 183.71975 33.731263 
L 188.731787 33.622881 
L 193.743823 33.237997 
L 196.607844 32.837303 
L 200.903876 31.951795 
L 204.483902 30.965159 
L 210.92795 28.886398 
L 215.939986 27.302137 
L 218.804007 26.627983 
L 220.952023 26.245702 
L 223.100039 26.059117 
L 225.248055 26.09106 
L 227.396071 26.325296 
L 229.544086 26.796134 
L 231.692102 27.517273 
L 233.840118 28.519255 
L 235.988134 29.744987 
L 238.136149 31.218875 
L 241.00017 33.538792 
L 244.580197 36.969289 
L 247.444218 39.916675 
L 255.320276 48.57203 
L 258.184297 51.692822 
L 264.628344 58.22284 
L 268.20837 61.532142 
L 273.220407 65.848445 
L 279.664454 71.084158 
L 283.960486 74.628266 
L 295.41657 84.6161 
L 310.452681 97.974342 
L 315.464717 102.014442 
L 320.476754 105.684476 
L 324.05678 108.098594 
L 328.352812 110.695991 
L 332.648844 113.011397 
L 336.944875 115.027246 
L 340.524901 116.46571 
L 344.820933 117.918303 
L 348.400959 118.928911 
L 352.696991 119.932659 
L 357.709028 120.829417 
L 363.43707 121.573845 
L 369.881117 122.096643 
L 377.04117 122.368617 
L 385.633233 122.408928 
L 404.965375 122.1837 
L 404.965375 122.1837 
" style="fill:none;stroke:#1f77b4;stroke-linecap:square;stroke-width:1.071429;"/>
   </g>
   <g id="line2d_8">
    <path clip-path="url(#p006202baf4)" d="M 29.474542 120.274174 
L 33.484117 120.190614 
L 38.161954 119.900836 
L 42.171529 119.465447 
L 46.181104 118.838908 
L 51.527204 117.665453 
L 56.205042 116.346603 
L 62.219404 114.299927 
L 68.90203 111.56611 
L 74.24813 109.110363 
L 79.59423 106.313845 
L 84.272067 103.551898 
L 88.281642 100.940539 
L 91.622955 98.562879 
L 96.969055 94.381919 
L 103.65168 88.808762 
L 117.01693 77.45021 
L 123.031293 72.585871 
L 144.415693 55.634869 
L 151.76658 49.634402 
L 159.117468 44.018281 
L 164.463568 40.295416 
L 167.804881 38.251666 
L 172.482718 35.701005 
L 174.487506 34.73699 
L 178.497081 33.052867 
L 181.838393 31.877604 
L 185.179706 30.943878 
L 188.521018 30.288434 
L 190.525806 29.993023 
L 194.535381 29.687464 
L 197.876693 29.680524 
L 202.554531 30.001105 
L 210.573681 30.906409 
L 214.583256 31.269901 
L 219.929356 31.331599 
L 223.270669 31.142256 
L 227.948506 30.485048 
L 239.308969 28.427205 
L 241.982019 28.240257 
L 244.655069 28.304268 
L 246.659856 28.596712 
L 248.664644 29.1265 
L 250.669431 29.839074 
L 252.674219 30.805316 
L 254.679007 32.03261 
L 256.683794 33.483546 
L 258.688582 35.187347 
L 261.361632 37.833451 
L 264.702944 41.643921 
L 268.044257 45.944121 
L 271.385569 50.552278 
L 284.082557 68.768146 
L 287.423869 73.290831 
L 292.769969 80.171449 
L 297.447807 85.726825 
L 303.46217 92.456463 
L 308.80827 98.011687 
L 314.822632 103.780272 
L 318.832207 107.244952 
L 322.17352 109.862092 
L 326.183095 112.661221 
L 328.856145 114.292578 
L 331.529195 115.728767 
L 334.870507 117.211641 
L 337.543557 118.182174 
L 340.216607 118.976872 
L 343.55792 119.742156 
L 347.567495 120.368399 
L 352.245333 120.808914 
L 358.259695 121.065077 
L 369.620158 121.158323 
L 370.956683 121.152315 
L 370.956683 121.152315 
" style="fill:none;stroke:#1f77b4;stroke-dasharray:1.071429,1.767857;stroke-dashoffset:0;stroke-width:1.071429;"/>
   </g>
   <g id="patch_3">
    <path d="M 10.7 129.31827 
L 10.7 21.132143 
" style="fill:none;stroke:#000000;stroke-linecap:square;stroke-linejoin:miter;stroke-width:0.8;"/>
   </g>
   <g id="patch_4">
    <path d="M 423.739916 129.31827 
L 423.739916 21.132143 
" style="fill:none;stroke:#000000;stroke-linecap:square;stroke-linejoin:miter;stroke-width:0.8;"/>
   </g>
   <g id="patch_5">
    <path d="M 10.7 129.31827 
L 423.739916 129.31827 
" style="fill:none;stroke:#000000;stroke-linecap:square;stroke-linejoin:miter;stroke-width:0.8;"/>
   </g>
   <g id="patch_6">
    <path d="M 10.7 21.132143 
L 423.739916 21.132143 
" style="fill:none;stroke:#000000;stroke-linecap:square;stroke-linejoin:miter;stroke-width:0.8;"/>
   </g>
   <g id="text_7">
    <!-- lbda -->
    <g transform="translate(207.196744 15.132143)scale(0.114286 -0.114286)">
     <defs>
      <path d="M 998 0 
L 998 4442 
L 518 4442 
L 518 0 
L 998 0 
z
" id="LMSans10-Regular-6c" transform="scale(0.015625)"/>
      <path d="M 3072 1427 
C 3072 2221 2637 2912 2035 2912 
C 1786 2912 1389 2848 1005 2534 
L 1005 4442 
L 525 4442 
L 525 0 
L 1024 0 
L 1024 294 
C 1178 154 1453 -70 1882 -70 
C 2522 -70 3072 570 3072 1427 
z
M 2573 1427 
C 2573 595 2035 320 1645 320 
C 1395 320 1184 435 1024 730 
L 1024 2144 
C 1126 2298 1357 2522 1709 2522 
C 2086 2522 2573 2246 2573 1427 
z
" id="LMSans10-Regular-62" transform="scale(0.015625)"/>
      <path d="M 2778 0 
L 2778 4442 
L 2298 4442 
L 2298 2560 
C 1958 2842 1600 2912 1363 2912 
C 730 2912 230 2246 230 1421 
C 230 582 723 -70 1331 -70 
C 1542 -70 1920 -13 2278 333 
L 2278 0 
L 2778 0 
z
M 2278 890 
C 2278 800 2272 685 2067 499 
C 1920 371 1760 320 1594 320 
C 1197 320 730 621 730 1414 
C 730 2259 1280 2522 1658 2522 
C 1946 2522 2138 2374 2278 2170 
L 2278 890 
z
" id="LMSans10-Regular-64" transform="scale(0.015625)"/>
      <path d="M 2618 0 
L 2618 1850 
C 2618 2502 2150 2950 1562 2950 
C 1146 2950 858 2848 557 2675 
L 595 2253 
C 928 2490 1248 2573 1562 2573 
C 1862 2573 2118 2317 2118 1843 
L 2118 1568 
C 1158 1555 346 1286 346 723 
C 346 448 518 -70 1075 -70 
C 1165 -70 1766 -58 2138 230 
L 2138 0 
L 2618 0 
z
M 2118 845 
C 2118 723 2118 563 1901 442 
C 1715 326 1472 320 1402 320 
C 1094 320 806 467 806 736 
C 806 1184 1843 1229 2118 1242 
L 2118 845 
z
" id="LMSans10-Regular-61" transform="scale(0.015625)"/>
     </defs>
     <use xlink:href="#LMSans10-Regular-6c"/>
     <use x="23.899994" xlink:href="#LMSans10-Regular-62"/>
     <use x="75.599991" xlink:href="#LMSans10-Regular-64"/>
     <use x="127.299988" xlink:href="#LMSans10-Regular-61"/>
    </g>
   </g>
  </g>
  <g id="axes_2">
   <g id="patch_7">
    <path d="M 452.159604 129.31827 
L 865.19952 129.31827 
L 865.19952 21.132143 
L 452.159604 21.132143 
z
" style="fill:#ffffff;"/>
   </g>
   <g id="matplotlib.axis_3">
    <g id="xtick_7">
     <g id="line2d_9">
      <g>
       <use style="stroke:#000000;stroke-width:0.8;" x="452.159604" xlink:href="#m9f65a9c29c" y="129.31827"/>
      </g>
     </g>
     <g id="text_8">
      <!-- 0 -->
      <g transform="translate(449.659604 143.258895)scale(0.1 -0.1)">
       <use xlink:href="#LMSans10-Regular-30"/>
      </g>
     </g>
    </g>
    <g id="xtick_8">
     <g id="line2d_10">
      <g>
       <use style="stroke:#000000;stroke-width:0.8;" x="534.933134" xlink:href="#m9f65a9c29c" y="129.31827"/>
      </g>
     </g>
     <g id="text_9">
      <!-- 100 -->
      <g transform="translate(527.433134 143.258895)scale(0.1 -0.1)">
       <use xlink:href="#LMSans10-Regular-31"/>
       <use x="49.999985" xlink:href="#LMSans10-Regular-30"/>
       <use x="99.999969" xlink:href="#LMSans10-Regular-30"/>
      </g>
     </g>
    </g>
    <g id="xtick_9">
     <g id="line2d_11">
      <g>
       <use style="stroke:#000000;stroke-width:0.8;" x="617.706664" xlink:href="#m9f65a9c29c" y="129.31827"/>
      </g>
     </g>
     <g id="text_10">
      <!-- 200 -->
      <g transform="translate(610.206664 143.258895)scale(0.1 -0.1)">
       <defs>
        <path d="M 2874 0 
L 2874 454 
L 1709 454 
C 1632 454 1555 448 1478 448 
L 781 448 
C 986 627 1472 1107 1670 1293 
C 1792 1408 2118 1677 2240 1792 
C 2528 2080 2874 2419 2874 2963 
C 2874 3699 2355 4339 1510 4339 
C 781 4339 422 3840 269 3290 
C 346 3181 378 3142 390 3123 
C 403 3110 467 3027 531 2938 
C 659 3430 838 3930 1421 3930 
C 2022 3930 2349 3450 2349 2950 
C 2349 2406 1984 2042 1606 1658 
L 1114 1203 
L 320 410 
L 320 0 
L 2874 0 
z
" id="LMSans10-Regular-32" transform="scale(0.015625)"/>
       </defs>
       <use xlink:href="#LMSans10-Regular-32"/>
       <use x="49.999985" xlink:href="#LMSans10-Regular-30"/>
       <use x="99.999969" xlink:href="#LMSans10-Regular-30"/>
      </g>
     </g>
    </g>
    <g id="xtick_10">
     <g id="line2d_12">
      <g>
       <use style="stroke:#000000;stroke-width:0.8;" x="700.480195" xlink:href="#m9f65a9c29c" y="129.31827"/>
      </g>
     </g>
     <g id="text_11">
      <!-- 300 -->
      <g transform="translate(692.980195 143.258895)scale(0.1 -0.1)">
       <defs>
        <path d="M 2925 1152 
C 2925 1734 2477 2131 2042 2266 
C 2528 2528 2752 2963 2752 3366 
C 2752 3917 2221 4339 1587 4339 
C 1094 4339 627 4083 358 3635 
L 589 3290 
C 774 3738 1190 3968 1581 3968 
C 1914 3968 2227 3776 2227 3366 
C 2227 2976 1965 2598 1574 2509 
C 1536 2502 1523 2502 1069 2464 
L 1069 2074 
L 1523 2074 
C 2214 2074 2355 1478 2355 1158 
C 2355 659 2061 250 1568 250 
C 1126 250 621 474 339 909 
L 269 525 
C 736 -77 1325 -141 1581 -141 
C 2362 -141 2925 480 2925 1152 
z
" id="LMSans10-Regular-33" transform="scale(0.015625)"/>
       </defs>
       <use xlink:href="#LMSans10-Regular-33"/>
       <use x="49.999985" xlink:href="#LMSans10-Regular-30"/>
       <use x="99.999969" xlink:href="#LMSans10-Regular-30"/>
      </g>
     </g>
    </g>
    <g id="xtick_11">
     <g id="line2d_13">
      <g>
       <use style="stroke:#000000;stroke-width:0.8;" x="783.253725" xlink:href="#m9f65a9c29c" y="129.31827"/>
      </g>
     </g>
     <g id="text_12">
      <!-- 400 -->
      <g transform="translate(775.753725 143.258895)scale(0.1 -0.1)">
       <defs>
        <path d="M 3014 1094 
L 3014 1485 
L 2381 1485 
L 2381 4198 
L 1798 4198 
L 179 1485 
L 179 1094 
L 1875 1094 
L 1875 0 
L 2381 0 
L 2381 1094 
L 3014 1094 
z
M 1914 1485 
L 678 1485 
C 1011 2035 1907 3552 1914 3917 
L 1914 1485 
z
" id="LMSans10-Regular-34" transform="scale(0.015625)"/>
       </defs>
       <use xlink:href="#LMSans10-Regular-34"/>
       <use x="49.999985" xlink:href="#LMSans10-Regular-30"/>
       <use x="99.999969" xlink:href="#LMSans10-Regular-30"/>
      </g>
     </g>
    </g>
   </g>
   <g id="matplotlib.axis_4">
    <g id="ytick_1">
     <g id="line2d_14">
      <defs>
       <path d="M 0 0 
L -3.5 0 
" id="m0b905ea5c6" style="stroke:#000000;stroke-width:0.8;"/>
      </defs>
      <g>
       <use style="stroke:#000000;stroke-width:0.8;" x="452.159604" xlink:href="#m0b905ea5c6" y="127.411991"/>
      </g>
     </g>
     <g id="text_13">
      <!-- 1.7 -->
      <g transform="translate(432.379916 130.882304)scale(0.1 -0.1)">
       <use xlink:href="#LMSans10-Regular-31"/>
       <use x="49.999985" xlink:href="#LMSans10-Regular-2e"/>
       <use x="77.799973" xlink:href="#LMSans10-Regular-37"/>
      </g>
     </g>
    </g>
    <g id="ytick_2">
     <g id="line2d_15">
      <g>
       <use style="stroke:#000000;stroke-width:0.8;" x="452.159604" xlink:href="#m0b905ea5c6" y="90.787028"/>
      </g>
     </g>
     <g id="text_14">
      <!-- 1.8 -->
      <g transform="translate(432.379916 94.257341)scale(0.1 -0.1)">
       <use xlink:href="#LMSans10-Regular-31"/>
       <use x="49.999985" xlink:href="#LMSans10-Regular-2e"/>
       <use x="77.799973" xlink:href="#LMSans10-Regular-38"/>
      </g>
     </g>
    </g>
    <g id="ytick_3">
     <g id="line2d_16">
      <g>
       <use style="stroke:#000000;stroke-width:0.8;" x="452.159604" xlink:href="#m0b905ea5c6" y="54.162066"/>
      </g>
     </g>
     <g id="text_15">
      <!-- 1.9 -->
      <g transform="translate(432.379916 57.632378)scale(0.1 -0.1)">
       <use xlink:href="#LMSans10-Regular-31"/>
       <use x="49.999985" xlink:href="#LMSans10-Regular-2e"/>
       <use x="77.799973" xlink:href="#LMSans10-Regular-39"/>
      </g>
     </g>
    </g>
   </g>
   <g id="line2d_17">
    <path clip-path="url(#pf0c39bf3f3)" d="M 452.159604 97.403337 
L 452.987339 75.84407 
L 453.815074 58.915552 
L 454.64281 86.71074 
L 455.470545 67.30572 
L 456.29828 67.30572 
L 457.126016 111.536151 
L 457.953751 100.060768 
L 458.781486 86.684893 
L 459.609221 78.53429 
L 460.436957 81.275113 
L 461.264692 81.275113 
L 462.092427 113.895906 
L 462.920163 101.975318 
L 463.747898 69.012665 
L 464.575633 69.012665 
L 465.403369 59.876299 
L 466.231104 58.120846 
L 467.058839 65.473032 
L 467.886575 67.304061 
L 468.71431 65.283634 
L 469.542045 67.733198 
L 470.36978 76.684838 
L 471.197516 83.418182 
L 472.025251 69.452761 
L 472.852986 90.343326 
L 473.680722 77.077694 
L 474.508457 97.875043 
L 475.336192 98.779118 
L 476.163928 88.629744 
L 476.991663 91.519798 
L 477.819398 91.519798 
L 478.647133 78.57245 
L 479.474869 84.864824 
L 480.302604 96.677701 
L 481.130339 88.301898 
L 481.958075 87.641317 
L 482.78581 88.367389 
L 483.613545 90.260764 
L 484.441281 58.869491 
L 485.269016 50.357205 
L 486.096751 75.693049 
L 486.924486 88.659258 
L 487.752222 72.56819 
L 489.407692 84.165822 
L 490.235428 70.578238 
L 491.063163 84.202715 
L 491.890898 83.052133 
L 492.718634 83.349286 
L 493.546369 83.349286 
L 494.374104 110.511486 
L 495.20184 111.92857 
L 496.029575 105.926144 
L 496.85731 96.342215 
L 497.685045 80.487611 
L 498.512781 70.947561 
L 499.340516 79.838906 
L 500.168251 69.09968 
L 500.995987 72.773175 
L 501.823722 67.099162 
L 502.651457 72.146998 
L 503.479193 86.692316 
L 504.306928 61.19602 
L 505.134663 83.373692 
L 505.962398 86.415553 
L 506.790134 77.068088 
L 507.617869 74.546441 
L 508.445604 73.727285 
L 509.27334 75.990813 
L 510.101075 83.654777 
L 510.92881 78.333365 
L 511.756546 115.369661 
L 512.584281 111.623209 
L 513.412016 98.058679 
L 514.239751 95.843527 
L 515.895222 77.423658 
L 516.722957 84.154164 
L 517.550693 108.230407 
L 518.378428 113.574478 
L 519.206163 111.479043 
L 520.033899 102.796308 
L 520.861634 112.613557 
L 521.689369 86.191968 
L 522.517105 93.040401 
L 523.34484 85.975325 
L 524.172575 105.837426 
L 525.00031 70.006942 
L 525.828046 65.131958 
L 526.655781 95.07851 
L 527.483516 89.510504 
L 528.311252 76.343414 
L 529.966722 102.197156 
L 530.794458 121.893916 
L 531.622193 105.991547 
L 532.449928 79.435746 
L 533.277663 92.451466 
L 534.105399 81.891379 
L 534.933134 90.303115 
L 535.760869 87.008373 
L 536.588605 73.20109 
L 537.41634 88.191656 
L 538.244075 66.26835 
L 539.071811 97.369849 
L 539.899546 95.296069 
L 540.727281 89.422965 
L 541.555016 73.660441 
L 542.382752 75.767446 
L 543.210487 93.246783 
L 544.038222 98.62098 
L 544.865958 108.303756 
L 545.693693 88.782031 
L 546.521428 88.782031 
L 547.349164 94.783584 
L 548.176899 95.240402 
L 549.004634 99.39438 
L 549.83237 99.204894 
L 550.660105 93.096984 
L 551.48784 90.197282 
L 552.315575 75.848174 
L 553.143311 72.982527 
L 553.971046 56.545668 
L 554.798781 67.523628 
L 555.626517 58.422059 
L 556.454252 55.905738 
L 557.281987 58.407433 
L 558.109723 63.464481 
L 558.937458 59.689519 
L 559.765193 56.604566 
L 560.592928 59.426204 
L 561.420664 66.963029 
L 562.248399 55.829464 
L 563.076134 60.184584 
L 563.90387 70.079157 
L 564.731605 92.185574 
L 565.55934 74.594729 
L 566.387076 80.61069 
L 568.042546 71.45114 
L 568.870281 72.366741 
L 569.698017 53.764984 
L 570.525752 57.42346 
L 571.353487 62.712694 
L 572.181223 59.102768 
L 573.008958 99.462796 
L 573.836693 101.307358 
L 574.664429 115.411226 
L 575.492164 77.96902 
L 576.319899 78.485042 
L 577.147635 69.795757 
L 577.97537 59.704844 
L 578.803105 67.762975 
L 579.63084 65.597857 
L 581.286311 60.496188 
L 582.114046 49.713783 
L 582.941782 76.424273 
L 583.769517 81.259526 
L 584.597252 74.805478 
L 585.424988 87.554215 
L 586.252723 54.678664 
L 587.080458 65.611217 
L 587.908193 64.296124 
L 588.735929 81.642821 
L 589.563664 96.059383 
L 590.391399 67.962546 
L 591.219135 47.25601 
L 592.04687 69.324662 
L 592.874605 69.543138 
L 593.702341 69.311084 
L 594.530076 72.54911 
L 595.357811 62.754433 
L 596.185546 90.340269 
L 597.013282 109.472195 
L 597.841017 79.336637 
L 598.668752 70.471969 
L 599.496488 84.384342 
L 601.151958 67.500183 
L 601.979694 113.235586 
L 602.807429 76.734218 
L 603.635164 74.317224 
L 604.4629 62.26046 
L 605.290635 93.518962 
L 606.11837 97.826143 
L 606.946105 103.02177 
L 607.773841 98.671452 
L 608.601576 80.351915 
L 609.429311 70.732097 
L 610.257047 66.891383 
L 611.084782 66.891383 
L 611.912517 55.553355 
L 612.740253 89.691084 
L 613.567988 92.061011 
L 614.395723 103.239722 
L 616.051194 80.485341 
L 616.878929 79.208581 
L 617.706664 52.321921 
L 618.5344 74.991733 
L 619.362135 70.530517 
L 620.18987 73.380534 
L 621.017606 72.862766 
L 621.845341 113.779987 
L 622.673076 103.665061 
L 623.500811 103.786263 
L 624.328547 68.197832 
L 625.156282 66.489184 
L 625.984017 65.948799 
L 626.811753 65.625844 
L 627.639488 82.536504 
L 628.467223 73.395117 
L 629.294959 69.578634 
L 630.122694 60.530374 
L 631.778165 86.389182 
L 632.6059 78.262417 
L 633.433635 94.04782 
L 634.26137 87.578184 
L 635.089106 73.493222 
L 635.916841 98.830856 
L 636.744576 92.608207 
L 637.572312 92.466966 
L 638.400047 96.850465 
L 639.227782 99.986676 
L 640.055518 90.646198 
L 640.883253 85.750256 
L 641.710988 81.562093 
L 642.538723 95.927398 
L 643.366459 93.697445 
L 644.194194 81.180283 
L 645.021929 72.973969 
L 645.849665 87.754092 
L 646.6774 99.717161 
L 647.505135 71.898877 
L 648.332871 88.898648 
L 649.160606 80.439192 
L 649.988341 76.284734 
L 650.816076 83.750481 
L 651.643812 76.050016 
L 652.471547 78.779312 
L 653.299282 57.111725 
L 654.127018 59.202663 
L 654.954753 50.755999 
L 655.782488 79.331485 
L 656.610224 80.385446 
L 657.437959 73.627041 
L 658.265694 72.120235 
L 659.09343 72.835784 
L 659.921165 71.779553 
L 660.7489 72.057844 
L 661.576635 83.067633 
L 662.404371 68.025679 
L 663.232106 59.360495 
L 664.059841 45.825697 
L 664.887577 87.208643 
L 665.715312 63.424881 
L 666.543047 51.37912 
L 667.370783 58.025274 
L 669.026253 75.335995 
L 669.853988 75.335995 
L 670.681724 71.096879 
L 671.509459 72.034879 
L 672.337194 71.882635 
L 673.992665 103.252864 
L 674.8204 108.192859 
L 675.648136 63.868733 
L 676.475871 52.537123 
L 677.303606 43.944328 
L 678.131341 57.063611 
L 678.959077 67.527689 
L 679.786812 69.410935 
L 680.614547 54.818071 
L 681.442283 103.881442 
L 682.270018 82.37304 
L 683.097753 74.240644 
L 683.925489 80.285507 
L 684.753224 88.447025 
L 685.580959 91.861178 
L 686.408695 68.355533 
L 687.23643 102.847347 
L 688.064165 102.530896 
L 688.8919 106.131479 
L 689.719636 51.027872 
L 690.547371 52.363442 
L 691.375106 75.612015 
L 692.202842 75.612015 
L 693.030577 73.161229 
L 693.858312 67.483024 
L 694.686048 71.129101 
L 695.513783 71.850632 
L 696.341518 65.546818 
L 697.169253 69.33191 
L 697.996989 57.707077 
L 699.652459 93.75237 
L 700.480195 103.537224 
L 701.30793 94.508873 
L 702.135665 105.006613 
L 702.963401 73.053344 
L 703.791136 95.526203 
L 704.618871 110.044844 
L 705.446607 89.552768 
L 706.274342 89.552768 
L 707.102077 77.920906 
L 707.929812 93.007786 
L 709.585283 85.304615 
L 710.413018 88.750159 
L 711.240754 84.457822 
L 712.068489 91.728843 
L 712.896224 83.31689 
L 713.72396 56.737381 
L 714.551695 59.433626 
L 715.37943 79.863574 
L 716.207165 49.214745 
L 717.034901 77.575902 
L 717.862636 82.885831 
L 718.690371 69.42185 
L 719.518107 73.582202 
L 720.345842 71.696336 
L 721.173577 51.736305 
L 722.001313 90.17519 
L 722.829048 52.704037 
L 723.656783 65.208538 
L 724.484518 55.129151 
L 725.312254 56.773662 
L 726.139989 88.573815 
L 726.967724 78.736307 
L 727.79546 81.033671 
L 728.623195 81.524457 
L 729.45093 82.965511 
L 730.278666 99.73301 
L 731.106401 101.04461 
L 731.934136 100.504968 
L 732.761872 97.698524 
L 733.589607 92.612136 
L 734.417342 92.612136 
L 735.245077 82.336758 
L 736.072813 79.428324 
L 736.900548 86.270557 
L 737.728283 73.754747 
L 738.556019 91.233604 
L 739.383754 93.277433 
L 740.211489 70.430186 
L 741.039225 62.474395 
L 741.86696 67.547118 
L 742.694695 93.024858 
L 743.52243 96.609329 
L 744.350166 90.691954 
L 745.177901 96.402117 
L 746.005636 89.93986 
L 746.833372 61.204359 
L 747.661107 62.011159 
L 748.488842 49.196058 
L 749.316578 51.308826 
L 750.144313 58.716286 
L 750.972048 76.820971 
L 751.799783 83.446692 
L 752.627519 77.001113 
L 753.455254 86.479428 
L 754.282989 83.43713 
L 755.110725 89.04264 
L 755.93846 89.04264 
L 756.766195 98.114258 
L 757.593931 84.10068 
L 758.421666 61.965578 
L 759.249401 88.62433 
L 760.077137 93.886538 
L 760.904872 55.662157 
L 761.732607 65.355586 
L 762.560342 70.850504 
L 763.388078 100.785312 
L 764.215813 31.920833 
L 765.043548 26.049694 
L 765.871284 52.650684 
L 766.699019 97.876964 
L 767.526754 61.192353 
L 768.35449 63.161478 
L 769.182225 63.161478 
L 770.00996 46.601323 
L 770.837695 89.696192 
L 771.665431 69.294318 
L 772.493166 92.316337 
L 773.320901 72.305093 
L 774.148637 72.305093 
L 774.976372 61.074601 
L 775.804107 70.90342 
L 776.631843 59.271646 
L 777.459578 57.146129 
L 778.287313 46.604336 
L 779.115048 39.352132 
L 779.942784 55.879979 
L 780.770519 51.341266 
L 781.598254 91.845024 
L 782.42599 98.891063 
L 783.253725 99.154597 
L 784.08146 96.769563 
L 784.909196 102.973438 
L 785.736931 84.198174 
L 786.564666 104.500415 
L 787.392402 80.468008 
L 788.220137 79.306075 
L 789.047872 95.439668 
L 789.875607 65.405621 
L 790.703343 116.35835 
L 791.531078 76.645281 
L 792.358813 73.032212 
L 793.186549 73.032212 
L 794.014284 73.244358 
L 794.842019 68.149849 
L 795.669755 92.591092 
L 796.49749 102.88913 
L 797.325225 115.225276 
L 798.15296 82.59514 
L 798.980696 77.547828 
L 799.808431 82.282401 
L 801.463902 96.104877 
L 802.291637 71.348974 
L 803.119372 80.580564 
L 803.947108 98.771041 
L 804.774843 114.09098 
L 805.602578 83.360157 
L 806.430313 104.252031 
L 807.258049 88.869832 
L 808.085784 104.17449 
L 808.913519 97.992882 
L 811.396725 64.020845 
L 812.224461 65.921512 
L 813.052196 82.538687 
L 813.879931 89.183707 
L 814.707667 70.582822 
L 815.535402 69.976467 
L 816.363137 67.585146 
L 817.190872 59.10303 
L 818.018608 59.10303 
L 818.846343 86.18114 
L 819.674078 77.52805 
L 820.501814 67.594882 
L 821.329549 73.292428 
L 822.157284 70.312958 
L 822.98502 80.936047 
L 823.812755 86.365212 
L 824.64049 60.33137 
L 825.468225 60.33137 
L 826.295961 39.41103 
L 827.123696 66.134662 
L 827.951431 70.038945 
L 828.779167 64.578213 
L 829.606902 88.193009 
L 830.434637 100.507413 
L 831.262373 82.264981 
L 832.090108 98.045275 
L 832.917843 87.41651 
L 833.745578 85.428654 
L 834.573314 59.511865 
L 835.401049 72.853161 
L 836.228784 71.916035 
L 837.05652 69.15002 
L 837.884255 45.764005 
L 838.71199 93.076901 
L 839.539726 67.295634 
L 840.367461 76.179513 
L 841.195196 83.454114 
L 842.022932 83.454114 
L 842.850667 76.274998 
L 843.678402 84.282264 
L 844.506137 82.824488 
L 845.333873 76.953567 
L 846.161608 69.782834 
L 846.989343 75.328048 
L 847.817079 85.05204 
L 848.644814 73.539415 
L 849.472549 88.360229 
L 850.300285 85.793611 
L 851.12802 109.290742 
L 851.955755 102.98396 
L 852.78349 86.46288 
L 854.438961 88.631534 
L 855.266696 92.711987 
L 856.094432 105.098693 
L 856.922167 105.59581 
L 857.749902 114.93786 
L 858.577638 102.764392 
L 859.405373 101.378001 
L 860.233108 91.100877 
L 861.060843 98.660973 
L 861.888579 77.60856 
L 862.716314 70.644645 
L 863.544049 61.918424 
L 864.371785 56.064051 
L 865.19952 53.841433 
L 865.19952 53.841433 
" style="fill:none;stroke:#1f77b4;stroke-linecap:square;stroke-opacity:0.35;stroke-width:1.071429;"/>
   </g>
   <g id="line2d_18">
    <path clip-path="url(#pf0c39bf3f3)" d="M 452.159604 70.839589 
L 452.987339 74.648606 
L 453.815074 82.644695 
L 454.64281 111.263535 
L 455.470545 112.107446 
L 456.29828 104.452476 
L 457.126016 62.470335 
L 457.953751 53.870729 
L 458.781486 50.012507 
L 459.609221 58.77776 
L 460.436957 80.637585 
L 461.264692 80.815981 
L 462.092427 75.304384 
L 462.920163 76.253735 
L 463.747898 85.808455 
L 464.575633 75.573987 
L 465.403369 87.515357 
L 466.231104 74.588442 
L 467.058839 73.333425 
L 467.886575 82.003761 
L 468.71431 78.841441 
L 469.542045 88.24121 
L 470.36978 73.304958 
L 471.197516 72.630144 
L 472.025251 53.792097 
L 472.852986 51.472291 
L 473.680722 85.002878 
L 474.508457 67.836892 
L 475.336192 86.322949 
L 476.163928 70.5358 
L 476.991663 68.114702 
L 477.819398 67.981844 
L 478.647133 66.818688 
L 479.474869 64.023989 
L 480.302604 62.72243 
L 481.130339 56.07824 
L 481.958075 52.140862 
L 482.78581 61.062026 
L 483.613545 109.398933 
L 484.441281 112.513837 
L 485.269016 113.11277 
L 486.096751 103.303859 
L 486.924486 53.778562 
L 487.752222 67.092613 
L 488.579957 85.432758 
L 489.407692 85.432758 
L 490.235428 96.554885 
L 491.063163 66.49403 
L 491.890898 64.984342 
L 492.718634 82.409627 
L 493.546369 74.159173 
L 494.374104 57.230568 
L 495.20184 51.196183 
L 496.029575 50.701118 
L 496.85731 49.2092 
L 497.685045 72.700306 
L 498.512781 74.658997 
L 499.340516 82.329161 
L 500.168251 82.540303 
L 500.995987 96.536591 
L 501.823722 79.726087 
L 502.651457 78.273987 
L 503.479193 72.18149 
L 504.306928 70.59317 
L 505.134663 71.634775 
L 505.962398 71.916777 
L 506.790134 92.743641 
L 507.617869 83.821254 
L 508.445604 76.687501 
L 509.27334 66.803713 
L 510.101075 64.272897 
L 510.92881 64.911386 
L 511.756546 80.754158 
L 512.584281 59.592113 
L 513.412016 80.930022 
L 514.239751 68.265243 
L 515.067487 74.997932 
L 515.895222 75.552812 
L 516.722957 81.979093 
L 517.550693 71.397961 
L 518.378428 73.776971 
L 519.206163 78.105458 
L 520.033899 58.775446 
L 520.861634 58.985976 
L 521.689369 63.756394 
L 522.517105 89.874326 
L 523.34484 77.392135 
L 524.172575 80.600168 
L 525.00031 59.222048 
L 525.828046 124.400719 
L 526.655781 34.947326 
L 527.483516 78.762198 
L 528.311252 75.665543 
L 529.138987 70.265193 
L 529.966722 57.501743 
L 530.794458 59.993483 
L 531.622193 99.574522 
L 532.449928 101.007848 
L 533.277663 105.097077 
L 534.105399 99.666995 
L 534.933134 70.83042 
L 535.760869 85.611241 
L 536.588605 93.412169 
L 537.41634 92.261063 
L 538.244075 60.53653 
L 539.071811 63.109828 
L 539.899546 61.885592 
L 540.727281 84.104217 
L 541.555016 96.970095 
L 542.382752 99.715545 
L 543.210487 96.174472 
L 544.038222 78.363753 
L 544.865958 75.029455 
L 545.693693 75.029455 
L 546.521428 86.540858 
L 547.349164 113.340371 
L 548.176899 97.721664 
L 549.004634 97.005853 
L 549.83237 76.596906 
L 550.660105 84.852468 
L 551.48784 56.933547 
L 552.315575 40.30384 
L 553.143311 81.894392 
L 553.971046 79.027085 
L 554.798781 88.336477 
L 555.626517 68.17539 
L 556.454252 61.208987 
L 557.281987 67.280746 
L 558.937458 60.293473 
L 559.765193 87.172056 
L 560.592928 89.711036 
L 561.420664 89.52321 
L 562.248399 74.53116 
L 563.076134 48.666109 
L 563.90387 116.321501 
L 564.731605 79.669591 
L 565.55934 97.405258 
L 566.387076 66.312097 
L 567.214811 64.438195 
L 568.042546 61.734571 
L 568.870281 86.231131 
L 569.698017 67.111868 
L 570.525752 65.982549 
L 571.353487 64.283899 
L 572.181223 66.889505 
L 573.008958 65.354538 
L 573.836693 67.331436 
L 574.664429 84.443851 
L 575.492164 64.474695 
L 576.319899 80.525639 
L 577.147635 89.06888 
L 577.97537 70.80453 
L 578.803105 81.624571 
L 579.63084 76.77277 
L 580.458576 73.89171 
L 581.286311 81.844008 
L 582.114046 98.736025 
L 582.941782 102.919037 
L 583.769517 97.750218 
L 584.597252 56.355134 
L 585.424988 87.058495 
L 586.252723 57.852554 
L 587.080458 57.463496 
L 587.908193 88.856952 
L 588.735929 94.014987 
L 589.563664 97.828719 
L 590.391399 60.2499 
L 591.219135 90.321801 
L 592.04687 74.598178 
L 592.874605 99.566052 
L 593.702341 76.158075 
L 594.530076 88.696981 
L 595.357811 57.269077 
L 596.185546 74.375554 
L 597.013282 87.874944 
L 597.841017 68.303184 
L 598.668752 65.378028 
L 599.496488 64.486745 
L 600.324223 96.110903 
L 601.151958 92.314547 
L 601.979694 90.008975 
L 602.807429 92.983991 
L 603.635164 60.811853 
L 604.4629 64.573542 
L 605.290635 64.935617 
L 606.11837 104.152748 
L 606.946105 100.026669 
L 607.773841 99.566314 
L 609.429311 101.801812 
L 610.257047 110.064229 
L 611.084782 105.372443 
L 611.912517 115.374944 
L 612.740253 112.35177 
L 614.395723 53.469665 
L 615.223458 72.81426 
L 616.051194 70.346707 
L 616.878929 81.451064 
L 617.706664 87.330586 
L 618.5344 85.748117 
L 619.362135 54.07196 
L 620.18987 104.325162 
L 621.017606 59.045791 
L 621.845341 64.18658 
L 622.673076 81.764764 
L 623.500811 65.182866 
L 624.328547 90.053727 
L 625.156282 66.37165 
L 625.984017 65.994468 
L 626.811753 60.074386 
L 627.639488 60.556352 
L 628.467223 51.806817 
L 629.294959 55.54506 
L 630.122694 54.909016 
L 630.950429 49.222123 
L 631.778165 81.729705 
L 632.6059 81.729705 
L 633.433635 91.110045 
L 634.26137 80.457005 
L 635.089106 68.121994 
L 635.916841 67.472415 
L 636.744576 67.185959 
L 637.572312 78.830832 
L 638.400047 88.31229 
L 639.227782 54.950974 
L 640.055518 79.005822 
L 640.883253 85.125214 
L 641.710988 80.063276 
L 642.538723 71.268159 
L 643.366459 80.505905 
L 644.194194 92.542236 
L 645.021929 66.384224 
L 645.849665 80.799477 
L 646.6774 80.261843 
L 647.505135 86.110367 
L 648.332871 70.699265 
L 649.160606 87.80989 
L 649.988341 68.387318 
L 650.816076 65.895315 
L 651.643812 81.119158 
L 652.471547 101.107001 
L 653.299282 106.863707 
L 654.127018 79.112441 
L 654.954753 83.236031 
L 655.782488 83.236031 
L 656.610224 67.393477 
L 657.437959 62.527923 
L 658.265694 61.174539 
L 659.09343 100.758242 
L 659.921165 92.221507 
L 660.7489 90.593019 
L 661.576635 111.731487 
L 662.404371 98.410319 
L 663.232106 82.800912 
L 664.059841 63.972164 
L 664.887577 64.38279 
L 665.715312 62.168904 
L 666.543047 58.641103 
L 667.370783 84.6725 
L 668.198518 88.108527 
L 669.026253 59.605124 
L 669.853988 55.541087 
L 670.681724 93.419329 
L 671.509459 96.773143 
L 672.337194 61.366296 
L 673.16493 89.693398 
L 673.992665 79.05625 
L 674.8204 78.274075 
L 675.648136 83.829026 
L 676.475871 87.18917 
L 677.303606 88.247323 
L 678.131341 64.705221 
L 679.786812 99.468253 
L 680.614547 103.428248 
L 681.442283 58.349408 
L 682.270018 92.55433 
L 683.925489 69.980004 
L 684.753224 72.323997 
L 685.580959 69.723237 
L 686.408695 72.204455 
L 687.23643 79.525337 
L 688.064165 89.435234 
L 688.8919 90.200076 
L 689.719636 74.966322 
L 690.547371 86.596612 
L 691.375106 88.72846 
L 692.202842 89.870353 
L 693.030577 67.74145 
L 694.686048 96.260396 
L 695.513783 101.142191 
L 696.341518 72.302386 
L 697.169253 82.484287 
L 697.996989 82.373346 
L 698.824724 76.327085 
L 699.652459 65.588558 
L 700.480195 60.508806 
L 701.30793 81.171551 
L 702.135665 75.636072 
L 702.963401 77.713126 
L 703.791136 70.084177 
L 704.618871 68.645962 
L 705.446607 64.625279 
L 706.274342 66.942727 
L 707.102077 66.655399 
L 707.929812 82.279127 
L 708.757548 66.132915 
L 709.585283 97.853693 
L 710.413018 99.404858 
L 711.240754 105.337602 
L 712.068489 98.534838 
L 712.896224 104.452301 
L 713.72396 53.499703 
L 714.551695 57.927649 
L 715.37943 86.447512 
L 716.207165 86.208646 
L 717.034901 88.278671 
L 717.862636 80.204517 
L 718.690371 84.784183 
L 719.518107 73.37464 
L 720.345842 76.759191 
L 721.173577 87.493396 
L 722.001313 64.451773 
L 722.829048 66.455696 
L 723.656783 74.440783 
L 724.484518 80.150248 
L 725.312254 58.321597 
L 726.139989 61.191916 
L 726.967724 89.406986 
L 727.79546 90.619565 
L 728.623195 91.133054 
L 729.45093 93.807993 
L 730.278666 76.043904 
L 731.106401 78.928936 
L 731.934136 78.790708 
L 732.761872 64.611046 
L 733.589607 65.347247 
L 734.417342 66.802141 
L 735.245077 49.891393 
L 736.072813 106.830787 
L 736.900548 108.256516 
L 737.728283 65.456267 
L 738.556019 78.864887 
L 739.383754 103.286133 
L 740.211489 94.664173 
L 741.039225 60.849663 
L 741.86696 63.466097 
L 742.694695 68.413252 
L 743.52243 50.742901 
L 744.350166 75.599659 
L 745.177901 88.879394 
L 746.005636 88.533604 
L 746.833372 94.080259 
L 747.661107 92.649553 
L 748.488842 81.143346 
L 749.316578 52.280662 
L 750.144313 53.980185 
L 750.972048 62.021376 
L 751.799783 60.480514 
L 752.627519 56.4053 
L 753.455254 61.357869 
L 754.282989 63.449331 
L 755.110725 81.367673 
L 755.93846 90.407463 
L 756.766195 94.825149 
L 757.593931 71.221966 
L 758.421666 96.202502 
L 759.249401 93.57655 
L 760.077137 77.2357 
L 760.904872 74.928032 
L 761.732607 83.014018 
L 762.560342 54.15522 
L 763.388078 54.552223 
L 764.215813 82.771615 
L 765.043548 70.583521 
L 765.871284 73.547841 
L 766.699019 86.740604 
L 767.526754 95.10296 
L 768.35449 93.302319 
L 769.182225 96.661154 
L 770.837695 91.093236 
L 771.665431 69.352779 
L 772.493166 98.934636 
L 773.320901 56.120111 
L 774.148637 75.588613 
L 774.976372 74.733962 
L 775.804107 93.512544 
L 776.631843 93.10969 
L 777.459578 90.150784 
L 778.287313 73.798801 
L 779.115048 73.229557 
L 779.942784 67.483679 
L 780.770519 94.651293 
L 781.598254 81.737651 
L 782.42599 63.793157 
L 783.253725 70.312085 
L 784.08146 88.35822 
L 784.909196 80.476827 
L 785.736931 86.441661 
L 786.564666 74.471476 
L 787.392402 74.605338 
L 789.047872 90.565601 
L 789.875607 87.530071 
L 790.703343 89.419036 
L 791.531078 83.247208 
L 792.358813 72.452315 
L 793.186549 87.144681 
L 794.014284 63.639778 
L 794.842019 68.598546 
L 795.669755 87.782646 
L 796.49749 92.07459 
L 797.325225 95.622998 
L 798.15296 92.840087 
L 798.980696 90.548136 
L 799.808431 66.065809 
L 800.636166 63.207715 
L 801.463902 65.234865 
L 802.291637 69.350378 
L 803.119372 77.068612 
L 803.947108 76.745133 
L 804.774843 102.671133 
L 805.602578 104.224045 
L 806.430313 112.271085 
L 807.258049 106.624011 
L 808.085784 102.173886 
L 808.913519 104.827082 
L 809.741255 97.572913 
L 810.56899 73.108967 
L 811.396725 77.503426 
L 812.224461 61.175238 
L 813.052196 54.841037 
L 813.879931 61.805868 
L 814.707667 67.408278 
L 815.535402 71.053437 
L 816.363137 75.849091 
L 817.190872 61.876118 
L 818.018608 64.501328 
L 818.846343 46.620228 
L 819.674078 40.09999 
L 820.501814 105.319483 
L 821.329549 101.599446 
L 822.157284 70.39063 
L 823.812755 67.87003 
L 824.64049 86.161275 
L 825.468225 80.158106 
L 826.295961 87.287799 
L 827.123696 69.682982 
L 827.951431 69.050038 
L 828.779167 96.404169 
L 829.606902 103.803639 
L 830.434637 105.848385 
L 831.262373 83.971227 
L 832.090108 83.140807 
L 832.917843 92.834979 
L 833.745578 78.925618 
L 834.573314 87.403499 
L 835.401049 103.325995 
L 836.228784 69.759475 
L 837.05652 86.836089 
L 837.884255 67.322965 
L 838.71199 64.018968 
L 839.539726 92.548043 
L 840.367461 68.071697 
L 841.195196 107.931333 
L 842.022932 102.872801 
L 842.850667 100.02322 
L 843.678402 100.447075 
L 844.506137 102.596736 
L 845.333873 75.399127 
L 846.161608 75.125857 
L 846.989343 91.256133 
L 847.817079 85.016194 
L 848.644814 83.986814 
L 849.472549 81.160941 
L 850.300285 64.012899 
L 851.12802 96.070735 
L 851.955755 91.38886 
L 852.78349 68.649935 
L 853.611226 69.314707 
L 854.438961 95.393694 
L 855.266696 97.846358 
L 856.094432 94.37763 
L 856.922167 93.003682 
L 858.577638 70.222144 
L 859.405373 110.13295 
L 860.233108 120.658415 
L 861.060843 117.39131 
L 861.888579 71.259514 
L 862.716314 86.733444 
L 863.544049 79.668106 
L 864.371785 70.155213 
L 865.19952 74.530898 
L 865.19952 74.530898 
" style="fill:none;stroke:#1f77b4;stroke-dasharray:1.071429,1.767857;stroke-dashoffset:0;stroke-opacity:0.35;stroke-width:1.071429;"/>
   </g>
   <g id="patch_8">
    <path d="M 452.159604 129.31827 
L 452.159604 21.132143 
" style="fill:none;stroke:#000000;stroke-linecap:square;stroke-linejoin:miter;stroke-width:0.8;"/>
   </g>
   <g id="patch_9">
    <path d="M 865.19952 129.31827 
L 865.19952 21.132143 
" style="fill:none;stroke:#000000;stroke-linecap:square;stroke-linejoin:miter;stroke-width:0.8;"/>
   </g>
   <g id="patch_10">
    <path d="M 452.159604 129.31827 
L 865.19952 129.31827 
" style="fill:none;stroke:#000000;stroke-linecap:square;stroke-linejoin:miter;stroke-width:0.8;"/>
   </g>
   <g id="patch_11">
    <path d="M 452.159604 21.132143 
L 865.19952 21.132143 
" style="fill:none;stroke:#000000;stroke-linecap:square;stroke-linejoin:miter;stroke-width:0.8;"/>
   </g>
   <g id="text_16">
    <!-- lbda -->
    <g transform="translate(648.656348 15.132143)scale(0.114286 -0.114286)">
     <use xlink:href="#LMSans10-Regular-6c"/>
     <use x="23.899994" xlink:href="#LMSans10-Regular-62"/>
     <use x="75.599991" xlink:href="#LMSans10-Regular-64"/>
     <use x="127.299988" xlink:href="#LMSans10-Regular-61"/>
    </g>
   </g>
  </g>
 </g>
 <defs>
  <clipPath id="p006202baf4">
   <rect height="108.186127" width="413.039916" x="10.7" y="21.132143"/>
  </clipPath>
  <clipPath id="pf0c39bf3f3">
   <rect height="108.186127" width="413.039916" x="452.159604" y="21.132143"/>
  </clipPath>
 </defs>
</svg>
