<?xml version="1.0" encoding="utf-8" standalone="no"?>
<!DOCTYPE svg PUBLIC "-//W3C//DTD SVG 1.1//EN"
  "http://www.w3.org/Graphics/SVG/1.1/DTD/svg11.dtd">
<svg height="339.258pt" version="1.1" viewBox="0 0 405.482257 339.258" width="405.482257pt" xmlns="http://www.w3.org/2000/svg" xmlns:xlink="http://www.w3.org/1999/xlink">
 <metadata>
  <rdf:RDF xmlns:cc="http://creativecommons.org/ns#" xmlns:dc="http://purl.org/dc/elements/1.1/" xmlns:rdf="http://www.w3.org/1999/02/22-rdf-syntax-ns#">
   <cc:Work>
    <dc:type rdf:resource="http://purl.org/dc/dcmitype/StillImage"/>
    <dc:date>2021-05-27T07:37:12.948017</dc:date>
    <dc:format>image/svg+xml</dc:format>
    <dc:creator>
     <cc:Agent>
      <dc:title>Matplotlib v3.4.2, https://matplotlib.org/</dc:title>
     </cc:Agent>
    </dc:creator>
   </cc:Work>
  </rdf:RDF>
 </metadata>
 <defs>
  <style type="text/css">*{stroke-linecap:butt;stroke-linejoin:round;}</style>
 </defs>
 <g id="figure_1">
  <g id="patch_1">
   <path d="M 0 339.258 
L 405.482257 339.258 
L 405.482257 0 
L 0 0 
z
" style="fill:#ffffff;"/>
  </g>
  <g id="axes_1">
   <g id="patch_2">
    <path d="M 38.2 292.638 
L 395.32 292.638 
L 395.32 26.526 
L 38.2 26.526 
z
" style="fill:#ffffff;"/>
   </g>
   <g id="PolyCollection_1">
    <defs>
     <path d="M 54.432727 -300.636 
L 54.432727 -261.545268 
L 55.556099 -261.545268 
L 56.679472 -261.545268 
L 57.802844 -261.545268 
L 58.926216 -261.545268 
L 60.049588 -261.545268 
L 61.17296 -261.545268 
L 62.296332 -261.545268 
L 63.419704 -261.545268 
L 64.543076 -261.545268 
L 65.666449 -58.716 
L 66.789821 -58.716 
L 67.913193 -58.716 
L 69.036565 -58.716 
L 70.159937 -58.716 
L 71.283309 -58.716 
L 72.406681 -58.716 
L 73.530053 -58.716 
L 74.653426 -58.716 
L 75.776798 -58.716 
L 76.90017 -59.453561 
L 78.023542 -59.453561 
L 79.146914 -59.453561 
L 80.270286 -59.453561 
L 81.393658 -59.453561 
L 82.517031 -59.453561 
L 83.640403 -59.453561 
L 84.763775 -59.453561 
L 85.887147 -59.453561 
L 87.010519 -59.453561 
L 88.133891 -63.878927 
L 89.257263 -63.878927 
L 90.380635 -63.878927 
L 91.504008 -63.878927 
L 92.62738 -63.878927 
L 93.750752 -63.878927 
L 94.874124 -63.878927 
L 95.997496 -63.878927 
L 97.120868 -63.878927 
L 98.24424 -63.878927 
L 99.367612 -71.992098 
L 100.490985 -71.992098 
L 101.614357 -71.992098 
L 102.737729 -71.992098 
L 103.861101 -71.992098 
L 104.984473 -71.992098 
L 106.107845 -71.992098 
L 107.231217 -71.992098 
L 108.354589 -71.992098 
L 109.477962 -71.992098 
L 110.601334 -84.530634 
L 111.724706 -84.530634 
L 112.848078 -84.530634 
L 113.97145 -84.530634 
L 115.094822 -84.530634 
L 116.218194 -84.530634 
L 117.341567 -84.530634 
L 118.464939 -84.530634 
L 119.588311 -84.530634 
L 120.711683 -84.530634 
L 121.835055 -99.281854 
L 122.958427 -99.281854 
L 124.081799 -99.281854 
L 125.205171 -99.281854 
L 126.328544 -99.281854 
L 127.451916 -99.281854 
L 128.575288 -99.281854 
L 129.69866 -99.281854 
L 130.822032 -99.281854 
L 131.945404 -99.281854 
L 133.068776 -113.295512 
L 134.192148 -113.295512 
L 135.315521 -113.295512 
L 136.438893 -113.295512 
L 137.562265 -113.295512 
L 138.685637 -113.295512 
L 139.809009 -113.295512 
L 140.932381 -113.295512 
L 142.055753 -113.295512 
L 143.179126 -113.295512 
L 144.302498 -119.933561 
L 145.42587 -119.933561 
L 146.549242 -119.933561 
L 147.672614 -119.933561 
L 148.795986 -119.933561 
L 149.919358 -119.933561 
L 151.04273 -119.933561 
L 152.166103 -119.933561 
L 153.289475 -119.933561 
L 154.412847 -119.933561 
L 155.536219 -120.671122 
L 156.659591 -120.671122 
L 157.782963 -120.671122 
L 158.906335 -120.671122 
L 160.029707 -120.671122 
L 161.15308 -120.671122 
L 162.276452 -120.671122 
L 163.399824 -120.671122 
L 164.523196 -120.671122 
L 165.646568 -120.671122 
L 166.76994 -114.033073 
L 167.893312 -114.033073 
L 169.016684 -114.033073 
L 170.140057 -114.033073 
L 171.263429 -114.033073 
L 172.386801 -114.033073 
L 173.510173 -114.033073 
L 174.633545 -114.033073 
L 175.756917 -114.033073 
L 176.880289 -114.033073 
L 178.003662 -102.969659 
L 179.127034 -102.969659 
L 180.250406 -102.969659 
L 181.373778 -102.969659 
L 182.49715 -102.969659 
L 183.620522 -102.969659 
L 184.743894 -102.969659 
L 185.867266 -102.969659 
L 186.990639 -102.969659 
L 188.114011 -102.969659 
L 189.237383 -91.168683 
L 190.360755 -91.168683 
L 191.484127 -91.168683 
L 192.607499 -91.168683 
L 193.730871 -91.168683 
L 194.854243 -91.168683 
L 195.977616 -91.168683 
L 197.100988 -91.168683 
L 198.22436 -91.168683 
L 199.347732 -91.168683 
L 200.471104 -80.105268 
L 201.594476 -80.105268 
L 202.717848 -80.105268 
L 203.841221 -80.105268 
L 204.964593 -80.105268 
L 206.087965 -80.105268 
L 207.211337 -80.105268 
L 208.334709 -80.105268 
L 209.458081 -80.105268 
L 210.581453 -80.105268 
L 211.704825 -71.254537 
L 212.828198 -71.254537 
L 213.95157 -71.254537 
L 215.074942 -71.254537 
L 216.198314 -71.254537 
L 217.321686 -71.254537 
L 218.445058 -71.254537 
L 219.56843 -71.254537 
L 220.691802 -71.254537 
L 221.815175 -71.254537 
L 222.938547 -58.716 
L 224.061919 -58.716 
L 225.185291 -58.716 
L 226.308663 -58.716 
L 227.432035 -58.716 
L 228.555407 -58.716 
L 229.678779 -58.716 
L 230.802152 -58.716 
L 231.925524 -58.716 
L 233.048896 -58.716 
L 234.172268 -58.716 
L 235.29564 -58.716 
L 236.419012 -58.716 
L 237.542384 -58.716 
L 238.665757 -58.716 
L 239.789129 -58.716 
L 240.912501 -58.716 
L 242.035873 -58.716 
L 243.159245 -58.716 
L 244.282617 -58.716 
L 245.405989 -58.716 
L 246.529361 -58.716 
L 247.652734 -58.716 
L 248.776106 -58.716 
L 249.899478 -58.716 
L 251.02285 -58.716 
L 252.146222 -58.716 
L 253.269594 -58.716 
L 254.392966 -58.716 
L 255.516338 -58.716 
L 256.639711 -58.716 
L 257.763083 -58.716 
L 258.886455 -58.716 
L 260.009827 -58.716 
L 261.133199 -58.716 
L 262.256571 -58.716 
L 263.379943 -58.716 
L 264.503316 -58.716 
L 265.626688 -58.716 
L 266.75006 -58.716 
L 267.873432 -58.716 
L 268.996804 -58.716 
L 270.120176 -58.716 
L 271.243548 -58.716 
L 272.36692 -58.716 
L 273.490293 -58.716 
L 274.613665 -58.716 
L 275.737037 -58.716 
L 276.860409 -58.716 
L 277.983781 -58.716 
L 279.107153 -58.716 
L 280.230525 -58.716 
L 281.353897 -58.716 
L 282.47727 -58.716 
L 283.600642 -58.716 
L 284.724014 -58.716 
L 285.847386 -58.716 
L 286.970758 -58.716 
L 288.09413 -58.716 
L 289.217502 -58.716 
L 290.340874 -58.716 
L 291.464247 -58.716 
L 292.587619 -58.716 
L 293.710991 -58.716 
L 294.834363 -58.716 
L 295.957735 -58.716 
L 297.081107 -58.716 
L 298.204479 -58.716 
L 299.327852 -58.716 
L 300.451224 -58.716 
L 301.574596 -58.716 
L 302.697968 -58.716 
L 303.82134 -58.716 
L 304.944712 -58.716 
L 306.068084 -58.716 
L 307.191456 -58.716 
L 308.314829 -58.716 
L 309.438201 -58.716 
L 310.561573 -58.716 
L 311.684945 -58.716 
L 312.808317 -58.716 
L 313.931689 -58.716 
L 315.055061 -58.716 
L 316.178433 -58.716 
L 317.301806 -58.716 
L 318.425178 -58.716 
L 319.54855 -58.716 
L 320.671922 -58.716 
L 321.795294 -58.716 
L 322.918666 -58.716 
L 324.042038 -58.716 
L 325.165411 -58.716 
L 326.288783 -58.716 
L 327.412155 -58.716 
L 328.535527 -58.716 
L 329.658899 -58.716 
L 330.782271 -58.716 
L 331.905643 -58.716 
L 333.029015 -58.716 
L 334.152388 -58.716 
L 335.27576 -58.716 
L 336.399132 -58.716 
L 337.522504 -58.716 
L 338.645876 -58.716 
L 339.769248 -58.716 
L 340.89262 -58.716 
L 342.015992 -58.716 
L 343.139365 -58.716 
L 344.262737 -58.716 
L 345.386109 -58.716 
L 346.509481 -58.716 
L 347.632853 -58.716 
L 348.756225 -58.716 
L 349.879597 -58.716 
L 351.002969 -58.716 
L 352.126342 -58.716 
L 353.249714 -58.716 
L 354.373086 -58.716 
L 355.496458 -58.716 
L 356.61983 -58.716 
L 357.743202 -58.716 
L 358.866574 -58.716 
L 359.989947 -58.716 
L 361.113319 -58.716 
L 362.236691 -58.716 
L 363.360063 -58.716 
L 364.483435 -58.716 
L 365.606807 -58.716 
L 366.730179 -58.716 
L 367.853551 -58.716 
L 368.976924 -58.716 
L 370.100296 -58.716 
L 371.223668 -58.716 
L 372.34704 -58.716 
L 373.470412 -58.716 
L 374.593784 -58.716 
L 375.717156 -58.716 
L 376.840528 -58.716 
L 377.963901 -58.716 
L 379.087273 -58.716 
L 379.087273 -58.716 
L 379.087273 -58.716 
L 377.963901 -58.716 
L 376.840528 -58.716 
L 375.717156 -58.716 
L 374.593784 -58.716 
L 373.470412 -58.716 
L 372.34704 -58.716 
L 371.223668 -58.716 
L 370.100296 -58.716 
L 368.976924 -58.716 
L 367.853551 -58.716 
L 366.730179 -58.716 
L 365.606807 -58.716 
L 364.483435 -58.716 
L 363.360063 -58.716 
L 362.236691 -58.716 
L 361.113319 -58.716 
L 359.989947 -58.716 
L 358.866574 -58.716 
L 357.743202 -58.716 
L 356.61983 -58.716 
L 355.496458 -58.716 
L 354.373086 -58.716 
L 353.249714 -58.716 
L 352.126342 -58.716 
L 351.002969 -58.716 
L 349.879597 -58.716 
L 348.756225 -58.716 
L 347.632853 -58.716 
L 346.509481 -58.716 
L 345.386109 -58.716 
L 344.262737 -58.716 
L 343.139365 -58.716 
L 342.015992 -58.716 
L 340.89262 -58.716 
L 339.769248 -58.716 
L 338.645876 -58.716 
L 337.522504 -58.716 
L 336.399132 -58.716 
L 335.27576 -58.716 
L 334.152388 -58.716 
L 333.029015 -58.716 
L 331.905643 -58.716 
L 330.782271 -58.716 
L 329.658899 -58.716 
L 328.535527 -58.716 
L 327.412155 -58.716 
L 326.288783 -58.716 
L 325.165411 -58.716 
L 324.042038 -58.716 
L 322.918666 -58.716 
L 321.795294 -58.716 
L 320.671922 -58.716 
L 319.54855 -58.716 
L 318.425178 -58.716 
L 317.301806 -58.716 
L 316.178433 -58.716 
L 315.055061 -58.716 
L 313.931689 -58.716 
L 312.808317 -58.716 
L 311.684945 -58.716 
L 310.561573 -58.716 
L 309.438201 -58.716 
L 308.314829 -58.716 
L 307.191456 -58.716 
L 306.068084 -58.716 
L 304.944712 -58.716 
L 303.82134 -58.716 
L 302.697968 -58.716 
L 301.574596 -58.716 
L 300.451224 -58.716 
L 299.327852 -58.716 
L 298.204479 -58.716 
L 297.081107 -58.716 
L 295.957735 -58.716 
L 294.834363 -58.716 
L 293.710991 -58.716 
L 292.587619 -58.716 
L 291.464247 -58.716 
L 290.340874 -58.716 
L 289.217502 -58.716 
L 288.09413 -58.716 
L 286.970758 -58.716 
L 285.847386 -58.716 
L 284.724014 -58.716 
L 283.600642 -58.716 
L 282.47727 -58.716 
L 281.353897 -58.716 
L 280.230525 -58.716 
L 279.107153 -58.716 
L 277.983781 -58.716 
L 276.860409 -58.716 
L 275.737037 -58.716 
L 274.613665 -58.716 
L 273.490293 -58.716 
L 272.36692 -58.716 
L 271.243548 -58.716 
L 270.120176 -58.716 
L 268.996804 -58.716 
L 267.873432 -58.716 
L 266.75006 -58.716 
L 265.626688 -58.716 
L 264.503316 -58.716 
L 263.379943 -58.716 
L 262.256571 -58.716 
L 261.133199 -58.716 
L 260.009827 -58.716 
L 258.886455 -58.716 
L 257.763083 -58.716 
L 256.639711 -58.716 
L 255.516338 -58.716 
L 254.392966 -58.716 
L 253.269594 -58.716 
L 252.146222 -58.716 
L 251.02285 -58.716 
L 249.899478 -58.716 
L 248.776106 -58.716 
L 247.652734 -58.716 
L 246.529361 -58.716 
L 245.405989 -58.716 
L 244.282617 -58.716 
L 243.159245 -58.716 
L 242.035873 -58.716 
L 240.912501 -58.716 
L 239.789129 -58.716 
L 238.665757 -58.716 
L 237.542384 -58.716 
L 236.419012 -58.716 
L 235.29564 -58.716 
L 234.172268 -58.716 
L 233.048896 -58.716 
L 231.925524 -58.716 
L 230.802152 -58.716 
L 229.678779 -58.716 
L 228.555407 -58.716 
L 227.432035 -58.716 
L 226.308663 -58.716 
L 225.185291 -58.716 
L 224.061919 -58.716 
L 222.938547 -58.716 
L 221.815175 -81.58039 
L 220.691802 -81.58039 
L 219.56843 -81.58039 
L 218.445058 -81.58039 
L 217.321686 -81.58039 
L 216.198314 -81.58039 
L 215.074942 -81.58039 
L 213.95157 -81.58039 
L 212.828198 -81.58039 
L 211.704825 -81.58039 
L 210.581453 -91.906244 
L 209.458081 -91.906244 
L 208.334709 -91.906244 
L 207.211337 -91.906244 
L 206.087965 -91.906244 
L 204.964593 -91.906244 
L 203.841221 -91.906244 
L 202.717848 -91.906244 
L 201.594476 -91.906244 
L 200.471104 -91.906244 
L 199.347732 -105.919902 
L 198.22436 -105.919902 
L 197.100988 -105.919902 
L 195.977616 -105.919902 
L 194.854243 -105.919902 
L 193.730871 -105.919902 
L 192.607499 -105.919902 
L 191.484127 -105.919902 
L 190.360755 -105.919902 
L 189.237383 -105.919902 
L 188.114011 -119.196 
L 186.990639 -119.196 
L 185.867266 -119.196 
L 184.743894 -119.196 
L 183.620522 -119.196 
L 182.49715 -119.196 
L 181.373778 -119.196 
L 180.250406 -119.196 
L 179.127034 -119.196 
L 178.003662 -119.196 
L 176.880289 -131.734537 
L 175.756917 -131.734537 
L 174.633545 -131.734537 
L 173.510173 -131.734537 
L 172.386801 -131.734537 
L 171.263429 -131.734537 
L 170.140057 -131.734537 
L 169.016684 -131.734537 
L 167.893312 -131.734537 
L 166.76994 -131.734537 
L 165.646568 -138.372585 
L 164.523196 -138.372585 
L 163.399824 -138.372585 
L 162.276452 -138.372585 
L 161.15308 -138.372585 
L 160.029707 -138.372585 
L 158.906335 -138.372585 
L 157.782963 -138.372585 
L 156.659591 -138.372585 
L 155.536219 -138.372585 
L 154.412847 -138.372585 
L 153.289475 -138.372585 
L 152.166103 -138.372585 
L 151.04273 -138.372585 
L 149.919358 -138.372585 
L 148.795986 -138.372585 
L 147.672614 -138.372585 
L 146.549242 -138.372585 
L 145.42587 -138.372585 
L 144.302498 -138.372585 
L 143.179126 -130.259415 
L 142.055753 -130.259415 
L 140.932381 -130.259415 
L 139.809009 -130.259415 
L 138.685637 -130.259415 
L 137.562265 -130.259415 
L 136.438893 -130.259415 
L 135.315521 -130.259415 
L 134.192148 -130.259415 
L 133.068776 -130.259415 
L 131.945404 -115.508195 
L 130.822032 -115.508195 
L 129.69866 -115.508195 
L 128.575288 -115.508195 
L 127.451916 -115.508195 
L 126.328544 -115.508195 
L 125.205171 -115.508195 
L 124.081799 -115.508195 
L 122.958427 -115.508195 
L 121.835055 -115.508195 
L 120.711683 -97.806732 
L 119.588311 -97.806732 
L 118.464939 -97.806732 
L 117.341567 -97.806732 
L 116.218194 -97.806732 
L 115.094822 -97.806732 
L 113.97145 -97.806732 
L 112.848078 -97.806732 
L 111.724706 -97.806732 
L 110.601334 -97.806732 
L 109.477962 -81.58039 
L 108.354589 -81.58039 
L 107.231217 -81.58039 
L 106.107845 -81.58039 
L 104.984473 -81.58039 
L 103.861101 -81.58039 
L 102.737729 -81.58039 
L 101.614357 -81.58039 
L 100.490985 -81.58039 
L 99.367612 -81.58039 
L 98.24424 -69.779415 
L 97.120868 -69.779415 
L 95.997496 -69.779415 
L 94.874124 -69.779415 
L 93.750752 -69.779415 
L 92.62738 -69.779415 
L 91.504008 -69.779415 
L 90.380635 -69.779415 
L 89.257263 -69.779415 
L 88.133891 -69.779415 
L 87.010519 -63.141366 
L 85.887147 -63.141366 
L 84.763775 -63.141366 
L 83.640403 -63.141366 
L 82.517031 -63.141366 
L 81.393658 -63.141366 
L 80.270286 -63.141366 
L 79.146914 -63.141366 
L 78.023542 -63.141366 
L 76.90017 -63.141366 
L 75.776798 -60.191122 
L 74.653426 -60.191122 
L 73.530053 -60.191122 
L 72.406681 -60.191122 
L 71.283309 -60.191122 
L 70.159937 -60.191122 
L 69.036565 -60.191122 
L 67.913193 -60.191122 
L 66.789821 -60.191122 
L 65.666449 -60.191122 
L 64.543076 -300.636 
L 63.419704 -300.636 
L 62.296332 -300.636 
L 61.17296 -300.636 
L 60.049588 -300.636 
L 58.926216 -300.636 
L 57.802844 -300.636 
L 56.679472 -300.636 
L 55.556099 -300.636 
L 54.432727 -300.636 
z
" id="m4889655395" style="stroke:#dcbcbc;"/>
    </defs>
    <g clip-path="url(#p66b6ae95ea)">
     <use style="fill:#dcbcbc;stroke:#dcbcbc;" x="0" xlink:href="#m4889655395" y="339.258"/>
    </g>
   </g>
   <g id="PolyCollection_2">
    <defs>
     <path d="M 54.432727 -293.26039 
L 54.432727 -268.183317 
L 55.556099 -268.183317 
L 56.679472 -268.183317 
L 57.802844 -268.183317 
L 58.926216 -268.183317 
L 60.049588 -268.183317 
L 61.17296 -268.183317 
L 62.296332 -268.183317 
L 63.419704 -268.183317 
L 64.543076 -268.183317 
L 65.666449 -58.716 
L 66.789821 -58.716 
L 67.913193 -58.716 
L 69.036565 -58.716 
L 70.159937 -58.716 
L 71.283309 -58.716 
L 72.406681 -58.716 
L 73.530053 -58.716 
L 74.653426 -58.716 
L 75.776798 -58.716 
L 76.90017 -60.191122 
L 78.023542 -60.191122 
L 79.146914 -60.191122 
L 80.270286 -60.191122 
L 81.393658 -60.191122 
L 82.517031 -60.191122 
L 83.640403 -60.191122 
L 84.763775 -60.191122 
L 85.887147 -60.191122 
L 87.010519 -60.191122 
L 88.133891 -64.616488 
L 89.257263 -64.616488 
L 90.380635 -64.616488 
L 91.504008 -64.616488 
L 92.62738 -64.616488 
L 93.750752 -64.616488 
L 94.874124 -64.616488 
L 95.997496 -64.616488 
L 97.120868 -64.616488 
L 98.24424 -64.616488 
L 99.367612 -73.46722 
L 100.490985 -73.46722 
L 101.614357 -73.46722 
L 102.737729 -73.46722 
L 103.861101 -73.46722 
L 104.984473 -73.46722 
L 106.107845 -73.46722 
L 107.231217 -73.46722 
L 108.354589 -73.46722 
L 109.477962 -73.46722 
L 110.601334 -86.743317 
L 111.724706 -86.743317 
L 112.848078 -86.743317 
L 113.97145 -86.743317 
L 115.094822 -86.743317 
L 116.218194 -86.743317 
L 117.341567 -86.743317 
L 118.464939 -86.743317 
L 119.588311 -86.743317 
L 120.711683 -86.743317 
L 121.835055 -102.232098 
L 122.958427 -102.232098 
L 124.081799 -102.232098 
L 125.205171 -102.232098 
L 126.328544 -102.232098 
L 127.451916 -102.232098 
L 128.575288 -102.232098 
L 129.69866 -102.232098 
L 130.822032 -102.232098 
L 131.945404 -102.232098 
L 133.068776 -115.508195 
L 134.192148 -115.508195 
L 135.315521 -115.508195 
L 136.438893 -115.508195 
L 137.562265 -115.508195 
L 138.685637 -115.508195 
L 139.809009 -115.508195 
L 140.932381 -115.508195 
L 142.055753 -115.508195 
L 143.179126 -115.508195 
L 144.302498 -123.621366 
L 145.42587 -123.621366 
L 146.549242 -123.621366 
L 147.672614 -123.621366 
L 148.795986 -123.621366 
L 149.919358 -123.621366 
L 151.04273 -123.621366 
L 152.166103 -123.621366 
L 153.289475 -123.621366 
L 154.412847 -123.621366 
L 155.536219 -123.621366 
L 156.659591 -123.621366 
L 157.782963 -123.621366 
L 158.906335 -123.621366 
L 160.029707 -123.621366 
L 161.15308 -123.621366 
L 162.276452 -123.621366 
L 163.399824 -123.621366 
L 164.523196 -123.621366 
L 165.646568 -123.621366 
L 166.76994 -116.983317 
L 167.893312 -116.983317 
L 169.016684 -116.983317 
L 170.140057 -116.983317 
L 171.263429 -116.983317 
L 172.386801 -116.983317 
L 173.510173 -116.983317 
L 174.633545 -116.983317 
L 175.756917 -116.983317 
L 176.880289 -116.983317 
L 178.003662 -105.919902 
L 179.127034 -105.919902 
L 180.250406 -105.919902 
L 181.373778 -105.919902 
L 182.49715 -105.919902 
L 183.620522 -105.919902 
L 184.743894 -105.919902 
L 185.867266 -105.919902 
L 186.990639 -105.919902 
L 188.114011 -105.919902 
L 189.237383 -93.381366 
L 190.360755 -93.381366 
L 191.484127 -93.381366 
L 192.607499 -93.381366 
L 193.730871 -93.381366 
L 194.854243 -93.381366 
L 195.977616 -93.381366 
L 197.100988 -93.381366 
L 198.22436 -93.381366 
L 199.347732 -93.381366 
L 200.471104 -81.58039 
L 201.594476 -81.58039 
L 202.717848 -81.58039 
L 203.841221 -81.58039 
L 204.964593 -81.58039 
L 206.087965 -81.58039 
L 207.211337 -81.58039 
L 208.334709 -81.58039 
L 209.458081 -81.58039 
L 210.581453 -81.58039 
L 211.704825 -72.729659 
L 212.828198 -72.729659 
L 213.95157 -72.729659 
L 215.074942 -72.729659 
L 216.198314 -72.729659 
L 217.321686 -72.729659 
L 218.445058 -72.729659 
L 219.56843 -72.729659 
L 220.691802 -72.729659 
L 221.815175 -72.729659 
L 222.938547 -58.716 
L 224.061919 -58.716 
L 225.185291 -58.716 
L 226.308663 -58.716 
L 227.432035 -58.716 
L 228.555407 -58.716 
L 229.678779 -58.716 
L 230.802152 -58.716 
L 231.925524 -58.716 
L 233.048896 -58.716 
L 234.172268 -58.716 
L 235.29564 -58.716 
L 236.419012 -58.716 
L 237.542384 -58.716 
L 238.665757 -58.716 
L 239.789129 -58.716 
L 240.912501 -58.716 
L 242.035873 -58.716 
L 243.159245 -58.716 
L 244.282617 -58.716 
L 245.405989 -58.716 
L 246.529361 -58.716 
L 247.652734 -58.716 
L 248.776106 -58.716 
L 249.899478 -58.716 
L 251.02285 -58.716 
L 252.146222 -58.716 
L 253.269594 -58.716 
L 254.392966 -58.716 
L 255.516338 -58.716 
L 256.639711 -58.716 
L 257.763083 -58.716 
L 258.886455 -58.716 
L 260.009827 -58.716 
L 261.133199 -58.716 
L 262.256571 -58.716 
L 263.379943 -58.716 
L 264.503316 -58.716 
L 265.626688 -58.716 
L 266.75006 -58.716 
L 267.873432 -58.716 
L 268.996804 -58.716 
L 270.120176 -58.716 
L 271.243548 -58.716 
L 272.36692 -58.716 
L 273.490293 -58.716 
L 274.613665 -58.716 
L 275.737037 -58.716 
L 276.860409 -58.716 
L 277.983781 -58.716 
L 279.107153 -58.716 
L 280.230525 -58.716 
L 281.353897 -58.716 
L 282.47727 -58.716 
L 283.600642 -58.716 
L 284.724014 -58.716 
L 285.847386 -58.716 
L 286.970758 -58.716 
L 288.09413 -58.716 
L 289.217502 -58.716 
L 290.340874 -58.716 
L 291.464247 -58.716 
L 292.587619 -58.716 
L 293.710991 -58.716 
L 294.834363 -58.716 
L 295.957735 -58.716 
L 297.081107 -58.716 
L 298.204479 -58.716 
L 299.327852 -58.716 
L 300.451224 -58.716 
L 301.574596 -58.716 
L 302.697968 -58.716 
L 303.82134 -58.716 
L 304.944712 -58.716 
L 306.068084 -58.716 
L 307.191456 -58.716 
L 308.314829 -58.716 
L 309.438201 -58.716 
L 310.561573 -58.716 
L 311.684945 -58.716 
L 312.808317 -58.716 
L 313.931689 -58.716 
L 315.055061 -58.716 
L 316.178433 -58.716 
L 317.301806 -58.716 
L 318.425178 -58.716 
L 319.54855 -58.716 
L 320.671922 -58.716 
L 321.795294 -58.716 
L 322.918666 -58.716 
L 324.042038 -58.716 
L 325.165411 -58.716 
L 326.288783 -58.716 
L 327.412155 -58.716 
L 328.535527 -58.716 
L 329.658899 -58.716 
L 330.782271 -58.716 
L 331.905643 -58.716 
L 333.029015 -58.716 
L 334.152388 -58.716 
L 335.27576 -58.716 
L 336.399132 -58.716 
L 337.522504 -58.716 
L 338.645876 -58.716 
L 339.769248 -58.716 
L 340.89262 -58.716 
L 342.015992 -58.716 
L 343.139365 -58.716 
L 344.262737 -58.716 
L 345.386109 -58.716 
L 346.509481 -58.716 
L 347.632853 -58.716 
L 348.756225 -58.716 
L 349.879597 -58.716 
L 351.002969 -58.716 
L 352.126342 -58.716 
L 353.249714 -58.716 
L 354.373086 -58.716 
L 355.496458 -58.716 
L 356.61983 -58.716 
L 357.743202 -58.716 
L 358.866574 -58.716 
L 359.989947 -58.716 
L 361.113319 -58.716 
L 362.236691 -58.716 
L 363.360063 -58.716 
L 364.483435 -58.716 
L 365.606807 -58.716 
L 366.730179 -58.716 
L 367.853551 -58.716 
L 368.976924 -58.716 
L 370.100296 -58.716 
L 371.223668 -58.716 
L 372.34704 -58.716 
L 373.470412 -58.716 
L 374.593784 -58.716 
L 375.717156 -58.716 
L 376.840528 -58.716 
L 377.963901 -58.716 
L 379.087273 -58.716 
L 379.087273 -58.716 
L 379.087273 -58.716 
L 377.963901 -58.716 
L 376.840528 -58.716 
L 375.717156 -58.716 
L 374.593784 -58.716 
L 373.470412 -58.716 
L 372.34704 -58.716 
L 371.223668 -58.716 
L 370.100296 -58.716 
L 368.976924 -58.716 
L 367.853551 -58.716 
L 366.730179 -58.716 
L 365.606807 -58.716 
L 364.483435 -58.716 
L 363.360063 -58.716 
L 362.236691 -58.716 
L 361.113319 -58.716 
L 359.989947 -58.716 
L 358.866574 -58.716 
L 357.743202 -58.716 
L 356.61983 -58.716 
L 355.496458 -58.716 
L 354.373086 -58.716 
L 353.249714 -58.716 
L 352.126342 -58.716 
L 351.002969 -58.716 
L 349.879597 -58.716 
L 348.756225 -58.716 
L 347.632853 -58.716 
L 346.509481 -58.716 
L 345.386109 -58.716 
L 344.262737 -58.716 
L 343.139365 -58.716 
L 342.015992 -58.716 
L 340.89262 -58.716 
L 339.769248 -58.716 
L 338.645876 -58.716 
L 337.522504 -58.716 
L 336.399132 -58.716 
L 335.27576 -58.716 
L 334.152388 -58.716 
L 333.029015 -58.716 
L 331.905643 -58.716 
L 330.782271 -58.716 
L 329.658899 -58.716 
L 328.535527 -58.716 
L 327.412155 -58.716 
L 326.288783 -58.716 
L 325.165411 -58.716 
L 324.042038 -58.716 
L 322.918666 -58.716 
L 321.795294 -58.716 
L 320.671922 -58.716 
L 319.54855 -58.716 
L 318.425178 -58.716 
L 317.301806 -58.716 
L 316.178433 -58.716 
L 315.055061 -58.716 
L 313.931689 -58.716 
L 312.808317 -58.716 
L 311.684945 -58.716 
L 310.561573 -58.716 
L 309.438201 -58.716 
L 308.314829 -58.716 
L 307.191456 -58.716 
L 306.068084 -58.716 
L 304.944712 -58.716 
L 303.82134 -58.716 
L 302.697968 -58.716 
L 301.574596 -58.716 
L 300.451224 -58.716 
L 299.327852 -58.716 
L 298.204479 -58.716 
L 297.081107 -58.716 
L 295.957735 -58.716 
L 294.834363 -58.716 
L 293.710991 -58.716 
L 292.587619 -58.716 
L 291.464247 -58.716 
L 290.340874 -58.716 
L 289.217502 -58.716 
L 288.09413 -58.716 
L 286.970758 -58.716 
L 285.847386 -58.716 
L 284.724014 -58.716 
L 283.600642 -58.716 
L 282.47727 -58.716 
L 281.353897 -58.716 
L 280.230525 -58.716 
L 279.107153 -58.716 
L 277.983781 -58.716 
L 276.860409 -58.716 
L 275.737037 -58.716 
L 274.613665 -58.716 
L 273.490293 -58.716 
L 272.36692 -58.716 
L 271.243548 -58.716 
L 270.120176 -58.716 
L 268.996804 -58.716 
L 267.873432 -58.716 
L 266.75006 -58.716 
L 265.626688 -58.716 
L 264.503316 -58.716 
L 263.379943 -58.716 
L 262.256571 -58.716 
L 261.133199 -58.716 
L 260.009827 -58.716 
L 258.886455 -58.716 
L 257.763083 -58.716 
L 256.639711 -58.716 
L 255.516338 -58.716 
L 254.392966 -58.716 
L 253.269594 -58.716 
L 252.146222 -58.716 
L 251.02285 -58.716 
L 249.899478 -58.716 
L 248.776106 -58.716 
L 247.652734 -58.716 
L 246.529361 -58.716 
L 245.405989 -58.716 
L 244.282617 -58.716 
L 243.159245 -58.716 
L 242.035873 -58.716 
L 240.912501 -58.716 
L 239.789129 -58.716 
L 238.665757 -58.716 
L 237.542384 -58.716 
L 236.419012 -58.716 
L 235.29564 -58.716 
L 234.172268 -58.716 
L 233.048896 -58.716 
L 231.925524 -58.716 
L 230.802152 -58.716 
L 229.678779 -58.716 
L 228.555407 -58.716 
L 227.432035 -58.716 
L 226.308663 -58.716 
L 225.185291 -58.716 
L 224.061919 -58.716 
L 222.938547 -58.716 
L 221.815175 -79.367707 
L 220.691802 -79.367707 
L 219.56843 -79.367707 
L 218.445058 -79.367707 
L 217.321686 -79.367707 
L 216.198314 -79.367707 
L 215.074942 -79.367707 
L 213.95157 -79.367707 
L 212.828198 -79.367707 
L 211.704825 -79.367707 
L 210.581453 -89.693561 
L 209.458081 -89.693561 
L 208.334709 -89.693561 
L 207.211337 -89.693561 
L 206.087965 -89.693561 
L 204.964593 -89.693561 
L 203.841221 -89.693561 
L 202.717848 -89.693561 
L 201.594476 -89.693561 
L 200.471104 -89.693561 
L 199.347732 -102.969659 
L 198.22436 -102.969659 
L 197.100988 -102.969659 
L 195.977616 -102.969659 
L 194.854243 -102.969659 
L 193.730871 -102.969659 
L 192.607499 -102.969659 
L 191.484127 -102.969659 
L 190.360755 -102.969659 
L 189.237383 -102.969659 
L 188.114011 -116.245756 
L 186.990639 -116.245756 
L 185.867266 -116.245756 
L 184.743894 -116.245756 
L 183.620522 -116.245756 
L 182.49715 -116.245756 
L 181.373778 -116.245756 
L 180.250406 -116.245756 
L 179.127034 -116.245756 
L 178.003662 -116.245756 
L 176.880289 -128.046732 
L 175.756917 -128.046732 
L 174.633545 -128.046732 
L 173.510173 -128.046732 
L 172.386801 -128.046732 
L 171.263429 -128.046732 
L 170.140057 -128.046732 
L 169.016684 -128.046732 
L 167.893312 -128.046732 
L 166.76994 -128.046732 
L 165.646568 -135.422341 
L 164.523196 -135.422341 
L 163.399824 -135.422341 
L 162.276452 -135.422341 
L 161.15308 -135.422341 
L 160.029707 -135.422341 
L 158.906335 -135.422341 
L 157.782963 -135.422341 
L 156.659591 -135.422341 
L 155.536219 -135.422341 
L 154.412847 -135.422341 
L 153.289475 -135.422341 
L 152.166103 -135.422341 
L 151.04273 -135.422341 
L 149.919358 -135.422341 
L 148.795986 -135.422341 
L 147.672614 -135.422341 
L 146.549242 -135.422341 
L 145.42587 -135.422341 
L 144.302498 -135.422341 
L 143.179126 -127.309171 
L 142.055753 -127.309171 
L 140.932381 -127.309171 
L 139.809009 -127.309171 
L 138.685637 -127.309171 
L 137.562265 -127.309171 
L 136.438893 -127.309171 
L 135.315521 -127.309171 
L 134.192148 -127.309171 
L 133.068776 -127.309171 
L 131.945404 -112.557951 
L 130.822032 -112.557951 
L 129.69866 -112.557951 
L 128.575288 -112.557951 
L 127.451916 -112.557951 
L 126.328544 -112.557951 
L 125.205171 -112.557951 
L 124.081799 -112.557951 
L 122.958427 -112.557951 
L 121.835055 -112.557951 
L 120.711683 -95.594049 
L 119.588311 -95.594049 
L 118.464939 -95.594049 
L 117.341567 -95.594049 
L 116.218194 -95.594049 
L 115.094822 -95.594049 
L 113.97145 -95.594049 
L 112.848078 -95.594049 
L 111.724706 -95.594049 
L 110.601334 -95.594049 
L 109.477962 -80.105268 
L 108.354589 -80.105268 
L 107.231217 -80.105268 
L 106.107845 -80.105268 
L 104.984473 -80.105268 
L 103.861101 -80.105268 
L 102.737729 -80.105268 
L 101.614357 -80.105268 
L 100.490985 -80.105268 
L 99.367612 -80.105268 
L 98.24424 -69.041854 
L 97.120868 -69.041854 
L 95.997496 -69.041854 
L 94.874124 -69.041854 
L 93.750752 -69.041854 
L 92.62738 -69.041854 
L 91.504008 -69.041854 
L 90.380635 -69.041854 
L 89.257263 -69.041854 
L 88.133891 -69.041854 
L 87.010519 -62.403805 
L 85.887147 -62.403805 
L 84.763775 -62.403805 
L 83.640403 -62.403805 
L 82.517031 -62.403805 
L 81.393658 -62.403805 
L 80.270286 -62.403805 
L 79.146914 -62.403805 
L 78.023542 -62.403805 
L 76.90017 -62.403805 
L 75.776798 -59.453561 
L 74.653426 -59.453561 
L 73.530053 -59.453561 
L 72.406681 -59.453561 
L 71.283309 -59.453561 
L 70.159937 -59.453561 
L 69.036565 -59.453561 
L 67.913193 -59.453561 
L 66.789821 -59.453561 
L 65.666449 -59.453561 
L 64.543076 -293.26039 
L 63.419704 -293.26039 
L 62.296332 -293.26039 
L 61.17296 -293.26039 
L 60.049588 -293.26039 
L 58.926216 -293.26039 
L 57.802844 -293.26039 
L 56.679472 -293.26039 
L 55.556099 -293.26039 
L 54.432727 -293.26039 
z
" id="m0177188890" style="stroke:#c79999;"/>
    </defs>
    <g clip-path="url(#p66b6ae95ea)">
     <use style="fill:#c79999;stroke:#c79999;" x="0" xlink:href="#m0177188890" y="339.258"/>
    </g>
   </g>
   <g id="PolyCollection_3">
    <defs>
     <path d="M 54.432727 -288.835024 
L 54.432727 -272.608683 
L 55.556099 -272.608683 
L 56.679472 -272.608683 
L 57.802844 -272.608683 
L 58.926216 -272.608683 
L 60.049588 -272.608683 
L 61.17296 -272.608683 
L 62.296332 -272.608683 
L 63.419704 -272.608683 
L 64.543076 -272.608683 
L 65.666449 -58.716 
L 66.789821 -58.716 
L 67.913193 -58.716 
L 69.036565 -58.716 
L 70.159937 -58.716 
L 71.283309 -58.716 
L 72.406681 -58.716 
L 73.530053 -58.716 
L 74.653426 -58.716 
L 75.776798 -58.716 
L 76.90017 -60.191122 
L 78.023542 -60.191122 
L 79.146914 -60.191122 
L 80.270286 -60.191122 
L 81.393658 -60.191122 
L 82.517031 -60.191122 
L 83.640403 -60.191122 
L 84.763775 -60.191122 
L 85.887147 -60.191122 
L 87.010519 -60.191122 
L 88.133891 -65.354049 
L 89.257263 -65.354049 
L 90.380635 -65.354049 
L 91.504008 -65.354049 
L 92.62738 -65.354049 
L 93.750752 -65.354049 
L 94.874124 -65.354049 
L 95.997496 -65.354049 
L 97.120868 -65.354049 
L 98.24424 -65.354049 
L 99.367612 -74.942341 
L 100.490985 -74.942341 
L 101.614357 -74.942341 
L 102.737729 -74.942341 
L 103.861101 -74.942341 
L 104.984473 -74.942341 
L 106.107845 -74.942341 
L 107.231217 -74.942341 
L 108.354589 -74.942341 
L 109.477962 -74.942341 
L 110.601334 -88.218439 
L 111.724706 -88.218439 
L 112.848078 -88.218439 
L 113.97145 -88.218439 
L 115.094822 -88.218439 
L 116.218194 -88.218439 
L 117.341567 -88.218439 
L 118.464939 -88.218439 
L 119.588311 -88.218439 
L 120.711683 -88.218439 
L 121.835055 -103.70722 
L 122.958427 -103.70722 
L 124.081799 -103.70722 
L 125.205171 -103.70722 
L 126.328544 -103.70722 
L 127.451916 -103.70722 
L 128.575288 -103.70722 
L 129.69866 -103.70722 
L 130.822032 -103.70722 
L 131.945404 -103.70722 
L 133.068776 -117.720878 
L 134.192148 -117.720878 
L 135.315521 -117.720878 
L 136.438893 -117.720878 
L 137.562265 -117.720878 
L 138.685637 -117.720878 
L 139.809009 -117.720878 
L 140.932381 -117.720878 
L 142.055753 -117.720878 
L 143.179126 -117.720878 
L 144.302498 -125.834049 
L 145.42587 -125.834049 
L 146.549242 -125.834049 
L 147.672614 -125.834049 
L 148.795986 -125.834049 
L 149.919358 -125.834049 
L 151.04273 -125.834049 
L 152.166103 -125.834049 
L 153.289475 -125.834049 
L 154.412847 -125.834049 
L 155.536219 -125.834049 
L 156.659591 -125.834049 
L 157.782963 -125.834049 
L 158.906335 -125.834049 
L 160.029707 -125.834049 
L 161.15308 -125.834049 
L 162.276452 -125.834049 
L 163.399824 -125.834049 
L 164.523196 -125.834049 
L 165.646568 -125.834049 
L 166.76994 -119.196 
L 167.893312 -119.196 
L 169.016684 -119.196 
L 170.140057 -119.196 
L 171.263429 -119.196 
L 172.386801 -119.196 
L 173.510173 -119.196 
L 174.633545 -119.196 
L 175.756917 -119.196 
L 176.880289 -119.196 
L 178.003662 -107.395024 
L 179.127034 -107.395024 
L 180.250406 -107.395024 
L 181.373778 -107.395024 
L 182.49715 -107.395024 
L 183.620522 -107.395024 
L 184.743894 -107.395024 
L 185.867266 -107.395024 
L 186.990639 -107.395024 
L 188.114011 -107.395024 
L 189.237383 -94.856488 
L 190.360755 -94.856488 
L 191.484127 -94.856488 
L 192.607499 -94.856488 
L 193.730871 -94.856488 
L 194.854243 -94.856488 
L 195.977616 -94.856488 
L 197.100988 -94.856488 
L 198.22436 -94.856488 
L 199.347732 -94.856488 
L 200.471104 -83.055512 
L 201.594476 -83.055512 
L 202.717848 -83.055512 
L 203.841221 -83.055512 
L 204.964593 -83.055512 
L 206.087965 -83.055512 
L 207.211337 -83.055512 
L 208.334709 -83.055512 
L 209.458081 -83.055512 
L 210.581453 -83.055512 
L 211.704825 -74.20478 
L 212.828198 -74.20478 
L 213.95157 -74.20478 
L 215.074942 -74.20478 
L 216.198314 -74.20478 
L 217.321686 -74.20478 
L 218.445058 -74.20478 
L 219.56843 -74.20478 
L 220.691802 -74.20478 
L 221.815175 -74.20478 
L 222.938547 -58.716 
L 224.061919 -58.716 
L 225.185291 -58.716 
L 226.308663 -58.716 
L 227.432035 -58.716 
L 228.555407 -58.716 
L 229.678779 -58.716 
L 230.802152 -58.716 
L 231.925524 -58.716 
L 233.048896 -58.716 
L 234.172268 -58.716 
L 235.29564 -58.716 
L 236.419012 -58.716 
L 237.542384 -58.716 
L 238.665757 -58.716 
L 239.789129 -58.716 
L 240.912501 -58.716 
L 242.035873 -58.716 
L 243.159245 -58.716 
L 244.282617 -58.716 
L 245.405989 -58.716 
L 246.529361 -58.716 
L 247.652734 -58.716 
L 248.776106 -58.716 
L 249.899478 -58.716 
L 251.02285 -58.716 
L 252.146222 -58.716 
L 253.269594 -58.716 
L 254.392966 -58.716 
L 255.516338 -58.716 
L 256.639711 -58.716 
L 257.763083 -58.716 
L 258.886455 -58.716 
L 260.009827 -58.716 
L 261.133199 -58.716 
L 262.256571 -58.716 
L 263.379943 -58.716 
L 264.503316 -58.716 
L 265.626688 -58.716 
L 266.75006 -58.716 
L 267.873432 -58.716 
L 268.996804 -58.716 
L 270.120176 -58.716 
L 271.243548 -58.716 
L 272.36692 -58.716 
L 273.490293 -58.716 
L 274.613665 -58.716 
L 275.737037 -58.716 
L 276.860409 -58.716 
L 277.983781 -58.716 
L 279.107153 -58.716 
L 280.230525 -58.716 
L 281.353897 -58.716 
L 282.47727 -58.716 
L 283.600642 -58.716 
L 284.724014 -58.716 
L 285.847386 -58.716 
L 286.970758 -58.716 
L 288.09413 -58.716 
L 289.217502 -58.716 
L 290.340874 -58.716 
L 291.464247 -58.716 
L 292.587619 -58.716 
L 293.710991 -58.716 
L 294.834363 -58.716 
L 295.957735 -58.716 
L 297.081107 -58.716 
L 298.204479 -58.716 
L 299.327852 -58.716 
L 300.451224 -58.716 
L 301.574596 -58.716 
L 302.697968 -58.716 
L 303.82134 -58.716 
L 304.944712 -58.716 
L 306.068084 -58.716 
L 307.191456 -58.716 
L 308.314829 -58.716 
L 309.438201 -58.716 
L 310.561573 -58.716 
L 311.684945 -58.716 
L 312.808317 -58.716 
L 313.931689 -58.716 
L 315.055061 -58.716 
L 316.178433 -58.716 
L 317.301806 -58.716 
L 318.425178 -58.716 
L 319.54855 -58.716 
L 320.671922 -58.716 
L 321.795294 -58.716 
L 322.918666 -58.716 
L 324.042038 -58.716 
L 325.165411 -58.716 
L 326.288783 -58.716 
L 327.412155 -58.716 
L 328.535527 -58.716 
L 329.658899 -58.716 
L 330.782271 -58.716 
L 331.905643 -58.716 
L 333.029015 -58.716 
L 334.152388 -58.716 
L 335.27576 -58.716 
L 336.399132 -58.716 
L 337.522504 -58.716 
L 338.645876 -58.716 
L 339.769248 -58.716 
L 340.89262 -58.716 
L 342.015992 -58.716 
L 343.139365 -58.716 
L 344.262737 -58.716 
L 345.386109 -58.716 
L 346.509481 -58.716 
L 347.632853 -58.716 
L 348.756225 -58.716 
L 349.879597 -58.716 
L 351.002969 -58.716 
L 352.126342 -58.716 
L 353.249714 -58.716 
L 354.373086 -58.716 
L 355.496458 -58.716 
L 356.61983 -58.716 
L 357.743202 -58.716 
L 358.866574 -58.716 
L 359.989947 -58.716 
L 361.113319 -58.716 
L 362.236691 -58.716 
L 363.360063 -58.716 
L 364.483435 -58.716 
L 365.606807 -58.716 
L 366.730179 -58.716 
L 367.853551 -58.716 
L 368.976924 -58.716 
L 370.100296 -58.716 
L 371.223668 -58.716 
L 372.34704 -58.716 
L 373.470412 -58.716 
L 374.593784 -58.716 
L 375.717156 -58.716 
L 376.840528 -58.716 
L 377.963901 -58.716 
L 379.087273 -58.716 
L 379.087273 -58.716 
L 379.087273 -58.716 
L 377.963901 -58.716 
L 376.840528 -58.716 
L 375.717156 -58.716 
L 374.593784 -58.716 
L 373.470412 -58.716 
L 372.34704 -58.716 
L 371.223668 -58.716 
L 370.100296 -58.716 
L 368.976924 -58.716 
L 367.853551 -58.716 
L 366.730179 -58.716 
L 365.606807 -58.716 
L 364.483435 -58.716 
L 363.360063 -58.716 
L 362.236691 -58.716 
L 361.113319 -58.716 
L 359.989947 -58.716 
L 358.866574 -58.716 
L 357.743202 -58.716 
L 356.61983 -58.716 
L 355.496458 -58.716 
L 354.373086 -58.716 
L 353.249714 -58.716 
L 352.126342 -58.716 
L 351.002969 -58.716 
L 349.879597 -58.716 
L 348.756225 -58.716 
L 347.632853 -58.716 
L 346.509481 -58.716 
L 345.386109 -58.716 
L 344.262737 -58.716 
L 343.139365 -58.716 
L 342.015992 -58.716 
L 340.89262 -58.716 
L 339.769248 -58.716 
L 338.645876 -58.716 
L 337.522504 -58.716 
L 336.399132 -58.716 
L 335.27576 -58.716 
L 334.152388 -58.716 
L 333.029015 -58.716 
L 331.905643 -58.716 
L 330.782271 -58.716 
L 329.658899 -58.716 
L 328.535527 -58.716 
L 327.412155 -58.716 
L 326.288783 -58.716 
L 325.165411 -58.716 
L 324.042038 -58.716 
L 322.918666 -58.716 
L 321.795294 -58.716 
L 320.671922 -58.716 
L 319.54855 -58.716 
L 318.425178 -58.716 
L 317.301806 -58.716 
L 316.178433 -58.716 
L 315.055061 -58.716 
L 313.931689 -58.716 
L 312.808317 -58.716 
L 311.684945 -58.716 
L 310.561573 -58.716 
L 309.438201 -58.716 
L 308.314829 -58.716 
L 307.191456 -58.716 
L 306.068084 -58.716 
L 304.944712 -58.716 
L 303.82134 -58.716 
L 302.697968 -58.716 
L 301.574596 -58.716 
L 300.451224 -58.716 
L 299.327852 -58.716 
L 298.204479 -58.716 
L 297.081107 -58.716 
L 295.957735 -58.716 
L 294.834363 -58.716 
L 293.710991 -58.716 
L 292.587619 -58.716 
L 291.464247 -58.716 
L 290.340874 -58.716 
L 289.217502 -58.716 
L 288.09413 -58.716 
L 286.970758 -58.716 
L 285.847386 -58.716 
L 284.724014 -58.716 
L 283.600642 -58.716 
L 282.47727 -58.716 
L 281.353897 -58.716 
L 280.230525 -58.716 
L 279.107153 -58.716 
L 277.983781 -58.716 
L 276.860409 -58.716 
L 275.737037 -58.716 
L 274.613665 -58.716 
L 273.490293 -58.716 
L 272.36692 -58.716 
L 271.243548 -58.716 
L 270.120176 -58.716 
L 268.996804 -58.716 
L 267.873432 -58.716 
L 266.75006 -58.716 
L 265.626688 -58.716 
L 264.503316 -58.716 
L 263.379943 -58.716 
L 262.256571 -58.716 
L 261.133199 -58.716 
L 260.009827 -58.716 
L 258.886455 -58.716 
L 257.763083 -58.716 
L 256.639711 -58.716 
L 255.516338 -58.716 
L 254.392966 -58.716 
L 253.269594 -58.716 
L 252.146222 -58.716 
L 251.02285 -58.716 
L 249.899478 -58.716 
L 248.776106 -58.716 
L 247.652734 -58.716 
L 246.529361 -58.716 
L 245.405989 -58.716 
L 244.282617 -58.716 
L 243.159245 -58.716 
L 242.035873 -58.716 
L 240.912501 -58.716 
L 239.789129 -58.716 
L 238.665757 -58.716 
L 237.542384 -58.716 
L 236.419012 -58.716 
L 235.29564 -58.716 
L 234.172268 -58.716 
L 233.048896 -58.716 
L 231.925524 -58.716 
L 230.802152 -58.716 
L 229.678779 -58.716 
L 228.555407 -58.716 
L 227.432035 -58.716 
L 226.308663 -58.716 
L 225.185291 -58.716 
L 224.061919 -58.716 
L 222.938547 -58.716 
L 221.815175 -77.892585 
L 220.691802 -77.892585 
L 219.56843 -77.892585 
L 218.445058 -77.892585 
L 217.321686 -77.892585 
L 216.198314 -77.892585 
L 215.074942 -77.892585 
L 213.95157 -77.892585 
L 212.828198 -77.892585 
L 211.704825 -77.892585 
L 210.581453 -88.218439 
L 209.458081 -88.218439 
L 208.334709 -88.218439 
L 207.211337 -88.218439 
L 206.087965 -88.218439 
L 204.964593 -88.218439 
L 203.841221 -88.218439 
L 202.717848 -88.218439 
L 201.594476 -88.218439 
L 200.471104 -88.218439 
L 199.347732 -100.756976 
L 198.22436 -100.756976 
L 197.100988 -100.756976 
L 195.977616 -100.756976 
L 194.854243 -100.756976 
L 193.730871 -100.756976 
L 192.607499 -100.756976 
L 191.484127 -100.756976 
L 190.360755 -100.756976 
L 189.237383 -100.756976 
L 188.114011 -114.770634 
L 186.990639 -114.770634 
L 185.867266 -114.770634 
L 184.743894 -114.770634 
L 183.620522 -114.770634 
L 182.49715 -114.770634 
L 181.373778 -114.770634 
L 180.250406 -114.770634 
L 179.127034 -114.770634 
L 178.003662 -114.770634 
L 176.880289 -125.834049 
L 175.756917 -125.834049 
L 174.633545 -125.834049 
L 173.510173 -125.834049 
L 172.386801 -125.834049 
L 171.263429 -125.834049 
L 170.140057 -125.834049 
L 169.016684 -125.834049 
L 167.893312 -125.834049 
L 166.76994 -125.834049 
L 165.646568 -133.209659 
L 164.523196 -133.209659 
L 163.399824 -133.209659 
L 162.276452 -133.209659 
L 161.15308 -133.209659 
L 160.029707 -133.209659 
L 158.906335 -133.209659 
L 157.782963 -133.209659 
L 156.659591 -133.209659 
L 155.536219 -133.209659 
L 154.412847 -133.209659 
L 153.289475 -133.209659 
L 152.166103 -133.209659 
L 151.04273 -133.209659 
L 149.919358 -133.209659 
L 148.795986 -133.209659 
L 147.672614 -133.209659 
L 146.549242 -133.209659 
L 145.42587 -133.209659 
L 144.302498 -133.209659 
L 143.179126 -125.096488 
L 142.055753 -125.096488 
L 140.932381 -125.096488 
L 139.809009 -125.096488 
L 138.685637 -125.096488 
L 137.562265 -125.096488 
L 136.438893 -125.096488 
L 135.315521 -125.096488 
L 134.192148 -125.096488 
L 133.068776 -125.096488 
L 131.945404 -110.345268 
L 130.822032 -110.345268 
L 129.69866 -110.345268 
L 128.575288 -110.345268 
L 127.451916 -110.345268 
L 126.328544 -110.345268 
L 125.205171 -110.345268 
L 124.081799 -110.345268 
L 122.958427 -110.345268 
L 121.835055 -110.345268 
L 120.711683 -94.118927 
L 119.588311 -94.118927 
L 118.464939 -94.118927 
L 117.341567 -94.118927 
L 116.218194 -94.118927 
L 115.094822 -94.118927 
L 113.97145 -94.118927 
L 112.848078 -94.118927 
L 111.724706 -94.118927 
L 110.601334 -94.118927 
L 109.477962 -78.630146 
L 108.354589 -78.630146 
L 107.231217 -78.630146 
L 106.107845 -78.630146 
L 104.984473 -78.630146 
L 103.861101 -78.630146 
L 102.737729 -78.630146 
L 101.614357 -78.630146 
L 100.490985 -78.630146 
L 99.367612 -78.630146 
L 98.24424 -67.566732 
L 97.120868 -67.566732 
L 95.997496 -67.566732 
L 94.874124 -67.566732 
L 93.750752 -67.566732 
L 92.62738 -67.566732 
L 91.504008 -67.566732 
L 90.380635 -67.566732 
L 89.257263 -67.566732 
L 88.133891 -67.566732 
L 87.010519 -61.666244 
L 85.887147 -61.666244 
L 84.763775 -61.666244 
L 83.640403 -61.666244 
L 82.517031 -61.666244 
L 81.393658 -61.666244 
L 80.270286 -61.666244 
L 79.146914 -61.666244 
L 78.023542 -61.666244 
L 76.90017 -61.666244 
L 75.776798 -59.453561 
L 74.653426 -59.453561 
L 73.530053 -59.453561 
L 72.406681 -59.453561 
L 71.283309 -59.453561 
L 70.159937 -59.453561 
L 69.036565 -59.453561 
L 67.913193 -59.453561 
L 66.789821 -59.453561 
L 65.666449 -59.453561 
L 64.543076 -288.835024 
L 63.419704 -288.835024 
L 62.296332 -288.835024 
L 61.17296 -288.835024 
L 60.049588 -288.835024 
L 58.926216 -288.835024 
L 57.802844 -288.835024 
L 56.679472 -288.835024 
L 55.556099 -288.835024 
L 54.432727 -288.835024 
z
" id="m31d00895b6" style="stroke:#b97c7c;"/>
    </defs>
    <g clip-path="url(#p66b6ae95ea)">
     <use style="fill:#b97c7c;stroke:#b97c7c;" x="0" xlink:href="#m31d00895b6" y="339.258"/>
    </g>
   </g>
   <g id="PolyCollection_4">
    <defs>
     <path d="M 54.432727 -284.409659 
L 54.432727 -277.034049 
L 55.556099 -277.034049 
L 56.679472 -277.034049 
L 57.802844 -277.034049 
L 58.926216 -277.034049 
L 60.049588 -277.034049 
L 61.17296 -277.034049 
L 62.296332 -277.034049 
L 63.419704 -277.034049 
L 64.543076 -277.034049 
L 65.666449 -58.716 
L 66.789821 -58.716 
L 67.913193 -58.716 
L 69.036565 -58.716 
L 70.159937 -58.716 
L 71.283309 -58.716 
L 72.406681 -58.716 
L 73.530053 -58.716 
L 74.653426 -58.716 
L 75.776798 -58.716 
L 76.90017 -60.928683 
L 78.023542 -60.928683 
L 79.146914 -60.928683 
L 80.270286 -60.928683 
L 81.393658 -60.928683 
L 82.517031 -60.928683 
L 83.640403 -60.928683 
L 84.763775 -60.928683 
L 85.887147 -60.928683 
L 87.010519 -60.928683 
L 88.133891 -66.09161 
L 89.257263 -66.09161 
L 90.380635 -66.09161 
L 91.504008 -66.09161 
L 92.62738 -66.09161 
L 93.750752 -66.09161 
L 94.874124 -66.09161 
L 95.997496 -66.09161 
L 97.120868 -66.09161 
L 98.24424 -66.09161 
L 99.367612 -75.679902 
L 100.490985 -75.679902 
L 101.614357 -75.679902 
L 102.737729 -75.679902 
L 103.861101 -75.679902 
L 104.984473 -75.679902 
L 106.107845 -75.679902 
L 107.231217 -75.679902 
L 108.354589 -75.679902 
L 109.477962 -75.679902 
L 110.601334 -89.693561 
L 111.724706 -89.693561 
L 112.848078 -89.693561 
L 113.97145 -89.693561 
L 115.094822 -89.693561 
L 116.218194 -89.693561 
L 117.341567 -89.693561 
L 118.464939 -89.693561 
L 119.588311 -89.693561 
L 120.711683 -89.693561 
L 121.835055 -105.919902 
L 122.958427 -105.919902 
L 124.081799 -105.919902 
L 125.205171 -105.919902 
L 126.328544 -105.919902 
L 127.451916 -105.919902 
L 128.575288 -105.919902 
L 129.69866 -105.919902 
L 130.822032 -105.919902 
L 131.945404 -105.919902 
L 133.068776 -119.933561 
L 134.192148 -119.933561 
L 135.315521 -119.933561 
L 136.438893 -119.933561 
L 137.562265 -119.933561 
L 138.685637 -119.933561 
L 139.809009 -119.933561 
L 140.932381 -119.933561 
L 142.055753 -119.933561 
L 143.179126 -119.933561 
L 144.302498 -127.309171 
L 145.42587 -127.309171 
L 146.549242 -127.309171 
L 147.672614 -127.309171 
L 148.795986 -127.309171 
L 149.919358 -127.309171 
L 151.04273 -127.309171 
L 152.166103 -127.309171 
L 153.289475 -127.309171 
L 154.412847 -127.309171 
L 155.536219 -128.046732 
L 156.659591 -128.046732 
L 157.782963 -128.046732 
L 158.906335 -128.046732 
L 160.029707 -128.046732 
L 161.15308 -128.046732 
L 162.276452 -128.046732 
L 163.399824 -128.046732 
L 164.523196 -128.046732 
L 165.646568 -128.046732 
L 166.76994 -120.671122 
L 167.893312 -120.671122 
L 169.016684 -120.671122 
L 170.140057 -120.671122 
L 171.263429 -120.671122 
L 172.386801 -120.671122 
L 173.510173 -120.671122 
L 174.633545 -120.671122 
L 175.756917 -120.671122 
L 176.880289 -120.671122 
L 178.003662 -109.607707 
L 179.127034 -109.607707 
L 180.250406 -109.607707 
L 181.373778 -109.607707 
L 182.49715 -109.607707 
L 183.620522 -109.607707 
L 184.743894 -109.607707 
L 185.867266 -109.607707 
L 186.990639 -109.607707 
L 188.114011 -109.607707 
L 189.237383 -96.33161 
L 190.360755 -96.33161 
L 191.484127 -96.33161 
L 192.607499 -96.33161 
L 193.730871 -96.33161 
L 194.854243 -96.33161 
L 195.977616 -96.33161 
L 197.100988 -96.33161 
L 198.22436 -96.33161 
L 199.347732 -96.33161 
L 200.471104 -84.530634 
L 201.594476 -84.530634 
L 202.717848 -84.530634 
L 203.841221 -84.530634 
L 204.964593 -84.530634 
L 206.087965 -84.530634 
L 207.211337 -84.530634 
L 208.334709 -84.530634 
L 209.458081 -84.530634 
L 210.581453 -84.530634 
L 211.704825 -74.942341 
L 212.828198 -74.942341 
L 213.95157 -74.942341 
L 215.074942 -74.942341 
L 216.198314 -74.942341 
L 217.321686 -74.942341 
L 218.445058 -74.942341 
L 219.56843 -74.942341 
L 220.691802 -74.942341 
L 221.815175 -74.942341 
L 222.938547 -58.716 
L 224.061919 -58.716 
L 225.185291 -58.716 
L 226.308663 -58.716 
L 227.432035 -58.716 
L 228.555407 -58.716 
L 229.678779 -58.716 
L 230.802152 -58.716 
L 231.925524 -58.716 
L 233.048896 -58.716 
L 234.172268 -58.716 
L 235.29564 -58.716 
L 236.419012 -58.716 
L 237.542384 -58.716 
L 238.665757 -58.716 
L 239.789129 -58.716 
L 240.912501 -58.716 
L 242.035873 -58.716 
L 243.159245 -58.716 
L 244.282617 -58.716 
L 245.405989 -58.716 
L 246.529361 -58.716 
L 247.652734 -58.716 
L 248.776106 -58.716 
L 249.899478 -58.716 
L 251.02285 -58.716 
L 252.146222 -58.716 
L 253.269594 -58.716 
L 254.392966 -58.716 
L 255.516338 -58.716 
L 256.639711 -58.716 
L 257.763083 -58.716 
L 258.886455 -58.716 
L 260.009827 -58.716 
L 261.133199 -58.716 
L 262.256571 -58.716 
L 263.379943 -58.716 
L 264.503316 -58.716 
L 265.626688 -58.716 
L 266.75006 -58.716 
L 267.873432 -58.716 
L 268.996804 -58.716 
L 270.120176 -58.716 
L 271.243548 -58.716 
L 272.36692 -58.716 
L 273.490293 -58.716 
L 274.613665 -58.716 
L 275.737037 -58.716 
L 276.860409 -58.716 
L 277.983781 -58.716 
L 279.107153 -58.716 
L 280.230525 -58.716 
L 281.353897 -58.716 
L 282.47727 -58.716 
L 283.600642 -58.716 
L 284.724014 -58.716 
L 285.847386 -58.716 
L 286.970758 -58.716 
L 288.09413 -58.716 
L 289.217502 -58.716 
L 290.340874 -58.716 
L 291.464247 -58.716 
L 292.587619 -58.716 
L 293.710991 -58.716 
L 294.834363 -58.716 
L 295.957735 -58.716 
L 297.081107 -58.716 
L 298.204479 -58.716 
L 299.327852 -58.716 
L 300.451224 -58.716 
L 301.574596 -58.716 
L 302.697968 -58.716 
L 303.82134 -58.716 
L 304.944712 -58.716 
L 306.068084 -58.716 
L 307.191456 -58.716 
L 308.314829 -58.716 
L 309.438201 -58.716 
L 310.561573 -58.716 
L 311.684945 -58.716 
L 312.808317 -58.716 
L 313.931689 -58.716 
L 315.055061 -58.716 
L 316.178433 -58.716 
L 317.301806 -58.716 
L 318.425178 -58.716 
L 319.54855 -58.716 
L 320.671922 -58.716 
L 321.795294 -58.716 
L 322.918666 -58.716 
L 324.042038 -58.716 
L 325.165411 -58.716 
L 326.288783 -58.716 
L 327.412155 -58.716 
L 328.535527 -58.716 
L 329.658899 -58.716 
L 330.782271 -58.716 
L 331.905643 -58.716 
L 333.029015 -58.716 
L 334.152388 -58.716 
L 335.27576 -58.716 
L 336.399132 -58.716 
L 337.522504 -58.716 
L 338.645876 -58.716 
L 339.769248 -58.716 
L 340.89262 -58.716 
L 342.015992 -58.716 
L 343.139365 -58.716 
L 344.262737 -58.716 
L 345.386109 -58.716 
L 346.509481 -58.716 
L 347.632853 -58.716 
L 348.756225 -58.716 
L 349.879597 -58.716 
L 351.002969 -58.716 
L 352.126342 -58.716 
L 353.249714 -58.716 
L 354.373086 -58.716 
L 355.496458 -58.716 
L 356.61983 -58.716 
L 357.743202 -58.716 
L 358.866574 -58.716 
L 359.989947 -58.716 
L 361.113319 -58.716 
L 362.236691 -58.716 
L 363.360063 -58.716 
L 364.483435 -58.716 
L 365.606807 -58.716 
L 366.730179 -58.716 
L 367.853551 -58.716 
L 368.976924 -58.716 
L 370.100296 -58.716 
L 371.223668 -58.716 
L 372.34704 -58.716 
L 373.470412 -58.716 
L 374.593784 -58.716 
L 375.717156 -58.716 
L 376.840528 -58.716 
L 377.963901 -58.716 
L 379.087273 -58.716 
L 379.087273 -58.716 
L 379.087273 -58.716 
L 377.963901 -58.716 
L 376.840528 -58.716 
L 375.717156 -58.716 
L 374.593784 -58.716 
L 373.470412 -58.716 
L 372.34704 -58.716 
L 371.223668 -58.716 
L 370.100296 -58.716 
L 368.976924 -58.716 
L 367.853551 -58.716 
L 366.730179 -58.716 
L 365.606807 -58.716 
L 364.483435 -58.716 
L 363.360063 -58.716 
L 362.236691 -58.716 
L 361.113319 -58.716 
L 359.989947 -58.716 
L 358.866574 -58.716 
L 357.743202 -58.716 
L 356.61983 -58.716 
L 355.496458 -58.716 
L 354.373086 -58.716 
L 353.249714 -58.716 
L 352.126342 -58.716 
L 351.002969 -58.716 
L 349.879597 -58.716 
L 348.756225 -58.716 
L 347.632853 -58.716 
L 346.509481 -58.716 
L 345.386109 -58.716 
L 344.262737 -58.716 
L 343.139365 -58.716 
L 342.015992 -58.716 
L 340.89262 -58.716 
L 339.769248 -58.716 
L 338.645876 -58.716 
L 337.522504 -58.716 
L 336.399132 -58.716 
L 335.27576 -58.716 
L 334.152388 -58.716 
L 333.029015 -58.716 
L 331.905643 -58.716 
L 330.782271 -58.716 
L 329.658899 -58.716 
L 328.535527 -58.716 
L 327.412155 -58.716 
L 326.288783 -58.716 
L 325.165411 -58.716 
L 324.042038 -58.716 
L 322.918666 -58.716 
L 321.795294 -58.716 
L 320.671922 -58.716 
L 319.54855 -58.716 
L 318.425178 -58.716 
L 317.301806 -58.716 
L 316.178433 -58.716 
L 315.055061 -58.716 
L 313.931689 -58.716 
L 312.808317 -58.716 
L 311.684945 -58.716 
L 310.561573 -58.716 
L 309.438201 -58.716 
L 308.314829 -58.716 
L 307.191456 -58.716 
L 306.068084 -58.716 
L 304.944712 -58.716 
L 303.82134 -58.716 
L 302.697968 -58.716 
L 301.574596 -58.716 
L 300.451224 -58.716 
L 299.327852 -58.716 
L 298.204479 -58.716 
L 297.081107 -58.716 
L 295.957735 -58.716 
L 294.834363 -58.716 
L 293.710991 -58.716 
L 292.587619 -58.716 
L 291.464247 -58.716 
L 290.340874 -58.716 
L 289.217502 -58.716 
L 288.09413 -58.716 
L 286.970758 -58.716 
L 285.847386 -58.716 
L 284.724014 -58.716 
L 283.600642 -58.716 
L 282.47727 -58.716 
L 281.353897 -58.716 
L 280.230525 -58.716 
L 279.107153 -58.716 
L 277.983781 -58.716 
L 276.860409 -58.716 
L 275.737037 -58.716 
L 274.613665 -58.716 
L 273.490293 -58.716 
L 272.36692 -58.716 
L 271.243548 -58.716 
L 270.120176 -58.716 
L 268.996804 -58.716 
L 267.873432 -58.716 
L 266.75006 -58.716 
L 265.626688 -58.716 
L 264.503316 -58.716 
L 263.379943 -58.716 
L 262.256571 -58.716 
L 261.133199 -58.716 
L 260.009827 -58.716 
L 258.886455 -58.716 
L 257.763083 -58.716 
L 256.639711 -58.716 
L 255.516338 -58.716 
L 254.392966 -58.716 
L 253.269594 -58.716 
L 252.146222 -58.716 
L 251.02285 -58.716 
L 249.899478 -58.716 
L 248.776106 -58.716 
L 247.652734 -58.716 
L 246.529361 -58.716 
L 245.405989 -58.716 
L 244.282617 -58.716 
L 243.159245 -58.716 
L 242.035873 -58.716 
L 240.912501 -58.716 
L 239.789129 -58.716 
L 238.665757 -58.716 
L 237.542384 -58.716 
L 236.419012 -58.716 
L 235.29564 -58.716 
L 234.172268 -58.716 
L 233.048896 -58.716 
L 231.925524 -58.716 
L 230.802152 -58.716 
L 229.678779 -58.716 
L 228.555407 -58.716 
L 227.432035 -58.716 
L 226.308663 -58.716 
L 225.185291 -58.716 
L 224.061919 -58.716 
L 222.938547 -58.716 
L 221.815175 -77.155024 
L 220.691802 -77.155024 
L 219.56843 -77.155024 
L 218.445058 -77.155024 
L 217.321686 -77.155024 
L 216.198314 -77.155024 
L 215.074942 -77.155024 
L 213.95157 -77.155024 
L 212.828198 -77.155024 
L 211.704825 -77.155024 
L 210.581453 -86.743317 
L 209.458081 -86.743317 
L 208.334709 -86.743317 
L 207.211337 -86.743317 
L 206.087965 -86.743317 
L 204.964593 -86.743317 
L 203.841221 -86.743317 
L 202.717848 -86.743317 
L 201.594476 -86.743317 
L 200.471104 -86.743317 
L 199.347732 -99.281854 
L 198.22436 -99.281854 
L 197.100988 -99.281854 
L 195.977616 -99.281854 
L 194.854243 -99.281854 
L 193.730871 -99.281854 
L 192.607499 -99.281854 
L 191.484127 -99.281854 
L 190.360755 -99.281854 
L 189.237383 -99.281854 
L 188.114011 -112.557951 
L 186.990639 -112.557951 
L 185.867266 -112.557951 
L 184.743894 -112.557951 
L 183.620522 -112.557951 
L 182.49715 -112.557951 
L 181.373778 -112.557951 
L 180.250406 -112.557951 
L 179.127034 -112.557951 
L 178.003662 -112.557951 
L 176.880289 -124.358927 
L 175.756917 -124.358927 
L 174.633545 -124.358927 
L 173.510173 -124.358927 
L 172.386801 -124.358927 
L 171.263429 -124.358927 
L 170.140057 -124.358927 
L 169.016684 -124.358927 
L 167.893312 -124.358927 
L 166.76994 -124.358927 
L 165.646568 -130.996976 
L 164.523196 -130.996976 
L 163.399824 -130.996976 
L 162.276452 -130.996976 
L 161.15308 -130.996976 
L 160.029707 -130.996976 
L 158.906335 -130.996976 
L 157.782963 -130.996976 
L 156.659591 -130.996976 
L 155.536219 -130.996976 
L 154.412847 -130.996976 
L 153.289475 -130.996976 
L 152.166103 -130.996976 
L 151.04273 -130.996976 
L 149.919358 -130.996976 
L 148.795986 -130.996976 
L 147.672614 -130.996976 
L 146.549242 -130.996976 
L 145.42587 -130.996976 
L 144.302498 -130.996976 
L 143.179126 -123.621366 
L 142.055753 -123.621366 
L 140.932381 -123.621366 
L 139.809009 -123.621366 
L 138.685637 -123.621366 
L 137.562265 -123.621366 
L 136.438893 -123.621366 
L 135.315521 -123.621366 
L 134.192148 -123.621366 
L 133.068776 -123.621366 
L 131.945404 -108.870146 
L 130.822032 -108.870146 
L 129.69866 -108.870146 
L 128.575288 -108.870146 
L 127.451916 -108.870146 
L 126.328544 -108.870146 
L 125.205171 -108.870146 
L 124.081799 -108.870146 
L 122.958427 -108.870146 
L 121.835055 -108.870146 
L 120.711683 -92.643805 
L 119.588311 -92.643805 
L 118.464939 -92.643805 
L 117.341567 -92.643805 
L 116.218194 -92.643805 
L 115.094822 -92.643805 
L 113.97145 -92.643805 
L 112.848078 -92.643805 
L 111.724706 -92.643805 
L 110.601334 -92.643805 
L 109.477962 -77.892585 
L 108.354589 -77.892585 
L 107.231217 -77.892585 
L 106.107845 -77.892585 
L 104.984473 -77.892585 
L 103.861101 -77.892585 
L 102.737729 -77.892585 
L 101.614357 -77.892585 
L 100.490985 -77.892585 
L 99.367612 -77.892585 
L 98.24424 -66.829171 
L 97.120868 -66.829171 
L 95.997496 -66.829171 
L 94.874124 -66.829171 
L 93.750752 -66.829171 
L 92.62738 -66.829171 
L 91.504008 -66.829171 
L 90.380635 -66.829171 
L 89.257263 -66.829171 
L 88.133891 -66.829171 
L 87.010519 -61.666244 
L 85.887147 -61.666244 
L 84.763775 -61.666244 
L 83.640403 -61.666244 
L 82.517031 -61.666244 
L 81.393658 -61.666244 
L 80.270286 -61.666244 
L 79.146914 -61.666244 
L 78.023542 -61.666244 
L 76.90017 -61.666244 
L 75.776798 -59.453561 
L 74.653426 -59.453561 
L 73.530053 -59.453561 
L 72.406681 -59.453561 
L 71.283309 -59.453561 
L 70.159937 -59.453561 
L 69.036565 -59.453561 
L 67.913193 -59.453561 
L 66.789821 -59.453561 
L 65.666449 -59.453561 
L 64.543076 -284.409659 
L 63.419704 -284.409659 
L 62.296332 -284.409659 
L 61.17296 -284.409659 
L 60.049588 -284.409659 
L 58.926216 -284.409659 
L 57.802844 -284.409659 
L 56.679472 -284.409659 
L 55.556099 -284.409659 
L 54.432727 -284.409659 
z
" id="m73ca4231a6" style="stroke:#a25050;"/>
    </defs>
    <g clip-path="url(#p66b6ae95ea)">
     <use style="fill:#a25050;stroke:#a25050;" x="0" xlink:href="#m73ca4231a6" y="339.258"/>
    </g>
   </g>
   <g id="matplotlib.axis_1">
    <g id="xtick_1">
     <g id="line2d_1">
      <defs>
       <path d="M 0 0 
L 0 3.5 
" id="m24ab579059" style="stroke:#000000;stroke-width:0.8;"/>
      </defs>
      <g>
       <use style="stroke:#000000;stroke-width:0.8;" x="54.432727" xlink:href="#m24ab579059" y="292.638"/>
      </g>
     </g>
     <g id="text_1">
      <!-- 0 -->
      <g transform="translate(50.432727 310.743)scale(0.16 -0.16)">
       <defs>
        <path d="M 2925 2086 
C 2925 2592 2899 3187 2630 3706 
C 2368 4186 1926 4339 1600 4339 
C 1222 4339 774 4166 512 3597 
C 301 3130 269 2598 269 2086 
C 269 1581 294 1114 486 646 
C 742 32 1229 -141 1594 -141 
C 2061 -141 2464 122 2669 563 
C 2861 979 2925 1402 2925 2086 
z
M 2426 2163 
C 2426 1741 2426 1338 2310 934 
C 2144 352 1805 250 1600 250 
C 1267 250 1005 493 877 954 
C 774 1318 768 1664 768 2163 
C 768 2566 768 2950 877 3302 
C 915 3424 1075 3949 1594 3949 
C 2093 3949 2259 3462 2304 3347 
C 2426 2989 2426 2560 2426 2163 
z
" id="LMSans10-Regular-30" transform="scale(0.015625)"/>
       </defs>
       <use xlink:href="#LMSans10-Regular-30"/>
      </g>
     </g>
    </g>
    <g id="xtick_2">
     <g id="line2d_2">
      <g>
       <use style="stroke:#000000;stroke-width:0.8;" x="110.407649" xlink:href="#m24ab579059" y="292.638"/>
      </g>
     </g>
     <g id="text_2">
      <!-- 5 -->
      <g transform="translate(106.407649 310.743)scale(0.16 -0.16)">
       <defs>
        <path d="M 2874 1299 
C 2874 2099 2323 2733 1664 2733 
C 1408 2733 1165 2637 979 2470 
L 979 3789 
L 2662 3789 
L 2662 4198 
L 518 4198 
L 518 1837 
L 941 1837 
C 1050 2093 1286 2342 1658 2342 
C 1958 2342 2304 2080 2304 1312 
C 2304 250 1523 250 1466 250 
C 1037 250 646 499 461 845 
L 250 486 
C 512 122 954 -141 1472 -141 
C 2234 -141 2874 493 2874 1299 
z
" id="LMSans10-Regular-35" transform="scale(0.015625)"/>
       </defs>
       <use xlink:href="#LMSans10-Regular-35"/>
      </g>
     </g>
    </g>
    <g id="xtick_3">
     <g id="line2d_3">
      <g>
       <use style="stroke:#000000;stroke-width:0.8;" x="166.382571" xlink:href="#m24ab579059" y="292.638"/>
      </g>
     </g>
     <g id="text_3">
      <!-- 10 -->
      <g transform="translate(158.382571 310.743)scale(0.16 -0.16)">
       <defs>
        <path d="M 2714 0 
L 2714 371 
L 1914 371 
L 1914 4339 
L 1786 4339 
C 1408 3949 877 3930 570 3917 
L 570 3546 
C 781 3552 1088 3565 1408 3699 
L 1408 371 
L 608 371 
L 608 0 
L 2714 0 
z
" id="LMSans10-Regular-31" transform="scale(0.015625)"/>
       </defs>
       <use xlink:href="#LMSans10-Regular-31"/>
       <use x="49.999985" xlink:href="#LMSans10-Regular-30"/>
      </g>
     </g>
    </g>
    <g id="xtick_4">
     <g id="line2d_4">
      <g>
       <use style="stroke:#000000;stroke-width:0.8;" x="222.357492" xlink:href="#m24ab579059" y="292.638"/>
      </g>
     </g>
     <g id="text_4">
      <!-- 15 -->
      <g transform="translate(214.357492 310.743)scale(0.16 -0.16)">
       <use xlink:href="#LMSans10-Regular-31"/>
       <use x="49.999985" xlink:href="#LMSans10-Regular-35"/>
      </g>
     </g>
    </g>
    <g id="xtick_5">
     <g id="line2d_5">
      <g>
       <use style="stroke:#000000;stroke-width:0.8;" x="278.332414" xlink:href="#m24ab579059" y="292.638"/>
      </g>
     </g>
     <g id="text_5">
      <!-- 20 -->
      <g transform="translate(270.332414 310.743)scale(0.16 -0.16)">
       <defs>
        <path d="M 2874 0 
L 2874 454 
L 1709 454 
C 1632 454 1555 448 1478 448 
L 781 448 
C 986 627 1472 1107 1670 1293 
C 1792 1408 2118 1677 2240 1792 
C 2528 2080 2874 2419 2874 2963 
C 2874 3699 2355 4339 1510 4339 
C 781 4339 422 3840 269 3290 
C 346 3181 378 3142 390 3123 
C 403 3110 467 3027 531 2938 
C 659 3430 838 3930 1421 3930 
C 2022 3930 2349 3450 2349 2950 
C 2349 2406 1984 2042 1606 1658 
L 1114 1203 
L 320 410 
L 320 0 
L 2874 0 
z
" id="LMSans10-Regular-32" transform="scale(0.015625)"/>
       </defs>
       <use xlink:href="#LMSans10-Regular-32"/>
       <use x="49.999985" xlink:href="#LMSans10-Regular-30"/>
      </g>
     </g>
    </g>
    <g id="xtick_6">
     <g id="line2d_6">
      <g>
       <use style="stroke:#000000;stroke-width:0.8;" x="334.307335" xlink:href="#m24ab579059" y="292.638"/>
      </g>
     </g>
     <g id="text_6">
      <!-- 25 -->
      <g transform="translate(326.307335 310.743)scale(0.16 -0.16)">
       <use xlink:href="#LMSans10-Regular-32"/>
       <use x="49.999985" xlink:href="#LMSans10-Regular-35"/>
      </g>
     </g>
    </g>
    <g id="xtick_7">
     <g id="line2d_7">
      <g>
       <use style="stroke:#000000;stroke-width:0.8;" x="390.282257" xlink:href="#m24ab579059" y="292.638"/>
      </g>
     </g>
     <g id="text_7">
      <!-- 30 -->
      <g transform="translate(382.282257 310.743)scale(0.16 -0.16)">
       <defs>
        <path d="M 2925 1152 
C 2925 1734 2477 2131 2042 2266 
C 2528 2528 2752 2963 2752 3366 
C 2752 3917 2221 4339 1587 4339 
C 1094 4339 627 4083 358 3635 
L 589 3290 
C 774 3738 1190 3968 1581 3968 
C 1914 3968 2227 3776 2227 3366 
C 2227 2976 1965 2598 1574 2509 
C 1536 2502 1523 2502 1069 2464 
L 1069 2074 
L 1523 2074 
C 2214 2074 2355 1478 2355 1158 
C 2355 659 2061 250 1568 250 
C 1126 250 621 474 339 909 
L 269 525 
C 736 -77 1325 -141 1581 -141 
C 2362 -141 2925 480 2925 1152 
z
" id="LMSans10-Regular-33" transform="scale(0.015625)"/>
       </defs>
       <use xlink:href="#LMSans10-Regular-33"/>
       <use x="49.999985" xlink:href="#LMSans10-Regular-30"/>
      </g>
     </g>
    </g>
    <g id="text_8">
     <!-- y -->
     <g transform="translate(213.0725 328.778)scale(0.16 -0.16)">
      <defs>
       <path d="M 2854 2842 
L 2374 2842 
C 1542 806 1530 512 1523 365 
L 1517 365 
C 1478 794 966 1984 941 2042 
L 595 2842 
L 90 2842 
L 1331 0 
L 1101 -576 
C 934 -947 826 -947 736 -947 
C 634 -947 429 -922 237 -845 
L 275 -1261 
C 416 -1293 595 -1312 736 -1312 
C 960 -1312 1197 -1235 1459 -582 
L 2854 2842 
z
" id="LMSans10-Regular-79" transform="scale(0.015625)"/>
      </defs>
      <use xlink:href="#LMSans10-Regular-79"/>
     </g>
    </g>
   </g>
   <g id="matplotlib.axis_2">
    <g id="ytick_1">
     <g id="line2d_8">
      <defs>
       <path d="M 0 0 
L -3.5 0 
" id="m9b9a0c50a8" style="stroke:#000000;stroke-width:0.8;"/>
      </defs>
      <g>
       <use style="stroke:#000000;stroke-width:0.8;" x="38.2" xlink:href="#m9b9a0c50a8" y="280.542"/>
      </g>
     </g>
     <g id="text_9">
      <!-- 0 -->
      <g transform="translate(23.2 286.0945)scale(0.16 -0.16)">
       <use xlink:href="#LMSans10-Regular-30"/>
      </g>
     </g>
    </g>
    <g id="ytick_2">
     <g id="line2d_9">
      <g>
       <use style="stroke:#000000;stroke-width:0.8;" x="38.2" xlink:href="#m9b9a0c50a8" y="243.663951"/>
      </g>
     </g>
     <g id="text_10">
      <!-- 50 -->
      <g transform="translate(15.2 249.216451)scale(0.16 -0.16)">
       <use xlink:href="#LMSans10-Regular-35"/>
       <use x="49.999985" xlink:href="#LMSans10-Regular-30"/>
      </g>
     </g>
    </g>
    <g id="ytick_3">
     <g id="line2d_10">
      <g>
       <use style="stroke:#000000;stroke-width:0.8;" x="38.2" xlink:href="#m9b9a0c50a8" y="206.785902"/>
      </g>
     </g>
     <g id="text_11">
      <!-- 100 -->
      <g transform="translate(7.2 212.338402)scale(0.16 -0.16)">
       <use xlink:href="#LMSans10-Regular-31"/>
       <use x="49.999985" xlink:href="#LMSans10-Regular-30"/>
       <use x="99.999969" xlink:href="#LMSans10-Regular-30"/>
      </g>
     </g>
    </g>
    <g id="ytick_4">
     <g id="line2d_11">
      <g>
       <use style="stroke:#000000;stroke-width:0.8;" x="38.2" xlink:href="#m9b9a0c50a8" y="169.907854"/>
      </g>
     </g>
     <g id="text_12">
      <!-- 150 -->
      <g transform="translate(7.2 175.460354)scale(0.16 -0.16)">
       <use xlink:href="#LMSans10-Regular-31"/>
       <use x="49.999985" xlink:href="#LMSans10-Regular-35"/>
       <use x="99.999969" xlink:href="#LMSans10-Regular-30"/>
      </g>
     </g>
    </g>
    <g id="ytick_5">
     <g id="line2d_12">
      <g>
       <use style="stroke:#000000;stroke-width:0.8;" x="38.2" xlink:href="#m9b9a0c50a8" y="133.029805"/>
      </g>
     </g>
     <g id="text_13">
      <!-- 200 -->
      <g transform="translate(7.2 138.582305)scale(0.16 -0.16)">
       <use xlink:href="#LMSans10-Regular-32"/>
       <use x="49.999985" xlink:href="#LMSans10-Regular-30"/>
       <use x="99.999969" xlink:href="#LMSans10-Regular-30"/>
      </g>
     </g>
    </g>
    <g id="ytick_6">
     <g id="line2d_13">
      <g>
       <use style="stroke:#000000;stroke-width:0.8;" x="38.2" xlink:href="#m9b9a0c50a8" y="96.151756"/>
      </g>
     </g>
     <g id="text_14">
      <!-- 250 -->
      <g transform="translate(7.2 101.704256)scale(0.16 -0.16)">
       <use xlink:href="#LMSans10-Regular-32"/>
       <use x="49.999985" xlink:href="#LMSans10-Regular-35"/>
       <use x="99.999969" xlink:href="#LMSans10-Regular-30"/>
      </g>
     </g>
    </g>
    <g id="ytick_7">
     <g id="line2d_14">
      <g>
       <use style="stroke:#000000;stroke-width:0.8;" x="38.2" xlink:href="#m9b9a0c50a8" y="59.273707"/>
      </g>
     </g>
     <g id="text_15">
      <!-- 300 -->
      <g transform="translate(7.2 64.826207)scale(0.16 -0.16)">
       <use xlink:href="#LMSans10-Regular-33"/>
       <use x="49.999985" xlink:href="#LMSans10-Regular-30"/>
       <use x="99.999969" xlink:href="#LMSans10-Regular-30"/>
      </g>
     </g>
    </g>
   </g>
   <g id="line2d_15">
    <path clip-path="url(#p66b6ae95ea)" d="M 54.432727 58.536146 
L 64.543076 58.536146 
L 65.666449 279.804439 
L 75.776798 279.804439 
L 76.90017 278.329317 
L 87.010519 278.329317 
L 88.133891 272.428829 
L 98.24424 272.428829 
L 99.367612 262.840537 
L 109.477962 262.840537 
L 110.601334 248.089317 
L 120.711683 248.089317 
L 121.835055 231.862976 
L 131.945404 231.862976 
L 133.068776 217.849317 
L 143.179126 217.849317 
L 144.302498 209.736146 
L 165.646568 209.736146 
L 166.76994 216.374195 
L 176.880289 216.374195 
L 178.003662 228.175171 
L 188.114011 228.175171 
L 189.237383 241.451268 
L 199.347732 241.451268 
L 200.471104 253.252244 
L 210.581453 253.252244 
L 211.704825 262.840537 
L 221.815175 262.840537 
L 222.938547 280.542 
L 379.087273 280.542 
L 379.087273 280.542 
" style="fill:none;stroke:#7c0000;stroke-linecap:square;stroke-width:1.5;"/>
   </g>
   <g id="line2d_16">
    <path clip-path="url(#p66b6ae95ea)" d="M 54.432727 59.273707 
L 64.543076 59.273707 
L 65.666449 280.542 
L 75.776798 280.542 
L 76.90017 279.804439 
L 87.010519 279.804439 
L 88.133891 271.691268 
L 98.24424 271.691268 
L 99.367612 268.741024 
L 109.477962 268.741024 
L 110.601334 237.025902 
L 120.711683 237.025902 
L 121.835055 234.81322 
L 131.945404 234.81322 
L 133.068776 204.57322 
L 143.179126 204.57322 
L 144.302498 217.849317 
L 154.412847 217.849317 
L 155.536219 222.274683 
L 165.646568 222.274683 
L 166.76994 212.68639 
L 176.880289 212.68639 
L 178.003662 223.012244 
L 188.114011 223.012244 
L 189.237383 242.188829 
L 199.347732 242.188829 
L 200.471104 253.252244 
L 210.581453 253.252244 
L 211.704825 262.840537 
L 221.815175 262.840537 
L 222.938547 280.542 
L 379.087273 280.542 
L 379.087273 280.542 
" style="fill:none;stroke:#000000;stroke-linecap:square;stroke-width:1.5;"/>
   </g>
   <g id="line2d_17">
    <path clip-path="url(#p66b6ae95ea)" d="M 334.307335 292.638 
L 334.307335 26.526 
" style="fill:none;stroke:#000000;stroke-linecap:square;stroke-width:2;"/>
   </g>
   <g id="patch_3">
    <path d="M 38.2 292.638 
L 38.2 26.526 
" style="fill:none;stroke:#000000;stroke-linecap:square;stroke-linejoin:miter;stroke-width:0.8;"/>
   </g>
   <g id="patch_4">
    <path d="M 395.32 292.638 
L 395.32 26.526 
" style="fill:none;stroke:#000000;stroke-linecap:square;stroke-linejoin:miter;stroke-width:0.8;"/>
   </g>
   <g id="patch_5">
    <path d="M 38.2 292.638 
L 395.32 292.638 
" style="fill:none;stroke:#000000;stroke-linecap:square;stroke-linejoin:miter;stroke-width:0.8;"/>
   </g>
   <g id="patch_6">
    <path d="M 38.2 26.526 
L 395.32 26.526 
" style="fill:none;stroke:#000000;stroke-linecap:square;stroke-linejoin:miter;stroke-width:0.8;"/>
   </g>
   <g id="text_16">
    <!-- Posterior predictive distribution -->
    <g transform="translate(90.457 20.526)scale(0.192 -0.192)">
     <defs>
      <path d="M 3725 3149 
C 3725 3834 3091 4442 2208 4442 
L 614 4442 
L 614 0 
L 1184 0 
L 1184 1850 
L 2253 1850 
C 3046 1850 3725 2432 3725 3149 
z
M 3206 3149 
C 3206 2643 2803 2221 2067 2221 
L 1165 2221 
L 1165 4083 
L 2067 4083 
C 2771 4083 3206 3693 3206 3149 
z
" id="LMSans10-Regular-50" transform="scale(0.015625)"/>
      <path d="M 3002 1408 
C 3002 2266 2362 2950 1600 2950 
C 813 2950 192 2246 192 1408 
C 192 563 845 -70 1594 -70 
C 2362 -70 3002 576 3002 1408 
z
M 2502 1472 
C 2502 717 2067 339 1594 339 
C 1152 339 691 698 691 1472 
C 691 2246 1178 2560 1594 2560 
C 2042 2560 2502 2227 2502 1472 
z
" id="LMSans10-Regular-6f" transform="scale(0.015625)"/>
      <path d="M 2304 819 
C 2304 1171 2067 1389 2054 1408 
C 1805 1632 1632 1670 1312 1728 
C 960 1798 666 1862 666 2176 
C 666 2573 1126 2573 1210 2573 
C 1414 2573 1754 2547 2118 2330 
L 2195 2746 
C 1862 2899 1600 2950 1274 2950 
C 1114 2950 211 2950 211 2112 
C 211 1798 397 1594 557 1472 
C 755 1331 896 1306 1248 1235 
C 1478 1190 1850 1114 1850 774 
C 1850 333 1344 333 1248 333 
C 730 333 371 570 256 646 
L 179 211 
C 384 109 736 -70 1254 -70 
C 1370 -70 1722 -70 1997 134 
C 2195 288 2304 544 2304 819 
z
" id="LMSans10-Regular-73" transform="scale(0.015625)"/>
      <path d="M 2125 173 
L 2022 550 
C 1856 416 1651 339 1446 339 
C 1210 339 1120 531 1120 870 
L 1120 2470 
L 2022 2470 
L 2022 2842 
L 1120 2842 
L 1120 3654 
L 678 3654 
L 678 2842 
L 122 2842 
L 122 2470 
L 659 2470 
L 659 762 
C 659 378 749 -70 1190 -70 
C 1638 -70 1965 90 2125 173 
z
" id="LMSans10-Regular-74" transform="scale(0.015625)"/>
      <path d="M 2650 1402 
C 2650 1619 2643 2099 2394 2483 
C 2131 2880 1741 2950 1510 2950 
C 800 2950 224 2272 224 1446 
C 224 602 838 -70 1606 -70 
C 2010 -70 2374 83 2624 262 
L 2586 678 
C 2182 346 1760 320 1613 320 
C 1101 320 691 774 672 1402 
L 2650 1402 
z
M 2285 1754 
L 704 1754 
C 806 2240 1146 2560 1510 2560 
C 1843 2560 2202 2342 2285 1754 
z
" id="LMSans10-Regular-65" transform="scale(0.015625)"/>
      <path d="M 2093 2483 
L 2093 2912 
C 1523 2906 1171 2592 973 2298 
L 973 2880 
L 525 2880 
L 525 0 
L 1005 0 
L 1005 1370 
C 1005 2010 1466 2470 2093 2483 
z
" id="LMSans10-Regular-72" transform="scale(0.015625)"/>
      <path d="M 998 0 
L 998 2842 
L 518 2842 
L 518 0 
L 998 0 
z
M 1050 3622 
L 1050 4192 
L 480 4192 
L 480 3622 
L 1050 3622 
z
" id="LMSans10-Regular-69" transform="scale(0.015625)"/>
      <path id="LMSans10-Regular-20" transform="scale(0.015625)"/>
      <path d="M 3072 1427 
C 3072 2195 2669 2912 2054 2912 
C 1670 2912 1299 2778 1005 2528 
L 1005 2842 
L 525 2842 
L 525 -1242 
L 1024 -1242 
L 1024 294 
C 1222 109 1504 -70 1888 -70 
C 2509 -70 3072 557 3072 1427 
z
M 2573 1427 
C 2573 768 2118 320 1638 320 
C 1389 320 1216 448 1088 621 
C 1024 717 1024 730 1024 845 
L 1024 2131 
C 1178 2355 1427 2502 1702 2502 
C 2189 2502 2573 2016 2573 1427 
z
" id="LMSans10-Regular-70" transform="scale(0.015625)"/>
      <path d="M 2778 0 
L 2778 4442 
L 2298 4442 
L 2298 2560 
C 1958 2842 1600 2912 1363 2912 
C 730 2912 230 2246 230 1421 
C 230 582 723 -70 1331 -70 
C 1542 -70 1920 -13 2278 333 
L 2278 0 
L 2778 0 
z
M 2278 890 
C 2278 800 2272 685 2067 499 
C 1920 371 1760 320 1594 320 
C 1197 320 730 621 730 1414 
C 730 2259 1280 2522 1658 2522 
C 1946 2522 2138 2374 2278 2170 
L 2278 890 
z
" id="LMSans10-Regular-64" transform="scale(0.015625)"/>
      <path d="M 2656 256 
L 2618 685 
C 2291 429 1946 339 1619 339 
C 1088 339 730 800 730 1427 
C 730 1926 966 2541 1645 2541 
C 1978 2541 2195 2490 2547 2259 
L 2624 2675 
C 2246 2893 2029 2950 1638 2950 
C 749 2950 230 2176 230 1421 
C 230 627 813 -70 1613 -70 
C 1958 -70 2310 19 2656 256 
z
" id="LMSans10-Regular-63" transform="scale(0.015625)"/>
      <path d="M 2854 2842 
L 2374 2842 
L 1869 1510 
C 1734 1158 1536 640 1485 339 
L 1478 339 
C 1440 570 1274 1011 1210 1184 
L 589 2842 
L 90 2842 
L 1190 0 
L 1754 0 
L 2854 2842 
z
" id="LMSans10-Regular-76" transform="scale(0.015625)"/>
      <path d="M 3072 1427 
C 3072 2221 2637 2912 2035 2912 
C 1786 2912 1389 2848 1005 2534 
L 1005 4442 
L 525 4442 
L 525 0 
L 1024 0 
L 1024 294 
C 1178 154 1453 -70 1882 -70 
C 2522 -70 3072 570 3072 1427 
z
M 2573 1427 
C 2573 595 2035 320 1645 320 
C 1395 320 1184 435 1024 730 
L 1024 2144 
C 1126 2298 1357 2522 1709 2522 
C 2086 2522 2573 2246 2573 1427 
z
" id="LMSans10-Regular-62" transform="scale(0.015625)"/>
      <path d="M 2784 0 
L 2784 2842 
L 2285 2842 
L 2285 986 
C 2285 506 1926 282 1517 282 
C 1062 282 1018 448 1018 723 
L 1018 2842 
L 518 2842 
L 518 698 
C 518 237 666 -70 1197 -70 
C 1536 -70 1990 32 2304 307 
L 2304 0 
L 2784 0 
z
" id="LMSans10-Regular-75" transform="scale(0.015625)"/>
      <path d="M 2784 0 
L 2784 1907 
C 2784 2330 2688 2912 1907 2912 
C 1331 2912 1018 2477 979 2426 
L 979 2880 
L 518 2880 
L 518 0 
L 1018 0 
L 1018 1568 
C 1018 1990 1178 2522 1664 2522 
C 2278 2522 2285 2067 2285 1862 
L 2285 0 
L 2784 0 
z
" id="LMSans10-Regular-6e" transform="scale(0.015625)"/>
     </defs>
     <use xlink:href="#LMSans10-Regular-50"/>
     <use x="63.899994" xlink:href="#LMSans10-Regular-6f"/>
     <use x="113.899979" xlink:href="#LMSans10-Regular-73"/>
     <use x="152.199966" xlink:href="#LMSans10-Regular-74"/>
     <use x="188.299957" xlink:href="#LMSans10-Regular-65"/>
     <use x="232.699951" xlink:href="#LMSans10-Regular-72"/>
     <use x="266.899948" xlink:href="#LMSans10-Regular-69"/>
     <use x="290.799942" xlink:href="#LMSans10-Regular-6f"/>
     <use x="340.799927" xlink:href="#LMSans10-Regular-72"/>
     <use x="374.999924" xlink:href="#LMSans10-Regular-20"/>
     <use x="408.299911" xlink:href="#LMSans10-Regular-70"/>
     <use x="459.999908" xlink:href="#LMSans10-Regular-72"/>
     <use x="494.199905" xlink:href="#LMSans10-Regular-65"/>
     <use x="538.599899" xlink:href="#LMSans10-Regular-64"/>
     <use x="590.299896" xlink:href="#LMSans10-Regular-69"/>
     <use x="614.19989" xlink:href="#LMSans10-Regular-63"/>
     <use x="658.599884" xlink:href="#LMSans10-Regular-74"/>
     <use x="694.699875" xlink:href="#LMSans10-Regular-69"/>
     <use x="718.599869" xlink:href="#LMSans10-Regular-76"/>
     <use x="764.69986" xlink:href="#LMSans10-Regular-65"/>
     <use x="809.099854" xlink:href="#LMSans10-Regular-20"/>
     <use x="842.399841" xlink:href="#LMSans10-Regular-64"/>
     <use x="894.099838" xlink:href="#LMSans10-Regular-69"/>
     <use x="917.999832" xlink:href="#LMSans10-Regular-73"/>
     <use x="956.29982" xlink:href="#LMSans10-Regular-74"/>
     <use x="992.399811" xlink:href="#LMSans10-Regular-72"/>
     <use x="1026.599808" xlink:href="#LMSans10-Regular-69"/>
     <use x="1050.499802" xlink:href="#LMSans10-Regular-62"/>
     <use x="1102.199799" xlink:href="#LMSans10-Regular-75"/>
     <use x="1153.899796" xlink:href="#LMSans10-Regular-74"/>
     <use x="1189.999786" xlink:href="#LMSans10-Regular-69"/>
     <use x="1213.89978" xlink:href="#LMSans10-Regular-6f"/>
     <use x="1263.899765" xlink:href="#LMSans10-Regular-6e"/>
    </g>
   </g>
  </g>
 </g>
 <defs>
  <clipPath id="p66b6ae95ea">
   <rect height="266.112" width="357.12" x="38.2" y="26.526"/>
  </clipPath>
 </defs>
</svg>
