<?xml version="1.0" encoding="utf-8" standalone="no"?>
<!DOCTYPE svg PUBLIC "-//W3C//DTD SVG 1.1//EN"
  "http://www.w3.org/Graphics/SVG/1.1/DTD/svg11.dtd">
<svg height="353.99952pt" version="1.1" viewBox="0 0 469.19952 353.99952" width="469.19952pt" xmlns="http://www.w3.org/2000/svg" xmlns:xlink="http://www.w3.org/1999/xlink">
 <metadata>
  <rdf:RDF xmlns:cc="http://creativecommons.org/ns#" xmlns:dc="http://purl.org/dc/elements/1.1/" xmlns:rdf="http://www.w3.org/1999/02/22-rdf-syntax-ns#">
   <cc:Work>
    <dc:type rdf:resource="http://purl.org/dc/dcmitype/StillImage"/>
    <dc:date>2021-05-27T07:35:22.656998</dc:date>
    <dc:format>image/svg+xml</dc:format>
    <dc:creator>
     <cc:Agent>
      <dc:title>Matplotlib v3.4.2, https://matplotlib.org/</dc:title>
     </cc:Agent>
    </dc:creator>
   </cc:Work>
  </rdf:RDF>
 </metadata>
 <defs>
  <style type="text/css">*{stroke-linecap:butt;stroke-linejoin:round;}</style>
 </defs>
 <g id="figure_1">
  <g id="patch_1">
   <path d="M 0 353.99952 
L 469.19952 353.99952 
L 469.19952 0 
L 0 0 
z
" style="fill:#ffffff;"/>
  </g>
  <g id="axes_1">
   <g id="patch_2">
    <path d="M 7.2 327.86577 
L 461.99952 327.86577 
L 461.99952 24.305 
L 7.2 24.305 
z
" style="fill:#ffffff;"/>
   </g>
   <g id="patch_3">
    <path clip-path="url(#paefd14f793)" d="M 27.872705 327.86577 
L 42.129559 327.86577 
L 42.129559 326.165149 
L 27.872705 326.165149 
z
" style="fill:#1f77b4;opacity:0.35;"/>
   </g>
   <g id="patch_4">
    <path clip-path="url(#paefd14f793)" d="M 42.129559 327.86577 
L 56.386824 327.86577 
L 56.386824 321.063288 
L 42.129559 321.063288 
z
" style="fill:#1f77b4;opacity:0.35;"/>
   </g>
   <g id="patch_5">
    <path clip-path="url(#paefd14f793)" d="M 56.386824 327.86577 
L 70.643678 327.86577 
L 70.643678 310.859564 
L 56.386824 310.859564 
z
" style="fill:#1f77b4;opacity:0.35;"/>
   </g>
   <g id="patch_6">
    <path clip-path="url(#paefd14f793)" d="M 70.643267 327.86577 
L 84.900532 327.86577 
L 84.900532 317.662047 
L 70.643267 317.662047 
z
" style="fill:#1f77b4;opacity:0.35;"/>
   </g>
   <g id="patch_7">
    <path clip-path="url(#paefd14f793)" d="M 84.900944 327.86577 
L 99.157797 327.86577 
L 99.157797 293.853359 
L 84.900944 293.853359 
z
" style="fill:#1f77b4;opacity:0.35;"/>
   </g>
   <g id="patch_8">
    <path clip-path="url(#paefd14f793)" d="M 99.157797 327.86577 
L 113.415063 327.86577 
L 113.415063 259.840948 
L 99.157797 259.840948 
z
" style="fill:#1f77b4;opacity:0.35;"/>
   </g>
   <g id="patch_9">
    <path clip-path="url(#paefd14f793)" d="M 113.415063 327.86577 
L 127.671916 327.86577 
L 127.671916 229.229778 
L 113.415063 229.229778 
z
" style="fill:#1f77b4;opacity:0.35;"/>
   </g>
   <g id="patch_10">
    <path clip-path="url(#paefd14f793)" d="M 127.671505 327.86577 
L 141.92877 327.86577 
L 141.92877 232.631019 
L 127.671505 232.631019 
z
" style="fill:#1f77b4;opacity:0.35;"/>
   </g>
   <g id="patch_11">
    <path clip-path="url(#paefd14f793)" d="M 141.929182 327.86577 
L 156.186035 327.86577 
L 156.186035 186.714264 
L 141.929182 186.714264 
z
" style="fill:#1f77b4;opacity:0.35;"/>
   </g>
   <g id="patch_12">
    <path clip-path="url(#paefd14f793)" d="M 156.186035 327.86577 
L 170.442889 327.86577 
L 170.442889 133.995026 
L 156.186035 133.995026 
z
" style="fill:#1f77b4;opacity:0.35;"/>
   </g>
   <g id="patch_13">
    <path clip-path="url(#paefd14f793)" d="M 170.442889 327.86577 
L 184.700155 327.86577 
L 184.700155 130.593785 
L 170.442889 130.593785 
z
" style="fill:#1f77b4;opacity:0.35;"/>
   </g>
   <g id="patch_14">
    <path clip-path="url(#paefd14f793)" d="M 184.700155 327.86577 
L 198.957008 327.86577 
L 198.957008 65.970204 
L 184.700155 65.970204 
z
" style="fill:#1f77b4;opacity:0.35;"/>
   </g>
   <g id="patch_15">
    <path clip-path="url(#paefd14f793)" d="M 198.956597 327.86577 
L 213.213862 327.86577 
L 213.213862 38.760275 
L 198.956597 38.760275 
z
" style="fill:#1f77b4;opacity:0.35;"/>
   </g>
   <g id="patch_16">
    <path clip-path="url(#paefd14f793)" d="M 213.214274 327.86577 
L 227.471127 327.86577 
L 227.471127 65.970204 
L 213.214274 65.970204 
z
" style="fill:#1f77b4;opacity:0.35;"/>
   </g>
   <g id="patch_17">
    <path clip-path="url(#paefd14f793)" d="M 227.471127 327.86577 
L 241.728393 327.86577 
L 241.728393 60.868342 
L 227.471127 60.868342 
z
" style="fill:#1f77b4;opacity:0.35;"/>
   </g>
   <g id="patch_18">
    <path clip-path="url(#paefd14f793)" d="M 241.728393 327.86577 
L 255.985246 327.86577 
L 255.985246 57.467101 
L 241.728393 57.467101 
z
" style="fill:#1f77b4;opacity:0.35;"/>
   </g>
   <g id="patch_19">
    <path clip-path="url(#paefd14f793)" d="M 255.984835 327.86577 
L 270.2421 327.86577 
L 270.2421 76.173927 
L 255.984835 76.173927 
z
" style="fill:#1f77b4;opacity:0.35;"/>
   </g>
   <g id="patch_20">
    <path clip-path="url(#paefd14f793)" d="M 270.242512 327.86577 
L 284.499365 327.86577 
L 284.499365 101.683235 
L 270.242512 101.683235 
z
" style="fill:#1f77b4;opacity:0.35;"/>
   </g>
   <g id="patch_21">
    <path clip-path="url(#paefd14f793)" d="M 284.499365 327.86577 
L 298.756631 327.86577 
L 298.756631 130.593785 
L 284.499365 130.593785 
z
" style="fill:#1f77b4;opacity:0.35;"/>
   </g>
   <g id="patch_22">
    <path clip-path="url(#paefd14f793)" d="M 298.756631 327.86577 
L 313.013485 327.86577 
L 313.013485 188.414884 
L 298.756631 188.414884 
z
" style="fill:#1f77b4;opacity:0.35;"/>
   </g>
   <g id="patch_23">
    <path clip-path="url(#paefd14f793)" d="M 313.013485 327.86577 
L 327.270338 327.86577 
L 327.270338 219.026054 
L 313.013485 219.026054 
z
" style="fill:#1f77b4;opacity:0.35;"/>
   </g>
   <g id="patch_24">
    <path clip-path="url(#paefd14f793)" d="M 327.269927 327.86577 
L 341.527192 327.86577 
L 341.527192 224.127916 
L 327.269927 224.127916 
z
" style="fill:#1f77b4;opacity:0.35;"/>
   </g>
   <g id="patch_25">
    <path clip-path="url(#paefd14f793)" d="M 341.527604 327.86577 
L 355.784457 327.86577 
L 355.784457 275.146533 
L 341.527604 275.146533 
z
" style="fill:#1f77b4;opacity:0.35;"/>
   </g>
   <g id="patch_26">
    <path clip-path="url(#paefd14f793)" d="M 355.784457 327.86577 
L 370.041723 327.86577 
L 370.041723 293.853359 
L 355.784457 293.853359 
z
" style="fill:#1f77b4;opacity:0.35;"/>
   </g>
   <g id="patch_27">
    <path clip-path="url(#paefd14f793)" d="M 370.041723 327.86577 
L 384.298576 327.86577 
L 384.298576 304.057082 
L 370.041723 304.057082 
z
" style="fill:#1f77b4;opacity:0.35;"/>
   </g>
   <g id="patch_28">
    <path clip-path="url(#paefd14f793)" d="M 384.298165 327.86577 
L 398.55543 327.86577 
L 398.55543 302.356462 
L 384.298165 302.356462 
z
" style="fill:#1f77b4;opacity:0.35;"/>
   </g>
   <g id="patch_29">
    <path clip-path="url(#paefd14f793)" d="M 398.555842 327.86577 
L 412.812696 327.86577 
L 412.812696 315.961426 
L 398.555842 315.961426 
z
" style="fill:#1f77b4;opacity:0.35;"/>
   </g>
   <g id="patch_30">
    <path clip-path="url(#paefd14f793)" d="M 412.812696 327.86577 
L 427.069961 327.86577 
L 427.069961 322.763908 
L 412.812696 322.763908 
z
" style="fill:#1f77b4;opacity:0.35;"/>
   </g>
   <g id="patch_31">
    <path clip-path="url(#paefd14f793)" d="M 427.069961 327.86577 
L 441.326815 327.86577 
L 441.326815 321.063288 
L 427.069961 321.063288 
z
" style="fill:#1f77b4;opacity:0.35;"/>
   </g>
   <g id="matplotlib.axis_1">
    <g id="xtick_1">
     <g id="line2d_1">
      <defs>
       <path d="M 0 0 
L 0 3 
" id="m59827c7a27" style="stroke:#808080;"/>
      </defs>
      <g>
       <use style="fill:#808080;stroke:#808080;" x="62.303859" xlink:href="#m59827c7a27" y="327.86577"/>
      </g>
     </g>
     <g id="text_1">
      <!-- 5.9 -->
      <g transform="translate(53.358078 344.082645)scale(0.14 -0.14)">
       <defs>
        <path d="M 2874 1299 
C 2874 2099 2323 2733 1664 2733 
C 1408 2733 1165 2637 979 2470 
L 979 3789 
L 2662 3789 
L 2662 4198 
L 518 4198 
L 518 1837 
L 941 1837 
C 1050 2093 1286 2342 1658 2342 
C 1958 2342 2304 2080 2304 1312 
C 2304 250 1523 250 1466 250 
C 1037 250 646 499 461 845 
L 250 486 
C 512 122 954 -141 1472 -141 
C 2234 -141 2874 493 2874 1299 
z
" id="LMSans10-Regular-35" transform="scale(0.015625)"/>
        <path d="M 1152 0 
L 1152 531 
L 621 531 
L 621 0 
L 1152 0 
z
" id="LMSans10-Regular-2e" transform="scale(0.015625)"/>
        <path d="M 2925 2144 
C 2925 3936 2163 4339 1619 4339 
C 1171 4339 909 4147 685 3910 
C 282 3475 269 3053 269 2778 
C 269 1958 691 1242 1306 1242 
C 1702 1242 2112 1427 2387 1773 
C 2317 742 1824 250 1318 250 
C 1101 250 890 301 659 493 
L 461 154 
C 678 -6 915 -141 1312 -141 
C 2150 -141 2925 749 2925 2144 
z
M 2374 2630 
C 2374 2106 2061 1632 1555 1632 
C 1254 1632 1075 1779 941 2016 
C 800 2266 794 2502 794 2778 
C 794 3059 800 3322 979 3603 
C 1107 3789 1286 3968 1619 3968 
C 2246 3968 2355 3098 2368 2784 
C 2374 2739 2374 2675 2374 2630 
z
" id="LMSans10-Regular-39" transform="scale(0.015625)"/>
       </defs>
       <use xlink:href="#LMSans10-Regular-35"/>
       <use x="49.999985" xlink:href="#LMSans10-Regular-2e"/>
       <use x="77.799973" xlink:href="#LMSans10-Regular-39"/>
      </g>
     </g>
    </g>
    <g id="xtick_2">
     <g id="line2d_2">
      <g>
       <use style="fill:#808080;stroke:#808080;" x="148.561979" xlink:href="#m59827c7a27" y="327.86577"/>
      </g>
     </g>
     <g id="text_2">
      <!-- 6.0 -->
      <g transform="translate(139.616198 344.082645)scale(0.14 -0.14)">
       <defs>
        <path d="M 2925 1421 
C 2925 2240 2502 2957 1888 2957 
C 1683 2957 1197 2906 806 2426 
C 890 3456 1395 3968 1984 3968 
C 2227 3968 2432 3923 2656 3834 
L 2656 4211 
C 2330 4339 2067 4339 1978 4339 
C 1075 4339 269 3437 269 2061 
C 269 250 1062 -141 1606 -141 
C 1990 -141 2266 6 2515 294 
C 2803 621 2925 915 2925 1421 
z
M 2400 1421 
C 2400 1203 2400 909 2246 646 
C 2138 467 1971 250 1606 250 
C 928 250 832 1190 813 1402 
C 813 1491 813 1504 819 1581 
C 819 2054 1107 2566 1638 2566 
C 1946 2566 2125 2406 2253 2170 
C 2387 1933 2400 1709 2400 1421 
z
" id="LMSans10-Regular-36" transform="scale(0.015625)"/>
        <path d="M 2925 2086 
C 2925 2592 2899 3187 2630 3706 
C 2368 4186 1926 4339 1600 4339 
C 1222 4339 774 4166 512 3597 
C 301 3130 269 2598 269 2086 
C 269 1581 294 1114 486 646 
C 742 32 1229 -141 1594 -141 
C 2061 -141 2464 122 2669 563 
C 2861 979 2925 1402 2925 2086 
z
M 2426 2163 
C 2426 1741 2426 1338 2310 934 
C 2144 352 1805 250 1600 250 
C 1267 250 1005 493 877 954 
C 774 1318 768 1664 768 2163 
C 768 2566 768 2950 877 3302 
C 915 3424 1075 3949 1594 3949 
C 2093 3949 2259 3462 2304 3347 
C 2426 2989 2426 2560 2426 2163 
z
" id="LMSans10-Regular-30" transform="scale(0.015625)"/>
       </defs>
       <use xlink:href="#LMSans10-Regular-36"/>
       <use x="49.999985" xlink:href="#LMSans10-Regular-2e"/>
       <use x="77.799973" xlink:href="#LMSans10-Regular-30"/>
      </g>
     </g>
    </g>
    <g id="xtick_3">
     <g id="line2d_3">
      <g>
       <use style="fill:#808080;stroke:#808080;" x="234.820099" xlink:href="#m59827c7a27" y="327.86577"/>
      </g>
     </g>
     <g id="text_3">
      <!-- 6.1 -->
      <g transform="translate(225.874318 344.082645)scale(0.14 -0.14)">
       <defs>
        <path d="M 2714 0 
L 2714 371 
L 1914 371 
L 1914 4339 
L 1786 4339 
C 1408 3949 877 3930 570 3917 
L 570 3546 
C 781 3552 1088 3565 1408 3699 
L 1408 371 
L 608 371 
L 608 0 
L 2714 0 
z
" id="LMSans10-Regular-31" transform="scale(0.015625)"/>
       </defs>
       <use xlink:href="#LMSans10-Regular-36"/>
       <use x="49.999985" xlink:href="#LMSans10-Regular-2e"/>
       <use x="77.799973" xlink:href="#LMSans10-Regular-31"/>
      </g>
     </g>
    </g>
    <g id="xtick_4">
     <g id="line2d_4">
      <g>
       <use style="fill:#808080;stroke:#808080;" x="321.078219" xlink:href="#m59827c7a27" y="327.86577"/>
      </g>
     </g>
     <g id="text_4">
      <!-- 6.2 -->
      <g transform="translate(312.132438 344.082645)scale(0.14 -0.14)">
       <defs>
        <path d="M 2874 0 
L 2874 454 
L 1709 454 
C 1632 454 1555 448 1478 448 
L 781 448 
C 986 627 1472 1107 1670 1293 
C 1792 1408 2118 1677 2240 1792 
C 2528 2080 2874 2419 2874 2963 
C 2874 3699 2355 4339 1510 4339 
C 781 4339 422 3840 269 3290 
C 346 3181 378 3142 390 3123 
C 403 3110 467 3027 531 2938 
C 659 3430 838 3930 1421 3930 
C 2022 3930 2349 3450 2349 2950 
C 2349 2406 1984 2042 1606 1658 
L 1114 1203 
L 320 410 
L 320 0 
L 2874 0 
z
" id="LMSans10-Regular-32" transform="scale(0.015625)"/>
       </defs>
       <use xlink:href="#LMSans10-Regular-36"/>
       <use x="49.999985" xlink:href="#LMSans10-Regular-2e"/>
       <use x="77.799973" xlink:href="#LMSans10-Regular-32"/>
      </g>
     </g>
    </g>
    <g id="xtick_5">
     <g id="line2d_5">
      <g>
       <use style="fill:#808080;stroke:#808080;" x="407.336339" xlink:href="#m59827c7a27" y="327.86577"/>
      </g>
     </g>
     <g id="text_5">
      <!-- 6.3 -->
      <g transform="translate(398.390558 344.082645)scale(0.14 -0.14)">
       <defs>
        <path d="M 2925 1152 
C 2925 1734 2477 2131 2042 2266 
C 2528 2528 2752 2963 2752 3366 
C 2752 3917 2221 4339 1587 4339 
C 1094 4339 627 4083 358 3635 
L 589 3290 
C 774 3738 1190 3968 1581 3968 
C 1914 3968 2227 3776 2227 3366 
C 2227 2976 1965 2598 1574 2509 
C 1536 2502 1523 2502 1069 2464 
L 1069 2074 
L 1523 2074 
C 2214 2074 2355 1478 2355 1158 
C 2355 659 2061 250 1568 250 
C 1126 250 621 474 339 909 
L 269 525 
C 736 -77 1325 -141 1581 -141 
C 2362 -141 2925 480 2925 1152 
z
" id="LMSans10-Regular-33" transform="scale(0.015625)"/>
       </defs>
       <use xlink:href="#LMSans10-Regular-36"/>
       <use x="49.999985" xlink:href="#LMSans10-Regular-2e"/>
       <use x="77.799973" xlink:href="#LMSans10-Regular-33"/>
      </g>
     </g>
    </g>
   </g>
   <g id="matplotlib.axis_2"/>
   <g id="line2d_6">
    <path clip-path="url(#paefd14f793)" d="M 110.499281 321.794555 
L 359.363272 321.794555 
" style="fill:none;stroke:#000000;stroke-width:3;"/>
   </g>
   <g id="patch_32">
    <path d="M 7.2 327.86577 
L 461.99952 327.86577 
" style="fill:none;stroke:#808080;stroke-linecap:square;stroke-linejoin:miter;stroke-width:0.8;"/>
   </g>
   <g id="text_6">
    <!-- 6  -->
    <g transform="translate(98.004749 306.616516)scale(0.15 -0.15)">
     <defs>
      <path id="LMSans10-Regular-20" transform="scale(0.015625)"/>
     </defs>
     <use xlink:href="#LMSans10-Regular-36"/>
     <use x="49.999985" xlink:href="#LMSans10-Regular-20"/>
    </g>
   </g>
   <g id="text_7">
    <!--  6.2 -->
    <g transform="translate(359.363272 306.616516)scale(0.15 -0.15)">
     <use xlink:href="#LMSans10-Regular-20"/>
     <use x="33.299988" xlink:href="#LMSans10-Regular-36"/>
     <use x="83.299973" xlink:href="#LMSans10-Regular-2e"/>
     <use x="111.09996" xlink:href="#LMSans10-Regular-32"/>
    </g>
   </g>
   <g id="text_8">
    <!-- 94% HDI -->
    <g transform="translate(205.877185 236.797539)scale(0.15 -0.15)">
     <defs>
      <path d="M 3014 1094 
L 3014 1485 
L 2381 1485 
L 2381 4198 
L 1798 4198 
L 179 1485 
L 179 1094 
L 1875 1094 
L 1875 0 
L 2381 0 
L 2381 1094 
L 3014 1094 
z
M 1914 1485 
L 678 1485 
C 1011 2035 1907 3552 1914 3917 
L 1914 1485 
z
" id="LMSans10-Regular-34" transform="scale(0.015625)"/>
      <path d="M 2131 3507 
C 2131 4275 1702 4800 1254 4800 
C 787 4800 358 4262 358 3514 
C 358 2746 800 2221 1254 2221 
C 1709 2221 2131 2765 2131 3507 
z
M 4218 4672 
C 4218 4742 4160 4800 4090 4800 
C 4013 4800 3981 4736 3955 4698 
L 1171 -115 
C 1171 -115 1126 -186 1126 -230 
C 1126 -301 1190 -358 1254 -358 
C 1325 -358 1357 -314 1389 -256 
L 4166 4557 
C 4218 4634 4218 4646 4218 4672 
z
M 4966 928 
C 4966 1696 4538 2221 4090 2221 
C 3622 2221 3194 1683 3194 934 
C 3194 166 3635 -358 4090 -358 
C 4544 -358 4966 186 4966 928 
z
M 1690 3514 
C 1690 3021 1504 2611 1254 2611 
C 1184 2611 838 2630 838 3507 
C 838 4358 1165 4410 1254 4410 
C 1510 4410 1690 3981 1690 3514 
z
M 4525 934 
C 4525 442 4339 32 4090 32 
C 4019 32 3674 51 3674 928 
C 3674 1779 4000 1830 4090 1830 
C 4346 1830 4525 1402 4525 934 
z
" id="LMSans10-Regular-25" transform="scale(0.015625)"/>
      <path d="M 3923 0 
L 3923 4442 
L 3354 4442 
L 3354 2502 
L 1171 2502 
L 1171 4442 
L 602 4442 
L 602 0 
L 1171 0 
L 1171 2112 
L 3354 2112 
L 3354 0 
L 3923 0 
z
" id="LMSans10-Regular-48" transform="scale(0.015625)"/>
      <path d="M 4256 2182 
C 4256 3424 3392 4442 2291 4442 
L 614 4442 
L 614 0 
L 2298 0 
C 3386 0 4256 973 4256 2182 
z
M 3706 2182 
C 3706 1094 3040 358 2144 358 
L 1165 358 
L 1165 4083 
L 2144 4083 
C 3040 4083 3706 3309 3706 2182 
z
" id="LMSans10-Regular-44" transform="scale(0.015625)"/>
      <path d="M 1171 0 
L 1171 4442 
L 602 4442 
L 602 0 
L 1171 0 
z
" id="LMSans10-Regular-49" transform="scale(0.015625)"/>
     </defs>
     <use xlink:href="#LMSans10-Regular-39"/>
     <use x="49.999985" xlink:href="#LMSans10-Regular-34"/>
     <use x="99.999969" xlink:href="#LMSans10-Regular-25"/>
     <use x="183.299957" xlink:href="#LMSans10-Regular-20"/>
     <use x="216.599945" xlink:href="#LMSans10-Regular-48"/>
     <use x="287.399933" xlink:href="#LMSans10-Regular-44"/>
     <use x="359.599915" xlink:href="#LMSans10-Regular-49"/>
    </g>
   </g>
   <g id="text_9">
    <!-- mean=6.1 -->
    <g transform="translate(204.507416 85.017154)scale(0.15 -0.15)">
     <defs>
      <path d="M 4563 0 
L 4563 1907 
C 4563 2336 4461 2912 3686 2912 
C 3302 2912 2970 2733 2733 2387 
C 2566 2874 2118 2912 1914 2912 
C 1453 2912 1152 2650 979 2419 
L 979 2880 
L 518 2880 
L 518 0 
L 1018 0 
L 1018 1568 
C 1018 2003 1190 2522 1664 2522 
C 2259 2522 2291 2106 2291 1862 
L 2291 0 
L 2790 0 
L 2790 1568 
C 2790 2003 2963 2522 3437 2522 
C 4032 2522 4064 2106 4064 1862 
L 4064 0 
L 4563 0 
z
" id="LMSans10-Regular-6d" transform="scale(0.015625)"/>
      <path d="M 2650 1402 
C 2650 1619 2643 2099 2394 2483 
C 2131 2880 1741 2950 1510 2950 
C 800 2950 224 2272 224 1446 
C 224 602 838 -70 1606 -70 
C 2010 -70 2374 83 2624 262 
L 2586 678 
C 2182 346 1760 320 1613 320 
C 1101 320 691 774 672 1402 
L 2650 1402 
z
M 2285 1754 
L 704 1754 
C 806 2240 1146 2560 1510 2560 
C 1843 2560 2202 2342 2285 1754 
z
" id="LMSans10-Regular-65" transform="scale(0.015625)"/>
      <path d="M 2618 0 
L 2618 1850 
C 2618 2502 2150 2950 1562 2950 
C 1146 2950 858 2848 557 2675 
L 595 2253 
C 928 2490 1248 2573 1562 2573 
C 1862 2573 2118 2317 2118 1843 
L 2118 1568 
C 1158 1555 346 1286 346 723 
C 346 448 518 -70 1075 -70 
C 1165 -70 1766 -58 2138 230 
L 2138 0 
L 2618 0 
z
M 2118 845 
C 2118 723 2118 563 1901 442 
C 1715 326 1472 320 1402 320 
C 1094 320 806 467 806 736 
C 806 1184 1843 1229 2118 1242 
L 2118 845 
z
" id="LMSans10-Regular-61" transform="scale(0.015625)"/>
      <path d="M 2784 0 
L 2784 1907 
C 2784 2330 2688 2912 1907 2912 
C 1331 2912 1018 2477 979 2426 
L 979 2880 
L 518 2880 
L 518 0 
L 1018 0 
L 1018 1568 
C 1018 1990 1178 2522 1664 2522 
C 2278 2522 2285 2067 2285 1862 
L 2285 0 
L 2784 0 
z
" id="LMSans10-Regular-6e" transform="scale(0.015625)"/>
      <path d="M 4614 2240 
C 4614 2368 4493 2368 4403 2368 
L 570 2368 
C 480 2368 358 2368 358 2240 
C 358 2112 480 2112 576 2112 
L 4397 2112 
C 4493 2112 4614 2112 4614 2240 
z
M 4614 960 
C 4614 1088 4493 1088 4397 1088 
L 576 1088 
C 480 1088 358 1088 358 960 
C 358 832 480 832 570 832 
L 4403 832 
C 4493 832 4614 832 4614 960 
z
" id="LMSans10-Regular-3d" transform="scale(0.015625)"/>
     </defs>
     <use xlink:href="#LMSans10-Regular-6d"/>
     <use x="79.399994" xlink:href="#LMSans10-Regular-65"/>
     <use x="123.799988" xlink:href="#LMSans10-Regular-61"/>
     <use x="171.899979" xlink:href="#LMSans10-Regular-6e"/>
     <use x="223.599976" xlink:href="#LMSans10-Regular-3d"/>
     <use x="301.399963" xlink:href="#LMSans10-Regular-36"/>
     <use x="351.399948" xlink:href="#LMSans10-Regular-2e"/>
     <use x="379.199936" xlink:href="#LMSans10-Regular-31"/>
    </g>
   </g>
   <g id="text_10">
    <!-- lbda -->
    <g transform="translate(220.56726 18.305)scale(0.16 -0.16)">
     <defs>
      <path d="M 998 0 
L 998 4442 
L 518 4442 
L 518 0 
L 998 0 
z
" id="LMSans10-Regular-6c" transform="scale(0.015625)"/>
      <path d="M 3072 1427 
C 3072 2221 2637 2912 2035 2912 
C 1786 2912 1389 2848 1005 2534 
L 1005 4442 
L 525 4442 
L 525 0 
L 1024 0 
L 1024 294 
C 1178 154 1453 -70 1882 -70 
C 2522 -70 3072 570 3072 1427 
z
M 2573 1427 
C 2573 595 2035 320 1645 320 
C 1395 320 1184 435 1024 730 
L 1024 2144 
C 1126 2298 1357 2522 1709 2522 
C 2086 2522 2573 2246 2573 1427 
z
" id="LMSans10-Regular-62" transform="scale(0.015625)"/>
      <path d="M 2778 0 
L 2778 4442 
L 2298 4442 
L 2298 2560 
C 1958 2842 1600 2912 1363 2912 
C 730 2912 230 2246 230 1421 
C 230 582 723 -70 1331 -70 
C 1542 -70 1920 -13 2278 333 
L 2278 0 
L 2778 0 
z
M 2278 890 
C 2278 800 2272 685 2067 499 
C 1920 371 1760 320 1594 320 
C 1197 320 730 621 730 1414 
C 730 2259 1280 2522 1658 2522 
C 1946 2522 2138 2374 2278 2170 
L 2278 890 
z
" id="LMSans10-Regular-64" transform="scale(0.015625)"/>
     </defs>
     <use xlink:href="#LMSans10-Regular-6c"/>
     <use x="23.899994" xlink:href="#LMSans10-Regular-62"/>
     <use x="75.599991" xlink:href="#LMSans10-Regular-64"/>
     <use x="127.299988" xlink:href="#LMSans10-Regular-61"/>
    </g>
   </g>
  </g>
 </g>
 <defs>
  <clipPath id="paefd14f793">
   <rect height="303.56077" width="454.79952" x="7.2" y="24.305"/>
  </clipPath>
 </defs>
</svg>
