<?xml version="1.0" encoding="utf-8" standalone="no"?>
<!DOCTYPE svg PUBLIC "-//W3C//DTD SVG 1.1//EN"
  "http://www.w3.org/Graphics/SVG/1.1/DTD/svg11.dtd">
<svg height="339.258pt" version="1.1" viewBox="0 0 405.482257 339.258" width="405.482257pt" xmlns="http://www.w3.org/2000/svg" xmlns:xlink="http://www.w3.org/1999/xlink">
 <metadata>
  <rdf:RDF xmlns:cc="http://creativecommons.org/ns#" xmlns:dc="http://purl.org/dc/elements/1.1/" xmlns:rdf="http://www.w3.org/1999/02/22-rdf-syntax-ns#">
   <cc:Work>
    <dc:type rdf:resource="http://purl.org/dc/dcmitype/StillImage"/>
    <dc:date>2021-05-27T07:35:28.162257</dc:date>
    <dc:format>image/svg+xml</dc:format>
    <dc:creator>
     <cc:Agent>
      <dc:title>Matplotlib v3.4.2, https://matplotlib.org/</dc:title>
     </cc:Agent>
    </dc:creator>
   </cc:Work>
  </rdf:RDF>
 </metadata>
 <defs>
  <style type="text/css">*{stroke-linecap:butt;stroke-linejoin:round;}</style>
 </defs>
 <g id="figure_1">
  <g id="patch_1">
   <path d="M 0 339.258 
L 405.482257 339.258 
L 405.482257 0 
L 0 0 
z
" style="fill:#ffffff;"/>
  </g>
  <g id="axes_1">
   <g id="patch_2">
    <path d="M 38.2 292.638 
L 395.32 292.638 
L 395.32 26.526 
L 38.2 26.526 
z
" style="fill:#ffffff;"/>
   </g>
   <g id="PolyCollection_1">
    <defs>
     <path d="M 54.432727 -61.9416 
L 54.432727 -58.716 
L 55.556099 -58.716 
L 56.679472 -58.716 
L 57.802844 -58.716 
L 58.926216 -58.716 
L 60.049588 -58.716 
L 61.17296 -58.716 
L 62.296332 -58.716 
L 63.419704 -58.716 
L 64.543076 -58.716 
L 65.666449 -65.9736 
L 66.789821 -65.9736 
L 67.913193 -65.9736 
L 69.036565 -65.9736 
L 70.159937 -65.9736 
L 71.283309 -65.9736 
L 72.406681 -65.9736 
L 73.530053 -65.9736 
L 74.653426 -65.9736 
L 75.776798 -65.9736 
L 76.90017 -85.3272 
L 78.023542 -85.3272 
L 79.146914 -85.3272 
L 80.270286 -85.3272 
L 81.393658 -85.3272 
L 82.517031 -85.3272 
L 83.640403 -85.3272 
L 84.763775 -85.3272 
L 85.887147 -85.3272 
L 87.010519 -85.3272 
L 88.133891 -117.5832 
L 89.257263 -117.5832 
L 90.380635 -117.5832 
L 91.504008 -117.5832 
L 92.62738 -117.5832 
L 93.750752 -117.5832 
L 94.874124 -117.5832 
L 95.997496 -117.5832 
L 97.120868 -117.5832 
L 98.24424 -117.5832 
L 99.367612 -151.452 
L 100.490985 -151.452 
L 101.614357 -151.452 
L 102.737729 -151.452 
L 103.861101 -151.452 
L 104.984473 -151.452 
L 106.107845 -151.452 
L 107.231217 -151.452 
L 108.354589 -151.452 
L 109.477962 -151.452 
L 110.601334 -174.0312 
L 111.724706 -174.0312 
L 112.848078 -174.0312 
L 113.97145 -174.0312 
L 115.094822 -174.0312 
L 116.218194 -174.0312 
L 117.341567 -174.0312 
L 118.464939 -174.0312 
L 119.588311 -174.0312 
L 120.711683 -174.0312 
L 121.835055 -176.4504 
L 122.958427 -176.4504 
L 124.081799 -176.4504 
L 125.205171 -176.4504 
L 126.328544 -176.4504 
L 127.451916 -176.4504 
L 128.575288 -176.4504 
L 129.69866 -176.4504 
L 130.822032 -176.4504 
L 131.945404 -176.4504 
L 133.068776 -160.3224 
L 134.192148 -160.3224 
L 135.315521 -160.3224 
L 136.438893 -160.3224 
L 137.562265 -160.3224 
L 138.685637 -160.3224 
L 139.809009 -160.3224 
L 140.932381 -160.3224 
L 142.055753 -160.3224 
L 143.179126 -160.3224 
L 144.302498 -134.5176 
L 145.42587 -134.5176 
L 146.549242 -134.5176 
L 147.672614 -134.5176 
L 148.795986 -134.5176 
L 149.919358 -134.5176 
L 151.04273 -134.5176 
L 152.166103 -134.5176 
L 153.289475 -134.5176 
L 154.412847 -134.5176 
L 155.536219 -108.7128 
L 156.659591 -108.7128 
L 157.782963 -108.7128 
L 158.906335 -108.7128 
L 160.029707 -108.7128 
L 161.15308 -108.7128 
L 162.276452 -108.7128 
L 163.399824 -108.7128 
L 164.523196 -108.7128 
L 165.646568 -108.7128 
L 166.76994 -86.94 
L 167.893312 -86.94 
L 169.016684 -86.94 
L 170.140057 -86.94 
L 171.263429 -86.94 
L 172.386801 -86.94 
L 173.510173 -86.94 
L 174.633545 -86.94 
L 175.756917 -86.94 
L 176.880289 -86.94 
L 178.003662 -73.2312 
L 179.127034 -73.2312 
L 180.250406 -73.2312 
L 181.373778 -73.2312 
L 182.49715 -73.2312 
L 183.620522 -73.2312 
L 184.743894 -73.2312 
L 185.867266 -73.2312 
L 186.990639 -73.2312 
L 188.114011 -73.2312 
L 189.237383 -65.1672 
L 190.360755 -65.1672 
L 191.484127 -65.1672 
L 192.607499 -65.1672 
L 193.730871 -65.1672 
L 194.854243 -65.1672 
L 195.977616 -65.1672 
L 197.100988 -65.1672 
L 198.22436 -65.1672 
L 199.347732 -65.1672 
L 200.471104 -61.1352 
L 201.594476 -61.1352 
L 202.717848 -61.1352 
L 203.841221 -61.1352 
L 204.964593 -61.1352 
L 206.087965 -61.1352 
L 207.211337 -61.1352 
L 208.334709 -61.1352 
L 209.458081 -61.1352 
L 210.581453 -61.1352 
L 211.704825 -59.5224 
L 212.828198 -59.5224 
L 213.95157 -59.5224 
L 215.074942 -59.5224 
L 216.198314 -59.5224 
L 217.321686 -59.5224 
L 218.445058 -59.5224 
L 219.56843 -59.5224 
L 220.691802 -59.5224 
L 221.815175 -59.5224 
L 222.938547 -58.716 
L 224.061919 -58.716 
L 225.185291 -58.716 
L 226.308663 -58.716 
L 227.432035 -58.716 
L 228.555407 -58.716 
L 229.678779 -58.716 
L 230.802152 -58.716 
L 231.925524 -58.716 
L 233.048896 -58.716 
L 234.172268 -58.716 
L 235.29564 -58.716 
L 236.419012 -58.716 
L 237.542384 -58.716 
L 238.665757 -58.716 
L 239.789129 -58.716 
L 240.912501 -58.716 
L 242.035873 -58.716 
L 243.159245 -58.716 
L 244.282617 -58.716 
L 245.405989 -58.716 
L 246.529361 -58.716 
L 247.652734 -58.716 
L 248.776106 -58.716 
L 249.899478 -58.716 
L 251.02285 -58.716 
L 252.146222 -58.716 
L 253.269594 -58.716 
L 254.392966 -58.716 
L 255.516338 -58.716 
L 256.639711 -58.716 
L 257.763083 -58.716 
L 258.886455 -58.716 
L 260.009827 -58.716 
L 261.133199 -58.716 
L 262.256571 -58.716 
L 263.379943 -58.716 
L 264.503316 -58.716 
L 265.626688 -58.716 
L 266.75006 -58.716 
L 267.873432 -58.716 
L 268.996804 -58.716 
L 270.120176 -58.716 
L 271.243548 -58.716 
L 272.36692 -58.716 
L 273.490293 -58.716 
L 274.613665 -58.716 
L 275.737037 -58.716 
L 276.860409 -58.716 
L 277.983781 -58.716 
L 279.107153 -58.716 
L 280.230525 -58.716 
L 281.353897 -58.716 
L 282.47727 -58.716 
L 283.600642 -58.716 
L 284.724014 -58.716 
L 285.847386 -58.716 
L 286.970758 -58.716 
L 288.09413 -58.716 
L 289.217502 -58.716 
L 290.340874 -58.716 
L 291.464247 -58.716 
L 292.587619 -58.716 
L 293.710991 -58.716 
L 294.834363 -58.716 
L 295.957735 -58.716 
L 297.081107 -58.716 
L 298.204479 -58.716 
L 299.327852 -58.716 
L 300.451224 -58.716 
L 301.574596 -58.716 
L 302.697968 -58.716 
L 303.82134 -58.716 
L 304.944712 -58.716 
L 306.068084 -58.716 
L 307.191456 -58.716 
L 308.314829 -58.716 
L 309.438201 -58.716 
L 310.561573 -58.716 
L 311.684945 -58.716 
L 312.808317 -58.716 
L 313.931689 -58.716 
L 315.055061 -58.716 
L 316.178433 -58.716 
L 317.301806 -58.716 
L 318.425178 -58.716 
L 319.54855 -58.716 
L 320.671922 -58.716 
L 321.795294 -58.716 
L 322.918666 -58.716 
L 324.042038 -58.716 
L 325.165411 -58.716 
L 326.288783 -58.716 
L 327.412155 -58.716 
L 328.535527 -58.716 
L 329.658899 -58.716 
L 330.782271 -58.716 
L 331.905643 -58.716 
L 333.029015 -58.716 
L 334.152388 -58.716 
L 335.27576 -58.716 
L 336.399132 -58.716 
L 337.522504 -58.716 
L 338.645876 -58.716 
L 339.769248 -58.716 
L 340.89262 -58.716 
L 342.015992 -58.716 
L 343.139365 -58.716 
L 344.262737 -58.716 
L 345.386109 -58.716 
L 346.509481 -58.716 
L 347.632853 -58.716 
L 348.756225 -58.716 
L 349.879597 -58.716 
L 351.002969 -58.716 
L 352.126342 -58.716 
L 353.249714 -58.716 
L 354.373086 -58.716 
L 355.496458 -58.716 
L 356.61983 -58.716 
L 357.743202 -58.716 
L 358.866574 -58.716 
L 359.989947 -58.716 
L 361.113319 -58.716 
L 362.236691 -58.716 
L 363.360063 -58.716 
L 364.483435 -58.716 
L 365.606807 -58.716 
L 366.730179 -58.716 
L 367.853551 -58.716 
L 368.976924 -58.716 
L 370.100296 -58.716 
L 371.223668 -58.716 
L 372.34704 -58.716 
L 373.470412 -58.716 
L 374.593784 -58.716 
L 375.717156 -58.716 
L 376.840528 -58.716 
L 377.963901 -58.716 
L 379.087273 -58.716 
L 379.087273 -58.716 
L 379.087273 -58.716 
L 377.963901 -58.716 
L 376.840528 -58.716 
L 375.717156 -58.716 
L 374.593784 -58.716 
L 373.470412 -58.716 
L 372.34704 -58.716 
L 371.223668 -58.716 
L 370.100296 -58.716 
L 368.976924 -58.716 
L 367.853551 -58.716 
L 366.730179 -58.716 
L 365.606807 -58.716 
L 364.483435 -58.716 
L 363.360063 -58.716 
L 362.236691 -58.716 
L 361.113319 -58.716 
L 359.989947 -58.716 
L 358.866574 -58.716 
L 357.743202 -58.716 
L 356.61983 -58.716 
L 355.496458 -58.716 
L 354.373086 -58.716 
L 353.249714 -58.716 
L 352.126342 -58.716 
L 351.002969 -58.716 
L 349.879597 -58.716 
L 348.756225 -58.716 
L 347.632853 -58.716 
L 346.509481 -58.716 
L 345.386109 -58.716 
L 344.262737 -58.716 
L 343.139365 -58.716 
L 342.015992 -58.716 
L 340.89262 -58.716 
L 339.769248 -58.716 
L 338.645876 -58.716 
L 337.522504 -58.716 
L 336.399132 -58.716 
L 335.27576 -58.716 
L 334.152388 -58.716 
L 333.029015 -58.716 
L 331.905643 -58.716 
L 330.782271 -58.716 
L 329.658899 -58.716 
L 328.535527 -58.716 
L 327.412155 -58.716 
L 326.288783 -58.716 
L 325.165411 -58.716 
L 324.042038 -58.716 
L 322.918666 -58.716 
L 321.795294 -58.716 
L 320.671922 -58.716 
L 319.54855 -58.716 
L 318.425178 -58.716 
L 317.301806 -58.716 
L 316.178433 -58.716 
L 315.055061 -58.716 
L 313.931689 -58.716 
L 312.808317 -58.716 
L 311.684945 -58.716 
L 310.561573 -58.716 
L 309.438201 -58.716 
L 308.314829 -58.716 
L 307.191456 -58.716 
L 306.068084 -58.716 
L 304.944712 -58.716 
L 303.82134 -58.716 
L 302.697968 -58.716 
L 301.574596 -58.716 
L 300.451224 -58.716 
L 299.327852 -58.716 
L 298.204479 -58.716 
L 297.081107 -58.716 
L 295.957735 -58.716 
L 294.834363 -58.716 
L 293.710991 -58.716 
L 292.587619 -58.716 
L 291.464247 -58.716 
L 290.340874 -58.716 
L 289.217502 -58.716 
L 288.09413 -58.716 
L 286.970758 -58.716 
L 285.847386 -58.716 
L 284.724014 -58.716 
L 283.600642 -58.716 
L 282.47727 -58.716 
L 281.353897 -58.716 
L 280.230525 -58.716 
L 279.107153 -58.716 
L 277.983781 -58.716 
L 276.860409 -58.716 
L 275.737037 -58.716 
L 274.613665 -58.716 
L 273.490293 -58.716 
L 272.36692 -58.716 
L 271.243548 -58.716 
L 270.120176 -58.716 
L 268.996804 -58.716 
L 267.873432 -58.716 
L 266.75006 -58.716 
L 265.626688 -58.716 
L 264.503316 -58.716 
L 263.379943 -58.716 
L 262.256571 -58.716 
L 261.133199 -58.716 
L 260.009827 -58.716 
L 258.886455 -58.716 
L 257.763083 -58.716 
L 256.639711 -58.716 
L 255.516338 -59.5224 
L 254.392966 -59.5224 
L 253.269594 -59.5224 
L 252.146222 -59.5224 
L 251.02285 -59.5224 
L 249.899478 -59.5224 
L 248.776106 -59.5224 
L 247.652734 -59.5224 
L 246.529361 -59.5224 
L 245.405989 -59.5224 
L 244.282617 -59.5224 
L 243.159245 -59.5224 
L 242.035873 -59.5224 
L 240.912501 -59.5224 
L 239.789129 -59.5224 
L 238.665757 -59.5224 
L 237.542384 -59.5224 
L 236.419012 -59.5224 
L 235.29564 -59.5224 
L 234.172268 -59.5224 
L 233.048896 -60.3288 
L 231.925524 -60.3288 
L 230.802152 -60.3288 
L 229.678779 -60.3288 
L 228.555407 -60.3288 
L 227.432035 -60.3288 
L 226.308663 -60.3288 
L 225.185291 -60.3288 
L 224.061919 -60.3288 
L 222.938547 -60.3288 
L 221.815175 -62.748 
L 220.691802 -62.748 
L 219.56843 -62.748 
L 218.445058 -62.748 
L 217.321686 -62.748 
L 216.198314 -62.748 
L 215.074942 -62.748 
L 213.95157 -62.748 
L 212.828198 -62.748 
L 211.704825 -62.748 
L 210.581453 -65.9736 
L 209.458081 -65.9736 
L 208.334709 -65.9736 
L 207.211337 -65.9736 
L 206.087965 -65.9736 
L 204.964593 -65.9736 
L 203.841221 -65.9736 
L 202.717848 -65.9736 
L 201.594476 -65.9736 
L 200.471104 -65.9736 
L 199.347732 -72.4248 
L 198.22436 -72.4248 
L 197.100988 -72.4248 
L 195.977616 -72.4248 
L 194.854243 -72.4248 
L 193.730871 -72.4248 
L 192.607499 -72.4248 
L 191.484127 -72.4248 
L 190.360755 -72.4248 
L 189.237383 -72.4248 
L 188.114011 -83.7144 
L 186.990639 -83.7144 
L 185.867266 -83.7144 
L 184.743894 -83.7144 
L 183.620522 -83.7144 
L 182.49715 -83.7144 
L 181.373778 -83.7144 
L 180.250406 -83.7144 
L 179.127034 -83.7144 
L 178.003662 -83.7144 
L 176.880289 -101.4552 
L 175.756917 -101.4552 
L 174.633545 -101.4552 
L 173.510173 -101.4552 
L 172.386801 -101.4552 
L 171.263429 -101.4552 
L 170.140057 -101.4552 
L 169.016684 -101.4552 
L 167.893312 -101.4552 
L 166.76994 -101.4552 
L 165.646568 -126.4536 
L 164.523196 -126.4536 
L 163.399824 -126.4536 
L 162.276452 -126.4536 
L 161.15308 -126.4536 
L 160.029707 -126.4536 
L 158.906335 -126.4536 
L 157.782963 -126.4536 
L 156.659591 -126.4536 
L 155.536219 -126.4536 
L 154.412847 -154.6776 
L 153.289475 -154.6776 
L 152.166103 -154.6776 
L 151.04273 -154.6776 
L 149.919358 -154.6776 
L 148.795986 -154.6776 
L 147.672614 -154.6776 
L 146.549242 -154.6776 
L 145.42587 -154.6776 
L 144.302498 -154.6776 
L 143.179126 -183.708 
L 142.055753 -183.708 
L 140.932381 -183.708 
L 139.809009 -183.708 
L 138.685637 -183.708 
L 137.562265 -183.708 
L 136.438893 -183.708 
L 135.315521 -183.708 
L 134.192148 -183.708 
L 133.068776 -183.708 
L 131.945404 -200.6424 
L 130.822032 -200.6424 
L 129.69866 -200.6424 
L 128.575288 -200.6424 
L 127.451916 -200.6424 
L 126.328544 -200.6424 
L 125.205171 -200.6424 
L 124.081799 -200.6424 
L 122.958427 -200.6424 
L 121.835055 -200.6424 
L 120.711683 -197.4168 
L 119.588311 -197.4168 
L 118.464939 -197.4168 
L 117.341567 -197.4168 
L 116.218194 -197.4168 
L 115.094822 -197.4168 
L 113.97145 -197.4168 
L 112.848078 -197.4168 
L 111.724706 -197.4168 
L 110.601334 -197.4168 
L 109.477962 -174.0312 
L 108.354589 -174.0312 
L 107.231217 -174.0312 
L 106.107845 -174.0312 
L 104.984473 -174.0312 
L 103.861101 -174.0312 
L 102.737729 -174.0312 
L 101.614357 -174.0312 
L 100.490985 -174.0312 
L 99.367612 -174.0312 
L 98.24424 -136.9368 
L 97.120868 -136.9368 
L 95.997496 -136.9368 
L 94.874124 -136.9368 
L 93.750752 -136.9368 
L 92.62738 -136.9368 
L 91.504008 -136.9368 
L 90.380635 -136.9368 
L 89.257263 -136.9368 
L 88.133891 -136.9368 
L 87.010519 -99.036 
L 85.887147 -99.036 
L 84.763775 -99.036 
L 83.640403 -99.036 
L 82.517031 -99.036 
L 81.393658 -99.036 
L 80.270286 -99.036 
L 79.146914 -99.036 
L 78.023542 -99.036 
L 76.90017 -99.036 
L 75.776798 -74.0376 
L 74.653426 -74.0376 
L 73.530053 -74.0376 
L 72.406681 -74.0376 
L 71.283309 -74.0376 
L 70.159937 -74.0376 
L 69.036565 -74.0376 
L 67.913193 -74.0376 
L 66.789821 -74.0376 
L 65.666449 -74.0376 
L 64.543076 -61.9416 
L 63.419704 -61.9416 
L 62.296332 -61.9416 
L 61.17296 -61.9416 
L 60.049588 -61.9416 
L 58.926216 -61.9416 
L 57.802844 -61.9416 
L 56.679472 -61.9416 
L 55.556099 -61.9416 
L 54.432727 -61.9416 
z
" id="mea699089af" style="stroke:#dcbcbc;"/>
    </defs>
    <g clip-path="url(#p4298e487b1)">
     <use style="fill:#dcbcbc;stroke:#dcbcbc;" x="0" xlink:href="#mea699089af" y="339.258"/>
    </g>
   </g>
   <g id="PolyCollection_2">
    <defs>
     <path d="M 54.432727 -61.1352 
L 54.432727 -59.5224 
L 55.556099 -59.5224 
L 56.679472 -59.5224 
L 57.802844 -59.5224 
L 58.926216 -59.5224 
L 60.049588 -59.5224 
L 61.17296 -59.5224 
L 62.296332 -59.5224 
L 63.419704 -59.5224 
L 64.543076 -59.5224 
L 65.666449 -66.78 
L 66.789821 -66.78 
L 67.913193 -66.78 
L 69.036565 -66.78 
L 70.159937 -66.78 
L 71.283309 -66.78 
L 72.406681 -66.78 
L 73.530053 -66.78 
L 74.653426 -66.78 
L 75.776798 -66.78 
L 76.90017 -87.7464 
L 78.023542 -87.7464 
L 79.146914 -87.7464 
L 80.270286 -87.7464 
L 81.393658 -87.7464 
L 82.517031 -87.7464 
L 83.640403 -87.7464 
L 84.763775 -87.7464 
L 85.887147 -87.7464 
L 87.010519 -87.7464 
L 88.133891 -120.8088 
L 89.257263 -120.8088 
L 90.380635 -120.8088 
L 91.504008 -120.8088 
L 92.62738 -120.8088 
L 93.750752 -120.8088 
L 94.874124 -120.8088 
L 95.997496 -120.8088 
L 97.120868 -120.8088 
L 98.24424 -120.8088 
L 99.367612 -154.6776 
L 100.490985 -154.6776 
L 101.614357 -154.6776 
L 102.737729 -154.6776 
L 103.861101 -154.6776 
L 104.984473 -154.6776 
L 106.107845 -154.6776 
L 107.231217 -154.6776 
L 108.354589 -154.6776 
L 109.477962 -154.6776 
L 110.601334 -178.0632 
L 111.724706 -178.0632 
L 112.848078 -178.0632 
L 113.97145 -178.0632 
L 115.094822 -178.0632 
L 116.218194 -178.0632 
L 117.341567 -178.0632 
L 118.464939 -178.0632 
L 119.588311 -178.0632 
L 120.711683 -178.0632 
L 121.835055 -180.4824 
L 122.958427 -180.4824 
L 124.081799 -180.4824 
L 125.205171 -180.4824 
L 126.328544 -180.4824 
L 127.451916 -180.4824 
L 128.575288 -180.4824 
L 129.69866 -180.4824 
L 130.822032 -180.4824 
L 131.945404 -180.4824 
L 133.068776 -164.3544 
L 134.192148 -164.3544 
L 135.315521 -164.3544 
L 136.438893 -164.3544 
L 137.562265 -164.3544 
L 138.685637 -164.3544 
L 139.809009 -164.3544 
L 140.932381 -164.3544 
L 142.055753 -164.3544 
L 143.179126 -164.3544 
L 144.302498 -138.5496 
L 145.42587 -138.5496 
L 146.549242 -138.5496 
L 147.672614 -138.5496 
L 148.795986 -138.5496 
L 149.919358 -138.5496 
L 151.04273 -138.5496 
L 152.166103 -138.5496 
L 153.289475 -138.5496 
L 154.412847 -138.5496 
L 155.536219 -111.132 
L 156.659591 -111.132 
L 157.782963 -111.132 
L 158.906335 -111.132 
L 160.029707 -111.132 
L 161.15308 -111.132 
L 162.276452 -111.132 
L 163.399824 -111.132 
L 164.523196 -111.132 
L 165.646568 -111.132 
L 166.76994 -89.3592 
L 167.893312 -89.3592 
L 169.016684 -89.3592 
L 170.140057 -89.3592 
L 171.263429 -89.3592 
L 172.386801 -89.3592 
L 173.510173 -89.3592 
L 174.633545 -89.3592 
L 175.756917 -89.3592 
L 176.880289 -89.3592 
L 178.003662 -74.844 
L 179.127034 -74.844 
L 180.250406 -74.844 
L 181.373778 -74.844 
L 182.49715 -74.844 
L 183.620522 -74.844 
L 184.743894 -74.844 
L 185.867266 -74.844 
L 186.990639 -74.844 
L 188.114011 -74.844 
L 189.237383 -65.9736 
L 190.360755 -65.9736 
L 191.484127 -65.9736 
L 192.607499 -65.9736 
L 193.730871 -65.9736 
L 194.854243 -65.9736 
L 195.977616 -65.9736 
L 197.100988 -65.9736 
L 198.22436 -65.9736 
L 199.347732 -65.9736 
L 200.471104 -61.9416 
L 201.594476 -61.9416 
L 202.717848 -61.9416 
L 203.841221 -61.9416 
L 204.964593 -61.9416 
L 206.087965 -61.9416 
L 207.211337 -61.9416 
L 208.334709 -61.9416 
L 209.458081 -61.9416 
L 210.581453 -61.9416 
L 211.704825 -59.5224 
L 212.828198 -59.5224 
L 213.95157 -59.5224 
L 215.074942 -59.5224 
L 216.198314 -59.5224 
L 217.321686 -59.5224 
L 218.445058 -59.5224 
L 219.56843 -59.5224 
L 220.691802 -59.5224 
L 221.815175 -59.5224 
L 222.938547 -58.716 
L 224.061919 -58.716 
L 225.185291 -58.716 
L 226.308663 -58.716 
L 227.432035 -58.716 
L 228.555407 -58.716 
L 229.678779 -58.716 
L 230.802152 -58.716 
L 231.925524 -58.716 
L 233.048896 -58.716 
L 234.172268 -58.716 
L 235.29564 -58.716 
L 236.419012 -58.716 
L 237.542384 -58.716 
L 238.665757 -58.716 
L 239.789129 -58.716 
L 240.912501 -58.716 
L 242.035873 -58.716 
L 243.159245 -58.716 
L 244.282617 -58.716 
L 245.405989 -58.716 
L 246.529361 -58.716 
L 247.652734 -58.716 
L 248.776106 -58.716 
L 249.899478 -58.716 
L 251.02285 -58.716 
L 252.146222 -58.716 
L 253.269594 -58.716 
L 254.392966 -58.716 
L 255.516338 -58.716 
L 256.639711 -58.716 
L 257.763083 -58.716 
L 258.886455 -58.716 
L 260.009827 -58.716 
L 261.133199 -58.716 
L 262.256571 -58.716 
L 263.379943 -58.716 
L 264.503316 -58.716 
L 265.626688 -58.716 
L 266.75006 -58.716 
L 267.873432 -58.716 
L 268.996804 -58.716 
L 270.120176 -58.716 
L 271.243548 -58.716 
L 272.36692 -58.716 
L 273.490293 -58.716 
L 274.613665 -58.716 
L 275.737037 -58.716 
L 276.860409 -58.716 
L 277.983781 -58.716 
L 279.107153 -58.716 
L 280.230525 -58.716 
L 281.353897 -58.716 
L 282.47727 -58.716 
L 283.600642 -58.716 
L 284.724014 -58.716 
L 285.847386 -58.716 
L 286.970758 -58.716 
L 288.09413 -58.716 
L 289.217502 -58.716 
L 290.340874 -58.716 
L 291.464247 -58.716 
L 292.587619 -58.716 
L 293.710991 -58.716 
L 294.834363 -58.716 
L 295.957735 -58.716 
L 297.081107 -58.716 
L 298.204479 -58.716 
L 299.327852 -58.716 
L 300.451224 -58.716 
L 301.574596 -58.716 
L 302.697968 -58.716 
L 303.82134 -58.716 
L 304.944712 -58.716 
L 306.068084 -58.716 
L 307.191456 -58.716 
L 308.314829 -58.716 
L 309.438201 -58.716 
L 310.561573 -58.716 
L 311.684945 -58.716 
L 312.808317 -58.716 
L 313.931689 -58.716 
L 315.055061 -58.716 
L 316.178433 -58.716 
L 317.301806 -58.716 
L 318.425178 -58.716 
L 319.54855 -58.716 
L 320.671922 -58.716 
L 321.795294 -58.716 
L 322.918666 -58.716 
L 324.042038 -58.716 
L 325.165411 -58.716 
L 326.288783 -58.716 
L 327.412155 -58.716 
L 328.535527 -58.716 
L 329.658899 -58.716 
L 330.782271 -58.716 
L 331.905643 -58.716 
L 333.029015 -58.716 
L 334.152388 -58.716 
L 335.27576 -58.716 
L 336.399132 -58.716 
L 337.522504 -58.716 
L 338.645876 -58.716 
L 339.769248 -58.716 
L 340.89262 -58.716 
L 342.015992 -58.716 
L 343.139365 -58.716 
L 344.262737 -58.716 
L 345.386109 -58.716 
L 346.509481 -58.716 
L 347.632853 -58.716 
L 348.756225 -58.716 
L 349.879597 -58.716 
L 351.002969 -58.716 
L 352.126342 -58.716 
L 353.249714 -58.716 
L 354.373086 -58.716 
L 355.496458 -58.716 
L 356.61983 -58.716 
L 357.743202 -58.716 
L 358.866574 -58.716 
L 359.989947 -58.716 
L 361.113319 -58.716 
L 362.236691 -58.716 
L 363.360063 -58.716 
L 364.483435 -58.716 
L 365.606807 -58.716 
L 366.730179 -58.716 
L 367.853551 -58.716 
L 368.976924 -58.716 
L 370.100296 -58.716 
L 371.223668 -58.716 
L 372.34704 -58.716 
L 373.470412 -58.716 
L 374.593784 -58.716 
L 375.717156 -58.716 
L 376.840528 -58.716 
L 377.963901 -58.716 
L 379.087273 -58.716 
L 379.087273 -58.716 
L 379.087273 -58.716 
L 377.963901 -58.716 
L 376.840528 -58.716 
L 375.717156 -58.716 
L 374.593784 -58.716 
L 373.470412 -58.716 
L 372.34704 -58.716 
L 371.223668 -58.716 
L 370.100296 -58.716 
L 368.976924 -58.716 
L 367.853551 -58.716 
L 366.730179 -58.716 
L 365.606807 -58.716 
L 364.483435 -58.716 
L 363.360063 -58.716 
L 362.236691 -58.716 
L 361.113319 -58.716 
L 359.989947 -58.716 
L 358.866574 -58.716 
L 357.743202 -58.716 
L 356.61983 -58.716 
L 355.496458 -58.716 
L 354.373086 -58.716 
L 353.249714 -58.716 
L 352.126342 -58.716 
L 351.002969 -58.716 
L 349.879597 -58.716 
L 348.756225 -58.716 
L 347.632853 -58.716 
L 346.509481 -58.716 
L 345.386109 -58.716 
L 344.262737 -58.716 
L 343.139365 -58.716 
L 342.015992 -58.716 
L 340.89262 -58.716 
L 339.769248 -58.716 
L 338.645876 -58.716 
L 337.522504 -58.716 
L 336.399132 -58.716 
L 335.27576 -58.716 
L 334.152388 -58.716 
L 333.029015 -58.716 
L 331.905643 -58.716 
L 330.782271 -58.716 
L 329.658899 -58.716 
L 328.535527 -58.716 
L 327.412155 -58.716 
L 326.288783 -58.716 
L 325.165411 -58.716 
L 324.042038 -58.716 
L 322.918666 -58.716 
L 321.795294 -58.716 
L 320.671922 -58.716 
L 319.54855 -58.716 
L 318.425178 -58.716 
L 317.301806 -58.716 
L 316.178433 -58.716 
L 315.055061 -58.716 
L 313.931689 -58.716 
L 312.808317 -58.716 
L 311.684945 -58.716 
L 310.561573 -58.716 
L 309.438201 -58.716 
L 308.314829 -58.716 
L 307.191456 -58.716 
L 306.068084 -58.716 
L 304.944712 -58.716 
L 303.82134 -58.716 
L 302.697968 -58.716 
L 301.574596 -58.716 
L 300.451224 -58.716 
L 299.327852 -58.716 
L 298.204479 -58.716 
L 297.081107 -58.716 
L 295.957735 -58.716 
L 294.834363 -58.716 
L 293.710991 -58.716 
L 292.587619 -58.716 
L 291.464247 -58.716 
L 290.340874 -58.716 
L 289.217502 -58.716 
L 288.09413 -58.716 
L 286.970758 -58.716 
L 285.847386 -58.716 
L 284.724014 -58.716 
L 283.600642 -58.716 
L 282.47727 -58.716 
L 281.353897 -58.716 
L 280.230525 -58.716 
L 279.107153 -58.716 
L 277.983781 -58.716 
L 276.860409 -58.716 
L 275.737037 -58.716 
L 274.613665 -58.716 
L 273.490293 -58.716 
L 272.36692 -58.716 
L 271.243548 -58.716 
L 270.120176 -58.716 
L 268.996804 -58.716 
L 267.873432 -58.716 
L 266.75006 -58.716 
L 265.626688 -58.716 
L 264.503316 -58.716 
L 263.379943 -58.716 
L 262.256571 -58.716 
L 261.133199 -58.716 
L 260.009827 -58.716 
L 258.886455 -58.716 
L 257.763083 -58.716 
L 256.639711 -58.716 
L 255.516338 -58.716 
L 254.392966 -58.716 
L 253.269594 -58.716 
L 252.146222 -58.716 
L 251.02285 -58.716 
L 249.899478 -58.716 
L 248.776106 -58.716 
L 247.652734 -58.716 
L 246.529361 -58.716 
L 245.405989 -58.716 
L 244.282617 -59.5224 
L 243.159245 -59.5224 
L 242.035873 -59.5224 
L 240.912501 -59.5224 
L 239.789129 -59.5224 
L 238.665757 -59.5224 
L 237.542384 -59.5224 
L 236.419012 -59.5224 
L 235.29564 -59.5224 
L 234.172268 -59.5224 
L 233.048896 -60.3288 
L 231.925524 -60.3288 
L 230.802152 -60.3288 
L 229.678779 -60.3288 
L 228.555407 -60.3288 
L 227.432035 -60.3288 
L 226.308663 -60.3288 
L 225.185291 -60.3288 
L 224.061919 -60.3288 
L 222.938547 -60.3288 
L 221.815175 -61.9416 
L 220.691802 -61.9416 
L 219.56843 -61.9416 
L 218.445058 -61.9416 
L 217.321686 -61.9416 
L 216.198314 -61.9416 
L 215.074942 -61.9416 
L 213.95157 -61.9416 
L 212.828198 -61.9416 
L 211.704825 -61.9416 
L 210.581453 -65.1672 
L 209.458081 -65.1672 
L 208.334709 -65.1672 
L 207.211337 -65.1672 
L 206.087965 -65.1672 
L 204.964593 -65.1672 
L 203.841221 -65.1672 
L 202.717848 -65.1672 
L 201.594476 -65.1672 
L 200.471104 -65.1672 
L 199.347732 -71.6184 
L 198.22436 -71.6184 
L 197.100988 -71.6184 
L 195.977616 -71.6184 
L 194.854243 -71.6184 
L 193.730871 -71.6184 
L 192.607499 -71.6184 
L 191.484127 -71.6184 
L 190.360755 -71.6184 
L 189.237383 -71.6184 
L 188.114011 -82.1016 
L 186.990639 -82.1016 
L 185.867266 -82.1016 
L 184.743894 -82.1016 
L 183.620522 -82.1016 
L 182.49715 -82.1016 
L 181.373778 -82.1016 
L 180.250406 -82.1016 
L 179.127034 -82.1016 
L 178.003662 -82.1016 
L 176.880289 -99.036 
L 175.756917 -99.036 
L 174.633545 -99.036 
L 173.510173 -99.036 
L 172.386801 -99.036 
L 171.263429 -99.036 
L 170.140057 -99.036 
L 169.016684 -99.036 
L 167.893312 -99.036 
L 166.76994 -99.036 
L 165.646568 -123.228 
L 164.523196 -123.228 
L 163.399824 -123.228 
L 162.276452 -123.228 
L 161.15308 -123.228 
L 160.029707 -123.228 
L 158.906335 -123.228 
L 157.782963 -123.228 
L 156.659591 -123.228 
L 155.536219 -123.228 
L 154.412847 -151.452 
L 153.289475 -151.452 
L 152.166103 -151.452 
L 151.04273 -151.452 
L 149.919358 -151.452 
L 148.795986 -151.452 
L 147.672614 -151.452 
L 146.549242 -151.452 
L 145.42587 -151.452 
L 144.302498 -151.452 
L 143.179126 -178.8696 
L 142.055753 -178.8696 
L 140.932381 -178.8696 
L 139.809009 -178.8696 
L 138.685637 -178.8696 
L 137.562265 -178.8696 
L 136.438893 -178.8696 
L 135.315521 -178.8696 
L 134.192148 -178.8696 
L 133.068776 -178.8696 
L 131.945404 -196.6104 
L 130.822032 -196.6104 
L 129.69866 -196.6104 
L 128.575288 -196.6104 
L 127.451916 -196.6104 
L 126.328544 -196.6104 
L 125.205171 -196.6104 
L 124.081799 -196.6104 
L 122.958427 -196.6104 
L 121.835055 -196.6104 
L 120.711683 -193.3848 
L 119.588311 -193.3848 
L 118.464939 -193.3848 
L 117.341567 -193.3848 
L 116.218194 -193.3848 
L 115.094822 -193.3848 
L 113.97145 -193.3848 
L 112.848078 -193.3848 
L 111.724706 -193.3848 
L 110.601334 -193.3848 
L 109.477962 -169.9992 
L 108.354589 -169.9992 
L 107.231217 -169.9992 
L 106.107845 -169.9992 
L 104.984473 -169.9992 
L 103.861101 -169.9992 
L 102.737729 -169.9992 
L 101.614357 -169.9992 
L 100.490985 -169.9992 
L 99.367612 -169.9992 
L 98.24424 -132.9048 
L 97.120868 -132.9048 
L 95.997496 -132.9048 
L 94.874124 -132.9048 
L 93.750752 -132.9048 
L 92.62738 -132.9048 
L 91.504008 -132.9048 
L 90.380635 -132.9048 
L 89.257263 -132.9048 
L 88.133891 -132.9048 
L 87.010519 -96.6168 
L 85.887147 -96.6168 
L 84.763775 -96.6168 
L 83.640403 -96.6168 
L 82.517031 -96.6168 
L 81.393658 -96.6168 
L 80.270286 -96.6168 
L 79.146914 -96.6168 
L 78.023542 -96.6168 
L 76.90017 -96.6168 
L 75.776798 -72.4248 
L 74.653426 -72.4248 
L 73.530053 -72.4248 
L 72.406681 -72.4248 
L 71.283309 -72.4248 
L 70.159937 -72.4248 
L 69.036565 -72.4248 
L 67.913193 -72.4248 
L 66.789821 -72.4248 
L 65.666449 -72.4248 
L 64.543076 -61.1352 
L 63.419704 -61.1352 
L 62.296332 -61.1352 
L 61.17296 -61.1352 
L 60.049588 -61.1352 
L 58.926216 -61.1352 
L 57.802844 -61.1352 
L 56.679472 -61.1352 
L 55.556099 -61.1352 
L 54.432727 -61.1352 
z
" id="m121eb4f561" style="stroke:#c79999;"/>
    </defs>
    <g clip-path="url(#p4298e487b1)">
     <use style="fill:#c79999;stroke:#c79999;" x="0" xlink:href="#m121eb4f561" y="339.258"/>
    </g>
   </g>
   <g id="PolyCollection_3">
    <defs>
     <path d="M 54.432727 -61.1352 
L 54.432727 -59.5224 
L 55.556099 -59.5224 
L 56.679472 -59.5224 
L 57.802844 -59.5224 
L 58.926216 -59.5224 
L 60.049588 -59.5224 
L 61.17296 -59.5224 
L 62.296332 -59.5224 
L 63.419704 -59.5224 
L 64.543076 -59.5224 
L 65.666449 -68.3928 
L 66.789821 -68.3928 
L 67.913193 -68.3928 
L 69.036565 -68.3928 
L 70.159937 -68.3928 
L 71.283309 -68.3928 
L 72.406681 -68.3928 
L 73.530053 -68.3928 
L 74.653426 -68.3928 
L 75.776798 -68.3928 
L 76.90017 -89.3592 
L 78.023542 -89.3592 
L 79.146914 -89.3592 
L 80.270286 -89.3592 
L 81.393658 -89.3592 
L 82.517031 -89.3592 
L 83.640403 -89.3592 
L 84.763775 -89.3592 
L 85.887147 -89.3592 
L 87.010519 -89.3592 
L 88.133891 -123.228 
L 89.257263 -123.228 
L 90.380635 -123.228 
L 91.504008 -123.228 
L 92.62738 -123.228 
L 93.750752 -123.228 
L 94.874124 -123.228 
L 95.997496 -123.228 
L 97.120868 -123.228 
L 98.24424 -123.228 
L 99.367612 -157.9032 
L 100.490985 -157.9032 
L 101.614357 -157.9032 
L 102.737729 -157.9032 
L 103.861101 -157.9032 
L 104.984473 -157.9032 
L 106.107845 -157.9032 
L 107.231217 -157.9032 
L 108.354589 -157.9032 
L 109.477962 -157.9032 
L 110.601334 -180.4824 
L 111.724706 -180.4824 
L 112.848078 -180.4824 
L 113.97145 -180.4824 
L 115.094822 -180.4824 
L 116.218194 -180.4824 
L 117.341567 -180.4824 
L 118.464939 -180.4824 
L 119.588311 -180.4824 
L 120.711683 -180.4824 
L 121.835055 -182.9016 
L 122.958427 -182.9016 
L 124.081799 -182.9016 
L 125.205171 -182.9016 
L 126.328544 -182.9016 
L 127.451916 -182.9016 
L 128.575288 -182.9016 
L 129.69866 -182.9016 
L 130.822032 -182.9016 
L 131.945404 -182.9016 
L 133.068776 -166.7736 
L 134.192148 -166.7736 
L 135.315521 -166.7736 
L 136.438893 -166.7736 
L 137.562265 -166.7736 
L 138.685637 -166.7736 
L 139.809009 -166.7736 
L 140.932381 -166.7736 
L 142.055753 -166.7736 
L 143.179126 -166.7736 
L 144.302498 -140.1624 
L 145.42587 -140.1624 
L 146.549242 -140.1624 
L 147.672614 -140.1624 
L 148.795986 -140.1624 
L 149.919358 -140.1624 
L 151.04273 -140.1624 
L 152.166103 -140.1624 
L 153.289475 -140.1624 
L 154.412847 -140.1624 
L 155.536219 -113.5512 
L 156.659591 -113.5512 
L 157.782963 -113.5512 
L 158.906335 -113.5512 
L 160.029707 -113.5512 
L 161.15308 -113.5512 
L 162.276452 -113.5512 
L 163.399824 -113.5512 
L 164.523196 -113.5512 
L 165.646568 -113.5512 
L 166.76994 -90.972 
L 167.893312 -90.972 
L 169.016684 -90.972 
L 170.140057 -90.972 
L 171.263429 -90.972 
L 172.386801 -90.972 
L 173.510173 -90.972 
L 174.633545 -90.972 
L 175.756917 -90.972 
L 176.880289 -90.972 
L 178.003662 -76.4568 
L 179.127034 -76.4568 
L 180.250406 -76.4568 
L 181.373778 -76.4568 
L 182.49715 -76.4568 
L 183.620522 -76.4568 
L 184.743894 -76.4568 
L 185.867266 -76.4568 
L 186.990639 -76.4568 
L 188.114011 -76.4568 
L 189.237383 -66.78 
L 190.360755 -66.78 
L 191.484127 -66.78 
L 192.607499 -66.78 
L 193.730871 -66.78 
L 194.854243 -66.78 
L 195.977616 -66.78 
L 197.100988 -66.78 
L 198.22436 -66.78 
L 199.347732 -66.78 
L 200.471104 -62.748 
L 201.594476 -62.748 
L 202.717848 -62.748 
L 203.841221 -62.748 
L 204.964593 -62.748 
L 206.087965 -62.748 
L 207.211337 -62.748 
L 208.334709 -62.748 
L 209.458081 -62.748 
L 210.581453 -62.748 
L 211.704825 -60.3288 
L 212.828198 -60.3288 
L 213.95157 -60.3288 
L 215.074942 -60.3288 
L 216.198314 -60.3288 
L 217.321686 -60.3288 
L 218.445058 -60.3288 
L 219.56843 -60.3288 
L 220.691802 -60.3288 
L 221.815175 -60.3288 
L 222.938547 -58.716 
L 224.061919 -58.716 
L 225.185291 -58.716 
L 226.308663 -58.716 
L 227.432035 -58.716 
L 228.555407 -58.716 
L 229.678779 -58.716 
L 230.802152 -58.716 
L 231.925524 -58.716 
L 233.048896 -58.716 
L 234.172268 -58.716 
L 235.29564 -58.716 
L 236.419012 -58.716 
L 237.542384 -58.716 
L 238.665757 -58.716 
L 239.789129 -58.716 
L 240.912501 -58.716 
L 242.035873 -58.716 
L 243.159245 -58.716 
L 244.282617 -58.716 
L 245.405989 -58.716 
L 246.529361 -58.716 
L 247.652734 -58.716 
L 248.776106 -58.716 
L 249.899478 -58.716 
L 251.02285 -58.716 
L 252.146222 -58.716 
L 253.269594 -58.716 
L 254.392966 -58.716 
L 255.516338 -58.716 
L 256.639711 -58.716 
L 257.763083 -58.716 
L 258.886455 -58.716 
L 260.009827 -58.716 
L 261.133199 -58.716 
L 262.256571 -58.716 
L 263.379943 -58.716 
L 264.503316 -58.716 
L 265.626688 -58.716 
L 266.75006 -58.716 
L 267.873432 -58.716 
L 268.996804 -58.716 
L 270.120176 -58.716 
L 271.243548 -58.716 
L 272.36692 -58.716 
L 273.490293 -58.716 
L 274.613665 -58.716 
L 275.737037 -58.716 
L 276.860409 -58.716 
L 277.983781 -58.716 
L 279.107153 -58.716 
L 280.230525 -58.716 
L 281.353897 -58.716 
L 282.47727 -58.716 
L 283.600642 -58.716 
L 284.724014 -58.716 
L 285.847386 -58.716 
L 286.970758 -58.716 
L 288.09413 -58.716 
L 289.217502 -58.716 
L 290.340874 -58.716 
L 291.464247 -58.716 
L 292.587619 -58.716 
L 293.710991 -58.716 
L 294.834363 -58.716 
L 295.957735 -58.716 
L 297.081107 -58.716 
L 298.204479 -58.716 
L 299.327852 -58.716 
L 300.451224 -58.716 
L 301.574596 -58.716 
L 302.697968 -58.716 
L 303.82134 -58.716 
L 304.944712 -58.716 
L 306.068084 -58.716 
L 307.191456 -58.716 
L 308.314829 -58.716 
L 309.438201 -58.716 
L 310.561573 -58.716 
L 311.684945 -58.716 
L 312.808317 -58.716 
L 313.931689 -58.716 
L 315.055061 -58.716 
L 316.178433 -58.716 
L 317.301806 -58.716 
L 318.425178 -58.716 
L 319.54855 -58.716 
L 320.671922 -58.716 
L 321.795294 -58.716 
L 322.918666 -58.716 
L 324.042038 -58.716 
L 325.165411 -58.716 
L 326.288783 -58.716 
L 327.412155 -58.716 
L 328.535527 -58.716 
L 329.658899 -58.716 
L 330.782271 -58.716 
L 331.905643 -58.716 
L 333.029015 -58.716 
L 334.152388 -58.716 
L 335.27576 -58.716 
L 336.399132 -58.716 
L 337.522504 -58.716 
L 338.645876 -58.716 
L 339.769248 -58.716 
L 340.89262 -58.716 
L 342.015992 -58.716 
L 343.139365 -58.716 
L 344.262737 -58.716 
L 345.386109 -58.716 
L 346.509481 -58.716 
L 347.632853 -58.716 
L 348.756225 -58.716 
L 349.879597 -58.716 
L 351.002969 -58.716 
L 352.126342 -58.716 
L 353.249714 -58.716 
L 354.373086 -58.716 
L 355.496458 -58.716 
L 356.61983 -58.716 
L 357.743202 -58.716 
L 358.866574 -58.716 
L 359.989947 -58.716 
L 361.113319 -58.716 
L 362.236691 -58.716 
L 363.360063 -58.716 
L 364.483435 -58.716 
L 365.606807 -58.716 
L 366.730179 -58.716 
L 367.853551 -58.716 
L 368.976924 -58.716 
L 370.100296 -58.716 
L 371.223668 -58.716 
L 372.34704 -58.716 
L 373.470412 -58.716 
L 374.593784 -58.716 
L 375.717156 -58.716 
L 376.840528 -58.716 
L 377.963901 -58.716 
L 379.087273 -58.716 
L 379.087273 -58.716 
L 379.087273 -58.716 
L 377.963901 -58.716 
L 376.840528 -58.716 
L 375.717156 -58.716 
L 374.593784 -58.716 
L 373.470412 -58.716 
L 372.34704 -58.716 
L 371.223668 -58.716 
L 370.100296 -58.716 
L 368.976924 -58.716 
L 367.853551 -58.716 
L 366.730179 -58.716 
L 365.606807 -58.716 
L 364.483435 -58.716 
L 363.360063 -58.716 
L 362.236691 -58.716 
L 361.113319 -58.716 
L 359.989947 -58.716 
L 358.866574 -58.716 
L 357.743202 -58.716 
L 356.61983 -58.716 
L 355.496458 -58.716 
L 354.373086 -58.716 
L 353.249714 -58.716 
L 352.126342 -58.716 
L 351.002969 -58.716 
L 349.879597 -58.716 
L 348.756225 -58.716 
L 347.632853 -58.716 
L 346.509481 -58.716 
L 345.386109 -58.716 
L 344.262737 -58.716 
L 343.139365 -58.716 
L 342.015992 -58.716 
L 340.89262 -58.716 
L 339.769248 -58.716 
L 338.645876 -58.716 
L 337.522504 -58.716 
L 336.399132 -58.716 
L 335.27576 -58.716 
L 334.152388 -58.716 
L 333.029015 -58.716 
L 331.905643 -58.716 
L 330.782271 -58.716 
L 329.658899 -58.716 
L 328.535527 -58.716 
L 327.412155 -58.716 
L 326.288783 -58.716 
L 325.165411 -58.716 
L 324.042038 -58.716 
L 322.918666 -58.716 
L 321.795294 -58.716 
L 320.671922 -58.716 
L 319.54855 -58.716 
L 318.425178 -58.716 
L 317.301806 -58.716 
L 316.178433 -58.716 
L 315.055061 -58.716 
L 313.931689 -58.716 
L 312.808317 -58.716 
L 311.684945 -58.716 
L 310.561573 -58.716 
L 309.438201 -58.716 
L 308.314829 -58.716 
L 307.191456 -58.716 
L 306.068084 -58.716 
L 304.944712 -58.716 
L 303.82134 -58.716 
L 302.697968 -58.716 
L 301.574596 -58.716 
L 300.451224 -58.716 
L 299.327852 -58.716 
L 298.204479 -58.716 
L 297.081107 -58.716 
L 295.957735 -58.716 
L 294.834363 -58.716 
L 293.710991 -58.716 
L 292.587619 -58.716 
L 291.464247 -58.716 
L 290.340874 -58.716 
L 289.217502 -58.716 
L 288.09413 -58.716 
L 286.970758 -58.716 
L 285.847386 -58.716 
L 284.724014 -58.716 
L 283.600642 -58.716 
L 282.47727 -58.716 
L 281.353897 -58.716 
L 280.230525 -58.716 
L 279.107153 -58.716 
L 277.983781 -58.716 
L 276.860409 -58.716 
L 275.737037 -58.716 
L 274.613665 -58.716 
L 273.490293 -58.716 
L 272.36692 -58.716 
L 271.243548 -58.716 
L 270.120176 -58.716 
L 268.996804 -58.716 
L 267.873432 -58.716 
L 266.75006 -58.716 
L 265.626688 -58.716 
L 264.503316 -58.716 
L 263.379943 -58.716 
L 262.256571 -58.716 
L 261.133199 -58.716 
L 260.009827 -58.716 
L 258.886455 -58.716 
L 257.763083 -58.716 
L 256.639711 -58.716 
L 255.516338 -58.716 
L 254.392966 -58.716 
L 253.269594 -58.716 
L 252.146222 -58.716 
L 251.02285 -58.716 
L 249.899478 -58.716 
L 248.776106 -58.716 
L 247.652734 -58.716 
L 246.529361 -58.716 
L 245.405989 -58.716 
L 244.282617 -59.5224 
L 243.159245 -59.5224 
L 242.035873 -59.5224 
L 240.912501 -59.5224 
L 239.789129 -59.5224 
L 238.665757 -59.5224 
L 237.542384 -59.5224 
L 236.419012 -59.5224 
L 235.29564 -59.5224 
L 234.172268 -59.5224 
L 233.048896 -59.5224 
L 231.925524 -59.5224 
L 230.802152 -59.5224 
L 229.678779 -59.5224 
L 228.555407 -59.5224 
L 227.432035 -59.5224 
L 226.308663 -59.5224 
L 225.185291 -59.5224 
L 224.061919 -59.5224 
L 222.938547 -59.5224 
L 221.815175 -61.1352 
L 220.691802 -61.1352 
L 219.56843 -61.1352 
L 218.445058 -61.1352 
L 217.321686 -61.1352 
L 216.198314 -61.1352 
L 215.074942 -61.1352 
L 213.95157 -61.1352 
L 212.828198 -61.1352 
L 211.704825 -61.1352 
L 210.581453 -64.3608 
L 209.458081 -64.3608 
L 208.334709 -64.3608 
L 207.211337 -64.3608 
L 206.087965 -64.3608 
L 204.964593 -64.3608 
L 203.841221 -64.3608 
L 202.717848 -64.3608 
L 201.594476 -64.3608 
L 200.471104 -64.3608 
L 199.347732 -70.0056 
L 198.22436 -70.0056 
L 197.100988 -70.0056 
L 195.977616 -70.0056 
L 194.854243 -70.0056 
L 193.730871 -70.0056 
L 192.607499 -70.0056 
L 191.484127 -70.0056 
L 190.360755 -70.0056 
L 189.237383 -70.0056 
L 188.114011 -80.4888 
L 186.990639 -80.4888 
L 185.867266 -80.4888 
L 184.743894 -80.4888 
L 183.620522 -80.4888 
L 182.49715 -80.4888 
L 181.373778 -80.4888 
L 180.250406 -80.4888 
L 179.127034 -80.4888 
L 178.003662 -80.4888 
L 176.880289 -97.4232 
L 175.756917 -97.4232 
L 174.633545 -97.4232 
L 173.510173 -97.4232 
L 172.386801 -97.4232 
L 171.263429 -97.4232 
L 170.140057 -97.4232 
L 169.016684 -97.4232 
L 167.893312 -97.4232 
L 166.76994 -97.4232 
L 165.646568 -120.8088 
L 164.523196 -120.8088 
L 163.399824 -120.8088 
L 162.276452 -120.8088 
L 161.15308 -120.8088 
L 160.029707 -120.8088 
L 158.906335 -120.8088 
L 157.782963 -120.8088 
L 156.659591 -120.8088 
L 155.536219 -120.8088 
L 154.412847 -149.0328 
L 153.289475 -149.0328 
L 152.166103 -149.0328 
L 151.04273 -149.0328 
L 149.919358 -149.0328 
L 148.795986 -149.0328 
L 147.672614 -149.0328 
L 146.549242 -149.0328 
L 145.42587 -149.0328 
L 144.302498 -149.0328 
L 143.179126 -175.644 
L 142.055753 -175.644 
L 140.932381 -175.644 
L 139.809009 -175.644 
L 138.685637 -175.644 
L 137.562265 -175.644 
L 136.438893 -175.644 
L 135.315521 -175.644 
L 134.192148 -175.644 
L 133.068776 -175.644 
L 131.945404 -193.3848 
L 130.822032 -193.3848 
L 129.69866 -193.3848 
L 128.575288 -193.3848 
L 127.451916 -193.3848 
L 126.328544 -193.3848 
L 125.205171 -193.3848 
L 124.081799 -193.3848 
L 122.958427 -193.3848 
L 121.835055 -193.3848 
L 120.711683 -190.9656 
L 119.588311 -190.9656 
L 118.464939 -190.9656 
L 117.341567 -190.9656 
L 116.218194 -190.9656 
L 115.094822 -190.9656 
L 113.97145 -190.9656 
L 112.848078 -190.9656 
L 111.724706 -190.9656 
L 110.601334 -190.9656 
L 109.477962 -167.58 
L 108.354589 -167.58 
L 107.231217 -167.58 
L 106.107845 -167.58 
L 104.984473 -167.58 
L 103.861101 -167.58 
L 102.737729 -167.58 
L 101.614357 -167.58 
L 100.490985 -167.58 
L 99.367612 -167.58 
L 98.24424 -130.4856 
L 97.120868 -130.4856 
L 95.997496 -130.4856 
L 94.874124 -130.4856 
L 93.750752 -130.4856 
L 92.62738 -130.4856 
L 91.504008 -130.4856 
L 90.380635 -130.4856 
L 89.257263 -130.4856 
L 88.133891 -130.4856 
L 87.010519 -95.004 
L 85.887147 -95.004 
L 84.763775 -95.004 
L 83.640403 -95.004 
L 82.517031 -95.004 
L 81.393658 -95.004 
L 80.270286 -95.004 
L 79.146914 -95.004 
L 78.023542 -95.004 
L 76.90017 -95.004 
L 75.776798 -71.6184 
L 74.653426 -71.6184 
L 73.530053 -71.6184 
L 72.406681 -71.6184 
L 71.283309 -71.6184 
L 70.159937 -71.6184 
L 69.036565 -71.6184 
L 67.913193 -71.6184 
L 66.789821 -71.6184 
L 65.666449 -71.6184 
L 64.543076 -61.1352 
L 63.419704 -61.1352 
L 62.296332 -61.1352 
L 61.17296 -61.1352 
L 60.049588 -61.1352 
L 58.926216 -61.1352 
L 57.802844 -61.1352 
L 56.679472 -61.1352 
L 55.556099 -61.1352 
L 54.432727 -61.1352 
z
" id="mb62064513e" style="stroke:#b97c7c;"/>
    </defs>
    <g clip-path="url(#p4298e487b1)">
     <use style="fill:#b97c7c;stroke:#b97c7c;" x="0" xlink:href="#mb62064513e" y="339.258"/>
    </g>
   </g>
   <g id="PolyCollection_4">
    <defs>
     <path d="M 54.432727 -60.3288 
L 54.432727 -60.3288 
L 55.556099 -60.3288 
L 56.679472 -60.3288 
L 57.802844 -60.3288 
L 58.926216 -60.3288 
L 60.049588 -60.3288 
L 61.17296 -60.3288 
L 62.296332 -60.3288 
L 63.419704 -60.3288 
L 64.543076 -60.3288 
L 65.666449 -69.1992 
L 66.789821 -69.1992 
L 67.913193 -69.1992 
L 69.036565 -69.1992 
L 70.159937 -69.1992 
L 71.283309 -69.1992 
L 72.406681 -69.1992 
L 73.530053 -69.1992 
L 74.653426 -69.1992 
L 75.776798 -69.1992 
L 76.90017 -90.972 
L 78.023542 -90.972 
L 79.146914 -90.972 
L 80.270286 -90.972 
L 81.393658 -90.972 
L 82.517031 -90.972 
L 83.640403 -90.972 
L 84.763775 -90.972 
L 85.887147 -90.972 
L 87.010519 -90.972 
L 88.133891 -124.8408 
L 89.257263 -124.8408 
L 90.380635 -124.8408 
L 91.504008 -124.8408 
L 92.62738 -124.8408 
L 93.750752 -124.8408 
L 94.874124 -124.8408 
L 95.997496 -124.8408 
L 97.120868 -124.8408 
L 98.24424 -124.8408 
L 99.367612 -160.3224 
L 100.490985 -160.3224 
L 101.614357 -160.3224 
L 102.737729 -160.3224 
L 103.861101 -160.3224 
L 104.984473 -160.3224 
L 106.107845 -160.3224 
L 107.231217 -160.3224 
L 108.354589 -160.3224 
L 109.477962 -160.3224 
L 110.601334 -182.9016 
L 111.724706 -182.9016 
L 112.848078 -182.9016 
L 113.97145 -182.9016 
L 115.094822 -182.9016 
L 116.218194 -182.9016 
L 117.341567 -182.9016 
L 118.464939 -182.9016 
L 119.588311 -182.9016 
L 120.711683 -182.9016 
L 121.835055 -185.3208 
L 122.958427 -185.3208 
L 124.081799 -185.3208 
L 125.205171 -185.3208 
L 126.328544 -185.3208 
L 127.451916 -185.3208 
L 128.575288 -185.3208 
L 129.69866 -185.3208 
L 130.822032 -185.3208 
L 131.945404 -185.3208 
L 133.068776 -169.1928 
L 134.192148 -169.1928 
L 135.315521 -169.1928 
L 136.438893 -169.1928 
L 137.562265 -169.1928 
L 138.685637 -169.1928 
L 139.809009 -169.1928 
L 140.932381 -169.1928 
L 142.055753 -169.1928 
L 143.179126 -169.1928 
L 144.302498 -142.5816 
L 145.42587 -142.5816 
L 146.549242 -142.5816 
L 147.672614 -142.5816 
L 148.795986 -142.5816 
L 149.919358 -142.5816 
L 151.04273 -142.5816 
L 152.166103 -142.5816 
L 153.289475 -142.5816 
L 154.412847 -142.5816 
L 155.536219 -115.164 
L 156.659591 -115.164 
L 157.782963 -115.164 
L 158.906335 -115.164 
L 160.029707 -115.164 
L 161.15308 -115.164 
L 162.276452 -115.164 
L 163.399824 -115.164 
L 164.523196 -115.164 
L 165.646568 -115.164 
L 166.76994 -92.5848 
L 167.893312 -92.5848 
L 169.016684 -92.5848 
L 170.140057 -92.5848 
L 171.263429 -92.5848 
L 172.386801 -92.5848 
L 173.510173 -92.5848 
L 174.633545 -92.5848 
L 175.756917 -92.5848 
L 176.880289 -92.5848 
L 178.003662 -77.2632 
L 179.127034 -77.2632 
L 180.250406 -77.2632 
L 181.373778 -77.2632 
L 182.49715 -77.2632 
L 183.620522 -77.2632 
L 184.743894 -77.2632 
L 185.867266 -77.2632 
L 186.990639 -77.2632 
L 188.114011 -77.2632 
L 189.237383 -67.5864 
L 190.360755 -67.5864 
L 191.484127 -67.5864 
L 192.607499 -67.5864 
L 193.730871 -67.5864 
L 194.854243 -67.5864 
L 195.977616 -67.5864 
L 197.100988 -67.5864 
L 198.22436 -67.5864 
L 199.347732 -67.5864 
L 200.471104 -62.748 
L 201.594476 -62.748 
L 202.717848 -62.748 
L 203.841221 -62.748 
L 204.964593 -62.748 
L 206.087965 -62.748 
L 207.211337 -62.748 
L 208.334709 -62.748 
L 209.458081 -62.748 
L 210.581453 -62.748 
L 211.704825 -60.3288 
L 212.828198 -60.3288 
L 213.95157 -60.3288 
L 215.074942 -60.3288 
L 216.198314 -60.3288 
L 217.321686 -60.3288 
L 218.445058 -60.3288 
L 219.56843 -60.3288 
L 220.691802 -60.3288 
L 221.815175 -60.3288 
L 222.938547 -59.5224 
L 224.061919 -59.5224 
L 225.185291 -59.5224 
L 226.308663 -59.5224 
L 227.432035 -59.5224 
L 228.555407 -59.5224 
L 229.678779 -59.5224 
L 230.802152 -59.5224 
L 231.925524 -59.5224 
L 233.048896 -59.5224 
L 234.172268 -58.716 
L 235.29564 -58.716 
L 236.419012 -58.716 
L 237.542384 -58.716 
L 238.665757 -58.716 
L 239.789129 -58.716 
L 240.912501 -58.716 
L 242.035873 -58.716 
L 243.159245 -58.716 
L 244.282617 -58.716 
L 245.405989 -58.716 
L 246.529361 -58.716 
L 247.652734 -58.716 
L 248.776106 -58.716 
L 249.899478 -58.716 
L 251.02285 -58.716 
L 252.146222 -58.716 
L 253.269594 -58.716 
L 254.392966 -58.716 
L 255.516338 -58.716 
L 256.639711 -58.716 
L 257.763083 -58.716 
L 258.886455 -58.716 
L 260.009827 -58.716 
L 261.133199 -58.716 
L 262.256571 -58.716 
L 263.379943 -58.716 
L 264.503316 -58.716 
L 265.626688 -58.716 
L 266.75006 -58.716 
L 267.873432 -58.716 
L 268.996804 -58.716 
L 270.120176 -58.716 
L 271.243548 -58.716 
L 272.36692 -58.716 
L 273.490293 -58.716 
L 274.613665 -58.716 
L 275.737037 -58.716 
L 276.860409 -58.716 
L 277.983781 -58.716 
L 279.107153 -58.716 
L 280.230525 -58.716 
L 281.353897 -58.716 
L 282.47727 -58.716 
L 283.600642 -58.716 
L 284.724014 -58.716 
L 285.847386 -58.716 
L 286.970758 -58.716 
L 288.09413 -58.716 
L 289.217502 -58.716 
L 290.340874 -58.716 
L 291.464247 -58.716 
L 292.587619 -58.716 
L 293.710991 -58.716 
L 294.834363 -58.716 
L 295.957735 -58.716 
L 297.081107 -58.716 
L 298.204479 -58.716 
L 299.327852 -58.716 
L 300.451224 -58.716 
L 301.574596 -58.716 
L 302.697968 -58.716 
L 303.82134 -58.716 
L 304.944712 -58.716 
L 306.068084 -58.716 
L 307.191456 -58.716 
L 308.314829 -58.716 
L 309.438201 -58.716 
L 310.561573 -58.716 
L 311.684945 -58.716 
L 312.808317 -58.716 
L 313.931689 -58.716 
L 315.055061 -58.716 
L 316.178433 -58.716 
L 317.301806 -58.716 
L 318.425178 -58.716 
L 319.54855 -58.716 
L 320.671922 -58.716 
L 321.795294 -58.716 
L 322.918666 -58.716 
L 324.042038 -58.716 
L 325.165411 -58.716 
L 326.288783 -58.716 
L 327.412155 -58.716 
L 328.535527 -58.716 
L 329.658899 -58.716 
L 330.782271 -58.716 
L 331.905643 -58.716 
L 333.029015 -58.716 
L 334.152388 -58.716 
L 335.27576 -58.716 
L 336.399132 -58.716 
L 337.522504 -58.716 
L 338.645876 -58.716 
L 339.769248 -58.716 
L 340.89262 -58.716 
L 342.015992 -58.716 
L 343.139365 -58.716 
L 344.262737 -58.716 
L 345.386109 -58.716 
L 346.509481 -58.716 
L 347.632853 -58.716 
L 348.756225 -58.716 
L 349.879597 -58.716 
L 351.002969 -58.716 
L 352.126342 -58.716 
L 353.249714 -58.716 
L 354.373086 -58.716 
L 355.496458 -58.716 
L 356.61983 -58.716 
L 357.743202 -58.716 
L 358.866574 -58.716 
L 359.989947 -58.716 
L 361.113319 -58.716 
L 362.236691 -58.716 
L 363.360063 -58.716 
L 364.483435 -58.716 
L 365.606807 -58.716 
L 366.730179 -58.716 
L 367.853551 -58.716 
L 368.976924 -58.716 
L 370.100296 -58.716 
L 371.223668 -58.716 
L 372.34704 -58.716 
L 373.470412 -58.716 
L 374.593784 -58.716 
L 375.717156 -58.716 
L 376.840528 -58.716 
L 377.963901 -58.716 
L 379.087273 -58.716 
L 379.087273 -58.716 
L 379.087273 -58.716 
L 377.963901 -58.716 
L 376.840528 -58.716 
L 375.717156 -58.716 
L 374.593784 -58.716 
L 373.470412 -58.716 
L 372.34704 -58.716 
L 371.223668 -58.716 
L 370.100296 -58.716 
L 368.976924 -58.716 
L 367.853551 -58.716 
L 366.730179 -58.716 
L 365.606807 -58.716 
L 364.483435 -58.716 
L 363.360063 -58.716 
L 362.236691 -58.716 
L 361.113319 -58.716 
L 359.989947 -58.716 
L 358.866574 -58.716 
L 357.743202 -58.716 
L 356.61983 -58.716 
L 355.496458 -58.716 
L 354.373086 -58.716 
L 353.249714 -58.716 
L 352.126342 -58.716 
L 351.002969 -58.716 
L 349.879597 -58.716 
L 348.756225 -58.716 
L 347.632853 -58.716 
L 346.509481 -58.716 
L 345.386109 -58.716 
L 344.262737 -58.716 
L 343.139365 -58.716 
L 342.015992 -58.716 
L 340.89262 -58.716 
L 339.769248 -58.716 
L 338.645876 -58.716 
L 337.522504 -58.716 
L 336.399132 -58.716 
L 335.27576 -58.716 
L 334.152388 -58.716 
L 333.029015 -58.716 
L 331.905643 -58.716 
L 330.782271 -58.716 
L 329.658899 -58.716 
L 328.535527 -58.716 
L 327.412155 -58.716 
L 326.288783 -58.716 
L 325.165411 -58.716 
L 324.042038 -58.716 
L 322.918666 -58.716 
L 321.795294 -58.716 
L 320.671922 -58.716 
L 319.54855 -58.716 
L 318.425178 -58.716 
L 317.301806 -58.716 
L 316.178433 -58.716 
L 315.055061 -58.716 
L 313.931689 -58.716 
L 312.808317 -58.716 
L 311.684945 -58.716 
L 310.561573 -58.716 
L 309.438201 -58.716 
L 308.314829 -58.716 
L 307.191456 -58.716 
L 306.068084 -58.716 
L 304.944712 -58.716 
L 303.82134 -58.716 
L 302.697968 -58.716 
L 301.574596 -58.716 
L 300.451224 -58.716 
L 299.327852 -58.716 
L 298.204479 -58.716 
L 297.081107 -58.716 
L 295.957735 -58.716 
L 294.834363 -58.716 
L 293.710991 -58.716 
L 292.587619 -58.716 
L 291.464247 -58.716 
L 290.340874 -58.716 
L 289.217502 -58.716 
L 288.09413 -58.716 
L 286.970758 -58.716 
L 285.847386 -58.716 
L 284.724014 -58.716 
L 283.600642 -58.716 
L 282.47727 -58.716 
L 281.353897 -58.716 
L 280.230525 -58.716 
L 279.107153 -58.716 
L 277.983781 -58.716 
L 276.860409 -58.716 
L 275.737037 -58.716 
L 274.613665 -58.716 
L 273.490293 -58.716 
L 272.36692 -58.716 
L 271.243548 -58.716 
L 270.120176 -58.716 
L 268.996804 -58.716 
L 267.873432 -58.716 
L 266.75006 -58.716 
L 265.626688 -58.716 
L 264.503316 -58.716 
L 263.379943 -58.716 
L 262.256571 -58.716 
L 261.133199 -58.716 
L 260.009827 -58.716 
L 258.886455 -58.716 
L 257.763083 -58.716 
L 256.639711 -58.716 
L 255.516338 -58.716 
L 254.392966 -58.716 
L 253.269594 -58.716 
L 252.146222 -58.716 
L 251.02285 -58.716 
L 249.899478 -58.716 
L 248.776106 -58.716 
L 247.652734 -58.716 
L 246.529361 -58.716 
L 245.405989 -58.716 
L 244.282617 -58.716 
L 243.159245 -58.716 
L 242.035873 -58.716 
L 240.912501 -58.716 
L 239.789129 -58.716 
L 238.665757 -58.716 
L 237.542384 -58.716 
L 236.419012 -58.716 
L 235.29564 -58.716 
L 234.172268 -58.716 
L 233.048896 -59.5224 
L 231.925524 -59.5224 
L 230.802152 -59.5224 
L 229.678779 -59.5224 
L 228.555407 -59.5224 
L 227.432035 -59.5224 
L 226.308663 -59.5224 
L 225.185291 -59.5224 
L 224.061919 -59.5224 
L 222.938547 -59.5224 
L 221.815175 -61.1352 
L 220.691802 -61.1352 
L 219.56843 -61.1352 
L 218.445058 -61.1352 
L 217.321686 -61.1352 
L 216.198314 -61.1352 
L 215.074942 -61.1352 
L 213.95157 -61.1352 
L 212.828198 -61.1352 
L 211.704825 -61.1352 
L 210.581453 -63.5544 
L 209.458081 -63.5544 
L 208.334709 -63.5544 
L 207.211337 -63.5544 
L 206.087965 -63.5544 
L 204.964593 -63.5544 
L 203.841221 -63.5544 
L 202.717848 -63.5544 
L 201.594476 -63.5544 
L 200.471104 -63.5544 
L 199.347732 -69.1992 
L 198.22436 -69.1992 
L 197.100988 -69.1992 
L 195.977616 -69.1992 
L 194.854243 -69.1992 
L 193.730871 -69.1992 
L 192.607499 -69.1992 
L 191.484127 -69.1992 
L 190.360755 -69.1992 
L 189.237383 -69.1992 
L 188.114011 -79.6824 
L 186.990639 -79.6824 
L 185.867266 -79.6824 
L 184.743894 -79.6824 
L 183.620522 -79.6824 
L 182.49715 -79.6824 
L 181.373778 -79.6824 
L 180.250406 -79.6824 
L 179.127034 -79.6824 
L 178.003662 -79.6824 
L 176.880289 -95.8104 
L 175.756917 -95.8104 
L 174.633545 -95.8104 
L 173.510173 -95.8104 
L 172.386801 -95.8104 
L 171.263429 -95.8104 
L 170.140057 -95.8104 
L 169.016684 -95.8104 
L 167.893312 -95.8104 
L 166.76994 -95.8104 
L 165.646568 -118.3896 
L 164.523196 -118.3896 
L 163.399824 -118.3896 
L 162.276452 -118.3896 
L 161.15308 -118.3896 
L 160.029707 -118.3896 
L 158.906335 -118.3896 
L 157.782963 -118.3896 
L 156.659591 -118.3896 
L 155.536219 -118.3896 
L 154.412847 -146.6136 
L 153.289475 -146.6136 
L 152.166103 -146.6136 
L 151.04273 -146.6136 
L 149.919358 -146.6136 
L 148.795986 -146.6136 
L 147.672614 -146.6136 
L 146.549242 -146.6136 
L 145.42587 -146.6136 
L 144.302498 -146.6136 
L 143.179126 -174.0312 
L 142.055753 -174.0312 
L 140.932381 -174.0312 
L 139.809009 -174.0312 
L 138.685637 -174.0312 
L 137.562265 -174.0312 
L 136.438893 -174.0312 
L 135.315521 -174.0312 
L 134.192148 -174.0312 
L 133.068776 -174.0312 
L 131.945404 -190.9656 
L 130.822032 -190.9656 
L 129.69866 -190.9656 
L 128.575288 -190.9656 
L 127.451916 -190.9656 
L 126.328544 -190.9656 
L 125.205171 -190.9656 
L 124.081799 -190.9656 
L 122.958427 -190.9656 
L 121.835055 -190.9656 
L 120.711683 -188.5464 
L 119.588311 -188.5464 
L 118.464939 -188.5464 
L 117.341567 -188.5464 
L 116.218194 -188.5464 
L 115.094822 -188.5464 
L 113.97145 -188.5464 
L 112.848078 -188.5464 
L 111.724706 -188.5464 
L 110.601334 -188.5464 
L 109.477962 -165.1608 
L 108.354589 -165.1608 
L 107.231217 -165.1608 
L 106.107845 -165.1608 
L 104.984473 -165.1608 
L 103.861101 -165.1608 
L 102.737729 -165.1608 
L 101.614357 -165.1608 
L 100.490985 -165.1608 
L 99.367612 -165.1608 
L 98.24424 -128.38896 
L 97.120868 -128.38896 
L 95.997496 -128.38896 
L 94.874124 -128.38896 
L 93.750752 -128.38896 
L 92.62738 -128.38896 
L 91.504008 -128.38896 
L 90.380635 -128.38896 
L 89.257263 -128.38896 
L 88.133891 -128.38896 
L 87.010519 -93.3912 
L 85.887147 -93.3912 
L 84.763775 -93.3912 
L 83.640403 -93.3912 
L 82.517031 -93.3912 
L 81.393658 -93.3912 
L 80.270286 -93.3912 
L 79.146914 -93.3912 
L 78.023542 -93.3912 
L 76.90017 -93.3912 
L 75.776798 -70.812 
L 74.653426 -70.812 
L 73.530053 -70.812 
L 72.406681 -70.812 
L 71.283309 -70.812 
L 70.159937 -70.812 
L 69.036565 -70.812 
L 67.913193 -70.812 
L 66.789821 -70.812 
L 65.666449 -70.812 
L 64.543076 -60.3288 
L 63.419704 -60.3288 
L 62.296332 -60.3288 
L 61.17296 -60.3288 
L 60.049588 -60.3288 
L 58.926216 -60.3288 
L 57.802844 -60.3288 
L 56.679472 -60.3288 
L 55.556099 -60.3288 
L 54.432727 -60.3288 
z
" id="m02d84f1fe3" style="stroke:#a25050;"/>
    </defs>
    <g clip-path="url(#p4298e487b1)">
     <use style="fill:#a25050;stroke:#a25050;" x="0" xlink:href="#m02d84f1fe3" y="339.258"/>
    </g>
   </g>
   <g id="matplotlib.axis_1">
    <g id="xtick_1">
     <g id="line2d_1">
      <defs>
       <path d="M 0 0 
L 0 3.5 
" id="ma4792b23d0" style="stroke:#000000;stroke-width:0.8;"/>
      </defs>
      <g>
       <use style="stroke:#000000;stroke-width:0.8;" x="54.432727" xlink:href="#ma4792b23d0" y="292.638"/>
      </g>
     </g>
     <g id="text_1">
      <!-- 0 -->
      <g transform="translate(50.432727 310.743)scale(0.16 -0.16)">
       <defs>
        <path d="M 2925 2086 
C 2925 2592 2899 3187 2630 3706 
C 2368 4186 1926 4339 1600 4339 
C 1222 4339 774 4166 512 3597 
C 301 3130 269 2598 269 2086 
C 269 1581 294 1114 486 646 
C 742 32 1229 -141 1594 -141 
C 2061 -141 2464 122 2669 563 
C 2861 979 2925 1402 2925 2086 
z
M 2426 2163 
C 2426 1741 2426 1338 2310 934 
C 2144 352 1805 250 1600 250 
C 1267 250 1005 493 877 954 
C 774 1318 768 1664 768 2163 
C 768 2566 768 2950 877 3302 
C 915 3424 1075 3949 1594 3949 
C 2093 3949 2259 3462 2304 3347 
C 2426 2989 2426 2560 2426 2163 
z
" id="LMSans10-Regular-30" transform="scale(0.015625)"/>
       </defs>
       <use xlink:href="#LMSans10-Regular-30"/>
      </g>
     </g>
    </g>
    <g id="xtick_2">
     <g id="line2d_2">
      <g>
       <use style="stroke:#000000;stroke-width:0.8;" x="110.407649" xlink:href="#ma4792b23d0" y="292.638"/>
      </g>
     </g>
     <g id="text_2">
      <!-- 5 -->
      <g transform="translate(106.407649 310.743)scale(0.16 -0.16)">
       <defs>
        <path d="M 2874 1299 
C 2874 2099 2323 2733 1664 2733 
C 1408 2733 1165 2637 979 2470 
L 979 3789 
L 2662 3789 
L 2662 4198 
L 518 4198 
L 518 1837 
L 941 1837 
C 1050 2093 1286 2342 1658 2342 
C 1958 2342 2304 2080 2304 1312 
C 2304 250 1523 250 1466 250 
C 1037 250 646 499 461 845 
L 250 486 
C 512 122 954 -141 1472 -141 
C 2234 -141 2874 493 2874 1299 
z
" id="LMSans10-Regular-35" transform="scale(0.015625)"/>
       </defs>
       <use xlink:href="#LMSans10-Regular-35"/>
      </g>
     </g>
    </g>
    <g id="xtick_3">
     <g id="line2d_3">
      <g>
       <use style="stroke:#000000;stroke-width:0.8;" x="166.382571" xlink:href="#ma4792b23d0" y="292.638"/>
      </g>
     </g>
     <g id="text_3">
      <!-- 10 -->
      <g transform="translate(158.382571 310.743)scale(0.16 -0.16)">
       <defs>
        <path d="M 2714 0 
L 2714 371 
L 1914 371 
L 1914 4339 
L 1786 4339 
C 1408 3949 877 3930 570 3917 
L 570 3546 
C 781 3552 1088 3565 1408 3699 
L 1408 371 
L 608 371 
L 608 0 
L 2714 0 
z
" id="LMSans10-Regular-31" transform="scale(0.015625)"/>
       </defs>
       <use xlink:href="#LMSans10-Regular-31"/>
       <use x="49.999985" xlink:href="#LMSans10-Regular-30"/>
      </g>
     </g>
    </g>
    <g id="xtick_4">
     <g id="line2d_4">
      <g>
       <use style="stroke:#000000;stroke-width:0.8;" x="222.357492" xlink:href="#ma4792b23d0" y="292.638"/>
      </g>
     </g>
     <g id="text_4">
      <!-- 15 -->
      <g transform="translate(214.357492 310.743)scale(0.16 -0.16)">
       <use xlink:href="#LMSans10-Regular-31"/>
       <use x="49.999985" xlink:href="#LMSans10-Regular-35"/>
      </g>
     </g>
    </g>
    <g id="xtick_5">
     <g id="line2d_5">
      <g>
       <use style="stroke:#000000;stroke-width:0.8;" x="278.332414" xlink:href="#ma4792b23d0" y="292.638"/>
      </g>
     </g>
     <g id="text_5">
      <!-- 20 -->
      <g transform="translate(270.332414 310.743)scale(0.16 -0.16)">
       <defs>
        <path d="M 2874 0 
L 2874 454 
L 1709 454 
C 1632 454 1555 448 1478 448 
L 781 448 
C 986 627 1472 1107 1670 1293 
C 1792 1408 2118 1677 2240 1792 
C 2528 2080 2874 2419 2874 2963 
C 2874 3699 2355 4339 1510 4339 
C 781 4339 422 3840 269 3290 
C 346 3181 378 3142 390 3123 
C 403 3110 467 3027 531 2938 
C 659 3430 838 3930 1421 3930 
C 2022 3930 2349 3450 2349 2950 
C 2349 2406 1984 2042 1606 1658 
L 1114 1203 
L 320 410 
L 320 0 
L 2874 0 
z
" id="LMSans10-Regular-32" transform="scale(0.015625)"/>
       </defs>
       <use xlink:href="#LMSans10-Regular-32"/>
       <use x="49.999985" xlink:href="#LMSans10-Regular-30"/>
      </g>
     </g>
    </g>
    <g id="xtick_6">
     <g id="line2d_6">
      <g>
       <use style="stroke:#000000;stroke-width:0.8;" x="334.307335" xlink:href="#ma4792b23d0" y="292.638"/>
      </g>
     </g>
     <g id="text_6">
      <!-- 25 -->
      <g transform="translate(326.307335 310.743)scale(0.16 -0.16)">
       <use xlink:href="#LMSans10-Regular-32"/>
       <use x="49.999985" xlink:href="#LMSans10-Regular-35"/>
      </g>
     </g>
    </g>
    <g id="xtick_7">
     <g id="line2d_7">
      <g>
       <use style="stroke:#000000;stroke-width:0.8;" x="390.282257" xlink:href="#ma4792b23d0" y="292.638"/>
      </g>
     </g>
     <g id="text_7">
      <!-- 30 -->
      <g transform="translate(382.282257 310.743)scale(0.16 -0.16)">
       <defs>
        <path d="M 2925 1152 
C 2925 1734 2477 2131 2042 2266 
C 2528 2528 2752 2963 2752 3366 
C 2752 3917 2221 4339 1587 4339 
C 1094 4339 627 4083 358 3635 
L 589 3290 
C 774 3738 1190 3968 1581 3968 
C 1914 3968 2227 3776 2227 3366 
C 2227 2976 1965 2598 1574 2509 
C 1536 2502 1523 2502 1069 2464 
L 1069 2074 
L 1523 2074 
C 2214 2074 2355 1478 2355 1158 
C 2355 659 2061 250 1568 250 
C 1126 250 621 474 339 909 
L 269 525 
C 736 -77 1325 -141 1581 -141 
C 2362 -141 2925 480 2925 1152 
z
" id="LMSans10-Regular-33" transform="scale(0.015625)"/>
       </defs>
       <use xlink:href="#LMSans10-Regular-33"/>
       <use x="49.999985" xlink:href="#LMSans10-Regular-30"/>
      </g>
     </g>
    </g>
    <g id="text_8">
     <!-- y -->
     <g transform="translate(213.0725 328.778)scale(0.16 -0.16)">
      <defs>
       <path d="M 2854 2842 
L 2374 2842 
C 1542 806 1530 512 1523 365 
L 1517 365 
C 1478 794 966 1984 941 2042 
L 595 2842 
L 90 2842 
L 1331 0 
L 1101 -576 
C 934 -947 826 -947 736 -947 
C 634 -947 429 -922 237 -845 
L 275 -1261 
C 416 -1293 595 -1312 736 -1312 
C 960 -1312 1197 -1235 1459 -582 
L 2854 2842 
z
" id="LMSans10-Regular-79" transform="scale(0.015625)"/>
      </defs>
      <use xlink:href="#LMSans10-Regular-79"/>
     </g>
    </g>
   </g>
   <g id="matplotlib.axis_2">
    <g id="ytick_1">
     <g id="line2d_8">
      <defs>
       <path d="M 0 0 
L -3.5 0 
" id="m29dd31dd92" style="stroke:#000000;stroke-width:0.8;"/>
      </defs>
      <g>
       <use style="stroke:#000000;stroke-width:0.8;" x="38.2" xlink:href="#m29dd31dd92" y="280.542"/>
      </g>
     </g>
     <g id="text_9">
      <!-- 0 -->
      <g transform="translate(23.2 286.0945)scale(0.16 -0.16)">
       <use xlink:href="#LMSans10-Regular-30"/>
      </g>
     </g>
    </g>
    <g id="ytick_2">
     <g id="line2d_9">
      <g>
       <use style="stroke:#000000;stroke-width:0.8;" x="38.2" xlink:href="#m29dd31dd92" y="240.222"/>
      </g>
     </g>
     <g id="text_10">
      <!-- 50 -->
      <g transform="translate(15.2 245.7745)scale(0.16 -0.16)">
       <use xlink:href="#LMSans10-Regular-35"/>
       <use x="49.999985" xlink:href="#LMSans10-Regular-30"/>
      </g>
     </g>
    </g>
    <g id="ytick_3">
     <g id="line2d_10">
      <g>
       <use style="stroke:#000000;stroke-width:0.8;" x="38.2" xlink:href="#m29dd31dd92" y="199.902"/>
      </g>
     </g>
     <g id="text_11">
      <!-- 100 -->
      <g transform="translate(7.2 205.4545)scale(0.16 -0.16)">
       <use xlink:href="#LMSans10-Regular-31"/>
       <use x="49.999985" xlink:href="#LMSans10-Regular-30"/>
       <use x="99.999969" xlink:href="#LMSans10-Regular-30"/>
      </g>
     </g>
    </g>
    <g id="ytick_4">
     <g id="line2d_11">
      <g>
       <use style="stroke:#000000;stroke-width:0.8;" x="38.2" xlink:href="#m29dd31dd92" y="159.582"/>
      </g>
     </g>
     <g id="text_12">
      <!-- 150 -->
      <g transform="translate(7.2 165.1345)scale(0.16 -0.16)">
       <use xlink:href="#LMSans10-Regular-31"/>
       <use x="49.999985" xlink:href="#LMSans10-Regular-35"/>
       <use x="99.999969" xlink:href="#LMSans10-Regular-30"/>
      </g>
     </g>
    </g>
    <g id="ytick_5">
     <g id="line2d_12">
      <g>
       <use style="stroke:#000000;stroke-width:0.8;" x="38.2" xlink:href="#m29dd31dd92" y="119.262"/>
      </g>
     </g>
     <g id="text_13">
      <!-- 200 -->
      <g transform="translate(7.2 124.8145)scale(0.16 -0.16)">
       <use xlink:href="#LMSans10-Regular-32"/>
       <use x="49.999985" xlink:href="#LMSans10-Regular-30"/>
       <use x="99.999969" xlink:href="#LMSans10-Regular-30"/>
      </g>
     </g>
    </g>
    <g id="ytick_6">
     <g id="line2d_13">
      <g>
       <use style="stroke:#000000;stroke-width:0.8;" x="38.2" xlink:href="#m29dd31dd92" y="78.942"/>
      </g>
     </g>
     <g id="text_14">
      <!-- 250 -->
      <g transform="translate(7.2 84.4945)scale(0.16 -0.16)">
       <use xlink:href="#LMSans10-Regular-32"/>
       <use x="49.999985" xlink:href="#LMSans10-Regular-35"/>
       <use x="99.999969" xlink:href="#LMSans10-Regular-30"/>
      </g>
     </g>
    </g>
    <g id="ytick_7">
     <g id="line2d_14">
      <g>
       <use style="stroke:#000000;stroke-width:0.8;" x="38.2" xlink:href="#m29dd31dd92" y="38.622"/>
      </g>
     </g>
     <g id="text_15">
      <!-- 300 -->
      <g transform="translate(7.2 44.1745)scale(0.16 -0.16)">
       <use xlink:href="#LMSans10-Regular-33"/>
       <use x="49.999985" xlink:href="#LMSans10-Regular-30"/>
       <use x="99.999969" xlink:href="#LMSans10-Regular-30"/>
      </g>
     </g>
    </g>
   </g>
   <g id="line2d_15">
    <path clip-path="url(#p4298e487b1)" d="M 54.432727 278.9292 
L 64.543076 278.9292 
L 65.666449 269.2524 
L 75.776798 269.2524 
L 76.90017 246.6732 
L 87.010519 246.6732 
L 88.133891 212.8044 
L 98.24424 212.8044 
L 99.367612 176.5164 
L 109.477962 176.5164 
L 110.601334 153.9372 
L 120.711683 153.9372 
L 121.835055 150.7116 
L 131.945404 150.7116 
L 133.068776 167.646 
L 143.179126 167.646 
L 144.302498 194.2572 
L 154.412847 194.2572 
L 155.536219 222.4812 
L 165.646568 222.4812 
L 166.76994 245.0604 
L 176.880289 245.0604 
L 178.003662 260.382 
L 188.114011 260.382 
L 189.237383 270.8652 
L 199.347732 270.8652 
L 200.471104 275.7036 
L 210.581453 275.7036 
L 211.704825 278.9292 
L 221.815175 278.9292 
L 222.938547 279.7356 
L 233.048896 279.7356 
L 234.172268 280.542 
L 379.087273 280.542 
L 379.087273 280.542 
" style="fill:none;stroke:#7c0000;stroke-linecap:square;stroke-width:1.5;"/>
   </g>
   <g id="line2d_16">
    <path clip-path="url(#p4298e487b1)" d="M 54.432727 38.622 
L 64.543076 38.622 
L 65.666449 280.542 
L 75.776798 280.542 
L 76.90017 279.7356 
L 87.010519 279.7356 
L 88.133891 270.8652 
L 98.24424 270.8652 
L 99.367612 267.6396 
L 109.477962 267.6396 
L 110.601334 232.9644 
L 120.711683 232.9644 
L 121.835055 230.5452 
L 131.945404 230.5452 
L 133.068776 197.4828 
L 143.179126 197.4828 
L 144.302498 211.998 
L 154.412847 211.998 
L 155.536219 216.8364 
L 165.646568 216.8364 
L 166.76994 206.3532 
L 176.880289 206.3532 
L 178.003662 217.6428 
L 188.114011 217.6428 
L 189.237383 238.6092 
L 199.347732 238.6092 
L 200.471104 250.7052 
L 210.581453 250.7052 
L 211.704825 261.1884 
L 221.815175 261.1884 
L 222.938547 280.542 
L 379.087273 280.542 
L 379.087273 280.542 
" style="fill:none;stroke:#000000;stroke-linecap:square;stroke-width:1.5;"/>
   </g>
   <g id="line2d_17">
    <path clip-path="url(#p4298e487b1)" d="M 334.307335 292.638 
L 334.307335 26.526 
" style="fill:none;stroke:#000000;stroke-linecap:square;stroke-width:2;"/>
   </g>
   <g id="patch_3">
    <path d="M 38.2 292.638 
L 38.2 26.526 
" style="fill:none;stroke:#000000;stroke-linecap:square;stroke-linejoin:miter;stroke-width:0.8;"/>
   </g>
   <g id="patch_4">
    <path d="M 395.32 292.638 
L 395.32 26.526 
" style="fill:none;stroke:#000000;stroke-linecap:square;stroke-linejoin:miter;stroke-width:0.8;"/>
   </g>
   <g id="patch_5">
    <path d="M 38.2 292.638 
L 395.32 292.638 
" style="fill:none;stroke:#000000;stroke-linecap:square;stroke-linejoin:miter;stroke-width:0.8;"/>
   </g>
   <g id="patch_6">
    <path d="M 38.2 26.526 
L 395.32 26.526 
" style="fill:none;stroke:#000000;stroke-linecap:square;stroke-linejoin:miter;stroke-width:0.8;"/>
   </g>
   <g id="text_16">
    <!-- Posterior predictive distribution -->
    <g transform="translate(90.457 20.526)scale(0.192 -0.192)">
     <defs>
      <path d="M 3725 3149 
C 3725 3834 3091 4442 2208 4442 
L 614 4442 
L 614 0 
L 1184 0 
L 1184 1850 
L 2253 1850 
C 3046 1850 3725 2432 3725 3149 
z
M 3206 3149 
C 3206 2643 2803 2221 2067 2221 
L 1165 2221 
L 1165 4083 
L 2067 4083 
C 2771 4083 3206 3693 3206 3149 
z
" id="LMSans10-Regular-50" transform="scale(0.015625)"/>
      <path d="M 3002 1408 
C 3002 2266 2362 2950 1600 2950 
C 813 2950 192 2246 192 1408 
C 192 563 845 -70 1594 -70 
C 2362 -70 3002 576 3002 1408 
z
M 2502 1472 
C 2502 717 2067 339 1594 339 
C 1152 339 691 698 691 1472 
C 691 2246 1178 2560 1594 2560 
C 2042 2560 2502 2227 2502 1472 
z
" id="LMSans10-Regular-6f" transform="scale(0.015625)"/>
      <path d="M 2304 819 
C 2304 1171 2067 1389 2054 1408 
C 1805 1632 1632 1670 1312 1728 
C 960 1798 666 1862 666 2176 
C 666 2573 1126 2573 1210 2573 
C 1414 2573 1754 2547 2118 2330 
L 2195 2746 
C 1862 2899 1600 2950 1274 2950 
C 1114 2950 211 2950 211 2112 
C 211 1798 397 1594 557 1472 
C 755 1331 896 1306 1248 1235 
C 1478 1190 1850 1114 1850 774 
C 1850 333 1344 333 1248 333 
C 730 333 371 570 256 646 
L 179 211 
C 384 109 736 -70 1254 -70 
C 1370 -70 1722 -70 1997 134 
C 2195 288 2304 544 2304 819 
z
" id="LMSans10-Regular-73" transform="scale(0.015625)"/>
      <path d="M 2125 173 
L 2022 550 
C 1856 416 1651 339 1446 339 
C 1210 339 1120 531 1120 870 
L 1120 2470 
L 2022 2470 
L 2022 2842 
L 1120 2842 
L 1120 3654 
L 678 3654 
L 678 2842 
L 122 2842 
L 122 2470 
L 659 2470 
L 659 762 
C 659 378 749 -70 1190 -70 
C 1638 -70 1965 90 2125 173 
z
" id="LMSans10-Regular-74" transform="scale(0.015625)"/>
      <path d="M 2650 1402 
C 2650 1619 2643 2099 2394 2483 
C 2131 2880 1741 2950 1510 2950 
C 800 2950 224 2272 224 1446 
C 224 602 838 -70 1606 -70 
C 2010 -70 2374 83 2624 262 
L 2586 678 
C 2182 346 1760 320 1613 320 
C 1101 320 691 774 672 1402 
L 2650 1402 
z
M 2285 1754 
L 704 1754 
C 806 2240 1146 2560 1510 2560 
C 1843 2560 2202 2342 2285 1754 
z
" id="LMSans10-Regular-65" transform="scale(0.015625)"/>
      <path d="M 2093 2483 
L 2093 2912 
C 1523 2906 1171 2592 973 2298 
L 973 2880 
L 525 2880 
L 525 0 
L 1005 0 
L 1005 1370 
C 1005 2010 1466 2470 2093 2483 
z
" id="LMSans10-Regular-72" transform="scale(0.015625)"/>
      <path d="M 998 0 
L 998 2842 
L 518 2842 
L 518 0 
L 998 0 
z
M 1050 3622 
L 1050 4192 
L 480 4192 
L 480 3622 
L 1050 3622 
z
" id="LMSans10-Regular-69" transform="scale(0.015625)"/>
      <path id="LMSans10-Regular-20" transform="scale(0.015625)"/>
      <path d="M 3072 1427 
C 3072 2195 2669 2912 2054 2912 
C 1670 2912 1299 2778 1005 2528 
L 1005 2842 
L 525 2842 
L 525 -1242 
L 1024 -1242 
L 1024 294 
C 1222 109 1504 -70 1888 -70 
C 2509 -70 3072 557 3072 1427 
z
M 2573 1427 
C 2573 768 2118 320 1638 320 
C 1389 320 1216 448 1088 621 
C 1024 717 1024 730 1024 845 
L 1024 2131 
C 1178 2355 1427 2502 1702 2502 
C 2189 2502 2573 2016 2573 1427 
z
" id="LMSans10-Regular-70" transform="scale(0.015625)"/>
      <path d="M 2778 0 
L 2778 4442 
L 2298 4442 
L 2298 2560 
C 1958 2842 1600 2912 1363 2912 
C 730 2912 230 2246 230 1421 
C 230 582 723 -70 1331 -70 
C 1542 -70 1920 -13 2278 333 
L 2278 0 
L 2778 0 
z
M 2278 890 
C 2278 800 2272 685 2067 499 
C 1920 371 1760 320 1594 320 
C 1197 320 730 621 730 1414 
C 730 2259 1280 2522 1658 2522 
C 1946 2522 2138 2374 2278 2170 
L 2278 890 
z
" id="LMSans10-Regular-64" transform="scale(0.015625)"/>
      <path d="M 2656 256 
L 2618 685 
C 2291 429 1946 339 1619 339 
C 1088 339 730 800 730 1427 
C 730 1926 966 2541 1645 2541 
C 1978 2541 2195 2490 2547 2259 
L 2624 2675 
C 2246 2893 2029 2950 1638 2950 
C 749 2950 230 2176 230 1421 
C 230 627 813 -70 1613 -70 
C 1958 -70 2310 19 2656 256 
z
" id="LMSans10-Regular-63" transform="scale(0.015625)"/>
      <path d="M 2854 2842 
L 2374 2842 
L 1869 1510 
C 1734 1158 1536 640 1485 339 
L 1478 339 
C 1440 570 1274 1011 1210 1184 
L 589 2842 
L 90 2842 
L 1190 0 
L 1754 0 
L 2854 2842 
z
" id="LMSans10-Regular-76" transform="scale(0.015625)"/>
      <path d="M 3072 1427 
C 3072 2221 2637 2912 2035 2912 
C 1786 2912 1389 2848 1005 2534 
L 1005 4442 
L 525 4442 
L 525 0 
L 1024 0 
L 1024 294 
C 1178 154 1453 -70 1882 -70 
C 2522 -70 3072 570 3072 1427 
z
M 2573 1427 
C 2573 595 2035 320 1645 320 
C 1395 320 1184 435 1024 730 
L 1024 2144 
C 1126 2298 1357 2522 1709 2522 
C 2086 2522 2573 2246 2573 1427 
z
" id="LMSans10-Regular-62" transform="scale(0.015625)"/>
      <path d="M 2784 0 
L 2784 2842 
L 2285 2842 
L 2285 986 
C 2285 506 1926 282 1517 282 
C 1062 282 1018 448 1018 723 
L 1018 2842 
L 518 2842 
L 518 698 
C 518 237 666 -70 1197 -70 
C 1536 -70 1990 32 2304 307 
L 2304 0 
L 2784 0 
z
" id="LMSans10-Regular-75" transform="scale(0.015625)"/>
      <path d="M 2784 0 
L 2784 1907 
C 2784 2330 2688 2912 1907 2912 
C 1331 2912 1018 2477 979 2426 
L 979 2880 
L 518 2880 
L 518 0 
L 1018 0 
L 1018 1568 
C 1018 1990 1178 2522 1664 2522 
C 2278 2522 2285 2067 2285 1862 
L 2285 0 
L 2784 0 
z
" id="LMSans10-Regular-6e" transform="scale(0.015625)"/>
     </defs>
     <use xlink:href="#LMSans10-Regular-50"/>
     <use x="63.899994" xlink:href="#LMSans10-Regular-6f"/>
     <use x="113.899979" xlink:href="#LMSans10-Regular-73"/>
     <use x="152.199966" xlink:href="#LMSans10-Regular-74"/>
     <use x="188.299957" xlink:href="#LMSans10-Regular-65"/>
     <use x="232.699951" xlink:href="#LMSans10-Regular-72"/>
     <use x="266.899948" xlink:href="#LMSans10-Regular-69"/>
     <use x="290.799942" xlink:href="#LMSans10-Regular-6f"/>
     <use x="340.799927" xlink:href="#LMSans10-Regular-72"/>
     <use x="374.999924" xlink:href="#LMSans10-Regular-20"/>
     <use x="408.299911" xlink:href="#LMSans10-Regular-70"/>
     <use x="459.999908" xlink:href="#LMSans10-Regular-72"/>
     <use x="494.199905" xlink:href="#LMSans10-Regular-65"/>
     <use x="538.599899" xlink:href="#LMSans10-Regular-64"/>
     <use x="590.299896" xlink:href="#LMSans10-Regular-69"/>
     <use x="614.19989" xlink:href="#LMSans10-Regular-63"/>
     <use x="658.599884" xlink:href="#LMSans10-Regular-74"/>
     <use x="694.699875" xlink:href="#LMSans10-Regular-69"/>
     <use x="718.599869" xlink:href="#LMSans10-Regular-76"/>
     <use x="764.69986" xlink:href="#LMSans10-Regular-65"/>
     <use x="809.099854" xlink:href="#LMSans10-Regular-20"/>
     <use x="842.399841" xlink:href="#LMSans10-Regular-64"/>
     <use x="894.099838" xlink:href="#LMSans10-Regular-69"/>
     <use x="917.999832" xlink:href="#LMSans10-Regular-73"/>
     <use x="956.29982" xlink:href="#LMSans10-Regular-74"/>
     <use x="992.399811" xlink:href="#LMSans10-Regular-72"/>
     <use x="1026.599808" xlink:href="#LMSans10-Regular-69"/>
     <use x="1050.499802" xlink:href="#LMSans10-Regular-62"/>
     <use x="1102.199799" xlink:href="#LMSans10-Regular-75"/>
     <use x="1153.899796" xlink:href="#LMSans10-Regular-74"/>
     <use x="1189.999786" xlink:href="#LMSans10-Regular-69"/>
     <use x="1213.89978" xlink:href="#LMSans10-Regular-6f"/>
     <use x="1263.899765" xlink:href="#LMSans10-Regular-6e"/>
    </g>
   </g>
  </g>
 </g>
 <defs>
  <clipPath id="p4298e487b1">
   <rect height="266.112" width="357.12" x="38.2" y="26.526"/>
  </clipPath>
 </defs>
</svg>
