<?xml version="1.0" encoding="utf-8" standalone="no"?>
<!DOCTYPE svg PUBLIC "-//W3C//DTD SVG 1.1//EN"
  "http://www.w3.org/Graphics/SVG/1.1/DTD/svg11.dtd">
<svg height="353.99952pt" version="1.1" viewBox="0 0 469.19952 353.99952" width="469.19952pt" xmlns="http://www.w3.org/2000/svg" xmlns:xlink="http://www.w3.org/1999/xlink">
 <metadata>
  <rdf:RDF xmlns:cc="http://creativecommons.org/ns#" xmlns:dc="http://purl.org/dc/elements/1.1/" xmlns:rdf="http://www.w3.org/1999/02/22-rdf-syntax-ns#">
   <cc:Work>
    <dc:type rdf:resource="http://purl.org/dc/dcmitype/StillImage"/>
    <dc:date>2021-05-27T07:36:14.079130</dc:date>
    <dc:format>image/svg+xml</dc:format>
    <dc:creator>
     <cc:Agent>
      <dc:title>Matplotlib v3.4.2, https://matplotlib.org/</dc:title>
     </cc:Agent>
    </dc:creator>
   </cc:Work>
  </rdf:RDF>
 </metadata>
 <defs>
  <style type="text/css">*{stroke-linecap:butt;stroke-linejoin:round;}</style>
 </defs>
 <g id="figure_1">
  <g id="patch_1">
   <path d="M 0 353.99952 
L 469.19952 353.99952 
L 469.19952 0 
L 0 0 
z
" style="fill:#ffffff;"/>
  </g>
  <g id="axes_1">
   <g id="patch_2">
    <path d="M 7.2 327.86577 
L 461.99952 327.86577 
L 461.99952 24.305 
L 7.2 24.305 
z
" style="fill:#ffffff;"/>
   </g>
   <g id="PolyCollection_1">
    <defs>
     <path d="M 27.872705 -39.931967 
L 27.872705 -40.831161 
L 28.681813 -40.831019 
L 29.490921 -40.833785 
L 30.300029 -40.834234 
L 31.109137 -40.835114 
L 31.918245 -40.836833 
L 32.727353 -40.837442 
L 33.53646 -40.846043 
L 34.345568 -40.854706 
L 35.154676 -40.86163 
L 35.963784 -40.878976 
L 36.772892 -40.904252 
L 37.582 -40.931948 
L 38.391107 -40.968144 
L 39.200215 -41.007829 
L 40.009323 -41.053717 
L 40.818431 -41.105936 
L 41.627539 -41.16759 
L 42.436647 -41.233097 
L 43.245755 -41.307717 
L 44.054862 -41.385601 
L 44.86397 -41.471768 
L 45.673078 -41.560162 
L 46.482186 -41.652498 
L 47.291294 -41.74799 
L 48.100402 -41.845807 
L 48.909509 -41.951365 
L 49.718617 -42.056151 
L 50.527725 -42.168277 
L 51.336833 -42.273304 
L 52.145941 -42.381155 
L 52.955049 -42.49227 
L 53.764157 -42.59799 
L 54.573264 -42.70305 
L 55.382372 -42.807419 
L 56.19148 -42.914296 
L 57.000588 -43.018431 
L 57.809696 -43.122508 
L 58.618804 -43.229958 
L 59.427911 -43.336409 
L 60.237019 -43.445388 
L 61.046127 -43.556634 
L 61.855235 -43.679276 
L 62.664343 -43.800622 
L 63.473451 -43.922958 
L 64.282559 -44.049038 
L 65.091666 -44.182205 
L 65.900774 -44.32342 
L 66.709882 -44.467444 
L 67.51899 -44.616797 
L 68.328098 -44.774596 
L 69.137206 -44.932187 
L 69.946313 -45.097211 
L 70.755421 -45.270053 
L 71.564529 -45.451189 
L 72.373637 -45.638096 
L 73.182745 -45.824434 
L 73.991853 -46.030371 
L 74.80096 -46.228547 
L 75.610068 -46.427819 
L 76.419176 -46.633452 
L 77.228284 -46.852318 
L 78.037392 -47.071349 
L 78.8465 -47.289495 
L 79.655608 -47.511769 
L 80.464715 -47.744647 
L 81.273823 -47.983873 
L 82.082931 -48.227029 
L 82.892039 -48.47718 
L 83.701147 -48.735678 
L 84.510255 -49.001461 
L 85.319362 -49.286209 
L 86.12847 -49.579074 
L 86.937578 -49.880802 
L 87.746686 -50.209958 
L 88.555794 -50.542266 
L 89.364902 -50.881563 
L 90.17401 -51.238774 
L 90.983117 -51.608838 
L 91.792225 -52.010101 
L 92.601333 -52.410148 
L 93.410441 -52.822825 
L 94.219549 -53.249604 
L 95.028657 -53.687065 
L 95.837764 -54.134092 
L 96.646872 -54.587052 
L 97.45598 -55.050143 
L 98.265088 -55.525316 
L 99.074196 -56.004496 
L 99.883304 -56.486961 
L 100.692412 -56.973813 
L 101.501519 -57.461526 
L 102.310627 -57.958502 
L 103.119735 -58.462597 
L 103.928843 -58.959576 
L 104.737951 -59.460222 
L 105.547059 -59.983858 
L 106.356166 -60.505008 
L 107.165274 -61.044064 
L 107.974382 -61.589297 
L 108.78349 -62.140921 
L 109.592598 -62.716899 
L 110.401706 -63.334331 
L 111.210814 -63.942291 
L 112.019921 -64.570205 
L 112.829029 -65.251134 
L 113.638137 -65.916933 
L 114.447245 -66.622268 
L 115.256353 -67.354921 
L 116.065461 -68.104976 
L 116.874568 -68.894519 
L 117.683676 -69.719729 
L 118.492784 -70.564579 
L 119.301892 -71.449716 
L 120.111 -72.350456 
L 120.920108 -73.268834 
L 121.729216 -74.218517 
L 122.538323 -75.20124 
L 123.347431 -76.21212 
L 124.156539 -77.263046 
L 124.965647 -78.321377 
L 125.774755 -79.42884 
L 126.583863 -80.573339 
L 127.39297 -81.756761 
L 128.202078 -82.957738 
L 129.011186 -84.174183 
L 129.820294 -85.44857 
L 130.629402 -86.749812 
L 131.43851 -88.067454 
L 132.247618 -89.436484 
L 133.056725 -90.832782 
L 133.865833 -92.271272 
L 134.674941 -93.745493 
L 135.484049 -95.233469 
L 136.293157 -96.76442 
L 137.102265 -98.314051 
L 137.911372 -99.89581 
L 138.72048 -101.523177 
L 139.529588 -103.1563 
L 140.338696 -104.819258 
L 141.147804 -106.477991 
L 141.956912 -108.173632 
L 142.76602 -109.905383 
L 143.575127 -111.613146 
L 144.384235 -113.342408 
L 145.193343 -115.099836 
L 146.002451 -116.860366 
L 146.811559 -118.609755 
L 147.620667 -120.358552 
L 148.429774 -122.098988 
L 149.238882 -123.877425 
L 150.04799 -125.646645 
L 150.857098 -127.41597 
L 151.666206 -129.178678 
L 152.475314 -130.941198 
L 153.284422 -132.726667 
L 154.093529 -134.512733 
L 154.902637 -136.31676 
L 155.711745 -138.11857 
L 156.520853 -139.940163 
L 157.329961 -141.78939 
L 158.139069 -143.647841 
L 158.948176 -145.536981 
L 159.757284 -147.476949 
L 160.566392 -149.451434 
L 161.3755 -151.492702 
L 162.184608 -153.549326 
L 162.993716 -155.658012 
L 163.802824 -157.817062 
L 164.611931 -160.011469 
L 165.421039 -162.294494 
L 166.230147 -164.595988 
L 167.039255 -166.956132 
L 167.848363 -169.367154 
L 168.657471 -171.769252 
L 169.466578 -174.226441 
L 170.275686 -176.731602 
L 171.084794 -179.231185 
L 171.893902 -181.764046 
L 172.70301 -184.310847 
L 173.512118 -186.843603 
L 174.321226 -189.410198 
L 175.130333 -191.948689 
L 175.939441 -194.453885 
L 176.748549 -196.971835 
L 177.557657 -199.475801 
L 178.366765 -201.942296 
L 179.175873 -204.397832 
L 179.98498 -206.806286 
L 180.794088 -209.172583 
L 181.603196 -211.539351 
L 182.412304 -213.900367 
L 183.221412 -216.245009 
L 184.03052 -218.588233 
L 184.839627 -220.915398 
L 185.648735 -223.231767 
L 186.457843 -225.555373 
L 187.266951 -227.892582 
L 188.076059 -230.236625 
L 188.885167 -232.579119 
L 189.694275 -234.959199 
L 190.503382 -237.322422 
L 191.31249 -239.700004 
L 192.121598 -242.136647 
L 192.930706 -244.540076 
L 193.739814 -246.92094 
L 194.548922 -249.308561 
L 195.358029 -251.685639 
L 196.167137 -254.039916 
L 196.976245 -256.343091 
L 197.785353 -258.618091 
L 198.594461 -260.872441 
L 199.403569 -263.079882 
L 200.212677 -265.249845 
L 201.021784 -267.31985 
L 201.830892 -269.339191 
L 202.64 -271.283945 
L 203.449108 -273.13744 
L 204.258216 -274.917898 
L 205.067324 -276.580251 
L 205.876431 -278.16948 
L 206.685539 -279.689087 
L 207.494647 -281.118364 
L 208.303755 -282.438324 
L 209.112863 -283.699944 
L 209.921971 -284.891703 
L 210.731079 -286.022472 
L 211.540186 -287.080835 
L 212.349294 -288.063507 
L 213.158402 -289.017303 
L 213.96751 -289.961063 
L 214.776618 -290.868252 
L 215.585726 -291.760151 
L 216.394833 -292.627836 
L 217.203941 -293.517555 
L 218.013049 -294.364132 
L 218.822157 -295.296839 
L 219.631265 -296.212156 
L 220.440373 -297.147186 
L 221.249481 -298.101043 
L 222.058588 -299.075247 
L 222.867696 -300.075458 
L 223.676804 -301.11929 
L 224.485912 -302.15723 
L 225.29502 -303.241549 
L 226.104128 -304.336457 
L 226.913235 -305.444323 
L 227.722343 -306.56833 
L 228.531451 -307.627632 
L 229.340559 -308.704708 
L 230.149667 -309.750102 
L 230.958775 -310.730883 
L 231.767883 -311.707568 
L 232.57699 -312.581966 
L 233.386098 -313.356694 
L 234.195206 -314.077651 
L 235.004314 -314.682967 
L 235.813422 -315.175776 
L 236.62253 -315.533484 
L 237.431637 -315.770519 
L 238.240745 -315.896303 
L 239.049853 -315.870695 
L 239.858961 -315.704472 
L 240.668069 -315.40217 
L 241.477177 -314.938433 
L 242.286285 -314.323488 
L 243.095392 -313.574221 
L 243.9045 -312.68475 
L 244.713608 -311.660421 
L 245.522716 -310.475268 
L 246.331824 -309.168822 
L 247.140932 -307.789495 
L 247.950039 -306.269984 
L 248.759147 -304.661433 
L 249.568255 -302.96612 
L 250.377363 -301.200722 
L 251.186471 -299.398678 
L 251.995579 -297.562351 
L 252.804687 -295.683361 
L 253.613794 -293.828287 
L 254.422902 -291.985412 
L 255.23201 -290.135117 
L 256.041118 -288.333553 
L 256.850226 -286.604433 
L 257.659334 -284.929534 
L 258.468441 -283.29764 
L 259.277549 -281.760536 
L 260.086657 -280.287376 
L 260.895765 -278.890325 
L 261.704873 -277.55784 
L 262.513981 -276.331894 
L 263.323089 -275.147816 
L 264.132196 -274.099494 
L 264.941304 -273.069319 
L 265.750412 -272.142881 
L 266.55952 -271.241968 
L 267.368628 -270.397317 
L 268.177736 -269.611065 
L 268.986843 -268.805239 
L 269.795951 -268.001252 
L 270.605059 -267.175982 
L 271.414167 -266.333283 
L 272.223275 -265.433202 
L 273.032383 -264.489255 
L 273.841491 -263.46855 
L 274.650598 -262.379971 
L 275.459706 -261.184727 
L 276.268814 -259.875358 
L 277.077922 -258.431141 
L 277.88703 -256.919877 
L 278.696138 -255.269772 
L 279.505245 -253.461478 
L 280.314353 -251.493215 
L 281.123461 -249.409483 
L 281.932569 -247.168487 
L 282.741677 -244.812052 
L 283.550785 -242.302547 
L 284.359893 -239.672798 
L 285.169 -236.907941 
L 285.978108 -233.989123 
L 286.787216 -230.973034 
L 287.596324 -227.84446 
L 288.405432 -224.631034 
L 289.21454 -221.357893 
L 290.023647 -217.984181 
L 290.832755 -214.555761 
L 291.641863 -211.08438 
L 292.450971 -207.582241 
L 293.260079 -204.044699 
L 294.069187 -200.510261 
L 294.878294 -196.97557 
L 295.687402 -193.47395 
L 296.49651 -190.001894 
L 297.305618 -186.563328 
L 298.114726 -183.17981 
L 298.923834 -179.844752 
L 299.732942 -176.606283 
L 300.542049 -173.44102 
L 301.351157 -170.364019 
L 302.160265 -167.386339 
L 302.969373 -164.498658 
L 303.778481 -161.673693 
L 304.587589 -158.97589 
L 305.396696 -156.374714 
L 306.205804 -153.872188 
L 307.014912 -151.465538 
L 307.82402 -149.134768 
L 308.633128 -146.885654 
L 309.442236 -144.737956 
L 310.251344 -142.614722 
L 311.060451 -140.596979 
L 311.869559 -138.62925 
L 312.678667 -136.704386 
L 313.487775 -134.807037 
L 314.296883 -132.943708 
L 315.105991 -131.102351 
L 315.915098 -129.280132 
L 316.724206 -127.465013 
L 317.533314 -125.665512 
L 318.342422 -123.862172 
L 319.15153 -122.070787 
L 319.960638 -120.280511 
L 320.769746 -118.474569 
L 321.578853 -116.672427 
L 322.387961 -114.869863 
L 323.197069 -113.099699 
L 324.006177 -111.325081 
L 324.815285 -109.577963 
L 325.624393 -107.820858 
L 326.4335 -106.109074 
L 327.242608 -104.425193 
L 328.051716 -102.780586 
L 328.860824 -101.155301 
L 329.669932 -99.602964 
L 330.47904 -98.094691 
L 331.288148 -96.62091 
L 332.097255 -95.201264 
L 332.906363 -93.856687 
L 333.715471 -92.559491 
L 334.524579 -91.319276 
L 335.333687 -90.12515 
L 336.142795 -88.967661 
L 336.951902 -87.85429 
L 337.76101 -86.773038 
L 338.570118 -85.721793 
L 339.379226 -84.702438 
L 340.188334 -83.695736 
L 340.997442 -82.688946 
L 341.80655 -81.700219 
L 342.615657 -80.727141 
L 343.424765 -79.759931 
L 344.233873 -78.788887 
L 345.042981 -77.79086 
L 345.852089 -76.794145 
L 346.661197 -75.793804 
L 347.470304 -74.790415 
L 348.279412 -73.777482 
L 349.08852 -72.775351 
L 349.897628 -71.75038 
L 350.706736 -70.747057 
L 351.515844 -69.750303 
L 352.324952 -68.742805 
L 353.134059 -67.774258 
L 353.943167 -66.82185 
L 354.752275 -65.902832 
L 355.561383 -65.000675 
L 356.370491 -64.155748 
L 357.179599 -63.328774 
L 357.988706 -62.521963 
L 358.797814 -61.756682 
L 359.606922 -61.034177 
L 360.41603 -60.349159 
L 361.225138 -59.700626 
L 362.034246 -59.093254 
L 362.843354 -58.518598 
L 363.652461 -57.976994 
L 364.461569 -57.462725 
L 365.270677 -56.982292 
L 366.079785 -56.537568 
L 366.888893 -56.129948 
L 367.698001 -55.742898 
L 368.507108 -55.37601 
L 369.316216 -55.025618 
L 370.125324 -54.695867 
L 370.934432 -54.377498 
L 371.74354 -54.092332 
L 372.552648 -53.810739 
L 373.361756 -53.545414 
L 374.170863 -53.292621 
L 374.979971 -53.048733 
L 375.789079 -52.817363 
L 376.598187 -52.596735 
L 377.407295 -52.385897 
L 378.216403 -52.17599 
L 379.02551 -51.974498 
L 379.834618 -51.779612 
L 380.643726 -51.581604 
L 381.452834 -51.387768 
L 382.261942 -51.193677 
L 383.07105 -50.998021 
L 383.880158 -50.806805 
L 384.689265 -50.609812 
L 385.498373 -50.398939 
L 386.307481 -50.185566 
L 387.116589 -49.968208 
L 387.925697 -49.740184 
L 388.734805 -49.501838 
L 389.543912 -49.263359 
L 390.35302 -49.006059 
L 391.162128 -48.752296 
L 391.971236 -48.49047 
L 392.780344 -48.219241 
L 393.589452 -47.945957 
L 394.39856 -47.661557 
L 395.207667 -47.383093 
L 396.016775 -47.1003 
L 396.825883 -46.820156 
L 397.634991 -46.536175 
L 398.444099 -46.258198 
L 399.253207 -45.989876 
L 400.062314 -45.719045 
L 400.871422 -45.455229 
L 401.68053 -45.199132 
L 402.489638 -44.951337 
L 403.298746 -44.712302 
L 404.107854 -44.479924 
L 404.916961 -44.259852 
L 405.726069 -44.051528 
L 406.535177 -43.854445 
L 407.344285 -43.665696 
L 408.153393 -43.482958 
L 408.962501 -43.311675 
L 409.771609 -43.148681 
L 410.580716 -42.994577 
L 411.389824 -42.852381 
L 412.198932 -42.713434 
L 413.00804 -42.583035 
L 413.817148 -42.463353 
L 414.626256 -42.348697 
L 415.435363 -42.241911 
L 416.244471 -42.145144 
L 417.053579 -42.050245 
L 417.862687 -41.965457 
L 418.671795 -41.887353 
L 419.480903 -41.803451 
L 420.290011 -41.740571 
L 421.099118 -41.685285 
L 421.908226 -41.63438 
L 422.717334 -41.585989 
L 423.526442 -41.545391 
L 424.33555 -41.508623 
L 425.144658 -41.475523 
L 425.953765 -41.443464 
L 426.762873 -41.415222 
L 427.571981 -41.390449 
L 428.381089 -41.374375 
L 429.190197 -41.358283 
L 429.999305 -41.344437 
L 430.808413 -41.332654 
L 431.61752 -41.320306 
L 432.426628 -41.312619 
L 433.235736 -41.303842 
L 434.044844 -41.299211 
L 434.853952 -41.292986 
L 435.66306 -41.29355 
L 436.472167 -41.292211 
L 437.281275 -41.288839 
L 438.090383 -41.28873 
L 438.899491 -41.288648 
L 439.708599 -41.2885 
L 440.517707 -41.285761 
L 441.326815 -41.285778 
L 441.326815 -39.931967 
L 441.326815 -39.931967 
L 440.517707 -39.931967 
L 439.708599 -39.931967 
L 438.899491 -39.931967 
L 438.090383 -39.931967 
L 437.281275 -39.931967 
L 436.472167 -39.931967 
L 435.66306 -39.931967 
L 434.853952 -39.931967 
L 434.044844 -39.931967 
L 433.235736 -39.931967 
L 432.426628 -39.931967 
L 431.61752 -39.931967 
L 430.808413 -39.931967 
L 429.999305 -39.931967 
L 429.190197 -39.931967 
L 428.381089 -39.931967 
L 427.571981 -39.931967 
L 426.762873 -39.931967 
L 425.953765 -39.931967 
L 425.144658 -39.931967 
L 424.33555 -39.931967 
L 423.526442 -39.931967 
L 422.717334 -39.931967 
L 421.908226 -39.931967 
L 421.099118 -39.931967 
L 420.290011 -39.931967 
L 419.480903 -39.931967 
L 418.671795 -39.931967 
L 417.862687 -39.931967 
L 417.053579 -39.931967 
L 416.244471 -39.931967 
L 415.435363 -39.931967 
L 414.626256 -39.931967 
L 413.817148 -39.931967 
L 413.00804 -39.931967 
L 412.198932 -39.931967 
L 411.389824 -39.931967 
L 410.580716 -39.931967 
L 409.771609 -39.931967 
L 408.962501 -39.931967 
L 408.153393 -39.931967 
L 407.344285 -39.931967 
L 406.535177 -39.931967 
L 405.726069 -39.931967 
L 404.916961 -39.931967 
L 404.107854 -39.931967 
L 403.298746 -39.931967 
L 402.489638 -39.931967 
L 401.68053 -39.931967 
L 400.871422 -39.931967 
L 400.062314 -39.931967 
L 399.253207 -39.931967 
L 398.444099 -39.931967 
L 397.634991 -39.931967 
L 396.825883 -39.931967 
L 396.016775 -39.931967 
L 395.207667 -39.931967 
L 394.39856 -39.931967 
L 393.589452 -39.931967 
L 392.780344 -39.931967 
L 391.971236 -39.931967 
L 391.162128 -39.931967 
L 390.35302 -39.931967 
L 389.543912 -39.931967 
L 388.734805 -39.931967 
L 387.925697 -39.931967 
L 387.116589 -39.931967 
L 386.307481 -39.931967 
L 385.498373 -39.931967 
L 384.689265 -39.931967 
L 383.880158 -39.931967 
L 383.07105 -39.931967 
L 382.261942 -39.931967 
L 381.452834 -39.931967 
L 380.643726 -39.931967 
L 379.834618 -39.931967 
L 379.02551 -39.931967 
L 378.216403 -39.931967 
L 377.407295 -39.931967 
L 376.598187 -39.931967 
L 375.789079 -39.931967 
L 374.979971 -39.931967 
L 374.170863 -39.931967 
L 373.361756 -39.931967 
L 372.552648 -39.931967 
L 371.74354 -39.931967 
L 370.934432 -39.931967 
L 370.125324 -39.931967 
L 369.316216 -39.931967 
L 368.507108 -39.931967 
L 367.698001 -39.931967 
L 366.888893 -39.931967 
L 366.079785 -39.931967 
L 365.270677 -39.931967 
L 364.461569 -39.931967 
L 363.652461 -39.931967 
L 362.843354 -39.931967 
L 362.034246 -39.931967 
L 361.225138 -39.931967 
L 360.41603 -39.931967 
L 359.606922 -39.931967 
L 358.797814 -39.931967 
L 357.988706 -39.931967 
L 357.179599 -39.931967 
L 356.370491 -39.931967 
L 355.561383 -39.931967 
L 354.752275 -39.931967 
L 353.943167 -39.931967 
L 353.134059 -39.931967 
L 352.324952 -39.931967 
L 351.515844 -39.931967 
L 350.706736 -39.931967 
L 349.897628 -39.931967 
L 349.08852 -39.931967 
L 348.279412 -39.931967 
L 347.470304 -39.931967 
L 346.661197 -39.931967 
L 345.852089 -39.931967 
L 345.042981 -39.931967 
L 344.233873 -39.931967 
L 343.424765 -39.931967 
L 342.615657 -39.931967 
L 341.80655 -39.931967 
L 340.997442 -39.931967 
L 340.188334 -39.931967 
L 339.379226 -39.931967 
L 338.570118 -39.931967 
L 337.76101 -39.931967 
L 336.951902 -39.931967 
L 336.142795 -39.931967 
L 335.333687 -39.931967 
L 334.524579 -39.931967 
L 333.715471 -39.931967 
L 332.906363 -39.931967 
L 332.097255 -39.931967 
L 331.288148 -39.931967 
L 330.47904 -39.931967 
L 329.669932 -39.931967 
L 328.860824 -39.931967 
L 328.051716 -39.931967 
L 327.242608 -39.931967 
L 326.4335 -39.931967 
L 325.624393 -39.931967 
L 324.815285 -39.931967 
L 324.006177 -39.931967 
L 323.197069 -39.931967 
L 322.387961 -39.931967 
L 321.578853 -39.931967 
L 320.769746 -39.931967 
L 319.960638 -39.931967 
L 319.15153 -39.931967 
L 318.342422 -39.931967 
L 317.533314 -39.931967 
L 316.724206 -39.931967 
L 315.915098 -39.931967 
L 315.105991 -39.931967 
L 314.296883 -39.931967 
L 313.487775 -39.931967 
L 312.678667 -39.931967 
L 311.869559 -39.931967 
L 311.060451 -39.931967 
L 310.251344 -39.931967 
L 309.442236 -39.931967 
L 308.633128 -39.931967 
L 307.82402 -39.931967 
L 307.014912 -39.931967 
L 306.205804 -39.931967 
L 305.396696 -39.931967 
L 304.587589 -39.931967 
L 303.778481 -39.931967 
L 302.969373 -39.931967 
L 302.160265 -39.931967 
L 301.351157 -39.931967 
L 300.542049 -39.931967 
L 299.732942 -39.931967 
L 298.923834 -39.931967 
L 298.114726 -39.931967 
L 297.305618 -39.931967 
L 296.49651 -39.931967 
L 295.687402 -39.931967 
L 294.878294 -39.931967 
L 294.069187 -39.931967 
L 293.260079 -39.931967 
L 292.450971 -39.931967 
L 291.641863 -39.931967 
L 290.832755 -39.931967 
L 290.023647 -39.931967 
L 289.21454 -39.931967 
L 288.405432 -39.931967 
L 287.596324 -39.931967 
L 286.787216 -39.931967 
L 285.978108 -39.931967 
L 285.169 -39.931967 
L 284.359893 -39.931967 
L 283.550785 -39.931967 
L 282.741677 -39.931967 
L 281.932569 -39.931967 
L 281.123461 -39.931967 
L 280.314353 -39.931967 
L 279.505245 -39.931967 
L 278.696138 -39.931967 
L 277.88703 -39.931967 
L 277.077922 -39.931967 
L 276.268814 -39.931967 
L 275.459706 -39.931967 
L 274.650598 -39.931967 
L 273.841491 -39.931967 
L 273.032383 -39.931967 
L 272.223275 -39.931967 
L 271.414167 -39.931967 
L 270.605059 -39.931967 
L 269.795951 -39.931967 
L 268.986843 -39.931967 
L 268.177736 -39.931967 
L 267.368628 -39.931967 
L 266.55952 -39.931967 
L 265.750412 -39.931967 
L 264.941304 -39.931967 
L 264.132196 -39.931967 
L 263.323089 -39.931967 
L 262.513981 -39.931967 
L 261.704873 -39.931967 
L 260.895765 -39.931967 
L 260.086657 -39.931967 
L 259.277549 -39.931967 
L 258.468441 -39.931967 
L 257.659334 -39.931967 
L 256.850226 -39.931967 
L 256.041118 -39.931967 
L 255.23201 -39.931967 
L 254.422902 -39.931967 
L 253.613794 -39.931967 
L 252.804687 -39.931967 
L 251.995579 -39.931967 
L 251.186471 -39.931967 
L 250.377363 -39.931967 
L 249.568255 -39.931967 
L 248.759147 -39.931967 
L 247.950039 -39.931967 
L 247.140932 -39.931967 
L 246.331824 -39.931967 
L 245.522716 -39.931967 
L 244.713608 -39.931967 
L 243.9045 -39.931967 
L 243.095392 -39.931967 
L 242.286285 -39.931967 
L 241.477177 -39.931967 
L 240.668069 -39.931967 
L 239.858961 -39.931967 
L 239.049853 -39.931967 
L 238.240745 -39.931967 
L 237.431637 -39.931967 
L 236.62253 -39.931967 
L 235.813422 -39.931967 
L 235.004314 -39.931967 
L 234.195206 -39.931967 
L 233.386098 -39.931967 
L 232.57699 -39.931967 
L 231.767883 -39.931967 
L 230.958775 -39.931967 
L 230.149667 -39.931967 
L 229.340559 -39.931967 
L 228.531451 -39.931967 
L 227.722343 -39.931967 
L 226.913235 -39.931967 
L 226.104128 -39.931967 
L 225.29502 -39.931967 
L 224.485912 -39.931967 
L 223.676804 -39.931967 
L 222.867696 -39.931967 
L 222.058588 -39.931967 
L 221.249481 -39.931967 
L 220.440373 -39.931967 
L 219.631265 -39.931967 
L 218.822157 -39.931967 
L 218.013049 -39.931967 
L 217.203941 -39.931967 
L 216.394833 -39.931967 
L 215.585726 -39.931967 
L 214.776618 -39.931967 
L 213.96751 -39.931967 
L 213.158402 -39.931967 
L 212.349294 -39.931967 
L 211.540186 -39.931967 
L 210.731079 -39.931967 
L 209.921971 -39.931967 
L 209.112863 -39.931967 
L 208.303755 -39.931967 
L 207.494647 -39.931967 
L 206.685539 -39.931967 
L 205.876431 -39.931967 
L 205.067324 -39.931967 
L 204.258216 -39.931967 
L 203.449108 -39.931967 
L 202.64 -39.931967 
L 201.830892 -39.931967 
L 201.021784 -39.931967 
L 200.212677 -39.931967 
L 199.403569 -39.931967 
L 198.594461 -39.931967 
L 197.785353 -39.931967 
L 196.976245 -39.931967 
L 196.167137 -39.931967 
L 195.358029 -39.931967 
L 194.548922 -39.931967 
L 193.739814 -39.931967 
L 192.930706 -39.931967 
L 192.121598 -39.931967 
L 191.31249 -39.931967 
L 190.503382 -39.931967 
L 189.694275 -39.931967 
L 188.885167 -39.931967 
L 188.076059 -39.931967 
L 187.266951 -39.931967 
L 186.457843 -39.931967 
L 185.648735 -39.931967 
L 184.839627 -39.931967 
L 184.03052 -39.931967 
L 183.221412 -39.931967 
L 182.412304 -39.931967 
L 181.603196 -39.931967 
L 180.794088 -39.931967 
L 179.98498 -39.931967 
L 179.175873 -39.931967 
L 178.366765 -39.931967 
L 177.557657 -39.931967 
L 176.748549 -39.931967 
L 175.939441 -39.931967 
L 175.130333 -39.931967 
L 174.321226 -39.931967 
L 173.512118 -39.931967 
L 172.70301 -39.931967 
L 171.893902 -39.931967 
L 171.084794 -39.931967 
L 170.275686 -39.931967 
L 169.466578 -39.931967 
L 168.657471 -39.931967 
L 167.848363 -39.931967 
L 167.039255 -39.931967 
L 166.230147 -39.931967 
L 165.421039 -39.931967 
L 164.611931 -39.931967 
L 163.802824 -39.931967 
L 162.993716 -39.931967 
L 162.184608 -39.931967 
L 161.3755 -39.931967 
L 160.566392 -39.931967 
L 159.757284 -39.931967 
L 158.948176 -39.931967 
L 158.139069 -39.931967 
L 157.329961 -39.931967 
L 156.520853 -39.931967 
L 155.711745 -39.931967 
L 154.902637 -39.931967 
L 154.093529 -39.931967 
L 153.284422 -39.931967 
L 152.475314 -39.931967 
L 151.666206 -39.931967 
L 150.857098 -39.931967 
L 150.04799 -39.931967 
L 149.238882 -39.931967 
L 148.429774 -39.931967 
L 147.620667 -39.931967 
L 146.811559 -39.931967 
L 146.002451 -39.931967 
L 145.193343 -39.931967 
L 144.384235 -39.931967 
L 143.575127 -39.931967 
L 142.76602 -39.931967 
L 141.956912 -39.931967 
L 141.147804 -39.931967 
L 140.338696 -39.931967 
L 139.529588 -39.931967 
L 138.72048 -39.931967 
L 137.911372 -39.931967 
L 137.102265 -39.931967 
L 136.293157 -39.931967 
L 135.484049 -39.931967 
L 134.674941 -39.931967 
L 133.865833 -39.931967 
L 133.056725 -39.931967 
L 132.247618 -39.931967 
L 131.43851 -39.931967 
L 130.629402 -39.931967 
L 129.820294 -39.931967 
L 129.011186 -39.931967 
L 128.202078 -39.931967 
L 127.39297 -39.931967 
L 126.583863 -39.931967 
L 125.774755 -39.931967 
L 124.965647 -39.931967 
L 124.156539 -39.931967 
L 123.347431 -39.931967 
L 122.538323 -39.931967 
L 121.729216 -39.931967 
L 120.920108 -39.931967 
L 120.111 -39.931967 
L 119.301892 -39.931967 
L 118.492784 -39.931967 
L 117.683676 -39.931967 
L 116.874568 -39.931967 
L 116.065461 -39.931967 
L 115.256353 -39.931967 
L 114.447245 -39.931967 
L 113.638137 -39.931967 
L 112.829029 -39.931967 
L 112.019921 -39.931967 
L 111.210814 -39.931967 
L 110.401706 -39.931967 
L 109.592598 -39.931967 
L 108.78349 -39.931967 
L 107.974382 -39.931967 
L 107.165274 -39.931967 
L 106.356166 -39.931967 
L 105.547059 -39.931967 
L 104.737951 -39.931967 
L 103.928843 -39.931967 
L 103.119735 -39.931967 
L 102.310627 -39.931967 
L 101.501519 -39.931967 
L 100.692412 -39.931967 
L 99.883304 -39.931967 
L 99.074196 -39.931967 
L 98.265088 -39.931967 
L 97.45598 -39.931967 
L 96.646872 -39.931967 
L 95.837764 -39.931967 
L 95.028657 -39.931967 
L 94.219549 -39.931967 
L 93.410441 -39.931967 
L 92.601333 -39.931967 
L 91.792225 -39.931967 
L 90.983117 -39.931967 
L 90.17401 -39.931967 
L 89.364902 -39.931967 
L 88.555794 -39.931967 
L 87.746686 -39.931967 
L 86.937578 -39.931967 
L 86.12847 -39.931967 
L 85.319362 -39.931967 
L 84.510255 -39.931967 
L 83.701147 -39.931967 
L 82.892039 -39.931967 
L 82.082931 -39.931967 
L 81.273823 -39.931967 
L 80.464715 -39.931967 
L 79.655608 -39.931967 
L 78.8465 -39.931967 
L 78.037392 -39.931967 
L 77.228284 -39.931967 
L 76.419176 -39.931967 
L 75.610068 -39.931967 
L 74.80096 -39.931967 
L 73.991853 -39.931967 
L 73.182745 -39.931967 
L 72.373637 -39.931967 
L 71.564529 -39.931967 
L 70.755421 -39.931967 
L 69.946313 -39.931967 
L 69.137206 -39.931967 
L 68.328098 -39.931967 
L 67.51899 -39.931967 
L 66.709882 -39.931967 
L 65.900774 -39.931967 
L 65.091666 -39.931967 
L 64.282559 -39.931967 
L 63.473451 -39.931967 
L 62.664343 -39.931967 
L 61.855235 -39.931967 
L 61.046127 -39.931967 
L 60.237019 -39.931967 
L 59.427911 -39.931967 
L 58.618804 -39.931967 
L 57.809696 -39.931967 
L 57.000588 -39.931967 
L 56.19148 -39.931967 
L 55.382372 -39.931967 
L 54.573264 -39.931967 
L 53.764157 -39.931967 
L 52.955049 -39.931967 
L 52.145941 -39.931967 
L 51.336833 -39.931967 
L 50.527725 -39.931967 
L 49.718617 -39.931967 
L 48.909509 -39.931967 
L 48.100402 -39.931967 
L 47.291294 -39.931967 
L 46.482186 -39.931967 
L 45.673078 -39.931967 
L 44.86397 -39.931967 
L 44.054862 -39.931967 
L 43.245755 -39.931967 
L 42.436647 -39.931967 
L 41.627539 -39.931967 
L 40.818431 -39.931967 
L 40.009323 -39.931967 
L 39.200215 -39.931967 
L 38.391107 -39.931967 
L 37.582 -39.931967 
L 36.772892 -39.931967 
L 35.963784 -39.931967 
L 35.154676 -39.931967 
L 34.345568 -39.931967 
L 33.53646 -39.931967 
L 32.727353 -39.931967 
L 31.918245 -39.931967 
L 31.109137 -39.931967 
L 30.300029 -39.931967 
L 29.490921 -39.931967 
L 28.681813 -39.931967 
L 27.872705 -39.931967 
z
" id="m1a3873e2e7" style="stroke:#1f77b4;stroke-opacity:0;"/>
    </defs>
    <g clip-path="url(#paeb82a97cc)">
     <use style="fill:#1f77b4;fill-opacity:0;stroke:#1f77b4;stroke-opacity:0;" x="0" xlink:href="#m1a3873e2e7" y="353.99952"/>
    </g>
   </g>
   <g id="matplotlib.axis_1">
    <g id="xtick_1">
     <g id="line2d_1">
      <defs>
       <path d="M 0 0 
L 0 3 
" id="m0cf67dec2b" style="stroke:#808080;"/>
      </defs>
      <g>
       <use style="fill:#808080;stroke:#808080;" x="78.833013" xlink:href="#m0cf67dec2b" y="327.86577"/>
      </g>
     </g>
     <g id="text_1">
      <!-- 8.4 -->
      <g transform="translate(69.887232 344.082645)scale(0.14 -0.14)">
       <defs>
        <path d="M 2925 1152 
C 2925 1734 2477 2125 2048 2272 
C 2618 2458 2835 2880 2835 3219 
C 2835 3821 2291 4339 1600 4339 
C 883 4339 358 3808 358 3219 
C 358 2880 576 2458 1146 2272 
C 685 2112 269 1709 269 1152 
C 269 454 858 -141 1594 -141 
C 2355 -141 2925 474 2925 1152 
z
M 2387 3219 
C 2387 2758 2061 2464 1600 2464 
C 1107 2464 806 2778 806 3219 
C 806 3661 1120 3968 1594 3968 
C 2099 3968 2387 3635 2387 3219 
z
M 2406 1158 
C 2406 538 2010 250 1600 250 
C 1158 250 787 557 787 1158 
C 787 1830 1248 2074 1594 2074 
C 1965 2074 2406 1818 2406 1158 
z
" id="LMSans10-Regular-38" transform="scale(0.015625)"/>
        <path d="M 1152 0 
L 1152 531 
L 621 531 
L 621 0 
L 1152 0 
z
" id="LMSans10-Regular-2e" transform="scale(0.015625)"/>
        <path d="M 3014 1094 
L 3014 1485 
L 2381 1485 
L 2381 4198 
L 1798 4198 
L 179 1485 
L 179 1094 
L 1875 1094 
L 1875 0 
L 2381 0 
L 2381 1094 
L 3014 1094 
z
M 1914 1485 
L 678 1485 
C 1011 2035 1907 3552 1914 3917 
L 1914 1485 
z
" id="LMSans10-Regular-34" transform="scale(0.015625)"/>
       </defs>
       <use xlink:href="#LMSans10-Regular-38"/>
       <use x="49.999985" xlink:href="#LMSans10-Regular-2e"/>
       <use x="77.799973" xlink:href="#LMSans10-Regular-34"/>
      </g>
     </g>
    </g>
    <g id="xtick_2">
     <g id="line2d_2">
      <g>
       <use style="fill:#808080;stroke:#808080;" x="179.158542" xlink:href="#m0cf67dec2b" y="327.86577"/>
      </g>
     </g>
     <g id="text_2">
      <!-- 8.6 -->
      <g transform="translate(170.212761 344.082645)scale(0.14 -0.14)">
       <defs>
        <path d="M 2925 1421 
C 2925 2240 2502 2957 1888 2957 
C 1683 2957 1197 2906 806 2426 
C 890 3456 1395 3968 1984 3968 
C 2227 3968 2432 3923 2656 3834 
L 2656 4211 
C 2330 4339 2067 4339 1978 4339 
C 1075 4339 269 3437 269 2061 
C 269 250 1062 -141 1606 -141 
C 1990 -141 2266 6 2515 294 
C 2803 621 2925 915 2925 1421 
z
M 2400 1421 
C 2400 1203 2400 909 2246 646 
C 2138 467 1971 250 1606 250 
C 928 250 832 1190 813 1402 
C 813 1491 813 1504 819 1581 
C 819 2054 1107 2566 1638 2566 
C 1946 2566 2125 2406 2253 2170 
C 2387 1933 2400 1709 2400 1421 
z
" id="LMSans10-Regular-36" transform="scale(0.015625)"/>
       </defs>
       <use xlink:href="#LMSans10-Regular-38"/>
       <use x="49.999985" xlink:href="#LMSans10-Regular-2e"/>
       <use x="77.799973" xlink:href="#LMSans10-Regular-36"/>
      </g>
     </g>
    </g>
    <g id="xtick_3">
     <g id="line2d_3">
      <g>
       <use style="fill:#808080;stroke:#808080;" x="279.484072" xlink:href="#m0cf67dec2b" y="327.86577"/>
      </g>
     </g>
     <g id="text_3">
      <!-- 8.8 -->
      <g transform="translate(270.53829 344.082645)scale(0.14 -0.14)">
       <use xlink:href="#LMSans10-Regular-38"/>
       <use x="49.999985" xlink:href="#LMSans10-Regular-2e"/>
       <use x="77.799973" xlink:href="#LMSans10-Regular-38"/>
      </g>
     </g>
    </g>
    <g id="xtick_4">
     <g id="line2d_4">
      <g>
       <use style="fill:#808080;stroke:#808080;" x="379.809601" xlink:href="#m0cf67dec2b" y="327.86577"/>
      </g>
     </g>
     <g id="text_4">
      <!-- 9.0 -->
      <g transform="translate(370.86382 344.082645)scale(0.14 -0.14)">
       <defs>
        <path d="M 2925 2144 
C 2925 3936 2163 4339 1619 4339 
C 1171 4339 909 4147 685 3910 
C 282 3475 269 3053 269 2778 
C 269 1958 691 1242 1306 1242 
C 1702 1242 2112 1427 2387 1773 
C 2317 742 1824 250 1318 250 
C 1101 250 890 301 659 493 
L 461 154 
C 678 -6 915 -141 1312 -141 
C 2150 -141 2925 749 2925 2144 
z
M 2374 2630 
C 2374 2106 2061 1632 1555 1632 
C 1254 1632 1075 1779 941 2016 
C 800 2266 794 2502 794 2778 
C 794 3059 800 3322 979 3603 
C 1107 3789 1286 3968 1619 3968 
C 2246 3968 2355 3098 2368 2784 
C 2374 2739 2374 2675 2374 2630 
z
" id="LMSans10-Regular-39" transform="scale(0.015625)"/>
        <path d="M 2925 2086 
C 2925 2592 2899 3187 2630 3706 
C 2368 4186 1926 4339 1600 4339 
C 1222 4339 774 4166 512 3597 
C 301 3130 269 2598 269 2086 
C 269 1581 294 1114 486 646 
C 742 32 1229 -141 1594 -141 
C 2061 -141 2464 122 2669 563 
C 2861 979 2925 1402 2925 2086 
z
M 2426 2163 
C 2426 1741 2426 1338 2310 934 
C 2144 352 1805 250 1600 250 
C 1267 250 1005 493 877 954 
C 774 1318 768 1664 768 2163 
C 768 2566 768 2950 877 3302 
C 915 3424 1075 3949 1594 3949 
C 2093 3949 2259 3462 2304 3347 
C 2426 2989 2426 2560 2426 2163 
z
" id="LMSans10-Regular-30" transform="scale(0.015625)"/>
       </defs>
       <use xlink:href="#LMSans10-Regular-39"/>
       <use x="49.999985" xlink:href="#LMSans10-Regular-2e"/>
       <use x="77.799973" xlink:href="#LMSans10-Regular-30"/>
      </g>
     </g>
    </g>
   </g>
   <g id="matplotlib.axis_2"/>
   <g id="line2d_5">
    <path clip-path="url(#paeb82a97cc)" d="M 27.872705 313.168359 
L 37.582 313.067572 
L 42.436647 312.766423 
L 48.100402 312.153713 
L 64.282559 309.950482 
L 69.137206 309.067333 
L 73.991853 307.969149 
L 79.655608 306.487751 
L 84.510255 304.998059 
L 88.555794 303.457254 
L 91.792225 301.989419 
L 95.837764 299.865428 
L 100.692412 297.025707 
L 106.356166 293.494512 
L 109.592598 291.282621 
L 113.638137 288.082587 
L 116.065461 285.894544 
L 118.492784 283.434941 
L 121.729216 279.781003 
L 124.965647 275.678143 
L 127.39297 272.242759 
L 130.629402 267.249708 
L 133.056725 263.166738 
L 136.293157 257.2351 
L 139.529588 250.84322 
L 144.384235 240.657112 
L 156.520853 214.059357 
L 160.566392 204.548086 
L 163.802824 196.182458 
L 166.230147 189.403532 
L 170.275686 177.267918 
L 182.412304 140.099153 
L 200.212677 88.749675 
L 202.64 82.715575 
L 205.067324 77.419269 
L 207.494647 72.881156 
L 209.921971 69.107817 
L 211.540186 66.918685 
L 214.776618 63.131268 
L 221.249481 55.898477 
L 224.485912 51.84229 
L 230.958775 43.268637 
L 232.57699 41.417554 
L 234.195206 39.921869 
L 235.813422 38.823744 
L 237.431637 38.229001 
L 238.240745 38.103217 
L 239.049853 38.128825 
L 239.858961 38.295048 
L 240.668069 38.59735 
L 241.477177 39.061087 
L 243.095392 40.425299 
L 244.713608 42.339099 
L 246.331824 44.830698 
L 247.950039 47.729536 
L 250.377363 52.798798 
L 258.468441 70.70188 
L 260.895765 75.109195 
L 262.513981 77.667626 
L 264.132196 79.900026 
L 265.750412 81.856639 
L 267.368628 83.602203 
L 271.414167 87.666237 
L 273.841491 90.53097 
L 275.459706 92.814793 
L 277.077922 95.568379 
L 278.696138 98.729748 
L 280.314353 102.506305 
L 281.932569 106.831033 
L 283.550785 111.696973 
L 285.169 117.091579 
L 287.596324 126.15506 
L 290.832755 139.443759 
L 299.732942 177.393237 
L 302.160265 186.613181 
L 304.587589 195.02363 
L 307.014912 202.533982 
L 309.442236 209.261564 
L 311.869559 215.37027 
L 315.915098 224.719388 
L 324.815285 244.421557 
L 328.051716 251.218934 
L 330.47904 255.904829 
L 332.906363 260.142833 
L 335.333687 263.87437 
L 337.76101 267.226482 
L 340.997442 271.310574 
L 355.561383 288.998845 
L 358.797814 292.242838 
L 361.225138 294.298894 
L 363.652461 296.022526 
L 366.079785 297.461952 
L 369.316216 298.973902 
L 372.552648 300.188781 
L 376.598187 301.402785 
L 383.880158 303.192715 
L 387.925697 304.259336 
L 392.780344 305.780279 
L 404.107854 309.519596 
L 408.153393 310.516562 
L 412.198932 311.286086 
L 416.244471 311.854376 
L 421.099118 312.314235 
L 426.762873 312.584298 
L 434.044844 312.700309 
L 441.326815 312.713742 
L 441.326815 312.713742 
" style="fill:none;stroke:#1f77b4;stroke-linecap:square;stroke-width:1.5;"/>
   </g>
   <g id="line2d_6">
    <path clip-path="url(#paeb82a97cc)" d="M 136.047238 308.272302 
L 346.532834 308.272302 
" style="fill:none;stroke:#000000;stroke-width:3;"/>
   </g>
   <g id="patch_3">
    <path d="M 7.2 327.86577 
L 461.99952 327.86577 
" style="fill:none;stroke:#808080;stroke-linecap:square;stroke-linejoin:miter;stroke-width:0.8;"/>
   </g>
   <g id="text_5">
    <!-- 8.5  -->
    <g transform="translate(111.883175 293.784174)scale(0.15 -0.15)">
     <defs>
      <path d="M 2874 1299 
C 2874 2099 2323 2733 1664 2733 
C 1408 2733 1165 2637 979 2470 
L 979 3789 
L 2662 3789 
L 2662 4198 
L 518 4198 
L 518 1837 
L 941 1837 
C 1050 2093 1286 2342 1658 2342 
C 1958 2342 2304 2080 2304 1312 
C 2304 250 1523 250 1466 250 
C 1037 250 646 499 461 845 
L 250 486 
C 512 122 954 -141 1472 -141 
C 2234 -141 2874 493 2874 1299 
z
" id="LMSans10-Regular-35" transform="scale(0.015625)"/>
      <path id="LMSans10-Regular-20" transform="scale(0.015625)"/>
     </defs>
     <use xlink:href="#LMSans10-Regular-38"/>
     <use x="49.999985" xlink:href="#LMSans10-Regular-2e"/>
     <use x="77.799973" xlink:href="#LMSans10-Regular-35"/>
     <use x="127.799957" xlink:href="#LMSans10-Regular-20"/>
    </g>
   </g>
   <g id="text_6">
    <!--  8.9 -->
    <g transform="translate(346.532834 293.784174)scale(0.15 -0.15)">
     <use xlink:href="#LMSans10-Regular-20"/>
     <use x="33.299988" xlink:href="#LMSans10-Regular-38"/>
     <use x="83.299973" xlink:href="#LMSans10-Regular-2e"/>
     <use x="111.09996" xlink:href="#LMSans10-Regular-39"/>
    </g>
   </g>
   <g id="text_7">
    <!-- 94% HDI -->
    <g transform="translate(212.235739 227.138787)scale(0.15 -0.15)">
     <defs>
      <path d="M 2131 3507 
C 2131 4275 1702 4800 1254 4800 
C 787 4800 358 4262 358 3514 
C 358 2746 800 2221 1254 2221 
C 1709 2221 2131 2765 2131 3507 
z
M 4218 4672 
C 4218 4742 4160 4800 4090 4800 
C 4013 4800 3981 4736 3955 4698 
L 1171 -115 
C 1171 -115 1126 -186 1126 -230 
C 1126 -301 1190 -358 1254 -358 
C 1325 -358 1357 -314 1389 -256 
L 4166 4557 
C 4218 4634 4218 4646 4218 4672 
z
M 4966 928 
C 4966 1696 4538 2221 4090 2221 
C 3622 2221 3194 1683 3194 934 
C 3194 166 3635 -358 4090 -358 
C 4544 -358 4966 186 4966 928 
z
M 1690 3514 
C 1690 3021 1504 2611 1254 2611 
C 1184 2611 838 2630 838 3507 
C 838 4358 1165 4410 1254 4410 
C 1510 4410 1690 3981 1690 3514 
z
M 4525 934 
C 4525 442 4339 32 4090 32 
C 4019 32 3674 51 3674 928 
C 3674 1779 4000 1830 4090 1830 
C 4346 1830 4525 1402 4525 934 
z
" id="LMSans10-Regular-25" transform="scale(0.015625)"/>
      <path d="M 3923 0 
L 3923 4442 
L 3354 4442 
L 3354 2502 
L 1171 2502 
L 1171 4442 
L 602 4442 
L 602 0 
L 1171 0 
L 1171 2112 
L 3354 2112 
L 3354 0 
L 3923 0 
z
" id="LMSans10-Regular-48" transform="scale(0.015625)"/>
      <path d="M 4256 2182 
C 4256 3424 3392 4442 2291 4442 
L 614 4442 
L 614 0 
L 2298 0 
C 3386 0 4256 973 4256 2182 
z
M 3706 2182 
C 3706 1094 3040 358 2144 358 
L 1165 358 
L 1165 4083 
L 2144 4083 
C 3040 4083 3706 3309 3706 2182 
z
" id="LMSans10-Regular-44" transform="scale(0.015625)"/>
      <path d="M 1171 0 
L 1171 4442 
L 602 4442 
L 602 0 
L 1171 0 
z
" id="LMSans10-Regular-49" transform="scale(0.015625)"/>
     </defs>
     <use xlink:href="#LMSans10-Regular-39"/>
     <use x="49.999985" xlink:href="#LMSans10-Regular-34"/>
     <use x="99.999969" xlink:href="#LMSans10-Regular-25"/>
     <use x="183.299957" xlink:href="#LMSans10-Regular-20"/>
     <use x="216.599945" xlink:href="#LMSans10-Regular-48"/>
     <use x="287.399933" xlink:href="#LMSans10-Regular-44"/>
     <use x="359.599915" xlink:href="#LMSans10-Regular-49"/>
    </g>
   </g>
   <g id="text_8">
    <!-- mean=8.7 -->
    <g transform="translate(202.354989 82.257511)scale(0.15 -0.15)">
     <defs>
      <path d="M 4563 0 
L 4563 1907 
C 4563 2336 4461 2912 3686 2912 
C 3302 2912 2970 2733 2733 2387 
C 2566 2874 2118 2912 1914 2912 
C 1453 2912 1152 2650 979 2419 
L 979 2880 
L 518 2880 
L 518 0 
L 1018 0 
L 1018 1568 
C 1018 2003 1190 2522 1664 2522 
C 2259 2522 2291 2106 2291 1862 
L 2291 0 
L 2790 0 
L 2790 1568 
C 2790 2003 2963 2522 3437 2522 
C 4032 2522 4064 2106 4064 1862 
L 4064 0 
L 4563 0 
z
" id="LMSans10-Regular-6d" transform="scale(0.015625)"/>
      <path d="M 2650 1402 
C 2650 1619 2643 2099 2394 2483 
C 2131 2880 1741 2950 1510 2950 
C 800 2950 224 2272 224 1446 
C 224 602 838 -70 1606 -70 
C 2010 -70 2374 83 2624 262 
L 2586 678 
C 2182 346 1760 320 1613 320 
C 1101 320 691 774 672 1402 
L 2650 1402 
z
M 2285 1754 
L 704 1754 
C 806 2240 1146 2560 1510 2560 
C 1843 2560 2202 2342 2285 1754 
z
" id="LMSans10-Regular-65" transform="scale(0.015625)"/>
      <path d="M 2618 0 
L 2618 1850 
C 2618 2502 2150 2950 1562 2950 
C 1146 2950 858 2848 557 2675 
L 595 2253 
C 928 2490 1248 2573 1562 2573 
C 1862 2573 2118 2317 2118 1843 
L 2118 1568 
C 1158 1555 346 1286 346 723 
C 346 448 518 -70 1075 -70 
C 1165 -70 1766 -58 2138 230 
L 2138 0 
L 2618 0 
z
M 2118 845 
C 2118 723 2118 563 1901 442 
C 1715 326 1472 320 1402 320 
C 1094 320 806 467 806 736 
C 806 1184 1843 1229 2118 1242 
L 2118 845 
z
" id="LMSans10-Regular-61" transform="scale(0.015625)"/>
      <path d="M 2784 0 
L 2784 1907 
C 2784 2330 2688 2912 1907 2912 
C 1331 2912 1018 2477 979 2426 
L 979 2880 
L 518 2880 
L 518 0 
L 1018 0 
L 1018 1568 
C 1018 1990 1178 2522 1664 2522 
C 2278 2522 2285 2067 2285 1862 
L 2285 0 
L 2784 0 
z
" id="LMSans10-Regular-6e" transform="scale(0.015625)"/>
      <path d="M 4614 2240 
C 4614 2368 4493 2368 4403 2368 
L 570 2368 
C 480 2368 358 2368 358 2240 
C 358 2112 480 2112 576 2112 
L 4397 2112 
C 4493 2112 4614 2112 4614 2240 
z
M 4614 960 
C 4614 1088 4493 1088 4397 1088 
L 576 1088 
C 480 1088 358 1088 358 960 
C 358 832 480 832 570 832 
L 4403 832 
C 4493 832 4614 832 4614 960 
z
" id="LMSans10-Regular-3d" transform="scale(0.015625)"/>
      <path d="M 2925 3782 
L 2925 4198 
L 269 4198 
L 269 3744 
L 1485 3744 
C 1562 3744 1638 3750 1715 3750 
L 2490 3750 
C 1542 2707 973 1427 973 -70 
L 1510 -70 
C 1510 1850 2426 3219 2925 3782 
z
" id="LMSans10-Regular-37" transform="scale(0.015625)"/>
     </defs>
     <use xlink:href="#LMSans10-Regular-6d"/>
     <use x="79.399994" xlink:href="#LMSans10-Regular-65"/>
     <use x="123.799988" xlink:href="#LMSans10-Regular-61"/>
     <use x="171.899979" xlink:href="#LMSans10-Regular-6e"/>
     <use x="223.599976" xlink:href="#LMSans10-Regular-3d"/>
     <use x="301.399963" xlink:href="#LMSans10-Regular-38"/>
     <use x="351.399948" xlink:href="#LMSans10-Regular-2e"/>
     <use x="379.199936" xlink:href="#LMSans10-Regular-37"/>
    </g>
   </g>
   <g id="text_9">
    <!-- lbda -->
    <g transform="translate(220.56726 18.305)scale(0.16 -0.16)">
     <defs>
      <path d="M 998 0 
L 998 4442 
L 518 4442 
L 518 0 
L 998 0 
z
" id="LMSans10-Regular-6c" transform="scale(0.015625)"/>
      <path d="M 3072 1427 
C 3072 2221 2637 2912 2035 2912 
C 1786 2912 1389 2848 1005 2534 
L 1005 4442 
L 525 4442 
L 525 0 
L 1024 0 
L 1024 294 
C 1178 154 1453 -70 1882 -70 
C 2522 -70 3072 570 3072 1427 
z
M 2573 1427 
C 2573 595 2035 320 1645 320 
C 1395 320 1184 435 1024 730 
L 1024 2144 
C 1126 2298 1357 2522 1709 2522 
C 2086 2522 2573 2246 2573 1427 
z
" id="LMSans10-Regular-62" transform="scale(0.015625)"/>
      <path d="M 2778 0 
L 2778 4442 
L 2298 4442 
L 2298 2560 
C 1958 2842 1600 2912 1363 2912 
C 730 2912 230 2246 230 1421 
C 230 582 723 -70 1331 -70 
C 1542 -70 1920 -13 2278 333 
L 2278 0 
L 2778 0 
z
M 2278 890 
C 2278 800 2272 685 2067 499 
C 1920 371 1760 320 1594 320 
C 1197 320 730 621 730 1414 
C 730 2259 1280 2522 1658 2522 
C 1946 2522 2138 2374 2278 2170 
L 2278 890 
z
" id="LMSans10-Regular-64" transform="scale(0.015625)"/>
     </defs>
     <use xlink:href="#LMSans10-Regular-6c"/>
     <use x="23.899994" xlink:href="#LMSans10-Regular-62"/>
     <use x="75.599991" xlink:href="#LMSans10-Regular-64"/>
     <use x="127.299988" xlink:href="#LMSans10-Regular-61"/>
    </g>
   </g>
  </g>
 </g>
 <defs>
  <clipPath id="paeb82a97cc">
   <rect height="303.56077" width="454.79952" x="7.2" y="24.305"/>
  </clipPath>
 </defs>
</svg>
