<?xml version="1.0" encoding="utf-8" standalone="no"?>
<!DOCTYPE svg PUBLIC "-//W3C//DTD SVG 1.1//EN"
  "http://www.w3.org/Graphics/SVG/1.1/DTD/svg11.dtd">
<svg height="339.258pt" version="1.1" viewBox="0 0 405.482257 339.258" width="405.482257pt" xmlns="http://www.w3.org/2000/svg" xmlns:xlink="http://www.w3.org/1999/xlink">
 <metadata>
  <rdf:RDF xmlns:cc="http://creativecommons.org/ns#" xmlns:dc="http://purl.org/dc/elements/1.1/" xmlns:rdf="http://www.w3.org/1999/02/22-rdf-syntax-ns#">
   <cc:Work>
    <dc:type rdf:resource="http://purl.org/dc/dcmitype/StillImage"/>
    <dc:date>2021-05-27T07:35:14.928941</dc:date>
    <dc:format>image/svg+xml</dc:format>
    <dc:creator>
     <cc:Agent>
      <dc:title>Matplotlib v3.4.2, https://matplotlib.org/</dc:title>
     </cc:Agent>
    </dc:creator>
   </cc:Work>
  </rdf:RDF>
 </metadata>
 <defs>
  <style type="text/css">*{stroke-linecap:butt;stroke-linejoin:round;}</style>
 </defs>
 <g id="figure_1">
  <g id="patch_1">
   <path d="M 0 339.258 
L 405.482257 339.258 
L 405.482257 0 
L 0 0 
z
" style="fill:#ffffff;"/>
  </g>
  <g id="axes_1">
   <g id="patch_2">
    <path d="M 38.2 292.638 
L 395.32 292.638 
L 395.32 26.526 
L 38.2 26.526 
z
" style="fill:#ffffff;"/>
   </g>
   <g id="PolyCollection_1">
    <defs>
     <path d="M 54.432727 -300.636 
L 54.432727 -58.716 
L 55.556099 -58.716 
L 56.679472 -58.716 
L 57.802844 -58.716 
L 58.926216 -58.716 
L 60.049588 -58.716 
L 61.17296 -58.716 
L 62.296332 -58.716 
L 63.419704 -58.716 
L 64.543076 -58.716 
L 65.666449 -58.716 
L 66.789821 -58.716 
L 67.913193 -58.716 
L 69.036565 -58.716 
L 70.159937 -58.716 
L 71.283309 -58.716 
L 72.406681 -58.716 
L 73.530053 -58.716 
L 74.653426 -58.716 
L 75.776798 -58.716 
L 76.90017 -59.162759 
L 78.023542 -59.162759 
L 79.146914 -59.162759 
L 80.270286 -59.162759 
L 81.393658 -59.162759 
L 82.517031 -59.162759 
L 83.640403 -59.162759 
L 84.763775 -59.162759 
L 85.887147 -59.162759 
L 87.010519 -59.162759 
L 88.133891 -59.609518 
L 89.257263 -59.609518 
L 90.380635 -59.609518 
L 91.504008 -59.609518 
L 92.62738 -59.609518 
L 93.750752 -59.609518 
L 94.874124 -59.609518 
L 95.997496 -59.609518 
L 97.120868 -59.609518 
L 98.24424 -59.609518 
L 99.367612 -59.162759 
L 100.490985 -59.162759 
L 101.614357 -59.162759 
L 102.737729 -59.162759 
L 103.861101 -59.162759 
L 104.984473 -59.162759 
L 106.107845 -59.162759 
L 107.231217 -59.162759 
L 108.354589 -59.162759 
L 109.477962 -59.162759 
L 110.601334 -58.716 
L 111.724706 -58.716 
L 112.848078 -58.716 
L 113.97145 -58.716 
L 115.094822 -58.716 
L 116.218194 -58.716 
L 117.341567 -58.716 
L 118.464939 -58.716 
L 119.588311 -58.716 
L 120.711683 -58.716 
L 121.835055 -58.716 
L 122.958427 -58.716 
L 124.081799 -58.716 
L 125.205171 -58.716 
L 126.328544 -58.716 
L 127.451916 -58.716 
L 128.575288 -58.716 
L 129.69866 -58.716 
L 130.822032 -58.716 
L 131.945404 -58.716 
L 133.068776 -58.716 
L 134.192148 -58.716 
L 135.315521 -58.716 
L 136.438893 -58.716 
L 137.562265 -58.716 
L 138.685637 -58.716 
L 139.809009 -58.716 
L 140.932381 -58.716 
L 142.055753 -58.716 
L 143.179126 -58.716 
L 144.302498 -58.716 
L 145.42587 -58.716 
L 146.549242 -58.716 
L 147.672614 -58.716 
L 148.795986 -58.716 
L 149.919358 -58.716 
L 151.04273 -58.716 
L 152.166103 -58.716 
L 153.289475 -58.716 
L 154.412847 -58.716 
L 155.536219 -58.716 
L 156.659591 -58.716 
L 157.782963 -58.716 
L 158.906335 -58.716 
L 160.029707 -58.716 
L 161.15308 -58.716 
L 162.276452 -58.716 
L 163.399824 -58.716 
L 164.523196 -58.716 
L 165.646568 -58.716 
L 166.76994 -58.716 
L 167.893312 -58.716 
L 169.016684 -58.716 
L 170.140057 -58.716 
L 171.263429 -58.716 
L 172.386801 -58.716 
L 173.510173 -58.716 
L 174.633545 -58.716 
L 175.756917 -58.716 
L 176.880289 -58.716 
L 178.003662 -58.716 
L 179.127034 -58.716 
L 180.250406 -58.716 
L 181.373778 -58.716 
L 182.49715 -58.716 
L 183.620522 -58.716 
L 184.743894 -58.716 
L 185.867266 -58.716 
L 186.990639 -58.716 
L 188.114011 -58.716 
L 189.237383 -58.716 
L 190.360755 -58.716 
L 191.484127 -58.716 
L 192.607499 -58.716 
L 193.730871 -58.716 
L 194.854243 -58.716 
L 195.977616 -58.716 
L 197.100988 -58.716 
L 198.22436 -58.716 
L 199.347732 -58.716 
L 200.471104 -58.716 
L 201.594476 -58.716 
L 202.717848 -58.716 
L 203.841221 -58.716 
L 204.964593 -58.716 
L 206.087965 -58.716 
L 207.211337 -58.716 
L 208.334709 -58.716 
L 209.458081 -58.716 
L 210.581453 -58.716 
L 211.704825 -58.716 
L 212.828198 -58.716 
L 213.95157 -58.716 
L 215.074942 -58.716 
L 216.198314 -58.716 
L 217.321686 -58.716 
L 218.445058 -58.716 
L 219.56843 -58.716 
L 220.691802 -58.716 
L 221.815175 -58.716 
L 222.938547 -58.716 
L 224.061919 -58.716 
L 225.185291 -58.716 
L 226.308663 -58.716 
L 227.432035 -58.716 
L 228.555407 -58.716 
L 229.678779 -58.716 
L 230.802152 -58.716 
L 231.925524 -58.716 
L 233.048896 -58.716 
L 234.172268 -58.716 
L 235.29564 -58.716 
L 236.419012 -58.716 
L 237.542384 -58.716 
L 238.665757 -58.716 
L 239.789129 -58.716 
L 240.912501 -58.716 
L 242.035873 -58.716 
L 243.159245 -58.716 
L 244.282617 -58.716 
L 245.405989 -58.716 
L 246.529361 -58.716 
L 247.652734 -58.716 
L 248.776106 -58.716 
L 249.899478 -58.716 
L 251.02285 -58.716 
L 252.146222 -58.716 
L 253.269594 -58.716 
L 254.392966 -58.716 
L 255.516338 -58.716 
L 256.639711 -58.716 
L 257.763083 -58.716 
L 258.886455 -58.716 
L 260.009827 -58.716 
L 261.133199 -58.716 
L 262.256571 -58.716 
L 263.379943 -58.716 
L 264.503316 -58.716 
L 265.626688 -58.716 
L 266.75006 -58.716 
L 267.873432 -58.716 
L 268.996804 -58.716 
L 270.120176 -58.716 
L 271.243548 -58.716 
L 272.36692 -58.716 
L 273.490293 -58.716 
L 274.613665 -58.716 
L 275.737037 -58.716 
L 276.860409 -58.716 
L 277.983781 -58.716 
L 279.107153 -58.716 
L 280.230525 -58.716 
L 281.353897 -58.716 
L 282.47727 -58.716 
L 283.600642 -58.716 
L 284.724014 -58.716 
L 285.847386 -58.716 
L 286.970758 -58.716 
L 288.09413 -58.716 
L 289.217502 -58.716 
L 290.340874 -58.716 
L 291.464247 -58.716 
L 292.587619 -58.716 
L 293.710991 -58.716 
L 294.834363 -58.716 
L 295.957735 -58.716 
L 297.081107 -58.716 
L 298.204479 -58.716 
L 299.327852 -58.716 
L 300.451224 -58.716 
L 301.574596 -58.716 
L 302.697968 -58.716 
L 303.82134 -58.716 
L 304.944712 -58.716 
L 306.068084 -58.716 
L 307.191456 -58.716 
L 308.314829 -58.716 
L 309.438201 -58.716 
L 310.561573 -58.716 
L 311.684945 -58.716 
L 312.808317 -58.716 
L 313.931689 -58.716 
L 315.055061 -58.716 
L 316.178433 -58.716 
L 317.301806 -58.716 
L 318.425178 -58.716 
L 319.54855 -58.716 
L 320.671922 -58.716 
L 321.795294 -58.716 
L 322.918666 -58.716 
L 324.042038 -58.716 
L 325.165411 -58.716 
L 326.288783 -58.716 
L 327.412155 -58.716 
L 328.535527 -58.716 
L 329.658899 -58.716 
L 330.782271 -58.716 
L 331.905643 -58.716 
L 333.029015 -58.716 
L 334.152388 -58.716 
L 335.27576 -58.716 
L 336.399132 -58.716 
L 337.522504 -58.716 
L 338.645876 -58.716 
L 339.769248 -58.716 
L 340.89262 -58.716 
L 342.015992 -58.716 
L 343.139365 -58.716 
L 344.262737 -58.716 
L 345.386109 -58.716 
L 346.509481 -58.716 
L 347.632853 -58.716 
L 348.756225 -58.716 
L 349.879597 -58.716 
L 351.002969 -58.716 
L 352.126342 -58.716 
L 353.249714 -58.716 
L 354.373086 -58.716 
L 355.496458 -58.716 
L 356.61983 -58.716 
L 357.743202 -58.716 
L 358.866574 -58.716 
L 359.989947 -58.716 
L 361.113319 -58.716 
L 362.236691 -58.716 
L 363.360063 -58.716 
L 364.483435 -58.716 
L 365.606807 -58.716 
L 366.730179 -58.716 
L 367.853551 -58.716 
L 368.976924 -58.716 
L 370.100296 -58.716 
L 371.223668 -58.716 
L 372.34704 -58.716 
L 373.470412 -58.716 
L 374.593784 -58.716 
L 375.717156 -58.716 
L 376.840528 -58.716 
L 377.963901 -58.716 
L 379.087273 -58.716 
L 379.087273 -58.716 
L 379.087273 -58.716 
L 377.963901 -58.716 
L 376.840528 -58.716 
L 375.717156 -58.716 
L 374.593784 -58.716 
L 373.470412 -58.716 
L 372.34704 -58.716 
L 371.223668 -58.716 
L 370.100296 -58.716 
L 368.976924 -58.716 
L 367.853551 -58.716 
L 366.730179 -58.716 
L 365.606807 -58.716 
L 364.483435 -58.716 
L 363.360063 -58.716 
L 362.236691 -58.716 
L 361.113319 -58.716 
L 359.989947 -58.716 
L 358.866574 -58.716 
L 357.743202 -58.716 
L 356.61983 -58.716 
L 355.496458 -58.716 
L 354.373086 -58.716 
L 353.249714 -58.716 
L 352.126342 -58.716 
L 351.002969 -58.716 
L 349.879597 -58.716 
L 348.756225 -58.716 
L 347.632853 -58.716 
L 346.509481 -58.716 
L 345.386109 -58.716 
L 344.262737 -58.716 
L 343.139365 -58.716 
L 342.015992 -58.716 
L 340.89262 -58.716 
L 339.769248 -58.716 
L 338.645876 -58.716 
L 337.522504 -58.716 
L 336.399132 -58.716 
L 335.27576 -58.716 
L 334.152388 -58.716 
L 333.029015 -58.716 
L 331.905643 -58.716 
L 330.782271 -58.716 
L 329.658899 -58.716 
L 328.535527 -58.716 
L 327.412155 -58.716 
L 326.288783 -58.716 
L 325.165411 -58.716 
L 324.042038 -58.716 
L 322.918666 -58.716 
L 321.795294 -58.716 
L 320.671922 -58.716 
L 319.54855 -58.716 
L 318.425178 -58.716 
L 317.301806 -58.716 
L 316.178433 -58.716 
L 315.055061 -58.716 
L 313.931689 -58.716 
L 312.808317 -58.716 
L 311.684945 -59.162759 
L 310.561573 -59.162759 
L 309.438201 -59.162759 
L 308.314829 -59.162759 
L 307.191456 -59.162759 
L 306.068084 -59.162759 
L 304.944712 -59.162759 
L 303.82134 -59.162759 
L 302.697968 -59.162759 
L 301.574596 -59.162759 
L 300.451224 -59.609518 
L 299.327852 -59.609518 
L 298.204479 -59.609518 
L 297.081107 -59.609518 
L 295.957735 -59.609518 
L 294.834363 -59.609518 
L 293.710991 -59.609518 
L 292.587619 -59.609518 
L 291.464247 -59.609518 
L 290.340874 -59.609518 
L 289.217502 -60.547712 
L 288.09413 -60.547712 
L 286.970758 -60.547712 
L 285.847386 -60.547712 
L 284.724014 -60.547712 
L 283.600642 -60.547712 
L 282.47727 -60.547712 
L 281.353897 -60.547712 
L 280.230525 -60.547712 
L 279.107153 -60.547712 
L 277.983781 -62.736831 
L 276.860409 -62.736831 
L 275.737037 -62.736831 
L 274.613665 -62.736831 
L 273.490293 -62.736831 
L 272.36692 -62.736831 
L 271.243548 -62.736831 
L 270.120176 -62.736831 
L 268.996804 -62.736831 
L 267.873432 -62.736831 
L 266.75006 -63.675025 
L 265.626688 -63.675025 
L 264.503316 -63.675025 
L 263.379943 -63.675025 
L 262.256571 -63.675025 
L 261.133199 -63.675025 
L 260.009827 -63.675025 
L 258.886455 -63.675025 
L 257.763083 -63.675025 
L 256.639711 -63.675025 
L 255.516338 -68.63405 
L 254.392966 -68.63405 
L 253.269594 -68.63405 
L 252.146222 -68.63405 
L 251.02285 -68.63405 
L 249.899478 -68.63405 
L 248.776106 -68.63405 
L 247.652734 -68.63405 
L 246.529361 -68.63405 
L 245.405989 -68.63405 
L 244.282617 -73.459047 
L 243.159245 -73.459047 
L 242.035873 -73.459047 
L 240.912501 -73.459047 
L 239.789129 -73.459047 
L 238.665757 -73.459047 
L 237.542384 -73.459047 
L 236.419012 -73.459047 
L 235.29564 -73.459047 
L 234.172268 -73.459047 
L 233.048896 -80.696543 
L 231.925524 -80.696543 
L 230.802152 -80.696543 
L 229.678779 -80.696543 
L 228.555407 -80.696543 
L 227.432035 -80.696543 
L 226.308663 -80.696543 
L 225.185291 -80.696543 
L 224.061919 -80.696543 
L 222.938547 -80.696543 
L 221.815175 -86.459734 
L 220.691802 -86.459734 
L 219.56843 -86.459734 
L 218.445058 -86.459734 
L 217.321686 -86.459734 
L 216.198314 -86.459734 
L 215.074942 -86.459734 
L 213.95157 -86.459734 
L 212.828198 -86.459734 
L 211.704825 -86.459734 
L 210.581453 -94.009961 
L 209.458081 -94.009961 
L 208.334709 -94.009961 
L 207.211337 -94.009961 
L 206.087965 -94.009961 
L 204.964593 -94.009961 
L 203.841221 -94.009961 
L 202.717848 -94.009961 
L 201.594476 -94.009961 
L 200.471104 -94.009961 
L 199.347732 -98.477551 
L 198.22436 -98.477551 
L 197.100988 -98.477551 
L 195.977616 -98.477551 
L 194.854243 -98.477551 
L 193.730871 -98.477551 
L 192.607499 -98.477551 
L 191.484127 -98.477551 
L 190.360755 -98.477551 
L 189.237383 -98.477551 
L 188.114011 -106.072454 
L 186.990639 -106.072454 
L 185.867266 -106.072454 
L 184.743894 -106.072454 
L 183.620522 -106.072454 
L 182.49715 -106.072454 
L 181.373778 -106.072454 
L 180.250406 -106.072454 
L 179.127034 -106.072454 
L 178.003662 -106.072454 
L 176.880289 -110.540044 
L 175.756917 -110.540044 
L 174.633545 -110.540044 
L 173.510173 -110.540044 
L 172.386801 -110.540044 
L 171.263429 -110.540044 
L 170.140057 -110.540044 
L 169.016684 -110.540044 
L 167.893312 -110.540044 
L 166.76994 -110.540044 
L 165.646568 -112.773839 
L 164.523196 -112.773839 
L 163.399824 -112.773839 
L 162.276452 -112.773839 
L 161.15308 -112.773839 
L 160.029707 -112.773839 
L 158.906335 -112.773839 
L 157.782963 -112.773839 
L 156.659591 -112.773839 
L 155.536219 -112.773839 
L 154.412847 -114.114116 
L 153.289475 -114.114116 
L 152.166103 -114.114116 
L 151.04273 -114.114116 
L 149.919358 -114.114116 
L 148.795986 -114.114116 
L 147.672614 -114.114116 
L 146.549242 -114.114116 
L 145.42587 -114.114116 
L 144.302498 -114.114116 
L 143.179126 -120.368742 
L 142.055753 -120.368742 
L 140.932381 -120.368742 
L 139.809009 -120.368742 
L 138.685637 -120.368742 
L 137.562265 -120.368742 
L 136.438893 -120.368742 
L 135.315521 -120.368742 
L 134.192148 -120.368742 
L 133.068776 -120.368742 
L 131.945404 -128.410404 
L 130.822032 -128.410404 
L 129.69866 -128.410404 
L 128.575288 -128.410404 
L 127.451916 -128.410404 
L 126.328544 -128.410404 
L 125.205171 -128.410404 
L 124.081799 -128.410404 
L 122.958427 -128.410404 
L 121.835055 -128.410404 
L 120.711683 -135.111789 
L 119.588311 -135.111789 
L 118.464939 -135.111789 
L 117.341567 -135.111789 
L 116.218194 -135.111789 
L 115.094822 -135.111789 
L 113.97145 -135.111789 
L 112.848078 -135.111789 
L 111.724706 -135.111789 
L 110.601334 -135.111789 
L 109.477962 -142.259934 
L 108.354589 -142.259934 
L 107.231217 -142.259934 
L 106.107845 -142.259934 
L 104.984473 -142.259934 
L 103.861101 -142.259934 
L 102.737729 -142.259934 
L 101.614357 -142.259934 
L 100.490985 -142.259934 
L 99.367612 -142.259934 
L 98.24424 -152.98215 
L 97.120868 -152.98215 
L 95.997496 -152.98215 
L 94.874124 -152.98215 
L 93.750752 -152.98215 
L 92.62738 -152.98215 
L 91.504008 -152.98215 
L 90.380635 -152.98215 
L 89.257263 -152.98215 
L 88.133891 -152.98215 
L 87.010519 -173.086305 
L 85.887147 -173.086305 
L 84.763775 -173.086305 
L 83.640403 -173.086305 
L 82.517031 -173.086305 
L 81.393658 -173.086305 
L 80.270286 -173.086305 
L 79.146914 -173.086305 
L 78.023542 -173.086305 
L 76.90017 -173.086305 
L 75.776798 -211.552255 
L 74.653426 -211.552255 
L 73.530053 -211.552255 
L 72.406681 -211.552255 
L 71.283309 -211.552255 
L 70.159937 -211.552255 
L 69.036565 -211.552255 
L 67.913193 -211.552255 
L 66.789821 -211.552255 
L 65.666449 -211.552255 
L 64.543076 -300.636 
L 63.419704 -300.636 
L 62.296332 -300.636 
L 61.17296 -300.636 
L 60.049588 -300.636 
L 58.926216 -300.636 
L 57.802844 -300.636 
L 56.679472 -300.636 
L 55.556099 -300.636 
L 54.432727 -300.636 
z
" id="m12c621080f" style="stroke:#dcbcbc;"/>
    </defs>
    <g clip-path="url(#pe810cfaebe)">
     <use style="fill:#dcbcbc;stroke:#dcbcbc;" x="0" xlink:href="#m12c621080f" y="339.258"/>
    </g>
   </g>
   <g id="PolyCollection_2">
    <defs>
     <path d="M 54.432727 -176.749729 
L 54.432727 -58.716 
L 55.556099 -58.716 
L 56.679472 -58.716 
L 57.802844 -58.716 
L 58.926216 -58.716 
L 60.049588 -58.716 
L 61.17296 -58.716 
L 62.296332 -58.716 
L 63.419704 -58.716 
L 64.543076 -58.716 
L 65.666449 -59.609518 
L 66.789821 -59.609518 
L 67.913193 -59.609518 
L 69.036565 -59.609518 
L 70.159937 -59.609518 
L 71.283309 -59.609518 
L 72.406681 -59.609518 
L 73.530053 -59.609518 
L 74.653426 -59.609518 
L 75.776798 -59.609518 
L 76.90017 -61.396554 
L 78.023542 -61.396554 
L 79.146914 -61.396554 
L 80.270286 -61.396554 
L 81.393658 -61.396554 
L 82.517031 -61.396554 
L 83.640403 -61.396554 
L 84.763775 -61.396554 
L 85.887147 -61.396554 
L 87.010519 -61.396554 
L 88.133891 -61.843313 
L 89.257263 -61.843313 
L 90.380635 -61.843313 
L 91.504008 -61.843313 
L 92.62738 -61.843313 
L 93.750752 -61.843313 
L 94.874124 -61.843313 
L 95.997496 -61.843313 
L 97.120868 -61.843313 
L 98.24424 -61.843313 
L 99.367612 -61.396554 
L 100.490985 -61.396554 
L 101.614357 -61.396554 
L 102.737729 -61.396554 
L 103.861101 -61.396554 
L 104.984473 -61.396554 
L 106.107845 -61.396554 
L 107.231217 -61.396554 
L 108.354589 -61.396554 
L 109.477962 -61.396554 
L 110.601334 -60.413684 
L 111.724706 -60.413684 
L 112.848078 -60.413684 
L 113.97145 -60.413684 
L 115.094822 -60.413684 
L 116.218194 -60.413684 
L 117.341567 -60.413684 
L 118.464939 -60.413684 
L 119.588311 -60.413684 
L 120.711683 -60.413684 
L 121.835055 -59.162759 
L 122.958427 -59.162759 
L 124.081799 -59.162759 
L 125.205171 -59.162759 
L 126.328544 -59.162759 
L 127.451916 -59.162759 
L 128.575288 -59.162759 
L 129.69866 -59.162759 
L 130.822032 -59.162759 
L 131.945404 -59.162759 
L 133.068776 -58.716 
L 134.192148 -58.716 
L 135.315521 -58.716 
L 136.438893 -58.716 
L 137.562265 -58.716 
L 138.685637 -58.716 
L 139.809009 -58.716 
L 140.932381 -58.716 
L 142.055753 -58.716 
L 143.179126 -58.716 
L 144.302498 -58.716 
L 145.42587 -58.716 
L 146.549242 -58.716 
L 147.672614 -58.716 
L 148.795986 -58.716 
L 149.919358 -58.716 
L 151.04273 -58.716 
L 152.166103 -58.716 
L 153.289475 -58.716 
L 154.412847 -58.716 
L 155.536219 -58.716 
L 156.659591 -58.716 
L 157.782963 -58.716 
L 158.906335 -58.716 
L 160.029707 -58.716 
L 161.15308 -58.716 
L 162.276452 -58.716 
L 163.399824 -58.716 
L 164.523196 -58.716 
L 165.646568 -58.716 
L 166.76994 -58.716 
L 167.893312 -58.716 
L 169.016684 -58.716 
L 170.140057 -58.716 
L 171.263429 -58.716 
L 172.386801 -58.716 
L 173.510173 -58.716 
L 174.633545 -58.716 
L 175.756917 -58.716 
L 176.880289 -58.716 
L 178.003662 -58.716 
L 179.127034 -58.716 
L 180.250406 -58.716 
L 181.373778 -58.716 
L 182.49715 -58.716 
L 183.620522 -58.716 
L 184.743894 -58.716 
L 185.867266 -58.716 
L 186.990639 -58.716 
L 188.114011 -58.716 
L 189.237383 -58.716 
L 190.360755 -58.716 
L 191.484127 -58.716 
L 192.607499 -58.716 
L 193.730871 -58.716 
L 194.854243 -58.716 
L 195.977616 -58.716 
L 197.100988 -58.716 
L 198.22436 -58.716 
L 199.347732 -58.716 
L 200.471104 -58.716 
L 201.594476 -58.716 
L 202.717848 -58.716 
L 203.841221 -58.716 
L 204.964593 -58.716 
L 206.087965 -58.716 
L 207.211337 -58.716 
L 208.334709 -58.716 
L 209.458081 -58.716 
L 210.581453 -58.716 
L 211.704825 -58.716 
L 212.828198 -58.716 
L 213.95157 -58.716 
L 215.074942 -58.716 
L 216.198314 -58.716 
L 217.321686 -58.716 
L 218.445058 -58.716 
L 219.56843 -58.716 
L 220.691802 -58.716 
L 221.815175 -58.716 
L 222.938547 -58.716 
L 224.061919 -58.716 
L 225.185291 -58.716 
L 226.308663 -58.716 
L 227.432035 -58.716 
L 228.555407 -58.716 
L 229.678779 -58.716 
L 230.802152 -58.716 
L 231.925524 -58.716 
L 233.048896 -58.716 
L 234.172268 -58.716 
L 235.29564 -58.716 
L 236.419012 -58.716 
L 237.542384 -58.716 
L 238.665757 -58.716 
L 239.789129 -58.716 
L 240.912501 -58.716 
L 242.035873 -58.716 
L 243.159245 -58.716 
L 244.282617 -58.716 
L 245.405989 -58.716 
L 246.529361 -58.716 
L 247.652734 -58.716 
L 248.776106 -58.716 
L 249.899478 -58.716 
L 251.02285 -58.716 
L 252.146222 -58.716 
L 253.269594 -58.716 
L 254.392966 -58.716 
L 255.516338 -58.716 
L 256.639711 -58.716 
L 257.763083 -58.716 
L 258.886455 -58.716 
L 260.009827 -58.716 
L 261.133199 -58.716 
L 262.256571 -58.716 
L 263.379943 -58.716 
L 264.503316 -58.716 
L 265.626688 -58.716 
L 266.75006 -58.716 
L 267.873432 -58.716 
L 268.996804 -58.716 
L 270.120176 -58.716 
L 271.243548 -58.716 
L 272.36692 -58.716 
L 273.490293 -58.716 
L 274.613665 -58.716 
L 275.737037 -58.716 
L 276.860409 -58.716 
L 277.983781 -58.716 
L 279.107153 -58.716 
L 280.230525 -58.716 
L 281.353897 -58.716 
L 282.47727 -58.716 
L 283.600642 -58.716 
L 284.724014 -58.716 
L 285.847386 -58.716 
L 286.970758 -58.716 
L 288.09413 -58.716 
L 289.217502 -58.716 
L 290.340874 -58.716 
L 291.464247 -58.716 
L 292.587619 -58.716 
L 293.710991 -58.716 
L 294.834363 -58.716 
L 295.957735 -58.716 
L 297.081107 -58.716 
L 298.204479 -58.716 
L 299.327852 -58.716 
L 300.451224 -58.716 
L 301.574596 -58.716 
L 302.697968 -58.716 
L 303.82134 -58.716 
L 304.944712 -58.716 
L 306.068084 -58.716 
L 307.191456 -58.716 
L 308.314829 -58.716 
L 309.438201 -58.716 
L 310.561573 -58.716 
L 311.684945 -58.716 
L 312.808317 -58.716 
L 313.931689 -58.716 
L 315.055061 -58.716 
L 316.178433 -58.716 
L 317.301806 -58.716 
L 318.425178 -58.716 
L 319.54855 -58.716 
L 320.671922 -58.716 
L 321.795294 -58.716 
L 322.918666 -58.716 
L 324.042038 -58.716 
L 325.165411 -58.716 
L 326.288783 -58.716 
L 327.412155 -58.716 
L 328.535527 -58.716 
L 329.658899 -58.716 
L 330.782271 -58.716 
L 331.905643 -58.716 
L 333.029015 -58.716 
L 334.152388 -58.716 
L 335.27576 -58.716 
L 336.399132 -58.716 
L 337.522504 -58.716 
L 338.645876 -58.716 
L 339.769248 -58.716 
L 340.89262 -58.716 
L 342.015992 -58.716 
L 343.139365 -58.716 
L 344.262737 -58.716 
L 345.386109 -58.716 
L 346.509481 -58.716 
L 347.632853 -58.716 
L 348.756225 -58.716 
L 349.879597 -58.716 
L 351.002969 -58.716 
L 352.126342 -58.716 
L 353.249714 -58.716 
L 354.373086 -58.716 
L 355.496458 -58.716 
L 356.61983 -58.716 
L 357.743202 -58.716 
L 358.866574 -58.716 
L 359.989947 -58.716 
L 361.113319 -58.716 
L 362.236691 -58.716 
L 363.360063 -58.716 
L 364.483435 -58.716 
L 365.606807 -58.716 
L 366.730179 -58.716 
L 367.853551 -58.716 
L 368.976924 -58.716 
L 370.100296 -58.716 
L 371.223668 -58.716 
L 372.34704 -58.716 
L 373.470412 -58.716 
L 374.593784 -58.716 
L 375.717156 -58.716 
L 376.840528 -58.716 
L 377.963901 -58.716 
L 379.087273 -58.716 
L 379.087273 -58.716 
L 379.087273 -58.716 
L 377.963901 -58.716 
L 376.840528 -58.716 
L 375.717156 -58.716 
L 374.593784 -58.716 
L 373.470412 -58.716 
L 372.34704 -58.716 
L 371.223668 -58.716 
L 370.100296 -58.716 
L 368.976924 -58.716 
L 367.853551 -58.716 
L 366.730179 -58.716 
L 365.606807 -58.716 
L 364.483435 -58.716 
L 363.360063 -58.716 
L 362.236691 -58.716 
L 361.113319 -58.716 
L 359.989947 -58.716 
L 358.866574 -58.716 
L 357.743202 -58.716 
L 356.61983 -58.716 
L 355.496458 -58.716 
L 354.373086 -58.716 
L 353.249714 -58.716 
L 352.126342 -58.716 
L 351.002969 -58.716 
L 349.879597 -58.716 
L 348.756225 -58.716 
L 347.632853 -58.716 
L 346.509481 -58.716 
L 345.386109 -58.716 
L 344.262737 -58.716 
L 343.139365 -58.716 
L 342.015992 -58.716 
L 340.89262 -58.716 
L 339.769248 -58.716 
L 338.645876 -58.716 
L 337.522504 -58.716 
L 336.399132 -58.716 
L 335.27576 -58.716 
L 334.152388 -58.716 
L 333.029015 -58.716 
L 331.905643 -58.716 
L 330.782271 -58.716 
L 329.658899 -58.716 
L 328.535527 -58.716 
L 327.412155 -58.716 
L 326.288783 -58.716 
L 325.165411 -58.716 
L 324.042038 -58.716 
L 322.918666 -58.716 
L 321.795294 -58.716 
L 320.671922 -58.716 
L 319.54855 -58.716 
L 318.425178 -58.716 
L 317.301806 -58.716 
L 316.178433 -58.716 
L 315.055061 -58.716 
L 313.931689 -58.716 
L 312.808317 -58.716 
L 311.684945 -58.716 
L 310.561573 -58.716 
L 309.438201 -58.716 
L 308.314829 -58.716 
L 307.191456 -58.716 
L 306.068084 -58.716 
L 304.944712 -58.716 
L 303.82134 -58.716 
L 302.697968 -58.716 
L 301.574596 -58.716 
L 300.451224 -58.716 
L 299.327852 -58.716 
L 298.204479 -58.716 
L 297.081107 -58.716 
L 295.957735 -58.716 
L 294.834363 -58.716 
L 293.710991 -58.716 
L 292.587619 -58.716 
L 291.464247 -58.716 
L 290.340874 -58.716 
L 289.217502 -58.716 
L 288.09413 -58.716 
L 286.970758 -58.716 
L 285.847386 -58.716 
L 284.724014 -58.716 
L 283.600642 -58.716 
L 282.47727 -58.716 
L 281.353897 -58.716 
L 280.230525 -58.716 
L 279.107153 -58.716 
L 277.983781 -59.162759 
L 276.860409 -59.162759 
L 275.737037 -59.162759 
L 274.613665 -59.162759 
L 273.490293 -59.162759 
L 272.36692 -59.162759 
L 271.243548 -59.162759 
L 270.120176 -59.162759 
L 268.996804 -59.162759 
L 267.873432 -59.162759 
L 266.75006 -59.609518 
L 265.626688 -59.609518 
L 264.503316 -59.609518 
L 263.379943 -59.609518 
L 262.256571 -59.609518 
L 261.133199 -59.609518 
L 260.009827 -59.609518 
L 258.886455 -59.609518 
L 257.763083 -59.609518 
L 256.639711 -59.609518 
L 255.516338 -60.056277 
L 254.392966 -60.056277 
L 253.269594 -60.056277 
L 252.146222 -60.056277 
L 251.02285 -60.056277 
L 249.899478 -60.056277 
L 248.776106 -60.056277 
L 247.652734 -60.056277 
L 246.529361 -60.056277 
L 245.405989 -60.056277 
L 244.282617 -62.379424 
L 243.159245 -62.379424 
L 242.035873 -62.379424 
L 240.912501 -62.379424 
L 239.789129 -62.379424 
L 238.665757 -62.379424 
L 237.542384 -62.379424 
L 236.419012 -62.379424 
L 235.29564 -62.379424 
L 234.172268 -62.379424 
L 233.048896 -65.864144 
L 231.925524 -65.864144 
L 230.802152 -65.864144 
L 229.678779 -65.864144 
L 228.555407 -65.864144 
L 227.432035 -65.864144 
L 226.308663 -65.864144 
L 225.185291 -65.864144 
L 224.061919 -65.864144 
L 222.938547 -65.864144 
L 221.815175 -70.778493 
L 220.691802 -70.778493 
L 219.56843 -70.778493 
L 218.445058 -70.778493 
L 217.321686 -70.778493 
L 216.198314 -70.778493 
L 215.074942 -70.778493 
L 213.95157 -70.778493 
L 212.828198 -70.778493 
L 211.704825 -70.778493 
L 210.581453 -78.015989 
L 209.458081 -78.015989 
L 208.334709 -78.015989 
L 207.211337 -78.015989 
L 206.087965 -78.015989 
L 204.964593 -78.015989 
L 203.841221 -78.015989 
L 202.717848 -78.015989 
L 201.594476 -78.015989 
L 200.471104 -78.015989 
L 199.347732 -83.734504 
L 198.22436 -83.734504 
L 197.100988 -83.734504 
L 195.977616 -83.734504 
L 194.854243 -83.734504 
L 193.730871 -83.734504 
L 192.607499 -83.734504 
L 191.484127 -83.734504 
L 190.360755 -83.734504 
L 189.237383 -83.734504 
L 188.114011 -88.738205 
L 186.990639 -88.738205 
L 185.867266 -88.738205 
L 184.743894 -88.738205 
L 183.620522 -88.738205 
L 182.49715 -88.738205 
L 181.373778 -88.738205 
L 180.250406 -88.738205 
L 179.127034 -88.738205 
L 178.003662 -88.738205 
L 176.880289 -94.992831 
L 175.756917 -94.992831 
L 174.633545 -94.992831 
L 173.510173 -94.992831 
L 172.386801 -94.992831 
L 171.263429 -94.992831 
L 170.140057 -94.992831 
L 169.016684 -94.992831 
L 167.893312 -94.992831 
L 166.76994 -94.992831 
L 165.646568 -99.817828 
L 164.523196 -99.817828 
L 163.399824 -99.817828 
L 162.276452 -99.817828 
L 161.15308 -99.817828 
L 160.029707 -99.817828 
L 158.906335 -99.817828 
L 157.782963 -99.817828 
L 156.659591 -99.817828 
L 155.536219 -99.817828 
L 154.412847 -107.502083 
L 153.289475 -107.502083 
L 152.166103 -107.502083 
L 151.04273 -107.502083 
L 149.919358 -107.502083 
L 148.795986 -107.502083 
L 147.672614 -107.502083 
L 146.549242 -107.502083 
L 145.42587 -107.502083 
L 144.302498 -107.502083 
L 143.179126 -111.433562 
L 142.055753 -111.433562 
L 140.932381 -111.433562 
L 139.809009 -111.433562 
L 138.685637 -111.433562 
L 137.562265 -111.433562 
L 136.438893 -111.433562 
L 135.315521 -111.433562 
L 134.192148 -111.433562 
L 133.068776 -111.433562 
L 131.945404 -119.028465 
L 130.822032 -119.028465 
L 129.69866 -119.028465 
L 128.575288 -119.028465 
L 127.451916 -119.028465 
L 126.328544 -119.028465 
L 125.205171 -119.028465 
L 124.081799 -119.028465 
L 122.958427 -119.028465 
L 121.835055 -119.028465 
L 120.711683 -127.516886 
L 119.588311 -127.516886 
L 118.464939 -127.516886 
L 117.341567 -127.516886 
L 116.218194 -127.516886 
L 115.094822 -127.516886 
L 113.97145 -127.516886 
L 112.848078 -127.516886 
L 111.724706 -127.516886 
L 110.601334 -127.516886 
L 109.477962 -135.558548 
L 108.354589 -135.558548 
L 107.231217 -135.558548 
L 106.107845 -135.558548 
L 104.984473 -135.558548 
L 103.861101 -135.558548 
L 102.737729 -135.558548 
L 101.614357 -135.558548 
L 100.490985 -135.558548 
L 99.367612 -135.558548 
L 98.24424 -142.259934 
L 97.120868 -142.259934 
L 95.997496 -142.259934 
L 94.874124 -142.259934 
L 93.750752 -142.259934 
L 92.62738 -142.259934 
L 91.504008 -142.259934 
L 90.380635 -142.259934 
L 89.257263 -142.259934 
L 88.133891 -142.259934 
L 87.010519 -154.947889 
L 85.887147 -154.947889 
L 84.763775 -154.947889 
L 83.640403 -154.947889 
L 82.517031 -154.947889 
L 81.393658 -154.947889 
L 80.270286 -154.947889 
L 79.146914 -154.947889 
L 78.023542 -154.947889 
L 76.90017 -154.947889 
L 75.776798 -186.935834 
L 74.653426 -186.935834 
L 73.530053 -186.935834 
L 72.406681 -186.935834 
L 71.283309 -186.935834 
L 70.159937 -186.935834 
L 69.036565 -186.935834 
L 67.913193 -186.935834 
L 66.789821 -186.935834 
L 65.666449 -186.935834 
L 64.543076 -176.749729 
L 63.419704 -176.749729 
L 62.296332 -176.749729 
L 61.17296 -176.749729 
L 60.049588 -176.749729 
L 58.926216 -176.749729 
L 57.802844 -176.749729 
L 56.679472 -176.749729 
L 55.556099 -176.749729 
L 54.432727 -176.749729 
z
" id="m915ff6994b" style="stroke:#c79999;"/>
    </defs>
    <g clip-path="url(#pe810cfaebe)">
     <use style="fill:#c79999;stroke:#c79999;" x="0" xlink:href="#m915ff6994b" y="339.258"/>
    </g>
   </g>
   <g id="PolyCollection_3">
    <defs>
     <path d="M 54.432727 -109.691202 
L 54.432727 -59.162759 
L 55.556099 -59.162759 
L 56.679472 -59.162759 
L 57.802844 -59.162759 
L 58.926216 -59.162759 
L 60.049588 -59.162759 
L 61.17296 -59.162759 
L 62.296332 -59.162759 
L 63.419704 -59.162759 
L 64.543076 -59.162759 
L 65.666449 -63.496321 
L 66.789821 -63.496321 
L 67.913193 -63.496321 
L 69.036565 -63.496321 
L 70.159937 -63.496321 
L 71.283309 -63.496321 
L 72.406681 -63.496321 
L 73.530053 -63.496321 
L 74.653426 -63.496321 
L 75.776798 -63.496321 
L 76.90017 -70.644465 
L 78.023542 -70.644465 
L 79.146914 -70.644465 
L 80.270286 -70.644465 
L 81.393658 -70.644465 
L 82.517031 -70.644465 
L 83.640403 -70.644465 
L 84.763775 -70.644465 
L 85.887147 -70.644465 
L 87.010519 -70.644465 
L 88.133891 -67.65118 
L 89.257263 -67.65118 
L 90.380635 -67.65118 
L 91.504008 -67.65118 
L 92.62738 -67.65118 
L 93.750752 -67.65118 
L 94.874124 -67.65118 
L 95.997496 -67.65118 
L 97.120868 -67.65118 
L 98.24424 -67.65118 
L 99.367612 -67.070393 
L 100.490985 -67.070393 
L 101.614357 -67.070393 
L 102.737729 -67.070393 
L 103.861101 -67.070393 
L 104.984473 -67.070393 
L 106.107845 -67.070393 
L 107.231217 -67.070393 
L 108.354589 -67.070393 
L 109.477962 -67.070393 
L 110.601334 -65.417385 
L 111.724706 -65.417385 
L 112.848078 -65.417385 
L 113.97145 -65.417385 
L 115.094822 -65.417385 
L 116.218194 -65.417385 
L 117.341567 -65.417385 
L 118.464939 -65.417385 
L 119.588311 -65.417385 
L 120.711683 -65.417385 
L 121.835055 -62.736831 
L 122.958427 -62.736831 
L 124.081799 -62.736831 
L 125.205171 -62.736831 
L 126.328544 -62.736831 
L 127.451916 -62.736831 
L 128.575288 -62.736831 
L 129.69866 -62.736831 
L 130.822032 -62.736831 
L 131.945404 -62.736831 
L 133.068776 -60.503036 
L 134.192148 -60.503036 
L 135.315521 -60.503036 
L 136.438893 -60.503036 
L 137.562265 -60.503036 
L 138.685637 -60.503036 
L 139.809009 -60.503036 
L 140.932381 -60.503036 
L 142.055753 -60.503036 
L 143.179126 -60.503036 
L 144.302498 -59.162759 
L 145.42587 -59.162759 
L 146.549242 -59.162759 
L 147.672614 -59.162759 
L 148.795986 -59.162759 
L 149.919358 -59.162759 
L 151.04273 -59.162759 
L 152.166103 -59.162759 
L 153.289475 -59.162759 
L 154.412847 -59.162759 
L 155.536219 -58.716 
L 156.659591 -58.716 
L 157.782963 -58.716 
L 158.906335 -58.716 
L 160.029707 -58.716 
L 161.15308 -58.716 
L 162.276452 -58.716 
L 163.399824 -58.716 
L 164.523196 -58.716 
L 165.646568 -58.716 
L 166.76994 -58.716 
L 167.893312 -58.716 
L 169.016684 -58.716 
L 170.140057 -58.716 
L 171.263429 -58.716 
L 172.386801 -58.716 
L 173.510173 -58.716 
L 174.633545 -58.716 
L 175.756917 -58.716 
L 176.880289 -58.716 
L 178.003662 -58.716 
L 179.127034 -58.716 
L 180.250406 -58.716 
L 181.373778 -58.716 
L 182.49715 -58.716 
L 183.620522 -58.716 
L 184.743894 -58.716 
L 185.867266 -58.716 
L 186.990639 -58.716 
L 188.114011 -58.716 
L 189.237383 -58.716 
L 190.360755 -58.716 
L 191.484127 -58.716 
L 192.607499 -58.716 
L 193.730871 -58.716 
L 194.854243 -58.716 
L 195.977616 -58.716 
L 197.100988 -58.716 
L 198.22436 -58.716 
L 199.347732 -58.716 
L 200.471104 -58.716 
L 201.594476 -58.716 
L 202.717848 -58.716 
L 203.841221 -58.716 
L 204.964593 -58.716 
L 206.087965 -58.716 
L 207.211337 -58.716 
L 208.334709 -58.716 
L 209.458081 -58.716 
L 210.581453 -58.716 
L 211.704825 -58.716 
L 212.828198 -58.716 
L 213.95157 -58.716 
L 215.074942 -58.716 
L 216.198314 -58.716 
L 217.321686 -58.716 
L 218.445058 -58.716 
L 219.56843 -58.716 
L 220.691802 -58.716 
L 221.815175 -58.716 
L 222.938547 -58.716 
L 224.061919 -58.716 
L 225.185291 -58.716 
L 226.308663 -58.716 
L 227.432035 -58.716 
L 228.555407 -58.716 
L 229.678779 -58.716 
L 230.802152 -58.716 
L 231.925524 -58.716 
L 233.048896 -58.716 
L 234.172268 -58.716 
L 235.29564 -58.716 
L 236.419012 -58.716 
L 237.542384 -58.716 
L 238.665757 -58.716 
L 239.789129 -58.716 
L 240.912501 -58.716 
L 242.035873 -58.716 
L 243.159245 -58.716 
L 244.282617 -58.716 
L 245.405989 -58.716 
L 246.529361 -58.716 
L 247.652734 -58.716 
L 248.776106 -58.716 
L 249.899478 -58.716 
L 251.02285 -58.716 
L 252.146222 -58.716 
L 253.269594 -58.716 
L 254.392966 -58.716 
L 255.516338 -58.716 
L 256.639711 -58.716 
L 257.763083 -58.716 
L 258.886455 -58.716 
L 260.009827 -58.716 
L 261.133199 -58.716 
L 262.256571 -58.716 
L 263.379943 -58.716 
L 264.503316 -58.716 
L 265.626688 -58.716 
L 266.75006 -58.716 
L 267.873432 -58.716 
L 268.996804 -58.716 
L 270.120176 -58.716 
L 271.243548 -58.716 
L 272.36692 -58.716 
L 273.490293 -58.716 
L 274.613665 -58.716 
L 275.737037 -58.716 
L 276.860409 -58.716 
L 277.983781 -58.716 
L 279.107153 -58.716 
L 280.230525 -58.716 
L 281.353897 -58.716 
L 282.47727 -58.716 
L 283.600642 -58.716 
L 284.724014 -58.716 
L 285.847386 -58.716 
L 286.970758 -58.716 
L 288.09413 -58.716 
L 289.217502 -58.716 
L 290.340874 -58.716 
L 291.464247 -58.716 
L 292.587619 -58.716 
L 293.710991 -58.716 
L 294.834363 -58.716 
L 295.957735 -58.716 
L 297.081107 -58.716 
L 298.204479 -58.716 
L 299.327852 -58.716 
L 300.451224 -58.716 
L 301.574596 -58.716 
L 302.697968 -58.716 
L 303.82134 -58.716 
L 304.944712 -58.716 
L 306.068084 -58.716 
L 307.191456 -58.716 
L 308.314829 -58.716 
L 309.438201 -58.716 
L 310.561573 -58.716 
L 311.684945 -58.716 
L 312.808317 -58.716 
L 313.931689 -58.716 
L 315.055061 -58.716 
L 316.178433 -58.716 
L 317.301806 -58.716 
L 318.425178 -58.716 
L 319.54855 -58.716 
L 320.671922 -58.716 
L 321.795294 -58.716 
L 322.918666 -58.716 
L 324.042038 -58.716 
L 325.165411 -58.716 
L 326.288783 -58.716 
L 327.412155 -58.716 
L 328.535527 -58.716 
L 329.658899 -58.716 
L 330.782271 -58.716 
L 331.905643 -58.716 
L 333.029015 -58.716 
L 334.152388 -58.716 
L 335.27576 -58.716 
L 336.399132 -58.716 
L 337.522504 -58.716 
L 338.645876 -58.716 
L 339.769248 -58.716 
L 340.89262 -58.716 
L 342.015992 -58.716 
L 343.139365 -58.716 
L 344.262737 -58.716 
L 345.386109 -58.716 
L 346.509481 -58.716 
L 347.632853 -58.716 
L 348.756225 -58.716 
L 349.879597 -58.716 
L 351.002969 -58.716 
L 352.126342 -58.716 
L 353.249714 -58.716 
L 354.373086 -58.716 
L 355.496458 -58.716 
L 356.61983 -58.716 
L 357.743202 -58.716 
L 358.866574 -58.716 
L 359.989947 -58.716 
L 361.113319 -58.716 
L 362.236691 -58.716 
L 363.360063 -58.716 
L 364.483435 -58.716 
L 365.606807 -58.716 
L 366.730179 -58.716 
L 367.853551 -58.716 
L 368.976924 -58.716 
L 370.100296 -58.716 
L 371.223668 -58.716 
L 372.34704 -58.716 
L 373.470412 -58.716 
L 374.593784 -58.716 
L 375.717156 -58.716 
L 376.840528 -58.716 
L 377.963901 -58.716 
L 379.087273 -58.716 
L 379.087273 -58.716 
L 379.087273 -58.716 
L 377.963901 -58.716 
L 376.840528 -58.716 
L 375.717156 -58.716 
L 374.593784 -58.716 
L 373.470412 -58.716 
L 372.34704 -58.716 
L 371.223668 -58.716 
L 370.100296 -58.716 
L 368.976924 -58.716 
L 367.853551 -58.716 
L 366.730179 -58.716 
L 365.606807 -58.716 
L 364.483435 -58.716 
L 363.360063 -58.716 
L 362.236691 -58.716 
L 361.113319 -58.716 
L 359.989947 -58.716 
L 358.866574 -58.716 
L 357.743202 -58.716 
L 356.61983 -58.716 
L 355.496458 -58.716 
L 354.373086 -58.716 
L 353.249714 -58.716 
L 352.126342 -58.716 
L 351.002969 -58.716 
L 349.879597 -58.716 
L 348.756225 -58.716 
L 347.632853 -58.716 
L 346.509481 -58.716 
L 345.386109 -58.716 
L 344.262737 -58.716 
L 343.139365 -58.716 
L 342.015992 -58.716 
L 340.89262 -58.716 
L 339.769248 -58.716 
L 338.645876 -58.716 
L 337.522504 -58.716 
L 336.399132 -58.716 
L 335.27576 -58.716 
L 334.152388 -58.716 
L 333.029015 -58.716 
L 331.905643 -58.716 
L 330.782271 -58.716 
L 329.658899 -58.716 
L 328.535527 -58.716 
L 327.412155 -58.716 
L 326.288783 -58.716 
L 325.165411 -58.716 
L 324.042038 -58.716 
L 322.918666 -58.716 
L 321.795294 -58.716 
L 320.671922 -58.716 
L 319.54855 -58.716 
L 318.425178 -58.716 
L 317.301806 -58.716 
L 316.178433 -58.716 
L 315.055061 -58.716 
L 313.931689 -58.716 
L 312.808317 -58.716 
L 311.684945 -58.716 
L 310.561573 -58.716 
L 309.438201 -58.716 
L 308.314829 -58.716 
L 307.191456 -58.716 
L 306.068084 -58.716 
L 304.944712 -58.716 
L 303.82134 -58.716 
L 302.697968 -58.716 
L 301.574596 -58.716 
L 300.451224 -58.716 
L 299.327852 -58.716 
L 298.204479 -58.716 
L 297.081107 -58.716 
L 295.957735 -58.716 
L 294.834363 -58.716 
L 293.710991 -58.716 
L 292.587619 -58.716 
L 291.464247 -58.716 
L 290.340874 -58.716 
L 289.217502 -58.716 
L 288.09413 -58.716 
L 286.970758 -58.716 
L 285.847386 -58.716 
L 284.724014 -58.716 
L 283.600642 -58.716 
L 282.47727 -58.716 
L 281.353897 -58.716 
L 280.230525 -58.716 
L 279.107153 -58.716 
L 277.983781 -58.716 
L 276.860409 -58.716 
L 275.737037 -58.716 
L 274.613665 -58.716 
L 273.490293 -58.716 
L 272.36692 -58.716 
L 271.243548 -58.716 
L 270.120176 -58.716 
L 268.996804 -58.716 
L 267.873432 -58.716 
L 266.75006 -58.716 
L 265.626688 -58.716 
L 264.503316 -58.716 
L 263.379943 -58.716 
L 262.256571 -58.716 
L 261.133199 -58.716 
L 260.009827 -58.716 
L 258.886455 -58.716 
L 257.763083 -58.716 
L 256.639711 -58.716 
L 255.516338 -58.716 
L 254.392966 -58.716 
L 253.269594 -58.716 
L 252.146222 -58.716 
L 251.02285 -58.716 
L 249.899478 -58.716 
L 248.776106 -58.716 
L 247.652734 -58.716 
L 246.529361 -58.716 
L 245.405989 -58.716 
L 244.282617 -59.162759 
L 243.159245 -59.162759 
L 242.035873 -59.162759 
L 240.912501 -59.162759 
L 239.789129 -59.162759 
L 238.665757 -59.162759 
L 237.542384 -59.162759 
L 236.419012 -59.162759 
L 235.29564 -59.162759 
L 234.172268 -59.162759 
L 233.048896 -59.609518 
L 231.925524 -59.609518 
L 230.802152 -59.609518 
L 229.678779 -59.609518 
L 228.555407 -59.609518 
L 227.432035 -59.609518 
L 226.308663 -59.609518 
L 225.185291 -59.609518 
L 224.061919 -59.609518 
L 222.938547 -59.609518 
L 221.815175 -60.503036 
L 220.691802 -60.503036 
L 219.56843 -60.503036 
L 218.445058 -60.503036 
L 217.321686 -60.503036 
L 216.198314 -60.503036 
L 215.074942 -60.503036 
L 213.95157 -60.503036 
L 212.828198 -60.503036 
L 211.704825 -60.503036 
L 210.581453 -61.843313 
L 209.458081 -61.843313 
L 208.334709 -61.843313 
L 207.211337 -61.843313 
L 206.087965 -61.843313 
L 204.964593 -61.843313 
L 203.841221 -61.843313 
L 202.717848 -61.843313 
L 201.594476 -61.843313 
L 200.471104 -61.843313 
L 199.347732 -65.417385 
L 198.22436 -65.417385 
L 197.100988 -65.417385 
L 195.977616 -65.417385 
L 194.854243 -65.417385 
L 193.730871 -65.417385 
L 192.607499 -65.417385 
L 191.484127 -65.417385 
L 190.360755 -65.417385 
L 189.237383 -65.417385 
L 188.114011 -69.884975 
L 186.990639 -69.884975 
L 185.867266 -69.884975 
L 184.743894 -69.884975 
L 183.620522 -69.884975 
L 182.49715 -69.884975 
L 181.373778 -69.884975 
L 180.250406 -69.884975 
L 179.127034 -69.884975 
L 178.003662 -69.884975 
L 176.880289 -78.373396 
L 175.756917 -78.373396 
L 174.633545 -78.373396 
L 173.510173 -78.373396 
L 172.386801 -78.373396 
L 171.263429 -78.373396 
L 170.140057 -78.373396 
L 169.016684 -78.373396 
L 167.893312 -78.373396 
L 166.76994 -78.373396 
L 165.646568 -87.308576 
L 164.523196 -87.308576 
L 163.399824 -87.308576 
L 162.276452 -87.308576 
L 161.15308 -87.308576 
L 160.029707 -87.308576 
L 158.906335 -87.308576 
L 157.782963 -87.308576 
L 156.659591 -87.308576 
L 155.536219 -87.308576 
L 154.412847 -93.563202 
L 153.289475 -93.563202 
L 152.166103 -93.563202 
L 151.04273 -93.563202 
L 149.919358 -93.563202 
L 148.795986 -93.563202 
L 147.672614 -93.563202 
L 146.549242 -93.563202 
L 145.42587 -93.563202 
L 144.302498 -93.563202 
L 143.179126 -101.292133 
L 142.055753 -101.292133 
L 140.932381 -101.292133 
L 139.809009 -101.292133 
L 138.685637 -101.292133 
L 137.562265 -101.292133 
L 136.438893 -101.292133 
L 135.315521 -101.292133 
L 134.192148 -101.292133 
L 133.068776 -101.292133 
L 131.945404 -107.1 
L 130.822032 -107.1 
L 129.69866 -107.1 
L 128.575288 -107.1 
L 127.451916 -107.1 
L 126.328544 -107.1 
L 125.205171 -107.1 
L 124.081799 -107.1 
L 122.958427 -107.1 
L 121.835055 -107.1 
L 120.711683 -119.028465 
L 119.588311 -119.028465 
L 118.464939 -119.028465 
L 117.341567 -119.028465 
L 116.218194 -119.028465 
L 115.094822 -119.028465 
L 113.97145 -119.028465 
L 112.848078 -119.028465 
L 111.724706 -119.028465 
L 110.601334 -119.028465 
L 109.477962 -124.389573 
L 108.354589 -124.389573 
L 107.231217 -124.389573 
L 106.107845 -124.389573 
L 104.984473 -124.389573 
L 103.861101 -124.389573 
L 102.737729 -124.389573 
L 101.614357 -124.389573 
L 100.490985 -124.389573 
L 99.367612 -124.389573 
L 98.24424 -128.991191 
L 97.120868 -128.991191 
L 95.997496 -128.991191 
L 94.874124 -128.991191 
L 93.750752 -128.991191 
L 92.62738 -128.991191 
L 91.504008 -128.991191 
L 90.380635 -128.991191 
L 89.257263 -128.991191 
L 88.133891 -128.991191 
L 87.010519 -133.101374 
L 85.887147 -133.101374 
L 84.763775 -133.101374 
L 83.640403 -133.101374 
L 82.517031 -133.101374 
L 81.393658 -133.101374 
L 80.270286 -133.101374 
L 79.146914 -133.101374 
L 78.023542 -133.101374 
L 76.90017 -133.101374 
L 75.776798 -140.160166 
L 74.653426 -140.160166 
L 73.530053 -140.160166 
L 72.406681 -140.160166 
L 71.283309 -140.160166 
L 70.159937 -140.160166 
L 69.036565 -140.160166 
L 67.913193 -140.160166 
L 66.789821 -140.160166 
L 65.666449 -140.160166 
L 64.543076 -109.691202 
L 63.419704 -109.691202 
L 62.296332 -109.691202 
L 61.17296 -109.691202 
L 60.049588 -109.691202 
L 58.926216 -109.691202 
L 57.802844 -109.691202 
L 56.679472 -109.691202 
L 55.556099 -109.691202 
L 54.432727 -109.691202 
z
" id="mdf01b8e4d6" style="stroke:#b97c7c;"/>
    </defs>
    <g clip-path="url(#pe810cfaebe)">
     <use style="fill:#b97c7c;stroke:#b97c7c;" x="0" xlink:href="#mdf01b8e4d6" y="339.258"/>
    </g>
   </g>
   <g id="PolyCollection_4">
    <defs>
     <path d="M 54.432727 -75.692842 
L 54.432727 -60.949795 
L 55.556099 -60.949795 
L 56.679472 -60.949795 
L 57.802844 -60.949795 
L 58.926216 -60.949795 
L 60.049588 -60.949795 
L 61.17296 -60.949795 
L 62.296332 -60.949795 
L 63.419704 -60.949795 
L 64.543076 -60.949795 
L 65.666449 -70.599789 
L 66.789821 -70.599789 
L 67.913193 -70.599789 
L 69.036565 -70.599789 
L 70.159937 -70.599789 
L 71.283309 -70.599789 
L 72.406681 -70.599789 
L 73.530053 -70.599789 
L 74.653426 -70.599789 
L 75.776798 -70.599789 
L 76.90017 -80.160432 
L 78.023542 -80.160432 
L 79.146914 -80.160432 
L 80.270286 -80.160432 
L 81.393658 -80.160432 
L 82.517031 -80.160432 
L 83.640403 -80.160432 
L 84.763775 -80.160432 
L 85.887147 -80.160432 
L 87.010519 -80.160432 
L 88.133891 -81.500709 
L 89.257263 -81.500709 
L 90.380635 -81.500709 
L 91.504008 -81.500709 
L 92.62738 -81.500709 
L 93.750752 -81.500709 
L 94.874124 -81.500709 
L 95.997496 -81.500709 
L 97.120868 -81.500709 
L 98.24424 -81.500709 
L 99.367612 -75.246083 
L 100.490985 -75.246083 
L 101.614357 -75.246083 
L 102.737729 -75.246083 
L 103.861101 -75.246083 
L 104.984473 -75.246083 
L 106.107845 -75.246083 
L 107.231217 -75.246083 
L 108.354589 -75.246083 
L 109.477962 -75.246083 
L 110.601334 -73.727102 
L 111.724706 -73.727102 
L 112.848078 -73.727102 
L 113.97145 -73.727102 
L 115.094822 -73.727102 
L 116.218194 -73.727102 
L 117.341567 -73.727102 
L 118.464939 -73.727102 
L 119.588311 -73.727102 
L 120.711683 -73.727102 
L 121.835055 -70.15303 
L 122.958427 -70.15303 
L 124.081799 -70.15303 
L 125.205171 -70.15303 
L 126.328544 -70.15303 
L 127.451916 -70.15303 
L 128.575288 -70.15303 
L 129.69866 -70.15303 
L 130.822032 -70.15303 
L 131.945404 -70.15303 
L 133.068776 -65.238681 
L 134.192148 -65.238681 
L 135.315521 -65.238681 
L 136.438893 -65.238681 
L 137.562265 -65.238681 
L 138.685637 -65.238681 
L 139.809009 -65.238681 
L 140.932381 -65.238681 
L 142.055753 -65.238681 
L 143.179126 -65.238681 
L 144.302498 -62.290072 
L 145.42587 -62.290072 
L 146.549242 -62.290072 
L 147.672614 -62.290072 
L 148.795986 -62.290072 
L 149.919358 -62.290072 
L 151.04273 -62.290072 
L 152.166103 -62.290072 
L 153.289475 -62.290072 
L 154.412847 -62.290072 
L 155.536219 -60.056277 
L 156.659591 -60.056277 
L 157.782963 -60.056277 
L 158.906335 -60.056277 
L 160.029707 -60.056277 
L 161.15308 -60.056277 
L 162.276452 -60.056277 
L 163.399824 -60.056277 
L 164.523196 -60.056277 
L 165.646568 -60.056277 
L 166.76994 -59.162759 
L 167.893312 -59.162759 
L 169.016684 -59.162759 
L 170.140057 -59.162759 
L 171.263429 -59.162759 
L 172.386801 -59.162759 
L 173.510173 -59.162759 
L 174.633545 -59.162759 
L 175.756917 -59.162759 
L 176.880289 -59.162759 
L 178.003662 -58.716 
L 179.127034 -58.716 
L 180.250406 -58.716 
L 181.373778 -58.716 
L 182.49715 -58.716 
L 183.620522 -58.716 
L 184.743894 -58.716 
L 185.867266 -58.716 
L 186.990639 -58.716 
L 188.114011 -58.716 
L 189.237383 -58.716 
L 190.360755 -58.716 
L 191.484127 -58.716 
L 192.607499 -58.716 
L 193.730871 -58.716 
L 194.854243 -58.716 
L 195.977616 -58.716 
L 197.100988 -58.716 
L 198.22436 -58.716 
L 199.347732 -58.716 
L 200.471104 -58.716 
L 201.594476 -58.716 
L 202.717848 -58.716 
L 203.841221 -58.716 
L 204.964593 -58.716 
L 206.087965 -58.716 
L 207.211337 -58.716 
L 208.334709 -58.716 
L 209.458081 -58.716 
L 210.581453 -58.716 
L 211.704825 -58.716 
L 212.828198 -58.716 
L 213.95157 -58.716 
L 215.074942 -58.716 
L 216.198314 -58.716 
L 217.321686 -58.716 
L 218.445058 -58.716 
L 219.56843 -58.716 
L 220.691802 -58.716 
L 221.815175 -58.716 
L 222.938547 -58.716 
L 224.061919 -58.716 
L 225.185291 -58.716 
L 226.308663 -58.716 
L 227.432035 -58.716 
L 228.555407 -58.716 
L 229.678779 -58.716 
L 230.802152 -58.716 
L 231.925524 -58.716 
L 233.048896 -58.716 
L 234.172268 -58.716 
L 235.29564 -58.716 
L 236.419012 -58.716 
L 237.542384 -58.716 
L 238.665757 -58.716 
L 239.789129 -58.716 
L 240.912501 -58.716 
L 242.035873 -58.716 
L 243.159245 -58.716 
L 244.282617 -58.716 
L 245.405989 -58.716 
L 246.529361 -58.716 
L 247.652734 -58.716 
L 248.776106 -58.716 
L 249.899478 -58.716 
L 251.02285 -58.716 
L 252.146222 -58.716 
L 253.269594 -58.716 
L 254.392966 -58.716 
L 255.516338 -58.716 
L 256.639711 -58.716 
L 257.763083 -58.716 
L 258.886455 -58.716 
L 260.009827 -58.716 
L 261.133199 -58.716 
L 262.256571 -58.716 
L 263.379943 -58.716 
L 264.503316 -58.716 
L 265.626688 -58.716 
L 266.75006 -58.716 
L 267.873432 -58.716 
L 268.996804 -58.716 
L 270.120176 -58.716 
L 271.243548 -58.716 
L 272.36692 -58.716 
L 273.490293 -58.716 
L 274.613665 -58.716 
L 275.737037 -58.716 
L 276.860409 -58.716 
L 277.983781 -58.716 
L 279.107153 -58.716 
L 280.230525 -58.716 
L 281.353897 -58.716 
L 282.47727 -58.716 
L 283.600642 -58.716 
L 284.724014 -58.716 
L 285.847386 -58.716 
L 286.970758 -58.716 
L 288.09413 -58.716 
L 289.217502 -58.716 
L 290.340874 -58.716 
L 291.464247 -58.716 
L 292.587619 -58.716 
L 293.710991 -58.716 
L 294.834363 -58.716 
L 295.957735 -58.716 
L 297.081107 -58.716 
L 298.204479 -58.716 
L 299.327852 -58.716 
L 300.451224 -58.716 
L 301.574596 -58.716 
L 302.697968 -58.716 
L 303.82134 -58.716 
L 304.944712 -58.716 
L 306.068084 -58.716 
L 307.191456 -58.716 
L 308.314829 -58.716 
L 309.438201 -58.716 
L 310.561573 -58.716 
L 311.684945 -58.716 
L 312.808317 -58.716 
L 313.931689 -58.716 
L 315.055061 -58.716 
L 316.178433 -58.716 
L 317.301806 -58.716 
L 318.425178 -58.716 
L 319.54855 -58.716 
L 320.671922 -58.716 
L 321.795294 -58.716 
L 322.918666 -58.716 
L 324.042038 -58.716 
L 325.165411 -58.716 
L 326.288783 -58.716 
L 327.412155 -58.716 
L 328.535527 -58.716 
L 329.658899 -58.716 
L 330.782271 -58.716 
L 331.905643 -58.716 
L 333.029015 -58.716 
L 334.152388 -58.716 
L 335.27576 -58.716 
L 336.399132 -58.716 
L 337.522504 -58.716 
L 338.645876 -58.716 
L 339.769248 -58.716 
L 340.89262 -58.716 
L 342.015992 -58.716 
L 343.139365 -58.716 
L 344.262737 -58.716 
L 345.386109 -58.716 
L 346.509481 -58.716 
L 347.632853 -58.716 
L 348.756225 -58.716 
L 349.879597 -58.716 
L 351.002969 -58.716 
L 352.126342 -58.716 
L 353.249714 -58.716 
L 354.373086 -58.716 
L 355.496458 -58.716 
L 356.61983 -58.716 
L 357.743202 -58.716 
L 358.866574 -58.716 
L 359.989947 -58.716 
L 361.113319 -58.716 
L 362.236691 -58.716 
L 363.360063 -58.716 
L 364.483435 -58.716 
L 365.606807 -58.716 
L 366.730179 -58.716 
L 367.853551 -58.716 
L 368.976924 -58.716 
L 370.100296 -58.716 
L 371.223668 -58.716 
L 372.34704 -58.716 
L 373.470412 -58.716 
L 374.593784 -58.716 
L 375.717156 -58.716 
L 376.840528 -58.716 
L 377.963901 -58.716 
L 379.087273 -58.716 
L 379.087273 -58.716 
L 379.087273 -58.716 
L 377.963901 -58.716 
L 376.840528 -58.716 
L 375.717156 -58.716 
L 374.593784 -58.716 
L 373.470412 -58.716 
L 372.34704 -58.716 
L 371.223668 -58.716 
L 370.100296 -58.716 
L 368.976924 -58.716 
L 367.853551 -58.716 
L 366.730179 -58.716 
L 365.606807 -58.716 
L 364.483435 -58.716 
L 363.360063 -58.716 
L 362.236691 -58.716 
L 361.113319 -58.716 
L 359.989947 -58.716 
L 358.866574 -58.716 
L 357.743202 -58.716 
L 356.61983 -58.716 
L 355.496458 -58.716 
L 354.373086 -58.716 
L 353.249714 -58.716 
L 352.126342 -58.716 
L 351.002969 -58.716 
L 349.879597 -58.716 
L 348.756225 -58.716 
L 347.632853 -58.716 
L 346.509481 -58.716 
L 345.386109 -58.716 
L 344.262737 -58.716 
L 343.139365 -58.716 
L 342.015992 -58.716 
L 340.89262 -58.716 
L 339.769248 -58.716 
L 338.645876 -58.716 
L 337.522504 -58.716 
L 336.399132 -58.716 
L 335.27576 -58.716 
L 334.152388 -58.716 
L 333.029015 -58.716 
L 331.905643 -58.716 
L 330.782271 -58.716 
L 329.658899 -58.716 
L 328.535527 -58.716 
L 327.412155 -58.716 
L 326.288783 -58.716 
L 325.165411 -58.716 
L 324.042038 -58.716 
L 322.918666 -58.716 
L 321.795294 -58.716 
L 320.671922 -58.716 
L 319.54855 -58.716 
L 318.425178 -58.716 
L 317.301806 -58.716 
L 316.178433 -58.716 
L 315.055061 -58.716 
L 313.931689 -58.716 
L 312.808317 -58.716 
L 311.684945 -58.716 
L 310.561573 -58.716 
L 309.438201 -58.716 
L 308.314829 -58.716 
L 307.191456 -58.716 
L 306.068084 -58.716 
L 304.944712 -58.716 
L 303.82134 -58.716 
L 302.697968 -58.716 
L 301.574596 -58.716 
L 300.451224 -58.716 
L 299.327852 -58.716 
L 298.204479 -58.716 
L 297.081107 -58.716 
L 295.957735 -58.716 
L 294.834363 -58.716 
L 293.710991 -58.716 
L 292.587619 -58.716 
L 291.464247 -58.716 
L 290.340874 -58.716 
L 289.217502 -58.716 
L 288.09413 -58.716 
L 286.970758 -58.716 
L 285.847386 -58.716 
L 284.724014 -58.716 
L 283.600642 -58.716 
L 282.47727 -58.716 
L 281.353897 -58.716 
L 280.230525 -58.716 
L 279.107153 -58.716 
L 277.983781 -58.716 
L 276.860409 -58.716 
L 275.737037 -58.716 
L 274.613665 -58.716 
L 273.490293 -58.716 
L 272.36692 -58.716 
L 271.243548 -58.716 
L 270.120176 -58.716 
L 268.996804 -58.716 
L 267.873432 -58.716 
L 266.75006 -58.716 
L 265.626688 -58.716 
L 264.503316 -58.716 
L 263.379943 -58.716 
L 262.256571 -58.716 
L 261.133199 -58.716 
L 260.009827 -58.716 
L 258.886455 -58.716 
L 257.763083 -58.716 
L 256.639711 -58.716 
L 255.516338 -58.716 
L 254.392966 -58.716 
L 253.269594 -58.716 
L 252.146222 -58.716 
L 251.02285 -58.716 
L 249.899478 -58.716 
L 248.776106 -58.716 
L 247.652734 -58.716 
L 246.529361 -58.716 
L 245.405989 -58.716 
L 244.282617 -58.716 
L 243.159245 -58.716 
L 242.035873 -58.716 
L 240.912501 -58.716 
L 239.789129 -58.716 
L 238.665757 -58.716 
L 237.542384 -58.716 
L 236.419012 -58.716 
L 235.29564 -58.716 
L 234.172268 -58.716 
L 233.048896 -58.716 
L 231.925524 -58.716 
L 230.802152 -58.716 
L 229.678779 -58.716 
L 228.555407 -58.716 
L 227.432035 -58.716 
L 226.308663 -58.716 
L 225.185291 -58.716 
L 224.061919 -58.716 
L 222.938547 -58.716 
L 221.815175 -59.162759 
L 220.691802 -59.162759 
L 219.56843 -59.162759 
L 218.445058 -59.162759 
L 217.321686 -59.162759 
L 216.198314 -59.162759 
L 215.074942 -59.162759 
L 213.95157 -59.162759 
L 212.828198 -59.162759 
L 211.704825 -59.162759 
L 210.581453 -59.609518 
L 209.458081 -59.609518 
L 208.334709 -59.609518 
L 207.211337 -59.609518 
L 206.087965 -59.609518 
L 204.964593 -59.609518 
L 203.841221 -59.609518 
L 202.717848 -59.609518 
L 201.594476 -59.609518 
L 200.471104 -59.609518 
L 199.347732 -60.949795 
L 198.22436 -60.949795 
L 197.100988 -60.949795 
L 195.977616 -60.949795 
L 194.854243 -60.949795 
L 193.730871 -60.949795 
L 192.607499 -60.949795 
L 191.484127 -60.949795 
L 190.360755 -60.949795 
L 189.237383 -60.949795 
L 188.114011 -63.630349 
L 186.990639 -63.630349 
L 185.867266 -63.630349 
L 184.743894 -63.630349 
L 183.620522 -63.630349 
L 182.49715 -63.630349 
L 181.373778 -63.630349 
L 180.250406 -63.630349 
L 179.127034 -63.630349 
L 178.003662 -63.630349 
L 176.880289 -68.097939 
L 175.756917 -68.097939 
L 174.633545 -68.097939 
L 173.510173 -68.097939 
L 172.386801 -68.097939 
L 171.263429 -68.097939 
L 170.140057 -68.097939 
L 169.016684 -68.097939 
L 167.893312 -68.097939 
L 166.76994 -68.097939 
L 165.646568 -74.352565 
L 164.523196 -74.352565 
L 163.399824 -74.352565 
L 162.276452 -74.352565 
L 161.15308 -74.352565 
L 160.029707 -74.352565 
L 158.906335 -74.352565 
L 157.782963 -74.352565 
L 156.659591 -74.352565 
L 155.536219 -74.352565 
L 154.412847 -82.840986 
L 153.289475 -82.840986 
L 152.166103 -82.840986 
L 151.04273 -82.840986 
L 149.919358 -82.840986 
L 148.795986 -82.840986 
L 147.672614 -82.840986 
L 146.549242 -82.840986 
L 145.42587 -82.840986 
L 144.302498 -82.840986 
L 143.179126 -89.542371 
L 142.055753 -89.542371 
L 140.932381 -89.542371 
L 139.809009 -89.542371 
L 138.685637 -89.542371 
L 137.562265 -89.542371 
L 136.438893 -89.542371 
L 135.315521 -89.542371 
L 134.192148 -89.542371 
L 133.068776 -89.542371 
L 131.945404 -96.243756 
L 130.822032 -96.243756 
L 129.69866 -96.243756 
L 128.575288 -96.243756 
L 127.451916 -96.243756 
L 126.328544 -96.243756 
L 125.205171 -96.243756 
L 124.081799 -96.243756 
L 122.958427 -96.243756 
L 121.835055 -96.243756 
L 120.711683 -100.175235 
L 119.588311 -100.175235 
L 118.464939 -100.175235 
L 117.341567 -100.175235 
L 116.218194 -100.175235 
L 115.094822 -100.175235 
L 113.97145 -100.175235 
L 112.848078 -100.175235 
L 111.724706 -100.175235 
L 110.601334 -100.175235 
L 109.477962 -109.82523 
L 108.354589 -109.82523 
L 107.231217 -109.82523 
L 106.107845 -109.82523 
L 104.984473 -109.82523 
L 103.861101 -109.82523 
L 102.737729 -109.82523 
L 101.614357 -109.82523 
L 100.490985 -109.82523 
L 99.367612 -109.82523 
L 98.24424 -112.059025 
L 97.120868 -112.059025 
L 95.997496 -112.059025 
L 94.874124 -112.059025 
L 93.750752 -112.059025 
L 92.62738 -112.059025 
L 91.504008 -112.059025 
L 90.380635 -112.059025 
L 89.257263 -112.059025 
L 88.133891 -112.059025 
L 87.010519 -113.846061 
L 85.887147 -113.846061 
L 84.763775 -113.846061 
L 83.640403 -113.846061 
L 82.517031 -113.846061 
L 81.393658 -113.846061 
L 80.270286 -113.846061 
L 79.146914 -113.846061 
L 78.023542 -113.846061 
L 76.90017 -113.846061 
L 75.776798 -105.804399 
L 74.653426 -105.804399 
L 73.530053 -105.804399 
L 72.406681 -105.804399 
L 71.283309 -105.804399 
L 70.159937 -105.804399 
L 69.036565 -105.804399 
L 67.913193 -105.804399 
L 66.789821 -105.804399 
L 65.666449 -105.804399 
L 64.543076 -75.692842 
L 63.419704 -75.692842 
L 62.296332 -75.692842 
L 61.17296 -75.692842 
L 60.049588 -75.692842 
L 58.926216 -75.692842 
L 57.802844 -75.692842 
L 56.679472 -75.692842 
L 55.556099 -75.692842 
L 54.432727 -75.692842 
z
" id="m1cf4776ea5" style="stroke:#a25050;"/>
    </defs>
    <g clip-path="url(#pe810cfaebe)">
     <use style="fill:#a25050;stroke:#a25050;" x="0" xlink:href="#m1cf4776ea5" y="339.258"/>
    </g>
   </g>
   <g id="matplotlib.axis_1">
    <g id="xtick_1">
     <g id="line2d_1">
      <defs>
       <path d="M 0 0 
L 0 3.5 
" id="me322fe0f76" style="stroke:#000000;stroke-width:0.8;"/>
      </defs>
      <g>
       <use style="stroke:#000000;stroke-width:0.8;" x="54.432727" xlink:href="#me322fe0f76" y="292.638"/>
      </g>
     </g>
     <g id="text_1">
      <!-- 0 -->
      <g transform="translate(50.432727 310.743)scale(0.16 -0.16)">
       <defs>
        <path d="M 2925 2086 
C 2925 2592 2899 3187 2630 3706 
C 2368 4186 1926 4339 1600 4339 
C 1222 4339 774 4166 512 3597 
C 301 3130 269 2598 269 2086 
C 269 1581 294 1114 486 646 
C 742 32 1229 -141 1594 -141 
C 2061 -141 2464 122 2669 563 
C 2861 979 2925 1402 2925 2086 
z
M 2426 2163 
C 2426 1741 2426 1338 2310 934 
C 2144 352 1805 250 1600 250 
C 1267 250 1005 493 877 954 
C 774 1318 768 1664 768 2163 
C 768 2566 768 2950 877 3302 
C 915 3424 1075 3949 1594 3949 
C 2093 3949 2259 3462 2304 3347 
C 2426 2989 2426 2560 2426 2163 
z
" id="LMSans10-Regular-30" transform="scale(0.015625)"/>
       </defs>
       <use xlink:href="#LMSans10-Regular-30"/>
      </g>
     </g>
    </g>
    <g id="xtick_2">
     <g id="line2d_2">
      <g>
       <use style="stroke:#000000;stroke-width:0.8;" x="110.407649" xlink:href="#me322fe0f76" y="292.638"/>
      </g>
     </g>
     <g id="text_2">
      <!-- 5 -->
      <g transform="translate(106.407649 310.743)scale(0.16 -0.16)">
       <defs>
        <path d="M 2874 1299 
C 2874 2099 2323 2733 1664 2733 
C 1408 2733 1165 2637 979 2470 
L 979 3789 
L 2662 3789 
L 2662 4198 
L 518 4198 
L 518 1837 
L 941 1837 
C 1050 2093 1286 2342 1658 2342 
C 1958 2342 2304 2080 2304 1312 
C 2304 250 1523 250 1466 250 
C 1037 250 646 499 461 845 
L 250 486 
C 512 122 954 -141 1472 -141 
C 2234 -141 2874 493 2874 1299 
z
" id="LMSans10-Regular-35" transform="scale(0.015625)"/>
       </defs>
       <use xlink:href="#LMSans10-Regular-35"/>
      </g>
     </g>
    </g>
    <g id="xtick_3">
     <g id="line2d_3">
      <g>
       <use style="stroke:#000000;stroke-width:0.8;" x="166.382571" xlink:href="#me322fe0f76" y="292.638"/>
      </g>
     </g>
     <g id="text_3">
      <!-- 10 -->
      <g transform="translate(158.382571 310.743)scale(0.16 -0.16)">
       <defs>
        <path d="M 2714 0 
L 2714 371 
L 1914 371 
L 1914 4339 
L 1786 4339 
C 1408 3949 877 3930 570 3917 
L 570 3546 
C 781 3552 1088 3565 1408 3699 
L 1408 371 
L 608 371 
L 608 0 
L 2714 0 
z
" id="LMSans10-Regular-31" transform="scale(0.015625)"/>
       </defs>
       <use xlink:href="#LMSans10-Regular-31"/>
       <use x="49.999985" xlink:href="#LMSans10-Regular-30"/>
      </g>
     </g>
    </g>
    <g id="xtick_4">
     <g id="line2d_4">
      <g>
       <use style="stroke:#000000;stroke-width:0.8;" x="222.357492" xlink:href="#me322fe0f76" y="292.638"/>
      </g>
     </g>
     <g id="text_4">
      <!-- 15 -->
      <g transform="translate(214.357492 310.743)scale(0.16 -0.16)">
       <use xlink:href="#LMSans10-Regular-31"/>
       <use x="49.999985" xlink:href="#LMSans10-Regular-35"/>
      </g>
     </g>
    </g>
    <g id="xtick_5">
     <g id="line2d_5">
      <g>
       <use style="stroke:#000000;stroke-width:0.8;" x="278.332414" xlink:href="#me322fe0f76" y="292.638"/>
      </g>
     </g>
     <g id="text_5">
      <!-- 20 -->
      <g transform="translate(270.332414 310.743)scale(0.16 -0.16)">
       <defs>
        <path d="M 2874 0 
L 2874 454 
L 1709 454 
C 1632 454 1555 448 1478 448 
L 781 448 
C 986 627 1472 1107 1670 1293 
C 1792 1408 2118 1677 2240 1792 
C 2528 2080 2874 2419 2874 2963 
C 2874 3699 2355 4339 1510 4339 
C 781 4339 422 3840 269 3290 
C 346 3181 378 3142 390 3123 
C 403 3110 467 3027 531 2938 
C 659 3430 838 3930 1421 3930 
C 2022 3930 2349 3450 2349 2950 
C 2349 2406 1984 2042 1606 1658 
L 1114 1203 
L 320 410 
L 320 0 
L 2874 0 
z
" id="LMSans10-Regular-32" transform="scale(0.015625)"/>
       </defs>
       <use xlink:href="#LMSans10-Regular-32"/>
       <use x="49.999985" xlink:href="#LMSans10-Regular-30"/>
      </g>
     </g>
    </g>
    <g id="xtick_6">
     <g id="line2d_6">
      <g>
       <use style="stroke:#000000;stroke-width:0.8;" x="334.307335" xlink:href="#me322fe0f76" y="292.638"/>
      </g>
     </g>
     <g id="text_6">
      <!-- 25 -->
      <g transform="translate(326.307335 310.743)scale(0.16 -0.16)">
       <use xlink:href="#LMSans10-Regular-32"/>
       <use x="49.999985" xlink:href="#LMSans10-Regular-35"/>
      </g>
     </g>
    </g>
    <g id="xtick_7">
     <g id="line2d_7">
      <g>
       <use style="stroke:#000000;stroke-width:0.8;" x="390.282257" xlink:href="#me322fe0f76" y="292.638"/>
      </g>
     </g>
     <g id="text_7">
      <!-- 30 -->
      <g transform="translate(382.282257 310.743)scale(0.16 -0.16)">
       <defs>
        <path d="M 2925 1152 
C 2925 1734 2477 2131 2042 2266 
C 2528 2528 2752 2963 2752 3366 
C 2752 3917 2221 4339 1587 4339 
C 1094 4339 627 4083 358 3635 
L 589 3290 
C 774 3738 1190 3968 1581 3968 
C 1914 3968 2227 3776 2227 3366 
C 2227 2976 1965 2598 1574 2509 
C 1536 2502 1523 2502 1069 2464 
L 1069 2074 
L 1523 2074 
C 2214 2074 2355 1478 2355 1158 
C 2355 659 2061 250 1568 250 
C 1126 250 621 474 339 909 
L 269 525 
C 736 -77 1325 -141 1581 -141 
C 2362 -141 2925 480 2925 1152 
z
" id="LMSans10-Regular-33" transform="scale(0.015625)"/>
       </defs>
       <use xlink:href="#LMSans10-Regular-33"/>
       <use x="49.999985" xlink:href="#LMSans10-Regular-30"/>
      </g>
     </g>
    </g>
    <g id="text_8">
     <!-- y -->
     <g transform="translate(213.0725 328.778)scale(0.16 -0.16)">
      <defs>
       <path d="M 2854 2842 
L 2374 2842 
C 1542 806 1530 512 1523 365 
L 1517 365 
C 1478 794 966 1984 941 2042 
L 595 2842 
L 90 2842 
L 1331 0 
L 1101 -576 
C 934 -947 826 -947 736 -947 
C 634 -947 429 -922 237 -845 
L 275 -1261 
C 416 -1293 595 -1312 736 -1312 
C 960 -1312 1197 -1235 1459 -582 
L 2854 2842 
z
" id="LMSans10-Regular-79" transform="scale(0.015625)"/>
      </defs>
      <use xlink:href="#LMSans10-Regular-79"/>
     </g>
    </g>
   </g>
   <g id="matplotlib.axis_2">
    <g id="ytick_1">
     <g id="line2d_8">
      <defs>
       <path d="M 0 0 
L -3.5 0 
" id="md22eba83c0" style="stroke:#000000;stroke-width:0.8;"/>
      </defs>
      <g>
       <use style="stroke:#000000;stroke-width:0.8;" x="38.2" xlink:href="#md22eba83c0" y="280.542"/>
      </g>
     </g>
     <g id="text_9">
      <!-- 0 -->
      <g transform="translate(23.2 286.0945)scale(0.16 -0.16)">
       <use xlink:href="#LMSans10-Regular-30"/>
      </g>
     </g>
    </g>
    <g id="ytick_2">
     <g id="line2d_9">
      <g>
       <use style="stroke:#000000;stroke-width:0.8;" x="38.2" xlink:href="#md22eba83c0" y="235.8661"/>
      </g>
     </g>
     <g id="text_10">
      <!-- 100 -->
      <g transform="translate(7.2 241.4186)scale(0.16 -0.16)">
       <use xlink:href="#LMSans10-Regular-31"/>
       <use x="49.999985" xlink:href="#LMSans10-Regular-30"/>
       <use x="99.999969" xlink:href="#LMSans10-Regular-30"/>
      </g>
     </g>
    </g>
    <g id="ytick_3">
     <g id="line2d_10">
      <g>
       <use style="stroke:#000000;stroke-width:0.8;" x="38.2" xlink:href="#md22eba83c0" y="191.190199"/>
      </g>
     </g>
     <g id="text_11">
      <!-- 200 -->
      <g transform="translate(7.2 196.742699)scale(0.16 -0.16)">
       <use xlink:href="#LMSans10-Regular-32"/>
       <use x="49.999985" xlink:href="#LMSans10-Regular-30"/>
       <use x="99.999969" xlink:href="#LMSans10-Regular-30"/>
      </g>
     </g>
    </g>
    <g id="ytick_4">
     <g id="line2d_11">
      <g>
       <use style="stroke:#000000;stroke-width:0.8;" x="38.2" xlink:href="#md22eba83c0" y="146.514299"/>
      </g>
     </g>
     <g id="text_12">
      <!-- 300 -->
      <g transform="translate(7.2 152.066799)scale(0.16 -0.16)">
       <use xlink:href="#LMSans10-Regular-33"/>
       <use x="49.999985" xlink:href="#LMSans10-Regular-30"/>
       <use x="99.999969" xlink:href="#LMSans10-Regular-30"/>
      </g>
     </g>
    </g>
    <g id="ytick_5">
     <g id="line2d_12">
      <g>
       <use style="stroke:#000000;stroke-width:0.8;" x="38.2" xlink:href="#md22eba83c0" y="101.838399"/>
      </g>
     </g>
     <g id="text_13">
      <!-- 400 -->
      <g transform="translate(7.2 107.390899)scale(0.16 -0.16)">
       <defs>
        <path d="M 3014 1094 
L 3014 1485 
L 2381 1485 
L 2381 4198 
L 1798 4198 
L 179 1485 
L 179 1094 
L 1875 1094 
L 1875 0 
L 2381 0 
L 2381 1094 
L 3014 1094 
z
M 1914 1485 
L 678 1485 
C 1011 2035 1907 3552 1914 3917 
L 1914 1485 
z
" id="LMSans10-Regular-34" transform="scale(0.015625)"/>
       </defs>
       <use xlink:href="#LMSans10-Regular-34"/>
       <use x="49.999985" xlink:href="#LMSans10-Regular-30"/>
       <use x="99.999969" xlink:href="#LMSans10-Regular-30"/>
      </g>
     </g>
    </g>
    <g id="ytick_6">
     <g id="line2d_13">
      <g>
       <use style="stroke:#000000;stroke-width:0.8;" x="38.2" xlink:href="#md22eba83c0" y="57.162499"/>
      </g>
     </g>
     <g id="text_14">
      <!-- 500 -->
      <g transform="translate(7.2 62.714999)scale(0.16 -0.16)">
       <use xlink:href="#LMSans10-Regular-35"/>
       <use x="49.999985" xlink:href="#LMSans10-Regular-30"/>
       <use x="99.999969" xlink:href="#LMSans10-Regular-30"/>
      </g>
     </g>
    </g>
   </g>
   <g id="line2d_14">
    <path clip-path="url(#pe810cfaebe)" d="M 54.432727 274.063994 
L 64.543076 274.063994 
L 65.666449 253.959839 
L 75.776798 253.959839 
L 76.90017 244.80128 
L 87.010519 244.80128 
L 88.133891 244.131141 
L 98.24424 244.131141 
L 99.367612 249.492249 
L 109.477962 249.492249 
L 110.601334 254.629978 
L 120.711683 254.629978 
L 121.835055 256.640393 
L 131.945404 256.640393 
L 133.068776 260.884604 
L 143.179126 260.884604 
L 144.302498 268.032748 
L 154.412847 268.032748 
L 155.536219 274.287374 
L 165.646568 274.287374 
L 166.76994 277.638066 
L 176.880289 277.638066 
L 178.003662 279.648482 
L 188.114011 279.648482 
L 189.237383 280.095241 
L 199.347732 280.095241 
L 200.471104 280.542 
L 379.087273 280.542 
L 379.087273 280.542 
" style="fill:none;stroke:#7c0000;stroke-linecap:square;stroke-width:1.5;"/>
   </g>
   <g id="line2d_15">
    <path clip-path="url(#pe810cfaebe)" d="M 334.307335 292.638 
L 334.307335 26.526 
" style="fill:none;stroke:#000000;stroke-linecap:square;stroke-width:2;"/>
   </g>
   <g id="patch_3">
    <path d="M 38.2 292.638 
L 38.2 26.526 
" style="fill:none;stroke:#000000;stroke-linecap:square;stroke-linejoin:miter;stroke-width:0.8;"/>
   </g>
   <g id="patch_4">
    <path d="M 395.32 292.638 
L 395.32 26.526 
" style="fill:none;stroke:#000000;stroke-linecap:square;stroke-linejoin:miter;stroke-width:0.8;"/>
   </g>
   <g id="patch_5">
    <path d="M 38.2 292.638 
L 395.32 292.638 
" style="fill:none;stroke:#000000;stroke-linecap:square;stroke-linejoin:miter;stroke-width:0.8;"/>
   </g>
   <g id="patch_6">
    <path d="M 38.2 26.526 
L 395.32 26.526 
" style="fill:none;stroke:#000000;stroke-linecap:square;stroke-linejoin:miter;stroke-width:0.8;"/>
   </g>
   <g id="text_15">
    <!-- Prior predictive distribution -->
    <g transform="translate(106.6615 20.526)scale(0.192 -0.192)">
     <defs>
      <path d="M 3725 3149 
C 3725 3834 3091 4442 2208 4442 
L 614 4442 
L 614 0 
L 1184 0 
L 1184 1850 
L 2253 1850 
C 3046 1850 3725 2432 3725 3149 
z
M 3206 3149 
C 3206 2643 2803 2221 2067 2221 
L 1165 2221 
L 1165 4083 
L 2067 4083 
C 2771 4083 3206 3693 3206 3149 
z
" id="LMSans10-Regular-50" transform="scale(0.015625)"/>
      <path d="M 2093 2483 
L 2093 2912 
C 1523 2906 1171 2592 973 2298 
L 973 2880 
L 525 2880 
L 525 0 
L 1005 0 
L 1005 1370 
C 1005 2010 1466 2470 2093 2483 
z
" id="LMSans10-Regular-72" transform="scale(0.015625)"/>
      <path d="M 998 0 
L 998 2842 
L 518 2842 
L 518 0 
L 998 0 
z
M 1050 3622 
L 1050 4192 
L 480 4192 
L 480 3622 
L 1050 3622 
z
" id="LMSans10-Regular-69" transform="scale(0.015625)"/>
      <path d="M 3002 1408 
C 3002 2266 2362 2950 1600 2950 
C 813 2950 192 2246 192 1408 
C 192 563 845 -70 1594 -70 
C 2362 -70 3002 576 3002 1408 
z
M 2502 1472 
C 2502 717 2067 339 1594 339 
C 1152 339 691 698 691 1472 
C 691 2246 1178 2560 1594 2560 
C 2042 2560 2502 2227 2502 1472 
z
" id="LMSans10-Regular-6f" transform="scale(0.015625)"/>
      <path id="LMSans10-Regular-20" transform="scale(0.015625)"/>
      <path d="M 3072 1427 
C 3072 2195 2669 2912 2054 2912 
C 1670 2912 1299 2778 1005 2528 
L 1005 2842 
L 525 2842 
L 525 -1242 
L 1024 -1242 
L 1024 294 
C 1222 109 1504 -70 1888 -70 
C 2509 -70 3072 557 3072 1427 
z
M 2573 1427 
C 2573 768 2118 320 1638 320 
C 1389 320 1216 448 1088 621 
C 1024 717 1024 730 1024 845 
L 1024 2131 
C 1178 2355 1427 2502 1702 2502 
C 2189 2502 2573 2016 2573 1427 
z
" id="LMSans10-Regular-70" transform="scale(0.015625)"/>
      <path d="M 2650 1402 
C 2650 1619 2643 2099 2394 2483 
C 2131 2880 1741 2950 1510 2950 
C 800 2950 224 2272 224 1446 
C 224 602 838 -70 1606 -70 
C 2010 -70 2374 83 2624 262 
L 2586 678 
C 2182 346 1760 320 1613 320 
C 1101 320 691 774 672 1402 
L 2650 1402 
z
M 2285 1754 
L 704 1754 
C 806 2240 1146 2560 1510 2560 
C 1843 2560 2202 2342 2285 1754 
z
" id="LMSans10-Regular-65" transform="scale(0.015625)"/>
      <path d="M 2778 0 
L 2778 4442 
L 2298 4442 
L 2298 2560 
C 1958 2842 1600 2912 1363 2912 
C 730 2912 230 2246 230 1421 
C 230 582 723 -70 1331 -70 
C 1542 -70 1920 -13 2278 333 
L 2278 0 
L 2778 0 
z
M 2278 890 
C 2278 800 2272 685 2067 499 
C 1920 371 1760 320 1594 320 
C 1197 320 730 621 730 1414 
C 730 2259 1280 2522 1658 2522 
C 1946 2522 2138 2374 2278 2170 
L 2278 890 
z
" id="LMSans10-Regular-64" transform="scale(0.015625)"/>
      <path d="M 2656 256 
L 2618 685 
C 2291 429 1946 339 1619 339 
C 1088 339 730 800 730 1427 
C 730 1926 966 2541 1645 2541 
C 1978 2541 2195 2490 2547 2259 
L 2624 2675 
C 2246 2893 2029 2950 1638 2950 
C 749 2950 230 2176 230 1421 
C 230 627 813 -70 1613 -70 
C 1958 -70 2310 19 2656 256 
z
" id="LMSans10-Regular-63" transform="scale(0.015625)"/>
      <path d="M 2125 173 
L 2022 550 
C 1856 416 1651 339 1446 339 
C 1210 339 1120 531 1120 870 
L 1120 2470 
L 2022 2470 
L 2022 2842 
L 1120 2842 
L 1120 3654 
L 678 3654 
L 678 2842 
L 122 2842 
L 122 2470 
L 659 2470 
L 659 762 
C 659 378 749 -70 1190 -70 
C 1638 -70 1965 90 2125 173 
z
" id="LMSans10-Regular-74" transform="scale(0.015625)"/>
      <path d="M 2854 2842 
L 2374 2842 
L 1869 1510 
C 1734 1158 1536 640 1485 339 
L 1478 339 
C 1440 570 1274 1011 1210 1184 
L 589 2842 
L 90 2842 
L 1190 0 
L 1754 0 
L 2854 2842 
z
" id="LMSans10-Regular-76" transform="scale(0.015625)"/>
      <path d="M 2304 819 
C 2304 1171 2067 1389 2054 1408 
C 1805 1632 1632 1670 1312 1728 
C 960 1798 666 1862 666 2176 
C 666 2573 1126 2573 1210 2573 
C 1414 2573 1754 2547 2118 2330 
L 2195 2746 
C 1862 2899 1600 2950 1274 2950 
C 1114 2950 211 2950 211 2112 
C 211 1798 397 1594 557 1472 
C 755 1331 896 1306 1248 1235 
C 1478 1190 1850 1114 1850 774 
C 1850 333 1344 333 1248 333 
C 730 333 371 570 256 646 
L 179 211 
C 384 109 736 -70 1254 -70 
C 1370 -70 1722 -70 1997 134 
C 2195 288 2304 544 2304 819 
z
" id="LMSans10-Regular-73" transform="scale(0.015625)"/>
      <path d="M 3072 1427 
C 3072 2221 2637 2912 2035 2912 
C 1786 2912 1389 2848 1005 2534 
L 1005 4442 
L 525 4442 
L 525 0 
L 1024 0 
L 1024 294 
C 1178 154 1453 -70 1882 -70 
C 2522 -70 3072 570 3072 1427 
z
M 2573 1427 
C 2573 595 2035 320 1645 320 
C 1395 320 1184 435 1024 730 
L 1024 2144 
C 1126 2298 1357 2522 1709 2522 
C 2086 2522 2573 2246 2573 1427 
z
" id="LMSans10-Regular-62" transform="scale(0.015625)"/>
      <path d="M 2784 0 
L 2784 2842 
L 2285 2842 
L 2285 986 
C 2285 506 1926 282 1517 282 
C 1062 282 1018 448 1018 723 
L 1018 2842 
L 518 2842 
L 518 698 
C 518 237 666 -70 1197 -70 
C 1536 -70 1990 32 2304 307 
L 2304 0 
L 2784 0 
z
" id="LMSans10-Regular-75" transform="scale(0.015625)"/>
      <path d="M 2784 0 
L 2784 1907 
C 2784 2330 2688 2912 1907 2912 
C 1331 2912 1018 2477 979 2426 
L 979 2880 
L 518 2880 
L 518 0 
L 1018 0 
L 1018 1568 
C 1018 1990 1178 2522 1664 2522 
C 2278 2522 2285 2067 2285 1862 
L 2285 0 
L 2784 0 
z
" id="LMSans10-Regular-6e" transform="scale(0.015625)"/>
     </defs>
     <use xlink:href="#LMSans10-Regular-50"/>
     <use x="63.899994" xlink:href="#LMSans10-Regular-72"/>
     <use x="98.099991" xlink:href="#LMSans10-Regular-69"/>
     <use x="121.999985" xlink:href="#LMSans10-Regular-6f"/>
     <use x="171.999969" xlink:href="#LMSans10-Regular-72"/>
     <use x="206.199966" xlink:href="#LMSans10-Regular-20"/>
     <use x="239.499954" xlink:href="#LMSans10-Regular-70"/>
     <use x="291.199951" xlink:href="#LMSans10-Regular-72"/>
     <use x="325.399948" xlink:href="#LMSans10-Regular-65"/>
     <use x="369.799942" xlink:href="#LMSans10-Regular-64"/>
     <use x="421.499939" xlink:href="#LMSans10-Regular-69"/>
     <use x="445.399933" xlink:href="#LMSans10-Regular-63"/>
     <use x="489.799927" xlink:href="#LMSans10-Regular-74"/>
     <use x="525.899918" xlink:href="#LMSans10-Regular-69"/>
     <use x="549.799911" xlink:href="#LMSans10-Regular-76"/>
     <use x="595.899902" xlink:href="#LMSans10-Regular-65"/>
     <use x="640.299896" xlink:href="#LMSans10-Regular-20"/>
     <use x="673.599884" xlink:href="#LMSans10-Regular-64"/>
     <use x="725.299881" xlink:href="#LMSans10-Regular-69"/>
     <use x="749.199875" xlink:href="#LMSans10-Regular-73"/>
     <use x="787.499863" xlink:href="#LMSans10-Regular-74"/>
     <use x="823.599854" xlink:href="#LMSans10-Regular-72"/>
     <use x="857.79985" xlink:href="#LMSans10-Regular-69"/>
     <use x="881.699844" xlink:href="#LMSans10-Regular-62"/>
     <use x="933.399841" xlink:href="#LMSans10-Regular-75"/>
     <use x="985.099838" xlink:href="#LMSans10-Regular-74"/>
     <use x="1021.199829" xlink:href="#LMSans10-Regular-69"/>
     <use x="1045.099823" xlink:href="#LMSans10-Regular-6f"/>
     <use x="1095.099808" xlink:href="#LMSans10-Regular-6e"/>
    </g>
   </g>
  </g>
 </g>
 <defs>
  <clipPath id="pe810cfaebe">
   <rect height="266.112" width="357.12" x="38.2" y="26.526"/>
  </clipPath>
 </defs>
</svg>
